<?xml version="1.0" encoding="utf-8"?>
<!-- Generator: Adobe Illustrator 21.0.1, SVG Export Plug-In . SVG Version: 6.00 Build 0)  -->
<svg version="1.1" id="chel" xmlns="http://www.w3.org/2000/svg" xmlns:xlink="http://www.w3.org/1999/xlink" x="0px" y="0px"
	 viewBox="0 0 116.6 145" style="enable-background:new 0 0 116.6 145;" xml:space="preserve">
<style type="text/css">
	.st0{fill:#FE7F2D;}
	.st1{fill:#5C415D;}
</style>
<path class="st0" d="M111.8,97.7c-10.2-8.2-21.2-15.3-32.9-21.2V55.6c3-2.3,4.7-5.9,4.7-9.7V22.8C83.6,10.2,73.4,0,60.8,0h-5
	C43.2,0,33,10.2,33,22.8V46c0,3.8,1.7,7.3,4.7,9.7v20.9C26,82.4,15,89.5,4.8,97.7c-3,2.5-4.8,6.2-4.8,10.1v15.9c0,1,0.8,1.9,1.9,1.9
	c1,0,1.9-0.8,1.9-1.9c0,0,0,0,0,0v-15.9c0-2.8,1.2-5.5,3.4-7.3c10.1-8.1,21.1-15.1,32.7-20.9c1-0.5,1.6-1.5,1.6-2.6V54.6
	c0-0.6-0.3-1.2-0.8-1.6c-2.4-1.6-3.9-4.3-3.8-7.2V22.8c0-10.5,8.5-19,19.1-19.1h5c10.5,0,19,8.5,19.1,19.1V46c0,2.9-1.4,5.6-3.8,7.2
	c-0.5,0.3-0.8,0.9-0.8,1.6V77c0,1.1,0.6,2.1,1.6,2.6c11.6,5.8,22.5,12.8,32.7,20.9c2.2,1.8,3.4,4.5,3.4,7.3v15.9
	c0,1,0.9,1.8,1.9,1.8c1,0,1.9-0.8,1.9-1.9v-15.9C116.6,103.9,114.8,100.2,111.8,97.7z M111.8,97.7c-10.2-8.2-21.2-15.3-32.9-21.2
	V55.6c3-2.3,4.7-5.9,4.7-9.7V22.8C83.6,10.2,73.4,0,60.8,0h-5C43.2,0,33,10.2,33,22.8V46c0,3.8,1.7,7.3,4.7,9.7v20.9
	C26,82.4,15,89.5,4.8,97.7c-3,2.5-4.8,6.2-4.8,10.1v15.9c0,1,0.8,1.9,1.9,1.9c1,0,1.9-0.8,1.9-1.9c0,0,0,0,0,0v-15.9
	c0-2.8,1.2-5.5,3.4-7.3c10.1-8.1,21.1-15.1,32.7-20.9c1-0.5,1.6-1.5,1.6-2.6V54.6c0-0.6-0.3-1.2-0.8-1.6c-2.4-1.6-3.9-4.3-3.8-7.2
	V22.8c0-10.5,8.5-19,19.1-19.1h5c10.5,0,19,8.5,19.1,19.1V46c0,2.9-1.4,5.6-3.8,7.2c-0.5,0.3-0.8,0.9-0.8,1.6V77
	c0,1.1,0.6,2.1,1.6,2.6c11.6,5.8,22.5,12.8,32.7,20.9c2.2,1.8,3.4,4.5,3.4,7.3v15.9c0,1,0.9,1.8,1.9,1.8c1,0,1.9-0.8,1.9-1.9v-15.9
	C116.6,103.9,114.8,100.2,111.8,97.7z"/>
<path class="st1" d="M67.8,75.8c0-1-0.8-1.9-1.9-1.9c-1,0-1.9,0.8-1.9,1.9c0,1.7-0.7,3.2-1.9,4.3c-0.2,0.1-0.4,0.2-0.5,0.4
	c-2.6,1.9-6.3,1.3-8.1-1.4c-0.7-1-1.1-2.2-1.1-3.4c0-1-0.8-1.9-1.9-1.9c-1,0-1.8,0.8-1.9,1.9c0,2.3,0.9,4.6,2.4,6.3l-2.3,54.2
	c0,0.6,0.2,1.1,0.6,1.5l7.4,6.6c0.7,0.6,1.8,0.6,2.5,0l7.5-6.8c0.4-0.4,0.6-0.9,0.6-1.4L65,82.6C66.8,80.9,67.8,78.4,67.8,75.8z
	 M58,140.6l-5.4-5l2.2-51c1.1,0.5,2.3,0.7,3.5,0.7c1,0,2.1-0.2,3-0.5l2.3,50.7L58,140.6z"/>
</svg>
