<svg xmlns="http://www.w3.org/2000/svg" xmlns:xlink="http://www.w3.org/1999/xlink" width="63.25" height="85.12" viewBox="0 0 63.25 85.12">
  <metadata><?xpacket begin="﻿" id="W5M0MpCehiHzreSzNTczkc9d"?>
<x:xmpmeta xmlns:x="adobe:ns:meta/" x:xmptk="Adobe XMP Core 5.6-c138 79.159824, 2016/09/14-01:09:01        ">
   <rdf:RDF xmlns:rdf="http://www.w3.org/1999/02/22-rdf-syntax-ns#">
      <rdf:Description rdf:about=""/>
   </rdf:RDF>
</x:xmpmeta>
                                                                                                    
                                                                                                    
                                                                                                    
                                                                                                    
                                                                                                    
                                                                                                    
                                                                                                    
                                                                                                    
                                                                                                    
                                                                                                    
                                                                                                    
                                                                                                    
                                                                                                    
                                                                                                    
                                                                                                    
                                                                                                    
                                                                                                    
                                                                                                    
                                                                                                    
                                                                                                    
                           
<?xpacket end="w"?></metadata>
<defs>
    <style>
      .cls-1 {
        fill-rule: evenodd;
        fill: url(#linear-gradient);
      }
    </style>
    <linearGradient id="linear-gradient" x1="1450.72" y1="1743.815" x2="1513.97" y2="1807.065" gradientUnits="userSpaceOnUse">
      <stop offset="0" stop-color="#de4313"/>
      <stop offset="1" stop-color="#fec163"/>
    </linearGradient>
  </defs>
  <path id="Прямоугольник_8" data-name="Прямоугольник 8" class="cls-1" d="M1507.78,1818h-50.16a6.713,6.713,0,0,1-5.16-2.69,7.506,7.506,0,0,1-1.6-6.17,31.769,31.769,0,0,1,17.61-21.85,3.482,3.482,0,0,1-.33-1.21h-10.3a1.318,1.318,0,0,1-1.24-.87c-1.75-4.8-2.9-7.97-2.9-14.15,0-21.41,12.74-38.18,29-38.18,16.7,0,30.28,17.13,30.28,38.18,0,5.5-.89,7.9-2.36,11.87l-0.53,1.45a1.316,1.316,0,0,1-1.69.79,1.334,1.334,0,0,1-.79-1.71l0.54-1.46c1.46-3.94,2.19-5.92,2.19-10.94,0-19.59-12.4-35.52-27.64-35.52-14.78,0-26.36,15.6-26.36,35.52,0,5.35.86,8.04,2.42,12.36h10.74a1.33,1.33,0,0,1,1,.46,1.346,1.346,0,0,1,.3,1.07,3.915,3.915,0,0,0-.05.59,1.406,1.406,0,0,0,.43,1.1c0.11,0.15.22,0.31,0.35,0.5a1.34,1.34,0,0,1-.6,1.97,29.142,29.142,0,0,0-17.49,20.61,4.872,4.872,0,0,0,1.08,3.92,4.09,4.09,0,0,0,3.1,1.7h50.16a3.105,3.105,0,0,0,2.43-1.27,5.38,5.38,0,0,0,.98-4.35,29.129,29.129,0,0,0-17.48-20.61,1.337,1.337,0,0,1-.29-2.3,3.7,3.7,0,0,0,1.2-2.78,2.624,2.624,0,0,0-1.31-2.66,1.355,1.355,0,0,1-.5-2.11c3.6-4.15,5.66-10.3,5.66-16.87a29.046,29.046,0,0,0-2.02-10.79,18.1,18.1,0,0,1-7.15,1.23c-7.75,0-12.94-3.62-15.48-7.25-3.54,4.11-5.61,10.26-5.61,16.81,0,11.95,6.79,21.66,15.13,21.66a11.115,11.115,0,0,0,5.73-1.62,1.327,1.327,0,0,1,1.34,2.29,13.738,13.738,0,0,1-7.07,1.99c-9.8,0-17.77-10.91-17.77-24.32,0-7.95,2.83-15.4,7.58-19.95a1.322,1.322,0,0,1,2.09.37c1.69,3.4,6.38,7.36,14.06,7.36a16.185,16.185,0,0,0,6.99-1.36l0.39-.15a1.328,1.328,0,0,1,1.67.68,31.175,31.175,0,0,1,2.76,13.05,29.276,29.276,0,0,1-5.4,17.49,5.563,5.563,0,0,1,1.55,4.19,6.732,6.732,0,0,1-.92,3.3,31.735,31.735,0,0,1,17.43,21.77,8.06,8.06,0,0,1-1.5,6.6A5.7,5.7,0,0,1,1507.78,1818Z" transform="translate(-1450.72 -1732.88)"/>
</svg>
