<svg xmlns="http://www.w3.org/2000/svg" xmlns:xlink="http://www.w3.org/1999/xlink" width="76.06" height="65.5" viewBox="0 0 76.06 65.5">
  <metadata><?xpacket begin="﻿" id="W5M0MpCehiHzreSzNTczkc9d"?>
<x:xmpmeta xmlns:x="adobe:ns:meta/" x:xmptk="Adobe XMP Core 5.6-c138 79.159824, 2016/09/14-01:09:01        ">
   <rdf:RDF xmlns:rdf="http://www.w3.org/1999/02/22-rdf-syntax-ns#">
      <rdf:Description rdf:about=""/>
   </rdf:RDF>
</x:xmpmeta>
                                                                                                    
                                                                                                    
                                                                                                    
                                                                                                    
                                                                                                    
                                                                                                    
                                                                                                    
                                                                                                    
                                                                                                    
                                                                                                    
                                                                                                    
                                                                                                    
                                                                                                    
                                                                                                    
                                                                                                    
                                                                                                    
                                                                                                    
                                                                                                    
                                                                                                    
                                                                                                    
                           
<?xpacket end="w"?></metadata>
<defs>
    <style>
      .cls-1 {
        fill-rule: evenodd;
        fill: url(#linear-gradient);
      }
    </style>
    <linearGradient id="linear-gradient" x1="1851.25" y1="1807.75" x2="1785.75" y2="1742.25" gradientUnits="userSpaceOnUse">
      <stop offset="0" stop-color="#de4313"/>
      <stop offset="1" stop-color="#fec163"/>
    </linearGradient>
  </defs>
  <path id="Прямоугольник_9" data-name="Прямоугольник 9" class="cls-1" d="M1850.67,1807.76h-64.35a5.864,5.864,0,0,1-5.85-5.85v-37.44a1.17,1.17,0,1,1,2.34,0v37.44a3.515,3.515,0,0,0,3.51,3.51h64.35a3.508,3.508,0,0,0,3.51-3.51v-12.87h-30.42a1.171,1.171,0,0,1-.95-0.49l-5.85-8.19a1.172,1.172,0,0,1,0-1.36l5.85-8.19a1.171,1.171,0,0,1,.95-0.49h30.42v-12.87a3.506,3.506,0,0,0-3.51-3.5l-69.03-.01a1.171,1.171,0,0,1-1.17-1.17v-4.68a5.858,5.858,0,0,1,5.85-5.85h54.99a6.332,6.332,0,0,1,5.85,5.85,1.17,1.17,0,0,1-2.34,0,4.114,4.114,0,0,0-3.51-3.51h-54.99a3.515,3.515,0,0,0-3.51,3.51v3.51l67.86,0.01a5.849,5.849,0,0,1,5.85,5.84v14.04a1.165,1.165,0,0,1-1.17,1.17h-30.98l-5.02,7.02,5.02,7.02h30.98a1.165,1.165,0,0,1,1.17,1.17v14.04A5.858,5.858,0,0,1,1850.67,1807.76Zm-18.72-23.4a4.68,4.68,0,1,1,4.68-4.68A4.686,4.686,0,0,1,1831.95,1784.36Zm0-7.02a2.34,2.34,0,1,0,2.34,2.34A2.343,2.343,0,0,0,1831.95,1777.34Z" transform="translate(-1780.47 -1742.25)"/>
</svg>
