<svg xmlns="http://www.w3.org/2000/svg" width="35.38" height="20.03" viewBox="0 0 35.38 20.03">
  <metadata><?xpacket begin="﻿" id="W5M0MpCehiHzreSzNTczkc9d"?>
<x:xmpmeta xmlns:x="adobe:ns:meta/" x:xmptk="Adobe XMP Core 5.6-c138 79.159824, 2016/09/14-01:09:01        ">
   <rdf:RDF xmlns:rdf="http://www.w3.org/1999/02/22-rdf-syntax-ns#">
      <rdf:Description rdf:about=""/>
   </rdf:RDF>
</x:xmpmeta>
                                                                                                    
                                                                                                    
                                                                                                    
                                                                                                    
                                                                                                    
                                                                                                    
                                                                                                    
                                                                                                    
                                                                                                    
                                                                                                    
                                                                                                    
                                                                                                    
                                                                                                    
                                                                                                    
                                                                                                    
                                                                                                    
                                                                                                    
                                                                                                    
                                                                                                    
                                                                                                    
                           
<?xpacket end="w"?></metadata>
<defs>
    <style>
      .cls-1 {
        fill-rule: evenodd;
      }
    </style>
  </defs>
  <path class="cls-1" d="M1455.13,1521.35a21.929,21.929,0,0,0-7.43-6.07,21.416,21.416,0,0,0-9.4-2.27h-0.55a21.416,21.416,0,0,0-9.4,2.27,21.74,21.74,0,0,0-7.43,6.07,2.689,2.689,0,0,0,0,3.33,21.74,21.74,0,0,0,7.43,6.07,21.416,21.416,0,0,0,9.4,2.27h0.55a21.416,21.416,0,0,0,9.4-2.27,21.929,21.929,0,0,0,7.43-6.07A2.717,2.717,0,0,0,1455.13,1521.35Zm-26.14,8.12a20.3,20.3,0,0,1-6.94-5.68,1.247,1.247,0,0,1,0-1.55,20.3,20.3,0,0,1,6.94-5.68,21.561,21.561,0,0,1,2.34-.99,9.988,9.988,0,0,0,0,14.89A21.561,21.561,0,0,1,1428.99,1529.47Zm9.03,2.11a8.57,8.57,0,1,1,8.59-8.57A8.582,8.582,0,0,1,1438.02,1531.58Zm15.97-7.79a20.3,20.3,0,0,1-6.94,5.68,20.535,20.535,0,0,1-2.33.98,9.976,9.976,0,0,0,0-14.88,20.435,20.435,0,0,1,9.28,6.67A1.261,1.261,0,0,1,1453.99,1523.79Zm-15.97-4.44a3.665,3.665,0,1,0,3.68,3.66A3.67,3.67,0,0,0,1438.02,1519.35Zm0,5.9a2.235,2.235,0,1,1,2.24-2.24A2.241,2.241,0,0,1,1438.02,1525.25Z" transform="translate(-1420.34 -1513)"/>
</svg>
