<?xml version="1.0" encoding="utf-8"?>
<!-- Generator: Adobe Illustrator 21.0.1, SVG Export Plug-In . SVG Version: 6.00 Build 0)  -->
<svg version="1.1" id="Слой_1" xmlns="http://www.w3.org/2000/svg" xmlns:xlink="http://www.w3.org/1999/xlink" x="0px" y="0px"
	 viewBox="0 0 14 21" style="enable-background:new 0 0 14 21;" xml:space="preserve">
<style type="text/css">
	.st0{fill:#919BB2;}
</style>
<path class="st0" d="M10.3,7c0,1.9-1.5,3.4-3.4,3.4S3.4,8.9,3.4,7S5,3.6,6.9,3.6S10.3,5.1,10.3,7z M13.7,7c0-3.8-3.1-6.9-6.9-6.9
	C3.1,0.1,0,3.2,0,7c0,0.8,0.1,1.7,0.4,2.4l4.9,10.4c0.3,0.6,0.9,1,1.5,1s1.3-0.4,1.5-1l4.9-10.4C13.6,8.7,13.7,7.8,13.7,7z"/>
</svg>
