<svg xmlns="http://www.w3.org/2000/svg" width="17.16" height="17.16" viewBox="0 0 17.16 17.16">
  <defs>
    <style>
      .cls-1 {
        fill: #a1a7be;
        fill-rule: evenodd;
      }
    </style>
  </defs>
  <path id="int.svg" class="cls-1" d="M1731.28,4888.86a2.855,2.855,0,1,1-2.86-2.85A2.872,2.872,0,0,1,1731.28,4888.86Zm1.54,0a4.4,4.4,0,1,0-4.4,4.4A4.392,4.392,0,0,0,1732.82,4888.86Zm1.2-4.57a1.025,1.025,0,1,0-1.02,1.02A1.026,1.026,0,0,0,1734.02,4884.29Zm-5.6-2.46c1.25,0,3.93-.1,5.06.35a2.8,2.8,0,0,1,.98.65,2.645,2.645,0,0,1,.64.98c0.45,1.13.35,3.8,0.35,5.05s0.1,3.93-.35,5.05a2.766,2.766,0,0,1-.64.99,2.645,2.645,0,0,1-.98.64c-1.13.45-3.81,0.35-5.06,0.35s-3.92.1-5.05-.35a2.645,2.645,0,0,1-.98-0.64,2.935,2.935,0,0,1-.65-0.99c-0.45-1.12-.34-3.8-0.34-5.05s-0.11-3.92.34-5.05a2.963,2.963,0,0,1,1.63-1.63C1724.5,4881.73,1727.17,4881.83,1728.42,4881.83Zm8.57,7.03c0-1.18.01-2.35-.06-3.53a4.734,4.734,0,0,0-4.97-4.98c-1.18-.07-2.36-0.06-3.54-0.06s-2.35-.01-3.53.06a4.735,4.735,0,0,0-4.98,4.98c-0.07,1.18-.05,2.35-0.05,3.53s-0.02,2.35.05,3.54a4.734,4.734,0,0,0,4.98,4.97c1.18,0.07,2.35.06,3.53,0.06s2.36,0.01,3.54-.06a4.733,4.733,0,0,0,4.97-4.97C1737,4891.21,1736.99,4890.04,1736.99,4888.86Z" transform="translate(-1719.84 -4880.28)"/>
</svg>
