<svg xmlns="http://www.w3.org/2000/svg" width="24" height="18.88" viewBox="0 0 24 18.88">
  <defs>
    <style>
      .cls-1 {
        fill: #e83360;
        fill-rule: evenodd;
      }
    </style>
  </defs>
  <path id="mail.svg" class="cls-1" d="M1286.83,4750.57a0.44,0.44,0,0,1-.43.43h-19.72a0.44,0.44,0,0,1-.43-0.43v-10.29a7.131,7.131,0,0,0,.93.89c1.91,1.47,3.84,2.97,5.7,4.52,1.01,0.85,2.25,1.88,3.65,1.88h0.02c1.4,0,2.64-1.03,3.65-1.88,1.86-1.55,3.79-3.05,5.71-4.52a7.738,7.738,0,0,0,.92-0.89v10.29Zm0-14.08a5.216,5.216,0,0,1-1.97,3.31c-1.79,1.41-3.59,2.83-5.37,4.25-0.71.57-2,1.81-2.94,1.81h-0.02c-0.94,0-2.23-1.24-2.94-1.81q-2.67-2.13-5.37-4.25a4.848,4.848,0,0,1-1.97-3.8,0.44,0.44,0,0,1,.43-0.43h19.72C1286.91,4735.57,1286.83,4736.16,1286.83,4736.49Zm1.72-.49a2.16,2.16,0,0,0-2.15-2.15h-19.72a2.151,2.151,0,0,0-2.14,2.15v14.57a2.142,2.142,0,0,0,2.14,2.14h19.72a2.151,2.151,0,0,0,2.15-2.14V4736Z" transform="translate(-1264.53 -4733.84)"/>
</svg>
