<svg xmlns="http://www.w3.org/2000/svg" width="45" height="45" viewBox="0 0 45 45">
  <metadata><?xpacket begin="﻿" id="W5M0MpCehiHzreSzNTczkc9d"?>
<x:xmpmeta xmlns:x="adobe:ns:meta/" x:xmptk="Adobe XMP Core 5.6-c138 79.159824, 2016/09/14-01:09:01        ">
   <rdf:RDF xmlns:rdf="http://www.w3.org/1999/02/22-rdf-syntax-ns#">
      <rdf:Description rdf:about=""/>
   </rdf:RDF>
</x:xmpmeta>
                                                                                                    
                                                                                                    
                                                                                                    
                                                                                                    
                                                                                                    
                                                                                                    
                                                                                                    
                                                                                                    
                                                                                                    
                                                                                                    
                                                                                                    
                                                                                                    
                                                                                                    
                                                                                                    
                                                                                                    
                                                                                                    
                                                                                                    
                                                                                                    
                                                                                                    
                                                                                                    
                           
<?xpacket end="w"?></metadata>
<defs>
    <style>
      .cls-1 {
        fill-rule: evenodd;
      }
    </style>
  </defs>
  <path id="Forma_1" data-name="Forma 1" class="cls-1" d="M1818,559a5.25,5.25,0,1,0-5.25-5.25A5.26,5.26,0,0,0,1818,559Zm0-9a3.75,3.75,0,1,1-3.75,3.75A3.753,3.753,0,0,1,1818,550Zm-0.13,30.567,11.5-16.617c4.32-5.754,3.69-15.21-1.33-20.237a14.383,14.383,0,0,0-20.34,0c-5.03,5.027-5.65,14.484-1.36,20.214Zm-9.11-35.794a12.885,12.885,0,0,1,18.22,0c4.53,4.537,5.09,13.078,1.18,18.3l-10.29,14.86-10.31-14.882C1803.66,557.851,1804.22,549.31,1808.76,544.773Zm18.33,26.982a0.75,0.75,0,0,0-.18,1.49c7.89,0.928,12.09,3.43,12.09,4.88,0,2.035-7.99,4.875-21,4.875s-21-2.84-21-4.875c0-1.45,4.2-3.952,12.09-4.88a0.75,0.75,0,0,0-.18-1.49c-7.89.93-13.41,3.549-13.41,6.37,0,3.168,7.73,6.375,22.5,6.375s22.5-3.207,22.5-6.375C1840.5,575.3,1834.98,572.685,1827.09,571.755Z" transform="translate(-1795.5 -539.5)"/>
</svg>
