<?xml version="1.0" encoding="utf-8"?>
<!-- Generator: Adobe Illustrator 21.0.1, SVG Export Plug-In . SVG Version: 6.00 Build 0)  -->
<svg version="1.1" id="Слой_1" xmlns="http://www.w3.org/2000/svg" xmlns:xlink="http://www.w3.org/1999/xlink" x="0px" y="0px"
	 viewBox="0 0 428.3 291" style="enable-background:new 0 0 428.3 291;" xml:space="preserve">
<style type="text/css">
	.st0{fill:#FFFFFF;}
</style>
<path class="st0" d="M428.1,39.1c-0.2,0.2-0.4,0.4-0.6,0.6c-0.2,0.1-0.4,0.2-0.6,0.1c-0.1-0.1-0.2-0.2-0.2-0.5v-0.7
	c-0.5,0.8-1,1.5-1.7,2.2c-0.7,0.7-1.4,1.2-2.1,1.7c-1,0.6-1.9,0.9-2.7,0.9c-0.8,0-1.4-0.2-1.9-0.8c-0.4-0.5-0.7-1.4-0.7-2.5v-5.5
	c0-0.2,0.1-0.5,0.2-0.7c0.2-0.2,0.3-0.4,0.6-0.6c0.2-0.1,0.4-0.2,0.6-0.1c0.2,0.1,0.2,0.2,0.2,0.4v5.5c0,1.2,0.3,2,1,2.2
	c0.7,0.2,1.6,0,2.7-0.6c0.7-0.4,1.3-0.9,1.9-1.5c0.6-0.6,1-1.2,1.3-1.9c0.3-0.7,0.5-1.3,0.5-1.8v-6.2c0-0.2,0.1-0.5,0.2-0.7
	s0.3-0.4,0.6-0.6c0.2-0.1,0.4-0.2,0.6-0.1c0.2,0.1,0.2,0.2,0.2,0.4v9.9C428.3,38.6,428.2,38.9,428.1,39.1z M419,10
	c0.7,0.5,1,1.4,1,2.6c0,1.2-0.3,2.5-0.9,3.8c-0.6,1.3-1.5,2.5-2.5,3.7c-1.1,1.2-2.3,2.1-3.7,2.9l-10,5.8c-0.5,0.3-0.8,0.3-1.1,0.2
	c-0.3-0.1-0.4-0.4-0.4-0.9V9.3c0-0.5,0.2-0.9,0.5-1.4c0.3-0.5,0.7-0.8,1.1-1l0,0l9.8-5.7c1.8-1.1,3.4-1.4,4.5-1
	c1.2,0.4,1.8,1.4,1.8,3.1c0,1.1-0.3,2.2-0.8,3.3c-0.5,1.1-1.2,2.1-2.2,3C417.3,9.3,418.3,9.4,419,10z M415.1,3.5
	c-0.6-0.2-1.4-0.1-2.4,0.5l-8.3,4.8v6.4l8.4-4.9c0.9-0.5,1.7-1.3,2.3-2.2c0.6-1,0.9-1.9,0.9-2.9C416.1,4.3,415.7,3.7,415.1,3.5z
	 M415.9,12.1c-0.8-0.2-1.8,0.1-3,0.8l-8.4,4.9v7.2l8.4-4.9c1.2-0.7,2.2-1.6,3-2.7c0.8-1.1,1.1-2.2,1.1-3.3
	C417,13,416.6,12.3,415.9,12.1z M399.9,55.7c-0.2,0.1-0.4,0.2-0.6,0.1c-0.2-0.1-0.2-0.2-0.2-0.5v-4.2l-7.4,4.3v4.2
	c0,0.2-0.1,0.5-0.2,0.7c-0.1,0.2-0.3,0.4-0.6,0.6c-0.2,0.1-0.4,0.2-0.6,0.1c-0.1-0.1-0.2-0.2-0.2-0.5v-9.8c0-0.2,0.1-0.5,0.2-0.7
	c0.1-0.2,0.3-0.4,0.6-0.6c0.2-0.1,0.4-0.2,0.6-0.1c0.1,0.1,0.2,0.2,0.2,0.5V54l7.4-4.3v-4.2c0-0.2,0.1-0.5,0.2-0.7
	c0.2-0.2,0.4-0.4,0.6-0.6c0.2-0.1,0.4-0.2,0.6-0.1c0.1,0.1,0.2,0.2,0.2,0.5v9.8c0,0.2-0.1,0.5-0.2,0.7
	C400.4,55.4,400.2,55.6,399.9,55.7z M390,35.1c-1.7,1.9-3.6,3.5-5.7,4.8c-2.1,1.2-4,1.9-5.7,1.9c-1.7,0-3-0.5-4-1.7
	s-1.4-2.8-1.4-4.9c0-2.1,0.5-4.3,1.4-6.6s2.3-4.4,4-6.3c1.7-1.9,3.6-3.5,5.7-4.8c2.1-1.2,4-1.9,5.7-1.9c1.7,0,3,0.5,4,1.7
	c1,1.1,1.5,2.8,1.5,4.9c0,2.1-0.5,4.3-1.4,6.5C393,31.1,391.7,33.2,390,35.1z M391.3,20.3c-0.7-0.9-1.7-1.3-2.9-1.3
	c-1.2,0-2.6,0.4-4.2,1.3c-1.5,0.9-2.9,2.1-4.1,3.5c-1.2,1.4-2.2,3-2.9,4.7c-0.7,1.7-1.1,3.3-1.1,4.9c0,1.6,0.4,2.8,1.1,3.6
	c0.7,0.9,1.7,1.3,2.9,1.3c1.2,0,2.6-0.4,4.1-1.3c1.5-0.9,2.9-2.1,4.2-3.5c1.2-1.4,2.2-3,2.9-4.7c0.7-1.7,1-3.3,1-4.9
	C392.3,22.4,392,21.2,391.3,20.3z M373.2,70.5c0,0.2-0.1,0.5-0.2,0.7c-0.2,0.2-0.3,0.4-0.6,0.6c-0.2,0.1-0.4,0.2-0.6,0.1
	c-0.2-0.1-0.2-0.2-0.2-0.4V66c0-1.2-0.3-2-1-2.2c-0.7-0.2-1.6,0-2.7,0.6c-0.7,0.4-1.3,0.9-1.9,1.5c-0.6,0.6-1,1.2-1.3,1.9
	c-0.3,0.7-0.5,1.3-0.5,1.8v6.2c0,0.2-0.1,0.5-0.2,0.7c-0.1,0.2-0.3,0.4-0.6,0.6c-0.2,0.1-0.4,0.2-0.6,0.1s-0.2-0.2-0.2-0.4v-9.9
	c0-0.2,0.1-0.5,0.2-0.7c0.2-0.2,0.4-0.4,0.6-0.6c0.2-0.1,0.4-0.2,0.6-0.1c0.1,0.1,0.2,0.2,0.2,0.5v0.7c0.5-0.8,1-1.5,1.7-2.2
	c0.7-0.7,1.4-1.2,2.1-1.7c1-0.6,1.9-0.9,2.7-0.9c0.8,0,1.4,0.2,1.9,0.8c0.4,0.5,0.7,1.4,0.7,2.5V70.5z M365,50.2
	c-1.5,1.5-3.1,2.7-4.7,3.6c-1.6,0.9-3,1.5-4.2,1.8c-1.3,0.3-2.2,0.1-3-0.3c-0.7-0.5-1.1-1.3-1.1-2.5c0-1.6,0.7-3.3,2-5.1
	c1.3-1.8,3.4-3.9,6.3-6.2c1.7-1.4,3-2.6,3.7-3.7c0.7-1,1.1-2,1.1-3c0-1-0.4-1.5-1.2-1.6c-0.8-0.1-1.9,0.2-3.3,1
	c-1.1,0.7-2.2,1.4-3.1,2.4c-0.9,0.9-1.7,1.9-2.3,3c-0.4,0.7-0.9,1.2-1.4,1.4c-0.3,0.2-0.5,0.2-0.6,0.2c-0.5,0-0.8-0.2-0.8-0.7
	c0-0.3,0.1-0.6,0.3-1c0.8-1.5,1.9-3,3.2-4.4c1.3-1.4,2.9-2.6,4.6-3.6c2.3-1.3,4.1-1.9,5.5-1.6c1.4,0.2,2.1,1.3,2.1,3.3
	c0,1.4-0.6,3-1.7,4.7c-1.1,1.7-2.9,3.5-5.2,5.5c-2.2,1.8-3.8,3.2-4.6,4.4c-0.9,1.2-1.3,2.2-1.3,3.2c0,1,0.4,1.6,1.3,1.6
	c0.8,0,2.1-0.5,3.9-1.5c2.9-1.7,4.9-3.6,6.2-5.8c0.3-0.6,0.7-1,1.2-1.3c0.3-0.2,0.6-0.2,0.9-0.2c0.4,0.1,0.6,0.4,0.6,0.8
	c0,0.4-0.1,0.8-0.4,1.2C367.8,47.3,366.6,48.7,365,50.2z M357.5,69.5c0.2-0.5,0.5-0.8,0.9-1c0.3-0.1,0.5-0.2,0.6-0.1
	s0.2,0.2,0.2,0.5v9.8c0,0.3-0.1,0.5-0.2,0.7c-0.1,0.2-0.3,0.4-0.6,0.6c-0.3,0.1-0.4,0.2-0.6,0.1c-0.1-0.1-0.2-0.2-0.2-0.5v-7.9l-4,8
	c-0.2,0.4-0.5,0.7-0.8,0.9c-0.3,0.2-0.5,0.2-0.8,0l-3.9-3.3v7.8c0,0.3-0.1,0.5-0.2,0.7c-0.1,0.2-0.3,0.4-0.6,0.6
	c-0.3,0.1-0.5,0.2-0.6,0.1c-0.1-0.1-0.2-0.2-0.2-0.5v-9.8c0-0.3,0.1-0.5,0.2-0.7c0.1-0.2,0.3-0.4,0.6-0.6c0.4-0.2,0.7-0.2,0.9,0
	l4.6,4L357.5,69.5z M346.1,61.9c-0.5,0.3-0.8,0.3-1.1,0.2c-0.3-0.1-0.4-0.4-0.4-0.8v-2.4c-0.9,1.8-2.1,3.5-3.6,5.1
	c-1.4,1.6-3,2.9-4.8,3.9c-2,1.2-3.9,1.8-5.5,1.7c-1.6,0-2.9-0.6-3.9-1.7c-0.9-1.1-1.4-2.8-1.4-4.8c0-2.1,0.5-4.3,1.5-6.5
	c1-2.3,2.3-4.4,4-6.4c1.7-2,3.6-3.5,5.7-4.8c2.1-1.2,4-1.8,5.7-1.8c1.7,0,3,0.5,4,1.7c1,1.1,1.5,2.7,1.5,4.8v9.4
	c0,0.4-0.1,0.9-0.4,1.3C346.9,61.3,346.5,61.7,346.1,61.9z M343.5,48.2c-0.7-0.9-1.7-1.3-2.9-1.3c-1.2,0-2.6,0.4-4.1,1.3
	c-1.5,0.9-2.9,2.1-4.1,3.5c-1.2,1.5-2.2,3-2.9,4.7c-0.7,1.7-1.1,3.3-1.1,4.9c0,1.6,0.4,2.8,1.1,3.6c0.7,0.9,1.7,1.3,2.9,1.3
	c1.2,0,2.6-0.4,4.1-1.3c1.5-0.9,2.9-2,4.1-3.5c1.2-1.4,2.2-3,2.9-4.7c0.7-1.7,1.1-3.3,1.1-4.9C344.6,50.3,344.2,49.1,343.5,48.2z
	 M329.9,85.3c0.2-0.3,0.3-0.5,0.6-0.6c0.2-0.1,0.3-0.1,0.5-0.1c0.2,0,0.3,0.2,0.3,0.4c0,0.2-0.1,0.4-0.2,0.6l-3.9,6.7l4.2,2.2
	c0.1,0.1,0.2,0.2,0.2,0.4c0,0.2-0.1,0.4-0.3,0.7c-0.2,0.2-0.4,0.4-0.6,0.5c-0.2,0.1-0.4,0.2-0.5,0.1l-4.4-2.3l-1.8,1.1v4.2
	c0,0.2-0.1,0.5-0.2,0.7c-0.2,0.2-0.4,0.4-0.6,0.6c-0.2,0.1-0.4,0.2-0.6,0.1c-0.1-0.1-0.2-0.2-0.2-0.5v-9.9c0-0.2,0.1-0.5,0.2-0.7
	c0.1-0.2,0.3-0.4,0.6-0.6c0.2-0.1,0.4-0.2,0.6-0.1c0.2,0.1,0.2,0.2,0.2,0.5v4.2l1.9-1.1L329.9,85.3z M317.8,78.4
	c-0.5,0.3-0.8,0.3-1.1,0.2c-0.3-0.1-0.4-0.4-0.4-0.9v-1.4c-0.7,1.4-1.6,2.7-2.6,3.9c-1,1.2-2.2,2.1-3.4,2.8c-1.7,1-3.1,1.4-4.4,1.3
	c-1.3-0.1-2.2-0.7-2.8-1.9c-0.6,1.9-1.5,3.5-2.7,5.1c-1.2,1.5-2.5,2.7-4.1,3.6c-1.6,0.9-3,1.4-4.2,1.3c-1.2,0-2.2-0.5-2.8-1.5
	c-0.7-1-1-2.4-1-4.2V75.3c0-0.5,0.1-0.9,0.4-1.4c0.3-0.5,0.6-0.8,1.1-1.1c0.5-0.3,0.8-0.3,1.1-0.2c0.3,0.1,0.4,0.4,0.4,0.9V85
	c0,1.9,0.5,3.1,1.5,3.6c1,0.5,2.2,0.4,3.8-0.6c1.7-1,3-2.3,4.1-4c1-1.7,1.5-3.5,1.5-5.2v-0.1V67.2c0-0.5,0.1-0.9,0.4-1.4
	c0.3-0.5,0.6-0.8,1.1-1.1c0.5-0.3,0.8-0.3,1.1-0.2c0.3,0.1,0.4,0.4,0.4,0.9v11.5c0,1.9,0.5,3.1,1.5,3.6c1,0.5,2.2,0.4,3.8-0.6
	c1.7-1,3-2.3,4.1-4c1.1-1.7,1.6-3.4,1.6-5.1V59c0-0.5,0.1-0.9,0.4-1.4c0.3-0.5,0.6-0.8,1.1-1.1c0.5-0.3,0.8-0.3,1.1-0.2
	c0.3,0.1,0.4,0.4,0.4,0.9v18.8c0,0.5-0.1,0.9-0.4,1.4C318.6,77.8,318.2,78.1,317.8,78.4z M286.2,122c-0.2,0.1-0.4,0.2-0.6,0.1
	s-0.2-0.2-0.2-0.5v-0.7c-0.4,0.8-0.8,1.4-1.4,2.1c-0.5,0.6-1.1,1.1-1.8,1.5c-0.9,0.5-1.6,0.7-2.3,0.7c-0.7-0.1-1.2-0.4-1.5-1
	c-0.3,1-0.8,1.9-1.4,2.7c-0.6,0.8-1.3,1.4-2.1,1.9c-0.8,0.5-1.6,0.7-2.2,0.7c-0.6,0-1.1-0.3-1.5-0.8s-0.5-1.2-0.5-2.2v-6
	c0-0.2,0.1-0.5,0.2-0.7c0.1-0.2,0.3-0.4,0.6-0.6c0.2-0.1,0.4-0.2,0.6-0.1c0.2,0.1,0.2,0.2,0.2,0.5v6c0,1,0.3,1.6,0.8,1.9
	c0.5,0.3,1.2,0.2,2-0.3c0.9-0.5,1.6-1.2,2.1-2.1c0.5-0.9,0.8-1.8,0.8-2.7v-0.1v-6c0-0.2,0.1-0.5,0.2-0.7c0.1-0.2,0.3-0.4,0.6-0.6
	s0.4-0.2,0.6-0.1c0.2,0.1,0.2,0.2,0.2,0.5v6c0,1,0.3,1.6,0.8,1.9c0.5,0.3,1.2,0.2,2-0.3c0.9-0.5,1.6-1.2,2.1-2.1
	c0.6-0.9,0.8-1.8,0.8-2.7v-6.2c0-0.2,0.1-0.5,0.2-0.7c0.1-0.2,0.3-0.4,0.6-0.6c0.2-0.1,0.4-0.2,0.6-0.1c0.2,0.1,0.2,0.2,0.2,0.5v9.8
	c0,0.2-0.1,0.5-0.2,0.7C286.6,121.7,286.4,121.9,286.2,122z M274.5,102.3c0,0.4-0.1,0.8-0.4,1.2c-0.3,0.4-0.6,0.7-0.9,0.9
	c-0.3,0.2-0.6,0.3-0.8,0.3c-0.2,0-0.4-0.1-0.6-0.2l-6.6-4.5l-6.8,12.6c-0.2,0.5-0.6,0.8-1.1,1.1c-0.4,0.2-0.8,0.3-1,0.2
	c-0.3-0.1-0.4-0.4-0.4-0.7c0-0.4,0.1-0.9,0.4-1.3l6.9-12.7l-6.6-4.5c-0.3-0.1-0.4-0.4-0.4-0.8c0-0.4,0.1-0.8,0.4-1.2
	c0.2-0.4,0.6-0.7,1-1c0.5-0.3,0.8-0.3,1.2-0.2l6.4,4.5l6.4-11.7c0.4-0.7,0.8-1.2,1.3-1.5c0.4-0.2,0.8-0.3,1-0.2
	c0.3,0.1,0.4,0.4,0.4,0.7c0,0.4-0.1,0.9-0.4,1.4l-6.6,12.1l6.8,4.8C274.4,101.7,274.5,102,274.5,102.3z M252.9,141.4
	c-0.2,0.1-0.4,0.2-0.6,0.1c-0.2-0.1-0.2-0.2-0.2-0.5v-4.2l-7.4,4.3v4.2c0,0.2-0.1,0.5-0.2,0.7c-0.1,0.2-0.3,0.4-0.6,0.6
	c-0.2,0.1-0.4,0.2-0.6,0.1c-0.1-0.1-0.2-0.2-0.2-0.5v-9.8c0-0.2,0.1-0.5,0.2-0.7c0.1-0.2,0.3-0.4,0.6-0.6c0.2-0.1,0.4-0.2,0.6-0.1
	c0.1,0.1,0.2,0.2,0.2,0.5v4.2l7.4-4.3v-4.2c0-0.2,0.1-0.5,0.2-0.7c0.2-0.2,0.3-0.4,0.6-0.6c0.2-0.1,0.4-0.2,0.6-0.1
	c0.1,0.1,0.2,0.2,0.2,0.5v9.8c0,0.2-0.1,0.5-0.2,0.7C253.4,141.1,253.2,141.3,252.9,141.4z M250.3,117.7c-0.5,0.3-0.8,0.3-1.1,0.2
	c-0.3-0.1-0.4-0.4-0.4-0.9V98.3c0-0.5,0.1-0.9,0.4-1.4s0.6-0.8,1.1-1.1c0.5-0.3,0.8-0.3,1.1-0.2c0.3,0.1,0.4,0.4,0.4,0.9v18.8
	c0,0.5-0.1,0.9-0.4,1.4C251.1,117.1,250.8,117.5,250.3,117.7z M241.3,122.4c-1.3,1.4-2.7,2.5-4.3,3.5c-1.7,1-3.2,1.5-4.6,1.6
	c-1.3,0.1-2.4-0.3-3.1-1.1c-0.8-0.8-1.1-2-1.1-3.6v-12.6c0-0.5,0.2-0.9,0.5-1.4c0.3-0.5,0.7-0.8,1.1-1c0.5-0.3,0.8-0.3,1.1-0.2
	c0.3,0.1,0.4,0.4,0.4,0.9v5.7l5.9-3.4c2.4-1.4,4.4-1.9,5.9-1.4c1.5,0.5,2.3,1.8,2.3,4.1c0,1.5-0.4,3.1-1.1,4.6
	C243.5,119.6,242.5,121.1,241.3,122.4z M240.9,112.5c-0.9-0.3-2.2,0.1-3.8,1l-5.9,3.4v4.2c0,1.5,0.5,2.5,1.6,2.9
	c1.1,0.4,2.5,0.1,4.1-0.9c1.6-0.9,2.9-2.1,3.9-3.5c1-1.4,1.5-2.9,1.5-4.4C242.3,113.6,241.8,112.7,240.9,112.5z M233.6,142
	c0.6,0.2,0.9,0.7,0.9,1.6c0,0.6-0.1,1.2-0.4,1.7c-0.3,0.6-0.6,1.1-1.1,1.6c0.6-0.1,1.1,0,1.5,0.2s0.5,0.7,0.5,1.4
	c0,0.6-0.2,1.3-0.5,2c-0.3,0.7-0.8,1.3-1.3,1.9c-0.6,0.6-1.2,1.1-1.9,1.5l-5.2,3c-0.2,0.1-0.4,0.2-0.6,0.1c-0.2-0.1-0.2-0.2-0.2-0.5
	v-9.9c0-0.2,0.1-0.5,0.3-0.7c0.2-0.2,0.3-0.4,0.6-0.6l0,0l5.1-3C232.2,142,233,141.8,233.6,142z M226.9,155.1l4.4-2.6
	c0.6-0.4,1.2-0.8,1.6-1.4c0.4-0.6,0.6-1.1,0.6-1.7c0-0.6-0.2-1-0.6-1.1c-0.4-0.1-0.9,0-1.6,0.4l-4.4,2.6V155.1z M226.9,149.9
	l4.4-2.6c0.5-0.3,0.9-0.7,1.2-1.2c0.3-0.5,0.5-1,0.5-1.5c0-0.5-0.2-0.8-0.5-0.9c-0.3-0.1-0.7,0-1.2,0.3l-4.3,2.5V149.9z
	 M219.8,135.5c-0.5,0.3-0.8,0.3-1.1,0.2c-0.3-0.1-0.4-0.4-0.4-0.8v-11.5c0-1.9-0.5-3.1-1.5-3.6c-1-0.5-2.2-0.4-3.8,0.6
	c-1.7,1-3,2.3-4.1,4.1c-1,1.7-1.5,3.5-1.5,5.3v0.1v11.5c0,0.5-0.1,0.9-0.4,1.3c-0.3,0.4-0.6,0.8-1.1,1.1c-0.5,0.3-0.8,0.3-1.1,0.2
	c-0.3-0.1-0.4-0.4-0.4-0.8v-11.5c0-1.9-0.5-3.1-1.5-3.6c-1-0.5-2.2-0.4-3.8,0.6c-1.7,1-3,2.3-4.1,4c-1.1,1.7-1.6,3.4-1.6,5.1v11.8
	c0,0.5-0.1,0.9-0.4,1.3c-0.3,0.4-0.6,0.8-1.1,1.1c-0.5,0.3-0.8,0.3-1.1,0.2c-0.3-0.1-0.4-0.4-0.4-0.8v-18.8c0-0.5,0.1-0.9,0.4-1.4
	c0.3-0.5,0.7-0.8,1.1-1.1c0.5-0.3,0.8-0.3,1.1-0.2c0.3,0.1,0.4,0.4,0.4,0.9v0.9c0.7-1.3,1.6-2.5,2.7-3.5c1-1.1,2.1-1.9,3.3-2.6
	c1.5-0.9,2.8-1.3,4-1.3c1.2,0,2.1,0.4,2.8,1.2c0.8-1.7,1.8-3.2,3-4.6c1.2-1.4,2.6-2.5,4.2-3.4c1.6-0.9,3-1.4,4.2-1.3
	c1.2,0,2.2,0.5,2.8,1.5c0.7,1,1,2.4,1,4.2v11.5c0,0.5-0.1,0.9-0.4,1.3C220.6,134.9,220.2,135.3,219.8,135.5z M192.5,167
	c0.4-0.9,0.9-1.7,1.6-2.4s1.4-1.3,2.2-1.8c0.8-0.5,1.6-0.7,2.2-0.7c0.6,0,1.1,0.3,1.5,0.8s0.5,1.2,0.5,2.2v6c0,0.2-0.1,0.5-0.2,0.7
	c-0.1,0.2-0.3,0.4-0.6,0.6c-0.2,0.1-0.4,0.2-0.6,0.1c-0.2-0.1-0.2-0.2-0.2-0.4v-6c0-1-0.3-1.6-0.8-1.9c-0.5-0.3-1.2-0.2-2,0.3
	c-0.9,0.5-1.6,1.2-2.1,2.1c-0.5,0.9-0.8,1.8-0.8,2.8v0v6c0,0.2-0.1,0.5-0.2,0.7c-0.1,0.2-0.3,0.4-0.6,0.6c-0.2,0.1-0.4,0.2-0.6,0.1
	c-0.2-0.1-0.2-0.2-0.2-0.4v-6c0-1-0.3-1.6-0.8-1.9c-0.5-0.3-1.2-0.2-2,0.3c-0.9,0.5-1.6,1.2-2.1,2.1c-0.6,0.9-0.8,1.8-0.8,2.7v6.2
	c0,0.2-0.1,0.5-0.2,0.7c-0.1,0.2-0.3,0.4-0.6,0.6c-0.2,0.1-0.4,0.2-0.6,0.1c-0.2-0.1-0.2-0.2-0.2-0.4v-9.9c0-0.2,0.1-0.5,0.2-0.7
	c0.2-0.2,0.3-0.4,0.6-0.6c0.2-0.1,0.4-0.2,0.6-0.1c0.1,0.1,0.2,0.2,0.2,0.5v0.5c0.4-0.7,0.9-1.3,1.4-1.9c0.5-0.6,1.1-1,1.8-1.4
	c0.8-0.4,1.5-0.7,2.1-0.7C191.7,166.3,192.2,166.6,192.5,167z M182.7,141.1c-0.4,0.2-0.8,0.3-1.2,0.1c-0.8-0.4-1.7-0.6-2.6-0.4
	c-1,0.1-2,0.5-3.2,1.2c-1.5,0.9-2.8,2-3.9,3.3c-1.1,1.4-2,2.9-2.7,4.5c-0.6,1.6-0.9,3.3-0.9,4.9c0,1.6,0.3,2.8,1,3.7
	c0.7,0.9,1.6,1.3,2.8,1.3c1.2,0,2.6-0.4,4.1-1.3c2.1-1.2,3.9-2.8,5.2-4.7c0.3-0.5,0.7-0.9,1.1-1.1c0.3-0.2,0.6-0.3,0.9-0.2
	c0.4,0.1,0.6,0.4,0.6,0.8c0,0.3-0.1,0.7-0.4,1.1c-1.9,2.9-4.3,5.2-7.3,6.9c-2.1,1.2-3.9,1.8-5.6,1.8c-1.7,0-3-0.6-3.9-1.7
	c-0.9-1.1-1.4-2.8-1.4-4.8c0-2.1,0.5-4.3,1.4-6.5c0.9-2.2,2.2-4.3,3.8-6.2c1.6-1.9,3.4-3.4,5.4-4.6c3.3-1.9,6-2.2,8.1-0.9
	c0.2,0.1,0.3,0.3,0.3,0.7c0,0.4-0.2,0.9-0.7,1.5C183.3,140.7,183,140.9,182.7,141.1z M165.9,174.9c0.3-0.2,0.5-0.1,0.6,0.1
	c0,0.1,0.1,0.2,0.1,0.3c0,0.3-0.2,0.6-0.5,1l-3.3,3.3c-1.6,1.6-2.8,3.1-3.7,4.7c-0.8,1.6-1.3,3.1-1.4,4.6c0.4-1.1,1-2.1,1.8-3.1
	c0.8-1,1.7-1.8,2.8-2.4c1-0.6,2-0.9,2.8-0.9c0.8,0,1.5,0.3,1.9,0.8c0.5,0.6,0.7,1.4,0.7,2.4c0,1.1-0.2,2.2-0.7,3.3
	c-0.5,1.1-1.1,2.2-2,3.1c-0.8,1-1.8,1.8-2.9,2.4c-1.1,0.6-2.1,1-2.9,1c-0.9,0-1.5-0.3-2-0.9c-0.5-0.6-0.7-1.5-0.7-2.6v-1.7
	c0-1.9,0.5-3.9,1.5-6c1-2,2.5-4,4.5-6l3.1-3C165.7,175.1,165.8,175,165.9,174.9z M158.5,193.1c0.3,0.4,0.8,0.6,1.4,0.6
	s1.3-0.3,2.1-0.7c0.8-0.4,1.5-1,2.1-1.7c0.6-0.7,1.1-1.5,1.4-2.3c0.3-0.8,0.5-1.6,0.5-2.4c0-0.8-0.2-1.4-0.5-1.8
	c-0.3-0.4-0.8-0.6-1.4-0.6c-0.6,0-1.3,0.3-2.1,0.7c-0.8,0.5-1.5,1-2.1,1.7c-0.6,0.7-1.1,1.5-1.4,2.3c-0.3,0.8-0.5,1.6-0.5,2.4
	C158,192.1,158.2,192.7,158.5,193.1z M155,172c-1.7,1.9-3.6,3.5-5.7,4.8c-2.1,1.2-4,1.9-5.7,1.9c-1.7,0-3-0.5-4-1.7
	c-1-1.1-1.4-2.8-1.4-4.9c0-2.1,0.5-4.3,1.4-6.6c1-2.3,2.3-4.4,4-6.3c1.7-1.9,3.6-3.5,5.7-4.8c2.1-1.2,4-1.9,5.7-1.9
	c1.7,0,3,0.5,4,1.7c1,1.1,1.5,2.8,1.5,4.9c0,2.1-0.5,4.3-1.4,6.5C158,168,156.7,170.1,155,172z M156.3,157.3
	c-0.7-0.9-1.7-1.3-2.9-1.3c-1.2,0-2.6,0.4-4.2,1.3c-1.5,0.9-2.9,2.1-4.1,3.5c-1.2,1.4-2.2,3-2.9,4.7c-0.7,1.7-1.1,3.3-1.1,4.9
	c0,1.6,0.4,2.8,1.1,3.6c0.7,0.9,1.7,1.3,2.9,1.3c1.2,0,2.6-0.4,4.1-1.3c1.5-0.9,2.9-2.1,4.2-3.5c1.2-1.4,2.2-3,2.9-4.7
	c0.7-1.7,1-3.3,1-4.9C157.3,159.4,157,158.2,156.3,157.3z M139.6,198.7c0.5,0.6,0.8,1.4,0.8,2.5c0,1.1-0.2,2.2-0.7,3.4
	c-0.5,1.2-1.2,2.3-2,3.3c-0.9,1-1.8,1.8-2.9,2.4c-0.9,0.5-1.7,0.8-2.5,0.9c-0.8,0.1-1.4-0.1-1.9-0.5v6.2c0,0.2-0.1,0.5-0.2,0.7
	c-0.2,0.2-0.4,0.4-0.6,0.6c-0.2,0.1-0.4,0.2-0.6,0.1c-0.1-0.1-0.2-0.2-0.2-0.5v-4.7c0,0,0-0.1,0-0.2V208c0-1.1,0.3-2.2,0.8-3.4
	c0.5-1.2,1.2-2.3,2.1-3.3c0.9-1,1.9-1.9,3-2.5c1.1-0.6,2.1-1,3-1C138.4,197.8,139.1,198.1,139.6,198.7z M138.3,200.2
	c-0.4-0.4-0.9-0.7-1.5-0.7c-0.7,0-1.4,0.2-2.2,0.7c-0.8,0.5-1.5,1.1-2.2,1.8c-0.6,0.8-1.2,1.6-1.5,2.5s-0.6,1.7-0.6,2.6
	c0,0.2,0,0.4,0,0.5c0,0,0,0.1,0,0.1c0.1,1,0.6,1.6,1.4,1.9c0.8,0.2,1.7,0,2.8-0.6c0.8-0.5,1.5-1.1,2.2-1.8s1.2-1.6,1.5-2.5
	c0.4-0.9,0.6-1.7,0.6-2.6C138.8,201.3,138.6,200.7,138.3,200.2z M128,187.8c-1.6,1.9-3.5,3.5-5.5,4.7c-1.7,1-3.3,1.6-4.8,1.7
	c-1.4,0.1-2.6-0.2-3.6-0.9v11.7c0,0.5-0.1,0.9-0.4,1.4c-0.3,0.5-0.7,0.8-1.1,1.1c-0.5,0.3-0.8,0.3-1.1,0.2c-0.3-0.1-0.4-0.4-0.4-0.9
	v-9c0-0.1,0-0.2,0-0.3V188c0-2.1,0.5-4.3,1.5-6.5c1-2.3,2.3-4.4,4-6.4c1.7-2,3.6-3.5,5.7-4.8c2.1-1.2,4-1.8,5.7-1.8
	c1.7,0,3,0.6,4,1.7c1,1.1,1.5,2.7,1.5,4.8s-0.5,4.2-1.4,6.5C130.9,183.7,129.6,185.8,128,187.8z M129.2,173.1
	c-0.7-0.9-1.7-1.3-2.9-1.3c-1.2,0-2.6,0.4-4.1,1.3c-1.5,0.9-2.9,2.1-4.1,3.5c-1.2,1.4-2.2,3-2.9,4.7c-0.7,1.7-1.1,3.3-1.1,4.9
	c0,0.5,0,0.8,0,1c0,0,0,0.1,0,0.2c0.3,1.9,1.1,3.1,2.6,3.6c1.5,0.5,3.3,0.1,5.4-1.1c1.5-0.9,2.9-2,4.1-3.5c1.2-1.4,2.2-3,2.9-4.7
	c0.7-1.7,1.1-3.3,1.1-4.9C130.3,175.2,129.9,174,129.2,173.1z M114.4,210.5c1.1-0.6,2.1-1,3-1c0.9,0,1.6,0.3,2.1,0.9
	c0.5,0.6,0.8,1.4,0.8,2.5v4.9c0,0.2-0.1,0.5-0.2,0.7c-0.2,0.2-0.4,0.4-0.6,0.6c-0.2,0.1-0.4,0.2-0.6,0.1c-0.2-0.1-0.2-0.2-0.2-0.4
	v-1.3c-0.5,1-1.1,1.8-1.9,2.7c-0.8,0.8-1.6,1.5-2.5,2c-1.1,0.6-2,0.9-2.9,0.9c-0.9,0-1.5-0.3-2-0.9c-0.5-0.6-0.7-1.4-0.7-2.5
	c0-1.1,0.3-2.2,0.8-3.4c0.5-1.2,1.2-2.3,2.1-3.3C112.3,212,113.3,211.2,114.4,210.5z M110.2,218.9c0,0.8,0.2,1.5,0.6,1.9
	c0.4,0.4,0.9,0.7,1.5,0.7c0.7,0,1.4-0.2,2.2-0.7c0.8-0.5,1.5-1.1,2.2-1.8c0.6-0.8,1.2-1.6,1.5-2.5c0.4-0.9,0.6-1.7,0.6-2.6
	c0-0.8-0.2-1.5-0.6-1.9c-0.4-0.4-0.9-0.7-1.5-0.7c-0.6,0-1.4,0.2-2.2,0.7c-0.8,0.5-1.5,1.1-2.2,1.8c-0.7,0.8-1.2,1.6-1.5,2.5
	S110.2,218,110.2,218.9z M106.2,227c-0.3,0.2-0.5,0.2-0.7,0l-3.9-6.4l-3.9,10.9c-0.1,0.2-0.1,0.3-0.3,0.5c-0.1,0.2-0.3,0.3-0.4,0.4
	c-0.1,0.1-0.2,0.1-0.4,0.1c-0.3,0-0.5-0.1-0.5-0.4c0-0.1,0-0.2,0.1-0.4l4.6-12.6c0.2-0.5,0.4-0.8,0.8-1c0.4-0.2,0.6-0.2,0.8,0.1
	l4.6,7.3c0.1,0.1,0.1,0.2,0.1,0.3c0,0.3-0.2,0.6-0.5,0.9C106.4,226.8,106.3,226.9,106.2,227z M102.7,203.7c-0.5,0.3-0.8,0.3-1.1,0.2
	c-0.3-0.1-0.4-0.4-0.4-0.8v-10.4c0-2.4-0.7-3.8-2-4.3c-1.3-0.5-3-0.1-5.2,1.2c-1.3,0.8-2.5,1.7-3.5,2.8c-1.1,1.1-1.9,2.3-2.5,3.6
	c-0.6,1.3-0.9,2.4-0.9,3.5v11.8c0,0.5-0.1,0.9-0.4,1.3c-0.3,0.4-0.6,0.8-1.1,1.1c-0.5,0.3-0.8,0.3-1.1,0.2c-0.3-0.1-0.4-0.4-0.4-0.8
	v-18.8c0-0.5,0.1-0.9,0.4-1.4c0.3-0.5,0.7-0.8,1.1-1.1c0.5-0.3,0.8-0.3,1.1-0.2c0.3,0.1,0.4,0.4,0.4,0.9v1.4
	c0.9-1.5,1.9-2.9,3.2-4.2c1.3-1.3,2.6-2.4,4.1-3.2c1.9-1.1,3.6-1.7,5.1-1.8c1.5-0.1,2.7,0.4,3.5,1.4c0.9,1,1.3,2.6,1.3,4.8v10.4
	c0,0.4-0.1,0.9-0.4,1.3C103.5,203.1,103.1,203.5,102.7,203.7z M88.7,225.5c1.1-0.6,2.1-1,3-1c0.9,0,1.6,0.3,2.1,0.9
	c0.5,0.6,0.8,1.4,0.8,2.5v4.9c0,0.2-0.1,0.5-0.2,0.7s-0.3,0.4-0.6,0.6c-0.2,0.1-0.4,0.2-0.6,0.1c-0.2-0.1-0.2-0.2-0.2-0.4v-1.3
	c-0.5,1-1.1,1.8-1.9,2.7c-0.8,0.8-1.6,1.5-2.5,2c-1.1,0.6-2,0.9-2.9,0.9s-1.5-0.3-2-0.9s-0.7-1.4-0.7-2.5s0.3-2.2,0.8-3.4
	c0.5-1.2,1.2-2.3,2.1-3.3C86.6,227,87.6,226.1,88.7,225.5z M84.4,233.9c0,0.8,0.2,1.5,0.6,1.9c0.4,0.4,0.9,0.7,1.5,0.7
	c0.7,0,1.4-0.2,2.2-0.7c0.8-0.5,1.5-1.1,2.2-1.8c0.6-0.8,1.2-1.6,1.5-2.5c0.4-0.9,0.6-1.7,0.6-2.6c0-0.8-0.2-1.5-0.6-1.9
	c-0.4-0.4-0.9-0.7-1.5-0.7c-0.6,0-1.4,0.2-2.2,0.7c-0.8,0.5-1.5,1.1-2.2,1.8c-0.7,0.8-1.2,1.6-1.5,2.5
	C84.6,232.2,84.4,233,84.4,233.9z M79.3,242.6c-0.2,0.1-0.4,0.2-0.6,0.1c-0.2-0.1-0.2-0.2-0.2-0.5v-3.9c-0.4,0.6-0.8,1.2-1.4,1.7
	c-0.5,0.5-1.1,1-1.8,1.4c-1.5,0.9-2.7,1.1-3.5,0.6c-0.8-0.4-1.2-1.5-1.2-3v-2c0-0.2,0.1-0.5,0.2-0.7c0.2-0.2,0.3-0.4,0.6-0.6
	c0.2-0.1,0.4-0.2,0.6-0.1c0.1,0.1,0.2,0.2,0.2,0.5v2c0,1.1,0.3,1.9,0.8,2.2c0.5,0.3,1.4,0.2,2.4-0.5c0.9-0.5,1.6-1.1,2.1-1.7
	c0.6-0.6,0.8-1.2,0.8-1.7v-3.9c0-0.2,0.1-0.5,0.2-0.7c0.2-0.2,0.4-0.4,0.6-0.6c0.2-0.1,0.4-0.2,0.6-0.1c0.1,0.1,0.2,0.2,0.2,0.5v9.8
	c0,0.2-0.1,0.5-0.2,0.7C79.7,242.2,79.6,242.4,79.3,242.6z M68,249.1c-0.2,0.1-0.4,0.2-0.6,0.1c-0.2-0.1-0.2-0.2-0.2-0.4v-1.3
	c-0.5,1-1.1,1.8-1.9,2.7c-0.8,0.8-1.6,1.5-2.5,2c-1.1,0.6-2,0.9-2.9,0.9c-0.9,0-1.5-0.3-2-0.9c-0.5-0.6-0.7-1.4-0.7-2.5
	c0-1.1,0.3-2.2,0.8-3.4c0.5-1.2,1.2-2.3,2.1-3.3c0.9-1,1.9-1.9,3-2.5c1.1-0.6,2.1-1,3-1c0.9,0,1.6,0.3,2.1,0.9
	c0.5,0.6,0.8,1.4,0.8,2.5v4.9c0,0.2-0.1,0.5-0.2,0.7S68.3,249,68,249.1z M66.7,242c-0.4-0.4-0.9-0.7-1.5-0.7c-0.6,0-1.4,0.2-2.2,0.7
	c-0.8,0.5-1.5,1.1-2.2,1.8c-0.7,0.8-1.2,1.6-1.5,2.5c-0.4,0.9-0.6,1.7-0.6,2.6c0,0.8,0.2,1.5,0.6,1.9c0.4,0.4,0.9,0.7,1.5,0.7
	c0.7,0,1.4-0.2,2.2-0.7c0.8-0.5,1.5-1.1,2.2-1.8c0.6-0.8,1.2-1.6,1.5-2.5s0.6-1.7,0.6-2.6S67.1,242.4,66.7,242z M40.9,233.7l-13.8,8
	l16.1-55.4c0.7-2.7,1.6-5.2,2.7-7.5L17,195.6l-0.6-11.2l38.1-22.2c2.3-1.4,4-1.6,5.1-0.8c1.1,0.8,1.2,2.5,0.5,5L40.9,233.7z
	 M18.7,266.4c0.4-0.2,0.6-0.2,0.8,0.1l4.6,7.3c0.1,0.1,0.1,0.2,0.1,0.3c0,0.3-0.2,0.6-0.5,0.9c-0.1,0.1-0.2,0.2-0.4,0.3
	c-0.3,0.2-0.5,0.2-0.7,0l-3.9-6.4l-3.9,10.9c-0.1,0.2-0.1,0.3-0.3,0.5c-0.1,0.2-0.3,0.3-0.4,0.4c-0.1,0.1-0.2,0.1-0.4,0.1
	c-0.3,0-0.5-0.1-0.5-0.4c0-0.1,0-0.2,0.1-0.4l4.6-12.6C18.1,266.9,18.4,266.6,18.7,266.4z M8.9,287.4c-0.9,1-1.9,1.9-3,2.5
	c-1.1,0.6-2,1-2.9,1.1c-0.8,0.1-1.5-0.1-2.1-0.5c-0.1-0.1-0.2-0.2-0.2-0.4c0-0.2,0.1-0.4,0.3-0.7c0.1-0.2,0.3-0.3,0.5-0.4
	c0.1-0.1,0.3-0.1,0.4-0.1c0.1,0,0.2,0,0.3,0.1c0.4,0.3,1,0.4,1.6,0.3c0.6-0.1,1.4-0.4,2.2-0.8c0.8-0.5,1.5-1.1,2.1-1.8
	s1.1-1.6,1.5-2.5c0.4-0.9,0.5-1.8,0.5-2.7v-0.9c-0.4,1-1,2-1.8,2.9c-0.8,0.9-1.6,1.6-2.6,2.2c-1.1,0.6-2.1,1-2.9,1s-1.5-0.3-2-0.9
	C0.2,285,0,284.2,0,283.1c0-1.1,0.3-2.3,0.8-3.5c0.5-1.2,1.2-2.3,2.1-3.3c0.9-1,1.9-1.8,3-2.5c1.1-0.7,2.1-1,3-1
	c0.9,0,1.6,0.3,2.1,0.9c0.5,0.6,0.8,1.5,0.8,2.6v4.3c0,1.1-0.2,2.3-0.7,3.5C10.4,285.2,9.7,286.3,8.9,287.4z M9.5,275.2
	c-0.4-0.5-0.9-0.7-1.5-0.7c-0.6,0-1.4,0.2-2.2,0.7c-0.8,0.5-1.6,1.1-2.2,1.9c-0.6,0.8-1.1,1.6-1.5,2.4c-0.4,0.9-0.5,1.7-0.5,2.6
	s0.2,1.5,0.5,1.9s0.9,0.7,1.5,0.7s1.4-0.2,2.2-0.7c0.8-0.5,1.5-1.1,2.2-1.8s1.1-1.6,1.5-2.4c0.4-0.9,0.5-1.7,0.5-2.6
	S9.9,275.7,9.5,275.2z M28.5,267.8c-0.7,0.2-1.3,0.1-1.7-0.2c-0.4-0.3-0.6-0.9-0.6-1.7c0-0.7,0.2-1.5,0.5-2.2s0.8-1.5,1.4-2.2
	s1.3-1.3,2.1-1.7l3.7-2.2c0.2-0.1,0.4-0.2,0.6-0.1c0.2,0.1,0.2,0.2,0.2,0.5v9.9c0,0.2-0.1,0.5-0.2,0.7c-0.1,0.2-0.3,0.4-0.6,0.6
	c-0.2,0.1-0.4,0.2-0.6,0.1c-0.1-0.1-0.2-0.2-0.2-0.5v-3.2l-2.9,1.7l-3,5.4c-0.2,0.3-0.4,0.5-0.6,0.7c-0.2,0.1-0.4,0.2-0.6,0.1
	c-0.2-0.1-0.2-0.2-0.2-0.4c0-0.2,0.1-0.4,0.2-0.6L28.5,267.8z M30.2,265.9l3-1.7v-4.6l-3,1.7c-0.7,0.4-1.3,1-1.8,1.7
	c-0.5,0.7-0.7,1.4-0.7,2.1c0,0.7,0.2,1.2,0.7,1.3C28.9,266.4,29.4,266.3,30.2,265.9z M44.6,251.3c0.2-0.1,0.4-0.2,0.6-0.1
	c0.1,0.1,0.2,0.2,0.2,0.5v4.2l7.4-4.3v-4.2c0-0.2,0.1-0.5,0.2-0.7c0.2-0.2,0.3-0.4,0.6-0.6c0.2-0.1,0.4-0.2,0.6-0.1
	c0.1,0.1,0.2,0.2,0.2,0.5v9.8c0,0.2-0.1,0.5-0.2,0.7c-0.1,0.2-0.3,0.4-0.6,0.6c-0.2,0.1-0.4,0.2-0.6,0.1c-0.2-0.1-0.2-0.2-0.2-0.5
	v-4.2l-7.4,4.3v4.2c0,0.2-0.1,0.5-0.2,0.7s-0.3,0.4-0.6,0.6c-0.2,0.1-0.4,0.2-0.6,0.1c-0.1-0.1-0.2-0.2-0.2-0.5v-9.8
	c0-0.2,0.1-0.5,0.2-0.7C44.2,251.6,44.4,251.4,44.6,251.3z M145.4,193.2c0.9-1,1.9-1.9,3-2.5c1.1-0.6,2.1-1,3-1
	c0.9,0,1.6,0.3,2.1,0.9c0.5,0.6,0.8,1.4,0.8,2.5v4.9c0,0.2-0.1,0.5-0.2,0.7c-0.2,0.2-0.4,0.4-0.6,0.6c-0.2,0.1-0.4,0.2-0.6,0.1
	c-0.2-0.1-0.2-0.2-0.2-0.4v-1.3c-0.5,1-1.1,1.8-1.9,2.7c-0.8,0.8-1.6,1.5-2.5,2c-1.1,0.6-2,0.9-2.9,0.9c-0.9,0-1.5-0.3-2-0.9
	c-0.5-0.6-0.7-1.4-0.7-2.5s0.3-2.2,0.8-3.4C143.8,195.4,144.5,194.3,145.4,193.2z M144.7,201c0.4,0.4,0.9,0.7,1.5,0.7
	c0.7,0,1.4-0.2,2.2-0.7c0.8-0.5,1.5-1.1,2.2-1.8c0.6-0.8,1.2-1.6,1.5-2.5c0.4-0.9,0.6-1.7,0.6-2.6c0-0.8-0.2-1.5-0.6-1.9
	c-0.4-0.4-0.9-0.7-1.5-0.7c-0.6,0-1.4,0.2-2.2,0.7c-0.8,0.5-1.5,1.1-2.2,1.8c-0.7,0.8-1.2,1.6-1.5,2.5c-0.4,0.9-0.6,1.7-0.6,2.6
	C144.1,199.9,144.3,200.5,144.7,201z M172.7,177.3c0.9-1,1.9-1.9,3-2.5c1.1-0.6,2.1-1,3-1c0.9,0,1.6,0.3,2.1,0.9
	c0.5,0.6,0.8,1.5,0.8,2.6c0,1.1-0.3,2.3-0.8,3.4s-1.2,2.3-2.1,3.3c-0.9,1-1.9,1.9-3,2.5c-1.1,0.6-2.1,1-3,1c-0.9,0-1.6-0.3-2.1-0.9
	c-0.5-0.6-0.8-1.4-0.8-2.6c0-1.1,0.3-2.3,0.8-3.4C171.1,179.5,171.8,178.4,172.7,177.3z M172,185.1c0.4,0.4,0.9,0.7,1.5,0.7
	c0.7,0,1.4-0.2,2.2-0.7c0.8-0.5,1.5-1.1,2.2-1.8c0.6-0.8,1.1-1.6,1.5-2.4c0.4-0.9,0.5-1.7,0.5-2.6c0-0.8-0.2-1.5-0.5-1.9
	c-0.4-0.5-0.9-0.7-1.5-0.7c-0.6,0-1.4,0.2-2.2,0.7c-0.8,0.5-1.5,1.1-2.2,1.8c-0.7,0.8-1.2,1.6-1.5,2.5c-0.4,0.9-0.6,1.7-0.6,2.6
	C171.4,184,171.6,184.6,172,185.1z M204.5,158.1c0.2-0.1,0.4-0.2,0.6-0.1c0.1,0.1,0.2,0.2,0.2,0.5v3l3.1-1.8c1.3-0.7,2.3-1,3.1-0.8
	c0.8,0.2,1.2,1,1.2,2.1c0,0.8-0.2,1.6-0.6,2.4c-0.4,0.8-0.9,1.6-1.6,2.3c-0.7,0.7-1.4,1.3-2.3,1.8c-0.9,0.5-1.7,0.8-2.4,0.8
	c-0.7,0-1.2-0.1-1.6-0.6c-0.4-0.4-0.6-1-0.6-1.9v-6.6c0-0.2,0.1-0.5,0.3-0.7C204.1,158.4,204.3,158.3,204.5,158.1z M205.3,165.1
	c0,0.8,0.3,1.3,0.9,1.5c0.6,0.2,1.3,0,2.2-0.5c0.9-0.5,1.5-1.1,2-1.8c0.5-0.7,0.8-1.5,0.8-2.3c0-0.8-0.2-1.3-0.7-1.4
	c-0.5-0.1-1.2,0-2,0.5l-3.1,1.8V165.1z M215.4,151.8c0.2-0.1,0.4-0.2,0.6-0.1c0.2,0.1,0.2,0.2,0.2,0.5v9.8c0,0.2-0.1,0.5-0.2,0.7
	c-0.2,0.2-0.3,0.4-0.6,0.6c-0.2,0.1-0.4,0.2-0.6,0.1c-0.1-0.1-0.2-0.2-0.2-0.5v-9.8c0-0.2,0.1-0.5,0.2-0.7
	C214.9,152.1,215.1,152,215.4,151.8z M259.3,126.8c0.9-1,1.9-1.9,3-2.5c1.1-0.6,2.1-1,3-1c0.9,0,1.6,0.3,2.1,0.9
	c0.5,0.6,0.8,1.4,0.8,2.5v4.9c0,0.2-0.1,0.5-0.2,0.7c-0.2,0.2-0.4,0.4-0.6,0.6c-0.2,0.1-0.4,0.2-0.6,0.1c-0.2-0.1-0.2-0.2-0.2-0.4
	v-1.3c-0.5,1-1.1,1.8-1.9,2.7c-0.8,0.8-1.6,1.5-2.5,2c-1.1,0.6-2,0.9-2.9,0.9c-0.9,0-1.5-0.3-2-0.9c-0.5-0.6-0.7-1.4-0.7-2.5
	c0-1.1,0.3-2.2,0.8-3.4S258.4,127.9,259.3,126.8z M258.6,134.6c0.4,0.4,0.9,0.7,1.5,0.7c0.7,0,1.4-0.2,2.2-0.7
	c0.8-0.5,1.5-1.1,2.2-1.8c0.6-0.8,1.2-1.6,1.5-2.5c0.4-0.9,0.6-1.7,0.6-2.6c0-0.8-0.2-1.5-0.6-1.9c-0.4-0.4-0.9-0.7-1.5-0.7
	c-0.6,0-1.4,0.2-2.2,0.7c-0.8,0.5-1.5,1.1-2.2,1.8c-0.7,0.8-1.2,1.6-1.5,2.5s-0.6,1.7-0.6,2.6S258.2,134.2,258.6,134.6z
	 M292.4,107.6c0.8-1,1.8-1.8,2.8-2.4c1-0.6,2-0.9,2.8-0.9s1.4,0.3,1.9,0.9c0.4,0.6,0.7,1.4,0.7,2.5c0,0.2-0.1,0.4-0.2,0.7
	c-0.1,0.2-0.3,0.4-0.5,0.5l-8.5,4.9c0.1,1.1,0.6,1.8,1.3,2c0.8,0.3,1.8,0,2.9-0.6c0.5-0.3,1-0.7,1.5-1.2c0.5-0.5,0.9-0.9,1.2-1.4
	c0.2-0.2,0.4-0.4,0.6-0.5c0.2-0.1,0.3-0.1,0.5-0.1c0.2,0.1,0.3,0.2,0.3,0.4c0,0.2-0.1,0.4-0.2,0.6c-0.5,0.7-1,1.3-1.8,2
	c-0.7,0.7-1.4,1.2-2.1,1.6c-1.1,0.7-2.1,1-3,1c-0.9,0-1.6-0.3-2.1-0.9c-0.5-0.6-0.7-1.5-0.7-2.6c0-1.1,0.2-2.3,0.7-3.4
	C290.9,109.6,291.6,108.5,292.4,107.6z M299,108c-0.1-1-0.5-1.7-1.2-1.9c-0.7-0.3-1.5-0.1-2.6,0.5c-1.1,0.6-1.9,1.5-2.6,2.5
	c-0.7,1.1-1.1,2.2-1.3,3.3L299,108z M309.9,94.9c-0.6,0.6-1.2,1-1.8,1.4c-0.7,0.4-1.3,0.6-1.8,0.7c-0.6,0.1-1,0-1.3-0.2
	c-0.3-0.2-0.5-0.6-0.5-1.1c0-0.2,0.1-0.5,0.2-0.7c0.1-0.2,0.3-0.4,0.5-0.5c0.2-0.1,0.4-0.2,0.5-0.1c0.1,0.1,0.2,0.2,0.2,0.5
	c0,0.4,0.2,0.6,0.6,0.6c0.4,0,0.9-0.2,1.5-0.5c0.6-0.4,1.1-0.8,1.5-1.2c0.4-0.5,0.6-0.9,0.6-1.3c0-0.3,0.1-0.5,0.2-0.8
	c0.1-0.2,0.3-0.4,0.5-0.5c0.2-0.1,0.4-0.2,0.5-0.1c0.1,0.1,0.2,0.2,0.2,0.5c0,0.5-0.2,1.1-0.5,1.6C310.9,93.8,310.4,94.3,309.9,94.9
	z M303.4,100.5c0.2-0.1,0.4-0.2,0.6-0.1c0.2,0.1,0.2,0.2,0.2,0.4v5.5c0,1.2,0.3,2,1,2.2c0.7,0.2,1.6,0,2.7-0.6
	c0.7-0.4,1.3-0.9,1.9-1.5c0.6-0.6,1-1.2,1.3-1.9c0.3-0.7,0.5-1.3,0.5-1.8v-6.2c0-0.2,0.1-0.5,0.2-0.7c0.1-0.2,0.3-0.4,0.6-0.6
	s0.4-0.2,0.6-0.1c0.2,0.1,0.2,0.2,0.2,0.4v9.9c0,0.2-0.1,0.5-0.2,0.7c-0.2,0.2-0.4,0.4-0.6,0.6s-0.4,0.2-0.6,0.1
	c-0.1-0.1-0.2-0.2-0.2-0.5v-0.7c-0.5,0.8-1,1.5-1.7,2.2c-0.7,0.7-1.4,1.2-2.1,1.7c-1,0.6-1.9,0.9-2.7,0.9c-0.8,0-1.4-0.2-1.9-0.8
	c-0.4-0.5-0.7-1.4-0.7-2.5v-5.5c0-0.2,0.1-0.5,0.2-0.7C303,100.8,303.2,100.6,303.4,100.5z M334.9,82.8c0.9-1,1.9-1.9,3-2.5
	c1.1-0.6,2.1-1,3-1c0.9,0,1.6,0.3,2.1,0.9c0.5,0.6,0.8,1.5,0.8,2.6c0,1.1-0.3,2.3-0.8,3.4s-1.2,2.3-2.1,3.3c-0.9,1-1.9,1.9-3,2.5
	c-1.1,0.6-2.1,1-3,1c-0.9,0-1.6-0.3-2.1-0.9c-0.5-0.6-0.8-1.4-0.8-2.6c0-1.1,0.3-2.3,0.8-3.4C333.3,84.9,334,83.8,334.9,82.8z
	 M334.2,90.5c0.4,0.4,0.9,0.7,1.5,0.7c0.7,0,1.4-0.2,2.2-0.7c0.8-0.5,1.5-1.1,2.2-1.8c0.6-0.8,1.1-1.6,1.5-2.4
	c0.4-0.9,0.5-1.7,0.5-2.6c0-0.8-0.2-1.5-0.5-1.9c-0.4-0.5-0.9-0.7-1.5-0.7c-0.6,0-1.4,0.2-2.2,0.7c-0.8,0.5-1.5,1.1-2.2,1.8
	c-0.7,0.8-1.2,1.6-1.5,2.5c-0.4,0.9-0.6,1.7-0.6,2.6C333.6,89.5,333.8,90.1,334.2,90.5z M378.6,57.4c0.9-1,1.9-1.9,3-2.5
	c1.1-0.6,2.1-1,3-1c0.9,0,1.6,0.3,2.1,0.9c0.5,0.6,0.8,1.4,0.8,2.5v4.9c0,0.2-0.1,0.5-0.2,0.7c-0.2,0.2-0.4,0.4-0.6,0.6
	s-0.4,0.2-0.6,0.1c-0.2-0.1-0.2-0.2-0.2-0.4v-1.3c-0.5,1-1.1,1.8-1.9,2.7c-0.8,0.8-1.6,1.5-2.5,2c-1.1,0.6-2,0.9-2.9,0.9
	c-0.9,0-1.5-0.3-2-0.9c-0.5-0.6-0.7-1.4-0.7-2.5c0-1.1,0.3-2.2,0.8-3.4C377,59.5,377.7,58.4,378.6,57.4z M377.8,65.1
	c0.4,0.4,0.9,0.7,1.5,0.7c0.7,0,1.4-0.2,2.2-0.7c0.8-0.5,1.5-1.1,2.2-1.8c0.6-0.8,1.2-1.6,1.5-2.5c0.4-0.9,0.6-1.7,0.6-2.6
	s-0.2-1.5-0.6-1.9c-0.4-0.4-0.9-0.7-1.5-0.7c-0.6,0-1.4,0.2-2.2,0.7c-0.8,0.5-1.5,1.1-2.2,1.8c-0.7,0.8-1.2,1.6-1.5,2.5
	c-0.4,0.9-0.6,1.7-0.6,2.6C377.3,64,377.5,64.7,377.8,65.1z M404.7,41.5c0.2-0.1,0.4-0.2,0.6-0.1s0.2,0.2,0.2,0.4v5.5
	c0,1.2,0.3,2,1,2.2c0.7,0.2,1.6,0,2.7-0.6c0.7-0.4,1.3-0.9,1.9-1.5c0.6-0.6,1-1.2,1.3-1.9c0.3-0.7,0.5-1.3,0.5-1.8v-6.2
	c0-0.2,0.1-0.5,0.2-0.7c0.1-0.2,0.3-0.4,0.6-0.6c0.2-0.1,0.4-0.2,0.6-0.1c0.2,0.1,0.2,0.2,0.2,0.4v9.9c0,0.2-0.1,0.5-0.2,0.7
	c-0.2,0.2-0.4,0.4-0.6,0.6c-0.2,0.1-0.4,0.2-0.6,0.1c-0.1-0.1-0.2-0.2-0.2-0.5v-0.7c-0.5,0.8-1,1.5-1.7,2.2
	c-0.7,0.7-1.4,1.2-2.1,1.7c-1,0.6-1.9,0.9-2.7,0.9c-0.8,0-1.4-0.2-1.9-0.8c-0.4-0.5-0.7-1.4-0.7-2.5v-5.5c0-0.2,0.1-0.5,0.2-0.7
	S404.4,41.6,404.7,41.5z"/>
</svg>
