<svg xmlns="http://www.w3.org/2000/svg" width="12.03" height="20" viewBox="0 0 12.03 20">
  <defs>
    <style>
      .cls-1 {
        fill: #a1a7be;
        fill-rule: evenodd;
      }
    </style>
  </defs>
  <path id="ok.svg" class="cls-1" d="M1769.14,4888.98a5.055,5.055,0,1,0-5.07-5.05A5.057,5.057,0,0,0,1769.14,4888.98Zm0-7.55a2.5,2.5,0,1,1-2.49,2.5A2.49,2.49,0,0,1,1769.14,4881.43Zm5.83,8.17a1.293,1.293,0,0,0-2.13-.23,6.639,6.639,0,0,1-7.41,0,1.294,1.294,0,0,0-2.13.23c-0.49,1,.07,1.48,1.34,2.31a8.6,8.6,0,0,0,3.54,1.04l-0.81.81c-1.13,1.12-2.22,2.22-2.97,2.98a1.147,1.147,0,0,0,0,1.64l0.13,0.14a1.165,1.165,0,0,0,1.64,0l2.98-2.99c1.14,1.14,2.23,2.23,2.98,2.99a1.177,1.177,0,0,0,1.65,0l0.13-.14a1.165,1.165,0,0,0,0-1.64l-2.98-2.98-0.81-.81a8.541,8.541,0,0,0,3.51-1.04C1774.9,4891.08,1775.46,4890.6,1774.97,4889.6Z" transform="translate(-1763.13 -4878.88)"/>
</svg>
