<svg xmlns="http://www.w3.org/2000/svg" width="32" height="32" viewBox="0 0 32 32">
  <metadata><?xpacket begin="﻿" id="W5M0MpCehiHzreSzNTczkc9d"?>
<x:xmpmeta xmlns:x="adobe:ns:meta/" x:xmptk="Adobe XMP Core 5.6-c138 79.159824, 2016/09/14-01:09:01        ">
   <rdf:RDF xmlns:rdf="http://www.w3.org/1999/02/22-rdf-syntax-ns#">
      <rdf:Description rdf:about=""/>
   </rdf:RDF>
</x:xmpmeta>
                                                                                                    
                                                                                                    
                                                                                                    
                                                                                                    
                                                                                                    
                                                                                                    
                                                                                                    
                                                                                                    
                                                                                                    
                                                                                                    
                                                                                                    
                                                                                                    
                                                                                                    
                                                                                                    
                                                                                                    
                                                                                                    
                                                                                                    
                                                                                                    
                                                                                                    
                                                                                                    
                           
<?xpacket end="w"?></metadata>
<defs>
    <style>
      .cls-1 {
        fill-rule: evenodd;
      }
    </style>
  </defs>
  <path id="Forma_1" data-name="Forma 1" class="cls-1" d="M1007.78,1508.22a5.883,5.883,0,0,0-8.314,0L981.8,1525.79a0.956,0.956,0,0,0-.235.37l-4,11a1,1,0,0,0,.94,1.34,0.986,0.986,0,0,0,.293-0.04l9.949-3.06a0.962,0.962,0,0,0,.414-0.24l18.624-18.63A5.879,5.879,0,0,0,1007.78,1508.22Zm-20.187,25.44-3.724,1.15a4.236,4.236,0,0,0-1.016-1.66,5.624,5.624,0,0,0-1.356-.97l1.7-4.68h2.3v2a1,1,0,0,0,1,1h1.765Zm14.717-14.49-12.181,12.19,0.35-1.65a1,1,0,0,0-.2-0.84,1.013,1.013,0,0,0-.777-0.37h-2v-2a1,1,0,0,0-1-1h-1.577l11.893-11.83,0.011,0.02A3.876,3.876,0,1,1,1002.31,1519.17Zm4.05-4.05-0.93.93a5.839,5.839,0,0,0-5.491-5.48l0.941-.93h0A3.875,3.875,0,1,1,1006.36,1515.12Zm-6.567-.33-10,10a1,1,0,0,0,.707,1.71,1.017,1.017,0,0,0,.707-0.29l10-10A1,1,0,1,0,999.793,1514.79Z" transform="translate(-977.5 -1506.5)"/>
</svg>
