<svg xmlns="http://www.w3.org/2000/svg" width="20.44" height="20.44" viewBox="0 0 20.44 20.44">
  <defs>
    <style>
      .cls-1 {
        fill: #e83360;
        fill-rule: evenodd;
      }
    </style>
  </defs>
  <path id="phone.svg" class="cls-1" d="M1341.47,4747.7a0.634,0.634,0,0,0-.05-0.3,2.632,2.632,0,0,0-1.1-.77c-0.83-.46-1.67-0.91-2.48-1.39a3.023,3.023,0,0,0-1.29-.67c-0.89,0-2.18,2.63-2.96,2.63a3.2,3.2,0,0,1-1.25-.57,14.443,14.443,0,0,1-5.94-5.93,3.18,3.18,0,0,1-.56-1.25c0-.79,2.62-2.08,2.62-2.96a2.946,2.946,0,0,0-.66-1.29c-0.48-.82-0.93-1.66-1.4-2.49a2.528,2.528,0,0,0-.76-1.1,0.854,0.854,0,0,0-.31-0.04,6.431,6.431,0,0,0-2.02.45,3.788,3.788,0,0,0-1.53,1.77,5.478,5.478,0,0,0-.74,2.7,11.138,11.138,0,0,0,1,3.8,14.036,14.036,0,0,0,1.2,2.54,24.324,24.324,0,0,0,6.97,6.96,12.877,12.877,0,0,0,2.54,1.21,11.138,11.138,0,0,0,3.8,1,5.615,5.615,0,0,0,2.7-.74,3.857,3.857,0,0,0,1.77-1.54A6.655,6.655,0,0,0,1341.47,4747.7Z" transform="translate(-1321.03 -4731.56)"/>
</svg>
