<svg xmlns="http://www.w3.org/2000/svg" xmlns:xlink="http://www.w3.org/1999/xlink" width="56.812" height="88" viewBox="0 0 56.812 88">
  <metadata><?xpacket begin="﻿" id="W5M0MpCehiHzreSzNTczkc9d"?>
<x:xmpmeta xmlns:x="adobe:ns:meta/" x:xmptk="Adobe XMP Core 5.6-c138 79.159824, 2016/09/14-01:09:01        ">
   <rdf:RDF xmlns:rdf="http://www.w3.org/1999/02/22-rdf-syntax-ns#">
      <rdf:Description rdf:about=""/>
   </rdf:RDF>
</x:xmpmeta>
                                                                                                    
                                                                                                    
                                                                                                    
                                                                                                    
                                                                                                    
                                                                                                    
                                                                                                    
                                                                                                    
                                                                                                    
                                                                                                    
                                                                                                    
                                                                                                    
                                                                                                    
                                                                                                    
                                                                                                    
                                                                                                    
                                                                                                    
                                                                                                    
                                                                                                    
                                                                                                    
                           
<?xpacket end="w"?></metadata>
<defs>
    <style>
      .cls-1 {
        fill-rule: evenodd;
        fill: url(#linear-gradient);
      }
    </style>
    <linearGradient id="linear-gradient" x1="781.094" y1="1746.594" x2="837.906" y2="1803.406" gradientUnits="userSpaceOnUse">
      <stop offset="0" stop-color="#de4313"/>
      <stop offset="1" stop-color="#fec163"/>
    </linearGradient>
  </defs>
  <path id="Прямоугольник_6" data-name="Прямоугольник 6" class="cls-1" d="M831.138,1819H787.862a6.857,6.857,0,0,1-6.762-6.77v-8.12a1.353,1.353,0,1,1,2.7,0v8.12a4.113,4.113,0,0,0,4.057,4.06h43.276c2.176,0,3.786-2.14,4.057-4.14v-16.17H782.452a1.348,1.348,0,0,1-1.352-1.35v-56.86a6.857,6.857,0,0,1,6.762-6.77h43.276a6.857,6.857,0,0,1,6.762,6.77v47.38a1.357,1.357,0,0,1-1.353,1.36H794.624a1.357,1.357,0,0,1-1.353-1.36v-41.97a1.355,1.355,0,0,1,1.353-1.35h29.752a1.354,1.354,0,0,1,1.352,1.35v32.5a1.352,1.352,0,0,1-2.7,0v-31.14H795.976v39.26H835.2v-46.03a4.113,4.113,0,0,0-4.057-4.06H787.862a4.113,4.113,0,0,0-4.057,4.06v55.51h52.742a1.348,1.348,0,0,1,1.353,1.35v17.6a1.43,1.43,0,0,1-.009.16C837.506,1815.64,834.875,1819,831.138,1819Zm-21.638-5.42a6.765,6.765,0,1,1,6.762-6.76A6.855,6.855,0,0,1,809.5,1813.58Zm0-10.83a4.065,4.065,0,1,0,4.057,4.07A4.169,4.169,0,0,0,809.5,1802.75Z" transform="translate(-781.094 -1731)"/>
</svg>
