<svg xmlns="http://www.w3.org/2000/svg" xmlns:xlink="http://www.w3.org/1999/xlink" width="97.5" height="82.5" viewBox="0 0 97.5 82.5">
  <metadata><?xpacket begin="﻿" id="W5M0MpCehiHzreSzNTczkc9d"?>
<x:xmpmeta xmlns:x="adobe:ns:meta/" x:xmptk="Adobe XMP Core 5.6-c138 79.159824, 2016/09/14-01:09:01        ">
   <rdf:RDF xmlns:rdf="http://www.w3.org/1999/02/22-rdf-syntax-ns#">
      <rdf:Description rdf:about=""/>
   </rdf:RDF>
</x:xmpmeta>
                                                                                                    
                                                                                                    
                                                                                                    
                                                                                                    
                                                                                                    
                                                                                                    
                                                                                                    
                                                                                                    
                                                                                                    
                                                                                                    
                                                                                                    
                                                                                                    
                                                                                                    
                                                                                                    
                                                                                                    
                                                                                                    
                                                                                                    
                                                                                                    
                                                                                                    
                                                                                                    
                           
<?xpacket end="w"?></metadata>
<defs>
    <style>
      .cls-1 {
        fill-rule: evenodd;
        fill: url(#linear-gradient);
      }
    </style>
    <linearGradient id="linear-gradient" x1="1187.53" y1="1816.13" x2="1105.03" y2="1733.63" gradientUnits="userSpaceOnUse">
      <stop offset="0" stop-color="#de4313"/>
      <stop offset="1" stop-color="#fec163"/>
    </linearGradient>
  </defs>
  <path id="Прямоугольник_7" data-name="Прямоугольник 7" class="cls-1" d="M1184.53,1775.62h-76.5a1.5,1.5,0,1,1,0-3h76.5A1.5,1.5,0,0,1,1184.53,1775.62Zm-15,40.5h-46.5a1.458,1.458,0,0,1-1.06-.44,1.5,1.5,0,0,1-.44-1.06l0.05-10.37a1.511,1.511,0,0,1,1.5-1.5l43.45-.13a1.538,1.538,0,0,0,1.5-1.5l0.05-4.43a1.646,1.646,0,0,0-1.55-1.57h-61.5a7.6,7.6,0,0,1-7.5-7.5v-46.5a7.608,7.608,0,0,1,7.5-7.5h82.5a7.6,7.6,0,0,1,7.5,7.5v46.5a7.594,7.594,0,0,1-7.5,7.5h-7.5a1.5,1.5,0,1,1,0-3h7.5a4.559,4.559,0,0,0,4.5-4.5v-46.5a4.566,4.566,0,0,0-4.5-4.5h-82.5a4.566,4.566,0,0,0-4.5,4.5v46.5a4.559,4.559,0,0,0,4.5,4.5h61.5a4.628,4.628,0,0,1,4.55,4.59l-0.05,4.43a4.5,4.5,0,0,1-4.5,4.48l-41.96.13-0.03,7.37h44.99A1.5,1.5,0,0,1,1169.53,1816.12Z" transform="translate(-1097.53 -1733.63)"/>
</svg>
