<svg xmlns="http://www.w3.org/2000/svg" width="21.4" height="12.22" viewBox="0 0 21.4 12.22">
  <defs>
    <style>
      .cls-1 {
        fill: #a1a7be;
        fill-rule: evenodd;
      }
    </style>
  </defs>
  <path id="vk.svg" class="cls-1" d="M1694.81,4884.67s-0.16-.45-1.13-0.33l-3.21.03a0.7,0.7,0,0,0-.42.06,0.664,0.664,0,0,0-.28.35,21.945,21.945,0,0,1-1.19,2.51c-1.43,2.43-2.01,2.56-2.25,2.41-0.54-.35-0.4-1.41-0.4-2.17,0-2.36.36-3.34-.7-3.6a5.872,5.872,0,0,0-1.51-.14,7.13,7.13,0,0,0-2.66.26c-0.37.18-.65,0.58-0.48,0.61a1.461,1.461,0,0,1,.95.48,3.387,3.387,0,0,1,.32,1.46c0.12,2.77-.45,3.12-0.45,3.12-0.43.23-1.19-.16-2.31-2.45a23.034,23.034,0,0,1-1.14-2.39,0.879,0.879,0,0,0-.27-0.36,1.247,1.247,0,0,0-.49-0.2l-3.06.02a0.8,0.8,0,0,0-.64.22,0.507,0.507,0,0,0-.01.54,29.653,29.653,0,0,0,5.11,8.42s2.49,2.6,5.31,2.42h1.28a1,1,0,0,0,.6-0.24,0.883,0.883,0,0,0,.16-0.57c-0.02-1.72.78-1.97,0.78-1.97,0.78-.25,1.79,1.66,2.86,2.39a2.381,2.381,0,0,0,1.43.44l2.85-.05a0.782,0.782,0,0,0,.79-1.26,9.165,9.165,0,0,0-2.13-2.46c-1.78-1.66-1.55-1.4.62-4.27C1694.45,4886.2,1694.98,4885.12,1694.81,4884.67Z" transform="translate(-1673.44 -4883.78)"/>
</svg>
