<?xml version="1.0" encoding="utf-8"?>
<!-- Generator: Adobe Illustrator 21.0.1, SVG Export Plug-In . SVG Version: 6.00 Build 0)  -->
<svg version="1.1" id="Слой_1" xmlns="http://www.w3.org/2000/svg" xmlns:xlink="http://www.w3.org/1999/xlink" x="0px" y="0px"
	 viewBox="0 0 218.1 201.5" style="enable-background:new 0 0 218.1 201.5;" xml:space="preserve">
<style type="text/css">
	.st0{fill:none;stroke:#000000;stroke-width:2;stroke-linecap:round;stroke-linejoin:round;stroke-miterlimit:10;}
	.st1{fill:none;stroke:#EDC03F;stroke-width:2;stroke-linecap:round;stroke-linejoin:round;stroke-miterlimit:10;}
	.st2{fill:none;stroke:#5C415D;stroke-width:2;stroke-linecap:round;stroke-linejoin:round;stroke-miterlimit:10;}
</style>
<g>
	<path class="st0" d="M123,162c0-9.5,0.1-19,0-28.5c0-2.7,0.7-4.1,3.5-5.1c8.6-3.1,17-6.6,25.5-9.9c3.2-1.3,4.3-3.5,4.1-7
		c-0.3-5.3-0.1-4.8,5.4-4.7c3.8,0,7.8,0.3,11.5-0.4c3.9-0.8,5.4,0.2,5,4.1c-0.4,4.1,0.5,6.2,5.5,7.3c10,2.2,19.6,6.1,29.6,8.6
		c3.4,0.9,4,2.3,4,5.2c-0.1,10.2,0,20.3,0,30.5"/>
	<path class="st1" d="M46.3,92c-7,1.1-14.4,2.3-21.7,3.6c-7.1,1.2-14.2,2.3-21.1,4.9C1.9,101,1,101.1,1,103c0.1,11,0,22,0,33.5
		c6.8,0,13.2,0,19.5,0"/>
	<path class="st0" d="M196.5,62.5c3.6-7.6,4.4-16,6.4-24c0.9-3.8-5.4-9.3-10.9-10.5c-1.5-0.3-3.2,0.3-4.6-1.4
		c-9.9-12.3-22.8-11.1-35.9-7.4c-6.8,1.9-12.9,5.4-18,10.4c-5.9,5.6-6.5,12.6-5.9,20c0.2,2,1.4,3.4,3.5,4"/>
	<path class="st0" d="M33,46c-4.2-2.6-7.2,0.1-10,2.5c-2.6,2.3-2.2,5.9-1.3,8.4c1.1,3,3.7,5.8,7.8,5.1c2.9-0.5,3.4,1.8,3.9,3.5
		C35.3,72,39,76.6,46.2,78c0,4.4,0,8.9,0,13.9"/>
	<path class="st0" d="M98.5,140.5c-0.3,7.5,0.6,15-0.5,22.5"/>
	<path class="st0" d="M5.5,137.5c0,7.8,0,15.7,0,23.5"/>
	<path class="st0" d="M79.5,24.5c3.2-1.9,6.3-0.7,9.8,0.2c-2.8,5.1-6.8,7.3-12.8,7.4c-10.3,0.1-20.7-1.1-31,0.8
		c-8.3,1.6-10,4.9-5.5,12c1.9,3,3.7,5.8,1.5,9.5c-2.1,3.6-5,5.1-9,4.5"/>
	<path class="st2" d="M92.5,139c0.3,0,0.7,0,1,0c7.5,1.1,7.5,1.1,7.5-6.5c0-8.7,0-17.3,0-26c0-2.2-0.2-3.3-3-4.2
		c-11.1-3.6-22.3-6.9-33.6-9.8c-2.4-0.6-3.3-2.1-3-4.5"/>
	<path class="st0" d="M62,91.5c-1-1.9-0.5-7.8-0.5-10"/>
	<path class="st2" d="M31,95.5c3,11.5,10.5,18.1,22,19.9c7.3,1.2,19.4-4.2,23-12.9c0.7-1.7,1.6-3.3,2.5-5"/>
	<path class="st0" d="M79.5,33c0,10.3,0.1,20.7,0,31c-0.1,5.3-1.2,10.4-5.5,13.9c-3.8,3.1-8.9,2.7-13.5,2.9c-1.5,0.1-3.3-0.1-5-0.3"
		/>
	<path class="st0" d="M163,34.5c-6.6,6.3-15.6,7.1-23.5,10.5c-7.4,3.2-9.6,7.3-6.9,14.5c1.8,4.7,1.2,9.5,0.8,14
		c-1,10.7,5.1,16.7,12.5,22.7c5.3,4.2,9.8,1.1,14.6,0.3c1.5-0.3,3-1,4.5-1.5"/>
	<path class="st2" d="M46.3,92c-7,1.1-14.4,2.3-21.7,3.6c-7.1,1.2-14.2,2.3-21.1,4.9C1.9,101,1,101.1,1,103c0.1,11,0,22,0,33.5
		c6.8,0,13.2,0,19.5,0"/>
	<path class="st0" d="M87,5.5C79.2,8,71.8,12,63,11.2c-5.2-0.5-10.6-0.7-16,0.6c-4.2,1-6.9,3.2-10.1,6.3c-1.6,0.4-3.6-5.1-5.9-4.6"
		/>
	<path class="st1" d="M204.5,65c6.6,14.8,10.3,30.2,9.5,46.5c-0.1,2.5,0,5,0,7.5"/>
	<path class="st1" d="M150.5,13c-14.3-5.7-29.1-8.7-44.5-8c-2.8,0.1-5.7,0.3-8.5,0.5"/>
	<path class="st0" d="M185,61c7.4-2.8,11.4-0.3,13.4,7c1.3,4.8-6.4,11.1-11.4,9.4c-0.7-0.2-1.3-0.3-2.3-0.5c-1.3,3.6-3,7.2-6.2,9.5
		c-3.6,2.6-4.3,6-4,10.1c0.2,3,0,6,0,9"/>
	<path class="st0" d="M162,107.5c0,11.5,0,23,0,34.5c0,1.7-0.3,3.4,0.5,5"/>
	<path class="st1" d="M197,167.5c-8.7,11.7-18.6,22.1-31,30c-1.8,1.1-3.4,2.6-5.5,3"/>
	<path class="st0" d="M55.5,67c4,6.8,8.8,6.8,13.7-0.3c-4.5-1-8.9-1-13.2-0.2"/>
	<path class="st1" d="M17,62.5C11.7,71.7,8.8,81.6,7,92"/>
	<path class="st0" d="M31,14c0.7,10.2,0.9,20.3,0,30.5"/>
	<path class="st0" d="M21.5,116c0,15.3,0,30.7,0,46"/>
	<path class="st0" d="M92,118c-1.1,4.5-0.4,9-0.5,13.5c-0.1,8.8,0,17.7,0,26.5c0,1.7-0.3,3.4,0.5,5"/>
	<path class="st1" d="M26,171.5c5.4,8.4,13.4,14.3,20,21.5"/>
	<path class="st0" d="M134.5,147c-0.2,5.1-3,9.6-4,14.5"/>
	<path class="st0" d="M173,33c0.6,6.3,4.1,11.8,5,18"/>
	<path class="st0" d="M173,37.5c-3.3,3.8-7.1,6.9-12.5,7"/>
	<path class="st0" d="M163.5,31c0.7,4,1.6,8.1-0.5,12"/>
	<path class="st0" d="M159.5,98c0,2.5,0,5,0,7.5"/>
	<path class="st0" d="M87,5.5c0.7,3.4-3.6,5.6-4,8.5"/>
	<path class="st0" d="M80.5,15.5c2.7-2.4,5.3,0,8,0c0.6,3.8-4.1,4.3-4.5,7.5"/>
	<path class="st0" d="M165.5,62c-2.5-2.6-5.3-1.4-8-0.5"/>
	<path class="st0" d="M146,63c-2.3-4.6-5.5-1.9-8.5-1"/>
	<path class="st0" d="M146,82c-1.8,0.5-2,1.6-1,3c4.5,6.3,11.4,5.4,16.1-3c-5.2,0-9.9,0-14.6,0"/>
	<circle cx="55.5" cy="48" r="2"/>
	<circle cx="70.5" cy="48" r="2"/>
</g>
</svg>
