<?xml version="1.0" encoding="utf-8"?>
<!-- Generator: Adobe Illustrator 21.0.1, SVG Export Plug-In . SVG Version: 6.00 Build 0)  -->
<svg version="1.1" id="Object" xmlns="http://www.w3.org/2000/svg" xmlns:xlink="http://www.w3.org/1999/xlink" x="0px" y="0px"
	 viewBox="0 0 479.4 183.3" style="enable-background:new 0 0 479.4 183.3;" xml:space="preserve">
<style type="text/css">
	.st0{fill:#F7E4BA;}
	.st1{fill:#F8E0A9;}
	.st2{fill:#6A7172;}
	.st3{fill:#007298;}
	.st4{fill:#005E85;}
	.st5{fill:#C33A32;}
	.st6{fill:#333E48;}
	.st7{fill:#00556F;}
	.st8{fill:#73243D;}
	.st9{fill:#916928;}
	.st10{fill:#6D5D35;}
	.st11{fill:#FFA400;}
	.st12{fill:#9ECDD9;}
	.st13{fill:#83BBC8;}
	.st14{fill:#CD5245;}
	.st15{fill:#CB4D41;}
	.st16{fill:#2C7188;}
	.st17{fill:#828D97;}
	.st18{fill:#608085;}
	.st19{fill:#D76A5B;}
	.st20{fill:#7A232E;}
	.st21{fill:#F8F8F8;}
	.st22{fill:#9FAAB3;}
	.st23{fill:#24BC7C;}
	.st24{opacity:0.1;}
	.st25{fill:#0B0C0C;}
	.st26{fill:#980000;}
	.st27{fill:#B6BBBF;}
	.st28{fill:#E5E5E7;}
	.st29{fill:#A10808;stroke:#980000;stroke-width:0.8594;stroke-miterlimit:10;}
	.st30{fill:#A10808;}
	.st31{display:none;}
	.st32{display:inline;opacity:0.9;fill:#FFFFFF;enable-background:new    ;}
	.st33{fill:#B66B56;}
	.st34{opacity:0.1;fill:#0B0C0C;enable-background:new    ;}
	.st35{display:inline;}
	.st36{fill:#F8F07E;}
	.st37{fill:#E91C24;}
	.st38{fill:#AFAFAF;}
	.st39{fill:#333333;}
	.st40{fill:#C8C8C8;}
	.st41{fill:#A8CEDE;}
	.st42{fill:#008E45;}
	.st43{fill:#006837;}
	.st44{fill:#BD272D;}
	.st45{fill:#801819;}
	.st46{fill:#FFC700;}
	.st47{fill:#EBA214;}
	.st48{fill:#EE771A;}
	.st49{fill:#C86416;}
</style>
<g>
	<g>
		<g>
			<g>
				<g>
					<g>
						<rect x="226.7" y="112.4" class="st0" width="40.5" height="70.6"/>
						<rect x="260.7" y="112.4" class="st1" width="6.2" height="70.6"/>
					</g>
					<rect x="225" y="107.8" class="st2" width="43.9" height="4.6"/>
				</g>
				<g>
					<g>
						<rect x="251.8" y="117.9" class="st3" width="7.1" height="11.8"/>
						<polygon class="st4" points="251.8,129.7 258.8,129.7 251.8,117.9 						"/>
					</g>
					<g>
						<rect x="237.9" y="117.9" class="st3" width="7.1" height="11.8"/>
						<polygon class="st4" points="237.9,129.7 245,129.7 237.9,117.9 						"/>
					</g>
					<g>
						<rect x="251.8" y="154.4" class="st3" width="7.1" height="11.8"/>
						<polygon class="st4" points="251.8,166.2 258.8,166.2 251.8,154.4 						"/>
					</g>
					<g>
						<rect x="237.9" y="154.4" class="st3" width="7.1" height="11.8"/>
						<polygon class="st4" points="237.9,166.2 245,166.2 237.9,154.4 						"/>
					</g>
					<g>
						<rect x="251.8" y="135.6" class="st3" width="7.1" height="11.8"/>
						<polygon class="st4" points="251.8,147.3 258.8,147.3 251.8,135.6 						"/>
					</g>
					<g>
						<rect x="237.9" y="135.6" class="st3" width="7.1" height="11.8"/>
						<polygon class="st4" points="237.9,147.3 245,147.3 237.9,135.6 						"/>
					</g>
				</g>
			</g>
			<g>
				<rect x="240.3" y="87.1" class="st5" width="13.2" height="8.7"/>
				<rect x="239.8" y="87.1" class="st6" width="1" height="20.5"/>
			</g>
		</g>
		<g>
			<g>
				<rect x="89.5" y="132.9" class="st7" width="52.1" height="23.6"/>
				<rect x="89.5" y="159.1" class="st7" width="52.1" height="22.6"/>
				<rect x="88.6" y="155.9" class="st8" width="54" height="3.7"/>
			</g>
			<g>
				<rect x="112.2" y="172.8" class="st9" width="6.7" height="8.8"/>
				<polygon class="st10" points="112.2,172.8 118.9,181.6 112.2,181.6 				"/>
				<circle class="st11" cx="113.3" cy="177.2" r="0.4"/>
			</g>
			<g>
				<g>
					<g>
						<g>
							<rect x="109.5" y="138.4" class="st12" width="11.4" height="4.2"/>
							<polygon class="st13" points="109.5,142.7 120.9,142.7 109.5,138.4 							"/>
						</g>
					</g>
					<g>
						<g>
							<rect x="93.2" y="138.4" class="st12" width="11.4" height="4.2"/>
							<polygon class="st13" points="93.2,142.7 104.5,142.7 93.2,138.4 							"/>
						</g>
					</g>
					<g>
						<g>
							<rect x="109.5" y="147.8" class="st12" width="11.4" height="4.2"/>
							<polygon class="st13" points="109.5,152.1 120.9,152.1 109.5,147.8 							"/>
						</g>
					</g>
					<g>
						<g>
							<rect x="93.2" y="147.8" class="st12" width="11.4" height="4.2"/>
							<polygon class="st13" points="93.2,152.1 104.5,152.1 93.2,147.8 							"/>
						</g>
					</g>
				</g>
				<g>
					<g>
						<rect x="99.3" y="164.6" class="st12" width="11.4" height="4.2"/>
						<polygon class="st13" points="99.3,168.8 110.7,168.8 99.3,164.6 						"/>
					</g>
				</g>
			</g>
			<g>
				<g>
					<polygon class="st5" points="141.6,129.7 115.5,113.6 89.5,129.7 					"/>
					<polygon class="st14" points="141.6,129.7 115.5,113.6 128,129.7 					"/>
				</g>
				<rect x="88.6" y="129.2" class="st8" width="54" height="3.7"/>
				<g>
					<circle class="st12" cx="115.5" cy="122.1" r="3.3"/>
					<path class="st13" d="M113.2,119.8l4.6,4.6c-0.6,0.6-1.4,1-2.3,1c-1.8,0-3.3-1.5-3.3-3.3C112.3,121.2,112.6,120.4,113.2,119.8z
						"/>
				</g>
			</g>
		</g>
		<g>
			<g>
				<rect x="406.4" y="113.3" class="st0" width="71.1" height="69.1"/>
				<rect x="406.4" y="99" class="st0" width="71.1" height="12.4"/>
				<rect x="406.4" y="84.7" class="st0" width="71.1" height="12.4"/>
			</g>
			<g>
				<g>
					<rect x="411.1" y="102.9" class="st3" width="61.7" height="4.7"/>
					<polygon class="st4" points="411.1,107.6 472.8,107.6 411.1,102.9 					"/>
				</g>
				<g>
					<rect x="411.1" y="88.6" class="st3" width="61.7" height="4.7"/>
					<polygon class="st4" points="411.1,93.3 472.8,93.3 411.1,88.6 					"/>
				</g>
				<g>
					<g>
						<rect x="465.6" y="118" class="st3" width="4.6" height="7.8"/>
						<polygon class="st4" points="465.6,125.7 470.3,125.7 465.6,118 						"/>
					</g>
					<g>
						<rect x="456.9" y="118" class="st3" width="4.6" height="7.8"/>
						<polygon class="st4" points="456.9,125.7 461.6,125.7 456.9,118 						"/>
					</g>
					<g>
						<rect x="448.3" y="118" class="st3" width="4.6" height="7.8"/>
						<polygon class="st4" points="448.3,125.7 452.9,125.7 448.3,118 						"/>
					</g>
					<g>
						<rect x="439.6" y="118" class="st3" width="4.7" height="7.8"/>
						<polygon class="st4" points="439.6,125.7 444.2,125.7 439.6,118 						"/>
					</g>
					<g>
						<rect x="465.6" y="140.1" class="st3" width="4.6" height="7.8"/>
						<polygon class="st4" points="465.6,147.9 470.3,147.9 465.6,140.1 						"/>
					</g>
					<g>
						<rect x="456.9" y="140.1" class="st3" width="4.6" height="7.8"/>
						<polygon class="st4" points="456.9,147.9 461.6,147.9 456.9,140.1 						"/>
					</g>
					<g>
						<rect x="448.3" y="140.1" class="st3" width="4.6" height="7.8"/>
						<polygon class="st4" points="448.3,147.9 452.9,147.9 448.3,140.1 						"/>
					</g>
					<g>
						<rect x="439.6" y="140.1" class="st3" width="4.7" height="7.8"/>
						<polygon class="st4" points="439.6,147.9 444.2,147.9 439.6,140.1 						"/>
					</g>
					<g>
						<rect x="465.6" y="129.2" class="st3" width="4.6" height="7.8"/>
						<polygon class="st4" points="465.6,136.9 470.3,136.9 465.6,129.2 						"/>
					</g>
					<g>
						<rect x="456.9" y="129.2" class="st3" width="4.6" height="7.8"/>
						<polygon class="st4" points="456.9,136.9 461.6,136.9 456.9,129.2 						"/>
					</g>
					<g>
						<rect x="448.3" y="129.2" class="st3" width="4.6" height="7.8"/>
						<polygon class="st4" points="448.3,136.9 452.9,136.9 448.3,129.2 						"/>
					</g>
					<g>
						<rect x="439.6" y="129.2" class="st3" width="4.7" height="7.8"/>
						<polygon class="st4" points="439.6,136.9 444.2,136.9 439.6,129.2 						"/>
					</g>
					<g>
						<rect x="430.9" y="118" class="st3" width="4.7" height="7.8"/>
						<polygon class="st4" points="430.9,125.7 435.6,125.7 430.9,118 						"/>
					</g>
					<g>
						<rect x="430.9" y="140.1" class="st3" width="4.7" height="7.8"/>
						<polygon class="st4" points="430.9,147.9 435.6,147.9 430.9,140.1 						"/>
					</g>
					<g>
						<rect x="430.9" y="129.2" class="st3" width="4.7" height="7.8"/>
						<polygon class="st4" points="430.9,136.9 435.6,136.9 430.9,129.2 						"/>
					</g>
					<g>
						<rect x="422.2" y="118" class="st3" width="4.6" height="7.8"/>
						<polygon class="st4" points="422.2,125.7 426.9,125.7 422.2,118 						"/>
					</g>
					<g>
						<rect x="422.2" y="140.1" class="st3" width="4.6" height="7.8"/>
						<polygon class="st4" points="422.2,147.9 426.9,147.9 422.2,140.1 						"/>
					</g>
					<g>
						<rect x="422.2" y="129.2" class="st3" width="4.6" height="7.8"/>
						<polygon class="st4" points="422.2,136.9 426.9,136.9 422.2,129.2 						"/>
					</g>
					<g>
						<rect x="413.6" y="118" class="st3" width="4.6" height="7.8"/>
						<polygon class="st4" points="413.6,125.7 418.2,125.7 413.6,118 						"/>
					</g>
					<g>
						<rect x="413.6" y="140.1" class="st3" width="4.6" height="7.8"/>
						<polygon class="st4" points="413.6,147.9 418.2,147.9 413.6,140.1 						"/>
					</g>
					<g>
						<rect x="465.6" y="150.8" class="st3" width="4.6" height="7.8"/>
						<polygon class="st4" points="465.6,158.5 470.3,158.5 465.6,150.8 						"/>
					</g>
					<g>
						<rect x="456.9" y="150.8" class="st3" width="4.6" height="7.8"/>
						<polygon class="st4" points="456.9,158.5 461.6,158.5 456.9,150.8 						"/>
					</g>
					<g>
						<rect x="448.3" y="150.8" class="st3" width="4.6" height="7.8"/>
						<polygon class="st4" points="448.3,158.5 452.9,158.5 448.3,150.8 						"/>
					</g>
					<g>
						<rect x="439.6" y="150.8" class="st3" width="4.7" height="7.8"/>
						<polygon class="st4" points="439.6,158.5 444.2,158.5 439.6,150.8 						"/>
					</g>
					<g>
						<rect x="430.9" y="150.8" class="st3" width="4.7" height="7.8"/>
						<polygon class="st4" points="430.9,158.5 435.6,158.5 430.9,150.8 						"/>
					</g>
					<g>
						<rect x="422.2" y="150.8" class="st3" width="4.6" height="7.8"/>
						<polygon class="st4" points="422.2,158.5 426.9,158.5 422.2,150.8 						"/>
					</g>
					<g>
						<rect x="413.6" y="150.8" class="st3" width="4.6" height="7.8"/>
						<polygon class="st4" points="413.6,158.5 418.2,158.5 413.6,150.8 						"/>
					</g>
					<g>
						<rect x="413.6" y="129.2" class="st3" width="4.6" height="7.8"/>
						<polygon class="st4" points="413.6,136.9 418.2,136.9 413.6,129.2 						"/>
					</g>
				</g>
			</g>
			<g>
				<rect x="404.5" y="111.4" class="st8" width="74.9" height="1.9"/>
				<rect x="404.5" y="97.1" class="st8" width="74.9" height="1.9"/>
				<g>
					<rect x="404.5" y="82.8" class="st8" width="74.9" height="1.9"/>
					<g>
						<polygon class="st5" points="406.1,82.8 420.1,72.3 463.7,72.3 477.8,82.8 						"/>
						<polygon class="st15" points="463.1,82.8 455.3,72.3 463.7,72.3 477.8,82.8 						"/>
					</g>
				</g>
			</g>
		</g>
		<g>
			<rect x="265" y="88.5" class="st7" width="49.2" height="94.4"/>
			<rect x="308.1" y="88.5" class="st16" width="2.9" height="94.4"/>
			<g>
				<path class="st17" d="M287.8,78.6c0,0.6,0.5,1.1,1.2,1.1l0,0c0.7,0,1.2-0.5,1.2-1.1V51.7c0-0.6-0.5-1.1-1.2-1.1l0,0
					c-0.7,0-1.2,0.5-1.2,1.1V78.6z"/>
				<circle class="st18" cx="289" cy="52.5" r="2.8"/>
				<g>
					<path class="st5" d="M265,86.1c2.9-7.2,11-16.9,24.6-16.9s21.7,9.7,24.6,16.9H265z"/>
					<path class="st19" d="M288.3,69.2c0.4,0,0.9,0,1.3,0c13.6,0,21.7,9.7,24.6,16.9h-2.6C308.8,79.1,301.1,69.8,288.3,69.2z"/>
					<rect x="262.6" y="83.7" class="st20" width="54.1" height="4.8"/>
				</g>
			</g>
			<g>
				<g>
					<g>
						<rect x="298.6" y="93.6" class="st12" width="11.5" height="5.3"/>
						<polygon class="st13" points="298.6,98.8 310.1,98.8 298.6,93.6 						"/>
					</g>
					<g>
						<rect x="283.9" y="93.6" class="st12" width="11.5" height="5.3"/>
						<polygon class="st13" points="283.9,98.8 295.4,98.8 283.9,93.6 						"/>
					</g>
					<g>
						<rect x="269.2" y="93.6" class="st12" width="11.5" height="5.3"/>
						<polygon class="st13" points="269.2,98.8 280.7,98.8 269.2,93.6 						"/>
					</g>
					<g>
						<rect x="298.6" y="103" class="st12" width="11.5" height="5.3"/>
						<polygon class="st13" points="298.6,108.3 310.1,108.3 298.6,103 						"/>
					</g>
					<g>
						<rect x="283.9" y="103" class="st12" width="11.5" height="5.3"/>
						<polygon class="st13" points="283.9,108.3 295.4,108.3 283.9,103 						"/>
					</g>
					<g>
						<rect x="269.2" y="103" class="st12" width="11.5" height="5.3"/>
						<polygon class="st13" points="269.2,108.3 280.7,108.3 269.2,103 						"/>
					</g>
					<g>
						<rect x="298.6" y="112.4" class="st12" width="11.5" height="5.3"/>
						<polygon class="st13" points="298.6,117.7 310.1,117.7 298.6,112.4 						"/>
					</g>
					<g>
						<rect x="283.9" y="112.4" class="st12" width="11.5" height="5.3"/>
						<polygon class="st13" points="283.9,117.7 295.4,117.7 283.9,112.4 						"/>
					</g>
					<g>
						<rect x="269.2" y="112.4" class="st12" width="11.5" height="5.3"/>
						<polygon class="st13" points="269.2,117.7 280.7,117.7 269.2,112.4 						"/>
					</g>
					<g>
						<rect x="298.6" y="121.9" class="st12" width="11.5" height="5.3"/>
						<polygon class="st13" points="298.6,127.1 310.1,127.1 298.6,121.9 						"/>
					</g>
					<g>
						<rect x="283.9" y="121.9" class="st12" width="11.5" height="5.3"/>
						<polygon class="st13" points="283.9,127.1 295.4,127.1 283.9,121.9 						"/>
					</g>
					<g>
						<rect x="269.2" y="121.9" class="st12" width="11.5" height="5.3"/>
						<polygon class="st13" points="269.2,127.1 280.7,127.1 269.2,121.9 						"/>
					</g>
				</g>
				<g>
					<g>
						<rect x="298.6" y="156.1" class="st12" width="11.5" height="5.3"/>
						<polygon class="st13" points="298.6,161.4 310.1,161.4 298.6,156.1 						"/>
					</g>
					<g>
						<rect x="283.9" y="156.1" class="st12" width="11.5" height="5.3"/>
						<polygon class="st13" points="283.9,161.4 295.4,161.4 283.9,156.1 						"/>
					</g>
					<g>
						<rect x="269.2" y="156.1" class="st12" width="11.5" height="5.3"/>
						<polygon class="st13" points="269.2,161.4 280.7,161.4 269.2,156.1 						"/>
					</g>
					<g>
						<rect x="298.6" y="165.6" class="st12" width="11.5" height="5.3"/>
						<polygon class="st13" points="298.6,170.8 310.1,170.8 298.6,165.6 						"/>
					</g>
					<g>
						<rect x="283.9" y="165.6" class="st12" width="11.5" height="5.3"/>
						<polygon class="st13" points="283.9,170.8 295.4,170.8 283.9,165.6 						"/>
					</g>
					<g>
						<rect x="269.2" y="165.6" class="st12" width="11.5" height="5.3"/>
						<polygon class="st13" points="269.2,170.8 280.7,170.8 269.2,165.6 						"/>
					</g>
				</g>
			</g>
			<g>
				<rect x="262.6" y="130.7" class="st8" width="54.1" height="1.6"/>
				<g>
					<g>
						<polygon class="st21" points="304.4,152 289,146.5 273.7,152 273.7,132.4 304.4,132.4 						"/>
					</g>
				</g>
			</g>
		</g>
		<g>
			<rect x="121.9" y="57.3" class="st22" width="70.6" height="122.8"/>
			<g>
				<g>
					<g>
						<rect x="180.4" y="65.9" class="st3" width="6.4" height="10.6"/>
						<polygon class="st4" points="180.4,76.5 186.8,76.5 180.4,65.9 						"/>
					</g>
					<g>
						<rect x="162.8" y="65.9" class="st3" width="6.4" height="10.6"/>
						<polygon class="st4" points="162.8,76.5 169.2,76.5 162.8,65.9 						"/>
					</g>
					<g>
						<rect x="145.2" y="65.9" class="st3" width="6.4" height="10.6"/>
						<polygon class="st4" points="145.2,76.5 151.6,76.5 145.2,65.9 						"/>
					</g>
					<g>
						<rect x="127.6" y="65.9" class="st3" width="6.4" height="10.6"/>
						<polygon class="st4" points="127.6,76.5 133.9,76.5 127.6,65.9 						"/>
					</g>
					<g>
						<rect x="180.4" y="82.1" class="st3" width="6.4" height="10.6"/>
						<polygon class="st4" points="180.4,92.7 186.8,92.7 180.4,82.1 						"/>
					</g>
					<g>
						<rect x="162.8" y="82.1" class="st3" width="6.4" height="10.6"/>
						<polygon class="st4" points="162.8,92.7 169.2,92.7 162.8,82.1 						"/>
					</g>
					<g>
						<rect x="145.2" y="82.1" class="st3" width="6.4" height="10.6"/>
						<polygon class="st4" points="145.2,92.7 151.6,92.7 145.2,82.1 						"/>
					</g>
					<g>
						<rect x="127.6" y="82.1" class="st3" width="6.4" height="10.6"/>
						<polygon class="st4" points="127.6,92.7 133.9,92.7 127.6,82.1 						"/>
					</g>
					<g>
						<rect x="180.4" y="98.2" class="st3" width="6.4" height="10.6"/>
						<polygon class="st4" points="180.4,108.8 186.8,108.8 180.4,98.2 						"/>
					</g>
					<g>
						<rect x="162.8" y="98.2" class="st3" width="6.4" height="10.6"/>
						<polygon class="st4" points="162.8,108.8 169.2,108.8 162.8,98.2 						"/>
					</g>
					<g>
						<rect x="145.2" y="98.2" class="st3" width="6.4" height="10.6"/>
						<polygon class="st4" points="145.2,108.8 151.6,108.8 145.2,98.2 						"/>
					</g>
					<g>
						<rect x="127.6" y="98.2" class="st3" width="6.4" height="10.6"/>
						<polygon class="st4" points="127.6,108.8 133.9,108.8 127.6,98.2 						"/>
					</g>
				</g>
				<g>
					<g>
						<rect x="180.4" y="114.3" class="st3" width="6.4" height="10.6"/>
						<polygon class="st4" points="180.4,124.9 186.8,124.9 180.4,114.3 						"/>
					</g>
					<g>
						<rect x="162.8" y="114.3" class="st3" width="6.4" height="10.6"/>
						<polygon class="st4" points="162.8,124.9 169.2,124.9 162.8,114.3 						"/>
					</g>
					<g>
						<rect x="145.2" y="114.3" class="st3" width="6.4" height="10.6"/>
						<polygon class="st4" points="145.2,124.9 151.6,124.9 145.2,114.3 						"/>
					</g>
					<g>
						<rect x="127.6" y="114.3" class="st3" width="6.4" height="10.6"/>
						<polygon class="st4" points="127.6,124.9 133.9,124.9 127.6,114.3 						"/>
					</g>
					<g>
						<rect x="180.4" y="130.5" class="st3" width="6.4" height="10.6"/>
						<polygon class="st4" points="180.4,141.1 186.8,141.1 180.4,130.5 						"/>
					</g>
					<g>
						<rect x="162.8" y="130.5" class="st3" width="6.4" height="10.6"/>
						<polygon class="st4" points="162.8,141.1 169.2,141.1 162.8,130.5 						"/>
					</g>
					<g>
						<rect x="145.2" y="130.5" class="st3" width="6.4" height="10.6"/>
						<polygon class="st4" points="145.2,141.1 151.6,141.1 145.2,130.5 						"/>
					</g>
					<g>
						<rect x="127.6" y="130.5" class="st3" width="6.4" height="10.6"/>
						<polygon class="st4" points="127.6,141.1 133.9,141.1 127.6,130.5 						"/>
					</g>
					<g>
						<rect x="180.4" y="146.6" class="st3" width="6.4" height="10.6"/>
						<polygon class="st4" points="180.4,157.2 186.8,157.2 180.4,146.6 						"/>
					</g>
					<g>
						<rect x="162.8" y="146.6" class="st3" width="6.4" height="10.6"/>
						<polygon class="st4" points="162.8,157.2 169.2,157.2 162.8,146.6 						"/>
					</g>
					<g>
						<rect x="145.2" y="146.6" class="st3" width="6.4" height="10.6"/>
						<polygon class="st4" points="145.2,157.2 151.6,157.2 145.2,146.6 						"/>
					</g>
					<g>
						<rect x="127.6" y="146.6" class="st3" width="6.4" height="10.6"/>
						<polygon class="st4" points="127.6,157.2 133.9,157.2 127.6,146.6 						"/>
					</g>
				</g>
			</g>
			<g>
				<rect x="119.5" y="110.9" class="st18" width="76.9" height="1.4"/>
				<g>
					<rect x="119.5" y="53.2" class="st18" width="76.9" height="4"/>
					<path class="st22" d="M133.4,40.9C136.8,31,146.2,24,157.2,24s20.3,7.1,23.7,16.9h11.6v12.4h-70.6V40.9H133.4z"/>
					<path class="st18" d="M138.3,49.1c0-10.4,8.4-18.8,18.8-18.8c10.4,0,18.8,8.4,18.8,18.8"/>
				</g>
			</g>
			<g>
				<rect x="188.7" y="40.9" class="st17" width="3.8" height="12.4"/>
				<rect x="188.7" y="57.3" class="st17" width="3.8" height="53.6"/>
				<rect x="188.7" y="112.3" class="st17" width="3.8" height="67.8"/>
			</g>
		</g>
		<g>
			<g>
				<g>
					<rect x="317.9" y="32.8" class="st17" width="66.5" height="16.9"/>
					<rect x="337.5" y="24" class="st17" width="27.2" height="12.2"/>
					<path class="st17" d="M349.9,29c0,0.6,0.5,1.1,1.2,1.1l0,0c0.7,0,1.2-0.5,1.2-1.1V2.1c0-0.6-0.5-1.1-1.2-1.1l0,0
						c-0.7,0-1.2,0.5-1.2,1.1V29z"/>
					<circle class="st18" cx="351.2" cy="2.8" r="2.8"/>
				</g>
				<rect x="312.1" y="47.7" class="st22" width="78.1" height="132.3"/>
			</g>
			<g>
				<g>
					<g>
						<rect x="369.3" y="38.8" class="st3" width="9.1" height="4.6"/>
						<polygon class="st4" points="369.3,43.4 378.4,43.4 369.3,38.8 						"/>
					</g>
					<g>
						<rect x="357.7" y="38.8" class="st3" width="9.1" height="4.6"/>
						<polygon class="st4" points="357.7,43.4 366.7,43.4 357.7,38.8 						"/>
					</g>
					<g>
						<rect x="346" y="38.8" class="st3" width="9.1" height="4.6"/>
						<polygon class="st4" points="346,43.4 355.1,43.4 346,38.8 						"/>
					</g>
					<g>
						<rect x="333.9" y="38.8" class="st3" width="9.1" height="4.6"/>
						<polygon class="st4" points="333.9,43.4 343,43.4 333.9,38.8 						"/>
					</g>
					<g>
						<rect x="322.3" y="38.8" class="st3" width="9.1" height="4.6"/>
						<polygon class="st4" points="322.3,43.4 331.4,43.4 322.3,38.8 						"/>
					</g>
				</g>
				<g>
					<rect x="330.1" y="158.5" class="st3" width="42.3" height="21.5"/>
					<polygon class="st4" points="330.1,180.1 372.4,180.1 330.1,158.5 					"/>
				</g>
				<g>
					<g>
						<rect x="352.9" y="63.6" class="st3" width="9.1" height="4.6"/>
						<polygon class="st4" points="352.9,68.2 362,68.2 352.9,63.6 						"/>
					</g>
					<g>
						<rect x="364.5" y="80.1" class="st3" width="9.1" height="4.6"/>
						<polygon class="st4" points="364.5,84.7 373.6,84.7 364.5,80.1 						"/>
					</g>
					<g>
						<rect x="340.8" y="63.6" class="st3" width="9.1" height="4.6"/>
						<polygon class="st4" points="340.8,68.2 349.9,68.2 340.8,63.6 						"/>
					</g>
					<g>
						<rect x="329.2" y="63.6" class="st3" width="9.1" height="4.6"/>
						<polygon class="st4" points="329.2,68.2 338.3,68.2 329.2,63.6 						"/>
					</g>
					<g>
						<rect x="317.6" y="63.6" class="st3" width="9.1" height="4.6"/>
						<polygon class="st4" points="317.6,68.2 326.6,68.2 317.6,63.6 						"/>
					</g>
					<g>
						<rect x="376.2" y="54.8" class="st3" width="9.1" height="4.6"/>
						<polygon class="st4" points="376.2,59.4 385.2,59.4 376.2,54.8 						"/>
					</g>
					<g>
						<rect x="364.5" y="54.8" class="st3" width="9.1" height="4.6"/>
						<polygon class="st4" points="364.5,59.4 373.6,59.4 364.5,54.8 						"/>
					</g>
					<g>
						<rect x="352.9" y="54.8" class="st3" width="9.1" height="4.6"/>
						<polygon class="st4" points="352.9,59.4 362,59.4 352.9,54.8 						"/>
					</g>
					<g>
						<rect x="376.2" y="63" class="st3" width="9.1" height="4.6"/>
						<polygon class="st4" points="376.2,67.7 385.2,67.7 376.2,63 						"/>
					</g>
					<g>
						<rect x="364.5" y="63" class="st3" width="9.1" height="4.6"/>
						<polygon class="st4" points="364.5,67.7 373.6,67.7 364.5,63 						"/>
					</g>
					<g>
						<rect x="376.2" y="71.3" class="st3" width="9.1" height="4.6"/>
						<polygon class="st4" points="376.2,75.9 385.2,75.9 376.2,71.3 						"/>
					</g>
					<g>
						<rect x="364.5" y="71.3" class="st3" width="9.1" height="4.6"/>
						<polygon class="st4" points="364.5,75.9 373.6,75.9 364.5,71.3 						"/>
					</g>
					<g>
						<rect x="352.9" y="71.3" class="st3" width="9.1" height="4.6"/>
						<polygon class="st4" points="352.9,75.9 362,75.9 352.9,71.3 						"/>
					</g>
					<g>
						<rect x="376.2" y="79.6" class="st3" width="9.1" height="4.6"/>
						<polygon class="st4" points="376.2,84.2 385.2,84.2 376.2,79.6 						"/>
					</g>
					<g>
						<rect x="352.9" y="79.6" class="st3" width="9.1" height="4.6"/>
						<polygon class="st4" points="352.9,84.2 362,84.2 352.9,79.6 						"/>
					</g>
					<g>
						<rect x="340.8" y="54.8" class="st3" width="9.1" height="4.6"/>
						<polygon class="st4" points="340.8,59.4 349.9,59.4 340.8,54.8 						"/>
					</g>
					<g>
						<rect x="329.2" y="54.8" class="st3" width="9.1" height="4.6"/>
						<polygon class="st4" points="329.2,59.4 338.3,59.4 329.2,54.8 						"/>
					</g>
					<g>
						<rect x="317.6" y="54.8" class="st3" width="9.1" height="4.6"/>
						<polygon class="st4" points="317.6,59.4 326.6,59.4 317.6,54.8 						"/>
					</g>
					<g>
						<rect x="340.8" y="71.3" class="st3" width="9.1" height="4.6"/>
						<polygon class="st4" points="340.8,75.9 349.9,75.9 340.8,71.3 						"/>
					</g>
					<g>
						<rect x="329.2" y="71.3" class="st3" width="9.1" height="4.6"/>
						<polygon class="st4" points="329.2,75.9 338.3,75.9 329.2,71.3 						"/>
					</g>
					<g>
						<rect x="317.6" y="71.3" class="st3" width="9.1" height="4.6"/>
						<polygon class="st4" points="317.6,75.9 326.6,75.9 317.6,71.3 						"/>
					</g>
					<g>
						<rect x="340.8" y="79.6" class="st3" width="9.1" height="4.6"/>
						<polygon class="st4" points="340.8,84.2 349.9,84.2 340.8,79.6 						"/>
					</g>
					<g>
						<rect x="329.2" y="79.6" class="st3" width="9.1" height="4.6"/>
						<polygon class="st4" points="329.2,84.2 338.3,84.2 329.2,79.6 						"/>
					</g>
					<g>
						<rect x="317.6" y="79.6" class="st3" width="9.1" height="4.6"/>
						<polygon class="st4" points="317.6,84.2 326.6,84.2 317.6,79.6 						"/>
					</g>
					<g>
						<g>
							<rect x="376.2" y="89" class="st3" width="9.1" height="4.6"/>
							<polygon class="st4" points="376.2,93.6 385.2,93.6 376.2,89 							"/>
						</g>
						<g>
							<rect x="364.5" y="89" class="st3" width="9.1" height="4.6"/>
							<polygon class="st4" points="364.5,93.6 373.6,93.6 364.5,89 							"/>
						</g>
						<g>
							<rect x="352.9" y="89" class="st3" width="9.1" height="4.6"/>
							<polygon class="st4" points="352.9,93.6 362,93.6 352.9,89 							"/>
						</g>
						<g>
							<rect x="376.2" y="97.2" class="st3" width="9.1" height="4.6"/>
							<polygon class="st4" points="376.2,101.9 385.2,101.9 376.2,97.2 							"/>
						</g>
						<g>
							<rect x="364.5" y="97.2" class="st3" width="9.1" height="4.6"/>
							<polygon class="st4" points="364.5,101.9 373.6,101.9 364.5,97.2 							"/>
						</g>
						<g>
							<rect x="352.9" y="97.2" class="st3" width="9.1" height="4.6"/>
							<polygon class="st4" points="352.9,101.9 362,101.9 352.9,97.2 							"/>
						</g>
						<g>
							<rect x="376.2" y="105.5" class="st3" width="9.1" height="4.6"/>
							<polygon class="st4" points="376.2,110.1 385.2,110.1 376.2,105.5 							"/>
						</g>
						<g>
							<rect x="364.5" y="105.5" class="st3" width="9.1" height="4.6"/>
							<polygon class="st4" points="364.5,110.1 373.6,110.1 364.5,105.5 							"/>
						</g>
						<g>
							<rect x="352.9" y="105.5" class="st3" width="9.1" height="4.6"/>
							<polygon class="st4" points="352.9,110.1 362,110.1 352.9,105.5 							"/>
						</g>
						<g>
							<rect x="376.2" y="113.8" class="st3" width="9.1" height="4.6"/>
							<polygon class="st4" points="376.2,118.4 385.2,118.4 376.2,113.8 							"/>
						</g>
						<g>
							<rect x="364.5" y="113.8" class="st3" width="9.1" height="4.6"/>
							<polygon class="st4" points="364.5,118.4 373.6,118.4 364.5,113.8 							"/>
						</g>
						<g>
							<rect x="352.9" y="113.8" class="st3" width="9.1" height="4.6"/>
							<polygon class="st4" points="352.9,118.4 362,118.4 352.9,113.8 							"/>
						</g>
					</g>
					<g>
						<g>
							<rect x="340.8" y="89" class="st3" width="9.1" height="4.6"/>
							<polygon class="st4" points="340.8,93.6 349.9,93.6 340.8,89 							"/>
						</g>
						<g>
							<rect x="329.2" y="89" class="st3" width="9.1" height="4.6"/>
							<polygon class="st4" points="329.2,93.6 338.3,93.6 329.2,89 							"/>
						</g>
						<g>
							<rect x="317.6" y="89" class="st3" width="9.1" height="4.6"/>
							<polygon class="st4" points="317.6,93.6 326.6,93.6 317.6,89 							"/>
						</g>
						<g>
							<rect x="340.8" y="97.2" class="st3" width="9.1" height="4.6"/>
							<polygon class="st4" points="340.8,101.9 349.9,101.9 340.8,97.2 							"/>
						</g>
						<g>
							<rect x="329.2" y="97.2" class="st3" width="9.1" height="4.6"/>
							<polygon class="st4" points="329.2,101.9 338.3,101.9 329.2,97.2 							"/>
						</g>
						<g>
							<rect x="317.6" y="97.2" class="st3" width="9.1" height="4.6"/>
							<polygon class="st4" points="317.6,101.9 326.6,101.9 317.6,97.2 							"/>
						</g>
						<g>
							<rect x="340.8" y="105.5" class="st3" width="9.1" height="4.6"/>
							<polygon class="st4" points="340.8,110.1 349.9,110.1 340.8,105.5 							"/>
						</g>
						<g>
							<rect x="329.2" y="105.5" class="st3" width="9.1" height="4.6"/>
							<polygon class="st4" points="329.2,110.1 338.3,110.1 329.2,105.5 							"/>
						</g>
						<g>
							<rect x="317.6" y="105.5" class="st3" width="9.1" height="4.6"/>
							<polygon class="st4" points="317.6,110.1 326.6,110.1 317.6,105.5 							"/>
						</g>
						<g>
							<rect x="340.8" y="113.8" class="st3" width="9.1" height="4.6"/>
							<polygon class="st4" points="340.8,118.4 349.9,118.4 340.8,113.8 							"/>
						</g>
						<g>
							<rect x="329.2" y="113.8" class="st3" width="9.1" height="4.6"/>
							<polygon class="st4" points="329.2,118.4 338.3,118.4 329.2,113.8 							"/>
						</g>
						<g>
							<rect x="317.6" y="113.8" class="st3" width="9.1" height="4.6"/>
							<polygon class="st4" points="317.6,118.4 326.6,118.4 317.6,113.8 							"/>
						</g>
					</g>
					<g>
						<g>
							<rect x="376.2" y="123.2" class="st3" width="9.1" height="4.6"/>
							<polygon class="st4" points="376.2,127.8 385.2,127.8 376.2,123.2 							"/>
						</g>
						<g>
							<rect x="364.5" y="123.2" class="st3" width="9.1" height="4.6"/>
							<polygon class="st4" points="364.5,127.8 373.6,127.8 364.5,123.2 							"/>
						</g>
						<g>
							<rect x="352.9" y="123.2" class="st3" width="9.1" height="4.6"/>
							<polygon class="st4" points="352.9,127.8 362,127.8 352.9,123.2 							"/>
						</g>
						<g>
							<rect x="376.2" y="131.4" class="st3" width="9.1" height="4.6"/>
							<polygon class="st4" points="376.2,136 385.2,136 376.2,131.4 							"/>
						</g>
						<g>
							<rect x="364.5" y="131.4" class="st3" width="9.1" height="4.6"/>
							<polygon class="st4" points="364.5,136 373.6,136 364.5,131.4 							"/>
						</g>
						<g>
							<rect x="352.9" y="131.4" class="st3" width="9.1" height="4.6"/>
							<polygon class="st4" points="352.9,136 362,136 352.9,131.4 							"/>
						</g>
						<g>
							<rect x="376.2" y="139.7" class="st3" width="9.1" height="4.6"/>
							<polygon class="st4" points="376.2,144.3 385.2,144.3 376.2,139.7 							"/>
						</g>
						<g>
							<rect x="364.5" y="139.7" class="st3" width="9.1" height="4.6"/>
							<polygon class="st4" points="364.5,144.3 373.6,144.3 364.5,139.7 							"/>
						</g>
						<g>
							<rect x="352.9" y="139.7" class="st3" width="9.1" height="4.6"/>
							<polygon class="st4" points="352.9,144.3 362,144.3 352.9,139.7 							"/>
						</g>
						<g>
							<rect x="376.2" y="148" class="st3" width="9.1" height="4.6"/>
							<polygon class="st4" points="376.2,152.6 385.2,152.6 376.2,148 							"/>
						</g>
						<g>
							<rect x="364.5" y="148" class="st3" width="9.1" height="4.6"/>
							<polygon class="st4" points="364.5,152.6 373.6,152.6 364.5,148 							"/>
						</g>
						<g>
							<rect x="352.9" y="148" class="st3" width="9.1" height="4.6"/>
							<polygon class="st4" points="352.9,152.6 362,152.6 352.9,148 							"/>
						</g>
					</g>
					<g>
						<g>
							<rect x="340.8" y="123.2" class="st3" width="9.1" height="4.6"/>
							<polygon class="st4" points="340.8,127.8 349.9,127.8 340.8,123.2 							"/>
						</g>
						<g>
							<rect x="329.2" y="123.2" class="st3" width="9.1" height="4.6"/>
							<polygon class="st4" points="329.2,127.8 338.3,127.8 329.2,123.2 							"/>
						</g>
						<g>
							<rect x="317.6" y="123.2" class="st3" width="9.1" height="4.6"/>
							<polygon class="st4" points="317.6,127.8 326.6,127.8 317.6,123.2 							"/>
						</g>
						<g>
							<rect x="340.8" y="131.4" class="st3" width="9.1" height="4.6"/>
							<polygon class="st4" points="340.8,136 349.9,136 340.8,131.4 							"/>
						</g>
						<g>
							<rect x="329.2" y="131.4" class="st3" width="9.1" height="4.6"/>
							<polygon class="st4" points="329.2,136 338.3,136 329.2,131.4 							"/>
						</g>
						<g>
							<rect x="317.6" y="131.4" class="st3" width="9.1" height="4.6"/>
							<polygon class="st4" points="317.6,136 326.6,136 317.6,131.4 							"/>
						</g>
						<g>
							<rect x="340.8" y="139.7" class="st3" width="9.1" height="4.6"/>
							<polygon class="st4" points="340.8,144.3 349.9,144.3 340.8,139.7 							"/>
						</g>
						<g>
							<rect x="329.2" y="139.7" class="st3" width="9.1" height="4.6"/>
							<polygon class="st4" points="329.2,144.3 338.3,144.3 329.2,139.7 							"/>
						</g>
						<g>
							<rect x="317.6" y="139.7" class="st3" width="9.1" height="4.6"/>
							<polygon class="st4" points="317.6,144.3 326.6,144.3 317.6,139.7 							"/>
						</g>
						<g>
							<rect x="340.8" y="148" class="st3" width="9.1" height="4.6"/>
							<polygon class="st4" points="340.8,152.6 349.9,152.6 340.8,148 							"/>
						</g>
						<g>
							<rect x="329.2" y="148" class="st3" width="9.1" height="4.6"/>
							<polygon class="st4" points="329.2,152.6 338.3,152.6 329.2,148 							"/>
						</g>
						<g>
							<rect x="317.6" y="148" class="st3" width="9.1" height="4.6"/>
							<polygon class="st4" points="317.6,152.6 326.6,152.6 317.6,148 							"/>
						</g>
					</g>
				</g>
			</g>
			<g>
				<g>
					<g>
						<path class="st23" d="M375.7,180.1c0,0-3-7.7,5.8-10.5c8.7,2.8,5.8,10.5,5.8,10.5"/>
					</g>
					<g class="st24">
						<path class="st25" d="M387.2,180.1c0,0,3-7.7-5.8-10.5v10.5"/>
					</g>
				</g>
				<g>
					<g>
						<path class="st23" d="M314.5,180.1c0,0-3-7.7,5.8-10.5c8.7,2.8,5.8,10.5,5.8,10.5"/>
					</g>
					<g class="st24">
						<path class="st25" d="M326,180.1c0,0,3-7.7-5.8-10.5v10.5"/>
					</g>
				</g>
			</g>
		</g>
		<g>
			<g>
				<rect x="4.8" y="136.4" class="st5" width="55" height="40.8"/>
				<g>
					<path class="st26" d="M61.5,135.1v3.2c0,1.5-1.2,2.7-2.7,2.7s-2.7-1.2-2.7-2.7v-3.2H61.5z"/>
					<path class="st27" d="M56.2,135.1v3.2c0,1.5-1.2,2.7-2.7,2.7s-2.7-1.2-2.7-2.7v-3.2H56.2z"/>
					<path class="st26" d="M50.9,135.1v3.2c0,1.5-1.2,2.7-2.7,2.7s-2.7-1.2-2.7-2.7v-3.2H50.9z"/>
					<path class="st27" d="M45.6,135.1v3.2c0,1.5-1.2,2.7-2.7,2.7s-2.7-1.2-2.7-2.7v-3.2H45.6z"/>
					<path class="st26" d="M40.3,135.1v3.2c0,1.5-1.2,2.7-2.7,2.7s-2.7-1.2-2.7-2.7v-3.2H40.3z"/>
					<path class="st27" d="M35,135.1v3.2c0,1.5-1.2,2.7-2.7,2.7s-2.7-1.2-2.7-2.7v-3.2H35z"/>
					<path class="st26" d="M29.6,135.1v3.2c0,1.5-1.2,2.7-2.7,2.7s-2.7-1.2-2.7-2.7v-3.2H29.6z"/>
					<path class="st27" d="M24.3,135.1v3.2c0,1.5-1.2,2.7-2.7,2.7s-2.7-1.2-2.7-2.7v-3.2H24.3z"/>
					<path class="st26" d="M19,135.1v3.2c0,1.5-1.2,2.7-2.6,2.7c-1.5,0-2.7-1.2-2.7-2.7v-3.2H19z"/>
					<path class="st27" d="M13.7,135.1v3.2c0,1.5-1.2,2.7-2.7,2.7s-2.7-1.2-2.7-2.7v-3.2H13.7z"/>
					<path class="st26" d="M8.4,135.1v3.2c0,1.5-1.2,2.7-2.7,2.7S3,139.8,3,138.3v-3.2H8.4z"/>
					<polygon class="st5" points="54.8,125.2 61.5,135.1 56.2,135.1 50.4,125.2 					"/>
					<polygon class="st28" points="50.4,125.2 56.2,135.1 50.9,135.1 46.2,125.2 					"/>
					<polygon class="st5" points="46.5,125.2 50.9,135.1 45.6,135.1 41.9,125.2 					"/>
					<polygon class="st28" points="41.9,125.2 45.6,135.1 40.3,135.1 38.4,125.2 					"/>
					<polygon class="st5" points="38.4,125.2 40.3,135.1 35,135.1 34.5,125.2 					"/>
					<polygon class="st28" points="34.5,125.2 35,135.1 29.6,135.1 30.4,125.2 					"/>
					<polygon class="st5" points="30.4,125.2 29.6,135.1 24.3,135.1 26.4,125.2 					"/>
					<polygon class="st28" points="26.4,125.2 24.3,135.1 19,135.1 22.3,125.2 					"/>
					<polygon class="st5" points="22.7,125.2 19,135.1 13.7,135.1 18.2,125.2 					"/>
					<polygon class="st28" points="18.2,125.2 13.7,135.1 8.4,135.1 13.5,125.2 					"/>
					<polygon class="st5" points="13.5,125.2 8.4,135.1 3.1,135.1 8.6,125.2 					"/>
				</g>
				<rect x="8.3" y="154.1" class="st29" width="14.6" height="23.1"/>
				<rect y="176.8" class="st30" width="64.6" height="3.3"/>
				<rect x="23.3" y="173.4" class="st30" width="36.5" height="1.6"/>
				<g>
					<path class="st13" d="M16.6,148.2v-4.9c3.4,0.1,6.8,1.1,6.8,3v2h-6.8C16.6,148.3,16.6,148.2,16.6,148.2z"/>
					<path class="st13" d="M14.6,148.2H7.9v-2c0-1.9,3.3-2.8,6.8-3v5H14.6z"/>
					<rect x="7.9" y="149" class="st13" width="6.8" height="3.4"/>
					<rect x="16.6" y="149" class="st13" width="6.8" height="3.4"/>
				</g>
				<circle class="st27" cx="20.8" cy="165.3" r="0.7"/>
			</g>
			<g>
				<g>
					<rect x="31.4" y="147.6" class="st12" width="26.3" height="23.2"/>
					<polygon class="st13" points="31.4,170.8 57.7,170.8 31.4,147.6 					"/>
				</g>
			</g>
		</g>
	</g>
	<g class="st31">
		<path class="st32" d="M58.7,16.6h5.2c1,0,1.8-0.8,1.8-1.8S64.9,13,63.9,13H64c-3.1,0-5.7-2.6-5.7-5.7s2.6-5.7,5.7-5.7h35.7
			c3.1,0,5.7,2.6,5.7,5.7s-2.6,5.7-5.7,5.7h-0.9c-1,0-1.8,0.8-1.8,1.8s0.8,1.8,1.8,1.8h22.3c3.7,0,6.6,2.8,6.6,6.3s-3,6.3-6.6,6.3
			H58.7c-3.7,0-6.6-2.8-6.6-6.3C52.1,19.5,55.1,16.6,58.7,16.6z"/>
		<path class="st32" d="M292.6,9.9c0,3.1,2.5,5.5,5.5,5.5H332c3.1,0,5.5-2.5,5.5-5.5l0,0c0-3.1-2.5-5.5-5.5-5.5h-33.9
			C295,4.4,292.6,6.8,292.6,9.9L292.6,9.9z"/>
		<path class="st32" d="M406.6,24.7h21.9c1,0,1.8-0.8,1.8-1.8s-0.8-1.8-1.8-1.8h-0.8c-3.1,0-5.6-2.5-5.6-5.6s2.5-5.6,5.6-5.6h34.9
			c3.1,0,5.6,2.5,5.6,5.6s-2.5,5.6-5.6,5.6h0.1c-1,0-1.8,0.8-1.8,1.8s0.8,1.8,1.8,1.8h5.2c3.6,0,6.5,2.8,6.5,6.2s-2.9,6.2-6.5,6.2
			h-61.3c-3.6,0-6.5-2.8-6.5-6.2C400.1,27.4,403,24.7,406.6,24.7z"/>
		<path class="st32" d="M28.7,76.6h17.8c0.8,0,1.5-0.7,1.5-1.5s-0.7-1.5-1.5-1.5h-0.7c-2.5,0-4.5-2-4.5-4.5s2-4.5,4.5-4.5h28.3
			c2.5,0,4.5,2,4.5,4.5s-2,4.5-4.5,4.5h0.1c-0.8,0-1.5,0.7-1.5,1.5s0.7,1.5,1.5,1.5h4.2c2.9,0,5.3,2.2,5.3,5s-2.4,5-5.3,5H28.7
			c-2.9,0-5.3-2.2-5.3-5C23.5,78.9,25.8,76.6,28.7,76.6z"/>
		<path class="st32" d="M215.2,45.6H233c0.8,0,1.5-0.7,1.5-1.5s-0.7-1.5-1.5-1.5h-0.7c-2.5,0-4.5-2-4.5-4.5s2-4.5,4.5-4.5h28.3
			c2.5,0,4.5,2,4.5,4.5s-2,4.5-4.5,4.5h0.1c-0.8,0-1.5,0.7-1.5,1.5s0.7,1.5,1.5,1.5h4.2c2.9,0,5.3,2.2,5.3,5s-2.4,5-5.3,5h-49.7
			c-2.9,0-5.3-2.2-5.3-5C209.9,47.8,212.3,45.6,215.2,45.6z"/>
	</g>
	<g>
		<g>
			<rect x="400.4" y="170.6" class="st33" width="2.1" height="11.5"/>
			<path class="st23" d="M393.3,152.2c0-4.5,3.7-8.2,8.2-8.2s8.2,3.7,8.2,8.2v12.2c0,4.5-3.7,8.2-8.2,8.2s-8.2-3.7-8.2-8.2V152.2z"
				/>
			<path class="st34" d="M409.7,152.2v12.2c0,4.5-3.7,8.2-8.2,8.2V144C406,144,409.7,147.7,409.7,152.2z"/>
		</g>
		<g>
			<rect x="207.4" y="171.8" class="st33" width="2.1" height="11.5"/>
			<path class="st23" d="M200.2,153.4c0-4.5,3.7-8.2,8.2-8.2s8.2,3.7,8.2,8.2v12.2c0,4.5-3.7,8.2-8.2,8.2s-8.2-3.7-8.2-8.2V153.4z"
				/>
			<path class="st34" d="M216.6,153.4v12.2c0,4.5-3.7,8.2-8.2,8.2v-28.6C213,145.2,216.6,148.9,216.6,153.4z"/>
		</g>
		<g>
			<rect x="73.4" y="171.8" class="st33" width="2.1" height="11.5"/>
			<path class="st23" d="M66.2,153.4c0-4.5,3.7-8.2,8.2-8.2s8.2,3.7,8.2,8.2v12.2c0,4.5-3.7,8.2-8.2,8.2s-8.2-3.7-8.2-8.2V153.4z"/>
			<path class="st34" d="M82.6,153.4v12.2c0,4.5-3.7,8.2-8.2,8.2v-28.6C79,145.2,82.6,148.9,82.6,153.4z"/>
		</g>
	</g>
	<g class="st31">
		<g class="st35">
			<path class="st36" d="M390.7,196.9c0,0.4-0.3,0.8-0.8,0.8h-0.5c-0.4,0-0.8-0.3-0.8-0.8v-2.5c0-0.4,0.3-0.8,0.8-0.8h0.5
				c0.4,0,0.8,0.3,0.8,0.8V196.9z"/>
			<path class="st37" d="M443.5,194.5c0.1,0.6-0.2,1.1-0.8,1.3l-1,0.3c-0.6,0.1-1.1-0.2-1.3-0.8l0,0c-0.1-0.6,0.2-1.1,0.8-1.3l1-0.3
				C442.7,193.6,443.3,194,443.5,194.5L443.5,194.5z"/>
			<path class="st3" d="M428.8,182.6c-3.8,0-13.6,0-13.6,0c-4.8,0-8.6,5-10,7h-10.7c-2.3,0-5.7,1.6-5.7,3.9v5.1h15.8h22.5h4.2h12.2
				C439.8,180.6,429.9,182.6,428.8,182.6z"/>
			<path class="st38" d="M444.7,196.7c0,0.5-0.4,0.9-0.9,0.9h-53.2c-0.5,0-0.9-0.4-0.9-0.9v-0.2c0-0.5,0.4-0.9,0.9-0.9h53.2
				c0.5,0,0.9,0.4,0.9,0.9V196.7z"/>
			<g>
				<circle class="st39" cx="400.1" cy="198.5" r="4.6"/>
				<circle class="st38" cx="400.1" cy="198.5" r="3.1"/>
				<circle class="st40" cx="400.1" cy="198.5" r="2.3"/>
			</g>
			<g>
				<circle class="st39" cx="433.8" cy="198.5" r="4.6"/>
				<circle class="st38" cx="433.8" cy="198.5" r="3.1"/>
				<circle class="st40" cx="433.8" cy="198.5" r="2.3"/>
			</g>
			<path class="st41" d="M407,189.6h30.5c0,0-3.2-5.4-8.7-5.4c0,0-10.1,0-13.8,0C413.3,184.2,410.3,185.6,407,189.6z"/>
			<rect x="419.7" y="183.6" class="st3" width="2" height="6"/>
			<path class="st4" d="M419.7,191.6c0,0.5-0.4,1-1,1h-2c-0.5,0-1-0.4-1-1l0,0c0-0.5,0.4-1,1-1h2
				C419.3,190.6,419.7,191.1,419.7,191.6L419.7,191.6z"/>
			<path class="st4" d="M421.7,192.3c0-0.4,0.2-1.6,0.5-1.6h2.4c0.4,0,0,1.3,0,1.6v0.5c0,0.4,0.3-0.1,0-0.1h-2.4
				c-0.4,0-0.5,0.5-0.5,0.1V192.3z"/>
			<path class="st4" d="M410.7,188.4c0-0.4,0-0.8-0.4-0.8l-4.1,0.4c-0.4,0-1.5,0.4-1.5,0.8v1.3c0,0.4,1.2,0.7,1.7,0.7l3.4-0.4
				c0.4,0,0.9-0.3,0.9-0.7V188.4z"/>
		</g>
		<g class="st35">
			<path class="st36" d="M63.7,191.4c0-0.4,0.7-0.8,1.1-0.8h0.5c0.4,0,0.4,0.3,0.4,0.8v2.5c0,0.4,0,0.8-0.4,0.8h-0.5
				c-0.4,0-1.1-0.3-1.1-0.8C63.7,193.9,63.7,191.4,63.7,191.4z"/>
			<path class="st37" d="M120.1,192.3c0.1,0.6-0.2,1.1-0.8,1.3l-1,0.3c-0.6,0.1-1.1-0.2-1.3-0.8l0,0c-0.1-0.6,0.2-1.1,0.8-1.3l1-0.3
				C119.4,191.4,119.9,191.7,120.1,192.3L120.1,192.3z"/>
			<path class="st42" d="M105.4,179.6c-3.8,0-13.6,0-13.6,0c-4.8,0-8.6,6-10,8H71c-2.3,0-6.3,1.3-6.3,3.6v4.4h16.5h22.5h4.2h12.2
				C116.4,179.6,106.5,179.6,105.4,179.6z"/>
			<path class="st38" d="M65.7,194.5c0-0.5,0.7-0.9,1.2-0.9h53.2c0.5,0,0.6,0.4,0.6,0.9v0.2c0,0.5-0.1,0.9-0.6,0.9H66.9
				c-0.5,0-1.2-0.4-1.2-0.9C65.7,194.7,65.7,194.5,65.7,194.5z"/>
			<g>
				<circle class="st39" cx="76.8" cy="196.2" r="4.6"/>
				<circle class="st38" cx="76.8" cy="196.2" r="3.1"/>
				<circle class="st40" cx="76.8" cy="196.2" r="2.3"/>
			</g>
			<g>
				<circle class="st39" cx="110.5" cy="196.2" r="4.6"/>
				<circle class="st38" cx="110.5" cy="196.2" r="3.1"/>
				<circle class="st40" cx="110.5" cy="196.2" r="2.3"/>
			</g>
			<path class="st41" d="M83.6,187.6h30.5c0,0-3.2-5.5-8.7-5.5c0,0-10.1,0-13.8,0C90,182.1,86.9,183.6,83.6,187.6z"/>
			<rect x="95.7" y="180.6" class="st42" width="3" height="7"/>
			<path class="st43" d="M91.7,189.9c0-0.4,1.3-1.3,1.7-1.3h2.5c0.4,0-0.2,0.9-0.2,1.3v0.5c0,0.4,0.6,0.2,0.2,0.2h-2.5
				c-0.4,0-1.7,0.2-1.7-0.2V189.9z"/>
			<path class="st43" d="M97.7,189.9c0-0.4,1.2-1.3,1.5-1.3h2.5c0.4,0,0,0.9,0,1.3v0.5c0,0.4,0.4,0.2,0,0.2h-2.5
				c-0.4,0-1.5,0.2-1.5-0.2V189.9z"/>
			<path class="st43" d="M88.7,186.1c0-0.4-0.6-0.8-1.1-0.8l-3.8,0.4c-0.4,0-1.1,0.4-1.1,0.8v1.3c0,0.4,0.6,0.7,1,0.7l3.8-0.4
				c0.4,0,1.2-0.3,1.2-0.7V186.1z"/>
		</g>
		<g class="st35">
			<g>
				<path class="st44" d="M251.1,185.7c0,0-0.4-3-2.7-3s-18.8,0-20.1,0c-0.9,0-1.5-0.2-2.8,1.4c-1.7,2.2-3.9,4.6-3.9,4.6
					s-8.6,1.1-11.1,2.2c-1.7,0.8-2,3-2,5c0,2.9,2.1,2.7,2.1,2.7s29.1,0,39,0c0.9,0,2.7,0.2,2.7-1.6
					C252.3,195.2,251.1,185.7,251.1,185.7z"/>
				<g>
					<path class="st45" d="M252.3,196.1c0,1.8-1.9,2.6-2.7,2.6c-9.9,0-39,0-39,0s-2,0-2.1-4h43.8
						C252.2,195.6,252.3,195.9,252.3,196.1z"/>
				</g>
				<path class="st39" d="M221.5,188.6l4-5h13c0.2,0,0.2,0.1,0.2,0.3v4.3c0,0.2-0.1,0.3-0.3,0.3L221.5,188.6z"/>
				<path class="st39" d="M240.5,183.6h7.4c0.9,0,1.6,0.7,1.6,1.6l0.3,3c0,0.2-0.1,0.4-0.3,0.4h-9c-0.2,0-0.8-0.2-0.8-0.3V184
					C239.7,183.8,240.3,183.6,240.5,183.6z"/>
				<path class="st39" d="M238.7,189c0-0.2-0.2-0.4-0.4-0.4H235c-0.2,0-0.4,0.2-0.4,0.4v0.3c0,0.2,0.2,0.4,0.4,0.4h3.3
					c0.2,0,0.4-0.2,0.4-0.4V189z"/>
				<path class="st39" d="M250.7,192.9c0,0.9,0.9,0.7,1.9,0.7h0.3c1,0,0.8,0.2,0.8-0.7v-4.5c0-0.9,0.1-1.7-0.8-1.7h-0.3
					c-1,0-1.9,0.8-1.9,1.7V192.9z"/>
				<path class="st39" d="M248.7,198.6c0-4-2.6-5.9-5.9-5.9c-3.3,0-5.9,1.9-5.9,5.9H248.7z"/>
				<path class="st39" d="M224.4,198.6c0-4-2.6-5.9-5.9-5.9c-3.3,0-5.9,1.9-5.9,5.9H224.4z"/>
				<circle class="st39" cx="242.8" cy="199.3" r="4.4"/>
				<circle class="st40" cx="242.8" cy="199.3" r="3.4"/>
				<circle class="st39" cx="218.5" cy="199.3" r="4.4"/>
				<circle class="st40" cx="218.5" cy="199.3" r="3.4"/>
				<g>
					<path class="st36" d="M209.6,190.6c0.7,0,1.1,2,1.1,2.8v0.1c0,0.8-0.4,1-1.1,1h-1.1c0.1-1,0.3-1,0.8-4L209.6,190.6L209.6,190.6
						z"/>
				</g>
			</g>
			<rect x="225.7" y="183.6" class="st44" width="1" height="5"/>
			<path class="st45" d="M229.7,187.9c0-0.1-0.1-0.3-0.3-0.3h-3.5c-0.1,0-0.3,0.1-0.3,0.3v0.5c0,0.1,0.1,0.3,0.3,0.3h3.5
				c0.1,0,0.3-0.1,0.3-0.3V187.9z"/>
		</g>
		<g class="st35">
			<path class="st46" d="M183.3,180.6h-5.2c-9.2,0-11,4.7-14.5,7c-2.5,1.6-4.6,1.7-6,2.1c-2,0.5-3.1,1.7-3.6,2.7s-0.7,3.3-0.7,4.4
				c0,1.3,0.9,1.8,1.7,1.8h38.8c0.8,0,1.2-1,1.3-1.8c0.1-1.3,0.3-3.7,0-5C194.2,187.5,190.8,180.6,183.3,180.6z"/>
			<g>
				<path class="st38" d="M153.3,196.8c0-0.1,0-0.3,0-0.5l41.8-0.6c0,0.4-0.1,0.8-0.1,1.1c-0.1,0.8-0.5,1.8-1.3,1.8h-38.8
					C154.2,198.6,153.3,198.1,153.3,196.8z"/>
			</g>
			<path class="st47" d="M191.8,198.6c0-4-2.5-5.6-5.6-5.6s-5.6,1.6-5.6,5.6H191.8z"/>
			<circle class="st39" cx="186.3" cy="198.7" r="4.4"/>
			<circle class="st38" cx="186.3" cy="198.7" r="2.9"/>
			<path class="st47" d="M168.3,198.6c0-4-2.5-5.6-5.6-5.6s-5.6,1.6-5.6,5.6H168.3z"/>
			<circle class="st39" cx="162.8" cy="198.7" r="4.4"/>
			<circle class="st38" cx="162.8" cy="198.7" r="2.9"/>
			<g>
				<path class="st37" d="M195.6,192.8c0.4,0.1,1.1,0.5,1.1,1v0.1c0,0.5-0.5,0.9-0.9,1C195.8,194.2,195.6,193.5,195.6,192.8z"/>
				<path class="st36" d="M155.8,191.1c0.5,0.3,0.7,0.9,0.4,1.5l-0.4,0.8c-0.3,0.5-0.9,0.7-1.5,0.4l-0.1-0.1
					c-0.2-0.1-0.4-0.3-0.5-0.5c0.1-0.3,0.2-0.6,0.3-0.8c0.2-0.5,0.6-1,1.2-1.5c0.2,0,0.3,0,0.5,0.1L155.8,191.1z"/>
			</g>
			<path class="st41" d="M173.7,181.7c0,0-5.3,0.9-8.5,6.9h8.5V181.7z"/>
			<rect x="174.7" y="182.6" class="st41" width="9" height="6"/>
			<path class="st41" d="M184.7,181.7v6.9c0,0,4.3,0,6.8,0C194.1,188.6,189.7,181.9,184.7,181.7z"/>
			<path class="st39" d="M173,189.9c0,0.2,0.2,0.3,0.3,0.3h1.2c0.2,0,0.3-0.2,0.3-0.3v-0.2c0-0.2-0.2-0.3-0.3-0.3h-1.2
				c-0.2,0-0.3,0.2-0.3,0.3V189.9z"/>
			<path class="st39" d="M182.4,189.9c0,0.2,0.2,0.3,0.3,0.3h1.2c0.2,0,0.3-0.2,0.3-0.3v-0.2c0-0.2-0.2-0.3-0.3-0.3h-1.2
				c-0.2,0-0.3,0.2-0.3,0.3V189.9z"/>
			<path class="st47" d="M163.7,188.1c0-0.2,1.1-0.5,1.3-0.5h3.1c0.2,0-1.4,0.3-1.4,0.5v1.3c0,0.2,1.6,0.3,1.4,0.3H165
				c-0.2,0-1.3-0.1-1.3-0.3V188.1z"/>
		</g>
		<g class="st35">
			<path class="st48" d="M368.4,179.6c-6.2,0-18.9,0-24.9,0c-3.8,0-6.6,8-8.7,8c-1.5,0-5.4,0-5.4,0c-2.8,0-4.7,3-4.7,5.8
				c0,0.7,0,3.3,0,3.3c0,1,0.4-0.1,1.4-0.1h3.3h45.8c1,0,1.5,1.1,1.5,0.1c0,0,0-5.5,0-7.7C376.7,184.9,371.4,179.6,368.4,179.6z"/>
			<path class="st37" d="M376.7,192.1c0,0-1-0.1-1,1.1v0.7c0,0.8,0,0.9,1,0.9l0,0V192.1L376.7,192.1z"/>
			<g>
				<path class="st36" d="M327.7,191.8v-2c0-0.1-0.5-0.3-0.5-0.4c-1.2,0.9-2.5,2.4-2.5,4c0,0.3,0-0.4,0,0.2c0,0,0.6,0,0.7,0
					C326.4,193.7,327.7,192.8,327.7,191.8z"/>
			</g>
			<path class="st41" d="M362.7,188.4c0,0.7-0.5,1.2-1.2,1.2H352c-0.7,0-1.2-0.5-1.2-1.2v-4.6c0-0.7,0.5-1.2,1.2-1.2h9.5
				c0.7,0,1.2,0.5,1.2,1.2V188.4z"/>
			<path class="st41" d="M375.3,187.9c0.2,0.7-0.5,0.8-1.2,0.8h-8.2c-0.7,0-2.2-0.4-2.2-1.1V183c0-0.7,1.6-0.4,2.2-0.4
				c0,0,2.2,0,3.3,0C371.8,182.6,374.9,186,375.3,187.9z"/>
			<path class="st41" d="M348.7,187.5c0,0.7,1.2,1.1,0.5,1.1h-9.4c-0.7,0-1.2,0-1.2-0.8c0-2.1,3.1-5.2,5.3-5.2h5.3
				c0.7,0-0.5-0.3-0.5,0.4L348.7,187.5L348.7,187.5z"/>
			<g>
				<path class="st49" d="M326.1,196.6h3.3h45.8c1,0,1.5,1.1,1.5,0.1c0,0,0-1.1,0-2.1h-52c0,1,0,2.1,0,2.1
					C324.7,197.8,325.1,196.6,326.1,196.6z"/>
			</g>
			<g>
				<path class="st49" d="M327.7,196.6c0-2,2.3-5.2,5.2-5.2c2.9,0,5.2,3.2,5.2,5.2H327.7z"/>
				<circle class="st39" cx="332.8" cy="198.8" r="4.1"/>
				<circle class="st38" cx="332.8" cy="198.8" r="2.7"/>
			</g>
			<g>
				<path class="st49" d="M361.6,196.6c0-2,2.3-5.2,5.2-5.2c2.9,0,5.2,3.2,5.2,5.2H361.6z"/>
				<circle class="st39" cx="366.7" cy="198.8" r="4.1"/>
				<circle class="st38" cx="366.7" cy="198.8" r="2.7"/>
			</g>
			<path class="st39" d="M350.4,190.1c0,0.2-0.2,0.5-0.4,0.5h-2.9c-0.2,0-0.4-0.3-0.4-0.5l0,0c0-0.2,0.2-0.5,0.4-0.5h2.9
				C350.2,189.6,350.4,189.9,350.4,190.1L350.4,190.1z"/>
			<path class="st39" d="M361.7,190.2c0,0.2-0.2,0.4-0.4,0.4h-3.2c-0.2,0-0.4-0.2-0.4-0.4V190c0-0.2,0.2-0.4,0.4-0.4h3.2
				c0.2,0,0.4,0.2,0.4,0.4V190.2z"/>
			<path class="st49" d="M337.7,187.6c0-0.5,0.7-0.8,1.1-0.8h3.2c0.5,0,0.6,0.4,0.6,0.8v1.2c0,0.5,0,0.8-0.5,0.8h-3.5
				c-0.5,0-1-0.3-1-0.8L337.7,187.6L337.7,187.6z"/>
		</g>
	</g>
</g>
</svg>
