<?xml version="1.0" encoding="utf-8"?>
<!-- Generator: Adobe Illustrator 21.0.1, SVG Export Plug-In . SVG Version: 6.00 Build 0)  -->
<svg version="1.1" id="objects" xmlns="http://www.w3.org/2000/svg" xmlns:xlink="http://www.w3.org/1999/xlink" x="0px" y="0px"
	 viewBox="0 0 321.2 138.3" style="enable-background:new 0 0 321.2 138.3;" xml:space="preserve">
<style type="text/css">
	.st0{fill:#C3D32A;}
	.st1{fill:#B3BA27;}
	.st2{fill:#D8C58B;}
	.st3{fill:#E2D6B7;}
	.st4{fill:#CCBFA2;}
	.st5{fill:#B2A16F;}
	.st6{fill:#8C372F;}
	.st7{fill:#602724;}
	.st8{fill:#CEB87C;}
	.st9{fill:#C6AF6F;}
	.st10{fill:#80746F;}
	.st11{fill:#AF9658;}
	.st12{fill:#2C555B;}
	.st13{fill:none;}
	.st14{fill:#75A9AB;}
	.st15{fill:#9E8B5E;}
	.st16{fill:#6B615D;}
	.st17{fill:#AF9C97;}
	.st18{fill:#C1ACA4;}
	.st19{fill:#F8F2DC;}
	.st20{fill:#1D4144;}
	.st21{fill:#E8E1CA;}
	.st22{fill:#244447;}
	.st23{fill:#D1CAB6;}
	.st24{fill:#527022;}
	.st25{fill:#659624;}
	.st26{fill:#81A549;}
	.st27{fill:#8ABC3B;}
	.st28{opacity:0.51;fill:none;stroke:#D8C58B;stroke-miterlimit:10;enable-background:new    ;}
</style>
<g>
	<g>
		<path class="st0" d="M310.7,114.1c-0.8,0-1.6,0.1-2.3,0.3c-1-8.1-8.5-14.4-17.6-14.4c-4.1,0-7.9,1.3-11,3.5
			c-2.6-3-6.4-4.9-10.6-4.9c-2,0-4,0.4-5.7,1.2c-2.6-4-7.2-6.6-12.5-6.6c-3.9,0-7.4,1.5-10.1,3.8c-1.1-0.3-2.3-0.4-3.5-0.4
			c-7.6,0-13.7,6-14.3,13.7c-2.8,1-5.2,3.1-6.8,6c-0.7-1.3-1.9-2.2-3.1-3c-5.7-3.7-13.6-3.5-19.3,0.2s-9.1,10.6-8.9,17.4
			c0.1,1.7,0.3,3.5,0.8,5.1h4.7h12.6l115.8,0.8c1.4-2.1,2.3-7.2,2.3-10.1C321.1,119.7,316.5,114.1,310.7,114.1z"/>
		<path class="st1" d="M311.4,135.2c0-0.1,0-0.2,0-0.3c0-2.3-0.5-4.5-1.4-6.4l-0.2-1.7c0,0.5,0.1,1.1,0.2,1.6
			c-2.6-5.8-8.5-9.8-15.3-9.8c-2.7,0-5.3,0.6-7.5,1.8c-3.1-8.9-11.7-15.3-21.9-15.4c-2.3,0-4.4,0.3-6.5,0.9
			c-5.2-9-15.1-15.1-26.5-15.1c-13.1,0-24.3,8-28.6,19.2c-3.4-2.3-7.4-3.6-11.8-3.6c-11.9,0-21.7,9.8-21.7,22c0,1.3,0.1,2.6,0.3,3.9
			c0,1.6,0.5,3.1,1.2,4.5l0,0l0,0h34.9h3h2.1h9.6h22.5h13.8h10h1.6h8.8h8.4h4.7h7.3h12.8h0.1C311.4,136.3,311.4,135.8,311.4,135.2z"
			/>
	</g>
	<g>
		<polygon class="st2" points="238.3,11.8 240.5,13.3 239.4,10.2 		"/>
		<polygon class="st2" points="244.9,4.4 245.2,45.6 254.4,73 254.2,4.9 		"/>
		<polygon class="st3" points="255,5 244.7,4.9 244.7,0 255,0.2 		"/>
		<polygon class="st4" points="244.7,0 238,8.7 238.1,11.9 245,4.8 		"/>
		<polygon class="st5" points="239.4,10.2 239.7,28.9 245.2,45.6 245,4.8 		"/>
	</g>
	<polygon class="st6" points="117.7,26.5 239.8,27.4 255.2,74.4 151.4,74.4 	"/>
	<polygon class="st7" points="171.4,27 203,72.8 151.3,72.9 117.7,26.5 	"/>
	<polygon class="st2" points="150,136.7 35.9,136.1 37.4,60.8 93.6,17.4 151.4,59.4 	"/>
	<polygon class="st8" points="37.3,60.3 37.6,68.8 99,21.8 93.6,17.4 	"/>
	<path class="st9" d="M108.3,134c0.3-0.9-0.9-74.7-0.9-74.7l21.4-16.4l22.9,16.3l0.6,77.1l-44.3-0.7L108.3,134z"/>
	<rect x="151.4" y="78.2" class="st2" width="104" height="58.1"/>
	<rect x="36.2" y="118.1" class="st10" width="72.2" height="18.5"/>
	<g>
		<path class="st11" d="M144.3,72c0-4.8-6.9-8.8-15.4-8.8s-15.4,3.9-15.4,8.8c0,0.3,0.1,42.3,0.1,47.1h30.7
			C144.3,110.8,144.3,72.2,144.3,72z"/>
	</g>
	<rect x="151.5" y="78.7" class="st8" width="103.9" height="7.9"/>
	<rect x="150.9" y="79" class="st8" width="35.1" height="57.5"/>
	<rect x="56.7" y="120.6" class="st12" width="22.9" height="10.9"/>
	<polygon class="st13" points="71.9,120.6 64.1,131.6 65.6,131.6 73.4,120.6 	"/>
	<polygon class="st14" points="71.9,120.6 69.3,120.6 61.5,131.6 64.1,131.6 	"/>
	<polygon class="st14" points="65.6,131.6 70.4,131.6 78.9,120.6 73.4,120.6 	"/>
	<rect x="217.9" y="118.6" class="st10" width="37.4" height="18.5"/>
	<polygon class="st5" points="93.7,17.6 69.4,36.3 119.5,36.3 	"/>
	<polygon class="st15" points="79.5,36.3 99,21.5 93.7,17.6 68.7,36.4 	"/>
	<polygon class="st15" points="95.2,23.9 118.7,41.3 122.4,38.3 99,21.5 	"/>
	<polygon class="st8" points="111.8,36.3 119,35.9 122.4,38.3 118.7,41.3 	"/>
	<g>
		<g>
			<polygon class="st12" points="62.5,110.6 48.7,110.7 48.7,71.8 62.3,71.8 			"/>
			<polygon class="st5" points="51.6,110.7 48.5,110.7 48.5,71.3 51.6,71.3 			"/>
			<rect x="48.5" y="71.3" class="st5" width="13.8" height="2.9"/>
			
				<rect x="48.4" y="80.6" transform="matrix(1 -1.723616e-03 1.723616e-03 1 -0.14 9.617465e-02)" class="st2" width="14.7" height="1.3"/>
			<polygon class="st14" points="51.5,97.2 62.4,81.9 62.4,84.8 51.6,100.1 			"/>
			<polygon class="st14" points="51.6,102.3 62.4,87.2 62.5,93.6 51.5,107.7 			"/>
		</g>
		<g>
			<polygon class="st12" points="78.8,110.5 65,110.6 65,71.7 78.6,71.7 			"/>
			<polygon class="st5" points="67.9,110.6 64.8,110.6 64.9,71.2 67.9,71.2 			"/>
			<rect x="64.9" y="71.2" class="st5" width="13.8" height="2.9"/>
			
				<rect x="64.8" y="80.5" transform="matrix(1 -1.723616e-03 1.723616e-03 1 -0.1398 0.1244)" class="st2" width="14.7" height="1.3"/>
			<polygon class="st14" points="67.8,97.1 78.7,81.8 78.7,84.7 67.9,100 			"/>
			<polygon class="st14" points="67.9,102.2 78.7,87 78.8,93.5 67.9,107.6 			"/>
		</g>
		<g>
			<polygon class="st12" points="94.8,110.5 81,110.6 81,71.7 94.6,71.7 			"/>
			<polygon class="st5" points="83.9,110.6 80.8,110.6 80.8,71.2 83.9,71.2 			"/>
			<rect x="80.8" y="71.2" class="st5" width="13.8" height="2.9"/>
			
				<rect x="80.7" y="80.5" transform="matrix(1 -1.723627e-03 1.723627e-03 1 -0.1397 0.1518)" class="st2" width="14.7" height="1.3"/>
			<polygon class="st14" points="83.8,97.1 94.7,81.8 94.7,84.7 83.9,100 			"/>
			<polygon class="st14" points="83.9,102.2 94.7,87 94.8,93.5 83.8,107.6 			"/>
		</g>
	</g>
	<polygon class="st15" points="94.9,68.3 108.9,82.6 107.4,59.5 	"/>
	<rect x="56.7" y="120.6" class="st16" width="1.9" height="11"/>
	<g>
		<rect x="111" y="122.6" class="st17" width="33.2" height="5.5"/>
		<rect x="114.5" y="117.2" class="st18" width="29.7" height="5.5"/>
		<rect x="114.4" y="127.8" class="st18" width="29.9" height="5.5"/>
		<rect x="114.4" y="131.4" class="st17" width="30.1" height="5.5"/>
	</g>
	<rect x="148.5" y="117.3" class="st10" width="21" height="19.5"/>
	<rect x="151.3" y="72.8" class="st19" width="104.5" height="6"/>
	<rect x="144.2" y="117.3" class="st16" width="7.2" height="19.5"/>
	<rect x="108.4" y="118.1" class="st16" width="6.2" height="18.5"/>
	<g>
		<rect x="119.4" y="74.2" class="st6" width="18.9" height="43.2"/>
		<rect x="123.3" y="79.1" class="st12" width="10.3" height="29.2"/>
		<circle class="st11" cx="135.9" cy="99.8" r="1.5"/>
		<rect x="123.3" y="79.1" class="st20" width="2.4" height="29.1"/>
	</g>
	<rect x="123.5" y="79" class="st20" width="10.3" height="2.4"/>
	<g>
		<rect x="164.6" y="90.9" class="st12" width="53.5" height="45.9"/>
		<rect x="164.5" y="90.8" class="st21" width="21.5" height="12.3"/>
		<rect x="164.4" y="102.6" class="st22" width="21.6" height="34.2"/>
		<rect x="164.5" y="90.8" class="st23" width="21.3" height="3.5"/>
		<rect x="185.8" y="90.8" class="st21" width="32.3" height="3.5"/>
		<rect x="185.9" y="94.2" class="st19" width="32.2" height="8.4"/>
		<g>
			<rect x="164.4" y="107.6" class="st21" width="21.5" height="2.9"/>
			<rect x="185.8" y="107.6" class="st19" width="32.2" height="2.9"/>
		</g>
	</g>
	<g>
		<path class="st7" d="M271.9,121.7c0,0,4.6,4,3.9,15.2c0,0,2.9,0.8,3.9,0c0,0,0.2-11.5,2.5-14.2l-0.9,0.1l-1.4,3.7
			c0,0-0.3,0.5-0.8,0.2c0,0-0.3,0-0.3-0.6v-2.6l-0.9-0.6l0.1,3c0,0-0.1,1.2-0.5,1.2c0,0-0.5,0.2-0.8-0.6c0,0-2.3-5.4-3.1-4.9
			c-0.2,0.1-1.7,0.3-1.7,0.3"/>
		<path class="st24" d="M291.8,77.3c-0.4-25.2-9-42.2-14-42.2c-0.1,0-0.1,0-0.2,0s-0.1,0-0.2,0c-5,0-13.6,17-14,42.2
			c-0.1,7-1.2,23.1-0.6,29c1.4,13.4,10.7,17.4,14.6,17.7l0,0c0.1,0,0.1,0,0.2,0s0.1,0,0.2,0l0,0c3.9-0.4,13.2-4.4,14.6-17.7
			C293.1,100.5,291.9,84.3,291.8,77.3z"/>
		<path class="st25" d="M292.1,77.6c-0.4-25.2-9-42.2-14-42.2c-0.1,0-0.1,0-0.2,0s-0.1,0-0.2,0c-5,0-13.6,17-14,42.3
			c-0.1,5.4-0.4,10.7-0.6,16.1c-0.2,5.2-1,10.5,1.3,15.2c0.7,1.4,1.7,3,3.2,3.1c1.9,0.1,3-2.2,3.3-4c0.1-0.5,0.5-1.1,0.9-0.8
			c0.1,0.1,0.1,0.2,0.2,0.3c0.5,1.2,0.9,2.5,1.4,3.7c0.4,1,0.8,2,1.7,2.4c1.5,0.7,3.2-0.6,4.2-2c1.1-1.6,1.8-3.3,2.2-5.2
			c0.4,1.3,0.9,2.6,1.5,3.9c0.8,1.6,2,3.3,3.8,3.2c1.1-0.1,2-0.9,2.5-1.9s2.6-2.4,2.7-3.3c0.7-4,0.8-11.7,0.7-14.9
			C292.5,88.1,292.2,82.8,292.1,77.6z"/>
		<path class="st26" d="M292,77.3c-0.4-25.2-9-42.2-14-42.2c-0.1,0-0.1,0-0.2,0s-0.1,0-0.2,0c-5,0-13.6,17-14,42.2
			c-0.1,5.4-2.1,12.5,1.5,17c0.9,1.2,2.3,2.1,3.8,2.1c1.7,0.1,3.4-1,4.4-2.3c1.1-1.4,1.6-3.1,2.2-4.7c0.6,2.2,1.2,4.5,2.3,6.5
			c1.1,2,2.9,3.8,5.1,4.5c0.9,0.3,1.8,0.4,2.7,0c1.3-0.6,1.9-2,2.3-3.3c0.7-2.3,0.9-4.7,0.6-7.1c0.1,1.2,0.5,2.3,1,3.4
			c0.2,0.4,0.4,0.7,0.7,0.9c3.5,2.3,2.2-5.7,2.1-6.6C292.2,84.3,292.1,80.8,292,77.3z"/>
		<path class="st27" d="M291.6,77.2c0.1-0.2,0.2-0.5,0.2-0.7c0.3-1.4-0.2-3.3-0.3-4.7c-0.2-3-0.5-6-1-9c-0.8-5-1.9-9.9-3.6-14.7
			c-1.3-3.6-4.3-12.7-9.2-13.1c0,0,0,0-0.1,0s-0.1,0-0.2,0s-0.1,0-0.2,0c-4.7,0-7.8,9.2-9,12.5c-1.7,4.7-2.9,9.5-3.6,14.4
			c-0.5,2.9-0.8,5.9-1,8.8c-0.1,2-1.2,6.1-0.1,7.8c0.8,1.1,2.7,1.5,3.8,0.6c1.9-1.5,1.2-4.9,3-6.6c0.6,2.1,1.6,4,2.9,5.7
			c0.7,0.9,1.5,1.8,2.6,2.1c2,0.5,3.9-1.2,4.7-3c0.8-1.9,0.7-4,1.1-6c0.4,2.3,1,4.6,1.9,6.8c0.4,1.1,1,2.2,1.9,2.9
			c0.9,0.7,2.3,1,3.3,0.3c0.4-0.3,0.7-0.8,1-1.3C290.3,79.4,291.2,78.3,291.6,77.2z"/>
	</g>
	<g>
		<line class="st28" x1="122.4" y1="30.7" x2="241" y2="30.6"/>
		<line class="st28" x1="131.3" y1="36.6" x2="242.7" y2="36.1"/>
		<line class="st28" x1="135.4" y1="41" x2="244.5" y2="41.1"/>
		<line class="st28" x1="143.2" y1="47.8" x2="246.7" y2="48.3"/>
		<line class="st28" x1="153.6" y1="56.3" x2="249.4" y2="56.3"/>
		<line class="st28" x1="162.7" y1="65.5" x2="252.7" y2="65.3"/>
	</g>
	<g>
		<polygon class="st19" points="167.7,63.2 94.7,8.9 21.3,65.1 25.1,70.1 94.1,17.8 163.6,68.5 		"/>
		<polygon class="st19" points="89.5,63.2 94.4,69.3 131.3,40.9 124.8,36.7 		"/>
	</g>
	<g>
		<path class="st7" d="M9.3,123c0,0,4.8,3.3,4,14.5c0,0,2.8,1.3,3.8,0.5c0,0,0.3-11.3,2.5-14l-0.9,0.1l-1.4,3.7c0,0-0.3,0.5-0.8,0.2
			c0,0-0.3,0-0.3-0.6v-2.6l-0.9-0.6l0.1,3c0,0-0.1,1.2-0.5,1.2c0,0-0.5,0.2-0.8-0.6c0,0-2.3-5.4-3.1-4.9c-0.2,0.1-1.7,0.3-1.7,0.3"
			/>
		<path class="st24" d="M29.2,78.6c-0.4-25.2-9-42.3-14-42.3c-0.1,0-0.1,0-0.2,0c-0.1,0-0.1,0-0.2,0c-5,0-13.6,17-14,42.3
			c-0.1,7-1.2,23.1-0.6,29C1.7,121,10.9,125,14.9,125.3l0,0c0.1,0,0.1,0,0.2,0c0.1,0,0.1,0,0.2,0l0,0c3.9-0.4,13.2-4.4,14.6-17.7
			C30.5,101.8,29.3,85.6,29.2,78.6z"/>
		<path class="st25" d="M29.5,78.9c-0.4-25.2-9-42.3-14-42.3c-0.1,0-0.1,0-0.2,0c-0.1,0-0.1,0-0.2,0c-5,0-13.6,17-14,42.3
			c0,5.3-0.4,10.7-0.6,16c-0.2,5.2-1,10.5,1.3,15.2c0.7,1.4,1.7,3,3.2,3.1c1.9,0.1,3-2.2,3.3-4c0.1-0.5,0.5-1.1,0.9-0.8
			c0.1,0.1,0.1,0.2,0.2,0.3c0.5,1.2,0.9,2.5,1.4,3.7c0.4,1,0.8,2,1.7,2.4c1.5,0.7,3.2-0.6,4.2-2c1.1-1.6,1.8-3.3,2.2-5.2
			c0.4,1.3,0.9,2.6,1.5,3.9c0.8,1.6,2,3.3,3.8,3.2c1.1-0.1,2-0.9,2.5-1.9s2.6-2.6,3.2-3.4c2-2.7,0.3-11.5,0.2-14.8
			C29.9,89.4,29.6,84.1,29.5,78.9z"/>
		<path class="st26" d="M29.4,78.6c-0.4-25.2-9-42.3-14-42.3c-0.1,0-0.1,0-0.2,0c-0.1,0-0.1,0-0.2,0c-5,0-13.6,17-14,42.3
			c-0.1,5.4-2.1,12.5,1.5,17c0.9,1.2,2.3,2.1,3.8,2.1c1.7,0.1,3.4-1,4.4-2.3c1.1-1.4,1.6-3.1,2.2-4.7c0.6,2.2,1.2,4.5,2.3,6.5
			s2.9,3.8,5.1,4.5c0.9,0.3,1.8,0.4,2.7,0c1.3-0.6,1.9-2,2.3-3.3c0.7-2.3,0.9-4.7,0.6-7.1c0.1,1.2,0.5,2.3,1,3.4
			c0.2,0.4,0.4,0.7,0.7,0.9c3.5,2.3,2.2-5.7,2.1-6.6C29.6,85.6,29.4,82.1,29.4,78.6z"/>
		<path class="st27" d="M29,78.5c0.1-0.2,0.2-0.5,0.2-0.7c0.3-1.4-0.2-3.3-0.3-4.7c-0.2-3-0.5-6-1-9c-0.8-5-1.9-9.9-3.6-14.7
			C23,45.8,20,36.7,15.1,36.3c0,0,0,0-0.1,0s-0.1,0-0.2,0c-0.1,0-0.1,0-0.2,0c-4.7,0-7.8,9.2-9,12.5C3.9,53.5,2.7,58.3,2,63.2
			c-0.5,2.9-0.8,5.9-1,8.8c-0.1,2-1.2,6.1-0.1,7.8c0.8,1.1,2.7,1.5,3.8,0.6c1.9-1.5,1.2-4.9,3-6.6c0.6,2.1,1.6,4,2.9,5.7
			c0.7,0.9,1.5,1.8,2.6,2.1c2,0.5,3.9-1.2,4.7-3c0.8-1.9,0.7-4,1.1-6c0.4,2.3,1,4.6,1.9,6.8c0.4,1.1,1,2.2,1.9,2.9
			c0.9,0.7,2.3,1,3.3,0.3c0.4-0.3,0.7-0.8,1-1.3C27.7,80.6,28.6,79.6,29,78.5z"/>
	</g>
</g>
</svg>
