<?xml version="1.0" encoding="utf-8"?>
<!-- Generator: Adobe Illustrator 21.0.1, SVG Export Plug-In . SVG Version: 6.00 Build 0)  -->
<svg version="1.1" id="objects" xmlns="http://www.w3.org/2000/svg" xmlns:xlink="http://www.w3.org/1999/xlink" x="0px" y="0px"
	 viewBox="0 0 284 175.3" style="enable-background:new 0 0 284 175.3;" xml:space="preserve">
<style type="text/css">
	.st0{display:none;opacity:0.33;fill:#DDDAD3;}
	.st1{fill:#F2ECD4;}
	.st2{fill:#FFFFFF;}
	.st3{fill:#EDEAE4;}
	.st4{fill:#E2D9BF;}
	.st5{fill:#D1C9B0;}
	.st6{fill:#D1C7A7;}
	.st7{opacity:0.25;}
	.st8{fill:none;stroke:#968D75;stroke-miterlimit:10;}
	.st9{fill:#E2E0DC;}
	.st10{fill:#CCC9C2;}
	.st11{fill:none;stroke:#77C7C8;stroke-width:2;stroke-miterlimit:10;}
	.st12{fill:#BFB391;}
	.st13{fill:#C1BAA8;}
	.st14{fill:none;stroke:#2EB220;stroke-miterlimit:10;}
	.st15{fill:#65B7B7;}
	.st16{fill:#2C555B;}
	.st17{fill:none;stroke:#FFFFFF;stroke-miterlimit:10;}
	.st18{fill:#4B9694;}
	.st19{fill:#77C7C8;}
	.st20{fill:none;stroke:#3D5150;stroke-miterlimit:10;}
	.st21{opacity:0.57;fill:#75A9AB;}
	.st22{fill:#254849;}
	.st23{fill:none;stroke:#2C555B;stroke-miterlimit:10;}
	.st24{opacity:0.57;}
	.st25{fill:#2EB220;}
	.st26{fill:#75A9AB;}
	.st27{fill:#BCB193;}
	.st28{fill:#AFA58B;}
	.st29{fill:none;stroke:#E0DCD1;stroke-miterlimit:10;}
	.st30{fill:#58A0A0;}
	.st31{fill:#6BB2B2;}
	.st32{opacity:0.54;fill:#D1C9B0;}
	.st33{fill:#3D5150;}
	.st34{fill:#E8E4DA;}
</style>
<g>
	<ellipse class="st0" cx="101.8" cy="176.8" rx="108.7" ry="9"/>
	<polygon class="st1" points="133.3,8.8 83.5,8.3 32.9,66.2 28.2,71.6 28.2,165 191.6,165 190.7,71.6 	"/>
	<polygon class="st2" points="35.2,70.4 44.9,70.4 45.4,70.4 180.5,70.5 186.5,78.1 27.4,78.5 	"/>
	<polygon class="st3" points="30.3,78.5 34.9,73.5 183.2,73.9 186.5,78.1 	"/>
	<path class="st4" d="M197.9,173.8H16.1c-0.7,0-1.3-0.6-1.3-1.3V86.2c0-0.7,0.6-1.3,1.3-1.3h181.8c0.7,0,1.3,0.6,1.3,1.3v86.3
		C199.1,173.2,198.5,173.8,197.9,173.8z"/>
	<polyline class="st5" points="14.5,83.1 14.9,105 99.9,8.3 83.9,7.3 27.4,70.3 	"/>
	<rect x="101.1" y="77.4" class="st4" width="14.7" height="61.1"/>
	<polygon class="st4" points="101.8,83.5 136.1,83.5 151.5,83.5 151.5,92.2 151.5,131.9 144.6,132.8 144.5,91.1 101.9,91.2 	"/>
	<rect x="26.3" y="136.6" class="st6" width="165" height="36.6"/>
	<g class="st7">
		<g>
			<path class="st8" d="M81.7,15.3c1.8,1.6,4.4,1.6,5.7,0.1c1.3-1.5,0.9-4-1-5.6c0,0-0.1-0.1-0.1-0.1l-4.7,5.5
				C81.6,15.3,81.7,15.3,81.7,15.3z"/>
		</g>
		<g>
			<path class="st8" d="M81.7,15.3c1.8,1.6,4.4,1.6,5.7,0.1c1.3-1.5,0.9-4-1-5.6c0,0-0.1-0.1-0.1-0.1l-4.7,5.5
				C81.6,15.3,81.7,15.3,81.7,15.3z"/>
		</g>
		<g>
			<path class="st8" d="M77.1,20.7c1.8,1.6,4.4,1.6,5.7,0.1c1.3-1.5,0.9-4-1-5.6c0,0-0.1-0.1-0.1-0.1L77,20.6
				C77.1,20.6,77.1,20.6,77.1,20.7z"/>
		</g>
		<g>
			<path class="st8" d="M77.1,20.7c1.8,1.6,4.4,1.6,5.7,0.1c1.3-1.5,0.9-4-1-5.6c0,0-0.1-0.1-0.1-0.1L77,20.6
				C77.1,20.6,77.1,20.6,77.1,20.7z"/>
		</g>
		<g>
			<path class="st8" d="M72.6,26c1.8,1.6,4.4,1.6,5.7,0.1c1.3-1.5,0.9-4-1-5.6c0,0-0.1-0.1-0.1-0.1l-4.7,5.5
				C72.5,25.9,72.5,26,72.6,26z"/>
		</g>
		<g>
			<path class="st8" d="M72.6,26c1.8,1.6,4.4,1.6,5.7,0.1c1.3-1.5,0.9-4-1-5.6c0,0-0.1-0.1-0.1-0.1l-4.7,5.5
				C72.5,25.9,72.5,26,72.6,26z"/>
		</g>
		<g>
			<path class="st8" d="M68,31.4c1.8,1.6,4.4,1.6,5.7,0.1c1.3-1.5,0.9-4-1-5.6c0,0-0.1-0.1-0.1-0.1l-4.7,5.5
				C68,31.3,68,31.3,68,31.4z"/>
		</g>
		<g>
			<path class="st8" d="M68,31.4c1.8,1.6,4.4,1.6,5.7,0.1c1.3-1.5,0.9-4-1-5.6c0,0-0.1-0.1-0.1-0.1l-4.7,5.5
				C68,31.3,68,31.3,68,31.4z"/>
		</g>
		<g>
			<path class="st8" d="M63.5,36.7c1.8,1.6,4.4,1.6,5.7,0.1c1.3-1.5,0.9-4-1-5.6c0,0-0.1-0.1-0.1-0.1l-4.7,5.5
				C63.4,36.6,63.4,36.7,63.5,36.7z"/>
		</g>
		<g>
			<path class="st8" d="M63.5,36.7c1.8,1.6,4.4,1.6,5.7,0.1c1.3-1.5,0.9-4-1-5.6c0,0-0.1-0.1-0.1-0.1l-4.7,5.5
				C63.4,36.6,63.4,36.7,63.5,36.7z"/>
		</g>
		<g>
			<path class="st8" d="M58.9,42c1.8,1.6,4.4,1.6,5.7,0.1c1.3-1.5,0.9-4-1-5.6c0,0-0.1-0.1-0.1-0.1l-4.7,5.5
				C58.8,42,58.9,42,58.9,42z"/>
		</g>
		<g>
			<path class="st8" d="M58.9,42c1.8,1.6,4.4,1.6,5.7,0.1c1.3-1.5,0.9-4-1-5.6c0,0-0.1-0.1-0.1-0.1l-4.7,5.5
				C58.8,42,58.9,42,58.9,42z"/>
		</g>
		<g>
			<path class="st8" d="M54.4,47.4c1.8,1.6,4.4,1.6,5.7,0.1c1.3-1.5,0.9-4-1-5.6c0,0-0.1-0.1-0.1-0.1l-4.7,5.5
				C54.3,47.3,54.3,47.3,54.4,47.4z"/>
		</g>
		<g>
			<path class="st8" d="M54.4,47.4c1.8,1.6,4.4,1.6,5.7,0.1c1.3-1.5,0.9-4-1-5.6c0,0-0.1-0.1-0.1-0.1l-4.7,5.5
				C54.3,47.3,54.3,47.3,54.4,47.4z"/>
		</g>
		<g>
			<path class="st8" d="M49.8,52.7c1.8,1.6,4.4,1.6,5.7,0.1c1.3-1.5,0.9-4-1-5.6c0,0-0.1-0.1-0.1-0.1l-4.7,5.5
				C49.7,52.6,49.8,52.7,49.8,52.7z"/>
		</g>
		<g>
			<path class="st8" d="M49.8,52.7c1.8,1.6,4.4,1.6,5.7,0.1c1.3-1.5,0.9-4-1-5.6c0,0-0.1-0.1-0.1-0.1l-4.7,5.5
				C49.7,52.6,49.8,52.7,49.8,52.7z"/>
		</g>
		<g>
			<path class="st8" d="M45.3,58c1.8,1.6,4.4,1.6,5.7,0.1c1.3-1.5,0.9-4-1-5.6c0,0-0.1-0.1-0.1-0.1l-4.7,5.5
				C45.2,58,45.2,58,45.3,58z"/>
		</g>
		<g>
			<path class="st8" d="M45.3,58c1.8,1.6,4.4,1.6,5.7,0.1c1.3-1.5,0.9-4-1-5.6c0,0-0.1-0.1-0.1-0.1l-4.7,5.5
				C45.2,58,45.2,58,45.3,58z"/>
		</g>
		<g>
			<path class="st8" d="M40.7,63.4c1.8,1.6,4.4,1.6,5.7,0.1c1.3-1.5,0.9-4-1-5.6c0,0-0.1-0.1-0.1-0.1l-4.7,5.5
				C40.6,63.3,40.7,63.3,40.7,63.4z"/>
		</g>
		<g>
			<path class="st8" d="M40.7,63.4c1.8,1.6,4.4,1.6,5.7,0.1c1.3-1.5,0.9-4-1-5.6c0,0-0.1-0.1-0.1-0.1l-4.7,5.5
				C40.6,63.3,40.7,63.3,40.7,63.4z"/>
		</g>
		<g>
			<path class="st8" d="M36.2,68.7c1.8,1.6,4.4,1.6,5.7,0.1c1.3-1.5,0.9-4-1-5.6c0,0-0.1-0.1-0.1-0.1L36,68.6
				C36.1,68.6,36.1,68.7,36.2,68.7z"/>
		</g>
		<g>
			<path class="st8" d="M36.2,68.7c1.8,1.6,4.4,1.6,5.7,0.1c1.3-1.5,0.9-4-1-5.6c0,0-0.1-0.1-0.1-0.1L36,68.6
				C36.1,68.6,36.1,68.7,36.2,68.7z"/>
		</g>
		<g>
			<path class="st8" d="M31.6,74.1c1.8,1.6,4.4,1.6,5.7,0.1c1.3-1.5,0.9-4-1-5.6c0,0-0.1-0.1-0.1-0.1l-4.7,5.5
				C31.5,74,31.6,74,31.6,74.1z"/>
		</g>
		<g>
			<path class="st8" d="M31.6,74.1c1.8,1.6,4.4,1.6,5.7,0.1c1.3-1.5,0.9-4-1-5.6c0,0-0.1-0.1-0.1-0.1l-4.7,5.5
				C31.5,74,31.6,74,31.6,74.1z"/>
		</g>
		<g>
			<path class="st8" d="M27.1,79.4c1.8,1.6,4.4,1.6,5.7,0.1c1.3-1.5,0.9-4-1-5.6c0,0-0.1-0.1-0.1-0.1l-4.7,5.5
				C27,79.3,27,79.4,27.1,79.4z"/>
		</g>
		<g>
			<path class="st8" d="M27.1,79.4c1.8,1.6,4.4,1.6,5.7,0.1c1.3-1.5,0.9-4-1-5.6c0,0-0.1-0.1-0.1-0.1l-4.7,5.5
				C27,79.3,27,79.4,27.1,79.4z"/>
		</g>
		<g>
			<path class="st8" d="M22.5,84.7c1.8,1.6,4.4,1.6,5.7,0.1c1.3-1.5,0.9-4-1-5.6c0,0-0.1-0.1-0.1-0.1l-4.7,5.5
				C22.4,84.7,22.5,84.7,22.5,84.7z"/>
		</g>
	</g>
	<polygon class="st9" points="45.2,70.4 34.7,70.3 30.9,74.7 40.8,74.9 	"/>
	<polygon class="st10" points="42,73.5 38.1,78.5 28.3,78.5 32.8,73.3 	"/>
	<polygon class="st4" points="51,64.3 74,37.9 74,43.5 56,64.5 	"/>
	<path class="st11" d="M52,63.3C56.4,58.4,74,37.9,74,37.9v26.4H52.4C51.9,64.3,51.6,63.7,52,63.3z"/>
	<path class="st11" d="M162.5,64.3c-1.1-0.8-23-26.4-23-26.4v26.4H162.5z"/>
	<rect x="32.3" y="93.2" class="st11" width="13.2" height="34.6"/>
	<rect x="13.9" y="136.3" class="st2" width="100" height="2.1"/>
	<rect x="26.5" y="164.8" class="st12" width="86.9" height="9.4"/>
	<rect x="172.9" y="165" class="st12" width="18.4" height="8.8"/>
	<g>
		<rect x="123.1" y="135.9" class="st4" width="37.9" height="9.2"/>
		<rect x="123.1" y="144.9" class="st13" width="37.9" height="9.2"/>
		<rect x="123.1" y="153.9" class="st4" width="37.9" height="9.2"/>
		<rect x="123.1" y="162.9" class="st13" width="37.9" height="10.9"/>
	</g>
	<path class="st14" d="M153.4,126.4"/>
	<g>
		<path class="st15" d="M155,111.6c0,0.5,0,23.7-0.1,24.3c0,0.1,0,0.3-0.1,0.3c-5.7,0-20.6-0.3-24.9-0.3c-0.4,0-0.1-23.9-0.1-24.3
			c0-6.3,5.6-11.4,12.6-11.4S155,105.4,155,111.6z"/>
		<path class="st16" d="M151.1,114.7c0-1.7,0-2.8,0-2.9c0-4.3-3.9-7.9-8.7-7.9c-4.8,0-8.7,3.5-8.7,7.9c0,0.1,0,1.2,0,2.9
			L151.1,114.7z"/>
		<rect x="133.8" y="124.2" class="st17" width="17.3" height="9.5"/>
		<rect x="150.8" y="117.5" class="st18" width="2.4" height="4.9"/>
	</g>
	<rect x="113.4" y="135.5" class="st19" width="11.9" height="38.7"/>
	<rect x="174.3" y="93.5" class="st11" width="11.2" height="36.9"/>
	<rect x="172.8" y="136.6" class="st2" width="18.9" height="2.1"/>
	<g>
		<g>
			<path class="st20" d="M79.9,14.7c1.8,1.6,4.4,1.6,5.7,0.1c1.3-1.5,0.9-4-1-5.6c0,0-0.1-0.1-0.1-0.1l-4.7,5.5
				C79.8,14.6,79.8,14.7,79.9,14.7z"/>
		</g>
		<g>
			<path class="st20" d="M79.9,14.7c1.8,1.6,4.4,1.6,5.7,0.1c1.3-1.5,0.9-4-1-5.6c0,0-0.1-0.1-0.1-0.1l-4.7,5.5
				C79.8,14.6,79.8,14.7,79.9,14.7z"/>
		</g>
		<g>
			<path class="st20" d="M75.3,20c1.8,1.6,4.4,1.6,5.7,0.1c1.3-1.5,0.9-4-1-5.6c0,0-0.1-0.1-0.1-0.1l-4.7,5.5
				C75.2,20,75.3,20,75.3,20z"/>
		</g>
		<g>
			<path class="st20" d="M75.3,20c1.8,1.6,4.4,1.6,5.7,0.1c1.3-1.5,0.9-4-1-5.6c0,0-0.1-0.1-0.1-0.1l-4.7,5.5
				C75.2,20,75.3,20,75.3,20z"/>
		</g>
		<g>
			<path class="st20" d="M70.7,25.4c1.8,1.6,4.4,1.6,5.7,0.1c1.3-1.5,0.9-4-1-5.6c0,0-0.1-0.1-0.1-0.1l-4.7,5.5
				C70.7,25.3,70.7,25.3,70.7,25.4z"/>
		</g>
		<g>
			<path class="st20" d="M70.7,25.4c1.8,1.6,4.4,1.6,5.7,0.1c1.3-1.5,0.9-4-1-5.6c0,0-0.1-0.1-0.1-0.1l-4.7,5.5
				C70.7,25.3,70.7,25.3,70.7,25.4z"/>
		</g>
		<g>
			<path class="st20" d="M66.2,30.7c1.8,1.6,4.4,1.6,5.7,0.1c1.3-1.5,0.9-4-1-5.6c0,0-0.1-0.1-0.1-0.1l-4.7,5.5
				C66.1,30.6,66.1,30.7,66.2,30.7z"/>
		</g>
		<g>
			<path class="st20" d="M66.2,30.7c1.8,1.6,4.4,1.6,5.7,0.1c1.3-1.5,0.9-4-1-5.6c0,0-0.1-0.1-0.1-0.1l-4.7,5.5
				C66.1,30.6,66.1,30.7,66.2,30.7z"/>
		</g>
		<g>
			<path class="st20" d="M61.6,36.1c1.8,1.6,4.4,1.6,5.7,0.1c1.3-1.5,0.9-4-1-5.6c0,0-0.1-0.1-0.1-0.1l-4.7,5.5
				C61.6,36,61.6,36,61.6,36.1z"/>
		</g>
		<g>
			<path class="st20" d="M61.6,36.1c1.8,1.6,4.4,1.6,5.7,0.1c1.3-1.5,0.9-4-1-5.6c0,0-0.1-0.1-0.1-0.1l-4.7,5.5
				C61.6,36,61.6,36,61.6,36.1z"/>
		</g>
		<g>
			<path class="st20" d="M57.1,41.4c1.8,1.6,4.4,1.6,5.7,0.1c1.3-1.5,0.9-4-1-5.6c0,0-0.1-0.1-0.1-0.1L57,41.3
				C57,41.3,57,41.4,57.1,41.4z"/>
		</g>
		<g>
			<path class="st20" d="M57.1,41.4c1.8,1.6,4.4,1.6,5.7,0.1c1.3-1.5,0.9-4-1-5.6c0,0-0.1-0.1-0.1-0.1L57,41.3
				C57,41.3,57,41.4,57.1,41.4z"/>
		</g>
		<g>
			<path class="st20" d="M52.5,46.7c1.8,1.6,4.4,1.6,5.7,0.1c1.3-1.5,0.9-4-1-5.6c0,0-0.1-0.1-0.1-0.1l-4.7,5.5
				C52.4,46.6,52.5,46.7,52.5,46.7z"/>
		</g>
		<g>
			<path class="st20" d="M52.5,46.7c1.8,1.6,4.4,1.6,5.7,0.1c1.3-1.5,0.9-4-1-5.6c0,0-0.1-0.1-0.1-0.1l-4.7,5.5
				C52.4,46.6,52.5,46.7,52.5,46.7z"/>
		</g>
		<g>
			<path class="st20" d="M48,52.1c1.8,1.6,4.4,1.6,5.7,0.1c1.3-1.5,0.9-4-1-5.6c0,0-0.1-0.1-0.1-0.1l-4.7,5.5
				C47.9,52,47.9,52,48,52.1z"/>
		</g>
		<g>
			<path class="st20" d="M48,52.1c1.8,1.6,4.4,1.6,5.7,0.1c1.3-1.5,0.9-4-1-5.6c0,0-0.1-0.1-0.1-0.1l-4.7,5.5
				C47.9,52,47.9,52,48,52.1z"/>
		</g>
		<g>
			<path class="st20" d="M43.4,57.4c1.8,1.6,4.4,1.6,5.7,0.1c1.3-1.5,0.9-4-1-5.6c0,0-0.1-0.1-0.1-0.1l-4.7,5.5
				C43.3,57.3,43.4,57.4,43.4,57.4z"/>
		</g>
		<g>
			<path class="st20" d="M43.4,57.4c1.8,1.6,4.4,1.6,5.7,0.1c1.3-1.5,0.9-4-1-5.6c0,0-0.1-0.1-0.1-0.1l-4.7,5.5
				C43.3,57.3,43.4,57.4,43.4,57.4z"/>
		</g>
		<g>
			<path class="st20" d="M38.9,62.7c1.8,1.6,4.4,1.6,5.7,0.1c1.3-1.5,0.9-4-1-5.6c0,0-0.1-0.1-0.1-0.1l-4.7,5.5
				C38.8,62.7,38.8,62.7,38.9,62.7z"/>
		</g>
		<g>
			<path class="st20" d="M38.9,62.7c1.8,1.6,4.4,1.6,5.7,0.1c1.3-1.5,0.9-4-1-5.6c0,0-0.1-0.1-0.1-0.1l-4.7,5.5
				C38.8,62.7,38.8,62.7,38.9,62.7z"/>
		</g>
		<g>
			<path class="st20" d="M34.3,68.1c1.8,1.6,4.4,1.6,5.7,0.1c1.3-1.5,0.9-4-1-5.6c0,0-0.1-0.1-0.1-0.1L34.2,68
				C34.2,68,34.3,68,34.3,68.1z"/>
		</g>
		<g>
			<path class="st20" d="M34.3,68.1c1.8,1.6,4.4,1.6,5.7,0.1c1.3-1.5,0.9-4-1-5.6c0,0-0.1-0.1-0.1-0.1L34.2,68
				C34.2,68,34.3,68,34.3,68.1z"/>
		</g>
		<g>
			<path class="st20" d="M29.8,73.4c1.8,1.6,4.4,1.6,5.7,0.1c1.3-1.5,0.9-4-1-5.6c0,0-0.1-0.1-0.1-0.1l-4.7,5.5
				C29.7,73.3,29.7,73.4,29.8,73.4z"/>
		</g>
		<g>
			<path class="st20" d="M29.8,73.4c1.8,1.6,4.4,1.6,5.7,0.1c1.3-1.5,0.9-4-1-5.6c0,0-0.1-0.1-0.1-0.1l-4.7,5.5
				C29.7,73.3,29.7,73.4,29.8,73.4z"/>
		</g>
		<g>
			<path class="st20" d="M25.2,78.8c1.8,1.6,4.4,1.6,5.7,0.1c1.3-1.5,0.9-4-1-5.6c0,0-0.1-0.1-0.1-0.1l-4.7,5.5
				C25.1,78.7,25.2,78.7,25.2,78.8z"/>
		</g>
		<g>
			<path class="st20" d="M25.2,78.8c1.8,1.6,4.4,1.6,5.7,0.1c1.3-1.5,0.9-4-1-5.6c0,0-0.1-0.1-0.1-0.1l-4.7,5.5
				C25.1,78.7,25.2,78.7,25.2,78.8z"/>
		</g>
		<g>
			<path class="st20" d="M20.7,84.1c1.8,1.6,4.4,1.6,5.7,0.1c1.3-1.5,0.9-4-1-5.6c0,0-0.1-0.1-0.1-0.1L20.5,84
				C20.6,84,20.6,84.1,20.7,84.1z"/>
		</g>
	</g>
	<polygon class="st21" points="104.4,53.7 117.2,35.7 117.2,38.1 106.2,53.7 	"/>
	<g>
		<g>
			<rect x="82.1" y="27.8" class="st19" width="49.3" height="42.2"/>
			<rect x="84.6" y="35" class="st16" width="9.7" height="23.5"/>
			<rect x="118.8" y="35.1" class="st16" width="9.7" height="23.5"/>
			<rect x="97.4" y="35" class="st16" width="19.3" height="23.1"/>
			<rect x="84.6" y="35" class="st22" width="3.2" height="23.1"/>
			<rect x="84.6" y="35" class="st22" width="9.7" height="3.1"/>
			<rect x="83.5" y="41.2" class="st19" width="45.9" height="1.6"/>
			<rect x="84.8" y="61.9" class="st23" width="8.4" height="5.8"/>
			<rect x="120.1" y="61.8" class="st23" width="8.4" height="5.8"/>
			<rect x="98.2" y="61.9" class="st23" width="17.9" height="5.8"/>
			<rect x="97.4" y="35" class="st22" width="19.3" height="3.2"/>
			<rect x="118.8" y="34.8" class="st22" width="9.8" height="3.2"/>
			<rect x="82.1" y="30.3" class="st16" width="49.3" height="1.3"/>
		</g>
		<g class="st24">
			<polygon class="st25" points="118.8,58.7 118.9,58.7 118.9,58.6 			"/>
		</g>
		<g>
			<g class="st24">
				<polygon class="st26" points="128.6,44.9 128.6,42.8 118.8,54.9 118.8,57.2 				"/>
				<polygon class="st26" points="128.6,51.4 128.6,46.6 118.8,58.6 118.8,58.7 122.2,58.7 				"/>
				<polygon class="st25" points="118.8,58.7 118.8,58.7 118.8,58.6 				"/>
			</g>
			<g class="st24">
				<polygon class="st26" points="94.3,44.8 94.4,42.8 84.6,54.9 84.6,57.1 				"/>
				<polygon class="st26" points="94.4,51.3 94.3,46.5 84.6,58.5 84.6,58.6 87.9,58.6 				"/>
				<polygon class="st25" points="84.5,58.6 84.6,58.6 84.6,58.5 				"/>
			</g>
			<g class="st24">
				<polygon class="st26" points="116.7,44.9 116.7,42.8 104.4,58.1 106.2,58 				"/>
				<polygon class="st26" points="116.7,51.4 116.7,46.6 107.4,58.1 107.4,58.1 110.8,58.1 				"/>
				<polygon class="st25" points="106.9,58.6 107,58.6 107,58.5 				"/>
			</g>
		</g>
	</g>
	<g>
		<g>
			<rect x="54.5" y="86.5" class="st19" width="49.3" height="42.2"/>
			<rect x="57" y="93.6" class="st16" width="9.7" height="23.5"/>
			<rect x="91.2" y="93.7" class="st16" width="9.7" height="23.5"/>
			<rect x="69.8" y="93.6" class="st16" width="19.3" height="23.1"/>
			<rect x="57" y="93.7" class="st22" width="3.2" height="23.1"/>
			<rect x="57" y="93.6" class="st22" width="9.7" height="3.1"/>
			<rect x="55.9" y="99.9" class="st19" width="45.9" height="1.6"/>
			<rect x="57.2" y="120.5" class="st23" width="8.4" height="5.8"/>
			<rect x="92.4" y="120.5" class="st23" width="8.4" height="5.8"/>
			<rect x="70.5" y="120.5" class="st23" width="17.9" height="5.8"/>
			<rect x="69.8" y="93.7" class="st22" width="19.3" height="3.2"/>
			<rect x="91.2" y="93.4" class="st22" width="9.7" height="3.2"/>
			<rect x="54.5" y="88.9" class="st16" width="49.3" height="1.3"/>
		</g>
		<g>
			<g class="st24">
				<polygon class="st26" points="101,103.6 101,101.5 91.2,113.6 91.2,115.8 				"/>
				<polygon class="st26" points="101,110.1 100.9,105.2 91.2,117.2 91.2,117.3 94.6,117.3 				"/>
				<polygon class="st25" points="91.1,117.3 91.2,117.3 91.2,117.2 				"/>
			</g>
			<g class="st24">
				<polygon class="st26" points="66.7,103.5 66.7,101.4 57,113.5 57,115.7 				"/>
				<polygon class="st26" points="66.7,110 66.7,105.1 57,117.1 57,117.2 60.3,117.2 				"/>
				<polygon class="st25" points="56.9,117.2 57,117.2 57,117.1 				"/>
			</g>
			<g class="st24">
				<polygon class="st26" points="89.1,103.5 89.1,101.4 76.8,116.7 78.6,116.7 				"/>
				<polygon class="st26" points="89.1,110 89.1,105.2 79.7,116.7 79.7,116.7 83.2,116.7 				"/>
				<polygon class="st25" points="79.3,117.3 79.3,117.3 79.3,117.2 				"/>
			</g>
		</g>
	</g>
	<rect x="101" y="138.3" class="st27" width="12.5" height="26.4"/>
	<rect x="100.7" y="164.8" class="st28" width="12.7" height="9.1"/>
	<polyline class="st29" points="101,141.5 109.3,141.5 109.3,159.8 101,159.8 	"/>
	<g>
		<rect x="175.2" y="143.9" class="st17" width="11.7" height="16.5"/>
		<g>
			<rect x="30.7" y="141.5" class="st17" width="15.5" height="18.2"/>
			<rect x="51.9" y="141.5" class="st17" width="15.5" height="18.2"/>
			<rect x="72.8" y="141.5" class="st17" width="15.5" height="18.2"/>
			<polyline class="st17" points="101.1,141.5 92.9,141.5 92.9,159.8 101.1,159.8 			"/>
		</g>
	</g>
	<rect x="13.9" y="138.4" class="st27" width="12.7" height="26.4"/>
	<rect x="14" y="164.7" class="st28" width="12.6" height="9.7"/>
	<g>
		<path class="st19" d="M173.6,88.3h-60.9c-1.1,0-2-0.9-2-2v-7c0-1.1,0.9-2,2-2h60.9c1.1,0,2,0.9,2,2v7
			C175.6,87.4,174.7,88.3,173.6,88.3z"/>
		<rect x="114.8" y="91.7" class="st19" width="6.4" height="40.1"/>
		<rect x="113.5" y="87.5" class="st30" width="9.1" height="5.3"/>
		
			<rect x="165.2" y="91.8" transform="matrix(-1 -1.224647e-16 1.224647e-16 -1 336.7771 223.7315)" class="st19" width="6.4" height="40.1"/>
		
			<rect x="163.8" y="87.6" transform="matrix(-1 -1.224647e-16 1.224647e-16 -1 336.6375 180.5895)" class="st30" width="9.1" height="5.3"/>
		<rect x="113.4" y="79.5" class="st23" width="59" height="5.7"/>
		<rect x="161" y="135.9" class="st19" width="11.9" height="38.1"/>
		<rect x="114.3" y="130.9" class="st30" width="8.3" height="4.6"/>
		
			<rect x="163.8" y="131.1" transform="matrix(-1 -1.224647e-16 1.224647e-16 -1 335.8696 267.0133)" class="st30" width="8.3" height="4.9"/>
		<rect x="121.7" y="135.5" class="st31" width="3.7" height="38.7"/>
		<rect x="161" y="135.9" class="st31" width="3.7" height="37.8"/>
	</g>
	<polyline class="st5" points="89,17.5 135.9,17.5 130.1,9.7 88.5,10.2 88.8,15.8 89.6,17.1 	"/>
	<g>
		<g>
			<path class="st20" d="M89.2,9.5c0,2.4,1.6,4.4,3.5,4.4c1.9,0,3.4-2,3.4-4.5c0-0.1,0-0.1,0-0.2l-6.8,0.1
				C89.2,9.4,89.2,9.5,89.2,9.5z"/>
		</g>
		<g>
			<path class="st20" d="M96.1,9.4c0,2.4,1.6,4.4,3.5,4.4c1.9,0,3.4-2,3.4-4.5c0-0.1,0-0.1,0-0.2l-6.8,0.1
				C96.1,9.2,96.1,9.3,96.1,9.4z"/>
		</g>
		<g>
			<path class="st20" d="M102.8,9.3c0,2.4,1.6,4.4,3.5,4.4c1.9,0,3.4-2,3.4-4.5c0-0.1,0-0.1,0-0.2l-6.8,0.1
				C102.8,9.2,102.8,9.2,102.8,9.3z"/>
		</g>
		<g>
			<path class="st20" d="M109.5,9.2c0,2.4,1.6,4.4,3.5,4.4c1.9,0,3.4-2,3.4-4.5c0-0.1,0-0.1,0-0.2L109.5,9
				C109.5,9.1,109.5,9.1,109.5,9.2z"/>
		</g>
		<g>
			<path class="st20" d="M116.3,9.5c0,2.4,1.6,4.4,3.5,4.4c1.9,0,3.4-2,3.4-4.5c0-0.1,0-0.1,0-0.2l-6.8,0.1
				C116.3,9.4,116.3,9.5,116.3,9.5z"/>
		</g>
	</g>
	<g>
		<polyline class="st32" points="200.8,81.1 200.4,103 125.5,17.3 131.4,5.3 187.9,68.3 		"/>
		<g class="st7">
			<g>
				<path class="st8" d="M132.3,12.2c-2.4,2.1-5.5,2.4-6.8,0.8c-1.4-1.6-0.5-4.6,1.9-6.6c0.1-0.1,0.1-0.1,0.2-0.1l4.9,5.8
					C132.4,12.1,132.3,12.2,132.3,12.2z"/>
			</g>
			<g>
				<path class="st8" d="M132.3,12.2c-2.4,2.1-5.5,2.4-6.8,0.8c-1.4-1.6-0.5-4.6,1.9-6.6c0.1-0.1,0.1-0.1,0.2-0.1l4.9,5.8
					C132.4,12.1,132.3,12.2,132.3,12.2z"/>
			</g>
			<g>
				<path class="st8" d="M137,17.8c-2.4,2.1-5.5,2.4-6.8,0.8c-1.4-1.6-0.5-4.6,1.9-6.6c0.1-0.1,0.1-0.1,0.2-0.1l4.9,5.8
					C137.1,17.7,137.1,17.8,137,17.8z"/>
			</g>
			<g>
				<path class="st8" d="M137,17.8c-2.4,2.1-5.5,2.4-6.8,0.8c-1.4-1.6-0.5-4.6,1.9-6.6c0.1-0.1,0.1-0.1,0.2-0.1l4.9,5.8
					C137.1,17.7,137.1,17.8,137,17.8z"/>
			</g>
			<g>
				<path class="st8" d="M141.8,23.4c-2.4,2.1-5.5,2.4-6.8,0.8c-1.4-1.6-0.5-4.6,1.9-6.6c0.1-0.1,0.1-0.1,0.2-0.1l4.9,5.8
					C141.9,23.3,141.9,23.4,141.8,23.4z"/>
			</g>
			<g>
				<path class="st8" d="M141.8,23.4c-2.4,2.1-5.5,2.4-6.8,0.8c-1.4-1.6-0.5-4.6,1.9-6.6c0.1-0.1,0.1-0.1,0.2-0.1l4.9,5.8
					C141.9,23.3,141.9,23.4,141.8,23.4z"/>
			</g>
			<g>
				<path class="st8" d="M146.6,29c-2.4,2.1-5.5,2.4-6.8,0.8c-1.4-1.6-0.5-4.6,1.9-6.6c0.1-0.1,0.1-0.1,0.2-0.1l4.9,5.8
					C146.7,28.9,146.6,28.9,146.6,29z"/>
			</g>
			<g>
				<path class="st8" d="M146.6,29c-2.4,2.1-5.5,2.4-6.8,0.8c-1.4-1.6-0.5-4.6,1.9-6.6c0.1-0.1,0.1-0.1,0.2-0.1l4.9,5.8
					C146.7,28.9,146.6,28.9,146.6,29z"/>
			</g>
			<g>
				<path class="st8" d="M151.3,34.6c-2.4,2.1-5.5,2.4-6.8,0.8s-0.5-4.6,1.9-6.6c0.1-0.1,0.1-0.1,0.2-0.1l4.9,5.8
					C151.4,34.5,151.4,34.5,151.3,34.6z"/>
			</g>
			<g>
				<path class="st8" d="M151.3,34.6c-2.4,2.1-5.5,2.4-6.8,0.8s-0.5-4.6,1.9-6.6c0.1-0.1,0.1-0.1,0.2-0.1l4.9,5.8
					C151.4,34.5,151.4,34.5,151.3,34.6z"/>
			</g>
			<g>
				<path class="st8" d="M156.1,40.2c-2.4,2.1-5.5,2.4-6.8,0.8c-1.4-1.6-0.5-4.6,1.9-6.6c0.1-0.1,0.1-0.1,0.2-0.1l4.9,5.8
					C156.2,40.1,156.2,40.1,156.1,40.2z"/>
			</g>
			<g>
				<path class="st8" d="M156.1,40.2c-2.4,2.1-5.5,2.4-6.8,0.8c-1.4-1.6-0.5-4.6,1.9-6.6c0.1-0.1,0.1-0.1,0.2-0.1l4.9,5.8
					C156.2,40.1,156.2,40.1,156.1,40.2z"/>
			</g>
			<g>
				<path class="st8" d="M160.9,45.8c-2.4,2.1-5.5,2.4-6.8,0.8c-1.4-1.6-0.5-4.6,1.9-6.6c0.1-0.1,0.1-0.1,0.2-0.1l4.9,5.8
					C161,45.7,160.9,45.7,160.9,45.8z"/>
			</g>
			<g>
				<path class="st8" d="M160.9,45.8c-2.4,2.1-5.5,2.4-6.8,0.8c-1.4-1.6-0.5-4.6,1.9-6.6c0.1-0.1,0.1-0.1,0.2-0.1l4.9,5.8
					C161,45.7,160.9,45.7,160.9,45.8z"/>
			</g>
			<g>
				<path class="st8" d="M165.6,51.3c-2.4,2.1-5.5,2.4-6.8,0.8c-1.4-1.6-0.5-4.6,1.9-6.6c0.1-0.1,0.1-0.1,0.2-0.1l4.9,5.8
					C165.7,51.2,165.7,51.3,165.6,51.3z"/>
			</g>
			<g>
				<path class="st8" d="M165.6,51.3c-2.4,2.1-5.5,2.4-6.8,0.8c-1.4-1.6-0.5-4.6,1.9-6.6c0.1-0.1,0.1-0.1,0.2-0.1l4.9,5.8
					C165.7,51.2,165.7,51.3,165.6,51.3z"/>
			</g>
			<g>
				<path class="st8" d="M170.4,56.9c-2.4,2.1-5.5,2.4-6.8,0.8c-1.4-1.6-0.5-4.6,1.9-6.6c0.1-0.1,0.1-0.1,0.2-0.1l4.9,5.8
					C170.5,56.8,170.5,56.9,170.4,56.9z"/>
			</g>
			<g>
				<path class="st8" d="M170.4,56.9c-2.4,2.1-5.5,2.4-6.8,0.8c-1.4-1.6-0.5-4.6,1.9-6.6c0.1-0.1,0.1-0.1,0.2-0.1l4.9,5.8
					C170.5,56.8,170.5,56.9,170.4,56.9z"/>
			</g>
			<g>
				<path class="st8" d="M175.2,62.5c-2.4,2.1-5.5,2.4-6.8,0.8c-1.4-1.6-0.5-4.6,1.9-6.6c0.1-0.1,0.1-0.1,0.2-0.1l4.9,5.8
					C175.3,62.4,175.2,62.5,175.2,62.5z"/>
			</g>
			<g>
				<path class="st8" d="M175.2,62.5c-2.4,2.1-5.5,2.4-6.8,0.8c-1.4-1.6-0.5-4.6,1.9-6.6c0.1-0.1,0.1-0.1,0.2-0.1l4.9,5.8
					C175.3,62.4,175.2,62.5,175.2,62.5z"/>
			</g>
			<g>
				<path class="st8" d="M179.9,68.1c-2.4,2.1-5.5,2.4-6.8,0.8c-1.4-1.6-0.5-4.6,1.9-6.6c0.1-0.1,0.1-0.1,0.2-0.1l4.9,5.8
					C180,68,180,68,179.9,68.1z"/>
			</g>
			<g>
				<path class="st8" d="M179.9,68.1c-2.4,2.1-5.5,2.4-6.8,0.8c-1.4-1.6-0.5-4.6,1.9-6.6c0.1-0.1,0.1-0.1,0.2-0.1l4.9,5.8
					C180,68,180,68,179.9,68.1z"/>
			</g>
			<g>
				<path class="st8" d="M184.7,73.7c-2.4,2.1-5.5,2.4-6.8,0.8c-1.4-1.6-0.5-4.6,1.9-6.6c0.1-0.1,0.1-0.1,0.2-0.1l4.9,5.8
					C184.8,73.6,184.8,73.6,184.7,73.7z"/>
			</g>
			<g>
				<path class="st8" d="M184.7,73.7c-2.4,2.1-5.5,2.4-6.8,0.8c-1.4-1.6-0.5-4.6,1.9-6.6c0.1-0.1,0.1-0.1,0.2-0.1l4.9,5.8
					C184.8,73.6,184.8,73.6,184.7,73.7z"/>
			</g>
			<g>
				<path class="st8" d="M189.5,79.3c-2.4,2.1-5.5,2.4-6.8,0.8c-1.4-1.6-0.5-4.6,1.9-6.6c0.1-0.1,0.1-0.1,0.2-0.1l4.9,5.8
					C189.6,79.2,189.5,79.2,189.5,79.3z"/>
			</g>
			<g>
				<path class="st8" d="M189.5,79.3c-2.4,2.1-5.5,2.4-6.8,0.8c-1.4-1.6-0.5-4.6,1.9-6.6c0.1-0.1,0.1-0.1,0.2-0.1l4.9,5.8
					C189.6,79.2,189.5,79.2,189.5,79.3z"/>
			</g>
			<g>
				<path class="st8" d="M194.2,84.9c-2.4,2.1-5.5,2.4-6.8,0.8c-1.4-1.6-0.5-4.6,1.9-6.6c0.1-0.1,0.1-0.1,0.2-0.1l4.9,5.8
					C194.3,84.8,194.3,84.8,194.2,84.9z"/>
			</g>
		</g>
		<polygon class="st9" points="171.3,70.2 181.8,70.1 186.9,73.1 174.3,73.6 		"/>
		<polygon class="st10" points="174.3,73.6 177.8,77.5 188.9,77.5 186.8,73.1 		"/>
	</g>
	<g>
		<g>
			<path class="st20" d="M133.6,12.6c-1.8,1.6-4.4,1.6-5.7,0.1c-1.3-1.5-0.9-4,1-5.6c0,0,0.1-0.1,0.1-0.1l4.7,5.5
				C133.7,12.5,133.6,12.6,133.6,12.6z"/>
		</g>
		<g>
			<path class="st20" d="M133.6,12.6c-1.8,1.6-4.4,1.6-5.7,0.1c-1.3-1.5-0.9-4,1-5.6c0,0,0.1-0.1,0.1-0.1l4.7,5.5
				C133.7,12.5,133.6,12.6,133.6,12.6z"/>
		</g>
		<g>
			<path class="st20" d="M138.1,17.9c-1.8,1.6-4.4,1.6-5.7,0.1c-1.3-1.5-0.9-4,1-5.6c0,0,0.1-0.1,0.1-0.1l4.7,5.5
				C138.2,17.9,138.2,17.9,138.1,17.9z"/>
		</g>
		<g>
			<path class="st20" d="M138.1,17.9c-1.8,1.6-4.4,1.6-5.7,0.1c-1.3-1.5-0.9-4,1-5.6c0,0,0.1-0.1,0.1-0.1l4.7,5.5
				C138.2,17.9,138.2,17.9,138.1,17.9z"/>
		</g>
		<g>
			<path class="st20" d="M142.7,23.3c-1.8,1.6-4.4,1.6-5.7,0.1c-1.3-1.5-0.9-4,1-5.6c0,0,0.1-0.1,0.1-0.1l4.7,5.5
				C142.8,23.2,142.7,23.2,142.7,23.3z"/>
		</g>
		<g>
			<path class="st20" d="M142.7,23.3c-1.8,1.6-4.4,1.6-5.7,0.1c-1.3-1.5-0.9-4,1-5.6c0,0,0.1-0.1,0.1-0.1l4.7,5.5
				C142.8,23.2,142.7,23.2,142.7,23.3z"/>
		</g>
		<g>
			<path class="st20" d="M147.2,28.6c-1.8,1.6-4.4,1.6-5.7,0.1c-1.3-1.5-0.9-4,1-5.6c0,0,0.1-0.1,0.1-0.1l4.7,5.5
				C147.3,28.5,147.3,28.6,147.2,28.6z"/>
		</g>
		<g>
			<path class="st20" d="M147.2,28.6c-1.8,1.6-4.4,1.6-5.7,0.1c-1.3-1.5-0.9-4,1-5.6c0,0,0.1-0.1,0.1-0.1l4.7,5.5
				C147.3,28.5,147.3,28.6,147.2,28.6z"/>
		</g>
		<g>
			<path class="st20" d="M151.8,33.9c-1.8,1.6-4.4,1.6-5.7,0.1c-1.3-1.5-0.9-4,1-5.6c0,0,0.1-0.1,0.1-0.1l4.7,5.5
				C151.9,33.9,151.8,33.9,151.8,33.9z"/>
		</g>
		<g>
			<path class="st20" d="M151.8,33.9c-1.8,1.6-4.4,1.6-5.7,0.1c-1.3-1.5-0.9-4,1-5.6c0,0,0.1-0.1,0.1-0.1l4.7,5.5
				C151.9,33.9,151.8,33.9,151.8,33.9z"/>
		</g>
		<g>
			<path class="st20" d="M156.3,39.3c-1.8,1.6-4.4,1.6-5.7,0.1c-1.3-1.5-0.9-4,1-5.6c0,0,0.1-0.1,0.1-0.1l4.7,5.5
				C156.4,39.2,156.4,39.2,156.3,39.3z"/>
		</g>
		<g>
			<path class="st20" d="M156.3,39.3c-1.8,1.6-4.4,1.6-5.7,0.1c-1.3-1.5-0.9-4,1-5.6c0,0,0.1-0.1,0.1-0.1l4.7,5.5
				C156.4,39.2,156.4,39.2,156.3,39.3z"/>
		</g>
		<g>
			<path class="st20" d="M160.9,44.6c-1.8,1.6-4.4,1.6-5.7,0.1c-1.3-1.5-0.9-4,1-5.6c0,0,0.1-0.1,0.1-0.1l4.7,5.5
				C161,44.5,160.9,44.6,160.9,44.6z"/>
		</g>
		<g>
			<path class="st20" d="M160.9,44.6c-1.8,1.6-4.4,1.6-5.7,0.1c-1.3-1.5-0.9-4,1-5.6c0,0,0.1-0.1,0.1-0.1l4.7,5.5
				C161,44.5,160.9,44.6,160.9,44.6z"/>
		</g>
		<g>
			<path class="st20" d="M165.4,50c-1.8,1.6-4.4,1.6-5.7,0.1c-1.3-1.5-0.9-4,1-5.6c0,0,0.1-0.1,0.1-0.1l4.7,5.5
				C165.5,49.9,165.5,49.9,165.4,50z"/>
		</g>
		<g>
			<path class="st20" d="M165.4,50c-1.8,1.6-4.4,1.6-5.7,0.1c-1.3-1.5-0.9-4,1-5.6c0,0,0.1-0.1,0.1-0.1l4.7,5.5
				C165.5,49.9,165.5,49.9,165.4,50z"/>
		</g>
		<g>
			<path class="st20" d="M170,55.3c-1.8,1.6-4.4,1.6-5.7,0.1c-1.3-1.5-0.9-4,1-5.6c0,0,0.1-0.1,0.1-0.1l4.7,5.5
				C170.1,55.2,170,55.3,170,55.3z"/>
		</g>
		<g>
			<path class="st20" d="M170,55.3c-1.8,1.6-4.4,1.6-5.7,0.1c-1.3-1.5-0.9-4,1-5.6c0,0,0.1-0.1,0.1-0.1l4.7,5.5
				C170.1,55.2,170,55.3,170,55.3z"/>
		</g>
		<g>
			<path class="st20" d="M174.6,60.6c-1.8,1.6-4.4,1.6-5.7,0.1c-1.3-1.5-0.9-4,1-5.6c0,0,0.1-0.1,0.1-0.1l4.7,5.5
				C174.6,60.6,174.6,60.6,174.6,60.6z"/>
		</g>
		<g>
			<path class="st20" d="M179.1,66c-1.8,1.6-4.4,1.6-5.7,0.1c-1.3-1.5-0.9-4,1-5.6c0,0,0.1-0.1,0.1-0.1l4.7,5.5
				C179.2,65.9,179.2,65.9,179.1,66z"/>
		</g>
		<g>
			<path class="st20" d="M183.7,71.3c-1.8,1.6-4.4,1.6-5.7,0.1c-1.3-1.5-0.9-4,1-5.6c0,0,0.1-0.1,0.1-0.1l4.7,5.5
				C183.7,71.2,183.7,71.3,183.7,71.3z"/>
		</g>
		<g>
			<path class="st20" d="M183.7,71.3c-1.8,1.6-4.4,1.6-5.7,0.1c-1.3-1.5-0.9-4,1-5.6c0,0,0.1-0.1,0.1-0.1l4.7,5.5
				C183.7,71.2,183.7,71.3,183.7,71.3z"/>
		</g>
		<g>
			<path class="st20" d="M188.2,76.7c-1.8,1.6-4.4,1.6-5.7,0.1c-1.3-1.5-0.9-4,1-5.6c0,0,0.1-0.1,0.1-0.1l4.7,5.5
				C188.3,76.6,188.3,76.6,188.2,76.7z"/>
		</g>
		<g>
			<path class="st20" d="M192.8,82c-1.8,1.6-4.4,1.6-5.7,0.1c-1.3-1.5-0.9-4,1-5.6c0,0,0.1-0.1,0.1-0.1l4.7,5.5
				C192.9,81.9,192.8,82,192.8,82z"/>
		</g>
	</g>
	<g>
		<polygon class="st19" points="135.2,0 81.4,0.2 0,96.4 13.9,96.4 86.1,10.3 129.2,10.3 202,96.1 214.2,96.4 		"/>
		<polygon class="st33" points="203.5,93.5 206.7,93.8 132.5,4.5 82.6,4.2 82.5,4.2 8.1,94 10.4,94.1 83.6,6 131.4,6 		"/>
	</g>
	<g>
		<path class="st34" d="M205.2,175.3V139c0-2-1.7-3.7-3.7-3.7l0,0c-2,0-3.7,1.7-3.7,3.7l-0.1,36.3L205.2,175.3z"/>
		<path class="st34" d="M219,175.3V139c0-2-1.7-3.7-3.7-3.7l0,0c-2,0-3.7,1.7-3.7,3.7l0,36.3L219,175.3z"/>
		<path class="st34" d="M232,175.3V139c0-2-1.7-3.7-3.7-3.7l0,0c-2,0-3.7,1.7-3.7,3.7l0,36.3L232,175.3z"/>
		<path class="st34" d="M245,175.3V139c0-2-1.7-3.7-3.7-3.7l0,0c-2,0-3.7,1.7-3.7,3.7l0.1,36.3L245,175.3z"/>
		<path class="st34" d="M258,175.3V139c0-2-1.7-3.7-3.7-3.7l0,0c-2,0-3.7,1.7-3.7,3.7l-0.1,36.3L258,175.3z"/>
		<path class="st34" d="M271,175.3V139c0-2-1.7-3.7-3.7-3.7h0c-2,0-3.7,1.7-3.7,3.7l-0.1,36.3L271,175.3z"/>
		<path class="st34" d="M284,175.3V139c0-2-1.7-3.7-3.7-3.7l0,0c-2,0-3.7,1.7-3.7,3.7l-0.1,36.3L284,175.3z"/>
		<rect x="198.5" y="145.3" class="st34" width="84.4" height="2.9"/>
		<rect x="198.5" y="164.8" class="st34" width="85.3" height="2.9"/>
	</g>
</g>
</svg>
