<?xml version="1.0" encoding="utf-8"?>
<!-- Generator: Adobe Illustrator 21.0.1, SVG Export Plug-In . SVG Version: 6.00 Build 0)  -->
<svg version="1.1" id="objects" xmlns="http://www.w3.org/2000/svg" xmlns:xlink="http://www.w3.org/1999/xlink" x="0px" y="0px"
	 viewBox="0 0 320.9 220.7" style="enable-background:new 0 0 320.9 220.7;" xml:space="preserve">
<style type="text/css">
	.st0{fill:#A8A18E;}
	.st1{fill:#FFF6DE;}
	.st2{fill:#C4BDA9;}
	.st3{fill:#153233;}
	.st4{fill:#AFA794;}
	.st5{fill:#FFF6DE;stroke:#C6BC9E;stroke-miterlimit:10;}
	.st6{fill:#D6D0BD;}
	.st7{fill:#BCB3A0;}
	.st8{fill:#968E7C;}
	.st9{fill:#2C555B;}
	.st10{opacity:0.5;fill:#214447;}
	.st11{fill:none;stroke:#58C3E8;stroke-miterlimit:10;}
	.st12{opacity:0.3;fill:#BCAE8F;}
	.st13{fill:#827671;}
	.st14{opacity:0.57;fill:none;stroke:#FFFFFF;stroke-miterlimit:10;}
	.st15{fill:#BFB7A1;}
	.st16{fill:#938D7C;}
	.st17{fill:#5B504D;}
	.st18{fill:#427B7F;}
	.st19{fill:#1F3F42;}
	.st20{fill:none;stroke:#FFF6DE;stroke-miterlimit:10;}
	.st21{fill:#3C6F70;}
	.st22{fill:#AAA393;}
	.st23{fill:#EDE3CC;}
	.st24{fill:#DDD3BA;}
</style>
<g>
	<rect x="85.1" y="151.4" class="st0" width="100" height="61"/>
	<path class="st1" d="M86.6,169.7c2.7-5.8,9.6-13.3,9.6-13.3l-3.3,0.1c-2.1,1.1-4.6,4.9-6.3,7.6v-5h0.8v-2.9h-6v2.9h1.2v39.5h0.2
		v0.9v0.3v20.8h6.7v-20.8h1.5v-2.3h-4.3V169.7z"/>
	<polygon class="st2" points="313.5,214.8 290.1,214.9 289.6,161.8 313.5,161.8 	"/>
	<polygon class="st3" points="283.5,114.4 319.4,155.8 289.5,154.8 289.3,143.8 282.8,124.8 	"/>
	<rect x="290.6" y="195.3" class="st1" width="24.7" height="3.3"/>
	<rect x="308.8" y="160.8" class="st1" width="4.8" height="35.7"/>
	<rect x="290.6" y="208.6" class="st4" width="23.2" height="6.3"/>
	<rect x="289.9" y="154.9" class="st5" width="30.3" height="3.5"/>
	<polygon class="st6" points="25,106.7 25,112.4 43.8,112.4 48.5,106.7 	"/>
	<polygon class="st0" points="26.6,111.9 26.6,127.7 42.4,111.9 	"/>
	<g>
		<polygon class="st6" points="233,61.8 228.4,61.9 216.3,45.6 216.5,9.1 233,9.1 		"/>
		<path class="st7" d="M220.1,52.6V22c0-2.5,2.1-4.6,4.6-4.6l0,0c2.5,0,4.6,2.1,4.6,4.6l0.4,41.5"/>
		<rect x="215.3" y="6.5" class="st1" width="19" height="2.8"/>
		<rect x="214.3" y="4.2" class="st6" width="21.3" height="2.4"/>
		<rect x="222.8" class="st7" width="5" height="4.3"/>
	</g>
	<rect x="159.1" y="151.7" class="st8" width="20.3" height="60.8"/>
	<polygon class="st9" points="1.1,151.9 104.6,50.4 144.6,49.4 111.3,110.1 111.6,139.9 80.8,152.9 	"/>
	<path class="st3" d="M49.2,73.8c-1,1.3-31.3,28-30.3,27.7c1-0.3,35.5-0.7,35.5-0.7l26.4-26.7L49.2,73.8z"/>
	<polygon class="st5" points="18.9,101.1 18.9,104.2 49.2,104.3 52.6,100.8 	"/>
	<polygon class="st5" points="46.2,107.2 49,104.4 20.5,104.4 20.5,107.3 25.4,107.3 25.4,107.2 	"/>
	<polygon class="st10" points="110.3,121.4 80.9,74.1 1.6,151.9 3.9,152.2 72.5,152.3 118,137.6 	"/>
	<polygon class="st6" points="181.9,8.2 149.9,51.2 199.9,115.6 231.3,71.9 	"/>
	<polygon class="st7" points="231.5,70.1 193.5,22.9 193.6,22.8 182.3,8.1 150.6,50.4 150.3,51.1 161.6,65.9 190.1,28.2 227.9,75.7 
			"/>
	<polygon class="st6" points="290.6,219.4 181.3,219.4 181.3,149.5 235.1,73.3 289.9,146.7 	"/>
	<path class="st11" d="M236.4,148.8"/>
	<path class="st11" d="M236.6,75.4"/>
	<g>
		<polygon class="st1" points="182.8,6.5 230.7,70.4 232.8,67.8 182.3,0.4 149.3,45.7 154.8,52.4 152.3,49.2 		"/>
		<polygon class="st5" points="228.9,73.1 231.4,70.1 182.4,4.2 151.9,46.9 154.4,50.2 182.3,10.1 		"/>
	</g>
	<polygon class="st2" points="148.5,50.6 109.8,103.3 110.1,140.4 181.6,140.9 198.6,117.7 	"/>
	<g>
		<rect y="152.3" class="st1" width="82" height="3"/>
		<rect x="1.8" y="155.1" class="st5" width="81.2" height="3.3"/>
		<path class="st12" d="M72.6,152.3c0,0,1.6,6.4,1.8,6.4s9.6,0.3,9.6,0.3l0.2-6.6H72.6z"/>
	</g>
	<g>
		<path class="st13" d="M185.8,78.3V57.1c0,0,5-3.4,7.6-3.4l-0.1,24.6H185.8z"/>
		<path class="st13" d="M202.6,78.2V57.1c0,0-5-3.4-7.6-3.4l0.1,24.6H202.6z"/>
	</g>
	<g>
		<path class="st14" d="M176.5,79.3l3.8,0.1l-0.3-22c-10-8.3-18.1,0.5-18.1,0.5l0.3,2.8L176.5,79.3z"/>
		<path class="st14" d="M159.6,52.1c0,0,11.3-9,20-0.7l0.3-25.7L159.6,52.1z"/>
		<path class="st14" d="M206,52c0,0-11.3-9-20-0.7l-0.3-25.7L206,52z"/>
		<polygon class="st14" points="208,77.8 207.5,56.2 225.4,77.9 		"/>
		<polygon class="st14" points="185.3,90.6 185.3,83.9 202.6,83.7 202.6,109.4 201,112.1 		"/>
		<polygon class="st14" points="207.9,101.9 207.5,83.3 221.4,83.4 		"/>
	</g>
	<polygon class="st9" points="228.4,61.9 263.6,61.8 292,92.1 258.6,91.8 236.2,63.4 232.8,67.8 	"/>
	<polygon class="st6" points="9.9,159.4 9.9,219.4 83.1,218.9 83.1,158.9 	"/>
	<polygon class="st1" points="262.7,98.1 289.9,97.9 289.6,95.1 261.1,95.4 	"/>
	<path class="st6" d="M266.9,103c0.3-0.1,18.5,0,18.5,0l-0.3-4.8l-22,0.2L266.9,103z"/>
	<polygon class="st0" points="282.9,103.1 283.5,125.2 266.9,103 	"/>
	<path class="st14" d="M269.1,106.2c0.5,0,10.8,0,10.8,0l0.2,14.1"/>
	<rect x="294.5" y="161.8" class="st1" width="10.2" height="5"/>
	<rect x="295.8" y="166.6" class="st1" width="7.3" height="30.3"/>
	<rect x="9.8" y="214.3" class="st15" width="73.2" height="6.3"/>
	<g>
		<path class="st16" d="M162.7,133.7v-26.9c0-4.8-5.8-9.1-13.6-8.7l0,0c-6.6,0-12.1,3.9-12.1,8.7v26.9
			C137,133.7,162.5,133.7,162.7,133.7z"/>
		<rect x="139.1" y="103.2" class="st13" width="8.8" height="26.3"/>
		<rect x="151.5" y="103.2" class="st13" width="8.8" height="26.3"/>
		<path class="st17" d="M130.2,99c0,0,4.6-0.3,6.7,2.4l-0.1,30.9l-6.8-0.1L130.2,99z"/>
		<path class="st17" d="M169.5,99.3c0,0-4.6-0.3-6.7,2.4l0.1,30.9l6.8-0.1L169.5,99.3z"/>
		<polygon class="st2" points="160.3,113.7 151.5,113.7 151.5,103.2 147.7,103.2 147.7,113.7 139.1,113.7 139.1,115.4 147.7,115.4 
			147.7,131.5 151.5,131.5 151.5,115.4 160.3,115.4 		"/>
	</g>
	<rect x="149" y="157.9" class="st0" width="1.5" height="49.4"/>
	<path class="st18" d="M74,149.6c0.7-0.3,36-9.7,36-9.7l69.4-0.2l2.5,0.2l-7.6,10L74,149.6z"/>
	<ellipse class="st13" cx="106.9" cy="175.4" rx="6.3" ry="6.4"/>
	<g>
		<path class="st1" d="M200.6,114.7l2.4-3l-55.2-72.2l-56.7,79.5c1.9,0.1,3.5,0.1,5.1,0.1l52.2-73.6L200.6,114.7z"/>
		<path class="st5" d="M198.3,118.4l2.3-3.7l-52.2-69.3l-52.8,73.3c1.3,0,3.1,0.1,4.6,0.1L149,54.1L198.3,118.4z"/>
	</g>
	<polygon class="st0" points="109.8,106.8 110,114.4 152.8,58.4 148.9,53.8 	"/>
	<polygon class="st19" points="100.6,119.7 110,139.9 109.8,106.8 	"/>
	<polygon class="st0" points="149.4,60.9 194.2,121.3 196.9,116.9 150.1,55.4 	"/>
	<g>
		<path class="st13" d="M222.3,195.2v-50.6c0-7.2,5.9-13,13-13l0,0c8.4-0.6,15.4,5.6,15.4,12.8l-0.7,50.3c0,0.2,0.1,0.5,0,0.5
			c-5.4,0-19.7,0.2-27.6,0.2C222.3,195.4,222.3,195.3,222.3,195.2z"/>
		<path class="st20" d="M227.5,195.3l0.7-45.1c0-7.2,3.5-11.9,8-12l-0.2,0c7.4-0.5,8.9,4.8,8.9,12v44.7c0,0.2,0,0,0,0"/>
		<g>
			<rect x="204.9" y="146.7" class="st13" width="13.5" height="48.3"/>
			<rect x="204.9" y="158.7" class="st1" width="13.5" height="1.6"/>
			<rect x="204.9" y="161.4" class="st1" width="13.5" height="1.6"/>
			<rect x="211" y="146.7" class="st1" width="1.3" height="27.7"/>
			<rect x="204.9" y="173.6" class="st1" width="13.5" height="1.6"/>
			<rect x="204.9" y="170.8" class="st1" width="13.5" height="1.6"/>
		</g>
		<g>
			<rect x="254.1" y="146.7" class="st13" width="13.5" height="48.3"/>
			<rect x="254.1" y="158.7" class="st1" width="13.5" height="1.6"/>
			<rect x="254.1" y="161.4" class="st1" width="13.5" height="1.6"/>
			<rect x="260.2" y="146.7" class="st1" width="1.3" height="27.7"/>
			<rect x="254.2" y="173.6" class="st1" width="13.5" height="1.6"/>
			<rect x="254.1" y="170.8" class="st1" width="13.5" height="1.6"/>
		</g>
		<rect x="222.2" y="158.6" class="st1" width="28.1" height="3.3"/>
		<rect x="201.1" y="196.9" class="st1" width="70.2" height="3"/>
		<line class="st20" x1="236.2" y1="131.6" x2="236.2" y2="138.6"/>
		<g>
			<line class="st20" x1="249.1" y1="138.9" x2="243.3" y2="142.2"/>
			<line class="st20" x1="250.8" y1="150.2" x2="244.7" y2="150.2"/>
		</g>
		<g>
			<line class="st20" x1="223.6" y1="138.9" x2="229.7" y2="142.2"/>
			<line class="st20" x1="222.3" y1="150.5" x2="228.4" y2="150.5"/>
		</g>
	</g>
	<path class="st5" d="M261.1,95.4c0.4,0,31.8-0.4,31.8-0.4l-0.2-2.8l-34.5-0.3L261.1,95.4z"/>
	<polygon class="st21" points="110,139.9 174.3,148.9 181,139.8 110,139.9 	"/>
	<rect x="9.6" y="158.9" class="st15" width="72.5" height="5.7"/>
	<rect x="306.1" y="161.8" class="st22" width="2.8" height="33.6"/>
	<path class="st1" d="M113.6,171.3c1.4-5.9,10.4-15.6,10.4-15.6l-3.3,0.1c-2.5,1.4-5.6,6.4-7.1,9v-5.7h1v-2.9h-6v2.9h1v5.8
		c-1.4-2.4-4.6-7.9-7.2-9.3l-3.3-0.1c0,0,9.3,10,10.5,15.9c0,0.1,0,0.1,0.1,0.1v25.9h-2.5v2.3h0.9v13.4h6.8v-13.4h1.5v-2.3h-2.7
		V171.3z"/>
	<rect x="295.7" y="166.8" class="st23" width="7.4" height="1.9"/>
	<polygon class="st7" points="289.6,141.7 247.8,89.9 248,89.8 236.6,75.1 205,117.4 179.6,155.8 179.4,180.4 244.5,95.2 290,151.9 
			"/>
	<g>
		<path class="st17" d="M129.8,204.5l0.3-41.5c0,0,17.6-9.8,38.6,0.7l0.1,42.5v1.1l-38.9-0.4L129.8,204.5z"/>
		<rect x="133.6" y="165.7" class="st13" width="12" height="31"/>
		<rect x="153.4" y="165.7" class="st13" width="12" height="31"/>
		<g>
			<path class="st17" d="M163.1,182.7v-6.3h3.3v-0.9h-3.3v-6.2h3.3v-0.9h-3.3l0.1-3.2h-1v3.2h-5.8v-3.3h-0.9v3.3l-2.4,0.1l0,0.8
				l2.4,0v6.2l-2.3-0.1l-0.1,1h2.4v6.3l-2.3,0l-0.3,1.6l13.6,0v-1.6L163.1,182.7z M162.2,182.7l-5.8,0v-6.3h5.8V182.7z M162.2,175.5
				h-5.8v-6.2h5.8V175.5z"/>
		</g>
		<g>
			<path class="st17" d="M143.6,182.9v-6.3h3.3v-0.9h-3.3v-6.2h3.3v-0.9h-3.3l0.1-3.2h-1v3.2h-5.8v-3.3H136v3.3l-2.4,0.1l0,0.8
				l2.4,0v6.2l-2.3-0.1l-0.1,1h2.4v6.3l-2.3,0l-0.3,1.6l13.6,0v-1.6L143.6,182.9z M142.7,182.9l-5.8,0v-6.3h5.8V182.9z M142.7,175.7
				h-5.8v-6.2h5.8V175.7z"/>
		</g>
	</g>
	<g>
		<path class="st5" d="M22.8,217.3l0.4-44.1c0,0,25.2-10.4,55.2,0.8l0.1,45.1v1.1l-55.6-0.4L22.8,217.3z"/>
		<rect x="66.5" y="175.8" class="st0" width="8.8" height="7.3"/>
		<rect x="53.6" y="175.8" class="st0" width="8.8" height="7.3"/>
		<rect x="40" y="175.8" class="st0" width="8.8" height="7.3"/>
		<rect x="26.6" y="175.8" class="st0" width="8.7" height="7.3"/>
		<g>
			<rect x="26" y="185.9" class="st5" width="49" height="34"/>
			<line class="st5" x1="25.8" y1="191.4" x2="75" y2="191.4"/>
			<line class="st5" x1="26.1" y1="197.4" x2="75.4" y2="197.4"/>
			<line class="st5" x1="26.1" y1="202.8" x2="75.4" y2="202.8"/>
			<line class="st5" x1="26.1" y1="208.7" x2="75.4" y2="208.7"/>
			<line class="st5" x1="26" y1="213.3" x2="75.3" y2="213.3"/>
		</g>
	</g>
	<g>
		<rect x="72.8" y="149.6" class="st1" width="106.1" height="3.2"/>
		<rect x="81.6" y="153.1" class="st5" width="93.8" height="3.5"/>
	</g>
	<path class="st1" d="M183.9,197.4h-0.5l-0.2-46.7l-3.7,5l0,6c-1.2-2.2-3-4.7-4.8-5.7l-3.3-0.1c0,0,5.5,5.1,8.1,10.1l0.1,31.4h-4
		v2.3h0.9v20.6h7.1v-20.6h0.1V197.4z"/>
	<rect x="290" y="158.4" class="st24" width="30.9" height="3.4"/>
	<rect x="184.1" y="212.3" class="st15" width="106.1" height="6.3"/>
	<rect x="136.8" y="129.4" class="st1" width="26.2" height="4.5"/>
	<g>
		<polygon class="st5" points="303,151.3 236.2,63.4 170.1,156.1 175.6,161.4 236.7,75.3 296.8,156.1 		"/>
		<polygon class="st5" points="300,153.3 236.7,69.5 173,158.8 175.6,161.4 236.7,75.7 296.8,156.1 		"/>
	</g>
	<rect x="128.3" y="201.5" class="st1" width="42.7" height="11.4"/>
</g>
</svg>
