<?xml version="1.0" encoding="utf-8"?>
<!-- Generator: Adobe Illustrator 21.0.1, SVG Export Plug-In . SVG Version: 6.00 Build 0)  -->
<svg version="1.1" id="Object" xmlns="http://www.w3.org/2000/svg" xmlns:xlink="http://www.w3.org/1999/xlink" x="0px" y="0px"
	 viewBox="0 0 685.7 202.9" style="enable-background:new 0 0 685.7 202.9;" xml:space="preserve">
<style type="text/css">
	.st0{fill:#FFFFFF;stroke:#C4C4C4;stroke-width:2;stroke-linecap:round;stroke-linejoin:round;stroke-miterlimit:10;}
</style>
<g>
	<g>
		<rect x="67.6" y="116.9" class="st0" width="31.6" height="85"/>
		<rect x="64.4" y="112" class="st0" width="37.9" height="6.1"/>
		<rect x="64.4" y="133.6" class="st0" width="37.9" height="6.1"/>
		<rect x="64.4" y="155.2" class="st0" width="37.9" height="6.1"/>
		<rect x="64.4" y="176.8" class="st0" width="37.9" height="6.1"/>
		<rect x="72.7" y="121.8" class="st0" width="7.6" height="7.4"/>
		<rect x="86.5" y="121.8" class="st0" width="7.6" height="7.4"/>
		<rect x="72.7" y="143.8" class="st0" width="7.6" height="7.4"/>
		<rect x="86.5" y="143.8" class="st0" width="7.6" height="7.4"/>
		<rect x="72.7" y="165.7" class="st0" width="7.6" height="7.4"/>
		<rect x="86.5" y="165.7" class="st0" width="7.6" height="7.4"/>
		<rect x="72.7" y="187.7" class="st0" width="7.6" height="7.4"/>
		<rect x="86.5" y="187.7" class="st0" width="7.6" height="7.4"/>
	</g>
	<g>
		<rect x="99.9" y="154.7" class="st0" width="39.7" height="47.2"/>
		<rect x="99.9" y="177.1" class="st0" width="39.7" height="8"/>
		<rect x="99.9" y="154.7" class="st0" width="39.7" height="3.8"/>
		<rect x="99.9" y="198.5" class="st0" width="39.7" height="3.4"/>
		<rect x="106.7" y="162.7" class="st0" width="8.8" height="8.6"/>
		<rect x="123.9" y="162.7" class="st0" width="8.8" height="8.6"/>
		<rect x="106.7" y="187.4" class="st0" width="8.8" height="8.6"/>
		<rect x="123.9" y="187.4" class="st0" width="8.8" height="8.6"/>
		<polygon class="st0" points="139.6,154.7 119.7,131.9 99.2,154.7 		"/>
		<polygon class="st0" points="129.6,150.4 119.6,138.8 109.2,150.4 		"/>
	</g>
	<g>
		<rect x="609" y="154.7" class="st0" width="39.7" height="47.2"/>
		<rect x="609" y="177.1" class="st0" width="39.7" height="8"/>
		<rect x="609" y="154.7" class="st0" width="39.7" height="3.8"/>
		<rect x="609" y="198.5" class="st0" width="39.7" height="3.4"/>
		<rect x="615.9" y="162.7" class="st0" width="8.8" height="8.6"/>
		<rect x="633" y="162.7" class="st0" width="8.8" height="8.6"/>
		<rect x="615.9" y="187.4" class="st0" width="8.8" height="8.6"/>
		<rect x="633" y="187.4" class="st0" width="8.8" height="8.6"/>
		<polygon class="st0" points="648.7,154.7 628.9,131.9 608.4,154.7 		"/>
		<polygon class="st0" points="638.7,150.4 628.7,138.8 618.3,150.4 		"/>
	</g>
	<g>
		<rect x="423.4" y="96.6" class="st0" width="89.6" height="105.3"/>
		<rect x="423.4" y="196" class="st0" width="89.6" height="5.9"/>
		<rect x="435.6" y="105.1" class="st0" width="65.4" height="7"/>
		<rect x="435.6" y="118" class="st0" width="65.4" height="7"/>
		<rect x="435.6" y="130.8" class="st0" width="65.4" height="7"/>
		<rect x="435.6" y="143.7" class="st0" width="65.4" height="7"/>
		<rect x="435.6" y="156.5" class="st0" width="65.4" height="7"/>
		<rect x="435.6" y="169.4" class="st0" width="65.4" height="7"/>
		<rect x="435.6" y="182.2" class="st0" width="65.4" height="7"/>
		<rect x="435.6" y="89.6" class="st0" width="65.4" height="7"/>
		<rect x="442.5" y="80.5" class="st0" width="34.5" height="9.1"/>
		<rect x="442.5" y="63.9" class="st0" width="6.4" height="16.6"/>
	</g>
	<g>
		<rect x="380.4" y="58.4" class="st0" width="45.8" height="143.5"/>
		<rect x="388.1" y="68.8" class="st0" width="30.5" height="122.6"/>
		<line class="st0" x1="403.3" y1="68.8" x2="403.3" y2="191.4"/>
		<line class="st0" x1="388.1" y1="82.1" x2="418.6" y2="82.1"/>
		<line class="st0" x1="388.1" y1="98.4" x2="418.6" y2="98.4"/>
		<line class="st0" x1="388.1" y1="114.6" x2="418.6" y2="114.6"/>
		<line class="st0" x1="388.1" y1="130.9" x2="418.6" y2="130.9"/>
		<line class="st0" x1="388.1" y1="147.2" x2="418.6" y2="147.2"/>
		<line class="st0" x1="388.1" y1="163.4" x2="418.6" y2="163.4"/>
		<line class="st0" x1="388.1" y1="179.7" x2="418.6" y2="179.7"/>
		<rect x="386.7" y="48.9" class="st0" width="33.2" height="9.5"/>
		<rect x="380.4" y="195.1" class="st0" width="45.8" height="6.8"/>
	</g>
	<g>
		<rect x="298.4" y="195.1" class="st0" width="88.9" height="6.8"/>
		<rect x="301.7" y="75.4" class="st0" width="82.2" height="119.7"/>
		<rect x="317.7" y="63" class="st0" width="50.3" height="12.5"/>
		<rect x="339.4" y="50.5" class="st0" width="7" height="12.5"/>
		<rect x="308.4" y="82.2" class="st0" width="18.6" height="16.8"/>
		<rect x="333.5" y="82.2" class="st0" width="18.6" height="16.8"/>
		<rect x="358.7" y="82.2" class="st0" width="18.6" height="16.8"/>
		<rect x="308.4" y="104.1" class="st0" width="18.6" height="16.8"/>
		<rect x="333.5" y="104.1" class="st0" width="18.6" height="16.8"/>
		<rect x="358.7" y="104.1" class="st0" width="18.6" height="16.8"/>
		<rect x="308.4" y="125.9" class="st0" width="18.6" height="16.8"/>
		<rect x="333.5" y="125.9" class="st0" width="18.6" height="16.8"/>
		<rect x="358.7" y="125.9" class="st0" width="18.6" height="16.8"/>
		<rect x="308.4" y="147.8" class="st0" width="18.6" height="16.8"/>
		<rect x="333.5" y="147.8" class="st0" width="18.6" height="16.8"/>
		<rect x="358.7" y="147.8" class="st0" width="18.6" height="16.8"/>
		<rect x="308.4" y="169.7" class="st0" width="18.6" height="16.8"/>
		<rect x="333.5" y="169.7" class="st0" width="18.6" height="16.8"/>
		<rect x="358.7" y="169.7" class="st0" width="18.6" height="16.8"/>
	</g>
	<g>
		<rect x="186.7" y="137.6" class="st0" width="77.3" height="64.3"/>
		<rect x="196.7" y="101.6" class="st0" width="57.3" height="100.3"/>
		<rect x="206.2" y="81.4" class="st0" width="38.4" height="120.5"/>
		<rect x="212.6" y="90.2" class="st0" width="25.6" height="102.9"/>
		<line class="st0" x1="225.4" y1="90.2" x2="225.4" y2="193.1"/>
		<line class="st0" x1="212.6" y1="101.3" x2="238.2" y2="101.3"/>
		<line class="st0" x1="212.6" y1="115" x2="238.2" y2="115"/>
		<line class="st0" x1="212.6" y1="128.6" x2="238.2" y2="128.6"/>
		<line class="st0" x1="212.6" y1="142.3" x2="238.2" y2="142.3"/>
		<line class="st0" x1="212.6" y1="156" x2="238.2" y2="156"/>
		<line class="st0" x1="212.6" y1="169.6" x2="238.2" y2="169.6"/>
		<line class="st0" x1="212.6" y1="183.3" x2="238.2" y2="183.3"/>
		<rect x="211.5" y="73.4" class="st0" width="27.8" height="8"/>
		<polygon class="st0" points="239.3,73.4 211.5,43.1 211.5,73.4 		"/>
		<rect x="186.7" y="197.1" class="st0" width="77.3" height="4.8"/>
	</g>
	<g>
		<polygon class="st0" points="49,119.3 30.4,128.8 30.4,196 49,196 67.6,196 67.6,128.8 		"/>
		<polygon class="st0" points="49,125.2 30.4,134.7 30.4,201.9 49,201.9 67.6,201.9 67.6,134.7 		"/>
		<rect x="36.7" y="137.1" class="st0" width="9.1" height="13.1"/>
		<rect x="52.3" y="137.1" class="st0" width="9.1" height="13.1"/>
		<rect x="36.7" y="155.7" class="st0" width="9.1" height="13.1"/>
		<rect x="52.3" y="155.7" class="st0" width="9.1" height="13.1"/>
		<rect x="36.7" y="174.3" class="st0" width="9.1" height="13.1"/>
		<rect x="52.3" y="174.3" class="st0" width="9.1" height="13.1"/>
		<rect x="30.4" y="196" class="st0" width="37.2" height="5.9"/>
	</g>
	<g>
		<polygon class="st0" points="566.9,101.9 544.4,113.4 544.4,194.8 566.9,194.8 589.4,194.8 589.4,113.4 		"/>
		<polygon class="st0" points="566.9,109 544.4,120.6 544.4,201.9 566.9,201.9 589.4,201.9 589.4,120.6 		"/>
		<rect x="552" y="123.4" class="st0" width="11" height="15.9"/>
		<rect x="570.8" y="123.4" class="st0" width="11" height="15.9"/>
		<rect x="552" y="146" class="st0" width="11" height="15.9"/>
		<rect x="570.8" y="146" class="st0" width="11" height="15.9"/>
		<rect x="552" y="168.5" class="st0" width="11" height="15.9"/>
		<rect x="570.8" y="168.5" class="st0" width="11" height="15.9"/>
		<rect x="544.4" y="194.8" class="st0" width="45.1" height="7.1"/>
	</g>
	<g>
		<polygon class="st0" points="192.4,104.1 137,104.1 164.7,78.3 		"/>
		<polygon class="st0" points="192.4,110.8 137,110.8 164.7,85 		"/>
		<rect x="137" y="104.1" class="st0" width="55.3" height="97.8"/>
		<rect x="144.4" y="113.1" class="st0" width="40.7" height="11"/>
		<line class="st0" x1="144.4" y1="130.1" x2="185.1" y2="130.1"/>
		<rect x="144.4" y="134.8" class="st0" width="40.7" height="11"/>
		<line class="st0" x1="144.4" y1="151.8" x2="185.1" y2="151.8"/>
		<rect x="144.4" y="156.6" class="st0" width="40.7" height="11"/>
		<line class="st0" x1="144.4" y1="173.6" x2="185.1" y2="173.6"/>
		<rect x="144.4" y="178.3" class="st0" width="40.7" height="11"/>
		<line class="st0" x1="144.4" y1="195.3" x2="185.1" y2="195.3"/>
	</g>
	<g>
		<rect x="586.8" y="116.9" class="st0" width="31.6" height="85"/>
		<rect x="583.6" y="112" class="st0" width="37.9" height="6.1"/>
		<rect x="583.6" y="133.6" class="st0" width="37.9" height="6.1"/>
		<rect x="583.6" y="155.2" class="st0" width="37.9" height="6.1"/>
		<rect x="583.6" y="176.8" class="st0" width="37.9" height="6.1"/>
		<rect x="591.9" y="121.8" class="st0" width="7.6" height="7.4"/>
		<rect x="605.7" y="121.8" class="st0" width="7.6" height="7.4"/>
		<rect x="591.9" y="143.8" class="st0" width="7.6" height="7.4"/>
		<rect x="605.7" y="143.8" class="st0" width="7.6" height="7.4"/>
		<rect x="591.9" y="165.7" class="st0" width="7.6" height="7.4"/>
		<rect x="605.7" y="165.7" class="st0" width="7.6" height="7.4"/>
		<rect x="591.9" y="187.7" class="st0" width="7.6" height="7.4"/>
		<rect x="605.7" y="187.7" class="st0" width="7.6" height="7.4"/>
	</g>
	<g>
		<rect x="279.4" y="10.9" class="st0" width="4.4" height="31.6"/>
		<polygon class="st0" points="281.6,29.3 270.2,41.8 270.2,130.4 281.6,130.4 292.9,130.4 292.9,41.8 		"/>
		<polygon class="st0" points="281.6,36.4 270.2,49 270.2,137.5 281.6,137.5 292.9,137.5 292.9,49 		"/>
		<polygon class="st0" points="281.6,49.6 264.8,62.1 264.8,150.7 281.6,150.7 298.4,150.7 298.4,62.1 		"/>
		<polygon class="st0" points="281.6,93.9 260.5,106.7 260.5,196.4 281.6,196.4 302.6,196.4 302.6,106.7 		"/>
		<polygon class="st0" points="281.6,99.4 260.5,112.2 260.5,201.9 281.6,201.9 302.6,201.9 302.6,112.2 		"/>
		<rect x="265.9" y="175.9" class="st0" width="13" height="12.7"/>
		<rect x="284.3" y="175.9" class="st0" width="13" height="12.7"/>
		<rect x="265.9" y="156.2" class="st0" width="13" height="12.7"/>
		<rect x="284.3" y="156.2" class="st0" width="13" height="12.7"/>
		<rect x="265.9" y="136.4" class="st0" width="13" height="12.7"/>
		<rect x="284.3" y="136.4" class="st0" width="13" height="12.7"/>
		<rect x="265.9" y="116.6" class="st0" width="13" height="12.7"/>
		<rect x="284.3" y="116.6" class="st0" width="13" height="12.7"/>
		<rect x="269.1" y="79.2" class="st0" width="10.6" height="10.4"/>
		<rect x="283.2" y="79.2" class="st0" width="10.6" height="10.4"/>
		<rect x="269.1" y="64.2" class="st0" width="10.6" height="10.4"/>
		<rect x="283.2" y="64.2" class="st0" width="10.6" height="10.4"/>
	</g>
	<g>
		<polygon class="st0" points="536.3,162.6 509.1,162.6 509.1,16.1 536.3,38.4 		"/>
		<polygon class="st0" points="548.3,201.9 509.1,201.9 509.1,55.4 548.3,87.3 		"/>
		<rect x="515" y="179" class="st0" width="11.1" height="11.3"/>
		<rect x="531.3" y="179" class="st0" width="11.1" height="11.3"/>
		<rect x="515" y="163" class="st0" width="11.1" height="11.3"/>
		<rect x="531.3" y="163" class="st0" width="11.1" height="11.3"/>
		<rect x="515" y="146.9" class="st0" width="11.1" height="11.3"/>
		<rect x="531.3" y="146.9" class="st0" width="11.1" height="11.3"/>
		<rect x="515" y="130.9" class="st0" width="11.1" height="11.3"/>
		<rect x="531.3" y="130.9" class="st0" width="11.1" height="11.3"/>
		<rect x="515" y="114.8" class="st0" width="11.1" height="11.3"/>
		<rect x="531.3" y="114.8" class="st0" width="11.1" height="11.3"/>
		<rect x="515" y="98.8" class="st0" width="11.1" height="11.3"/>
		<rect x="531.3" y="98.8" class="st0" width="11.1" height="11.3"/>
		<polygon class="st0" points="542.4,93 515,93 515,71.2 		"/>
		<line class="st0" x1="509.1" y1="17.3" x2="509.1" y2="1"/>
		<line class="st0" x1="522.7" y1="16.1" x2="522.7" y2="27.3"/>
		<line class="st0" x1="536.3" y1="46.7" x2="509.1" y2="25.7"/>
	</g>
	<line class="st0" x1="1" y1="201.9" x2="684.7" y2="201.9"/>
	<line class="st0" x1="606.8" y1="41.6" x2="560.5" y2="41.6"/>
	<path class="st0" d="M602.4,41.6c0,0,0.9-4.9-5.2-4.9c0,0-4.4-8.9-12.8-3.8c0,0-6.7-3.8-10.8,0.8c0,0-8.6-0.4-8.7,7.9H602.4z"/>
	<line class="st0" x1="346.2" y1="34.4" x2="300" y2="34.4"/>
	<path class="st0" d="M341.8,34.4c0,0,0.9-4.9-5.2-4.9c0,0-4.4-8.9-12.8-3.8c0,0-6.7-3.8-10.8,0.8c0,0-8.6-0.4-8.7,7.9H341.8z"/>
	<line class="st0" x1="162.8" y1="63.4" x2="116.6" y2="63.4"/>
	<path class="st0" d="M158.5,63.4c0,0,0.9-4.9-5.2-4.9c0,0-4.4-8.9-12.8-3.8c0,0-6.7-3.8-10.8,0.8c0,0-8.6-0.4-8.7,7.9H158.5z"/>
	<line class="st0" x1="651.2" y1="94.3" x2="618" y2="94.3"/>
	<path class="st0" d="M621.9,94.3c0,0-0.8-4.5,3.9-4.8c0,0,6.1-10.4,13.2-1.3c0,0,8.4-1.1,8.4,6.1H621.9z"/>
	<line class="st0" x1="447.6" y1="15.8" x2="414.4" y2="15.8"/>
	<path class="st0" d="M418.3,15.8c0,0-0.9-4.5,3.9-4.8c0,0,6.1-10.4,13.2-1.3c0,0,8.4-1.1,8.4,6.1H418.3z"/>
	<line class="st0" x1="209" y1="10.9" x2="175.8" y2="10.9"/>
	<path class="st0" d="M179.7,10.9c0,0-0.9-4.5,3.9-4.8c0,0,6.1-10.4,13.2-1.3c0,0,8.4-1.1,8.4,6.1H179.7z"/>
	<line class="st0" x1="68.8" y1="26.6" x2="35.7" y2="26.6"/>
	<path class="st0" d="M39.5,26.6c0,0-0.9-4.5,3.9-4.8c0,0,6.1-10.4,13.2-1.3c0,0,8.4-1.1,8.4,6.1H39.5z"/>
</g>
</svg>
