<?xml version="1.0" encoding="utf-8"?>
<!-- Generator: Adobe Illustrator 21.0.1, SVG Export Plug-In . SVG Version: 6.00 Build 0)  -->
<svg version="1.1" id="Слой_1" xmlns="http://www.w3.org/2000/svg" xmlns:xlink="http://www.w3.org/1999/xlink" x="0px" y="0px"
	 viewBox="0 0 43.4 18" style="enable-background:new 0 0 43.4 18;" xml:space="preserve">
<style type="text/css">
	.st0{fill:#FFC700;}
	.st1{fill:#AFAFAF;}
	.st2{fill:#EBA214;}
	.st3{fill:#E91C24;}
	.st4{fill:#F8F07E;}
	.st5{fill:#A8CEDE;}
	.st6{fill:#333333;}
</style>
<g id="Object">
	<g>
		<path class="st0" d="M30,0h-5.2c-9.2,0-11,4.7-14.5,7c-2.5,1.6-4.6,1.7-6,2.1c-2,0.5-3.1,1.7-3.6,2.7S0,15.1,0,16.2
			C0,17.5,0.9,18,1.7,18h38.8c0.8,0,1.2-1,1.3-1.8c0.1-1.3,0.3-3.7,0-5C40.8,6.9,37.4,0,30,0z"/>
		<g>
			<path class="st1" d="M0,16.2c0-0.1,0-0.3,0-0.5l41.8-0.6c0,0.4-0.1,0.8-0.1,1.1c0,0.8-0.4,1.8-1.2,1.8H1.7C0.9,18,0,17.5,0,16.2z
				"/>
		</g>
		<path class="st2" d="M38.5,18c0-4-2.5-5.6-5.6-5.6S27.3,14,27.3,18H38.5z"/>
		<path class="st2" d="M15,18c0-4-2.5-5.6-5.6-5.6S3.8,14,3.8,18H15z"/>
		<g>
			<path class="st3" d="M42.3,12.2c0.4,0.1,1.1,0.5,1.1,1v0.1c0,0.5-0.5,0.9-0.9,1C42.5,13.6,42.3,12.8,42.3,12.2z"/>
			<path class="st4" d="M2.5,10.5C3,10.8,3.2,11.4,2.9,12l-0.4,0.8c-0.3,0.5-0.9,0.7-1.5,0.4l-0.1-0.1c-0.2-0.1-0.4-0.3-0.5-0.5
				c0.1-0.3,0.2-0.6,0.3-0.8c0.2-0.5,0.6-1,1.2-1.5c0.2,0,0.3,0,0.5,0.1L2.5,10.5z"/>
		</g>
		<path class="st5" d="M20.4,1.1c0,0-5.3,0.9-8.5,6.9h8.5V1.1z"/>
		<rect x="21.4" y="2" class="st5" width="9" height="6"/>
		<path class="st5" d="M31.4,1.1V8c0,0,4.3,0,6.8,0C40.8,8,36.4,1.3,31.4,1.1z"/>
		<path class="st6" d="M19.7,9.2c0,0.2,0.2,0.3,0.3,0.3h1.2c0.2,0,0.3-0.2,0.3-0.3V9c0-0.2-0.2-0.3-0.3-0.3H20
			c-0.2,0-0.3,0.2-0.3,0.3V9.2z"/>
		<path class="st6" d="M29.1,9.2c0,0.2,0.2,0.3,0.3,0.3h1.2c0.2,0,0.3-0.2,0.3-0.3V9c0-0.2-0.2-0.3-0.3-0.3h-1.2
			c-0.2,0-0.3,0.2-0.3,0.3V9.2z"/>
		<path class="st2" d="M10.4,7.5c0-0.2,1.1-0.5,1.3-0.5h3.1c0.2,0-1.4,0.3-1.4,0.5v1.3C13.4,8.9,15,9,14.8,9h-3.1
			c-0.2,0-1.3-0.1-1.3-0.3C10.4,8.7,10.4,7.5,10.4,7.5z"/>
	</g>
</g>
</svg>
