<?xml version="1.0" encoding="utf-8"?>
<!-- Generator: Adobe Illustrator 21.0.1, SVG Export Plug-In . SVG Version: 6.00 Build 0)  -->
<svg version="1.1" xmlns="http://www.w3.org/2000/svg" xmlns:xlink="http://www.w3.org/1999/xlink" x="0px" y="0px"
	 width="1277.7px" height="307.5px" viewBox="0 0 1277.7 307.5" style="enable-background:new 0 0 1277.7 307.5;"
	 xml:space="preserve">
<style type="text/css">
	.st0{fill:#6C6C6C;}
	.st1{fill:#D6B53D;}
</style>
<g id="Group_2_xA0_Image_1_">
	<g>
		<path class="st0" d="M148.7,0.2c-5,3.2-6.1,7.7-5.7,12.6c0.2,2.6-0.8,4-3,5.2c-10.3,5.9-18.2,14.4-25,23.9
			c-6.4,8.9-11.2,18.7-15,29c-0.2,0.6-0.4,1.3-0.7,2.6c14.3,4,28.8,5.5,43.8,6.8c-0.1,4.9,0.7,9.4,5.2,12.5
			c-17.8,0.1-35.1-3.3-52.5-7.2c-0.5,1.3-1.1,2.2-1.4,3.3c-5,17.3-7.5,35-8.3,53c-0.2,4.3,0,4.5,4.4,4.5c22.3,0,44.5,0,66.8,0
			c1.4,0,2.7,0.1,4.1,0.2c0,4.4,0,8.6,0,13.3c-25.1,0-50,0-75.1,0c-0.1,1.8-0.3,3-0.3,4.2c0.6,18.3,3.4,36.2,8.3,53.8
			c0.8,2.9,1.3,3.1,4.7,2.4c6.7-1.2,13.4-2.8,20.2-3.7c9.4-1.3,18.9-2,28.5-2.7c-3.8,3.5-5.3,7.7-4.7,13
			c-14.7,1.1-28.9,3.2-43.3,5.9c0.2,1.2,0.2,1.9,0.5,2.5c4.7,11.7,9.9,23.2,17.5,33.4c6.4,8.7,14,16,23.8,20.8
			c0.5,0.2,0.9,0.6,1.5,1c0.3,5.6-0.9,11.7,5.3,15.5c-0.2,0.2-0.4,0.4-0.5,0.6c-4.5-0.5-9-0.9-13.5-1.7
			c-55.4-9.6-95.4-40.1-120.7-90c-7.4-14.6-10.7-30.5-12.6-46.8c-1-8.1-1.2-16.3-0.6-24.3c1.9-24.2,8-47.2,21.3-67.8
			C47,37.1,81.9,11.4,128.2,2.2c6-1.2,12.2-1.5,18.3-2.2C147,0,147.5,0.1,148.7,0.2z M44.8,239.7c1.5-0.7,2.6-1.3,3.8-1.8
			c8.9-3.8,17.8-7.5,26.7-11.2c1.4-0.6,2.9-0.9,4.4-1.4c1.9-0.5,2.4-1.7,1.9-3.5c-0.2-0.8-0.4-1.6-0.6-2.4
			c-5.1-18.3-8.1-36.9-8.6-55.9c-0.1-3.3-0.4-3.7-3.6-3.7c-17.4,0-34.7,0-52.1,0c-0.9,0-1.7,0.4-2.6,0.7
			C15.2,190.8,26.2,216.6,44.8,239.7z M13.8,146.4c2.4,0,3.9,0,5.4,0c15.8,0,31.6,0,47.5,0c1,0,2,0,2.9,0c1.9,0.1,2.9-0.8,2.9-2.7
			c0-0.8,0-1.7,0.1-2.5c0.8-18.5,3.5-36.7,8.6-54.6c1.2-4.3,1.3-4.3-2.9-5.6c-10.2-3.2-20-7.2-29.5-12.1c-3.8-2-3.9-2-6.5,1.3
			C28,88.5,19,109,15.4,131.9C14.6,136.4,14.3,141,13.8,146.4z M117.6,287.1c-0.4-0.5-0.9-1-1.3-1.5c-4.3-5.3-8.9-10.4-12.9-15.9
			c-6.6-9.1-11.4-19.2-15.5-29.7c-1.3-3.2-1.7-3.5-4.6-2.6c-9.2,2.9-18.3,6.1-26.9,10.7c-0.7,0.4-1.2,0.9-2.2,1.7
			C72,268.1,92.8,280.8,117.6,287.1z M86.3,70.4c2.2-5.1,4.1-9.8,6.2-14.3c2.1-4.6,4.3-9.1,6.9-13.4c2.5-4.3,5.3-8.5,8.4-12.5
			c3-3.9,6.4-7.4,9.6-11c-24.7,7-45.8,19.7-64.2,38.6C64.4,62,75,66.1,86.3,70.4z"/>
		<g>
			<path class="st1" d="M238.6,160.1c-27.8,0-54.8,0-81.9,0c0-4.6,0-8.8,0-13.2c5.8-0.1,11.3-0.4,16.7-0.4c20,0,40.1,0,60.1,0.1
				c0.7,0,1.4,0,2.1,0c2.1,0.1,3.1-0.9,3-3.1c-0.3-5-0.4-10.1-0.9-15.1c-1.3-13.5-3.9-26.9-7.6-39.9c-0.2-0.7-0.5-1.3-0.9-2.3
				c-1.6,0.1-3.2,0.2-4.8,0.4c-9.5,1.6-19,3.4-28.6,4.8c-11.9,1.7-23.9,2.9-36,2.6c-3.2-0.1-6.5-0.3-9.7,0c-8,0.7-12.4-4.8-12.2-12
				c0.3-11.3,0.1-22.7,0.1-34c0-11.3-0.1-22.7-0.1-34c0-1.5-0.1-3.1,0.1-4.6c0.8-6.2,4.6-9.4,10.9-9.3c10.4,0.1,20.7,0.2,31.1,0.3
				c11.6,0.1,22.7,3,33.8,6.1C254.1,18,301.8,56.2,318,107.6c3.2,10.1,5.4,20.3,6.2,30.8c0.6,8.2,1.4,16.5,0.7,24.7
				c-2.3,29-11.4,55.6-29.3,78.8c-25.5,33-58.2,54.5-99.3,62.7c-11,2.2-22.2,3-33.4,3c-4.9,0-9.8,0.1-14.7,0
				c-6.2-0.1-9.9-3.6-10.2-9.9c-0.1-3.2,0-6.4,0-9.7c-0.1-20.7-0.2-41.5-0.2-62.2c0-2.5,0.7-5.3,1.8-7.6c1.2-2.7,3.9-4.1,6.8-4.2
				c8.3-0.2,16.5-0.6,24.8-0.3c18.1,0.7,36,3.3,53.7,6.7c3.9,0.7,4.6,0.3,5.5-3.7c3.7-15.1,6.8-30.3,7.4-45.9
				C238,167.4,238.3,164.1,238.6,160.1z M311,160.1c-2,0-3.5,0-5,0c-13.7,0-27.4,0-41.1,0c-3.1,0-6.2-0.1-9.2,0
				c-3,0.1-3.2,0.4-3.5,3.4c-0.3,3.2-0.6,6.4-0.7,9.6c-0.9,16.1-3.4,32-8,47.4c-0.4,1.3-0.5,2.6-0.7,3.8c0.8,0.5,1.1,0.7,1.5,0.9
				c11.5,3.5,22.7,8,33.3,13.6c2.1,1.1,3.3,0.3,4.6-1.4c13.4-17.1,22.9-36.1,26.9-57.6C310,173.6,311.2,167.3,311,160.1z
				 M242.9,82.2c-0.1,0.7-0.3,1.1-0.2,1.5c0.3,1.6,0.7,3.3,1.1,4.9c5,17.6,7.9,35.5,8.3,53.8c0.1,3.8,0.5,4.2,4.6,4.2
				c16.7,0,33.3,0,50,0c1.3,0,2.7-0.2,4.4-0.3c-0.1-2.5-0.1-4.6-0.3-6.6c-2.7-25.4-11.9-48.2-27.5-68.5c-3.2-4.2-3.3-4.2-7.9-2
				c-9.3,4.6-18.8,8.6-28.8,11.6C245.3,81.1,244.1,81.7,242.9,82.2z M225.1,73.6c-0.3-1.1-0.3-1.6-0.5-2.2
				c-5.6-15.3-13.5-29.2-24.8-41c-6.3-6.5-13.4-11.8-21.8-15.4c-0.9-0.4-1.8-0.6-2.7-0.9c-0.9,5.2-0.7,62.9,0.3,66.3
				C192.2,79.8,208.8,78,225.1,73.6z M224.9,233.9c-7.3-3.5-43.3-7.6-49.7-6c-0.8,4.8-0.6,61.2,0.3,64.7c1.7-0.6,3.4-1.1,5-1.8
				c9.6-4.2,17.2-10.8,23.7-18.9c7-8.7,12.2-18.4,16.6-28.6C222.3,240.3,223.5,237.2,224.9,233.9z M206.7,19.2
				c0.4,0.5,0.8,1,1.3,1.5c7.3,6.9,13.3,14.8,17.9,23.7c3.7,7.1,6.8,14.4,10.2,21.6c0.6,1.4,1.3,2.7,1.9,4c7.9-1.2,29.4-9.7,32.9-13
				C252.9,38.7,231.7,25.9,206.7,19.2z M206.1,288.3c25.5-7.3,46.6-20,65-38.7c-10.3-5.4-20.5-9.2-31-12.3c-1.5-0.4-2.4,0.3-3,1.6
				c-1,2.3-2,4.6-3,6.9c-6.6,15.1-14.8,29.2-26.9,40.7C206.9,286.8,206.8,287.2,206.1,288.3z"/>
		</g>
	</g>
</g>
<g id="Esco">
	<g>
		<path class="st1" d="M578.2,240.8h-99.4c-3.8,0-8-0.7-12.5-2c-4.5-1.3-8.7-3.5-12.6-6.6c-3.9-3.1-7.1-7.1-9.6-12
			c-2.6-4.9-3.9-10.9-3.9-18.1v-99.4c0-1.9,0.4-3.7,1.1-5.4c0.7-1.7,1.7-3.2,2.9-4.5c1.2-1.3,2.7-2.3,4.4-3c1.7-0.7,3.5-1.1,5.5-1.1
			h124.1v27.6H467.8v85.7c0,3.6,1,6.4,2.9,8.3c1.9,1.9,4.7,2.9,8.4,2.9h99.2V240.8z M565.8,178.7h-87v-27.8h87V178.7z"/>
		<path class="st1" d="M793.8,196.1c0,5.4-0.7,10.3-2.1,14.7c-1.4,4.3-3.2,8.2-5.5,11.5c-2.3,3.3-4.9,6.1-7.9,8.5
			c-3,2.3-6.2,4.2-9.4,5.7s-6.6,2.6-9.9,3.3c-3.4,0.7-6.5,1.1-9.5,1.1H643.2v-27.6h106.3c5.3,0,9.4-1.6,12.3-4.7
			c2.9-3.1,4.4-7.3,4.4-12.5c0-2.5-0.4-4.9-1.2-7s-1.9-4-3.3-5.5c-1.4-1.6-3.2-2.8-5.3-3.6c-2.1-0.8-4.4-1.3-6.9-1.3h-63.4
			c-4.5,0-9.3-0.8-14.4-2.4c-5.2-1.6-9.9-4.1-14.4-7.7c-4.4-3.5-8.1-8.2-11-13.9c-2.9-5.7-4.4-12.7-4.4-21s1.5-15.2,4.4-20.9
			c2.9-5.7,6.6-10.3,11-13.9c4.4-3.6,9.2-6.1,14.4-7.7c5.2-1.6,10-2.4,14.4-2.4h93.8v27.6h-93.8c-5.2,0-9.3,1.6-12.2,4.8
			c-2.9,3.2-4.4,7.4-4.4,12.6c0,5.3,1.5,9.5,4.4,12.6c2.9,3.1,7,4.6,12.2,4.6h63.4h0.2c3,0.1,6.1,0.5,9.4,1.2
			c3.3,0.7,6.6,1.9,9.9,3.4c3.3,1.6,6.4,3.5,9.4,5.9c3,2.4,5.6,5.2,7.9,8.5c2.3,3.3,4.1,7.1,5.5,11.4
			C793.1,185.8,793.8,190.6,793.8,196.1z"/>
		<path class="st1" d="M996.2,240.8h-99.4c-2.5,0-5.3-0.3-8.2-0.9c-2.9-0.6-5.8-1.5-8.7-2.8s-5.6-2.9-8.2-4.9
			c-2.6-2-4.9-4.5-6.9-7.3c-2-2.9-3.6-6.2-4.8-10c-1.2-3.8-1.8-8-1.8-12.8v-74.6c0-2.5,0.3-5.3,0.9-8.2c0.6-2.9,1.5-5.8,2.8-8.7
			c1.3-2.9,2.9-5.6,5-8.2c2-2.6,4.5-4.9,7.4-6.9c2.9-2,6.2-3.6,9.9-4.8c3.7-1.2,8-1.8,12.7-1.8h99.4v27.6h-99.4
			c-3.6,0-6.4,1-8.3,2.9s-2.9,4.7-2.9,8.5v74.4c0,3.5,1,6.3,2.9,8.2c1.9,1.9,4.7,2.9,8.2,2.9h99.4V240.8z"/>
		<path class="st1" d="M1223,179.3c0,9.3-1.6,17.8-4.8,25.5c-3.2,7.8-7.6,14.5-13.3,20.1c-5.7,5.7-12.3,10-20.1,13.2
			c-7.7,3.1-16.2,4.7-25.3,4.7h-37.3c-9.1,0-17.6-1.6-25.3-4.7c-7.8-3.1-14.5-7.5-20.1-13.2c-5.7-5.7-10.1-12.4-13.3-20.1
			c-3.2-7.8-4.8-16.3-4.8-25.5v-29c0-9.2,1.6-17.7,4.8-25.5c3.2-7.8,7.6-14.5,13.3-20.1c5.7-5.6,12.4-10,20.1-13.2
			c7.8-3.2,16.2-4.8,25.3-4.8h37.3c9.1,0,17.5,1.6,25.3,4.8c7.7,3.2,14.4,7.6,20.1,13.2c5.7,5.6,10.1,12.3,13.3,20.1
			c3.2,7.8,4.8,16.3,4.8,25.5V179.3z M1195.5,150.3c0-5.4-0.9-10.4-2.6-14.8c-1.7-4.4-4.2-8.2-7.3-11.3c-3.1-3.1-6.9-5.6-11.3-7.3
			c-4.4-1.7-9.3-2.6-14.6-2.6h-37.3c-5.4,0-10.3,0.9-14.7,2.6c-4.4,1.7-8.2,4.2-11.4,7.3c-3.2,3.1-5.6,6.9-7.4,11.3
			c-1.7,4.4-2.6,9.3-2.6,14.8v29c0,5.4,0.9,10.4,2.6,14.8c1.7,4.4,4.2,8.2,7.4,11.3c3.2,3.1,7,5.6,11.4,7.3
			c4.4,1.7,9.3,2.6,14.7,2.6h37.1c5.4,0,10.3-0.9,14.7-2.6c4.4-1.7,8.2-4.2,11.4-7.3c3.2-3.1,5.6-6.9,7.4-11.3
			c1.7-4.4,2.6-9.3,2.6-14.8V150.3z"/>
	</g>
</g>
</svg>
