<?xml version="1.0" encoding="utf-8"?>
<!-- Generator: Adobe Illustrator 21.0.1, SVG Export Plug-In . SVG Version: 6.00 Build 0)  -->
<svg version="1.1" xmlns="http://www.w3.org/2000/svg" xmlns:xlink="http://www.w3.org/1999/xlink" x="0px" y="0px"
	 viewBox="0 0 1785.3 122.4" style="enable-background:new 0 0 1785.3 122.4;" xml:space="preserve">
<style type="text/css">
	.st0{display:none;}
	.st1{fill:#85D8E4;}
	.st2{fill:#FFFFFF;}
	.st3{fill:none;}
	.st4{fill:#85D8E4;enable-background:new    ;}
</style>
<g id="Слой_3" class="st0">
</g>
<g id="Слой_1">
</g>
<g id="Слой_2">
	<g>
		<path class="st1" d="M280,110.1c45.8,4.6,97.2,6,154.8,2.7C376,115,324.7,113.8,280,110.1z"/>
		<path class="st1" d="M1785.3,36.4v-0.6c-2.2,0.6-4.5,1.1-6.8,1.7C1780.8,37.1,1783.1,36.7,1785.3,36.4z"/>
		<path class="st2" d="M0.4,14.3l-0.4,0c0,0,0.4,0.2,1.1,0.5C0.9,14.6,0.7,14.5,0.4,14.3z"/>
		<path class="st2" d="M1425,98.3c-187.6-0.3-362.5-31.4-613.3-19c0.8-0.1,1.7-0.3,2.5-0.4C704.4,90.8,592,103.6,434.8,112.8
			c-57.5,3.4-109,2-154.8-2.7C57.7,91.9,0,14.3,0,14.3v10v98.1h1785.3V49.7V36.4c-2.3,0.4-4.5,0.7-6.8,1.1
			C1667.4,65.4,1516.6,98.4,1425,98.3z"/>
		<g>
			<path class="st3" d="M0.4,14.3l-0.4,0c0,0,0.4,0.2,1.1,0.5C0.9,14.6,0.7,14.5,0.4,14.3z"/>
			<path class="st4" d="M1192.3,22.9c-123.5,9.3-252.5,34.4-378.1,56c-0.8,0.1-1.7,0.3-2.5,0.4c250.8-12.4,425.6,18.7,613.3,19
				c91.6,0.1,242.4-32.9,353.5-60.8c2.3-0.6,4.6-1.1,6.8-1.7C1651.5,20.8,1432.2,4.9,1192.3,22.9z"/>
			<path class="st4" d="M0,14.3c0,0,57.7,77.6,280,95.8c44.7,3.7,96,4.9,154.8,2.7C194,100.9,16.9,22,1.1,14.8
				C0.4,14.5,0,14.3,0,14.3z"/>
		</g>
	</g>
</g>
</svg>
