<?xml version="1.0" encoding="utf-8"?>
<!-- Generator: Adobe Illustrator 21.0.1, SVG Export Plug-In . SVG Version: 6.00 Build 0)  -->
<svg version="1.1" xmlns="http://www.w3.org/2000/svg" xmlns:xlink="http://www.w3.org/1999/xlink" x="0px" y="0px"
	 viewBox="0 0 202 135" style="enable-background:new 0 0 202 135;" xml:space="preserve">
<style type="text/css">
	.st0{enable-background:new    ;}
	.st1{fill-rule:evenodd;clip-rule:evenodd;fill:#D6B53D;}
	.st2{fill-rule:evenodd;clip-rule:evenodd;fill:#6C6C6C;}
</style>
<g id="esco_1_" class="st0">
	<g id="esco">
		<g>
			<path class="st1" d="M32.5,117.9v-7.2H10v7.2H32.5z M2.2,95c-0.4,0.2-0.8,0.4-1.1,0.8c-0.3,0.3-0.6,0.7-0.8,1.1
				c-0.2,0.4-0.3,0.9-0.3,1.4v25.6c0,1.8,0.3,3.4,1,4.7c0.7,1.3,1.5,2.3,2.5,3.1c1,0.8,2.1,1.4,3.2,1.7c1.2,0.3,2.2,0.5,3.2,0.5
				h25.6v-7.1H10.1c-0.9,0-1.7-0.2-2.2-0.7c-0.5-0.5-0.7-1.2-0.7-2.1v-22.1h28.5v-7.1h-32C3.2,94.7,2.7,94.8,2.2,95z M89.3,115.6
				c-0.6-0.9-1.3-1.6-2-2.2c-0.8-0.6-1.6-1.1-2.4-1.5c-0.8-0.4-1.7-0.7-2.6-0.9c-0.9-0.2-1.7-0.3-2.4-0.3H63.5
				c-1.3,0-2.4-0.4-3.2-1.2c-0.8-0.8-1.1-1.9-1.1-3.2c0-1.3,0.4-2.4,1.1-3.3c0.8-0.8,1.8-1.2,3.2-1.2h24.2v-7.1H63.5
				c-1.1,0-2.4,0.2-3.7,0.6c-1.3,0.4-2.6,1.1-3.7,2c-1.1,0.9-2.1,2.1-2.8,3.6c-0.8,1.5-1.1,3.3-1.1,5.4s0.4,3.9,1.1,5.4
				c0.8,1.5,1.7,2.7,2.8,3.6c1.1,0.9,2.4,1.6,3.7,2c1.3,0.4,2.6,0.6,3.7,0.6h16.3c0.7,0,1.3,0.1,1.8,0.3c0.5,0.2,1,0.5,1.4,0.9
				c0.4,0.4,0.7,0.9,0.9,1.4c0.2,0.5,0.3,1.1,0.3,1.8c0,1.3-0.4,2.4-1.1,3.2c-0.8,0.8-1.8,1.2-3.2,1.2H52.4v7.1h27.4
				c0.8,0,1.6-0.1,2.4-0.3c0.9-0.2,1.7-0.5,2.6-0.8c0.8-0.4,1.6-0.9,2.4-1.5c0.8-0.6,1.5-1.3,2-2.2c0.6-0.9,1.1-1.8,1.4-3
				c0.4-1.1,0.5-2.4,0.5-3.8c0-1.4-0.2-2.7-0.5-3.8C90.4,117.5,89.9,116.5,89.3,115.6z M114.5,95.2c-1,0.3-1.8,0.7-2.6,1.2
				c-0.7,0.5-1.4,1.1-1.9,1.8c-0.5,0.7-1,1.4-1.3,2.1c-0.3,0.7-0.6,1.5-0.7,2.2c-0.2,0.8-0.2,1.5-0.2,2.1v19.2
				c0,1.2,0.2,2.3,0.5,3.3c0.3,1,0.7,1.8,1.2,2.6c0.5,0.7,1.1,1.4,1.8,1.9c0.7,0.5,1.4,0.9,2.1,1.3c0.7,0.3,1.5,0.6,2.2,0.7
				c0.8,0.2,1.5,0.2,2.1,0.2h25.6v-7.1h-25.6c-0.9,0-1.6-0.3-2.1-0.8c-0.5-0.5-0.8-1.2-0.8-2.1v-19.2c0-1,0.2-1.7,0.7-2.2
				c0.5-0.5,1.2-0.7,2.1-0.7h25.6v-7.1h-25.6C116.6,94.7,115.5,94.9,114.5,95.2z M200.7,104c-0.8-2-2-3.7-3.4-5.2
				c-1.5-1.4-3.2-2.6-5.2-3.4c-2-0.8-4.2-1.2-6.5-1.2H176c-2.4,0-4.5,0.4-6.5,1.2c-2,0.8-3.7,2-5.2,3.4c-1.5,1.4-2.6,3.2-3.4,5.2
				c-0.8,2-1.2,4.2-1.2,6.6v7.5c0,2.4,0.4,4.6,1.2,6.6c0.8,2,2,3.7,3.4,5.2c1.5,1.5,3.2,2.6,5.2,3.4c2,0.8,4.2,1.2,6.5,1.2h9.6
				c2.4,0,4.5-0.4,6.5-1.2c2-0.8,3.7-1.9,5.2-3.4c1.5-1.5,2.6-3.2,3.4-5.2c0.8-2,1.2-4.2,1.2-6.6v-7.5
				C201.9,108.2,201.5,106,200.7,104z M194.8,118c0,1.4-0.2,2.7-0.7,3.8c-0.4,1.1-1.1,2.1-1.9,2.9c-0.8,0.8-1.8,1.4-2.9,1.9
				c-1.1,0.4-2.4,0.7-3.8,0.7H176c-1.4,0-2.6-0.2-3.8-0.7c-1.1-0.4-2.1-1.1-2.9-1.9c-0.8-0.8-1.5-1.8-1.9-2.9
				c-0.4-1.1-0.7-2.4-0.7-3.8v-7.5c0-1.4,0.2-2.7,0.7-3.8c0.4-1.1,1.1-2.1,1.9-2.9c0.8-0.8,1.8-1.4,2.9-1.9c1.1-0.4,2.4-0.7,3.8-0.7
				h9.6c1.4,0,2.6,0.2,3.8,0.7c1.1,0.4,2.1,1.1,2.9,1.9c0.8,0.8,1.4,1.8,1.9,2.9c0.4,1.1,0.7,2.4,0.7,3.8V118z"/>
		</g>
	</g>
</g>
<g id="_x31__1_" class="st0">
	<g id="_x31_">
		<g>
			<path class="st2" d="M100.6,42v-3.4c-0.4,0-0.7-0.1-1.1-0.1c-5.7,0-11.5,0-17.2,0c-1.1,0-1.2,0-1.1-1.2c0.2-4.6,0.9-9.2,2.1-13.7
				c0.1-0.3,0.2-0.5,0.4-0.8c4.5,1,8.9,1.9,13.5,1.8c-1.1-0.8-1.3-2-1.3-3.2c-3.9-0.3-7.6-0.7-11.3-1.8c0.1-0.3,0.1-0.5,0.2-0.7
				c1-2.6,2.2-5.2,3.9-7.5c1.8-2.4,3.8-4.6,6.5-6.2c0.6-0.3,0.8-0.7,0.8-1.3c-0.1-1.3,0.2-2.4,1.5-3.2c-0.3,0-0.4-0.1-0.6-0.1
				c-1.6,0.2-3.2,0.3-4.7,0.6c-11.9,2.4-20.9,9-27.5,19.1c-3.4,5.3-5,11.3-5.5,17.5c-0.2,2.1-0.1,4.2,0.2,6.3
				c0.5,4.2,1.4,8.3,3.3,12.1C69,69.2,79.3,77,93.6,79.5c1.1,0.2,2.3,0.3,3.5,0.4c0-0.1,0.1-0.1,0.1-0.2c-1.6-1-1.3-2.6-1.4-4
				c-0.2-0.1-0.3-0.2-0.4-0.3c-2.5-1.2-4.5-3.1-6.1-5.4c-2-2.6-3.3-5.6-4.5-8.6c-0.1-0.2-0.1-0.3-0.1-0.6c3.7-0.7,7.4-1.2,11.2-1.5
				c-0.1-1.4,0.2-2.5,1.2-3.4c-2.5,0.2-4.9,0.4-7.4,0.7c-1.8,0.2-3.5,0.6-5.2,1c-0.9,0.2-1,0.1-1.2-0.6c-1.3-4.5-2-9.2-2.2-13.9
				c0-0.3,0-0.6,0.1-1.1H100.6z M89.3,5.7c-0.8,0.9-1.7,1.9-2.5,2.8c-0.8,1-1.5,2.1-2.2,3.2c-0.7,1.1-1.2,2.3-1.8,3.5
				c-0.5,1.2-1,2.4-1.6,3.7c-2.9-1.1-5.6-2.2-8.5-3.3C77.5,10.8,82.9,7.5,89.3,5.7z M63,34.8c0.9-5.9,3.3-11.2,6.9-15.9
				c0.7-0.9,0.7-0.9,1.7-0.3c2.4,1.3,5,2.3,7.6,3.1c1.1,0.3,1.1,0.3,0.7,1.5c-1.3,4.6-2,9.3-2.2,14.1c0,0.2,0,0.4,0,0.6
				c0,0.5-0.3,0.7-0.7,0.7c-0.3,0-0.5,0-0.8,0c-4.1,0-8.2,0-12.2,0h-1.4C62.7,37.2,62.8,36,63,34.8z M70.6,62.6
				c-4.8-6-7.6-12.6-7.9-20.4c0.2-0.1,0.5-0.2,0.7-0.2c4.5,0,9,0,13.4,0c0.8,0,0.9,0.1,0.9,0.9c0.1,4.9,0.9,9.7,2.2,14.4
				c0.1,0.2,0.1,0.4,0.2,0.6c0.1,0.5,0,0.8-0.5,0.9c-0.4,0.1-0.8,0.2-1.1,0.3c-2.3,1-4.6,1.9-6.9,2.9C71.3,62.3,71,62.4,70.6,62.6z
				 M81.7,62.7c1.1,2.7,2.3,5.3,4,7.6c1,1.4,2.2,2.7,3.3,4.1c0.1,0.1,0.2,0.3,0.3,0.4C83,73.2,77.6,69.9,73,65.2
				c0.3-0.2,0.4-0.4,0.6-0.4c2.2-1.2,4.6-2,6.9-2.7C81.2,61.8,81.3,61.9,81.7,62.7z"/>
		</g>
	</g>
</g>
<g id="_x32__1_" class="st0">
	<g id="_x32_">
		<g>
			<path class="st1" d="M142.6,36.5c-0.2-2.7-0.8-5.3-1.6-7.9c-4.2-13.3-16.5-23.1-26.9-26.1c-2.8-0.8-5.7-1.5-8.7-1.6
				c-2.7,0-5.3,0-8-0.1c-1.6,0-2.6,0.8-2.8,2.4c0,0.4,0,0.8,0,1.2c0,2.9,0,5.9,0,8.8c0,2.9,0.1,5.9,0,8.8c0,1.8,1.1,3.3,3.1,3.1
				c0.8-0.1,1.7,0,2.5,0c3.1,0.1,6.2-0.2,9.3-0.7c2.5-0.4,4.9-0.8,7.4-1.2c0.4-0.1,0.8-0.1,1.2-0.1c0.1,0.3,0.2,0.4,0.2,0.6
				c1,3.4,1.6,6.8,2,10.3c0.1,1.3,0.2,2.6,0.2,3.9c0,0.6-0.2,0.8-0.8,0.8c-0.2,0-0.4,0-0.5,0c-5.2,0-10.3,0-15.5,0
				c-1.4,0-2.8,0.1-4.3,0.1v3.4h21.1c-0.1,1-0.2,1.9-0.2,2.7c-0.1,4-1,7.9-1.9,11.8c-0.3,1-0.4,1.1-1.4,0.9
				c-4.6-0.9-9.2-1.5-13.9-1.7c-2.1-0.1-4.3,0-6.4,0.1C96,56,95.3,56.4,95,57c-0.3,0.6-0.5,1.3-0.5,2c0,5.3,0,10.7,0,16
				c0,0.8,0,1.7,0,2.5c0.1,1.6,1,2.5,2.6,2.5c1.3,0,2.5,0,3.8,0c2.9,0,5.8-0.2,8.6-0.8c10.6-2.1,19.1-7.7,25.6-16.2
				c4.6-6,7-12.8,7.6-20.3C143,40.7,142.8,38.6,142.6,36.5z M104.3,21.5c-0.3-0.9-0.3-15.8-0.1-17.1c0.2,0.1,0.5,0.1,0.7,0.2
				c2.2,0.9,4,2.3,5.6,4c2.9,3,5,6.6,6.4,10.6c0,0.1,0.1,0.3,0.1,0.6C112.9,20.9,108.6,21.4,104.3,21.5z M120.4,18.8
				c-0.2-0.3-0.3-0.7-0.5-1c-0.9-1.9-1.7-3.8-2.6-5.6c-1.2-2.3-2.7-4.3-4.6-6.1c-0.1-0.1-0.2-0.3-0.3-0.4c6.4,1.7,11.9,5,16.6,9.7
				C128,16.3,122.5,18.5,120.4,18.8z M105.6,75.8c-0.4,0.2-0.9,0.3-1.3,0.5c-0.2-0.9-0.3-15.4-0.1-16.7c1.6-0.4,10.9,0.6,12.8,1.5
				c-0.4,0.9-0.7,1.7-1,2.4c-1.1,2.6-2.5,5.1-4.3,7.4C110,73,108.1,74.7,105.6,75.8z M112.2,75.1c0.2-0.3,0.2-0.4,0.3-0.5
				c3.1-3,5.2-6.6,6.9-10.5c0.3-0.6,0.5-1.2,0.8-1.8c0.1-0.3,0.4-0.5,0.8-0.4c2.7,0.8,5.3,1.8,8,3.2C124.2,70,118.7,73.3,112.2,75.1
				z M138.7,47.2c-1,5.5-3.5,10.4-6.9,14.8c-0.3,0.4-0.6,0.6-1.2,0.3c-2.7-1.5-5.6-2.6-8.6-3.5c-0.1,0-0.2-0.1-0.4-0.2
				c0.1-0.3,0.1-0.7,0.2-1c1.2-4,1.8-8.1,2.1-12.2c0-0.8,0.1-1.7,0.2-2.5c0.1-0.8,0.1-0.9,0.9-0.9c0.8,0,1.6,0,2.4,0
				c3.5,0,7.1,0,10.6,0c0.4,0,0.8,0,1.3,0C139.3,43.9,139,45.6,138.7,47.2z M138.1,38.6c-4.3,0-8.6,0-12.9,0c-1,0-1.2-0.1-1.2-1.1
				c-0.1-4.7-0.8-9.3-2.1-13.9c-0.1-0.4-0.2-0.8-0.3-1.3c0-0.1,0-0.2,0.1-0.4c0.3-0.1,0.6-0.3,1-0.4c2.6-0.8,5-1.8,7.4-3
				c1.2-0.6,1.2-0.6,2,0.5c4,5.2,6.4,11.1,7.1,17.7c0.1,0.5,0.1,1.1,0.1,1.7C138.8,38.5,138.5,38.6,138.1,38.6z"/>
		</g>
	</g>
</g>
</svg>
