<svg xmlns="http://www.w3.org/2000/svg" width="29.4" height="19.19" viewBox="0 0 29.4 19.19">
  <defs>
    <style>
      .cls-1 {
        fill: #fff;
        fill-rule: evenodd;
      }
    </style>
  </defs>
  <path id="Forma_1" data-name="Forma 1" class="cls-1" d="M1317.96,4428.13a0.374,0.374,0,0,0-.06-0.07l-1.03-.99a2.165,2.165,0,0,0,1.78-1.64c0-.85-1.19-1.16-2.2-1.16a1.089,1.089,0,0,0-1.2,1.24l-2.66-2.56a3.762,3.762,0,0,0-2.33-.95h-10.35a3.762,3.762,0,0,0-2.33.95l-2.66,2.56a1.094,1.094,0,0,0-1.2-1.24c-1.01,0-2.2.31-2.2,1.16a2.165,2.165,0,0,0,1.78,1.64l-1.03.99a0.374,0.374,0,0,0-.06.07,5.724,5.724,0,0,0-1.83,3.95v3.76a3.413,3.413,0,0,0,.95,2.36v1.45a1.567,1.567,0,0,0,1.59,1.55h1.93a1.575,1.575,0,0,0,1.6-1.55v-0.37h17.27v0.37a1.575,1.575,0,0,0,1.6,1.55h1.93a1.567,1.567,0,0,0,1.59-1.55v-1.45a3.449,3.449,0,0,0,.94-2.36v-3.76A5.754,5.754,0,0,0,1317.96,4428.13Zm-19.41-4.04a2.7,2.7,0,0,1,1.36-.55h10.35a2.7,2.7,0,0,1,1.36.55l3.48,3.37h-20.03Zm-6.97,7.42a1.652,1.652,0,0,1,1.62-1.68c0.9,0,3.83,1.72,3.83,2.64s-2.93.71-3.83,0.71A1.644,1.644,0,0,1,1291.58,4431.51Zm4.87,6.12h-0.62l-1.84.01a3.638,3.638,0,0,1-1.12-.55,1.7,1.7,0,0,1-.3-0.3,1.378,1.378,0,0,1-.17-0.31,1.416,1.416,0,0,1,.24-1.24h3.13l2.09,2.39h-1.41Zm13.13,0h-8.99a1.7,1.7,0,0,1-1.7-1.69h12.39A1.7,1.7,0,0,1,1309.58,4437.63Zm0.4-2.85h-9.79c-1.02,0-1.85-1.25-1.85-2.8h13.49C1311.83,4433.53,1311,4434.78,1309.98,4434.78Zm7.79,1.7a1.378,1.378,0,0,1-.17.31,2.121,2.121,0,0,1-.3.3,3.594,3.594,0,0,1-1.13.55l-1.83-.01h-2.03l2.09-2.39h3.13A1.416,1.416,0,0,1,1317.77,4436.48Zm-0.8-3.3c-0.9,0-3.83.22-3.83-.71s2.93-2.64,3.83-2.64A1.676,1.676,0,0,1,1316.97,4433.18Z" transform="translate(-1290.38 -4422)"/>
</svg>
