<?xml version="1.0" encoding="utf-8"?>
<!-- Generator: Adobe Illustrator 21.0.1, SVG Export Plug-In . SVG Version: 6.00 Build 0)  -->
<svg version="1.1" xmlns="http://www.w3.org/2000/svg" xmlns:xlink="http://www.w3.org/1999/xlink" x="0px" y="0px"
	 viewBox="0 0 212.9 158.5" style="enable-background:new 0 0 212.9 158.5;" xml:space="preserve">
<style type="text/css">
	.st0{fill-rule:evenodd;clip-rule:evenodd;fill:#427437;}
	.st1{fill-rule:evenodd;clip-rule:evenodd;fill:#3F7D8C;}
	.st2{fill-rule:evenodd;clip-rule:evenodd;fill:#4CA1B4;}
	.st3{fill-rule:evenodd;clip-rule:evenodd;fill:#53BBBE;}
	.st4{fill-rule:evenodd;clip-rule:evenodd;fill:#1C5C68;}
	.st5{fill-rule:evenodd;clip-rule:evenodd;fill:#1C5C68;stroke:#1C5C68;stroke-miterlimit:10;}
	.st6{fill-rule:evenodd;clip-rule:evenodd;fill:#4FADB9;}
	.st7{fill-rule:evenodd;clip-rule:evenodd;fill:#73C8CA;}
	.st8{opacity:0.18;fill-rule:evenodd;clip-rule:evenodd;fill:#FFFFFF;}
	.st9{fill-rule:evenodd;clip-rule:evenodd;fill:#FFFFFF;}
	.st10{fill:#FFFFFF;stroke:#1C5C68;stroke-width:3;stroke-miterlimit:10;}
	.st11{fill:#32AB53;}
</style>
<g id="OBJECT">
	<g>
		<path class="st0" d="M165.9,140.4c-0.5,1.5-0.9,3-0.9,4.7c0,7.4,6,13.4,13.4,13.4c5.4,0,10-3.2,12.1-7.8c2.3,2.1,5.5,3.4,8.9,3.4
			c7.4,0,13.4-6,13.4-13.3c0-7.4-6.1-13.4-13.4-13.4c-0.1,0-0.3,0-0.3,0c0-0.4,0.1-1,0.1-1.4c0-7.4-6.1-13.4-13.4-13.4
			c-1.3,0-2.6,0.3-3.8,0.6c-1.9-3.8-5.3-6.4-9.2-6.4c-6,0-10.7,6-10.7,13.4c0,2.6,0.6,5,1.6,7.1c-0.6,1.5-0.9,3-0.9,4.7
			C162.9,135.1,164,138,165.9,140.4L165.9,140.4z"/>
		<path class="st0" d="M47,140.4c0.5,1.5,0.9,3,0.9,4.7c0,7.4-6.1,13.4-13.4,13.4c-5.4,0-10-3.2-12.1-7.8c-2.4,2.1-5.5,3.4-8.9,3.4
			C6,154,0,148.1,0,140.7c0-7.4,6-13.4,13.4-13.4c0.1,0,0.3,0,0.3,0c0-0.4-0.1-1-0.1-1.4c0-7.4,6-13.4,13.4-13.4
			c1.3,0,2.6,0.3,3.8,0.6c1.9-3.8,5.3-6.4,9.2-6.4c5.9,0,10.7,6,10.7,13.4c0,2.6-0.6,5-1.6,7.1c0.6,1.5,0.9,3,0.9,4.7
			C50,135.1,48.9,138,47,140.4L47,140.4z"/>
		<rect x="45.2" y="73.6" class="st1" width="119.5" height="74.1"/>
		<rect x="52" y="29" class="st2" width="106.1" height="37.1"/>
		<rect x="67.3" class="st1" width="75.4" height="20.8"/>
		<rect x="70.1" y="2.7" class="st3" width="15.5" height="15.4"/>
		<rect x="88.1" y="2.7" class="st3" width="15.5" height="15.4"/>
		<rect x="106.3" y="2.7" class="st3" width="15.4" height="15.4"/>
		<rect x="124.4" y="2.7" class="st3" width="15.5" height="15.4"/>
		<path class="st4" d="M161.9,32H48l0,0c0-6.4,5.3-11.6,11.6-11.6h90.7C156.7,20.4,161.9,25.6,161.9,32L161.9,32z"/>
		<path class="st5" d="M41.6,65.4h126.7c5.3,0,9.6,4.3,9.6,9.6v3.9H32V75C32,69.7,36.4,65.4,41.6,65.4L41.6,65.4z"/>
		<rect x="40.2" y="88.8" class="st6" width="14.8" height="51.6"/>
		<rect x="35.2" y="140.4" class="st7" width="24.9" height="7.3"/>
		<rect x="36.5" y="78.9" class="st3" width="20.3" height="10"/>
		<rect x="150.9" y="78.9" class="st3" width="20.3" height="10"/>
		<rect x="153.7" y="88.8" class="st6" width="14.7" height="51.6"/>
		<rect x="148.6" y="140.4" class="st7" width="24.9" height="7.3"/>
		<path class="st8" d="M70.8,100.5h69.3c3.7,0,6.8,3.1,6.8,6.9v40.3h-83v-40.3C63.9,103.6,67,100.5,70.8,100.5L70.8,100.5z"/>
		<path class="st9" d="M97.1,106.9h15.7c1.9,0,3.4,1.6,3.4,3.5v37.3c0,0.1-22.4,0.1-22.4,0.1c-0.1,0-0.2,0-0.2-0.1v-37.3
			C93.7,108.4,95.2,106.9,97.1,106.9L97.1,106.9z"/>
		<path class="st9" d="M123.1,106.9h15.7c1.9,0,3.4,1.6,3.4,3.5v37.3c0,0.1-22.4,0.1-22.4,0.1c-0.1,0-0.2,0-0.2-0.1v-37.3
			C119.7,108.4,121.2,106.9,123.1,106.9L123.1,106.9z"/>
		<path class="st9" d="M72.1,106.9h15.7c1.9,0,3.4,1.6,3.4,3.5v37.3c0,0.1-22.4,0.1-22.4,0.1c-0.1,0-0.2,0-0.2-0.1v-37.3
			C68.7,108.4,70.2,106.9,72.1,106.9L72.1,106.9z"/>
		<rect x="96.5" y="117.5" class="st1" width="3" height="18"/>
		<rect x="71.4" y="117.5" class="st1" width="3" height="18"/>
		<rect x="121.4" y="117.5" class="st1" width="3" height="18"/>
	</g>
</g>
<g id="Слой_2">
	<circle class="st10" cx="107.2" cy="50.7" r="23"/>
	<path id="path8" class="st11" d="M100.4,38.7l-7.9,20.7h7.4l2.8-7.2l4.6,8.5l4.6-8.5l2.8,7.2h7.4L114,38.7l-6.8,10.6L100.4,38.7z"
		/>
</g>
</svg>
