<?xml version="1.0" encoding="utf-8"?>
<!-- Generator: Adobe Illustrator 21.0.1, SVG Export Plug-In . SVG Version: 6.00 Build 0)  -->
<svg version="1.1" id="moon" xmlns="http://www.w3.org/2000/svg" xmlns:xlink="http://www.w3.org/1999/xlink" x="0px" y="0px"
	 viewBox="0 0 60.7 61.1" style="enable-background:new 0 0 60.7 61.1;" xml:space="preserve">
<style type="text/css">
	.st0{fill:url(#SVGID_1_);}
	.st1{opacity:0.161;fill:url(#SVGID_2_);enable-background:new    ;}
</style>
<linearGradient id="SVGID_1_" gradientUnits="userSpaceOnUse" x1="-241.9783" y1="619.9197" x2="-242.6854" y2="620.6268" gradientTransform="matrix(48.057 0 0 -52.065 11669.1162 32317.3105)">
	<stop  offset="0" style="stop-color:#FFFFFF"/>
	<stop  offset="1" style="stop-color:#FFFFFF;stop-opacity:0"/>
</linearGradient>
<path class="st0" d="M43.2,13.6c-14.9,0-26.9,12-26.9,26.9c0,6.5,2.3,12.4,6.1,17.1c-10-4-17-13.7-17-25.1c0-14.9,12.1-27,27-27
	c8.5,0,16.1,4,21.1,10.1C50.2,14.3,46.8,13.6,43.2,13.6z"/>
<linearGradient id="SVGID_2_" gradientUnits="userSpaceOnUse" x1="-242.9029" y1="620.8279" x2="-243.9029" y2="620.8279" gradientTransform="matrix(60.748 0 0 -61.062 14816.6162 37939.5273)">
	<stop  offset="0" style="stop-color:#FFFFFF"/>
	<stop  offset="1" style="stop-color:#FFFFFF;stop-opacity:0"/>
</linearGradient>
<path class="st1" d="M44.5,19.3c-12.6,0-22.8,10.2-22.8,22.8c0,7.9,4,14.8,10.1,18.9c-0.4,0-0.8,0-1.3,0C13.7,61.1,0,47.4,0,30.5
	S13.7,0,30.5,0c15.4,0,28.1,11.4,30.2,26.2C56.6,21.9,50.9,19.3,44.5,19.3z"/>
</svg>
