<?xml version="1.0" encoding="utf-8"?>
<!-- Generator: Adobe Illustrator 21.0.1, SVG Export Plug-In . SVG Version: 6.00 Build 0)  -->
<svg version="1.1" id="Hipster" xmlns="http://www.w3.org/2000/svg" xmlns:xlink="http://www.w3.org/1999/xlink" x="0px" y="0px"
	 viewBox="0 0 206.1 393.8" style="enable-background:new 0 0 206.1 393.8;" xml:space="preserve">
<style type="text/css">
	.st0{fill-rule:evenodd;clip-rule:evenodd;fill:#735B73;}
	.st1{fill-rule:evenodd;clip-rule:evenodd;fill:#FFBE73;}
	.st2{fill-rule:evenodd;clip-rule:evenodd;fill:#A10000;}
	.st3{fill-rule:evenodd;clip-rule:evenodd;fill:#DB0000;}
	.st4{fill-rule:evenodd;clip-rule:evenodd;fill:#B80000;}
	.st5{fill-rule:evenodd;clip-rule:evenodd;}
	.st6{fill-rule:evenodd;clip-rule:evenodd;fill:#DB0B0B;}
	.st7{fill-rule:evenodd;clip-rule:evenodd;fill:#E30000;}
	.st8{fill-rule:evenodd;clip-rule:evenodd;fill:#1A1A1A;}
	.st9{fill-rule:evenodd;clip-rule:evenodd;fill:#333333;}
	.st10{fill-rule:evenodd;clip-rule:evenodd;fill:#C40000;}
	.st11{fill-rule:evenodd;clip-rule:evenodd;fill:#BF0000;}
	.st12{fill-rule:evenodd;clip-rule:evenodd;fill:#8F0000;}
	.st13{fill-rule:evenodd;clip-rule:evenodd;fill:#945A21;}
	.st14{fill-rule:evenodd;clip-rule:evenodd;fill:#B3712E;}
	.st15{fill-rule:evenodd;clip-rule:evenodd;fill:#E0B255;}
	.st16{fill-rule:evenodd;clip-rule:evenodd;fill:#AD8585;}
	.st17{fill-rule:evenodd;clip-rule:evenodd;fill:#F2915C;}
	.st18{fill-rule:evenodd;clip-rule:evenodd;fill:#A17861;}
	.st19{fill-rule:evenodd;clip-rule:evenodd;fill:#FFB27F;}
	.st20{fill-rule:evenodd;clip-rule:evenodd;fill:#322733;}
	.st21{fill-rule:evenodd;clip-rule:evenodd;fill:#E8D3A9;}
	.st22{fill-rule:evenodd;clip-rule:evenodd;fill:#FFEECC;}
	.st23{fill-rule:evenodd;clip-rule:evenodd;fill:#3F3140;}
	.st24{fill-rule:evenodd;clip-rule:evenodd;fill:#73432E;}
	.st25{fill-rule:evenodd;clip-rule:evenodd;fill:#361D38;}
	.st26{fill-rule:evenodd;clip-rule:evenodd;fill:#F28A59;}
	.st27{fill-rule:evenodd;clip-rule:evenodd;fill:#CC512F;}
	.st28{fill-rule:evenodd;clip-rule:evenodd;fill:#D67B46;}
	.st29{fill-rule:evenodd;clip-rule:evenodd;fill:#ED8956;}
	.st30{fill-rule:evenodd;clip-rule:evenodd;fill:#FAF2DB;}
	.st31{fill-rule:evenodd;clip-rule:evenodd;fill:#326940;}
	.st32{fill-rule:evenodd;clip-rule:evenodd;fill:#584459;}
	.st33{fill-rule:evenodd;clip-rule:evenodd;fill:#FFC59E;}
	.st34{fill-rule:evenodd;clip-rule:evenodd;fill:#66493C;}
	.st35{fill-rule:evenodd;clip-rule:evenodd;fill:#E8704F;}
	.st36{fill-rule:evenodd;clip-rule:evenodd;fill:#E07945;}
	.st37{fill-rule:evenodd;clip-rule:evenodd;fill:#FFFFFF;}
	.st38{fill-rule:evenodd;clip-rule:evenodd;fill:#D9C08F;}
	.st39{fill-rule:evenodd;clip-rule:evenodd;fill:#F76346;}
	.st40{fill-rule:evenodd;clip-rule:evenodd;fill:#B81A1A;}
	.st41{fill-rule:evenodd;clip-rule:evenodd;fill:#372A38;}
	.st42{fill-rule:evenodd;clip-rule:evenodd;fill:#493E4A;}
	.st43{fill-rule:evenodd;clip-rule:evenodd;fill:#7A200C;}
	.st44{fill-rule:evenodd;clip-rule:evenodd;fill:#E68943;}
	.st45{fill-rule:evenodd;clip-rule:evenodd;fill:#CCCCCC;}
	.st46{fill-rule:evenodd;clip-rule:evenodd;fill:#821818;}
	.st47{fill-rule:evenodd;clip-rule:evenodd;fill:#FF976B;}
	.st48{fill-rule:evenodd;clip-rule:evenodd;fill:#D95E40;}
	.st49{fill-rule:evenodd;clip-rule:evenodd;fill:#E84545;}
	.st50{fill-rule:evenodd;clip-rule:evenodd;fill:#FFF2D9;}
	.st51{fill-rule:evenodd;clip-rule:evenodd;fill:#8F6851;}
	.st52{fill-rule:evenodd;clip-rule:evenodd;fill:#E3A758;}
	.st53{fill-rule:evenodd;clip-rule:evenodd;fill:#ED0000;}
	.st54{fill-rule:evenodd;clip-rule:evenodd;fill:#ED0C0C;}
	.st55{fill-rule:evenodd;clip-rule:evenodd;fill:#EDB868;}
	.st56{fill-rule:evenodd;clip-rule:evenodd;fill:#D99B4A;}
	.st57{fill-rule:evenodd;clip-rule:evenodd;fill:#FFE3B8;}
	.st58{fill-rule:evenodd;clip-rule:evenodd;fill:#E8AF5A;}
	.st59{fill-rule:evenodd;clip-rule:evenodd;fill:#BA0000;}
	.st60{fill-rule:evenodd;clip-rule:evenodd;fill:#593525;}
	.st61{fill-rule:evenodd;clip-rule:evenodd;fill:#7D4F3B;}
	.st62{fill-rule:evenodd;clip-rule:evenodd;fill:#8C5A45;}
	.st63{fill-rule:evenodd;clip-rule:evenodd;fill:#AB9B55;}
	.st64{fill-rule:evenodd;clip-rule:evenodd;fill:#B6BA65;}
	.st65{fill-rule:evenodd;clip-rule:evenodd;fill:#4D1C1C;}
	.st66{fill-rule:evenodd;clip-rule:evenodd;fill:#F29E66;}
	.st67{fill-rule:evenodd;clip-rule:evenodd;fill:#3D050E;}
	.st68{fill-rule:evenodd;clip-rule:evenodd;fill:#A65900;}
	.st69{fill-rule:evenodd;clip-rule:evenodd;fill:#EB8D00;}
	.st70{fill-rule:evenodd;clip-rule:evenodd;fill:#2B2323;}
	.st71{fill-rule:evenodd;clip-rule:evenodd;fill:#D4C1C1;}
	.st72{fill-rule:evenodd;clip-rule:evenodd;fill:#EDE1E1;}
	.st73{fill-rule:evenodd;clip-rule:evenodd;fill:#FFFF00;}
	.st74{fill-rule:evenodd;clip-rule:evenodd;fill:#FFE6D9;}
	.st75{fill-rule:evenodd;clip-rule:evenodd;fill:#EDC78E;}
	.st76{fill-rule:evenodd;clip-rule:evenodd;fill:#4A3221;}
	.st77{fill-rule:evenodd;clip-rule:evenodd;fill:#F29466;}
	.st78{fill-rule:evenodd;clip-rule:evenodd;fill:#EFDAF5;}
	.st79{fill-rule:evenodd;clip-rule:evenodd;fill:#B6A7BA;}
	.st80{fill-rule:evenodd;clip-rule:evenodd;fill:#EDB35C;}
	.st81{fill-rule:evenodd;clip-rule:evenodd;fill:#E8B972;}
	.st82{fill-rule:evenodd;clip-rule:evenodd;fill:#1C1C1C;}
	.st83{fill-rule:evenodd;clip-rule:evenodd;fill:#171717;}
	.st84{fill-rule:evenodd;clip-rule:evenodd;fill:#E6E6E6;}
	.st85{fill-rule:evenodd;clip-rule:evenodd;fill:#E6B56C;}
	.st86{fill-rule:evenodd;clip-rule:evenodd;fill:#E68757;}
	.st87{fill-rule:evenodd;clip-rule:evenodd;fill:#E3B36B;}
	.st88{fill-rule:evenodd;clip-rule:evenodd;fill:#FF9E6E;}
	.st89{fill-rule:evenodd;clip-rule:evenodd;fill:#E3A34F;}
	.st90{fill-rule:evenodd;clip-rule:evenodd;fill:#FCDCAB;}
	.st91{fill-rule:evenodd;clip-rule:evenodd;fill:#FFF1DB;}
	.st92{fill-rule:evenodd;clip-rule:evenodd;fill:#D1C0D6;}
	.st93{fill-rule:evenodd;clip-rule:evenodd;fill:#E6A94E;}
	.st94{fill-rule:evenodd;clip-rule:evenodd;fill:#F2BB68;}
	.st95{fill-rule:evenodd;clip-rule:evenodd;fill:#EDAD4E;}
	.st96{fill-rule:evenodd;clip-rule:evenodd;fill:#F7C271;}
</style>
<g id="Character">
	<path class="st0" d="M107.8,351.5c5.3,0.4,10.4,0.8,15.1,1.2c130.8,11.4,73.4,49.5-27.4,39.4c-42.7-4.3-87.9-11.5-86.7-27.6
		C9.5,356.4,39.4,346.7,107.8,351.5z"/>
	<path class="st1" d="M89.2,70c12.1-6.8,17.4-1.7,17.4-1.7c0.2-2-2.9,14.3-6.7,37.3c-13,5.5-19.3,5.4-15.7-2.8
		C85.3,92.8,86.9,81.9,89.2,70z"/>
	<path class="st1" d="M100.6,101.5c-10.7-1.1-16.1-1.6-16.1-1.6c-3.3,0.4-6,2.6-8.2,6.6c-3,7-0.2,10.8,3.4,11.6
		c5.3,1.2,13.6-3.3,18.2-6.5C102.4,107.5,103.3,104.1,100.6,101.5z"/>
	<path class="st2" d="M104.3,213.9C82.7,195.7,72,186.6,72,186.6c6.3,60,8.1,84,6.7,89.9c5.4,19.1,6.6,35.3,5.6,54.1
		c-1.6,6.6-2.3,9.9-2.3,9.9c10,1.9,15,2.8,15,2.8c0.2-20.5,1.6-38,4.2-52.7c-0.4-9.3-2.1-16.7-5.2-22.1
		C100.4,244.1,103.2,225.9,104.3,213.9z"/>
	<path class="st3" d="M93.9,216.2c-0.1,11.3-0.5,21.3-1,29.8c-0.5,8.5-1.3,15.7-2.2,21.4l0,0l0,0c-1.3,2.6-1.8,4.3-1.5,5.1
		c0.2,0.6,1.1,0.5,2.7-0.3l0.7-0.4l-0.3,0.7c-0.3,0.8-0.5,1.3-0.6,1.8c0,0.3,0,0.4,0.1,0.6c0.1,0.1,0.2,0.2,0.4,0.2
		c0.2,0,0.5,0,0.8-0.1l0.2-0.1l0.1,0.2c1.4,3.7,2.4,7.1,2.9,10.2c0.5,3.2,0.7,6,0.4,8.7c-1.5,13.8-2.5,24.1-3,31
		c-0.5,6.6-0.6,9.9-0.3,9.9l0.1,0.5c-0.8,0.1-0.9-3.3-0.4-10.4c0.5-6.9,1.5-17.2,3-31v0c0.3-2.6,0.2-5.4-0.4-8.5
		c-0.5-3.1-1.5-6.4-2.8-9.9c-0.3,0.1-0.6,0.1-0.8,0c-0.3-0.1-0.6-0.2-0.7-0.4c-0.1-0.2-0.2-0.5-0.2-0.9c0-0.4,0.1-0.8,0.3-1.3
		c-1.6,0.7-2.5,0.6-2.8-0.3c-0.3-0.9,0.3-2.7,1.6-5.4c0.9-5.7,1.6-12.8,2.2-21.3c0.5-8.5,0.9-18.4,1-29.8L93.9,216.2z"/>
	<path class="st4" d="M121.3,359.2c6.6,0.6,9.8,0.9,9.8,0.9c8.1-44.9,17.8-47.2,3.8-79.1c-5.9-13.5-7.2-32.6-9.4-55.3
		c3.7-12.5-5.1-30.7-5.5-34.2c-1.2-6-2.9-4.8-7.1-1.6c-31.8,6-39.7-1.6-41.1-3.3c3.3,3.3,4.9,6.6,6.5,10.3
		c3.5,7.7,6.7,16.5,10.9,24.9c4.5,1.6,5.8,0.6,7.6,0.5c9.1,24.3,18.3,47,19.6,65.4C125.5,314.4,122.7,339.3,121.3,359.2z"/>
	<path class="st4" d="M116.7,181.3c2.5-0.1,1,1.8,2.2,7.4c-1.9-0.2-13.3,3.5-22.4,6.4c-2,0.8-5.7,2.3-9.1,2.5
		c-4.8,0.3-9.3-1.3-11.6-3.7c-1.6-1.7-2.3-4.6-3.9-7.2c0.2-0.7-1.4-6.3,0.7-5.8c0,0.6-0.1,1,0.1,1.3c2.7,4.1,5,6.3,11.4,7
		C92.8,190.1,107.9,183.9,116.7,181.3z"/>
	<path class="st5" d="M121.4,352.3c5.7,1.4,9.5,3.2,11.5,5.3c1.9,7.2,2.4,12.8,1.4,16.9c-1.7,1.6-3.8,1.9-6.3,1.1
		c-12.7,7.3-25.1,8-35.4,3.7c-0.4-1.1-0.1-1.4-0.3-2.1c-0.2-0.7,1.2-0.3,1.2-0.8c0-1.2-1.1-2.5,1.2-3.4c8.9-3.5,13.3-7.7,17.1-10.1
		C115.8,361.6,119,358,121.4,352.3z"/>
	<path class="st5" d="M84.2,337.9c5.7,1.4,9.5,3.2,11.5,5.3c1.9,7.2,2.4,12.8,1.4,16.9c-1.7,1.6-3.8,1.9-6.3,1.1
		c-12.7,7.3-24.2,8.8-34.5,4.5c-1.1-3.5-1.6-5.2-1.6-5.2c9.3-5.4,15.9-9.4,19.9-12C78.5,347.2,81.8,343.7,84.2,337.9z"/>
	<path class="st3" d="M96.6,220c-2.8,0.7-3.8,1.2-6,0.7c-2.8-7.8-5.3-14.5-6.7-21.1c3.4,0.9,4.4,0.1,7.5-0.6
		C91.8,207.4,94.4,214.4,96.6,220z"/>
	<path class="st6" d="M118.9,284.9c-0.5-1.4-0.6-3.2-0.1-5.5c0,0,2.5,1.2,11.6,2.5c0,0-3.5,4.7-9.3,6.3
		C119.9,288.4,120.4,284.5,118.9,284.9z"/>
	<path class="st7" d="M92.6,199.4c3.5-1.6,7-2.9,10.5-3.7c3.7,10.5,7.3,15.4,15.3,15.6c0.6,4.5,0,9.1-0.2,14.8
		c0.8,13.3,6.2,39.8,10.2,51.9c0,0-1.1,0.7-10.7-1.5c-1.9-8.4-2.7-13.1-2.4-14c2.8,0.6,5.1,1.2,6.9,1.6c-2-1-4.6-2.4-7.8-4.2
		c0,0-5.5-13.3-16.5-39.8c22,2.4,22,1.4-0.1-2.9c25.2-4.4,24.9-5.4-1-3C95,209.7,93.7,204.7,92.6,199.4z"/>
	<path class="st3" d="M126.2,343.6c3.7,0.4,5.5,0.6,5.5,0.6s2-10.5,6.1-31.6c1.6-7.8-0.1-15.6-5.3-23.1c0,0-2.1,4.7-6.3,14.2
		C127.9,316.4,127.9,329.7,126.2,343.6z"/>
	<path class="st8" d="M111.3,364.5c-1.4,0.8-2.8,1.6-4,2.3c-0.3,0.1,3.4,3.3,3.2,3.4c-0.3,0.2-4.5-2.6-4.8-2.5
		c-6.2,3.4-10,5.4-10.8,7c-0.1,1.8,3.9,2.6,5.2,2.4c8.8-1.3,14.9-2.6,17.1-3.4c-3.1-2.9-5.3-5-5.4-5.7c0-0.1-0.3-0.3,0.3-0.2
		c1.5,0.2,6.3,4.8,7.2,4.2c0.5-0.4,4.1,2-0.1-2c4.5,2.9,2.2,0.4,2.2,0.4c0.4-3.1-1.6-3.7-2.5-6.2c2.1-4.3,5-8.8,5-8.8
		c-3.1,3.6-7.2,7.9-7.2,7.9C113.2,364.5,113.1,363.3,111.3,364.5z"/>
	<path class="st9" d="M99.1,372.6c0.8,1.4,1.6,2.6,2.3,3.6c-1.4-0.3-3.2-0.8-5.4-1.6C97,373.7,98,373,99.1,372.6z"/>
	<path class="st3" d="M120.2,351.6c-1,3.1-1.9,4.7-1,5c2.4-1.9,7.3,0,14.8,5.6c0.5-2.1,0-5,0.3-6.6c1.1-6.1,4-6-2.6-8.3
		c-3.1-1.1-6.1-1.1-9.4-0.4C119.8,347.5,121,349.2,120.2,351.6z"/>
	<path class="st4" d="M127.9,353.3c-2.8-1-4.9-0.4-6.3,1.7c3.8,0.2,7.7,2,11.5,5.2c-0.6-4.5,0-7.9,1.6-10c-3.4-2.3-6.9-3.1-10.6-2.4
		c3,0.8,5.1,1.5,6.2,2.1C130,351.8,129.2,352.9,127.9,353.3z"/>
	<path class="st10" d="M81.4,198.6c-2-1.1-3.6-3.5-3.6-3.5c0.4,7.7,0.7,11.1,0.7,11.1c5,5.7,5.7,7.8,5.7,7.8
		c-4.6-2.1-5.1-2.3-5.1-2.3c1.4,2.6,2.1,3.9,2.1,3.9c4.3,2,6.4,3,6.4,3c-3.1,1.8-4.6,2.7-4.6,2.7c0,31.1,0,46.7,0,46.7
		c8.8-32.2,11.6-47.5,8.4-45.8c-2.2-0.5-3.3-4.4-5.4-10.3C83.9,206.2,81.5,200.7,81.4,198.6z"/>
	<path class="st11" d="M83,335.9c-1,3.1-2,4.7-1,5c2.5-1.9,7.6,0,15.5,5.6c0.5-2.1,0-5,0.3-6.6c1.1-6.1,4.2-6-2.8-8.3
		c-3.2-1.1-6.4-1.1-9.9-0.4C82.6,331.8,83.8,333.5,83,335.9z"/>
	<path class="st12" d="M91.1,337.6c-3-1-5.2-0.4-6.6,1.7c4,0.2,8,2,12,5.2c-0.6-4.5,0-7.9,1.7-10c-3.6-2.3-7.3-3.1-11.1-2.4
		c3.2,0.8,5.4,1.5,6.5,2.1C93.2,336.1,92.4,337.2,91.1,337.6z"/>
	<path class="st13" d="M70.8,182.4c-0.1,3.3,0.2,6,0.2,6c4.7,5.5,9.1,6.2,13.5,6.7c6.2,0.8,28.7-5.2,36.6-8.8
		c-0.6-2.9-0.1-5.3-1-4.9c-3.8,1.4-22.6,9-35.4,8.6c-7.2-0.2-12.3-6-13-7.6C71.4,182,70.8,182.3,70.8,182.4z"/>
	<path class="st14" d="M85,195.2c3.2-0.1,5.2-0.3,5.9-0.5c6-0.7,10-1.8,11.8-3.2c0.8-1.1,0.5-2.1-0.6-3.1c-1.1-0.3-4.7,0.2-10.8,1.2
		c-4.2,0.1-6.3,0.1-6.3,0.1C84.4,191.8,84.5,193.6,85,195.2z"/>
	<path class="st3" d="M78.7,186.9c1.6,0.4,2.9,1.4,2.9,1.4s-0.6,3.3-0.4,9c-1-0.2-1.5-0.4-2.8-0.7C78.4,196.6,77.7,191.1,78.7,186.9
		z"/>
	<path class="st3" d="M73.2,183.5c0.2,1,1.5,1.7,1.5,1.7c-1.3,0.5-1.6,7.4-0.7,8.5c-0.9-0.4-1.5-0.8-1.8-1.4
		C72.3,192.2,70.8,184.7,73.2,183.5z"/>
	<path class="st15" d="M88.2,188.8c0.3,0,0.5,0.2,0.6,0.5c0,0.3-0.2,0.5-0.5,0.6c-1.1,0-2,0-2.6,0c-0.8,0-1.3,0-1.4,0
		c-0.1,0,0,0.4,0,1.3c0,0.3,0,0.7,0.1,1.1c0,0.8,0,1.4,0,1.9c0,0.8,0,1.2,0,1.2c0.1,0.1,0.6,0,1.5-0.1c0.7-0.1,1.6-0.2,2.7-0.2
		c0.3,0,0.6,0.2,0.6,0.5c0,0.3-0.2,0.6-0.5,0.6c-1.1,0.1-2,0.2-2.7,0.2c-1.2,0.1-1.8,0.2-2.2-0.1c-0.5-0.4-0.5-0.9-0.5-2.1
		c0-0.5,0-1.1,0-1.8c0-0.4,0-0.8-0.1-1.1c-0.1-1.3-0.1-1.9,0.5-2.2c0.4-0.3,1-0.3,2-0.2C86.3,188.8,87.2,188.8,88.2,188.8
		L88.2,188.8z M85.7,193.1l3-0.1c0.3,0,0.5-0.3,0.5-0.6c0-0.3-0.3-0.5-0.6-0.5l-3,0.1c-0.3,0-0.5,0.3-0.5,0.6
		C85.1,192.8,85.4,193.1,85.7,193.1z"/>
	<path class="st8" d="M73.4,350.7c-1.8,1-3.5,2-5,2.8c-0.4,0.2,4.1,3.3,3.8,3.5c-0.3,0.2-5.5-2.6-5.7-2.4c-5.5,3-8.7,4.8-9.5,6.3
		c-0.1,1.8,3.9,2.6,5.2,2.4c8.8-1.3,14.9-2.6,17.1-3.4c-3.1-2.9-5.7-5-5.8-5.6c0-0.1-0.3-0.3,0.3-0.2c1.5,0.2,6.7,4.7,7.6,4.1
		c0.5-0.4,4.1,2-0.1-2c4.5,2.9,2.2,0.4,2.2,0.4c0.4-3.1-1.6-3.7-2.5-6.2c2.1-4.3,5-8.8,5-8.8c-3.1,3.6-7.2,7.9-7.2,7.9
		C75.3,350.7,75.3,349.4,73.4,350.7z"/>
	<path class="st9" d="M61.2,358.7c0.8,1.4,1.6,2.6,2.3,3.6c-1.4-0.3-3.2-0.8-5.4-1.6C59.1,359.8,60.1,359.2,61.2,358.7z"/>
	<path class="st16" d="M77.5,348.5c-0.2,0-0.4-0.1-0.4-0.3c0-0.2,0.1-0.4,0.3-0.4c1.3-0.2,2.5-0.2,3.8,0.2c1.2,0.4,2.4,1.1,3.6,2
		c0.1,0.1,0.2,0.3,0,0.5c-0.1,0.1-0.3,0.2-0.5,0c-1.1-0.9-2.2-1.6-3.3-1.9C79.8,348.4,78.7,348.3,77.5,348.5z"/>
	<path class="st16" d="M80.3,346c-0.2,0.1-0.4,0.1-0.5-0.1c-0.1-0.2-0.1-0.4,0.1-0.5c2.2-1.6,4.3-1.7,7.3-1.7l0.5,0
		c0.2,0,0.3,0.1,0.3,0.3c0,0.2-0.1,0.3-0.3,0.3l-0.5,0C84.4,344.4,82.3,344.5,80.3,346z"/>
	<path class="st16" d="M82.1,343c-0.1-0.1-0.1-0.3,0-0.5c0.1-0.1,0.3-0.1,0.5,0c0.2,0.2,0.4,0.4,0.7,0.6c1.2,1.1,2.2,2.1,2.7,3.9
		c0,0.2-0.1,0.4-0.2,0.4c-0.2,0-0.4-0.1-0.4-0.2c-0.4-1.6-1.5-2.6-2.6-3.6C82.5,343.4,82.3,343.1,82.1,343z"/>
	<path class="st16" d="M115,362.4c-0.2,0-0.4-0.1-0.4-0.3c0-0.2,0.1-0.4,0.3-0.4c1.3-0.2,2.5-0.2,3.8,0.2c1.2,0.4,2.4,1.1,3.6,2
		c0.1,0.1,0.2,0.3,0,0.5c-0.1,0.1-0.3,0.2-0.5,0c-1.1-0.9-2.2-1.6-3.3-1.9C117.3,362.3,116.1,362.2,115,362.4L115,362.4z
		 M119.6,356.9c-0.1-0.1-0.1-0.3,0-0.5c0.1-0.1,0.3-0.1,0.5,0c0.2,0.2,0.4,0.4,0.7,0.6c0.3,0.3,0.5,0.5,0.8,0.8c1-0.1,2-0.1,3.1-0.1
		l0.5,0c0.2,0,0.3,0.1,0.3,0.3c0,0.2-0.1,0.3-0.3,0.3l-0.5,0c-0.9,0-1.8,0-2.6,0.1c0.6,0.7,1.1,1.5,1.4,2.5c0,0.2-0.1,0.4-0.2,0.4
		c-0.2,0-0.4-0.1-0.4-0.2c-0.3-1.1-0.9-1.9-1.5-2.6c-1.2,0.2-2.4,0.6-3.5,1.4c-0.2,0.1-0.4,0.1-0.5-0.1c-0.1-0.2-0.1-0.4,0.1-0.5
		c1.1-0.8,2.2-1.2,3.3-1.4c-0.1-0.1-0.3-0.3-0.4-0.4C120,357.3,119.8,357,119.6,356.9z"/>
	<path class="st3" d="M120.2,210.5c0.2,7.1,0.3,11.6,0.4,13.6l0,0.9l0,0.1c0.7,6.8,1.9,14.6,3.7,23.3c1.8,8.7,4,18.3,6.8,28.8
		c0.6,0.4,1,0.8,1.3,1.1c0.3,0.4,0.4,0.7,0.4,1c0,0.4-0.2,0.7-0.5,1c-0.1,0.1-0.3,0.2-0.5,0.3c0.6,0.4,0.9,0.8,1,1.2
		c0.1,0.5-0.1,0.9-0.7,1.3c2,1.4,3.4,3.1,4.5,4.9c1.1,1.9,1.7,4,1.7,6.4c0.1,0.1,0.2,0.2,0.3,0.3c0.4,0.4,0.6,0.7,0.6,1.1
		c0.1,0.4,0,0.7-0.2,1c1.2,3.8,1.7,7.7,1.6,11.5c-0.1,3.9-0.9,7.9-2.4,11.8c-1,3.4-2,7.3-3.1,11.8c-1.1,4.5-2.2,9.6-3.3,15.3
		l-0.7-0.1c1.2-5.7,2.3-10.8,3.3-15.3c1.1-4.5,2.1-8.5,3.1-11.9l0,0c1.5-3.9,2.2-7.8,2.4-11.6c0.1-3.8-0.4-7.7-1.6-11.5l-0.1-0.2
		l0.2-0.1l0.1-0.1c0.1-0.1,0.1-0.3,0.1-0.4c0-0.2-0.2-0.5-0.5-0.8c-0.1-0.1-0.2-0.2-0.4-0.4l-0.1-0.1l0-0.1
		c-0.1-2.3-0.6-4.4-1.7-6.2c-1.1-1.9-2.6-3.5-4.7-5l-0.4-0.3l0.4-0.3c0.5-0.3,0.8-0.7,0.8-0.9c-0.1-0.3-0.4-0.7-1.2-1l-0.6-0.3
		l0.6-0.3c0.4-0.2,0.6-0.3,0.8-0.5c0.2-0.2,0.2-0.3,0.2-0.5c0-0.2-0.1-0.4-0.3-0.6c-0.3-0.3-0.7-0.7-1.3-1.1l-0.1-0.1l0-0.1
		c-2.8-10.6-5.1-20.3-6.9-29c-2.5-12.4-3.5-16.5-3.7-24.4c-0.1-2-0.2-6.5-0.4-13.6L120.2,210.5z"/>
	<path class="st17" d="M77.9,70.8c-3.1,2.5-2.8,2.2-6.5,0.5c-3.1-6-3-8.7,0.1-11.8C77.8,61.2,79.5,65.4,77.9,70.8z"/>
	<path class="st18" d="M71.8,40.2c3.3,1.6,5,2.4,5,2.4c-2.2,2.7-4.3,8.1-6.4,16.2C69.2,48.5,69.7,42.3,71.8,40.2z"/>
	<path class="st19" d="M97.9,41.8c1.3,0.4,2.7,1.9,2.7,1.9c1.1,1.3,6.5,5.6,6,8.5c-0.7,4-7.4,7-3.8,10.5
		c-2.1,10.2-0.7,15.8-2.3,19.6c-4.6,4.3-9.4,7.3-14.4,9.3c-6.9,1.5-12,1.4-15.1-0.1c-0.9-1.6-0.8-3.7,0.1-6.2
		c0-0.2,2.4-8.4,0.6-12.9c-3.2-8.1-1.4-7.4-0.6-9.9c1.4-4.4-1-0.9,0.3-8.5c0.6-3.5,0.1-8.5,3.1-10c1.9-1,4.4-1,4.8-0.7
		C86.7,42.5,91.9,41.2,97.9,41.8z"/>
	<path class="st18" d="M104.1,81.1c2.9-4.2,6.6-8.1,8.7-11.5c3.3-9.9,3.6-17.5,1.1-22.9c-3.4-6-10.8-8.7-17.4-3.9
		c1.8,2.1,2.3,3.8,2.2,4.8c2.6,0.6,4.9,1.7,7.1,3.3c-4-1.5-7.3-2.3-10.2-1.9c3.8,0.7,5.8,1.1,9.2,3.2c-2.5-0.8-4.7-1.3-6.7-1.5
		c-0.1,0.5-0.3,1-0.4,1.6c0.1,1.8,0.8,4.4,2,5.7c0.6,4.4-0.4,7.8-0.4,7.8c0.8-0.2,3.4-0.2,3.4-0.2C106.4,71.5,105.1,70.9,104.1,81.1
		z"/>
	<path class="st20" d="M118.4,43.2c-7-1-12.9-1.8-18.7-1c-7.2,1.1-14,4-19.8,4.1c-13.5-3.5-11.6-14.7-2.5-15.5
		c4.6-0.4,5.9,0.1,5.9,0.1C94.3,27.8,110.5,35.7,118.4,43.2z"/>
	<path class="st21" d="M121.4,53.5c-6.5-10.1-20.4-24.5-34.8-29.1c6.5-2.8,9.4-6.9,15.3-6.8c8.5,1.2,14.9,0.8,19.9,6.5
		c8.1,9.2,0.5,5.6-1.2,12.6C119.6,40.4,121.6,46,121.4,53.5z"/>
	<path class="st22" d="M112.8,69.6c0.6-0.1,3-0.1,3.4-3.4c-0.2-0.2,1.5-6.3,7.6-10.7C118,33.8,113,24.9,86.4,24.3
		c-6.2-0.1-4.8-1.1-8.4,3.3c-0.8,1-1.8,2.2-3,3.6C127.4,30.8,112.8,69.6,112.8,69.6z"/>
	<path class="st23" d="M77.3,29.9c-2,4.1-1.5,10.5-0.1,14C70.7,39.6,66.7,30.8,77.3,29.9z"/>
	<path class="st24" d="M100.1,33.2c-5.8,0.5-15.3,5-18.7,11.8c4.9-3.4,22.2-8.2,25.4-7.2C107.9,36.7,101.4,35.8,100.1,33.2z"/>
	<path class="st23" d="M83.6,87.1c-5.2-4.7-9.1-5-12.7-1.8c-1.4,1.1-0.8,5.6,0.6,7.5c5.7,3.7,9.1,3.1,16.7-0.2c4.2-2,8.3-4.7,12-8.3
		c3.1-3.1,3-5.8,2.6-9.5c-0.5-4.1-0.3-9.4-0.2-12.1c-0.5,1.5-2.1-0.2-3.2,0.6c-0.4,0.3-0.5,3-0.6,3.4c-2.4,6.2-4.6,0.5-6.6,11.9
		c0-2.8-0.1-5.1-0.1-7C89.7,87.2,86.8,87.2,83.6,87.1z"/>
	<path class="st25" d="M71.6,92.8c-0.3-0.8-3.6-3.5-3.7-4.1c-1.6-7.1,1.7-7.5,2.1-20.4c0.2,1.5,1.9,2,2.4,5.9
		c0.3,2.4,0.6,5.9-0.7,10.5C71.1,86.9,70.1,88.3,71.6,92.8z"/>
	<path class="st26" d="M86,75.2c-4.8,1.8-9.9,2.7-11.7,0.6c-3.4,1.8,0.1,3.7,2.4,3.8C80.6,79.7,83.8,77.9,86,75.2z"/>
	<path class="st27" d="M75.2,77.1c-1.6-0.4-2.1-1.8-2.1-3.8c1.1,1.6,1.6,2.1,3.3,2.2c2.6,0.2,7.6-0.8,12.3-2.3
		C83.2,77.6,79,78.2,75.2,77.1z"/>
	<path class="st28" d="M81.5,79.5c-3.2,3.6-5.2,3.9-7.7-0.3C75.7,80.4,77.9,80.5,81.5,79.5z"/>
	<path class="st20" d="M98.5,57.8c-5.6-1-10.8-1.2-15.6-0.7c0.5-1.9,0.9-3.5,1.3-5.1C88,53.1,95.7,55.3,98.5,57.8z"/>
	<path class="st23" d="M91.9,54.2c-3.9,1.2-6,2.6-9,2.8c1.9-2.8,3.4-4.4,4.3-4.8C89.3,53,90.3,53.4,91.9,54.2L91.9,54.2z M89,57.3
		c0,0,1.5-0.7,5.4-2.3c0,0-2.3,0.4-7.1,1.8C87.3,56.9,88.1,57.2,89,57.3z"/>
	<path class="st29" d="M74.4,70.1c-0.2,1.5,0.9,2.2,2.9,2.9c1.6-0.5,3.3-1.1,3.7-2.8C79.2,69.8,77.3,71.2,74.4,70.1z"/>
	<path class="st30" d="M71.6,62.6c1,1,3.1,1.8,4.7,1.7c0.4-2.8-1.2-4.2-2.1-5.1C72.2,60,71.5,60.8,71.6,62.6z"/>
	<path class="st23" d="M77.3,75.6c1,0.4,1.6,0.2,2,0c4.4,0.2,10.3,0.8,9.5-5.3c-1.3,1.5-4.2,1.8-6.8,2
		C79.2,72.6,76.8,72.7,77.3,75.6z"/>
	<path class="st23" d="M76.7,75.6c-0.4,0.2-1.1,0.2-1.5-0.2c-4.7-0.7-6.9-0.8-6-6c0.3,2.1,1.4,2.7,2.7,2.9
		C73.9,72.6,76.2,72.1,76.7,75.6z"/>
	<path class="st31" d="M75.1,59.3c-1.2-0.1-2.3,0.9-2.4,2.2c-0.1,1.4,0.9,2.6,2.1,2.7c1.2,0.1,2.3-0.9,2.4-2.2S76.3,59.4,75.1,59.3z
		"/>
	<path class="st32" d="M79.7,46.3c-0.6-5.8-0.4-10.2,0.4-13c0.5-1.6,1.2-2.7,2.2-3.4c1-0.7,2.2-0.9,3.6-0.6c1.4,0.3,3.1,1,5,2.3
		l-0.2,0.3c-1.8-1.2-3.5-2-4.8-2.2c-1.3-0.3-2.4-0.1-3.3,0.5c-0.9,0.6-1.6,1.7-2.1,3.2c-0.9,2.8-1,7.1-0.4,12.9L79.7,46.3z"/>
	<path class="st23" d="M93.2,31c-6.9,3.4-11.3,8.5-13.5,15.3C81.6,34.4,86.1,29.3,93.2,31z"/>
	<path class="st30" d="M94.5,62c-2.1-1-4.2-2.1-8.4-2.4c-2.1,0.7-2.5,4.2-2.3,5C87.9,65,91.3,64.1,94.5,62z"/>
	<ellipse transform="matrix(0.1276 -0.9918 0.9918 0.1276 15.6245 141.8915)" class="st31" cx="88.5" cy="62.1" rx="2.5" ry="2.7"/>
	<path class="st33" d="M96.3,61.7c-1.4-3-4.3-3.4-10-3.7c0,0-2,2.3-2.6,3.3C86.8,60.1,91.2,59.7,96.3,61.7z"/>
	<path class="st34" d="M94.4,62.1c-4.8-2.3-7.6-1.8-10.9-0.6c3.1-2.6,8-2.6,13.7,0.2c-3.2,2.2-5.9,4.3-13.3,3.3
		C92.5,65.2,94.6,62.3,94.4,62.1z"/>
	<path class="st35" d="M84.9,64.7c-0.7-0.4-1-1.1-1-2.3C83,64.3,83.3,65,84.9,64.7z"/>
	<path class="st36" d="M74.4,70.1c0.5,1.3,1.1,2,2.9,2.9c-2-0.1-3.3-1.2-4-3c1.3-2.5,1.9-2.8,3.7-3.3C75.5,67.9,75,68.9,74.4,70.1z"
		/>
	<path class="st37" d="M77.9,68.9c-0.6,0.6-1.3,0.8-2,0.9c1,0.2,1.9,0.1,2.5-0.1C78,69.2,77.9,68.9,77.9,68.9z"/>
	<path class="st38" d="M116.4,56.6c2.6-2.1,3.3-3.5,5-5c-3.6-11.9-7.4-18.1-12.4-21.2c-0.9,1.4-3,2.8-6.5,4c2.6-1.8,4.1-3.4,4.5-5
		c-0.8,1.5-2.9,2.9-6.6,4.2c2.6-1.8,4.1-3.4,4.5-5c-1.4,1.9-4.5,3.4-9.4,4.6c14.3,4,20.7,13.6,19.1,28.9c3.2-3.5,6.4-6.8,7.7-7.9
		C119.2,55.5,116.4,56.6,116.4,56.6z"/>
	<path class="st38" d="M113.3,20.5c-2.9,1-5.1,2.8-6.6,5.6c7.2,5.6,11.9,11.9,14.2,18.9c-2-7-2-12.2,0.1-15.4c2.6-0.1,2.9-1.3,1-3.6
		c-1.8-2.4-3.6-4-5.4-4.9c-3.4,1.2-6,2.6-7.8,4.2C110.6,23.2,112.1,21.6,113.3,20.5z"/>
	<path class="st8" d="M75.2,60.8c-0.6-0.1-1.1,0.4-1.2,1c0,0.6,0.4,1.2,1.1,1.2c0.6,0.1,1.1-0.4,1.2-1
		C76.3,61.4,75.8,60.9,75.2,60.8z"/>
	<ellipse transform="matrix(0.1277 -0.9918 0.9918 0.1277 5.1692 128.4276)" class="st37" cx="75.6" cy="61.3" rx="0.6" ry="0.7"/>
	<path class="st33" d="M71.3,62.1c1.2-2.1,2.9-2.5,5.1-1.3c0-1.1-0.1-1.1-0.1-2.1C73.8,58.5,71.9,59.2,71.3,62.1z"/>
	<path class="st34" d="M71.6,62.6c1-2.7,2.7-2.6,5.4-1.3c-3.5-3.3-6.2-0.4-6.1,1.4c1.2,1.6,2.7,2.2,5.2,2.3
		C73.3,64.5,72.3,63.6,71.6,62.6z"/>
	<path class="st36" d="M75.4,68.1c2-3.3,3.1-9.5,1.9-15.7c0,0,0.1,3.3-1.5,4.7c0.8,3.1,0.6,6.5-0.6,10.2
		C75.4,67.8,75.5,68.1,75.4,68.1z"/>
	<path class="st20" d="M70.3,58.7c2.1-1,4.3-1.9,7.5-1c0-1.9,0-3.5-0.5-5.2C73.9,52.5,69.6,56.2,70.3,58.7z"/>
	<path class="st23" d="M72,54.2c1.3,1.4,2.9,3.4,5.4,3.5c-2.1-3.4-1.1-4.9-1.6-5.3C73.5,53,73.8,53.2,72,54.2L72,54.2z M72,57.9
		c0,0-0.1-0.1-2.4-1.6c0,0,0.6,0,3.8,1.3C73.5,57.7,73,57.8,72,57.9z"/>
	<path class="st23" d="M100.1,33.2c-5.8,0.5-15.3,5-18.7,11.8c4.9-3.4,22.2-8.2,25.4-7.2C107.9,36.7,101.4,35.8,100.1,33.2z"/>
	<ellipse class="st39" cx="89.2" cy="67.6" rx="3.7" ry="2"/>
	<ellipse class="st39" cx="72.6" cy="66.6" rx="2.9" ry="2"/>
	<path class="st40" d="M95.1,59.9c1.3,0.1,1.7,0.2,1.7-0.9c0-0.8-0.4-0.7-1.4-0.7c-2-0.1-6.8-0.2-14.4-0.5
		c-4.7-0.2-9.4-0.2-14.1-0.3c-0.8,0-1.1-0.2-1.1,0.7c-0.1,1.1,0.2,1,1.2,1c-0.1,1.2-0.1,3.5,0.3,5.4c0.5,2.4,1,2.6,2.6,2.6
		c1.8,0,2.4,0,3.4,0c2.8,0.2,3.2-2.3,3.8-4.3c1.1-3.3,3-3,4,0.1c0.7,2.1,0.8,4.6,4.6,4.6c1.3,0,2.1,0.1,4.5,0.2
		c2.2,0.1,2.9-0.1,3.8-2.5C94.8,63.4,95.1,61,95.1,59.9L95.1,59.9z M76.2,59c0.5,0,1.1,0,0.8,1.5c-1,2.4-0.8,5.3-3.2,5.5
		c-1.9,0.1-2.7,0-3.7,0c-1.3-0.1-1.4,0.1-1.8-1.8c-0.1-0.5-0.2-1-0.2-1.2c-0.1-0.7-0.1-0.9-0.1-1.6c0-2.2-0.2-2.3,1.4-2.3
		C71.6,58.9,73.9,58.9,76.2,59L76.2,59z M83,59.1c3,0.1,6,0.2,9,0.3c2.1,0.1,1.8,0.2,1.5,2.4c-0.1,0.7-0.2,1-0.3,1.6
		c-0.1,0.2-0.2,0.7-0.4,1.2c-0.7,1.9-0.8,1.7-2.5,1.7c-1.4,0-2.5,0-4.9-0.2c-3.1-0.3-2.5-3.2-3.5-5.6C81.6,59.1,82.4,59.1,83,59.1z"
		/>
	<path class="st41" d="M75.7,85.2c-0.1,1.1,0.6,1.9,2.2,1.1c1-0.8,1.3-2.9,0.9-4.8c-1.2,0.1-2.3-0.1-3.3-0.4
		C76.1,81.9,76.1,83.3,75.7,85.2z"/>
	<path class="st25" d="M100.7,81.7c-6.1,5.5-10.9,8.4-14.4,8.6c6.2-3.5,10.7-9.6,13.5-18.2c0.1,1.5,0.2,3.4,0.3,5.6
		c0.4-2.2,0.8-5.6,1.1-10.3C102.2,75,102,79.8,100.7,81.7z"/>
	<path class="st25" d="M71.8,86.9c-1.8,4.6,0.9,9.3,5.7,9.7c1.6,0.1,4.4-0.8,6.8-1.6c7.3-2.5,15.9-8.2,17.5-12.4
		c-5.4,5.6-11.5,9.2-18.2,10.8c0.6-2.8-1.5-3.7-4.1-3C76.3,91.3,72,92.6,71.8,86.9z"/>
	<path class="st42" d="M87.7,74.5c1.2-2.8-0.1-4.3-3.4-3.9C86.8,68.3,92.1,69.9,87.7,74.5z"/>
	<path class="st42" d="M70.1,74.2c-1.2-2.8,0-4.7,2.2-4.3C69.9,67.6,65.8,69.6,70.1,74.2z"/>
	<path class="st20" d="M71,72c2.3-0.1,3.7,1.9,4.3,3.4C73.2,75.3,71.6,73.7,71,72z"/>
	<path class="st20" d="M84.2,72.2c-2.6-0.7-4.9,1.5-5,3.5C82,75.9,83.6,74,84.2,72.2z"/>
	<path class="st37" d="M79.9,62.3c-0.5,1.8-1,3.1-1.5,3.9c0.5-1.8,0.7-3.4,0.6-4.8C79.6,62,79.9,62.3,79.9,62.3z"/>
	<path class="st37" d="M77,78.7c2.1-0.6,3.9-1,5.2-1.1C80.9,78.4,79.2,78.7,77,78.7z"/>
	<path class="st43" d="M77.9,71.8c1,0.1,1.7-0.3,2-1c-1.4-0.2-2.4,0.2-3.1,1.2C77.4,71.8,77.7,71.7,77.9,71.8z"/>
	<path class="st32" d="M73,38.1c-1.1-1.1-1.6-1.7-1.6-1.7c1.2-1.5,2.4-2.5,3.7-3C75,35,75,36.3,75.2,37.2c-0.5-1.6-0.8-2.4-0.8-2.4
		C73.1,36.3,72.6,37.4,73,38.1z"/>
	<path class="st44" d="M102.1,94.9c-3.9,4.8-7,8.7-9.3,11.7c-7.6,10-16,6.7-14.3-0.8c4-4,6-6,6-6c0.2-1.9,0.3-2.8,0.3-2.8
		c0-1.8-0.1-1.9-0.6-2.1c10.1-3.8,16.3-8.9,18.7-15.1c0.2-1.4,0.5-1.3,0-5.2c-0.1-1.5-0.2-2-0.2-2c1.5,4.3,1.7,5.4,1.7,5.4
		C103.7,83.7,103.2,87.2,102.1,94.9z"/>
	<path class="st45" d="M119.3,181.2c1-1,0.5-2.5-1.4-4.6c-18.7,8.2-26.7,10.3-26.7,10.3C110.9,181.8,119.3,181.2,119.3,181.2z"/>
	<path class="st46" d="M104.5,60.3c-0.4,0.8-0.7,1.2-0.7,1.2s-2.5-0.5-7.5-1.6c0,0,0-0.5,0.1-1.6C101.8,59.7,104.5,60.3,104.5,60.3z
		"/>
	<path class="st47" d="M102.6,68.3c0.3,1,0.5,2.6,1.1,3.3c1.3,1.4,3.3,1.4,4.3-1c0.1-0.2,1.2-2.2,1.3-2.3c2.6-4.2,3.3-10.2-1.3-9.5
		C103.1,59.5,101.9,63.9,102.6,68.3z"/>
	<ellipse transform="matrix(0.1276 -0.9918 0.9918 0.1276 15.6279 141.8946)" class="st8" cx="88.5" cy="62.1" rx="1.2" ry="1.3"/>
	<ellipse transform="matrix(0.1277 -0.9918 0.9918 0.1277 17.2229 143.204)" class="st37" cx="90" cy="61.8" rx="0.6" ry="0.7"/>
	<path class="st48" d="M109.8,59.9c-0.2,0.2-0.4,0.5-0.6,0.7h0c1.9,8-4,10-4.2,7.9c0.1-0.5-0.1-1-0.7-1.5c1,0.1,1.5,0.5,1.5,1.2
		c2.6,1.2,3.3-4.9,2.5-6.9c-0.2,0.2-0.5,1.2-1,1.2c-0.7,0-1.2,0.4-1.5,0.6c0.2,0.6,0.5,1.4,0.9,2.2c-1.5,0-1.7,0-2.5-1.1
		C105.7,61.2,107.5,59.8,109.8,59.9z"/>
	<path class="st37" d="M72.5,65.7c-0.1,0-0.1-0.1-0.1-0.2c0-0.1,0.1-0.1,0.2-0.1l0.1,0c0.8,0.1,1.4,0.1,1.9-0.2
		c0.4-0.3,0.7-0.7,0.8-1.3l0-0.1c0-0.1,0.1-0.1,0.2-0.1c0.1,0,0.1,0.1,0.1,0.2l0,0.1c-0.1,0.7-0.5,1.3-1,1.6
		c-0.5,0.3-1.2,0.4-2.1,0.2L72.5,65.7z"/>
	<path class="st37" d="M89.9,66.3c-0.1,0-0.2-0.1-0.1-0.2c0-0.1,0.1-0.2,0.2-0.1c1.4,0.1,2.2-0.3,2.3-1.3c0-0.1,0.1-0.2,0.2-0.1
		c0.1,0,0.1,0.1,0.1,0.2C92.4,66,91.5,66.5,89.9,66.3z"/>
	<path class="st37" d="M68.9,64.3c0,0.1-0.1,0.2-0.1,0.2c-0.1,0-0.2-0.1-0.2-0.1l-0.3-3.7c-0.1-0.9,0.1-1.3,1.1-1.4
		c0.5-0.1,1.3,0,2.4,0c0.6,0,1.2,0,1.9,0c0.1,0,0.2,0.1,0.2,0.2c0,0.1-0.1,0.2-0.2,0.2c-0.7,0-1.4,0-1.9,0c-1.1,0-1.8,0-2.3,0
		c-0.7,0.1-0.9,0.3-0.8,1.1L68.9,64.3z"/>
	<path class="st37" d="M83.4,64.5c0,0.1,0,0.2-0.1,0.2c-0.1,0-0.2-0.1-0.2-0.1l-0.7-3.7c-0.2-0.9,0-1.3,0.9-1.4c0.5-0.1,1.3,0,2.4,0
		c0.6,0,1.2,0,1.9,0c0.1,0,0.2,0.1,0.2,0.2c0,0.1-0.1,0.2-0.1,0.2c-0.7,0-1.4,0-1.9,0c-1.1,0-1.8,0-2.3,0c-0.7,0.1-0.8,0.3-0.7,1.1
		L83.4,64.5z"/>
	<path class="st49" d="M69.3,57.9c-0.1,0-0.2-0.1-0.2-0.2c0-0.1,0.1-0.2,0.2-0.2l26.5,0.9c0.1,0,0.2,0.1,0.2,0.2
		c0,0.1-0.1,0.2-0.2,0.2L69.3,57.9z"/>
	<path class="st50" d="M98.7,28.5c-0.1,0.5-0.5,1-0.9,1c-0.5,0-1-0.5-1.1-1.2c0-0.7,0.4-1.3,0.9-1.3c0.4,0,0.7,0.2,0.9,0.7
		c0.2,0,0.4,0.2,0.4,0.5C99,28.2,98.9,28.4,98.7,28.5L98.7,28.5z M97.2,30.6c0.2-0.1,0.1-0.5-0.2-0.8c-0.3-0.3-0.7-0.5-0.9-0.3
		c-0.2,0.1-0.1,0.5,0.2,0.8C96.6,30.6,97.1,30.7,97.2,30.6L97.2,30.6z M94.1,28.3c0,0.3,0.3,0.6,0.6,0.6c0.3,0,0.6-0.3,0.5-0.6
		c0-0.3-0.3-0.6-0.6-0.6C94.3,27.7,94,28,94.1,28.3z"/>
	<path class="st22" d="M99.5,18.6c-0.4,0.3-0.6,0.7-0.4,1c0.2,0.4,1,0.5,1.6,0.2c0.6-0.2,1-0.7,0.7-1.1c-0.2-0.3-0.6-0.4-1-0.4
		c-0.1-0.2-0.4-0.2-0.6-0.1C99.6,18.3,99.5,18.5,99.5,18.6L99.5,18.6z M98.4,20.4c0-0.2,0.4-0.3,0.8-0.2c0.4,0.1,0.8,0.3,0.7,0.5
		c0,0.2-0.4,0.3-0.8,0.2C98.7,20.8,98.4,20.5,98.4,20.4L98.4,20.4z M101.9,21.6c-0.3,0.1-0.7,0-0.8-0.2c-0.1-0.2,0-0.5,0.3-0.6
		c0.3-0.1,0.7,0,0.8,0.2C102.4,21.2,102.2,21.5,101.9,21.6z"/>
	<path class="st32" d="M86.3,39.9c2.2-1,5.4-1.7,9.5-2.1c-2.2,0-2.9-0.6-2.4-1.9C91.5,36.4,89.1,37.7,86.3,39.9z"/>
	<path class="st32" d="M82.7,36.8c0.9-0.7,1.2-0.5,0.9,0.6c0.8-1,1.8-2,2.9-3c-1.1,0.2-1.6-0.1-1.7-0.6
		C84.1,34.6,83.4,35.6,82.7,36.8z"/>
	<path class="st51" d="M112.5,66.6c0.6-8.4-2.1-11.2-8-8.4c3.4-5,4.1-10.1,2.2-15.5c1.6,0.4,2.7,0.7,3.2,1
		C114.4,51.2,115.3,58.8,112.5,66.6z"/>
	<path class="st52" d="M72.4,109.4c-3.2,17.3-4.8,25.9-4.8,25.9c-22.1-2.1-36.9-3.6-44.5-4.3c-3.4-0.3-9.1,1.6-8.6-1.1
		c-3.6,0.2-3.7-1.8-6.4-4.1c-1.7-4.4-0.9-8.4,2.6-11.9l10.7-2.2l0.9-4.1c1.3,0,4.3-1.5,5.6-1.4c0.6,0-1.2,2.1,0.9,2.1
		C58.5,108.6,72.4,109.4,72.4,109.4z"/>
	<path class="st53" d="M118.2,198.5c0.6,2.8,1.1,5.4,2.8,8.1c-4.2-0.9-8.3-2.5-10.6-6.8c2-0.3,3.7-0.6,5-0.8
		C116.5,198.8,117.5,198.6,118.2,198.5z"/>
	<path class="st3" d="M92.5,188.2c1.8-0.5,2.9-0.8,2.9-0.8s0.6,3.2,1.8,8.9c-1,0.3-1.3,0.2-2.5,0.6
		C94.7,196.9,93.8,193.8,92.5,188.2z"/>
	<path class="st3" d="M104.1,184.5c1.8-0.5,2.9-0.8,2.9-0.8s0.6,3.2,1.8,8.9c-1,0.3-1.3,0.2-2.5,0.6
		C106.3,193.3,105.3,190.2,104.1,184.5z"/>
	<path class="st54" d="M105.8,195.3c0.9,3.6,2.5,6.4,5,8.6c2.4,2.2,5.7,3.7,9.7,4.5l-0.1,0.3c-4.1-0.8-7.3-2.4-9.8-4.6
		c-2.5-2.2-4.2-5.2-5.1-8.8L105.8,195.3z"/>
	<path class="st54" d="M109.5,198c2.7-0.4,5.4-1.4,8.2-1.4c0.1,0.5,0.3,1.1,0.4,1.6c-0.7,0.1-1.6,0.3-2.8,0.5
		c-1.4,0.2-3.1,0.5-5.1,0.8C109.9,199,109.7,198.5,109.5,198z"/>
	<path class="st55" d="M113.5,157.1c13.3,29.2,25.5,85.7,22.6,84.7c-11.3,7.1-31.3,10.7-49.1,5.8c-0.6-0.2,1.3,2.6,1.3,4
		c-11.6-2.5-18-5-20.5-5.4c1.8-32.5,1.1-87.9,1.1-87.9c-11.7-29.6-15.2-50.1-15.2-50.1c17.3-3.9,26-5.9,26-5.9
		c-0.7,3.6-3.2,7.3-3.4,10.4c-0.7,8.9,2.6,15.5,5.7,20.3c12.6-15.1,18.8-25.6,18.7-31.5c20.1,7.5,24.2,9.2,26.1,11.5
		C115.7,141.7,111.7,156.5,113.5,157.1z"/>
	<path class="st56" d="M134.8,237.8c-5,3.2-6.3,4-6.3,4c-12-39.9-18-54.8-18-54.8c-0.1-0.3-2.3-2.6-2.4-2.8
		c-4-13.5-8.6-34.8-7.1-44.9c0.5-3,1.7-3.7,3.6-3.7c7.5,15.8,9.6,27.4,9.8,29.5c13.5,41.7,20.2,62.6,20.2,62.6
		C134.8,234.4,134.8,237.8,134.8,237.8z"/>
	<ellipse class="st37" cx="105.5" cy="66.5" rx="1.6" ry="1.8"/>
	<path class="st57" d="M79.9,163.1c10.2-11.2,18.7-29.8,25.1-38.4c-6.3-6.8-9.4-10.2-9.4-10.2c8.9,1.7,13.4,2.6,13.4,2.6
		c0-5.1-1.9-5.8,0.5-12.2c-1.6-2.5-3.4-5.9-4-9.3c-0.8-5.3,0.2-7.9-2.4-8.8C97.2,120.5,72.4,126,79.9,163.1z"/>
	<path class="st56" d="M76.3,106.6c-0.6,27.9,1.3,46,5.5,54.3c-3.1,4.6-3.8,3.8-3.8,3.8c3.6,67.4,6.8,83.9,6.8,83.9
		c-10.9-3-13.6-2.4-13.6-2.4c-1.1-48.2-1.7-75.1-1.8-80.7c0-0.2,1.5-1.5,1.5-1.7c0-0.4-1.5,0.6-1.5,0.6c-1.1-1.5-1.6-2.2-1.6-2.2
		c1.7-2.1,4.1-2.8,4.1-2.8c-2.3,0.7-4.9,0.7-4.9,0.7c0.1-1.7,0.1-2.5,0.1-2.5c2.9-1.4,5.1,0,5.1,0c-5.7-15.3-9.3-24.9-9.3-24.9
		c-2.1-14.4-3.2-21.6-3.2-21.6C70.7,108,76.3,106.6,76.3,106.6z"/>
	<path class="st58" d="M81.8,164.6c0,0.8,0,1,0,1.8c0,0.8,2.3,0,2.4,3.4c0.1,2.9-2.3,2.4-2.3,3.4c0.1,6,0.2,11,0.4,16.9
		c0,0.9,3.3-0.2,3.3,3c0,3.8-3.1,2.3-3,3.6c0.2,5,0.6,9.9,1,14.7c0.1,1.1,2.6-1.2,3.4,3.1c1,5.1-2.7,2.9-2.6,4.3
		c1.3,9.8,3.2,18.7,6.3,26.2c7.4,0.7,15,0.3,26.7-0.8c0.3-0.1-5.5-12.6-10.5-31.5c-0.1-0.5-6.9,1.8-7,1.3c-1-6,4.1-4,5-6.7
		c1.5-4.7-0.2-10.7-1.3-15.3c-0.2-0.7-5.9,1.5-6,0.7c-1-7.2,5-5.8,5.1-7.4c0.4-5.7-0.1-10.1-1.8-16.2c-0.3-1.1-4,0.8-4.3-0.2
		c-1.4-5.1,3-3.4,2.6-4.6c-1.4-5.1-3-10.4-4.7-15.9C93.1,151.2,90.7,158,81.8,164.6z"/>
	<path class="st59" d="M92.3,290.8c0.4,9.1-0.2,30.9-1.8,34.9c-0.5,1.3-1.1-12.9-1.8-12.1c1.2-10.6-0.3-20.2-4.7-28.8
		C89.2,286.1,92,288.1,92.3,290.8z"/>
	<path class="st60" d="M182.5,160.7c-32,13.8-53.7,17.8-63.1,20.5c-3.9,1.1-5,4.3-5,4.3c13.5,32.8,19.3,49.7,18.3,50.1
		c2.8-1.3,7.3,1,10-0.2c45.8-21.7,59.7-28.8,63.5-30.2C190.1,172.6,182.5,160.7,182.5,160.7z"/>
	<path class="st61" d="M183.2,157.7c-41.8,14.9-64.3,24.2-64.3,24.2c7.3,13.7,12,23,12,23c14.5-5.4,29.8-3.8,46-11.5
		c13.4-6.3,13.7-10.7,21-15.3C187.7,164.3,183.2,157.7,183.2,157.7z"/>
	<path class="st62" d="M145.1,193.5c-3.7,0.5-4.4,1.4-2,3c0,0-3.6-0.7-10.7-2c0,0-1.9-3.6-5.8-10.9c12.6-7,30.3-13.2,53-18.7
		c-1.3-2.1,1.7,1.6,8.9,10.9c-4.7-1-5.2-0.2-1.5,2.4c-11.9,0-12.5,0.8-2,2.7C180.4,189.7,167.1,193.9,145.1,193.5z"/>
	<path class="st63" d="M195.9,178.1c0.4-0.2,0-0.8-0.3-0.6c-0.4,0.2-0.8,0.5-1.2,0.7c-0.4,0.2,0,0.8,0.4,0.6
		C195.1,178.5,195.5,178.3,195.9,178.1L195.9,178.1z M194.5,176.8c0.2,0.3,0.7,0,0.6-0.3c0,0,0,0,0-0.1c-0.3-0.4-0.6-0.7-0.8-1.1
		c-0.2-0.3-0.7-0.1-0.6,0.3c0,0.1,0,0.1,0.1,0.1C194,176,194.3,176.4,194.5,176.8L194.5,176.8z M192.5,174.1c0.2,0.3,0.8,0,0.5-0.4
		c-0.3-0.4-0.6-0.7-0.8-1.1c-0.2-0.3-0.8,0-0.5,0.4C191.9,173.4,192.2,173.7,192.5,174.1L192.5,174.1z M190.4,171.4
		c0.2,0.3,0.7,0,0.6-0.3c0,0,0,0,0-0.1l-0.8-1.1c-0.2-0.3-0.7,0-0.6,0.3c0,0,0,0,0,0.1L190.4,171.4L190.4,171.4z M188.3,168.7
		c0.2,0.3,0.8,0,0.6-0.4c-0.3-0.4-0.6-0.7-0.9-1.1c-0.2-0.3-0.8,0-0.6,0.4C187.7,168,188,168.4,188.3,168.7L188.3,168.7z
		 M186.2,166.1c0.2,0.3,0.8,0,0.6-0.4l0,0l-0.8-1.1c-0.2-0.3-0.8,0-0.6,0.4l0,0L186.2,166.1L186.2,166.1z M184.1,163.4
		c0.2,0.3,0.8,0,0.6-0.4c0,0,0,0,0-0.1l-0.8-1.1c-0.2-0.3-0.8,0-0.6,0.4l0,0L184.1,163.4L184.1,163.4z M182.3,161.1
		c0.4,0,0.5-0.6,0-0.7c-0.5,0-1,0.1-1.4,0.1c-0.4,0.1-0.3,0.7,0.1,0.7C181.4,161.1,181.9,161,182.3,161.1L182.3,161.1z M179.1,161.6
		c0.4-0.1,0.3-0.8-0.2-0.7c-0.4,0.1-0.9,0.2-1.3,0.3c-0.4,0.1-0.3,0.8,0.2,0.7C178.2,161.8,178.6,161.7,179.1,161.6L179.1,161.6z
		 M175.8,162.4c0.4-0.1,0.3-0.8-0.2-0.7c-0.4,0.1-0.9,0.3-1.3,0.4c-0.4,0.1-0.2,0.8,0.2,0.7C174.9,162.7,175.4,162.6,175.8,162.4
		L175.8,162.4z M172.6,163.4c0.4-0.1,0.2-0.8-0.2-0.6c-0.4,0.1-0.9,0.3-1.3,0.4c-0.4,0.1-0.3,0.7,0.1,0.7c0,0,0,0,0.1,0
		C171.7,163.7,172.2,163.6,172.6,163.4L172.6,163.4z M169.4,164.5c0.4-0.1,0.3-0.7-0.1-0.7c0,0,0,0-0.1,0c-0.4,0.1-0.9,0.3-1.3,0.4
		c-0.4,0.1-0.3,0.7,0.1,0.7c0,0,0,0,0.1,0C168.5,164.8,168.9,164.6,169.4,164.5L169.4,164.5z M166.2,165.6c0.4-0.2,0.2-0.8-0.2-0.6
		l-1.3,0.5c-0.4,0.2-0.2,0.7,0.2,0.6C165.3,165.9,165.8,165.7,166.2,165.6L166.2,165.6z M163,166.7c0.4-0.2,0.2-0.8-0.2-0.6
		c-0.4,0.2-0.9,0.3-1.3,0.5c-0.4,0.2-0.2,0.8,0.2,0.6C162.1,167,162.6,166.9,163,166.7L163,166.7z M159.8,167.9
		c0.4-0.2,0.2-0.8-0.2-0.6c-0.4,0.2-0.8,0.3-1.3,0.5c-0.4,0.2-0.2,0.8,0.2,0.6C159,168.2,159.4,168,159.8,167.9L159.8,167.9z
		 M156.7,169.1c0.4-0.2,0.2-0.8-0.2-0.6c-0.4,0.2-0.8,0.3-1.3,0.5c-0.4,0.2-0.2,0.8,0.2,0.6C155.8,169.4,156.2,169.2,156.7,169.1
		L156.7,169.1z M153.5,170.3c0.4-0.2,0.2-0.8-0.2-0.6l-1.3,0.5c-0.4,0.2-0.2,0.8,0.2,0.6L153.5,170.3L153.5,170.3z M150.4,171.5
		c0.4-0.1,0.2-0.7-0.2-0.6c0,0,0,0-0.1,0l-1.3,0.5c-0.4,0.2-0.2,0.8,0.2,0.6C149.5,171.9,150,171.7,150.4,171.5L150.4,171.5z
		 M147.2,172.8c0.4-0.1,0.2-0.8-0.2-0.6c-0.4,0.2-0.8,0.3-1.3,0.5c-0.4,0.1-0.2,0.7,0.2,0.6l0,0L147.2,172.8L147.2,172.8z
		 M144.1,174.1c0.4-0.1,0.2-0.7-0.2-0.6c0,0,0,0-0.1,0l-1.2,0.5c-0.4,0.1-0.2,0.7,0.2,0.6C143.2,174.5,143.7,174.3,144.1,174.1
		L144.1,174.1z M141,175.4c0.3-0.1,0.2-0.7-0.2-0.6c0,0,0,0-0.1,0l-1.2,0.5c-0.3,0.1-0.2,0.7,0.2,0.6c0,0,0,0,0.1,0L141,175.4
		L141,175.4z M137.9,176.7c0.1,0,0.2-0.1,0.2-0.2c0.1-0.3-0.2-0.5-0.5-0.4l-1.2,0.5c-0.3,0.1-0.2,0.7,0.2,0.6c0,0,0.1,0,0.1,0
		L137.9,176.7L137.9,176.7z M134.8,178.1c0.3-0.1,0.2-0.7-0.2-0.6c0,0,0,0-0.1,0l-1.2,0.5c-0.4,0.2-0.2,0.8,0.3,0.6L134.8,178.1
		L134.8,178.1z M131.7,179.4c0.4-0.2,0.2-0.8-0.3-0.6l-1.2,0.5c-0.4,0.2-0.2,0.8,0.3,0.6L131.7,179.4L131.7,179.4z M128.6,180.8
		c0.4-0.2,0.1-0.8-0.3-0.6l-1.2,0.6c-0.4,0.2-0.1,0.8,0.3,0.6L128.6,180.8L128.6,180.8z M125.5,182.2c0.4-0.2,0.1-0.8-0.3-0.6
		c-0.4,0.2-0.8,0.4-1.2,0.6c-0.4,0.2-0.2,0.8,0.2,0.6l0,0L125.5,182.2L125.5,182.2z M122.4,183.6c0.4-0.2,0.1-0.8-0.3-0.6l-0.8,0.4
		l0,0c-0.1,0.1-0.2,0.2-0.2,0.4c0.1,0.2,0.2,0.3,0.2,0.5c0.1,0.1,0.2,0.2,0.3,0.2c0.3,0,0.4-0.3,0.3-0.5l-0.1-0.1L122.4,183.6
		L122.4,183.6z M123,185.7c-0.1-0.1-0.2-0.2-0.3-0.2c-0.3,0-0.5,0.3-0.3,0.5l0.6,1.2c0.2,0.4,0.8,0.1,0.6-0.3
		C123.4,186.5,123.2,186.1,123,185.7L123,185.7z M124.5,188.7c-0.2-0.3-0.8-0.2-0.6,0.3c0.2,0.4,0.4,0.8,0.6,1.2
		c0,0.1,0.1,0.1,0.2,0.2c0.3,0.1,0.6-0.2,0.4-0.5C124.9,189.5,124.7,189.1,124.5,188.7L124.5,188.7z M126.1,191.8
		c-0.1-0.1-0.2-0.2-0.3-0.2c-0.2,0-0.4,0.3-0.3,0.5l0.6,1.2c0.2,0.4,0.7,0.2,0.6-0.3l0,0L126.1,191.8L126.1,191.8z M127.7,194.8
		c-0.2-0.4-0.7-0.1-0.6,0.3l0,0l0.6,1.2c0.2,0.4,0.8,0.1,0.6-0.3C128.1,195.6,127.9,195.2,127.7,194.8L127.7,194.8z M129.2,197.8
		c-0.2-0.4-0.8-0.1-0.6,0.3c0.2,0.4,0.4,0.8,0.6,1.2c0.2,0.3,0.7,0.2,0.6-0.2c0-0.1,0-0.1,0-0.1L129.2,197.8L129.2,197.8z
		 M130.8,200.8C130.8,200.7,130.8,200.7,130.8,200.8c-0.4-0.3-0.8,0-0.6,0.3l0.6,1.2c0.2,0.4,0.8,0.1,0.6-0.3
		C131.2,201.6,131,201.2,130.8,200.8L130.8,200.8z M132.7,201.8c0,0-0.1,0-0.1,0.1c-0.3,0.3,0,0.7,0.3,0.6c0.4-0.1,0.8-0.3,1.3-0.4
		c0.4-0.1,0.2-0.8-0.2-0.7C133.5,201.6,133.1,201.7,132.7,201.8L132.7,201.8z M136,200.9c-0.4,0.1-0.3,0.7,0.1,0.7c0,0,0,0,0.1,0
		c0.4-0.1,0.9-0.2,1.3-0.3c0.4-0.1,0.3-0.8-0.1-0.7C136.8,200.7,136.4,200.8,136,200.9L136,200.9z M139.3,200.1
		c-0.4,0.1-0.3,0.7,0.1,0.7c0.4-0.1,0.9-0.2,1.3-0.3c0.4-0.1,0.4-0.6,0-0.7c0,0,0,0-0.1,0C140.2,200,139.7,200.1,139.3,200.1
		L139.3,200.1z M142.6,199.5c-0.4,0.1-0.3,0.7,0.1,0.7c0.4-0.1,0.9-0.1,1.3-0.2c0.4-0.1,0.4-0.7-0.1-0.7
		C143.5,199.4,143.1,199.5,142.6,199.5L142.6,199.5z M145.9,199c-0.4,0.1-0.3,0.7,0.1,0.7l1.3-0.2c0.4-0.1,0.3-0.7-0.1-0.7
		L145.9,199L145.9,199z M149.3,198.5c-0.4,0.1-0.3,0.7,0.1,0.7c0.4,0,0.9-0.1,1.3-0.2c0.4-0.1,0.3-0.7-0.1-0.7
		C150.2,198.4,149.7,198.5,149.3,198.5L149.3,198.5z M152.6,198c-0.4,0.1-0.3,0.7,0.1,0.7c0.4-0.1,0.9-0.1,1.3-0.2
		c0.4-0.1,0.4-0.7-0.1-0.7l0,0L152.6,198L152.6,198z M156,197.5c-0.4,0.1-0.4,0.7,0.1,0.7c0.4-0.1,0.9-0.2,1.4-0.2
		c0.4-0.1,0.4-0.6,0-0.7c0,0-0.1,0-0.1,0C156.9,197.3,156.4,197.4,156,197.5L156,197.5z M159.3,196.9c-0.4,0.1-0.3,0.7,0.1,0.7
		c0.4-0.1,0.9-0.2,1.4-0.3c0.4-0.1,0.3-0.7-0.1-0.7C160.2,196.7,159.7,196.8,159.3,196.9L159.3,196.9z M162.6,196.2
		c-0.4,0.1-0.3,0.8,0.2,0.7c0.4-0.1,0.9-0.2,1.3-0.3c0.4-0.1,0.3-0.7-0.1-0.7c0,0,0,0-0.1,0C163.5,196,163,196.1,162.6,196.2
		L162.6,196.2z M165.8,195.4c-0.4,0.1-0.3,0.6,0,0.7c0,0,0.1,0,0.1,0c0.4-0.1,0.9-0.2,1.3-0.4c0.1,0,0.2-0.1,0.2-0.2
		c0.1-0.3-0.1-0.6-0.4-0.5C166.7,195.1,166.3,195.3,165.8,195.4L165.8,195.4z M169.1,194.4c-0.4,0.1-0.3,0.7,0.2,0.7l0,0
		c0.4-0.1,0.9-0.3,1.3-0.4c0.4-0.2,0.2-0.8-0.2-0.6C169.9,194.1,169.5,194.3,169.1,194.4L169.1,194.4z M172.2,193.3
		c-0.4,0.2-0.2,0.8,0.2,0.6c0.4-0.2,0.8-0.3,1.3-0.5c0.4-0.1,0.2-0.7-0.2-0.6c0,0,0,0-0.1,0C173.1,193,172.7,193.1,172.2,193.3
		L172.2,193.3z M175.3,192c-0.4,0.2-0.1,0.8,0.3,0.6c0.4-0.2,0.8-0.4,1.2-0.6c0.4-0.2,0.2-0.8-0.3-0.6
		C176.2,191.6,175.7,191.8,175.3,192L175.3,192z M178.4,190.5c-0.4,0.2-0.1,0.8,0.3,0.6c0.4-0.2,0.8-0.4,1.2-0.7
		c0.4-0.2,0.1-0.8-0.3-0.6C179.2,190.1,178.8,190.3,178.4,190.5L178.4,190.5z M181.3,188.8c-0.3,0.2-0.1,0.8,0.3,0.6
		c0.4-0.2,0.8-0.5,1.2-0.8c0.4-0.3,0-0.8-0.4-0.6C182,188.3,181.6,188.6,181.3,188.8L181.3,188.8z M184,186.9
		c-0.3,0.2,0,0.8,0.4,0.6c0.4-0.3,0.7-0.6,1.1-0.9c0.3-0.3-0.1-0.8-0.4-0.5C184.7,186.4,184.4,186.7,184,186.9L184,186.9z
		 M186.6,184.8c-0.3,0.3,0.1,0.8,0.4,0.5c0.3-0.3,0.7-0.6,1-0.9c0.3-0.3-0.1-0.8-0.4-0.5C187.3,184.2,187,184.5,186.6,184.8
		L186.6,184.8z M189.1,182.5c-0.3,0.3,0.1,0.8,0.5,0.5c0.3-0.3,0.7-0.6,1-0.9c0.3-0.3-0.1-0.8-0.5-0.5
		C189.8,181.9,189.4,182.2,189.1,182.5L189.1,182.5z M191.6,180.2c-0.3,0.3,0.1,0.8,0.4,0.5c0.3-0.3,0.7-0.6,1-0.8
		c0.3-0.2,0.1-0.7-0.3-0.6c-0.1,0-0.1,0-0.1,0.1C192.3,179.7,192,179.9,191.6,180.2z"/>
	<path class="st61" d="M141.3,204.9c15.8,3.5,16,3.6-8.9,2l7.4,18.2c1.7-8.2,2.2-7,1.8,3.8c12.8-11,13.1-10.1,0.8,2.7
		c11.7-7.3,21.5-12.4,30.3-16.8c0.5-0.3-0.7-1.6,0.9-0.9c0,0-0.1-0.1-0.2-0.4c-0.5-1.3-2.2-5.5-5-12.7c-0.2-0.4-1.3,0.4-1.4,0
		l0.9-1.3c-0.6,0.2-1.1,0.4-1.7,0.5C158.4,202.4,149.8,204.1,141.3,204.9L141.3,204.9z M177.7,211.9l-0.4-2.8
		c-3.4-6.7-4.8-7.3-5.5-9.3c-0.1-0.2,1.2-1,1.2-1.2c0.3-0.1-0.9-0.6-0.6-0.7h0c7.8-3,14.6-6.7,19.6-11.1c-0.7,7.1-0.3,7.1,1.2,0
		c1.8,2.4,5.1,9.1,9,16.8c-10.7-3.8-13.1,0.4-1.7,0.9C194.9,205,187.2,207.4,177.7,211.9z"/>
	<path class="st64" d="M114.4,185.6l4.8-2.3c0.3-0.2,0.7-0.2,1-0.1c0.3,0.1,0.6,0.3,0.7,0.7h0l0.9,1.9c0.2,0.3,0.2,0.7,0.1,1
		c-0.1,0.3-0.3,0.6-0.7,0.7l-4.9,2.3h0c-0.3,0.1-0.6,0.1-0.9,0c-0.3-0.1-0.6-0.3-0.7-0.7l0,0l-0.9-1.9c-0.2-0.3-0.2-0.7-0.1-1
		C113.9,186,114.1,185.7,114.4,185.6L114.4,185.6L114.4,185.6z M119.7,184.3l-4.8,2.3l0,0c-0.1,0-0.1,0.1-0.1,0.1c0,0.1,0,0.1,0,0.2
		l0.9,2c0,0,0.1,0.1,0.1,0.1c0.1,0,0.1,0,0.2,0l0,0l4.8-2.3c0.1,0,0.1-0.1,0.1-0.1c0-0.1,0-0.1,0-0.2l-0.9-1.9l0,0
		c0-0.1-0.1-0.1-0.1-0.1C119.8,184.3,119.7,184.3,119.7,184.3z"/>
	<path class="st65" d="M119.7,184.3c-0.3-0.5,0.1-0.9,0.2-1.3c2.7-26-26.7-74.7-8.7-77.4c20-3.1,64.7,53,65.6,55.1
		c3.6-0.6,6.4-2.9,6.4-2.9c-1.3-0.5-53.4-58.3-75.5-54.9c-18.8,2.9,7.5,53.2,6.9,82.6c0,0.4-0.1,0.8,0.3,1.2
		C116.2,186.6,118.8,185.3,119.7,184.3z"/>
	<path class="st65" d="M116.8,190c3.1-1.5,4.6-2.2,4.6-2.2c-0.5-0.2-0.8-0.9-0.8-1.4c0,0-1.6,0.5-4.5,1.9
		C116,188.8,116.3,189.7,116.8,190z"/>
	<path class="st56" d="M134.2,144.9c-7.7-3.3-12.3-7.7-20.4-11.9c-2.1,1.7-3.5,1.3-3.5,1.3c1.8,1.6,2.5,3,2.3,4.2
		c3.6,1.5,5.3,2.3,5.3,2.3C119.2,138.7,124.4,140.1,134.2,144.9z"/>
	<path class="st19" d="M124.7,143.2c-4.7-4.6-14.1-9.9-21.5-6.3c-0.8,1.3,0.3,2,0.1,3.1c-0.1,1.1-1,2.1-0.9,3.1
		c0.1,0.7,0.9,1.1,0.9,1.7c0.1,1-0.8,1.8-0.7,2.7c0.2,1,1,0.9,1,1.8c0,0.7-0.8,1.5-0.9,2.1c-0.4,2,4.9,3.2,6.5,3.1
		c-0.1-0.2-0.2-0.9-0.4-1.7c-0.3-0.3-1-0.3-0.9-0.3c7.2-2.6,9.3,7,16.7,2C122.9,146.1,123.1,142.5,124.7,143.2z"/>
	<path class="st19" d="M123.4,143c3.1,1,5.9,1.9,8.3,2.7c0,4.8-0.3,8.9-1.1,12c-2.1-1.3-4.3-2.6-6.4-3.6
		C119.7,146.8,123.4,143,123.4,143z"/>
	<path class="st66" d="M124.4,151.5c0.8,0.1,1,0.4,0.9,1.1c-1.7,3.4-7.2,3.5-12.7-1.3c-2.3,0.4-4,0.5-5.3,0.6c0,0.3,0.1,0.6,0.4,0.9
		c0.7,0.1,1,0.6,1,1.3c-1.6-0.1-3-0.9-3.9-2.2c5.4-2.2,8.1-2,8.1-2C118.6,152.2,121,150.6,124.4,151.5z"/>
	<path class="st67" d="M124.1,142.8c2.7,1.3,3.1,0.2,3,1.1c0.7,3.6,0.5,7.5-0.6,11.8c0,0-0.7-0.4-2.1-1.1
		C125.3,149.8,125.2,145.9,124.1,142.8z"/>
	<path class="st66" d="M110.5,145.7c0.4,0.7,0.8,1.1,1.2,1.3c0,0-2.8,0.4-7.3,1.8C100.9,147,110.5,145.7,110.5,145.7L110.5,145.7z
		 M110.2,141.2c0.1,1.2,0.5,1.9,0.9,2.2c0,0-4.4-0.3-7,1.2C101.7,142.5,110.2,141.2,110.2,141.2L110.2,141.2z M110.6,138.2
		c0.2,0.8,0.4,1.3,0.8,1.6c0,0-2.8-0.1-7.5-0.2C105,138.2,110.6,138.2,110.6,138.2z"/>
	<path class="st68" d="M129.8,144.4c-0.1-0.2-0.3-0.3-0.5-0.2l-0.1,0c-0.1,0.1-0.2,0.2-0.1,0.4c0.1,0.4,0.2,0.9,0.2,1.3
		c0,0.2,0.3,0.4,0.5,0.3c0.1-0.1,0.2-0.2,0.2-0.4C130,145.3,129.9,144.8,129.8,144.4L129.8,144.4z M127.6,155.6
		c-0.2-0.4-0.8-0.1-0.6,0.3c0.1,0.2,0.1,0.3,0.2,0.5c0.2,0.4,0.8,0,0.6-0.3C127.7,155.9,127.6,155.7,127.6,155.6L127.6,155.6z
		 M128.1,156.5c0.1,0.1,0.2,0.2,0.3,0.2c0.1,0,0.2-0.2,0.2-0.3c0.2-0.4,0.8,0,0.6,0.3c-0.4,0.7-1.1,0.8-1.6,0.2
		C127.3,156.6,127.8,156.2,128.1,156.5L128.1,156.5z M128.9,155.8c0,0.1,0,0.3,0.1,0.3c0.2,0.2,0.5,0.1,0.6-0.1
		c0.1-0.4,0.2-0.9,0.3-1.4c0.1-0.5-0.6-0.5-0.7-0.1C129.1,155,129,155.4,128.9,155.8L128.9,155.8z M129.3,153.9
		c0.1-0.4,0.1-0.9,0.1-1.3c0-0.4,0.7-0.4,0.7,0c0,0.4-0.1,1-0.1,1.4C129.8,154.5,129.2,154.3,129.3,153.9L129.3,153.9z M129.5,151.9
		c0,0.4,0.6,0.5,0.7,0.1l0-0.1c0-0.5,0-0.9,0-1.4c0-0.2-0.1-0.3-0.3-0.3c-0.2,0-0.4,0.1-0.4,0.3C129.5,151,129.5,151.5,129.5,151.9
		L129.5,151.9z M129.5,149.9c0-0.5,0-0.9,0-1.4c0,0,0,0,0-0.1c0.1-0.4,0.7-0.3,0.7,0.1c0,0.5,0,0.9,0,1.4
		C130.2,150.3,129.5,150.3,129.5,149.9L129.5,149.9z M129.5,147.9c0,0.2,0.2,0.3,0.3,0.3c0.2,0,0.3-0.1,0.3-0.3c0-0.2,0-0.5,0-0.7
		c0-0.4,0-0.9-0.4-0.9c-0.3,0-0.2,0.5-0.3,0.9C129.5,147.4,129.5,147.6,129.5,147.9z"/>
	<path class="st69" d="M127.2,142.4c1.8,0.8,3.3,2.8,2.4,4.7c-0.8,2-3.3,2.4-5.1,1.6c-1.8-0.8-3.3-2.8-2.4-4.7
		C123,142,125.4,141.6,127.2,142.4z"/>
	<path class="st70" d="M127,142.4c1.8,0.7,2.7,2.5,2.2,4c-0.6,1.4-2.5,2-4.3,1.3c-1.8-0.7-2.7-2.5-2.2-4
		C123.3,142.2,125.3,141.6,127,142.4z"/>
	<path class="st71" d="M127.2,142.4c1.7,0.7,2.6,2.4,2.1,3.8c-0.6,1.4-2.4,1.9-4.1,1.2c-1.7-0.7-2.6-2.4-2.1-3.8
		C123.6,142.2,125.4,141.6,127.2,142.4z"/>
	<path class="st72" d="M126.9,142.6c1.6,0.7,2.5,2.3,2,3.6c-0.5,1.3-2.3,1.8-3.9,1.1s-2.5-2.3-2-3.6
		C123.6,142.5,125.3,141.9,126.9,142.6z"/>
	<path class="st5" d="M123.8,144c-0.1,0-0.1-0.1-0.1-0.2c0-0.1,0.1-0.1,0.2-0.1l2.3,1l0.7,1.7c0,0.1,0,0.2-0.1,0.2
		c-0.1,0-0.2,0-0.2-0.1L126,145L123.8,144z"/>
	<path class="st73" d="M122.1,145.3c0-0.1,0.1-0.2,0.2-0.2c0.1,0,0.2,0.1,0.2,0.2c0,0.2,0,0.5,0.1,0.7c0.1,0.2,0.2,0.4,0.3,0.5
		c0.1,0.1,0.1,0.2,0,0.2c-0.1,0.1-0.2,0.1-0.2,0c-0.2-0.2-0.3-0.4-0.4-0.6C122.2,145.8,122.1,145.5,122.1,145.3L122.1,145.3z
		 M123,147.2c-0.1-0.1-0.1-0.2,0-0.2c0.1-0.1,0.2-0.1,0.2,0c0.8,0.8,1.8,1.3,2.8,1.4c1,0.1,2-0.2,2.8-0.9c0.1-0.1,0.2,0,0.2,0
		c0.1,0.1,0,0.2,0,0.2c-0.9,0.8-2,1.1-3,1C124.9,148.6,123.8,148.1,123,147.2z"/>
	<g>
		<g>
			<ellipse class="st74" cx="123.1" cy="146.5" rx="0.8" ry="0.8"/>
			<path class="st37" d="M123.1,144.5L123.1,144.5L123.1,144.5c0,0.3-0.1,1.5-0.3,1.7c-0.2,0.2-1.4,0.3-1.7,0.3l0,0l0,0
				c0.3,0,1.5,0.1,1.7,0.3c0.2,0.2,0.3,1.5,0.3,1.8h0l0,0c0-0.3,0.1-1.6,0.3-1.8c0.2-0.2,1.3-0.3,1.5-0.3v0l0,0
				c-0.3,0-1.4-0.1-1.5-0.3C123.2,146,123.1,144.8,123.1,144.5z"/>
		</g>
		<path class="st37" d="M122.2,145.5L122.2,145.5L122.2,145.5c0.1,0.1,0.6,0.7,0.6,0.9c0,0.2-0.5,0.8-0.6,1h0l0,0
			c0.1-0.1,0.7-0.7,0.9-0.7c0.2,0,0.8,0.5,0.9,0.7l0,0l0,0c-0.1-0.1-0.6-0.8-0.6-1c0-0.2,0.4-0.8,0.5-0.9l0,0l0,0
			c-0.1,0.1-0.7,0.6-0.8,0.6C122.9,146.1,122.3,145.7,122.2,145.5z"/>
	</g>
	<path class="st75" d="M84.3,95c1.7,0.2,0.5,5,0.5,5c-9.4,7.9-11.2,18.4-3.3,36.5c-0.8,14-0.2,22-0.2,22
		c-9-12.9-17.6-25.1-19.4-40.1c7-5.7,13.1-7.5,13.1-7.5c-6.5,0.3-9.8,0-9.8,0c-2.6-1.8,8.6-6.4,12-10.2C80.6,97,82.4,95.3,84.3,95z"
		/>
	<path class="st57" d="M103.1,86.7c-5.9,33.8-30.7,39.2-23.2,76.4c10.2-11.2,18.7-29.8,25.1-38.4c-6.3-6.8-9.4-10.2-9.4-10.2
		c8.9,1.7,15.9,3.8,15.9,3.8c0-2.4-0.2-4-0.4-5.7c-0.7-6.5,1.5-5-2.5-10.8c-1.4-2-2.8-4.3-3.1-6.3C104.7,90.2,105.7,87.6,103.1,86.7
		z"/>
	<ellipse class="st76" cx="81.9" cy="169.6" rx="1.5" ry="2"/>
	<ellipse class="st76" cx="98.2" cy="168.9" rx="1.5" ry="2"/>
	<ellipse class="st76" cx="83.2" cy="193.3" rx="1.5" ry="2"/>
	<ellipse class="st76" cx="99.9" cy="191.8" rx="1.5" ry="2"/>
	<ellipse class="st76" cx="84.4" cy="215.2" rx="1.5" ry="2"/>
	<ellipse class="st76" cx="102.6" cy="213.7" rx="1.5" ry="2"/>
	<path class="st77" d="M33.3,44.3c-2.5-0.9-4.2-1.3-5-2.6c-1.4-2.3-5.2-3.8-7.5-3.6c-1.3,0.1-2.1,0-3-0.5c-1.6-0.8-2.6,0.9-4.4-0.2
		c-1.4-0.9-3.8,1-5,0.1c-1.4-1-3.7-0.1-4.1,2.2c-1.4,8,1,17.1,6.6,19.3l0.2,5.1c0,0,3.7,0.9,11.2,2.8c0.3,0.2,0.2-2.5-0.2-8.1
		c5.2-0.6,8.5-8.2,9.7-9.2C33.8,47.8,33.8,44.4,33.3,44.3z"/>
	<path class="st78" d="M13.4,24.1h3.8c0.3,0,0.6-0.3,0.6-0.6V10.1c0-0.3-0.3-0.6-0.6-0.6h-3.8c-0.3,0-0.6,0.3-0.6,0.6v13.4
		C12.7,23.8,13,24.1,13.4,24.1z"/>
	<path class="st78" d="M15.2,23.1c2.1,0,4.1,0.3,5.9,0.8c1.8,0.5,3.4,1.3,4.8,2.2c1.4,0.9,2.4,6.6,3.2,7.8c0.8,1.2,1.2,2.6,1.2,4
		c0,0.9,0,1.7,0,2.6c0,0.9,0,1.7,0,2.6c0,4.5-7.6,5.1-15.2,5.1C7.6,48.1,0,47.5,0,43c0-1.7,0-3.4,0-5.1c0-1.4,0.4-2.8,1.2-4
		c0.8-1.2,2-6.9,3.3-7.8c1.4-0.9,3-1.7,4.8-2.2C11.2,23.4,13.2,23.1,15.2,23.1L15.2,23.1z M15.2,25.2c-1.6,0-3.2,0.2-4.6,0.6
		c-1.4,0.4-2.7,1-3.8,1.7c-1.1,0.7-2,1.6-2.6,2.6c-0.3,0.5-0.6,2.1-0.7,3.8c-0.2,1.7-0.3,3.4-0.3,3.9c0,0.7,0,0.6,0,0.5
		c0-0.1,0-0.2,0,0.5c0,3.5,6,3.6,11.9,3.6c6,0,11.9-0.1,11.9-3.6c0-0.7,0-0.6,0-0.5c0,0.1,0,0.2,0-0.5c0-1.1-0.3-6.7-0.9-7.7
		c-0.6-1-1.5-1.8-2.6-2.6c-1.1-0.7-2.4-1.3-3.8-1.7C18.4,25.5,16.9,25.2,15.2,25.2z"/>
	<path class="st79" d="M10.6,27.5h9.3c0.4,0,0.7-0.3,0.7-0.7v-4.1c0-0.4-0.3-0.7-0.7-0.7h-9.3c-0.4,0-0.7,0.3-0.7,0.7v4.1
		C9.9,27.2,10.2,27.5,10.6,27.5z"/>
	<path class="st80" d="M168,161c-20-6.6-30-9.9-30-9.9c-2.6-3.9-10.5-10-24.2-18.1c0-7.2,1.5-16,6.6-21.4c2.5-3.6,5.5-2.9,6.5,2.4
		c10.3,13.2,22,22.8,34.6,32.1C167.5,149.8,169.7,154.8,168,161z"/>
	<path class="st81" d="M27.9,105.1c1.1,0.5,0.5,1.2,0.1,1.6c-5,3.6-10.1,8.8-12.8,10.4C5.6,123.1,11.6,114.9,27.9,105.1z"/>
	<path class="st82" d="M89.2,96.4c-12.3,7.9-17.4,20.5-8.2,38.8c11.1-19.1,20-33.6,20.8-42.2C92.5,96.4,89.8,96.3,89.2,96.4z"/>
	<path class="st83" d="M103.7,84.1c2-0.7-0.9,3.2-0.9,6.5c0,2,0.9,1.2-1.1,2.7c-4.1,3.3-9.6,7.2-16.6,7.7c-1.5,0.1-1.9,0.1-2.1-0.1
		c-0.2-0.2,0.4-1.4,0.3-2.7c-0.1-1.2-1.1-2.8-0.6-2.8c2.5-0.9,10-4.3,13.1-6.4C99.8,86.8,102.4,85.6,103.7,84.1z"/>
	<path class="st5" d="M101.7,92.9c-0.7,2.3-0.5,2.7-1,4.7c-11,5.5-16.8,6.6-17.3,3.4C87.6,101.8,93.7,99.1,101.7,92.9z"/>
	<path class="st5" d="M103.7,84.1c0.5-0.2,0.7,0,0.7,0.5c-2,3.3-9.3,7-21.8,11C92.6,90.9,99.6,87.1,103.7,84.1z"/>
	<path class="st5" d="M103.4,85.3c-1.3,1.4-1.8,3.5-1.3,6.4c-1.2,1-4.1,3-8.8,6c1.2-2,1.2-3.8,0.2-5.2
		C98.1,90,101.4,87.5,103.4,85.3z"/>
	<path class="st5" d="M83.4,101.2c-8.6,8.7-9.4,20-2.5,33.9C76.2,122.1,77,110.8,83.4,101.2z"/>
	<path class="st84" d="M105.4,71.1c1.2-3.3,1-4.6-0.7-3.8c-0.2,2.5-0.3,3.7-0.3,3.7C104.9,70.9,105.2,71,105.4,71.1z"/>
	<path class="st85" d="M9.2,126.6c12.8-13.5,20.3-18.8,20.3-18.8c2,0.3,1.8-0.2,1.6,1.2c-16.3,11.9-15.6,22.3-15.6,22.3
		C10.9,132.8,8.5,128.4,9.2,126.6z"/>
	<path class="st56" d="M60.2,133.5c-16.1-2.7-29.7-4.1-40.8-4.2c0.7-9.6,8-8.1,11-9.4c10.4,1.1,25.1,3.1,25.1,3.1
		C58.6,130,60.2,133.5,60.2,133.5z"/>
	<path class="st86" d="M4.4,47.6c8.9-1.2,15.1-1.4,18.4-0.8c-0.6,3.8-1.8,6.2-5.2,6.6c-2.2,0.3-5.9-1.1-9.3-2.1
		C7.1,50.9,5.8,50.2,4.4,47.6z"/>
	<path class="st19" d="M14.2,40.1c1.3-1.4,3.3-2.1,4.5,0.3c1.9,4.2,0,7.7-1.2,8.4c-1.2,0.7-3.9,1.1-4.4-0.5
		C13.9,42.8,14.2,40.1,14.2,40.1z"/>
	<path class="st19" d="M33.3,44.3c-0.2,3.5-1.7,4.3-4.6,2.6c-3.2-0.8-4.1-3.2-1.5-6C28.8,42.2,31.2,43.6,33.3,44.3z"/>
	<path class="st19" d="M9.4,40.1c0.9-2.6,3.5-2,5-0.1c-0.7,4.8-0.7,8.2-1.9,8.9c-1.2,0.7-3.1,0.2-3.7-1C9.7,42.3,9.4,40.1,9.4,40.1z
		"/>
	<path class="st19" d="M5.5,39.6c0.9-1.6,2.7-1.4,3.7,0.1c1.7,4.2,0.1,8.3-1,9c-1.1,0.7-3.4-0.4-3.8-1C5.2,42.1,5.5,39.6,5.5,39.6z"
		/>
	<path class="st19" d="M18.4,40.6c2.3-2,3.9-2.3,5.4,0.2c-0.4,2.9-0.5,4.2-0.9,5.7c-1,3.5-5.2,3.5-5.3,1.6
		C18.4,42.5,18.4,40.6,18.4,40.6z"/>
	<path class="st87" d="M27.2,97.7c0.5,6.1,0.4,8.9,0.4,8.9c-7.8,7.4-13.8,11.8-17.1,14c-1.2,2.9-0.6,4.5,2,4.7
		c-1.7,2-2.6,3.1-2.6,3.1c-9.3-7.2-2.3-54.5-2.1-67c13.5,1.5,20.2,2.3,20.2,2.3C27.4,86.3,27.2,97.7,27.2,97.7z"/>
	<path class="st55" d="M27.2,97.7c0.5,6.1,0.4,8.9,0.4,8.9c-7.8,7.4-13.8,11.8-17.1,14c-1.2,2.9-0.6,4.5,2,4.7
		c-1.7,2-2.6,3.1-2.6,3.1c-9.3-7.2-2.3-54.5-2.1-67c13.5,1.5,20.2,2.3,20.2,2.3C27.4,86.3,27.2,97.7,27.2,97.7z"/>
	<path class="st88" d="M6.8,53.5c3,0.2,6.2,0.1,9,1.1c3.4-1.1,6.7-1.9,9.2-1.8C20.2,58.8,13.1,60.2,6.8,53.5z"/>
	<path class="st89" d="M14.4,65.9l-2.3,45.3c-0.8,2.2,14.3-5.7,13.9-5c-9.6,7.8-17.2,12.6-17.2,12.6C7.3,100,7.2,80.2,8.9,63.4
		c10.9,1.6,16.3,2.4,16.3,2.4L14.4,65.9z"/>
	<path class="st89" d="M17.1,110.9c4.2-10.8,7.6-28.8,8.8-42c-0.3,21.9-0.5,37.1,0.5,35.2C23.7,107,20.6,109.7,17.1,110.9z"/>
	<path class="st90" d="M64,119.6c3.5-2.8,6.8-4.9,10-6.3c-0.1,5.9,1.9,14.1,6,24.7c-1.6,2.1-2.3,6.2-2.2,12.4
		C70.2,140.6,65.6,130.4,64,119.6L64,119.6z M79.6,102.3c-1.8,2.5-3.2,4.9-4.3,7.1c-1.3-0.2-3.7-0.2-7.1-0.2
		C74.1,104.9,77.9,102.6,79.6,102.3z"/>
	<path class="st37" d="M104.5,70.2c0-0.3,0.3-0.5,0.5-0.4c0.3,0,0.5,0.3,0.4,0.5c-1.2,12.1-7.5,24.2-13.5,35.4
		c-5.8,11-11.1,21.1-10.6,29.4l0.1,1.5l-1-1.2c-4.2-5.2-7-11.7-8.8-18.9c-2.1-8.2-2.7-17-2.5-25.7c0-0.3,0.1-0.4,0.1-0.5
		c0.2,0.3,0.8,0.6,0.8,0.8c-0.3,8.6,0.4,17,2.4,25.1c1.6,6.5,4.1,12.4,7.7,17.3c0.1-8.2,5.2-17.9,10.7-28.4
		C97,94.1,103.4,82.1,104.5,70.2z"/>
	<path class="st91" d="M81.2,151.6c6.6-7.3,13.5-16.5,20.9-27.4c0,0-2.4-2.4-7.2-7.3C86,128.7,81.4,140.3,81.2,151.6z"/>
	<path class="st91" d="M103.7,97.9c-1.9,8.3-3.8,12.9-5.8,13.8c6.1,1,9.1,1.5,9.1,1.5C104.6,108.2,103.5,103.1,103.7,97.9z"/>
	<path class="st79" d="M9.2,0h11.7c0.7,0,1.3,0.6,1.3,1.3v8.1c0,0.7-0.6,1.3-1.3,1.3H9.2c-0.7,0-1.3-0.6-1.3-1.3V1.3
		C7.8,0.6,8.4,0,9.2,0z"/>
	<rect x="8.7" y="5" class="st92" width="12.6" height="2.9"/>
	<rect x="10.7" y="25.3" class="st92" width="8.8" height="1.5"/>
	<rect x="10.7" y="22.4" class="st92" width="8.8" height="0.6"/>
	<rect x="8.5" y="1.4" class="st92" width="12.6" height="0.6"/>
	<path class="st55" d="M163.7,148.7c-16.4-0.8-27-2.4-31.9-5c-4.7,11.3-6.7,16.7-6,16.2c6.7,0.9,11.6,2,14.7,3.2
		c10.3,5.6,20.4,7,30.1,4.1c2.3-0.6,3.4-0.9,3.4-0.9C174.2,155.9,170.8,150,163.7,148.7z"/>
	<path class="st93" d="M130.1,152c-1.5,4.2-2.3,6.3-2.3,6.3c-0.5,0,2.3,0.4,8.6,1.2c14.4,7.7,25.4,9.3,33.1,4.7
		c2.7-0.3,3-2.1,0.8-5.2C166.5,161.4,153.1,159.1,130.1,152z"/>
	<path class="st94" d="M161.4,145.4c-5.9,2-11.2,2.7-15.8,2.1c9.7-2.8,14.6-4.2,14.6-4.2C161.2,144.4,161.6,145.1,161.4,145.4z"/>
	<path class="st95" d="M136.7,143.9c4.8,1.6,10.1,1.4,12.2-0.1c-6-2.8-12.9-4.6-18.6-11c-3.1-3.5-5.3-10-8-15.1
		c-3.4,4.3-4.6,9.2-5.6,14.3C121.1,136.2,127.3,135.4,136.7,143.9z"/>
	<path class="st56" d="M157.7,146.5c-4,1.5-12.5,0.6-25.7-2.7c10.2,3,19.6,4.6,28.1,4.6C159.8,147.4,159,146.7,157.7,146.5z"/>
	<path class="st52" d="M119.9,109.1c-6.8,17.1-8.5,25.6-5.1,25.5c-0.6-7.5,1.7-15.7,7.2-24.6C120.6,109.4,119.9,109.1,119.9,109.1z"
		/>
	<path class="st96" d="M126.9,114c7.4,8.8,13,14.7,16.8,17.9c0,0,4.3,3.5,12.9,10.6c0,0-1.3-0.2-3.9-0.6
		C149,142.9,140.4,133.6,126.9,114z"/>
	<path class="st96" d="M168,153.3c-0.7-3.7-6.3-4.5-16.8-2.3C163.1,155.4,168.7,156.2,168,153.3z"/>
	<ellipse transform="matrix(0.3645 -0.9312 0.9312 0.3645 -63.889 224.3967)" class="st76" cx="132.5" cy="159" rx="1" ry="1.3"/>
	
		<ellipse transform="matrix(0.3645 -0.9312 0.9312 0.3645 -61.3086 232.6856)" class="st76" cx="139.8" cy="161.3" rx="1" ry="1.3"/>
	<ellipse class="st76" cx="7.5" cy="69.9" rx="1.2" ry="2"/>
	<ellipse class="st76" cx="6.3" cy="79.6" rx="1.2" ry="2"/>
	<path class="st36" d="M79.7,68.4c2.7-0.3,2.9,0.7,0.5,3.2C81.6,70,81.4,68.9,79.7,68.4z"/>
</g>
</svg>
