<?xml version="1.0" encoding="utf-8"?>
<!-- Generator: Adobe Illustrator 21.0.1, SVG Export Plug-In . SVG Version: 6.00 Build 0)  -->
<svg version="1.1" xmlns="http://www.w3.org/2000/svg" xmlns:xlink="http://www.w3.org/1999/xlink" x="0px" y="0px"
	 viewBox="0 0 135.3 357.2" style="enable-background:new 0 0 135.3 357.2;" xml:space="preserve">
<style type="text/css">
	.st0{fill-rule:evenodd;clip-rule:evenodd;fill:#ADA0B0;}
	.st1{display:none;}
	.st2{display:inline;fill-rule:evenodd;clip-rule:evenodd;fill:#ADA0B0;}
	.st3{fill-rule:evenodd;clip-rule:evenodd;fill:#826A82;}
	.st4{display:none;fill-rule:evenodd;clip-rule:evenodd;fill:#826A82;}
	.st5{fill-rule:evenodd;clip-rule:evenodd;fill:#6E5375;}
	.st6{display:none;fill-rule:evenodd;clip-rule:evenodd;fill:#6E5375;}
</style>
<g id="Слой_2">
	<g>
		<path class="st0" d="M14.9,21.6h3.4c0.3,0,0.6-0.3,0.6-0.6v-12c0-0.3-0.3-0.6-0.6-0.6h-3.4c-0.3,0-0.6,0.3-0.6,0.6v12
			C14.4,21.4,14.6,21.6,14.9,21.6z"/>
		<path class="st0" d="M11.2,0h10.5c0.7,0,1.2,0.5,1.2,1.2v7.3c0,0.7-0.5,1.2-1.2,1.2H11.2c-0.7,0-1.2-0.5-1.2-1.2V1.2
			C10,0.5,10.5,0,11.2,0z"/>
		<path class="st0" d="M16.6,20.7c1.9,0,3.7,0.3,5.3,0.7c1.6,0.5,3.1,1.1,4.3,2c1.2,0.8,2.2,5.9,2.8,7c0.7,1.1,1.1,2.3,1.1,3.6
			c0,0.8,0,1.5,0,2.3c0,0.8,0,1.5,0,2.3c0,4-6.8,4.5-13.6,4.5C9.8,43.1,3,42.6,3,38.6c0-1.5,0-3.1,0-4.6c0-1.3,0.4-2.5,1.1-3.6
			c0.7-1.1,1.8-6.2,3-7c1.2-0.8,2.7-1.5,4.3-2C13,21,14.8,20.7,16.6,20.7L16.6,20.7z M16.6,22.6c-1.5,0-2.9,0.2-4.2,0.6
			c-1.3,0.4-2.4,0.9-3.4,1.6c-1,0.7-1.8,1.4-2.3,2.3c-0.3,0.4-0.5,1.9-0.7,3.4c-0.2,1.5-0.3,3-0.3,3.5c0,0.6,0,0.5,0,0.4
			c0-0.1,0-0.2,0,0.4c0,3.2,5.4,3.3,10.7,3.3c5.4,0,10.7-0.1,10.7-3.3c0-0.6,0-0.5,0-0.4c0,0.1,0,0.2,0-0.4c0-1-0.2-6-0.8-6.9
			c-0.5-0.9-1.3-1.6-2.3-2.3c-1-0.7-2.1-1.2-3.4-1.6C19.5,22.8,18.1,22.6,16.6,22.6z"/>
		<path class="st0" d="M12.5,24.6h8.3c0.3,0,0.6-0.3,0.6-0.6v-3.7c0-0.3-0.3-0.6-0.6-0.6h-8.3c-0.3,0-0.6,0.3-0.6,0.6V24
			C11.9,24.3,12.1,24.6,12.5,24.6z"/>
	</g>
	<g class="st1">
		<path class="st2" d="M-101.8,21.3h3.4c0.3,0,0.6-0.3,0.6-0.6v-12c0-0.3-0.3-0.6-0.6-0.6h-3.4c-0.3,0-0.6,0.3-0.6,0.6v12
			C-102.3,21.1-102.1,21.3-101.8,21.3z"/>
		<path class="st2" d="M-105.5-0.3H-95c0.7,0,1.2,0.5,1.2,1.2v7.3c0,0.7-0.5,1.2-1.2,1.2h-10.5c-0.7,0-1.2-0.5-1.2-1.2V0.9
			C-106.7,0.3-106.2-0.3-105.5-0.3z"/>
		<path class="st2" d="M-100.1,20.4c1.9,0,3.7,0.3,5.3,0.7c1.6,0.5,3.1,1.1,4.3,2c1.2,0.8,2.2,5.9,2.8,7c0.7,1.1,1.1,2.3,1.1,3.6
			c0,0.8,0,1.5,0,2.3c0,0.8,0,1.5,0,2.3c0,4-6.8,4.5-13.6,4.5c-6.8,0-13.6-0.5-13.6-4.5c0-1.5,0-3.1,0-4.6c0-1.3,0.4-2.5,1.1-3.6
			c0.7-1.1,1.8-6.2,3-7c1.2-0.8,2.7-1.5,4.3-2C-103.8,20.7-102,20.4-100.1,20.4L-100.1,20.4z M-100.1,22.4c-1.5,0-2.9,0.2-4.2,0.6
			c-1.3,0.4-2.4,0.9-3.4,1.6c-1,0.7-1.8,1.4-2.3,2.3c-0.3,0.4-0.5,1.9-0.7,3.4c-0.2,1.5-0.3,3-0.3,3.5c0,0.6,0,0.5,0,0.4
			c0-0.1,0-0.2,0,0.4c0,3.2,5.4,3.3,10.7,3.3c5.4,0,10.7-0.1,10.7-3.3c0-0.6,0-0.5,0-0.4c0,0.1,0,0.2,0-0.4c0-1-0.2-6-0.8-6.9
			c-0.5-0.9-1.3-1.6-2.3-2.3c-1-0.7-2.1-1.2-3.4-1.6C-97.2,22.6-98.6,22.4-100.1,22.4z"/>
		<path class="st2" d="M-104.3,24.3h8.3c0.3,0,0.6-0.3,0.6-0.6v-3.7c0-0.3-0.3-0.6-0.6-0.6h-8.3c-0.3,0-0.6,0.3-0.6,0.6v3.7
			C-104.9,24.1-104.6,24.3-104.3,24.3z"/>
	</g>
</g>
<g id="Hipster">
	<path class="st3" d="M61.3,356.2c3.8-0.3,7.4-0.5,10.8-0.8c94.2-7.6,73.5-30,0.3-23.4c-31,2.8-65.1,7.4-72,17
		C-3,353.9,12.6,359.5,61.3,356.2z"/>
	<path class="st4" d="M-173.4,360.5c32.8-2.3,73.5-12.7,72.8-21.3c-0.4-5.5-18.6-12.8-61.8-8.7c-29.9,2.8-62.7,7.4-69.4,17
		C-235.1,352.3-220.3,363.8-173.4,360.5z"/>
	<g id="Silhouettes">
		<path class="st5" d="M114.8,136.1c-2.2-3.6-6.4-8.1-11.9-12.6c-1.2-3.1-3.2-6.2-6-9.2c-0.9,0.2-2.3,0.2-4.3,0.1
			c-0.4,0-0.8-0.1-1.3-0.1c0.1-2,0.7-4.7,1.8-8c0.7-2.1,1.1-4.2,1.1-6.2c0-2.2-0.4-4.3-1.1-6.5c-1.6-4.9-4.1-6.9-6.5-9
			c-1.5-1.3-3-2.5-4.2-4.4c-0.8-3.9-1.4-7.5-2.8-11c0-0.8-0.4-1.7-1.2-2.7l0,0c-0.2-0.4-0.4-0.7-0.6-1.1c-2.8-5-6.5-8.3-11.1-9.8
			c-0.3-0.1-0.6-0.2-0.9-0.3C60.1,53.8,53.2,54.6,45,58c-4.9-1.1-6.9,1.3-4.7,5.9l0,0.1c-6.7,6.4-3.4,14-2.6,25.1
			c0,0.6-0.1,1.4-0.3,2.3c-1.1-1.7-2.2-3.3-3.2-4.4c0.5-1.3,0.2-1.7-0.9-1c-8.2-22.2-11.5-30.2-11-31.9c-0.6-0.2-1.2-0.3-1.8-0.4
			c0.8-1.3,1.5-3,2.2-5.2c4.1-6.8,3.3-10.8-2.4-11.9c-0.4-1.6-1.6-1.7-3.7-0.3c-0.8-0.9-2.1-0.8-3.8,0.3c-0.3-1.1-1-1-2.1,0.3
			l1.2,13.1c1,2.3,2,4,3,5c-0.3,0.3-0.4,0.5-0.4,0.5s3.1,9,11.7,38.8c0.4,0,0.7-0.1,1-0.1c-1.1,2-0.8,2.5,0.8,1.6
			c2.6,6.3,7.6,18.2,12.8,26.6c-0.3,4.4-0.8,9.7,0.3,13.8c2,7.5,7.2-1.9,12.6,14.7c0.8,5.8,1.9,13.4,8.8,15.2
			c-4.1-2.8-5.6-5-6.6-9.9c2.2,3.7,5.7,6.5,9.1,7c-1.7,4.4-6.1,10.9-9.5,15.5c0,0.8,0.4,1.5,1,2.3c-10.6,17.1-9.5,51.7-8.6,75.6
			c-2.7,3.9-5.9,27.8-6.1,38.3c0,2.5-2.1,14.8-3.3,24.4c-1.2,0.3-1.7,0.7-1.2,1.2l-0.5,5.6c0.3,0.3,0.6,0.5,0.9,0.8
			c-0.8,0.9-1.6,2-2.3,3.2c-3.4,4-8.1,11-9,13.1c-0.6,1.3-0.9,2.7-1,4c-0.7-0.1-0.9,0.6-0.8,2c1,7.8,5.1,9,12.2,3.6
			c2-2.5,2.5-3.7,1.6-3.6c0.3-0.6,0.7-1.2,1-1.8c0.9-1.9,1.1-8.5,0.8-13.7c0.5-1.8,0.8-3.8,1-5.5c0.9,0,1.9-0.2,2.9-0.6l1.2-6.1
			c-0.3-0.4-0.6-0.7-0.9-1c2.5-9.7,7.1-29.4,9.7-37.4c2.9-9.1,5.1-21.7,5.2-24.9c4.9-9.2,12.3-41.6,15.9-47
			c0.1,15.7,0.5,25.6,0.5,25.6c0.1-0.6,0.1-1.3,0.2-1.9c0,7-0.1,13.6-0.1,18.5c-4.7,5.6-3.7,45.2-3.8,59.1c-1.3,0.3-1.7,0.7-1.2,1.2
			c-0.2,3.7-0.4,3.9-0.4,3.9c0.2,0.2,0.4,0.4,0.6,0.5c-0.4,0.6-0.8,1.7-1.3,2.9c-0.6,1.7-1.1,3.7-0.7,5.1c-0.1,0-0.2,0.1-0.3,0.1
			c0,0-0.1,0-0.1,0.1c-0.1,0.2,0,0.6,0.3,1.1c3,5.1,4.5,9.7,4.4,13.9l2,0.5c0.5-0.3,1.1-0.5,1.1-0.5c-0.2-2.7-0.5-5.4-0.6-8.1
			c1.4,3.1,1.9,6.3,2.2,7.4c0.1,0.3,0.2,0.5,0.3,0.7c0.3,2.3,2.8,3.4,6,3.5c3.4,0.2,7.5-0.8,8.2-3.7c0.5-1.5-0.6-3.4-4.2-5.5
			c-2.9-1.7-5.1-3.8-6.8-6c-0.6-2.6-4.6-8.5-5.2-9.4c-0.1-0.1-0.1-0.2-0.2-0.3c0.7-0.1,1.3-0.2,2-0.5l0.8-4.6
			c-0.3-0.4-0.5-0.8-0.9-1.1c0.6-5.4,2.8-13.8,3.5-20.7c1-9,2.4-19.7,2-26.4c2.2-4.3,4.1-11.2,4.8-16.6c1.8-4.3,4-12.4,5.1-16.5
			c1.9-6.9,3.3-13.3,4.3-19.4l27.5,2c2-0.4,6.5-3.2,7.1-3.8c-4.9-21.1-8-30.7-8-30.7s-3.6-0.1-9.5-0.2c-1.1-13.8-2.7-22.6-5.1-27.4
			c3-5,5.9-10.4,6.4-13.6c0.2-0.7,0.2-1.6-0.4-2.6C116.3,136.9,115.6,135.8,114.8,136.1L114.8,136.1z M101.2,149.4
			c0.3,0,0.7,0.1,1,0.2c-1.3,1.7-2.4,3.1-3.4,4.3c-0.3-1-0.5-1.9-0.6-2.8C99.1,150.3,100.1,149.8,101.2,149.4L101.2,149.4z
			 M98,149.9c0.7-2.4,1.3-5.1,1.4-8c1.5-4,1.6-7.2,0.6-9.8c3.4,4.9,5.9,7.5,7.4,8.7c-0.2,0.3-0.3,0.7-0.5,1.1
			c-1.5,2.8-3.1,5.2-4.5,7.1c-0.3,0-0.6,0.1-0.9,0.2l-0.4,0.1c-0.7,0-1.5,0-2.2,0.2C98.6,149.7,98.3,149.8,98,149.9L98,149.9z
			 M103.2,163.7c1.1-1.6,2.9-4.2,4.8-7.2c1.9,5.1,3.2,13.1,4.2,24.7c-2.5,0-5.3,0-8.3,0c1.8-4.1,2.4-7.3,1.8-9.5
			c-0.8-2.1-1.8-4.6-2.9-7.1C103,164.4,103.1,164.1,103.2,163.7L103.2,163.7z M58.5,144.3L58.5,144.3c0,4.4,0.7,7.9,2,10.6
			c0.9,2,2.2,3.5,3.9,4.6c0,0.4,0.5,1,1.4,1.6l-0.3,0.7c-2.8-1.2-4.9-3.3-6.4-6.3c-1.4-2.9-2.1-6.6-2.1-11.1
			c-0.1-1.1-0.3-2.2-0.4-3.2c0.7,0.8,1.3,1.7,2,2.5L58.5,144.3L58.5,144.3z"/>
		<path class="st6" d="M-199.7,310.6c0.5-1.6,0.9-3.9,1.2-7l-0.1-14c-0.1-5.6,0.6-9.9,1.9-13c-2.6-2.4-5.6-5.8-12.1-10.4
			c0,0,4.9-19.7,9.8-38.2l-4.1-5.4l-0.2-8.9l-2.7-4.1l-1-19.7c-7.1-27.1,1.8-51.7-2.7-65.1c7.5-5.3,24.6-7.5,26.2-9.7
			c3.6-1.5,5-5,1.3-7c-3.9-2.2-12.9-23.4-8-24.9c-0.6-2-2.1-2.3-2-3.9c0-1.1,0.1-2.2,0.4-3.4c-0.4-1.2-1.3-2.4-2.7-3.7
			c-1.1-2.6,0.5-4.7,3.5-7.3c-3.3,0.5-5.3,1.1-6.2,3.7c0.1-4.6,3.4-6.2,6.7-5.5c-3.4-1-8.5-3.6-6.2-7.6c0.6-1.1,6.7-1.5,5,3.4
			c-0.3-1.6-2.8-2.6-3.5-1.9c-0.6,0.6,1.5,3.9,4.6,5c-0.8-7.2-0.5-7.4,3.6-9.2c0.9-0.4,1.7-0.7,2.5-1c0.9-0.5,1.9-0.8,2.8-1.1
			c2.8-0.9,5.5-0.9,7.9,0c0.3,0.1,0.5,0.2,0.8,0.4c10.6-0.8,17.5,2.8,20.7,10.6c3.8,2.1,3.7,6.5,3.9,10c0.1,1.2,0.2,2.9,0.7,3.6
			l0.6,0.7c-0.4,0.1-0.8,0-1.3-0.3c-0.1,0.3-0.6,0.2-0.5-0.2l-0.2-0.1c-0.3,1-0.8,2-1.6,3.1c-0.5,1.1-1.1,1.9-1.9,2.5
			c0.5,0.4,0.7,0.9,0.8,1.6c0.2,0.8,0.1,1.8-0.5,2.8c-0.5,1.3-1.3,2.5-2.2,3.7c-0.3,0.4-0.6,0.8-0.9,1.2c-0.7,0.8-1.2,1.5-2.3,1.7
			c-0.3,1.8,0.3,2.8,1.6,2.8l0.2,0.6c-0.8,0.3-1.4,0.1-1.8-0.4c-0.2,1.1-0.6,2.3-1.7,2.6c0.1-0.9,0-1.5-0.1-1.7
			c-0.2,0.7-0.4,1.1-0.7,1.1c-0.4,2.7-2,3.9-2,4.1c-0.3,2.9,0,6.8,1.8,8.3c1.9,0.3,4.3-0.3,4.3-0.3l1,3.9c3.5-0.1,6.3-1.3,13.3,1.7
			l16.9-4.3l11.6-10.5c-0.1,3.1,0.8-10,2.6-39.2l2.8,0.1l-0.1-5l1.2,0c0.4-1.5-0.2-3.4-1.9-5.8c-5.2-5.7-5.1-9,0.4-9.9
			c-0.7-2.1,0.3-3.7,3-4.8c3.1-2.2,7.4-1.9,12.9,1c2.9-1.5,3.7,1.1,2.4,7.8c0.1,5-2.1,9-6.6,11.9l1.4,0l-0.4,5l3.2,0.1l-2.8,53.7
			l-29.7,24.7l-5.3,4.4c-2.8,2.7-4.5,4.8-7,5.8l-0.2,0.2c-5.2,14.8-3.4,14.3-7.3,39.5c0.1,1,0,0.3,3,6c0,0-0.6,0.4-1.2,0.9
			c1.2,2.3,11.8,73.8,13.6,79c-4.1,2.6-7.3,4.6-12.5,5.6c-0.6-2.2-1.4-5.2-2.2-9c-2.3-0.8-4.6-1.5-7.1-2.2c-0.1,1.1-0.1,1.9,0,2.5
			c-0.8,0.9-1.5,1.9-1.7,2.7c0,0.1,0,0.3-0.1,0.4l0.1,0c0.3,0,0.6,0.2,0.9,0.7c-0.4,1.3-0.4,2.6-0.9,3.3c1.5,5,1.5,13.1,0.7,24.7
			c0,1.1,1.3,8,2.2,10.4c0.2,0.4,0.4,0.9,0.6,1.3c0.5,0.8,0.5,1.2,0.3,1.3c0.1,0.1,0.2,0.2,0.3,0.2c0.5,1,0.4,3-0.4,6.1l-0.2-0.1
			l0.3,0.3c0.1-0.4,0.1-0.9,0.7-0.8c0.7,0.2,0.4,0.7,0.3,1.4c0.3,0.2,0.6,0.4,1,0.7c0.5-0.1,1.2-0.4,1.6-0.2
			c0.6,0.3,0.1,0.7-0.2,1.2l0.6,0.4c0.3,0,0.6,0,1.1-0.1c0.5-0.1,1,0.3,0.7,0.6c-0.2,0.4-0.2,0.5-0.3,0.8c0.2,0.2,0.3,0.3,0.5,0.5
			c0.2,0,0.3,0.1,1-0.1c0.3-0.1,0.6,0.1,0.7,0.3c0.2,0.5-0.5,0.6-0.7,0.6c3.3,2.7,8.4,5.1,15.4,7c0.5-0.1,1-0.1,1.5,0
			c0.5,0.1,1,0.3,1.4,0.6c0.7,0.5,1.3,1.4,1.5,2.6c0.3,0.3,0.4,0.8,0.5,1.4l0,0.2l-0.2,0.1c-1,0.5-2.1,0.9-3.2,1.1
			c-6.7,1.6-15.3-0.4-22.4-2.9l-0.2-0.2c-0.2-0.4-1.5-1.6-2.2-2.1l-3.2,1.1l-0.1,0l-9.7-1.5l-0.1-5l-1.2-0.4
			c0.1-1.5-0.1-4.1-0.7-7.7c0-0.4,0.6-0.5,1.2-1c0.2-0.5,0.3-1.2,0.3-2.2c0-0.5,0.1-1,0.1-1.7c0.2-0.8,0-4.2,1.3-10
			c0.1-0.9,0.1-1.8,0.1-2.8c-1.1-4.7-4-9.4-3.3-19.2l0-0.1c-1.6-1.5-2-4.1-0.8-6.4c-0.2-2.2,0-5.3,0.6-9.2l0-3.5
			c-4.3-0.5-8.8-0.8-13.5-0.9c-0.5,0.1-0.9,0.2-1.3,0.2l-0.8,5.5c-0.8,0.6-1.3,2.2-1.6,4.9c0,0.3,0.1,0.7,0.1,1
			c0,1.9-0.5,5.6-1.3,8.2l-0.3,0.9c-1,4.1-2,8.1-2.9,12c-1.1,5.2-2.5,13.2-3.5,19.9c-0.5,0.3-0.7,0.6-0.7,1c0.1,0.3,0.3,0.6,0.7,0.8
			c-0.3,2.4-0.2,6.4,0.5,12c-0.7,0.2-1.7,1.3-2.8,3.3c0.2,1.6,0.5,3.5,0.9,5.6c1.2,1.9,0.8,4.7-1.3,8.3l0,0.1l-7.7,5
			c-1.6,0.7-3.8-0.1-5.5-0.9l-0.1-0.1l-3.3-8.7c-0.5-1.5-0.2-3,0.5-4.4l0-0.1c1.8-2.3,3.2-4.5,4.3-6.7l-0.3-3.9l0.1-0.6
			c-0.1-0.7-0.2-1.2-0.3-1.7c0.1-0.5,0.2-0.7,0.3-1c0.4-1.3,0.9-2.5,1.4-3.5c0.6-1.7,2.1-3.1,2.2-3.3l0,0c0-0.1,0-0.2,0-0.4
			C-201.6,318.4-201,315.3-199.7,310.6L-199.7,310.6z M-192.4,205.6c6.2-9.7,7.6-20.5,4.1-32.3h0c-1.7-7.2-1-11.6-3-21.3
			c-0.7-0.3-1.5-0.5-2.3-0.7l-0.7,26.2l0.6-0.3L-192.4,205.6z"/>
	</g>
</g>
</svg>
