<?xml version="1.0" encoding="utf-8"?>
<!-- Generator: Adobe Illustrator 21.0.1, SVG Export Plug-In . SVG Version: 6.00 Build 0)  -->
<svg version="1.1" id="objects" xmlns="http://www.w3.org/2000/svg" xmlns:xlink="http://www.w3.org/1999/xlink" x="0px" y="0px"
	 viewBox="0 0 1808.9 674.7" style="enable-background:new 0 0 1808.9 674.7;" xml:space="preserve">
<style type="text/css">
	.st0{fill-rule:evenodd;clip-rule:evenodd;fill:#91B634;}
	.st1{fill-rule:evenodd;clip-rule:evenodd;fill:#A0BB3A;}
	.st2{fill-rule:evenodd;clip-rule:evenodd;fill:#A9D7AB;}
	.st3{fill-rule:evenodd;clip-rule:evenodd;fill:#989A9C;}
	.st4{fill-rule:evenodd;clip-rule:evenodd;fill:#A37275;}
	.st5{fill-rule:evenodd;clip-rule:evenodd;fill:#B7D133;}
	.st6{fill-rule:evenodd;clip-rule:evenodd;fill:#C3D82E;}
	.st7{fill-rule:evenodd;clip-rule:evenodd;fill:#E1BE7E;}
	.st8{fill-rule:evenodd;clip-rule:evenodd;fill:#A8B7B9;}
	.st9{fill-rule:evenodd;clip-rule:evenodd;fill:#687374;}
	.st10{fill-rule:evenodd;clip-rule:evenodd;fill:#A6A8AB;}
	.st11{fill-rule:evenodd;clip-rule:evenodd;fill:#849091;}
	.st12{fill-rule:evenodd;clip-rule:evenodd;fill:#D6A84F;}
	.st13{fill-rule:evenodd;clip-rule:evenodd;fill:#846931;}
	.st14{fill-rule:evenodd;clip-rule:evenodd;fill:#CDA34C;}
	.st15{fill-rule:evenodd;clip-rule:evenodd;fill:#9A7B31;}
	.st16{fill-rule:evenodd;clip-rule:evenodd;fill:#CAC0AD;}
	.st17{fill-rule:evenodd;clip-rule:evenodd;fill:#80796D;}
	.st18{fill-rule:evenodd;clip-rule:evenodd;fill:#C3B9A5;}
	.st19{fill-rule:evenodd;clip-rule:evenodd;fill:#8B8271;}
	.st20{fill-rule:evenodd;clip-rule:evenodd;fill:#8EB8C9;}
	.st21{fill-rule:evenodd;clip-rule:evenodd;fill:#59737F;}
	.st22{fill-rule:evenodd;clip-rule:evenodd;fill:#394B53;}
	.st23{fill-rule:evenodd;clip-rule:evenodd;fill:#E6E7E8;}
	.st24{fill-rule:evenodd;clip-rule:evenodd;fill:#87AEC0;}
	.st25{fill-rule:evenodd;clip-rule:evenodd;fill:#748890;}
	.st26{fill-rule:evenodd;clip-rule:evenodd;fill:#A3BB9E;}
	.st27{fill-rule:evenodd;clip-rule:evenodd;fill:#687663;}
	.st28{fill-rule:evenodd;clip-rule:evenodd;fill:#9DB497;}
	.st29{fill-rule:evenodd;clip-rule:evenodd;fill:#8D9E88;}
	.st30{fill-rule:evenodd;clip-rule:evenodd;fill:#A9BD8D;}
	.st31{fill-rule:evenodd;clip-rule:evenodd;fill:#8C9D72;}
	.st32{fill-rule:evenodd;clip-rule:evenodd;fill:#FFFFFF;}
	.st33{fill-rule:evenodd;clip-rule:evenodd;fill:#6D7B5D;}
	.st34{fill-rule:evenodd;clip-rule:evenodd;fill:#A0B388;}
	.st35{fill-rule:evenodd;clip-rule:evenodd;fill:#7F8F69;}
	.st36{fill-rule:evenodd;clip-rule:evenodd;fill:#899FA7;}
	.st37{fill-rule:evenodd;clip-rule:evenodd;fill:#58656A;}
	.st38{fill-rule:evenodd;clip-rule:evenodd;fill:#869AA2;}
	.st39{fill-rule:evenodd;clip-rule:evenodd;fill:#657980;}
	.st40{fill-rule:evenodd;clip-rule:evenodd;fill:#828080;}
	.st41{fill-rule:evenodd;clip-rule:evenodd;fill:#788282;}
	.st42{fill-rule:evenodd;clip-rule:evenodd;fill:#606163;}
	.st43{fill-rule:evenodd;clip-rule:evenodd;fill:#B38F3F;}
	.st44{fill-rule:evenodd;clip-rule:evenodd;fill:#675120;}
	.st45{fill-rule:evenodd;clip-rule:evenodd;fill:#8A6D2A;}
	.st46{fill-rule:evenodd;clip-rule:evenodd;fill:#72939F;}
	.st47{fill-rule:evenodd;clip-rule:evenodd;fill:#889684;}
	.st48{fill-rule:evenodd;clip-rule:evenodd;fill:#435040;}
	.st49{fill-rule:evenodd;clip-rule:evenodd;fill:#4F5B41;}
	.st50{fill-rule:evenodd;clip-rule:evenodd;fill:#647579;}
	.st51{fill-rule:evenodd;clip-rule:evenodd;fill:#3C4549;}
	.st52{fill-rule:evenodd;clip-rule:evenodd;fill:#9F9586;}
	.st53{fill-rule:evenodd;clip-rule:evenodd;fill:#A19988;}
	.st54{fill-rule:evenodd;clip-rule:evenodd;fill:#5F5A4F;}
	.st55{fill-rule:evenodd;clip-rule:evenodd;fill:#79878F;}
	.st56{fill-rule:evenodd;clip-rule:evenodd;fill:#8D9B78;}
	.st57{fill-rule:evenodd;clip-rule:evenodd;fill:#7495A3;}
	.st58{fill-rule:evenodd;clip-rule:evenodd;fill:#768772;}
	.st59{display:none;}
	.st60{display:inline;}
	.st61{fill-rule:evenodd;clip-rule:evenodd;fill:#B3B3B3;}
	.st62{fill-rule:evenodd;clip-rule:evenodd;fill:#F5E8D0;}
	.st63{fill-rule:evenodd;clip-rule:evenodd;fill:#4E4E4F;}
</style>
<g id="XMLID_212_">
	<g id="XMLID_210_">
		<polygon id="XMLID_188_" class="st0" points="728.4,496.9 824.5,557.2 410.5,662.6 414.3,576.9 		"/>
		<path id="XMLID_606_" class="st1" d="M645.7,569.2c-63.6,31.5-66,1.5-120.9,5.1c-54.9,3.7-30.8,21.2-84.9,38.3
			c-9.6,3-18.8,4.9-27.3,6l-1.9,43.9l413.9-105.4l-56.6-35.6c-3.4-0.4-6.7-0.9-9.7-1.5C705.4,509.8,709.3,537.8,645.7,569.2z"/>
		<polygon id="XMLID_214_" class="st2" points="769.7,490.9 815.9,519 903.2,496.3 858.7,468.4 		"/>
		<polygon id="XMLID_248_" class="st2" points="922.7,450.9 968.9,479 1056.2,456.3 1011.7,428.4 		"/>
		<polygon id="XMLID_250_" class="st2" points="960.7,605.9 1006.9,634 1094.2,611.3 1049.7,583.4 		"/>
		<polygon id="XMLID_251_" class="st2" points="1119.7,531.9 1165.9,560 1253.2,537.3 1208.7,509.4 		"/>
		<polygon id="XMLID_249_" class="st2" points="660.7,241.2 823.8,344 873,331.2 710.9,228.4 		"/>
		<g id="XMLID_182_">
			<path id="XMLID_183_" class="st3" d="M727.4,215l-23.3,5.9l76.7,48.2l10.2,6.4l139.9,87.9l17,10.7l58.9,37l-274.6,69.9l-20.8,5.3
				h0l-314.3,80l17.2,10.6l314.1-80l96.1,60.3L410.5,662.6l11.3,12.1l419.6-106.9l147.2,92.5l20.9-7.5l-144.8-90.9l360.8-91.9
				l57.7,36.2l0.8-7.2l1.9-11.7l-37.1-23.3l23.7-6l-13.1-11.7l-27.6,7l-96.1-60.3l144.9-36.9l-20.7-9.7l-141.2,36l0,0l-23.3,5.9l0,0
				l-65.4,16.7l-58.9-37l331.6-84.4v-15l-348.6,88.8l-133.1-83.6l209.7-53.4l-14.9-11.2l-211.8,53.9L727.4,215L727.4,215z
				 M847.8,551.3l-96.1-60.3l360.8-91.9l96.1,60.3L847.8,551.3L847.8,551.3z M734.8,480.3l-2.6,0.7L734.8,480.3L734.8,480.3z
				 M751.7,490.9l-17-10.7L751.7,490.9z"/>
		</g>
		<g id="XMLID_28_">
			<path id="XMLID_31_" class="st4" d="M800.6,222.6h6.5c0,10,0,20,0,30c0,2.5-6.6,2.3-6.5,0V222.6z"/>
			<path id="XMLID_30_" class="st5" d="M801.1,241.2c1,0.1,1.9,0.2,2.8,0.3c0.9-0.1,1.8-0.2,2.8-0.3c49-6.3,11.3-58.6-2.8-60.3
				C789.7,182.5,752,234.9,801.1,241.2z"/>
			<path id="XMLID_29_" class="st6" d="M814.7,187.6c-4-3.8-7.9-6.4-10.8-6.7c-10,1.2-31.9,27.9-26.2,45.5c3.7,2.2,8.7,3.9,15.2,4.7
				c1,0.1,1.9,0.2,2.8,0.3c0.9-0.1,1.8-0.2,2.8-0.3C829.9,227.1,825.6,204,814.7,187.6z"/>
		</g>
		<g id="XMLID_24_">
			<path id="XMLID_27_" class="st4" d="M1135.5,270.4h6.5c0,10,0,20,0,30c0,2.5-6.6,2.3-6.5,0V270.4z"/>
			<path id="XMLID_26_" class="st5" d="M1136,288.9c1,0.1,1.9,0.2,2.8,0.3c0.9-0.1,1.8-0.2,2.8-0.3c49-6.3,11.3-58.6-2.8-60.3
				C1124.7,230.3,1087,282.6,1136,288.9z"/>
			<path id="XMLID_25_" class="st6" d="M1149.7,235.3c-4-3.8-7.9-6.4-10.8-6.7c-10,1.2-31.9,27.9-26.2,45.5
				c3.7,2.2,8.7,3.9,15.2,4.7c1,0.1,1.9,0.2,2.8,0.3c0.9-0.1,1.8-0.2,2.8-0.3C1164.9,274.9,1160.6,251.7,1149.7,235.3z"/>
		</g>
		<g id="XMLID_20_">
			<path id="XMLID_23_" class="st4" d="M1175.8,426.9h6.5c0,10,0,20,0,30c0,2.5-6.6,2.3-6.5,0V426.9z"/>
			<path id="XMLID_22_" class="st5" d="M1176.3,445.4c1,0.1,1.9,0.2,2.8,0.3c0.9-0.1,1.8-0.2,2.8-0.3c49-6.3,11.3-58.6-2.8-60.3
				C1165,386.8,1127.3,439.1,1176.3,445.4z"/>
			<path id="XMLID_21_" class="st6" d="M1189.9,391.8c-4-3.8-7.9-6.4-10.8-6.7c-10,1.2-31.9,27.9-26.2,45.5
				c3.7,2.2,8.7,3.9,15.2,4.7c1,0.1,1.9,0.2,2.8,0.3c0.9-0.1,1.8-0.2,2.8-0.3C1205.2,431.4,1200.8,408.2,1189.9,391.8z"/>
		</g>
		<g id="XMLID_16_">
			<path id="XMLID_19_" class="st4" d="M1043.6,461.4h6.5c0,10,0,20,0,30c0,2.5-6.6,2.3-6.5,0V461.4z"/>
			<path id="XMLID_18_" class="st5" d="M1044.1,479.9c1,0.1,1.9,0.2,2.8,0.3c0.9-0.1,1.8-0.2,2.8-0.3c49-6.3,11.3-58.6-2.8-60.3
				C1032.8,421.3,995.1,473.7,1044.1,479.9z"/>
			<path id="XMLID_17_" class="st6" d="M1057.8,426.4c-4-3.8-7.9-6.4-10.8-6.7c-10,1.2-31.9,27.9-26.2,45.5
				c3.7,2.2,8.7,3.9,15.2,4.7c1,0.1,1.9,0.2,2.8,0.3c0.9-0.1,1.8-0.2,2.8-0.3C1073,465.9,1068.6,442.8,1057.8,426.4z"/>
		</g>
		<g id="XMLID_12_">
			<path id="XMLID_15_" class="st4" d="M708.1,487.2h6.5c0,10,0,20,0,30c0,2.5-6.6,2.3-6.5,0V487.2z"/>
			<path id="XMLID_14_" class="st5" d="M708.6,505.7c1,0.1,1.9,0.2,2.8,0.3c0.9-0.1,1.8-0.2,2.8-0.3c49-6.3,11.3-58.6-2.8-60.3
				C697.2,447.1,659.5,499.4,708.6,505.7z"/>
			<path id="XMLID_13_" class="st6" d="M722.2,452.1c-4-3.8-7.9-6.4-10.8-6.7c-10,1.2-31.9,27.9-26.2,45.5c3.7,2.2,8.7,3.9,15.2,4.7
				c1,0.1,1.9,0.2,2.8,0.3c0.9-0.1,1.8-0.2,2.8-0.3C737.4,491.7,733.1,468.5,722.2,452.1z"/>
		</g>
		<g id="XMLID_8_">
			<path id="XMLID_11_" class="st4" d="M819.2,571.3h6.5c0,10,0,20,0,30c0,2.5-6.6,2.3-6.5,0V571.3z"/>
			<path id="XMLID_10_" class="st5" d="M819.7,589.9c1,0.1,1.9,0.2,2.8,0.3c0.9-0.1,1.8-0.2,2.8-0.3c49-6.3,11.3-58.6-2.8-60.3
				C808.4,531.2,770.7,583.6,819.7,589.9z"/>
			<path id="XMLID_9_" class="st6" d="M833.3,536.3c-4-3.8-7.9-6.4-10.8-6.7c-10,1.2-31.9,27.9-26.2,45.5c3.7,2.2,8.7,3.9,15.2,4.7
				c1,0.1,1.9,0.2,2.8,0.3c0.9-0.1,1.8-0.2,2.8-0.3C848.6,575.8,844.2,552.7,833.3,536.3z"/>
		</g>
		<g id="XMLID_216_">
			<path id="XMLID_219_" class="st4" d="M1000.4,515.7h6.5c0,10,0,20,0,30c0,2.5-6.6,2.3-6.5,0V515.7z"/>
			<path id="XMLID_218_" class="st5" d="M1000.9,534.3c1,0.1,1.9,0.2,2.8,0.3c0.9-0.1,1.8-0.2,2.8-0.3c49-6.3,11.3-58.6-2.8-60.3
				C989.5,475.6,951.8,528,1000.9,534.3z"/>
			<path id="XMLID_217_" class="st6" d="M1014.5,480.7c-4-3.8-7.9-6.4-10.8-6.7c-10,1.2-31.9,27.9-26.2,45.5
				c3.7,2.2,8.7,3.9,15.2,4.7c1,0.1,1.9,0.2,2.8,0.3c0.9-0.1,1.8-0.2,2.8-0.3C1029.7,520.2,1025.4,497.1,1014.5,480.7z"/>
		</g>
		<g id="XMLID_4_">
			<path id="XMLID_7_" class="st4" d="M957.9,321.6h6.5c0,10,0,20,0,30c0,2.5-6.6,2.3-6.5,0V321.6z"/>
			<path id="XMLID_6_" class="st5" d="M958.4,340.1c1,0.1,1.9,0.2,2.8,0.3c0.9-0.1,1.8-0.2,2.8-0.3c49-6.3,11.3-58.6-2.8-60.3
				C947.1,281.5,909.4,333.8,958.4,340.1z"/>
			<path id="XMLID_5_" class="st6" d="M972,286.6c-4-3.8-7.9-6.4-10.8-6.7c-10,1.2-31.9,27.9-26.2,45.5c3.7,2.2,8.7,3.9,15.2,4.7
				c1,0.1,1.9,0.2,2.8,0.3c0.9-0.1,1.8-0.2,2.8-0.3C987.3,326.1,982.9,303,972,286.6z"/>
		</g>
		<polygon id="XMLID_33_" class="st7" points="1242.8,298.9 971.2,368.1 1030.1,405.1 1242.8,350.9 		"/>
	</g>
	<g id="XMLID_3_">
		<polygon id="XMLID_603_" class="st8" points="919.8,225.4 919.4,271 850.6,288.1 851,242.5 		"/>
		<polygon id="XMLID_602_" class="st9" points="851,242.5 850.6,288.1 830,274.4 830.4,228.8 		"/>
		<polygon id="XMLID_601_" class="st10" points="899.2,211.7 919.8,225.4 851,242.5 830.4,228.8 		"/>
		<polygon id="XMLID_600_" class="st11" points="898.9,213.2 833.9,229.4 851.3,241 916.3,224.8 		"/>
		<polygon id="XMLID_599_" class="st12" points="1105.9,269 1105.9,317.7 1036.2,335.1 1037.1,286.2 		"/>
		<polygon id="XMLID_598_" class="st13" points="1037.1,286.2 1036.2,335.1 1015.9,321.5 1015.9,272 		"/>
		<polygon id="XMLID_597_" class="st14" points="1084.7,254.9 1105.9,269 1037.1,286.2 1015.9,272 		"/>
		<polygon id="XMLID_596_" class="st15" points="1084.3,257.1 1020.9,272.9 1037.5,284 1100.9,268.2 		"/>
		<polygon id="XMLID_595_" class="st16" points="1209.1,452.1 1209.1,501.6 1141.3,518.5 1141.3,469 		"/>
		<polygon id="XMLID_594_" class="st17" points="1141.3,469 1141.3,518.5 1120,504.4 1120,454.9 		"/>
		<polygon id="XMLID_593_" class="st18" points="1187.9,438 1209.1,452.1 1141.3,469 1120,454.9 		"/>
		<polygon id="XMLID_592_" class="st19" points="1187.5,440.6 1126.1,455.9 1141.7,466.4 1203.1,451.1 		"/>
		<polygon id="XMLID_591_" class="st20" points="992.4,321 992.4,412.1 924.3,429 924.3,338 		"/>
		<polygon id="XMLID_590_" class="st21" points="924.3,338 924.3,429 903.1,414.9 903.1,323.9 		"/>
		<g id="XMLID_583_">
			<path id="XMLID_589_" class="st22" d="M905.7,335c2.7,1.8,5.3,3.6,8,5.3c2.7,1.8,5.3,3.6,8,5.3c0,2.8,0,5.5,0,8.3
				c-2.7-1.8-5.3-3.6-8-5.3c-2.7-1.8-5.3-3.6-8-5.3C905.7,340.5,905.7,337.7,905.7,335z"/>
			<path id="XMLID_588_" class="st22" d="M905.7,347.6c2.7,1.8,5.3,3.6,8,5.3c2.7,1.8,5.3,3.6,8,5.3c0,2.8,0,5.5,0,8.3
				c-2.7-1.8-5.3-3.6-8-5.3c-2.7-1.8-5.3-3.6-8-5.3C905.7,353.1,905.7,350.3,905.7,347.6z"/>
			<path id="XMLID_587_" class="st22" d="M905.7,360.1c2.7,1.8,5.3,3.6,8,5.3c2.7,1.8,5.3,3.6,8,5.3c0,2.8,0,5.5,0,8.3
				c-2.7-1.8-5.3-3.6-8-5.3c-2.7-1.8-5.3-3.6-8-5.3C905.7,365.7,905.7,362.9,905.7,360.1z"/>
			<path id="XMLID_586_" class="st22" d="M905.7,372.7c2.7,1.8,5.3,3.6,8,5.3c2.7,1.8,5.3,3.6,8,5.3c0,2.8,0,5.5,0,8.3
				c-2.7-1.8-5.3-3.6-8-5.3c-2.7-1.8-5.3-3.6-8-5.3C905.7,378.3,905.7,375.5,905.7,372.7z"/>
			<path id="XMLID_585_" class="st22" d="M905.7,385.3c2.7,1.8,5.3,3.6,8,5.3c2.7,1.8,5.3,3.6,8,5.3c0,2.8,0,5.5,0,8.3
				c-2.7-1.8-5.3-3.6-8-5.3c-2.7-1.8-5.3-3.6-8-5.3C905.7,390.8,905.7,388.1,905.7,385.3z"/>
			<path id="XMLID_584_" class="st22" d="M905.7,397.9c2.7,1.8,5.3,3.6,8,5.3c2.7,1.8,5.3,3.6,8,5.3c0,2.8,0,5.5,0,8.3
				c-2.7-1.8-5.3-3.6-8-5.3c-2.7-1.8-5.3-3.6-8-5.3C905.7,403.4,905.7,400.7,905.7,397.9z"/>
		</g>
		<g id="XMLID_576_">
			<path id="XMLID_582_" class="st23" d="M906.7,335.6l7,4.7c2.7,1.8,5.3,3.6,8,5.3v7.4l-7.1-4.7c-2.7-1.8-5.3-3.6-8-5.3V335.6z"/>
			<path id="XMLID_581_" class="st23" d="M906.7,348.2l7,4.7c2.7,1.8,5.3,3.6,8,5.3v7.4l-7.1-4.7c-2.7-1.8-5.3-3.6-8-5.3V348.2z"/>
			<path id="XMLID_580_" class="st23" d="M906.7,360.8l7,4.7c2.7,1.8,5.3,3.6,8,5.3v7.4l-7.1-4.7c-2.7-1.8-5.3-3.6-8-5.3V360.8z"/>
			<path id="XMLID_579_" class="st23" d="M906.7,373.4l7,4.7c2.7,1.8,5.3,3.6,8,5.3v7.4l-7.1-4.7c-2.7-1.8-5.3-3.6-8-5.3V373.4z"/>
			<path id="XMLID_578_" class="st23" d="M906.7,386l7,4.7c2.7,1.8,5.3,3.6,8,5.3v7.4l-7.1-4.7c-2.7-1.8-5.3-3.6-8-5.3V386z"/>
			<path id="XMLID_577_" class="st23" d="M906.7,398.5l7,4.7c2.7,1.8,5.3,3.6,8,5.3v7.4l-7.1-4.7c-2.7-1.8-5.3-3.6-8-5.3V398.5z"/>
		</g>
		<polygon id="XMLID_575_" class="st24" points="971.2,306.9 992.4,321 924.3,338 903.1,323.9 		"/>
		<polygon id="XMLID_574_" class="st25" points="970.8,309.1 908,324.7 924.7,335.8 987.5,320.2 		"/>
		<polygon id="XMLID_573_" class="st26" points="911.6,376.1 911.7,432.2 875,441.3 875,385.3 		"/>
		<polygon id="XMLID_572_" class="st27" points="875,385.3 875,441.3 863.3,433.6 863.3,377.5 		"/>
		<polygon id="XMLID_571_" class="st28" points="900,368.4 911.6,376.1 875,385.3 863.3,377.5 		"/>
		<polygon id="XMLID_570_" class="st29" points="899.8,369.5 865.9,378 875.2,384.1 909.1,375.7 		"/>
		<polygon id="XMLID_569_" class="st30" points="940,500.8 940,573.8 903.3,583 903.3,510 		"/>
		<g id="XMLID_544_">
			<g id="XMLID_563_">
				<path id="XMLID_568_" class="st31" d="M907,531c1.4-0.4,2.9-0.7,4.3-1.1c0-4.6,0-9.1,0-13.7c-1.4,0.4-2.9,0.7-4.3,1.1
					C907,521.9,907,526.5,907,531z"/>
				<path id="XMLID_567_" class="st31" d="M913.3,529.5c1.4-0.4,2.9-0.7,4.3-1.1c0-4.6,0-9.1,0-13.7c-1.4,0.4-2.9,0.7-4.3,1.1
					C913.3,520.3,913.3,524.9,913.3,529.5z"/>
				<path id="XMLID_566_" class="st31" d="M919.5,527.9c1.4-0.4,2.9-0.7,4.3-1.1c0-4.6,0-9.1,0-13.7c-1.4,0.4-2.9,0.7-4.3,1.1
					C919.5,518.8,919.5,523.3,919.5,527.9z"/>
				<path id="XMLID_565_" class="st31" d="M925.7,526.3c1.4-0.4,2.9-0.7,4.3-1.1c0-4.6,0-9.1,0-13.7c-1.4,0.4-2.9,0.7-4.3,1.1
					C925.7,517.2,925.7,521.8,925.7,526.3z"/>
				<path id="XMLID_564_" class="st31" d="M932,524.8c1.4-0.4,2.9-0.7,4.3-1.1c0-4.6,0-9.1,0-13.7c-1.4,0.4-2.9,0.7-4.3,1.1
					C932,515.7,932,520.2,932,524.8z"/>
			</g>
			<g id="XMLID_557_">
				<path id="XMLID_562_" class="st31" d="M907,546.3c1.4-0.4,2.9-0.7,4.3-1.1c0-4.6,0-9.1,0-13.7c-1.4,0.4-2.9,0.7-4.3,1.1
					C907,537.2,907,541.8,907,546.3z"/>
				<path id="XMLID_561_" class="st31" d="M913.3,544.8c1.4-0.4,2.9-0.7,4.3-1.1c0-4.6,0-9.1,0-13.7c-1.4,0.4-2.9,0.7-4.3,1.1
					C913.3,535.6,913.3,540.2,913.3,544.8z"/>
				<path id="XMLID_560_" class="st31" d="M919.5,543.2c1.4-0.4,2.9-0.7,4.3-1.1c0-4.6,0-9.1,0-13.7c-1.4,0.4-2.9,0.7-4.3,1.1
					C919.5,534.1,919.5,538.7,919.5,543.2z"/>
				<path id="XMLID_559_" class="st31" d="M925.7,541.7c1.4-0.4,2.9-0.7,4.3-1.1c0-4.6,0-9.1,0-13.7c-1.4,0.4-2.9,0.7-4.3,1.1
					C925.7,532.5,925.7,537.1,925.7,541.7z"/>
				<path id="XMLID_558_" class="st31" d="M932,540.1c1.4-0.4,2.9-0.7,4.3-1.1c0-4.6,0-9.1,0-13.7c-1.4,0.4-2.9,0.7-4.3,1.1
					C932,531,932,535.5,932,540.1z"/>
			</g>
			<g id="XMLID_551_">
				<path id="XMLID_556_" class="st31" d="M907,561.6c1.4-0.4,2.9-0.7,4.3-1.1c0-4.6,0-9.1,0-13.7c-1.4,0.4-2.9,0.7-4.3,1.1
					C907,552.5,907,557.1,907,561.6z"/>
				<path id="XMLID_555_" class="st31" d="M913.3,560.1c1.4-0.4,2.9-0.7,4.3-1.1c0-4.6,0-9.1,0-13.7c-1.4,0.4-2.9,0.7-4.3,1.1
					C913.3,551,913.3,555.5,913.3,560.1z"/>
				<path id="XMLID_554_" class="st31" d="M919.5,558.5c1.4-0.4,2.9-0.7,4.3-1.1c0-4.6,0-9.1,0-13.7c-1.4,0.4-2.9,0.7-4.3,1.1
					C919.5,549.4,919.5,554,919.5,558.5z"/>
				<path id="XMLID_553_" class="st31" d="M925.7,557c1.4-0.4,2.9-0.7,4.3-1.1c0-4.6,0-9.1,0-13.7c-1.4,0.4-2.9,0.7-4.3,1.1
					C925.7,547.8,925.7,552.4,925.7,557z"/>
				<path id="XMLID_552_" class="st31" d="M932,555.4c1.4-0.4,2.9-0.7,4.3-1.1c0-4.6,0-9.1,0-13.7c-1.4,0.4-2.9,0.7-4.3,1.1
					C932,546.3,932,550.9,932,555.4z"/>
			</g>
			<g id="XMLID_545_">
				<path id="XMLID_550_" class="st31" d="M907,576.9c1.4-0.4,2.9-0.7,4.3-1.1c0-4.5,0-9.1,0-13.7c-1.4,0.4-2.9,0.7-4.3,1.1
					C907,567.8,907,572.4,907,576.9z"/>
				<path id="XMLID_549_" class="st31" d="M913.3,575.4c1.4-0.4,2.9-0.7,4.3-1.1c0-4.5,0-9.1,0-13.7c-1.4,0.4-2.9,0.7-4.3,1.1
					C913.3,566.3,913.3,570.8,913.3,575.4z"/>
				<path id="XMLID_548_" class="st31" d="M919.5,573.8c1.4-0.4,2.9-0.7,4.3-1.1c0-4.5,0-9.1,0-13.7c-1.4,0.4-2.9,0.7-4.3,1.1
					C919.5,564.7,919.5,569.3,919.5,573.8z"/>
				<path id="XMLID_547_" class="st31" d="M925.7,572.3c1.4-0.4,2.9-0.7,4.3-1.1c0-4.5,0-9.1,0-13.7c-1.4,0.4-2.9,0.7-4.3,1.1
					C925.7,563.2,925.7,567.7,925.7,572.3z"/>
				<path id="XMLID_546_" class="st31" d="M932,570.7c1.4-0.4,2.9-0.7,4.3-1.1c0-4.5,0-9.1,0-13.7c-1.4,0.4-2.9,0.7-4.3,1.1
					C932,561.6,932,566.2,932,570.7z"/>
			</g>
		</g>
		<g id="XMLID_523_">
			<polygon id="XMLID_543_" class="st32" points="910.7,516.4 907,517.3 907,530.6 910.7,529.7 			"/>
			<polygon id="XMLID_542_" class="st32" points="917,514.9 913.3,515.8 913.3,529 917,528.1 			"/>
			<polygon id="XMLID_541_" class="st32" points="923.2,513.3 919.5,514.2 919.5,527.5 923.2,526.6 			"/>
			<polygon id="XMLID_540_" class="st32" points="929.4,511.8 925.7,512.7 925.7,525.9 929.4,525 			"/>
			<polygon id="XMLID_539_" class="st32" points="935.7,510.2 932,511.1 932,524.4 935.7,523.4 			"/>
			<polygon id="XMLID_538_" class="st32" points="910.7,531.7 907,532.6 907,545.9 910.7,545 			"/>
			<polygon id="XMLID_537_" class="st32" points="917,530.2 913.3,531.1 913.3,544.3 917,543.4 			"/>
			<polygon id="XMLID_536_" class="st32" points="923.2,528.6 919.5,529.5 919.5,542.8 923.2,541.9 			"/>
			<polygon id="XMLID_535_" class="st32" points="929.4,527.1 925.7,528 925.7,541.2 929.4,540.3 			"/>
			<polygon id="XMLID_534_" class="st32" points="935.7,525.5 932,526.4 932,539.7 935.7,538.8 			"/>
			<polygon id="XMLID_533_" class="st32" points="910.7,547 907,548 907,561.2 910.7,560.3 			"/>
			<polygon id="XMLID_532_" class="st32" points="917,545.5 913.3,546.4 913.3,559.6 917,558.7 			"/>
			<polygon id="XMLID_531_" class="st32" points="923.2,543.9 919.5,544.8 919.5,558.1 923.2,557.2 			"/>
			<polygon id="XMLID_530_" class="st32" points="929.4,542.4 925.7,543.3 925.7,556.5 929.4,555.6 			"/>
			<polygon id="XMLID_529_" class="st32" points="935.7,540.8 932,541.7 932,555 935.7,554.1 			"/>
			<polygon id="XMLID_528_" class="st32" points="910.7,562.3 907,563.3 907,576.5 910.7,575.6 			"/>
			<polygon id="XMLID_527_" class="st32" points="917,560.8 913.3,561.7 913.3,574.9 917,574 			"/>
			<polygon id="XMLID_526_" class="st32" points="923.2,559.2 919.5,560.1 919.5,573.4 923.2,572.5 			"/>
			<polygon id="XMLID_525_" class="st32" points="929.4,557.7 925.7,558.6 925.7,571.8 929.4,570.9 			"/>
			<polygon id="XMLID_524_" class="st32" points="935.7,556.1 932,557 932,570.3 935.7,569.3 			"/>
		</g>
		<polygon id="XMLID_522_" class="st33" points="903.3,510 903.3,583 882.1,568.8 882.1,495.8 		"/>
		<polygon id="XMLID_521_" class="st34" points="918.8,486.6 940,500.8 903.3,510 882.1,495.8 		"/>
		<polygon id="XMLID_520_" class="st35" points="918.4,488.8 887,496.6 903.7,507.8 935.1,500 		"/>
		<polygon id="XMLID_519_" class="st36" points="965,552.8 965,593.4 931.5,601.8 931.5,561.2 		"/>
		<polygon id="XMLID_518_" class="st37" points="931.5,561.2 931.5,601.8 920.9,594.7 920.9,554.1 		"/>
		<polygon id="XMLID_517_" class="st38" points="954.4,545.8 965,552.8 931.5,561.2 920.9,554.1 		"/>
		<polygon id="XMLID_516_" class="st39" points="954.2,547.2 924.1,554.7 931.8,559.8 961.8,552.3 		"/>
		<g id="XMLID_497_">
			<g id="XMLID_510_">
				<path id="XMLID_515_" class="st32" d="M860,248.5c2.6-0.6,5.2-1.3,7.7-1.9c0,1.5,0,3,0,4.5c0,1.5,0,3,0,4.5
					c-2.6,0.6-5.2,1.3-7.7,1.9c0-1.5,0-3,0-4.5C860,251.6,860,250.1,860,248.5z"/>
				<path id="XMLID_514_" class="st32" d="M871.4,245.7c2.6-0.6,5.2-1.3,7.7-1.9c0,1.5,0,3,0,4.5c0,1.5,0,3,0,4.5
					c-2.6,0.6-5.2,1.3-7.7,1.9c0-1.5,0-3,0-4.5C871.4,248.7,871.4,247.2,871.4,245.7z"/>
				<path id="XMLID_513_" class="st32" d="M882.1,243c2.6-0.6,5.2-1.3,7.7-1.9c0,1.5,0,3,0,4.5c0,1.5,0,3,0,4.5
					c-2.6,0.6-5.2,1.3-7.7,1.9c0-1.5,0-3,0-4.5C882.1,246,882.1,244.5,882.1,243z"/>
				<path id="XMLID_512_" class="st32" d="M892.9,240.3c2.6-0.6,5.2-1.3,7.7-1.9c0,1.5,0,3,0,4.5c0,1.5,0,3,0,4.5
					c-2.6,0.6-5.2,1.3-7.7,1.9c0-1.5,0-3,0-4.5C892.9,243.4,892.9,241.9,892.9,240.3z"/>
				<path id="XMLID_511_" class="st32" d="M903.6,237.7c2.6-0.6,5.2-1.3,7.8-1.9c0,1.5,0,3,0,4.5c0,1.5,0,3,0,4.5
					c-2.6,0.6-5.2,1.3-7.8,1.9c0-1.5,0-3,0-4.5C903.6,240.7,903.6,239.2,903.6,237.7z"/>
			</g>
			<g id="XMLID_504_">
				<path id="XMLID_509_" class="st32" d="M860.1,260.3c2.6-0.6,5.2-1.3,7.7-1.9c0,1.5,0,3,0,4.5c0,1.5,0,3,0,4.5
					c-2.6,0.6-5.2,1.3-7.7,1.9c0-1.5,0-3,0-4.5C860.1,263.3,860.1,261.8,860.1,260.3z"/>
				<path id="XMLID_508_" class="st32" d="M871.4,257.5c2.6-0.6,5.2-1.3,7.7-1.9c0,1.5,0,3,0,4.5c0,1.5,0,3,0,4.5
					c-2.6,0.6-5.2,1.3-7.7,1.9c0-1.5,0-3,0-4.5C871.4,260.5,871.4,259,871.4,257.5z"/>
				<path id="XMLID_507_" class="st32" d="M882.2,254.8c2.6-0.6,5.2-1.3,7.7-1.9c0,1.5,0,3,0,4.5c0,1.5,0,3,0,4.5
					c-2.6,0.6-5.2,1.3-7.7,1.9c0-1.5,0-3,0-4.5C882.2,257.8,882.2,256.3,882.2,254.8z"/>
				<path id="XMLID_506_" class="st32" d="M892.9,252.1c2.6-0.6,5.2-1.3,7.7-1.9c0,1.5,0,3,0,4.5c0,1.5,0,3,0,4.5
					c-2.6,0.6-5.2,1.3-7.7,1.9c0-1.5,0-3,0-4.5C892.9,255.1,892.9,253.6,892.9,252.1z"/>
				<path id="XMLID_505_" class="st32" d="M903.6,249.4c2.6-0.6,5.2-1.3,7.7-1.9c0,1.5,0,3,0,4.5c0,1.5,0,3,0,4.5
					c-2.6,0.6-5.2,1.3-7.7,1.9c0-1.5,0-3,0-4.5C903.6,252.5,903.6,251,903.6,249.4z"/>
			</g>
			<g id="XMLID_498_">
				<path id="XMLID_503_" class="st32" d="M860.1,272c2.6-0.6,5.1-1.3,7.7-1.9c0,1.5,0,3,0,4.5c0,1.5,0,3,0,4.5
					c-2.6,0.6-5.1,1.3-7.7,1.9c0-1.5,0-3,0-4.5C860.1,275,860.1,273.5,860.1,272z"/>
				<path id="XMLID_502_" class="st32" d="M871.5,269.2c2.6-0.6,5.2-1.3,7.7-1.9c0,1.5,0,3,0,4.5c0,1.5,0,3,0,4.5
					c-2.6,0.6-5.1,1.3-7.7,1.9c0-1.5,0-3,0-4.5C871.5,272.2,871.5,270.7,871.5,269.2z"/>
				<path id="XMLID_501_" class="st32" d="M882.2,266.5c2.6-0.6,5.2-1.3,7.7-1.9c0,1.5,0,3,0,4.5c0,1.5,0,3,0,4.5
					c-2.6,0.6-5.1,1.3-7.7,1.9c0-1.5,0-3,0-4.5C882.2,269.5,882.2,268,882.2,266.5z"/>
				<path id="XMLID_500_" class="st32" d="M892.9,263.9c2.6-0.6,5.2-1.3,7.7-1.9c0,1.5,0,3,0,4.5c0,1.5,0,3,0,4.5
					c-2.6,0.6-5.1,1.3-7.7,1.9c0-1.5,0-3,0-4.5C892.9,266.9,892.9,265.4,892.9,263.9z"/>
				<path id="XMLID_499_" class="st32" d="M903.6,261.2c2.6-0.6,5.2-1.3,7.7-1.9c0,1.5,0,3,0,4.5c0,1.5,0,3,0,4.5
					c-2.6,0.6-5.2,1.3-7.7,1.9c0-1.5,0-3,0-4.5C903.6,264.2,903.6,262.7,903.6,261.2z"/>
			</g>
		</g>
		<g id="XMLID_487_">
			<path id="XMLID_496_" class="st23" d="M832.8,238.7c0.6,0.4,1.3,0.9,1.9,1.3c0.6,0.4,1.3,0.9,2,1.3c0,1.5,0,3,0,4.6
				c0,1.5,0,3,0,4.6c-0.7-0.4-1.3-0.9-2-1.3c-0.6-0.4-1.3-0.9-1.9-1.3c0-1.5,0-3,0-4.6S832.8,240.3,832.8,238.7z"/>
			<path id="XMLID_495_" class="st23" d="M838.6,242.6c0.6,0.4,1.3,0.9,1.9,1.3c0.6,0.4,1.3,0.9,2,1.3c0,1.5,0,3,0,4.6
				c0,1.5,0,3,0,4.6c-0.7-0.4-1.3-0.9-2-1.3c-0.6-0.4-1.3-0.9-1.9-1.3c0-1.5,0-3,0-4.6C838.6,245.6,838.6,244.1,838.6,242.6z"/>
			<path id="XMLID_494_" class="st23" d="M844,246.2c0.7,0.4,1.3,0.9,2,1.3c0.6,0.4,1.3,0.9,2,1.3c0,1.5,0,3,0,4.6c0,1.5,0,3,0,4.6
				c-0.7-0.4-1.3-0.9-2-1.3c-0.7-0.4-1.3-0.9-2-1.3c0-1.5,0-3,0-4.6C844,249.2,844,247.7,844,246.2z"/>
			<path id="XMLID_493_" class="st23" d="M832.8,250.6c0.6,0.4,1.3,0.9,1.9,1.3c0.6,0.4,1.3,0.9,2,1.3c0,1.5,0,3,0,4.6
				c0,1.5,0,3,0,4.6c-0.7-0.4-1.3-0.9-2-1.3c-0.7-0.4-1.3-0.9-1.9-1.3c0-1.5,0-3,0-4.6C832.8,253.6,832.8,252.1,832.8,250.6z"/>
			<path id="XMLID_492_" class="st23" d="M838.6,254.4c0.6,0.4,1.3,0.9,1.9,1.3c0.7,0.4,1.3,0.9,2,1.3c0,1.5,0,3,0,4.6
				c0,1.5,0,3,0,4.6c-0.7-0.4-1.3-0.9-2-1.3c-0.6-0.4-1.3-0.9-1.9-1.3c0-1.5,0-3,0-4.6S838.6,255.9,838.6,254.4z"/>
			<path id="XMLID_491_" class="st23" d="M844,258c0.7,0.4,1.3,0.9,2,1.3c0.6,0.4,1.3,0.9,2,1.3c0,1.5,0,3,0,4.6c0,1.5,0,3,0,4.6
				c-0.7-0.4-1.3-0.9-2-1.3c-0.7-0.4-1.3-0.9-2-1.3c0-1.5,0-3,0-4.6C844,261,844,259.5,844,258z"/>
			<path id="XMLID_490_" class="st23" d="M832.8,262.4c0.6,0.4,1.3,0.9,1.9,1.3c0.6,0.4,1.3,0.9,2,1.3c0,1.5,0,3,0,4.6
				c0,1.5,0,3,0,4.5c-0.7-0.4-1.3-0.9-2-1.3c-0.6-0.4-1.3-0.9-1.9-1.3c0-1.5,0-3,0-4.5C832.8,265.5,832.8,263.9,832.8,262.4z"/>
			<path id="XMLID_489_" class="st23" d="M838.6,266.2c0.6,0.4,1.3,0.9,1.9,1.3c0.7,0.4,1.3,0.9,2,1.3c0,1.5,0,3,0,4.6s0,3,0,4.5
				c-0.7-0.4-1.3-0.9-2-1.3c-0.6-0.4-1.3-0.9-1.9-1.3c0-1.5,0-3,0-4.5C838.6,269.3,838.6,267.8,838.6,266.2z"/>
			<path id="XMLID_488_" class="st23" d="M844,269.9c0.7,0.4,1.3,0.9,2,1.3c0.6,0.4,1.3,0.9,2,1.3c0,1.5,0,3,0,4.6c0,1.5,0,3,0,4.5
				c-0.7-0.4-1.3-0.9-2-1.3c-0.7-0.4-1.3-0.9-2-1.3c0-1.5,0-3,0-4.5C844,272.9,844,271.4,844,269.9z"/>
		</g>
		<polygon id="XMLID_486_" class="st40" points="836.1,230.9 898.8,215.3 914,225.4 916.3,224.8 898.9,213.2 833.9,229.4 		"/>
		<polygon id="XMLID_485_" class="st41" points="910.7,267.9 903.6,269.7 903.6,270.2 911.4,268.3 911.4,263.8 911.4,259.3 
			910.8,259.4 910.8,263.4 		"/>
		<polygon id="XMLID_484_" class="st41" points="900.7,270.9 900.7,266.4 900.6,261.9 900,262.1 900,266.1 900,270.6 892.9,272.3 
			892.9,272.9 		"/>
		<polygon id="XMLID_483_" class="st41" points="889.3,273.2 882.2,275 882.2,275.5 889.9,273.6 889.9,269.1 889.9,264.6 
			889.3,264.8 889.3,268.7 		"/>
		<polygon id="XMLID_482_" class="st41" points="879.2,276.3 879.2,271.8 879.2,267.3 878.6,267.4 878.6,271.4 878.6,275.9 
			871.5,277.7 871.5,278.2 		"/>
		<polygon id="XMLID_481_" class="st41" points="867.3,278.7 860.2,280.5 860.2,281 867.9,279.1 867.9,274.6 867.9,270.1 
			867.2,270.3 867.3,274.2 		"/>
		<polygon id="XMLID_480_" class="st41" points="860.1,269.3 867.8,267.4 867.8,262.9 867.8,258.4 867.2,258.5 867.2,262.5 
			867.2,267 860.1,268.8 		"/>
		<polygon id="XMLID_479_" class="st41" points="871.5,266 871.5,266.5 879.2,264.6 879.2,260.1 879.2,255.5 878.5,255.7 
			878.5,259.7 878.6,264.2 		"/>
		<polygon id="XMLID_478_" class="st41" points="882.2,263.3 882.2,263.8 889.9,261.9 889.9,257.4 889.9,252.9 889.3,253 889.3,257 
			889.3,261.5 		"/>
		<polygon id="XMLID_477_" class="st41" points="892.9,260.6 892.9,261.2 900.6,259.2 900.6,254.7 900.6,250.2 900,250.3 900,254.3 
			900,258.8 		"/>
		<polygon id="XMLID_476_" class="st41" points="903.6,257.9 903.6,258.5 911.4,256.5 911.4,252 911.4,247.5 910.8,247.7 
			910.8,251.7 910.8,256.2 		"/>
		<polygon id="XMLID_475_" class="st41" points="903.6,246.7 911.4,244.8 911.4,240.3 911.4,235.7 910.8,235.9 910.8,239.9 
			910.8,244.4 903.6,246.2 		"/>
		<polygon id="XMLID_474_" class="st41" points="900.6,247.5 900.6,242.9 900.6,238.4 900,238.6 900,242.6 900,247.1 892.9,248.9 
			892.9,249.4 		"/>
		<polygon id="XMLID_473_" class="st41" points="889.3,249.8 882.1,251.6 882.1,252.1 889.9,250.2 889.9,245.6 889.9,241.1 
			889.2,241.2 889.3,245.3 		"/>
		<polygon id="XMLID_472_" class="st41" points="879.1,252.8 879.1,248.3 879.1,243.8 878.5,243.9 878.5,247.9 878.5,252.5 
			871.4,254.2 871.4,254.8 		"/>
		<polygon id="XMLID_454_" class="st41" points="867.8,255.7 867.8,251.1 867.7,246.6 867.1,246.8 867.1,250.8 867.2,255.3 
			860,257.1 860,257.6 		"/>
		<polygon id="XMLID_453_" class="st42" points="836.7,274.1 836.7,273.6 835.3,272.6 833.4,271.3 833.4,266.8 833.4,262.8 
			832.8,262.4 832.8,267 832.8,271.5 834.8,272.8 		"/>
		<polygon id="XMLID_452_" class="st42" points="838.6,270.8 838.6,275.3 840.5,276.6 842.5,277.9 842.5,277.4 841.1,276.4 
			839.1,275.1 839.1,270.6 839.1,266.6 838.6,266.2 		"/>
		<polygon id="XMLID_451_" class="st42" points="846.5,280.1 844.5,278.8 844.5,274.2 844.5,270.2 844,269.9 844,274.4 844,279 
			845.9,280.3 847.9,281.6 847.9,281 		"/>
		<polygon id="XMLID_450_" class="st42" points="844,267.1 845.9,268.4 847.9,269.7 847.9,269.2 846.5,268.2 844.5,266.9 
			844.5,262.4 844.5,258.4 844,258 844,262.6 		"/>
		<polygon id="XMLID_449_" class="st42" points="842.5,266.1 842.5,265.5 841.1,264.6 839.1,263.3 839.1,258.8 839.1,254.8 
			838.6,254.4 838.6,259 838.6,263.5 840.5,264.8 		"/>
		<polygon id="XMLID_448_" class="st42" points="836.7,262.3 836.7,261.7 835.3,260.8 833.4,259.5 833.4,254.9 833.4,250.9 
			832.8,250.6 832.8,255.1 832.8,259.7 834.8,261 		"/>
		<polygon id="XMLID_447_" class="st42" points="834.8,249.1 836.7,250.4 836.7,249.9 835.3,248.9 833.4,247.6 833.4,243.1 
			833.4,239.1 832.8,238.7 832.8,243.3 832.8,247.8 		"/>
		<polygon id="XMLID_446_" class="st42" points="838.6,247.1 838.6,251.7 840.5,253 842.5,254.3 842.5,253.7 841.1,252.8 
			839.1,251.5 839.1,246.9 839.1,242.9 838.6,242.6 		"/>
		<polygon id="XMLID_445_" class="st42" points="846.5,256.4 844.5,255.1 844.5,250.5 844.5,246.5 844,246.2 844,250.7 844,255.3 
			845.9,256.6 847.9,257.9 847.9,257.3 		"/>
		<g id="XMLID_439_">
			<path id="XMLID_444_" class="st32" d="M1041.8,293c2.9-0.7,5.7-1.4,8.6-2.1c0,5.7,0,11.4,0,17.1c0,5.7,0,11.4,0,17
				c-2.9,0.7-5.7,1.4-8.6,2.1c0-5.7,0-11.4,0-17C1041.8,304.3,1041.8,298.7,1041.8,293z"/>
			<path id="XMLID_443_" class="st32" d="M1054.6,289.8c2.9-0.7,5.7-1.4,8.6-2.1c0,5.7,0,11.4,0,17.1c0,5.7,0,11.4,0,17
				c-2.9,0.7-5.7,1.4-8.6,2.1c0-5.7,0-11.4,0-17C1054.6,301.2,1054.6,295.5,1054.6,289.8z"/>
			<path id="XMLID_442_" class="st32" d="M1067.4,286.6c2.9-0.7,5.7-1.4,8.6-2.1c0,5.7,0,11.4,0,17.1c0,5.7,0,11.4,0,17
				c-2.9,0.7-5.7,1.4-8.6,2.1c0-5.7,0-11.4,0-17C1067.4,298,1067.4,292.3,1067.4,286.6z"/>
			<path id="XMLID_441_" class="st32" d="M1080.1,283.4c2.9-0.7,5.7-1.4,8.6-2.1c0,5.7,0,11.4,0,17.1c0,5.7,0,11.4,0,17
				c-2.9,0.7-5.7,1.4-8.6,2.1c0-5.7,0-11.4,0-17C1080.1,294.8,1080.1,289.1,1080.1,283.4z"/>
			<path id="XMLID_440_" class="st32" d="M1092.9,280.2c2.9-0.7,5.7-1.4,8.6-2.1c0,5.7,0,11.4,0,17.1c0,5.7,0,11.4,0,17
				c-2.9,0.7-5.7,1.4-8.6,2.1c0-5.7,0-11.4,0-17C1092.9,291.6,1092.9,285.9,1092.9,280.2z"/>
		</g>
		<g id="XMLID_433_">
			<path id="XMLID_438_" class="st32" d="M1018.8,282c1.1,0.7,2.2,1.4,3.2,2.2c1.1,0.7,2.2,1.4,3.2,2.2c0,5.8,0,11.6,0,17.3
				c0,5.8,0,11.6,0,17.3c-1.1-0.7-2.2-1.4-3.2-2.2c-1.1-0.7-2.2-1.4-3.2-2.2c0-5.8,0-11.6,0-17.3S1018.8,287.8,1018.8,282z"/>
			<path id="XMLID_434_" class="st32" d="M1028.3,288.4c1.1,0.7,2.2,1.4,3.2,2.2c1.1,0.7,2.2,1.4,3.2,2.2c0,5.8,0,11.6,0,17.3
				c0,5.8,0,11.6,0,17.3c-1.1-0.7-2.2-1.4-3.2-2.2s-2.2-1.4-3.2-2.2c0-5.8,0-11.5,0-17.3C1028.3,300,1028.3,294.2,1028.3,288.4z"/>
		</g>
		<polygon id="XMLID_432_" class="st43" points="1100.6,311.7 1092.9,313.7 1092.9,314.3 1101.5,312.2 1101.5,295.2 1101.5,278.1 
			1100.6,278.3 1100.6,294.7 		"/>
		<polygon id="XMLID_430_" class="st43" points="1088.7,315.4 1088.7,298.3 1088.7,281.3 1087.9,281.5 1087.9,297.9 1087.9,314.9 
			1080.1,316.8 1080.1,317.5 		"/>
		<polygon id="XMLID_429_" class="st43" points="1075.1,318.1 1067.4,320 1067.4,320.7 1075.9,318.6 1075.9,301.5 1075.9,284.5 
			1075.1,284.7 1075.1,301 		"/>
		<polygon id="XMLID_428_" class="st43" points="1063.2,321.7 1063.2,304.7 1063.2,287.6 1062.3,287.9 1062.3,304.2 1062.3,321.3 
			1054.6,323.2 1054.6,323.9 		"/>
		<polygon id="XMLID_427_" class="st43" points="1049.6,324.5 1041.8,326.4 1041.8,327.1 1050.4,324.9 1050.4,307.9 1050.4,290.8 
			1049.6,291 1049.6,307.4 		"/>
		<polygon id="XMLID_426_" class="st44" points="1022.7,318.5 1019.5,316.4 1019.5,299 1019.5,282.5 1018.8,282 1018.8,299.4 
			1018.8,316.7 1022,318.9 1025.2,321 1025.2,320.2 		"/>
		<polygon id="XMLID_425_" class="st44" points="1028.3,305.8 1028.3,323.1 1031.6,325.2 1034.8,327.4 1034.8,326.6 1032.3,324.9 
			1029.1,322.7 1029.1,305.4 1029.1,288.9 1028.3,288.4 		"/>
		<polygon id="XMLID_424_" class="st45" points="1023.2,274.4 1084.3,259.2 1098.6,268.7 1100.9,268.2 1084.3,257.1 1020.9,272.9 		
			"/>
		<g id="XMLID_417_">
			<path id="XMLID_423_" class="st46" d="M929.8,346c9.5-2.4,19.1-4.8,28.6-7.1c9.5-2.4,19.1-4.8,28.6-7.1c0,2.8,0,5.5,0,8.3
				c-9.5,2.4-19.1,4.8-28.6,7.1c-9.5,2.4-19.1,4.8-28.6,7.1C929.8,351.5,929.8,348.8,929.8,346z"/>
			<path id="XMLID_422_" class="st46" d="M929.8,358.6c9.5-2.4,19.1-4.8,28.6-7.1c9.5-2.4,19.1-4.8,28.6-7.1c0,2.8,0,5.5,0,8.3
				c-9.5,2.4-19.1,4.8-28.6,7.1c-9.5,2.4-19.1,4.8-28.6,7.1C929.8,364.1,929.8,361.4,929.8,358.6z"/>
			<path id="XMLID_421_" class="st46" d="M929.8,371.2c9.5-2.4,19.1-4.8,28.6-7.1c9.5-2.4,19.1-4.8,28.6-7.1c0,2.8,0,5.5,0,8.3
				c-9.5,2.4-19.1,4.8-28.6,7.1c-9.5,2.4-19.1,4.8-28.6,7.1C929.8,376.7,929.8,374,929.8,371.2z"/>
			<path id="XMLID_420_" class="st46" d="M929.8,383.8c9.5-2.4,19.1-4.8,28.6-7.1c9.5-2.4,19.1-4.8,28.6-7.1c0,2.8,0,5.5,0,8.3
				c-9.5,2.4-19.1,4.8-28.6,7.1c-9.5,2.4-19.1,4.8-28.6,7.1C929.8,389.3,929.8,386.5,929.8,383.8z"/>
			<path id="XMLID_419_" class="st46" d="M929.8,396.4c9.5-2.4,19.1-4.8,28.6-7.1c9.5-2.4,19.1-4.8,28.6-7.1c0,2.8,0,5.5,0,8.3
				c-9.5,2.4-19.1,4.8-28.6,7.1c-9.5,2.4-19.1,4.8-28.6,7.1C929.8,401.9,929.8,399.1,929.8,396.4z"/>
			<path id="XMLID_418_" class="st46" d="M929.8,409c9.5-2.4,19.1-4.8,28.6-7.1c9.5-2.4,19.1-4.8,28.6-7.1c0,2.8,0,5.5,0,8.3
				c-9.5,2.4-19.1,4.8-28.6,7.1c-9.5,2.4-19.1,4.8-28.6,7.1C929.8,414.5,929.8,411.7,929.8,409z"/>
		</g>
		<g id="XMLID_410_">
			<path id="XMLID_416_" class="st32" d="M929.8,346c9.5-2.4,19.1-4.8,28.6-7.1l27.3-6.8v7.5c-9.5,2.4-19.1,4.8-28.6,7.1
				c-9.1,2.3-18.2,4.5-27.3,6.8V346z"/>
			<path id="XMLID_415_" class="st32" d="M929.8,358.6c9.5-2.4,19.1-4.8,28.6-7.1l27.3-6.8v7.5c-9.5,2.4-19.1,4.8-28.6,7.1
				c-9.1,2.3-18.2,4.5-27.3,6.8V358.6z"/>
			<path id="XMLID_414_" class="st32" d="M929.8,371.2c9.5-2.4,19.1-4.8,28.6-7.1l27.3-6.8v7.5c-9.5,2.4-19.1,4.8-28.6,7.1
				l-27.3,6.8V371.2z"/>
			<path id="XMLID_413_" class="st32" d="M929.8,383.8c9.5-2.4,19.1-4.8,28.6-7.1l27.3-6.8v7.5c-9.5,2.4-19.1,4.8-28.6,7.1
				l-27.3,6.8V383.8z"/>
			<path id="XMLID_412_" class="st32" d="M929.8,396.4c9.5-2.4,19.1-4.8,28.6-7.1c9.1-2.3,18.2-4.5,27.3-6.8v7.5
				c-9.5,2.4-19.1,4.8-28.6,7.1l-27.3,6.8V396.4z"/>
			<path id="XMLID_411_" class="st32" d="M929.8,409c9.5-2.4,19.1-4.8,28.6-7.1c9.1-2.3,18.2-4.5,27.3-6.8v7.5
				c-9.5,2.4-19.1,4.8-28.6,7.1l-27.3,6.8V409z"/>
		</g>
		<g id="XMLID_389_">
			<g id="XMLID_405_">
				<path id="XMLID_409_" class="st47" d="M877.9,390.6c1.9-0.5,3.9-0.9,5.8-1.4c0,2.9,0,5.9,0,8.8c-1.9,0.5-3.9,1-5.8,1.4
					C877.9,396.5,877.9,393.5,877.9,390.6z"/>
				<path id="XMLID_408_" class="st47" d="M886.3,388.5c1.9-0.5,3.8-0.9,5.8-1.4c0,2.9,0,5.9,0,8.8c-1.9,0.5-3.9,1-5.8,1.4
					C886.3,394.4,886.3,391.5,886.3,388.5z"/>
				<path id="XMLID_407_" class="st47" d="M894.6,386.5c1.9-0.5,3.8-0.9,5.8-1.4c0,2.9,0,5.9,0,8.8c-1.9,0.5-3.8,0.9-5.8,1.4
					C894.6,392.4,894.6,389.4,894.6,386.5z"/>
				<path id="XMLID_406_" class="st47" d="M903,384.4c1.9-0.5,3.8-0.9,5.8-1.4c0,2.9,0,5.9,0,8.8c-1.9,0.5-3.8,0.9-5.8,1.4
					C903,390.3,903,387.4,903,384.4z"/>
			</g>
			<g id="XMLID_400_">
				<path id="XMLID_404_" class="st47" d="M877.9,402.4c1.9-0.5,3.9-1,5.8-1.4c0,2.9,0,5.9,0,8.8c-1.9,0.5-3.9,1-5.8,1.4
					C877.9,408.3,877.9,405.4,877.9,402.4z"/>
				<path id="XMLID_403_" class="st47" d="M886.3,400.4c1.9-0.5,3.8-1,5.8-1.4c0,2.9,0,5.9,0,8.8c-1.9,0.5-3.9,1-5.8,1.4
					C886.3,406.3,886.3,403.3,886.3,400.4z"/>
				<path id="XMLID_402_" class="st47" d="M894.6,398.3c1.9-0.5,3.8-1,5.8-1.4c0,2.9,0,5.9,0,8.8c-1.9,0.5-3.8,1-5.8,1.4
					C894.6,404.2,894.6,401.2,894.6,398.3z"/>
				<path id="XMLID_401_" class="st47" d="M903,396.2c1.9-0.5,3.8-0.9,5.8-1.4c0,2.9,0,5.9,0,8.8c-1.9,0.5-3.8,1-5.8,1.4
					C903,402.1,903,399.2,903,396.2z"/>
			</g>
			<g id="XMLID_395_">
				<path id="XMLID_399_" class="st47" d="M877.9,414.3c1.9-0.5,3.9-1,5.8-1.4c0,2.9,0,5.9,0,8.8c-1.9,0.5-3.9,1-5.8,1.4
					C877.9,420.2,877.9,417.2,877.9,414.3z"/>
				<path id="XMLID_398_" class="st47" d="M886.3,412.2c1.9-0.5,3.9-1,5.8-1.4c0,2.9,0,5.9,0,8.8c-1.9,0.5-3.9,1-5.8,1.4
					C886.3,418.1,886.3,415.1,886.3,412.2z"/>
				<path id="XMLID_397_" class="st47" d="M894.6,410.1c1.9-0.5,3.8-1,5.8-1.4c0,2.9,0,5.9,0,8.8c-1.9,0.5-3.9,1-5.8,1.4
					C894.6,416,894.6,413.1,894.6,410.1z"/>
				<path id="XMLID_396_" class="st47" d="M903,408.1c1.9-0.5,3.8-1,5.8-1.4c0,2.9,0,5.9,0,8.8c-1.9,0.5-3.8,1-5.8,1.4
					C903,413.9,903,411,903,408.1z"/>
			</g>
			<g id="XMLID_390_">
				<path id="XMLID_394_" class="st47" d="M877.9,426.1c1.9-0.5,3.9-1,5.8-1.4c0,2.9,0,5.9,0,8.8c-1.9,0.5-3.9,1-5.8,1.4
					C877.9,432,877.9,429.1,877.9,426.1z"/>
				<path id="XMLID_393_" class="st47" d="M886.3,424c1.9-0.5,3.9-1,5.8-1.4c0,2.9,0,5.9,0,8.8c-1.9,0.5-3.9,1-5.8,1.4
					C886.3,429.9,886.3,427,886.3,424z"/>
				<path id="XMLID_392_" class="st47" d="M894.6,422c1.9-0.5,3.8-1,5.8-1.4c0,2.9,0,5.9,0,8.8c-1.9,0.5-3.9,1-5.8,1.4
					C894.6,427.8,894.6,424.9,894.6,422z"/>
				<path id="XMLID_391_" class="st47" d="M903,419.9c1.9-0.5,3.8-1,5.8-1.4c0,2.9,0,5.9,0,8.8c-1.9,0.5-3.8,1-5.8,1.4
					C903,425.8,903,422.8,903,419.9z"/>
			</g>
		</g>
		<g id="XMLID_332_">
			<polygon id="XMLID_388_" class="st32" points="877.9,390.6 883.1,389.3 883.1,397.6 877.9,398.9 			"/>
			<polygon id="XMLID_347_" class="st32" points="886.3,388.5 891.4,387.3 891.4,395.6 886.3,396.8 			"/>
			<polygon id="XMLID_346_" class="st32" points="894.6,386.5 899.8,385.2 899.8,393.5 894.6,394.8 			"/>
			<polygon id="XMLID_345_" class="st32" points="903,384.4 908.1,383.2 908.1,391.4 903,392.7 			"/>
			<polygon id="XMLID_344_" class="st32" points="877.9,402.4 883.1,401.2 883.1,409.5 877.9,410.7 			"/>
			<polygon id="XMLID_343_" class="st32" points="886.3,400.4 891.4,399.1 891.4,407.4 886.3,408.7 			"/>
			<polygon id="XMLID_342_" class="st32" points="894.6,398.3 899.8,397 899.8,405.3 894.6,406.6 			"/>
			<polygon id="XMLID_341_" class="st32" points="903,396.2 908.1,395 908.1,403.3 903,404.5 			"/>
			<polygon id="XMLID_340_" class="st32" points="877.9,414.3 883.1,413 883.1,421.3 877.9,422.6 			"/>
			<polygon id="XMLID_339_" class="st32" points="886.3,412.2 891.4,410.9 891.4,419.2 886.3,420.5 			"/>
			<polygon id="XMLID_338_" class="st32" points="894.6,410.1 899.8,408.8 899.8,417.1 894.6,418.4 			"/>
			<polygon id="XMLID_337_" class="st32" points="903,408.1 908.1,406.8 908.1,415.1 903,416.3 			"/>
			<polygon id="XMLID_336_" class="st32" points="877.9,426.1 883.1,424.8 883.1,433.1 877.9,434.4 			"/>
			<polygon id="XMLID_335_" class="st32" points="886.3,424 891.4,422.7 891.4,431 886.3,432.3 			"/>
			<polygon id="XMLID_334_" class="st32" points="894.6,422 899.8,420.7 899.8,429 894.6,430.2 			"/>
			<polygon id="XMLID_333_" class="st32" points="903,419.9 908.1,418.6 908.1,426.9 903,428.2 			"/>
		</g>
		<g id="XMLID_323_">
			<path id="XMLID_331_" class="st48" d="M864.9,384.6c0.6,0.4,1.2,0.8,1.7,1.2c0.6,0.4,1.2,0.8,1.7,1.2c0,2.9,0,5.9,0,8.8
				c-0.6-0.4-1.2-0.8-1.7-1.2c-0.6-0.4-1.2-0.8-1.7-1.2C864.9,390.5,864.9,387.5,864.9,384.6z"/>
			<path id="XMLID_330_" class="st48" d="M869.9,388c0.6,0.4,1.2,0.8,1.7,1.2c0.6,0.4,1.2,0.8,1.7,1.2c0,2.9,0,5.9,0,8.8
				c-0.6-0.4-1.2-0.8-1.7-1.2c-0.6-0.4-1.2-0.8-1.7-1.2C869.9,393.9,869.9,390.9,869.9,388z"/>
			<path id="XMLID_329_" class="st48" d="M864.9,396.4c0.6,0.4,1.2,0.8,1.7,1.2c0.6,0.4,1.2,0.8,1.7,1.2c0,2.9,0,5.9,0,8.8
				c-0.6-0.4-1.2-0.8-1.7-1.2c-0.6-0.4-1.2-0.8-1.7-1.2C864.9,402.3,864.9,399.4,864.9,396.4z"/>
			<path id="XMLID_328_" class="st48" d="M869.9,399.8c0.6,0.4,1.2,0.8,1.7,1.2c0.6,0.4,1.2,0.8,1.7,1.2c0,2.9,0,5.9,0,8.8
				c-0.6-0.4-1.2-0.8-1.7-1.2c-0.6-0.4-1.2-0.8-1.7-1.2C869.9,405.7,869.9,402.7,869.9,399.8z"/>
			<path id="XMLID_327_" class="st48" d="M864.9,408.3c0.6,0.4,1.2,0.8,1.7,1.2c0.6,0.4,1.2,0.8,1.7,1.2c0,2.9,0,5.9,0,8.8
				c-0.6-0.4-1.2-0.8-1.7-1.2c-0.6-0.4-1.2-0.8-1.7-1.2C864.9,414.2,864.9,411.2,864.9,408.3z"/>
			<path id="XMLID_326_" class="st48" d="M869.9,411.6c0.6,0.4,1.2,0.8,1.7,1.2c0.6,0.4,1.2,0.8,1.7,1.2c0,2.9,0,5.9,0,8.8
				c-0.6-0.4-1.2-0.8-1.7-1.2c-0.6-0.4-1.2-0.8-1.7-1.2C869.9,417.5,869.9,414.6,869.9,411.6z"/>
			<path id="XMLID_325_" class="st48" d="M864.9,420.1c0.6,0.4,1.2,0.8,1.7,1.2c0.6,0.4,1.2,0.8,1.7,1.2c0,2.9,0,5.9,0,8.8
				c-0.6-0.4-1.2-0.8-1.7-1.2c-0.6-0.4-1.2-0.8-1.7-1.2C864.9,426,864.9,423.1,864.9,420.1z"/>
			<path id="XMLID_324_" class="st48" d="M869.9,423.5c0.6,0.4,1.2,0.8,1.7,1.2c0.6,0.4,1.2,0.8,1.7,1.2c0,2.9,0,5.9,0,8.8
				c-0.6-0.4-1.2-0.8-1.7-1.2c-0.6-0.4-1.2-0.8-1.7-1.2C869.9,429.4,869.9,426.4,869.9,423.5z"/>
		</g>
		<g id="XMLID_298_">
			<path id="XMLID_320_" class="st32" d="M865.3,384.9l1.3,0.9c0.6,0.4,1.2,0.8,1.7,1.2v8.3l-1.3-0.9c-0.6-0.4-1.2-0.8-1.7-1.2
				V384.9z"/>
			<path id="XMLID_319_" class="st32" d="M870.4,388.2l1.3,0.9c0.6,0.4,1.2,0.8,1.7,1.2v8.3l-1.3-0.9c-0.6-0.4-1.2-0.8-1.7-1.2
				V388.2z"/>
			<path id="XMLID_318_" class="st32" d="M865.3,396.7l1.3,0.9c0.6,0.4,1.2,0.8,1.7,1.2v8.3l-1.3-0.9c-0.6-0.4-1.2-0.8-1.7-1.2
				V396.7z"/>
			<path id="XMLID_317_" class="st32" d="M870.4,400.1l1.3,0.9c0.6,0.4,1.2,0.8,1.7,1.2v8.3l-1.3-0.9c-0.6-0.4-1.2-0.8-1.7-1.2
				V400.1z"/>
			<path id="XMLID_316_" class="st32" d="M865.3,408.6l1.3,0.9c0.6,0.4,1.2,0.8,1.7,1.2v8.3l-1.3-0.9c-0.6-0.4-1.2-0.8-1.7-1.2
				V408.6z"/>
			<path id="XMLID_309_" class="st32" d="M870.4,411.9l1.3,0.9c0.6,0.4,1.2,0.8,1.7,1.2v8.3l-1.3-0.9c-0.6-0.4-1.2-0.8-1.7-1.2
				V411.9z"/>
			<path id="XMLID_300_" class="st32" d="M865.3,420.4l1.3,0.9c0.6,0.4,1.2,0.8,1.7,1.2v8.3l-1.3-0.9c-0.6-0.4-1.2-0.8-1.7-1.2
				V420.4z"/>
			<path id="XMLID_299_" class="st32" d="M870.4,423.8l1.3,0.9c0.6,0.4,1.2,0.8,1.7,1.2v8.3l-1.3-0.9c-0.6-0.4-1.2-0.8-1.7-1.2
				V423.8z"/>
		</g>
		<g id="XMLID_269_">
			<g id="XMLID_292_">
				<path id="XMLID_297_" class="st49" d="M884.1,519.1c0.8,0.6,1.7,1.1,2.5,1.7c0-4.6,0-9.1,0-13.7c-0.9-0.6-1.7-1.1-2.5-1.7
					C884.1,510,884.1,514.6,884.1,519.1z"/>
				<path id="XMLID_296_" class="st49" d="M887.8,521.6c0.8,0.6,1.7,1.1,2.5,1.7c0-4.6,0-9.1,0-13.7c-0.9-0.6-1.7-1.1-2.5-1.7
					C887.8,512.5,887.8,517,887.8,521.6z"/>
				<path id="XMLID_295_" class="st49" d="M891.5,524c0.8,0.6,1.7,1.1,2.5,1.7c0-4.6,0-9.1,0-13.7c-0.9-0.6-1.7-1.1-2.5-1.7
					C891.5,514.9,891.5,519.5,891.5,524z"/>
				<path id="XMLID_294_" class="st49" d="M895.1,526.5c0.8,0.6,1.7,1.1,2.5,1.7c0-4.6,0-9.1,0-13.7c-0.9-0.6-1.7-1.1-2.5-1.7
					C895.1,517.4,895.1,521.9,895.1,526.5z"/>
				<path id="XMLID_293_" class="st49" d="M898.8,528.9c0.8,0.6,1.7,1.1,2.6,1.7c0-4.6,0-9.1,0-13.7c-0.9-0.6-1.7-1.1-2.6-1.7
					C898.8,519.8,898.8,524.4,898.8,528.9z"/>
			</g>
			<g id="XMLID_285_">
				<path id="XMLID_291_" class="st49" d="M884.1,534.4c0.8,0.6,1.7,1.1,2.5,1.7c0-4.6,0-9.1,0-13.7c-0.9-0.6-1.7-1.1-2.5-1.7
					C884.1,525.3,884.1,529.9,884.1,534.4z"/>
				<path id="XMLID_290_" class="st49" d="M887.8,536.9c0.8,0.6,1.7,1.1,2.5,1.7c0-4.6,0-9.1,0-13.7c-0.9-0.6-1.7-1.1-2.5-1.7
					C887.8,527.8,887.8,532.3,887.8,536.9z"/>
				<path id="XMLID_289_" class="st49" d="M891.5,539.3c0.8,0.6,1.7,1.1,2.5,1.7c0-4.6,0-9.1,0-13.7c-0.9-0.6-1.7-1.1-2.5-1.7
					C891.5,530.2,891.5,534.8,891.5,539.3z"/>
				<path id="XMLID_288_" class="st49" d="M895.1,541.8c0.8,0.6,1.7,1.1,2.5,1.7c0-4.6,0-9.1,0-13.7c-0.9-0.6-1.7-1.1-2.5-1.7
					C895.1,532.7,895.1,537.2,895.1,541.8z"/>
				<path id="XMLID_287_" class="st49" d="M898.8,544.2c0.8,0.6,1.7,1.1,2.6,1.7c0-4.6,0-9.1,0-13.7c-0.9-0.6-1.7-1.1-2.6-1.7
					C898.8,535.1,898.8,539.7,898.8,544.2z"/>
			</g>
			<g id="XMLID_277_">
				<path id="XMLID_283_" class="st49" d="M884.1,549.7c0.8,0.6,1.7,1.1,2.5,1.7c0-4.6,0-9.1,0-13.7c-0.9-0.6-1.7-1.1-2.5-1.7
					C884.1,540.6,884.1,545.2,884.1,549.7z"/>
				<path id="XMLID_282_" class="st49" d="M887.8,552.2c0.8,0.6,1.7,1.1,2.5,1.7c0-4.6,0-9.1,0-13.7c-0.9-0.6-1.7-1.1-2.5-1.7
					C887.8,543.1,887.8,547.6,887.8,552.2z"/>
				<path id="XMLID_281_" class="st49" d="M891.5,554.6c0.8,0.6,1.7,1.1,2.5,1.7c0-4.6,0-9.1,0-13.7c-0.9-0.6-1.7-1.1-2.5-1.7
					C891.5,545.5,891.5,550.1,891.5,554.6z"/>
				<path id="XMLID_279_" class="st49" d="M895.1,557.1c0.8,0.6,1.7,1.1,2.5,1.7c0-4.6,0-9.1,0-13.7c-0.9-0.6-1.7-1.1-2.5-1.7
					C895.1,548,895.1,552.5,895.1,557.1z"/>
				<path id="XMLID_278_" class="st49" d="M898.8,559.5c0.8,0.6,1.7,1.1,2.6,1.7c0-4.6,0-9.1,0-13.7c-0.9-0.6-1.7-1.1-2.6-1.7
					C898.8,550.4,898.8,555,898.8,559.5z"/>
			</g>
			<g id="XMLID_270_">
				<path id="XMLID_275_" class="st49" d="M884.1,565c0.8,0.6,1.7,1.1,2.5,1.7c0-4.5,0-9.1,0-13.7c-0.9-0.6-1.7-1.1-2.5-1.7
					C884.1,555.9,884.1,560.5,884.1,565z"/>
				<path id="XMLID_274_" class="st49" d="M887.8,567.5c0.8,0.6,1.7,1.1,2.5,1.7c0-4.5,0-9.1,0-13.7c-0.9-0.6-1.7-1.1-2.5-1.7
					C887.8,558.4,887.8,562.9,887.8,567.5z"/>
				<path id="XMLID_273_" class="st49" d="M891.5,569.9c0.8,0.6,1.7,1.1,2.5,1.7c0-4.5,0-9.1,0-13.7c-0.9-0.6-1.7-1.1-2.5-1.7
					C891.5,560.8,891.5,565.4,891.5,569.9z"/>
				<path id="XMLID_272_" class="st49" d="M895.1,572.4c0.8,0.6,1.7,1.1,2.5,1.7c0-4.5,0-9.1,0-13.7c-0.9-0.6-1.7-1.1-2.5-1.7
					C895.1,563.3,895.1,567.8,895.1,572.4z"/>
				<path id="XMLID_271_" class="st49" d="M898.8,574.8c0.8,0.6,1.7,1.1,2.6,1.7c0-4.5,0-9.1,0-13.7c-0.9-0.6-1.7-1.1-2.6-1.7
					C898.8,565.7,898.8,570.3,898.8,574.8z"/>
			</g>
		</g>
		<g id="XMLID_241_">
			<polygon id="XMLID_268_" class="st32" points="886.7,520.4 886.7,507.1 884.6,505.8 884.6,519 			"/>
			<polygon id="XMLID_267_" class="st32" points="890.3,522.9 890.3,509.6 888.3,508.2 888.3,521.5 			"/>
			<polygon id="XMLID_266_" class="st32" points="894,525.3 894,512 892,510.7 892,523.9 			"/>
			<polygon id="XMLID_265_" class="st32" points="897.7,527.8 897.7,514.5 895.6,513.1 895.6,526.4 			"/>
			<polygon id="XMLID_264_" class="st32" points="901.4,530.2 901.4,516.9 899.3,515.6 899.3,528.8 			"/>
			<polygon id="XMLID_263_" class="st32" points="886.7,535.7 886.7,522.4 884.6,521.1 884.6,534.3 			"/>
			<polygon id="XMLID_262_" class="st32" points="890.3,538.2 890.3,524.9 888.3,523.5 888.3,536.8 			"/>
			<polygon id="XMLID_261_" class="st32" points="894,540.6 894,527.3 892,526 892,539.2 			"/>
			<polygon id="XMLID_260_" class="st32" points="897.7,543.1 897.7,529.8 895.6,528.4 895.6,541.7 			"/>
			<polygon id="XMLID_259_" class="st32" points="901.4,545.5 901.4,532.3 899.3,530.9 899.3,544.1 			"/>
			<polygon id="XMLID_258_" class="st32" points="886.7,551 886.7,537.8 884.6,536.4 884.6,549.6 			"/>
			<polygon id="XMLID_257_" class="st32" points="890.3,553.5 890.3,540.2 888.3,538.8 888.3,552.1 			"/>
			<polygon id="XMLID_256_" class="st32" points="894,555.9 894,542.7 892,541.3 892,554.5 			"/>
			<polygon id="XMLID_255_" class="st32" points="897.7,558.4 897.7,545.1 895.6,543.7 895.6,557 			"/>
			<polygon id="XMLID_252_" class="st32" points="901.4,560.8 901.4,547.6 899.3,546.2 899.3,559.4 			"/>
			<polygon id="XMLID_247_" class="st32" points="886.7,566.3 886.7,553.1 884.6,551.7 884.6,564.9 			"/>
			<polygon id="XMLID_246_" class="st32" points="890.3,568.8 890.3,555.5 888.3,554.1 888.3,567.4 			"/>
			<polygon id="XMLID_244_" class="st32" points="894,571.2 894,558 892,556.6 892,569.8 			"/>
			<polygon id="XMLID_243_" class="st32" points="897.7,573.7 897.7,560.4 895.6,559 895.6,572.3 			"/>
			<polygon id="XMLID_242_" class="st32" points="901.4,576.1 901.4,562.9 899.3,561.5 899.3,574.7 			"/>
		</g>
		<g id="XMLID_225_">
			<g id="XMLID_237_">
				<path id="XMLID_240_" class="st50" d="M934.1,566.7c1.3-0.3,2.6-0.7,4-1s2.7-0.7,4-1c0,1.4,0,2.8,0,4.3c0,1.4,0,2.8,0,4.3
					c-1.3,0.3-2.7,0.7-4,1c-1.3,0.3-2.7,0.7-4,1c0-1.4,0-2.8,0-4.3C934.1,569.5,934.1,568.1,934.1,566.7z"/>
				<path id="XMLID_239_" class="st50" d="M944.2,564.1c1.3-0.3,2.7-0.7,4-1c1.3-0.3,2.7-0.7,4-1c0,1.4,0,2.8,0,4.3
					c0,1.4,0,2.8,0,4.3c-1.3,0.3-2.7,0.7-4,1c-1.3,0.3-2.7,0.7-4,1c0-1.4,0-2.8,0-4.3C944.2,567,944.2,565.6,944.2,564.1z"/>
				<path id="XMLID_238_" class="st50" d="M954.4,561.6c1.3-0.3,2.7-0.7,4-1c1.3-0.3,2.7-0.7,4-1c0,1.4,0,2.8,0,4.3
					c0,1.4,0,2.8,0,4.3c-1.3,0.3-2.7,0.7-4,1c-1.3,0.3-2.7,0.7-4,1c0-1.4,0-2.8,0-4.3C954.4,564.5,954.4,563,954.4,561.6z"/>
			</g>
			<g id="XMLID_230_">
				<path id="XMLID_236_" class="st50" d="M934.1,577.2c1.3-0.3,2.6-0.7,4-1s2.7-0.7,4-1c0,1.4,0,2.8,0,4.3c0,1.4,0,2.8,0,4.3
					c-1.3,0.3-2.7,0.7-4,1s-2.7,0.7-4,1c0-1.4,0-2.8,0-4.3C934.1,580.1,934.1,578.7,934.1,577.2z"/>
				<path id="XMLID_235_" class="st50" d="M944.2,574.7c1.3-0.3,2.7-0.7,4-1c1.3-0.3,2.7-0.7,4-1c0,1.4,0,2.8,0,4.3
					c0,1.4,0,2.8,0,4.3c-1.3,0.3-2.7,0.7-4,1c-1.3,0.3-2.7,0.7-4,1c0-1.4,0-2.8,0-4.3C944.2,577.6,944.2,576.1,944.2,574.7z"/>
				<path id="XMLID_233_" class="st50" d="M954.4,572.2c1.3-0.3,2.7-0.7,4-1c1.3-0.3,2.7-0.7,4-1c0,1.4,0,2.8,0,4.3
					c0,1.4,0,2.8,0,4.3c-1.3,0.3-2.7,0.7-4,1c-1.3,0.3-2.7,0.7-4,1c0-1.4,0-2.8,0-4.3C954.4,575,954.4,573.6,954.4,572.2z"/>
			</g>
			<g id="XMLID_226_">
				<path id="XMLID_229_" class="st50" d="M934.1,587.8c1.3-0.3,2.6-0.7,4-1c1.3-0.3,2.7-0.7,4-1c0,1.4,0,2.8,0,4.3
					c0,1.4,0,2.8,0,4.3c-1.3,0.3-2.7,0.7-4,1c-1.3,0.3-2.7,0.7-4,1c0-1.4,0-2.8,0-4.3C934.1,590.6,934.1,589.2,934.1,587.8z"/>
				<path id="XMLID_228_" class="st50" d="M944.2,585.3c1.3-0.3,2.7-0.7,4-1c1.3-0.3,2.7-0.7,4-1c0,1.4,0,2.8,0,4.3
					c0,1.4,0,2.8,0,4.3c-1.3,0.3-2.7,0.7-4,1c-1.3,0.3-2.7,0.7-4,1c0-1.4,0-2.8,0-4.3C944.2,588.1,944.2,586.7,944.2,585.3z"/>
				<path id="XMLID_227_" class="st50" d="M954.4,582.7c1.3-0.3,2.7-0.7,4-1c1.3-0.3,2.7-0.7,4-1c0,1.4,0,2.8,0,4.3
					c0,1.4,0,2.8,0,4.3c-1.3,0.3-2.7,0.7-4,1c-1.3,0.3-2.7,0.7-4,1c0-1.4,0-2.8,0-4.3C954.4,585.6,954.4,584.1,954.4,582.7z"/>
			</g>
		</g>
		<g id="XMLID_204_">
			<path id="XMLID_223_" class="st32" d="M934.1,566.7c1.3-0.3,2.6-0.7,4-1l3.5-0.9v4c0,1.4,0,2.8,0,4.3c-1.3,0.3-2.7,0.7-4,1
				l-3.5,0.9v-4C934.1,569.5,934.1,568.1,934.1,566.7z"/>
			<path id="XMLID_220_" class="st32" d="M944.2,564.1c1.3-0.3,2.7-0.7,4-1l3.5-0.9v4c0,1.4,0,2.8,0,4.3c-1.3,0.3-2.7,0.7-4,1
				l-3.5,0.9v-4C944.2,567,944.2,565.6,944.2,564.1z"/>
			<path id="XMLID_215_" class="st32" d="M954.4,561.6c1.3-0.3,2.7-0.7,4-1l3.5-0.9v4c0,1.4,0,2.8,0,4.3c-1.3,0.3-2.7,0.7-4,1
				l-3.5,0.9v-4C954.4,564.5,954.4,563,954.4,561.6z"/>
			<path id="XMLID_213_" class="st32" d="M934.1,577.2c1.3-0.3,2.6-0.7,4-1l3.5-0.9v4c0,1.4,0,2.8,0,4.3c-1.3,0.3-2.7,0.7-4,1
				l-3.5,0.9v-4C934.1,580.1,934.1,578.7,934.1,577.2z"/>
			<path id="XMLID_209_" class="st32" d="M944.2,574.7c1.3-0.3,2.7-0.7,4-1l3.5-0.9v4c0,1.4,0,2.8,0,4.3c-1.3,0.3-2.7,0.7-4,1
				l-3.5,0.9v-4C944.2,577.6,944.2,576.1,944.2,574.7z"/>
			<path id="XMLID_208_" class="st32" d="M954.4,572.2c1.3-0.3,2.7-0.7,4-1l3.5-0.9v4c0,1.4,0,2.8,0,4.3c-1.3,0.3-2.7,0.7-4,1
				l-3.5,0.9v-4C954.4,575,954.4,573.6,954.4,572.2z"/>
			<path id="XMLID_207_" class="st32" d="M934.1,587.8c1.3-0.3,2.6-0.7,4-1l3.5-0.9v4c0,1.4,0,2.8,0,4.3c-1.3,0.3-2.7,0.7-4,1
				l-3.5,0.9v-4C934.1,590.6,934.1,589.2,934.1,587.8z"/>
			<path id="XMLID_206_" class="st32" d="M944.2,585.3c1.3-0.3,2.7-0.7,4-1l3.5-0.9v4c0,1.4,0,2.8,0,4.3c-1.3,0.3-2.7,0.7-4,1
				l-3.5,0.9v-4C944.2,588.1,944.2,586.7,944.2,585.3z"/>
			<path id="XMLID_205_" class="st32" d="M954.4,582.7c1.3-0.3,2.7-0.7,4-1l3.5-0.9v4c0,1.4,0,2.8,0,4.3c-1.3,0.3-2.7,0.7-4,1
				l-3.5,0.9v-4C954.4,585.6,954.4,584.1,954.4,582.7z"/>
		</g>
		<g id="XMLID_200_">
			<path id="XMLID_203_" class="st51" d="M922.7,561.4c1.2,0.8,2.4,1.6,3.5,2.4c1.2,0.8,2.4,1.6,3.5,2.4c0,1.4,0,2.8,0,4.2
				c0,1.4,0,2.8,0,4.2c-1.2-0.8-2.4-1.6-3.5-2.4c-1.2-0.8-2.4-1.6-3.5-2.4c0-1.4,0-2.8,0-4.2C922.7,564.2,922.7,562.8,922.7,561.4z"
				/>
			<path id="XMLID_202_" class="st51" d="M922.7,571.9c1.2,0.8,2.4,1.6,3.5,2.4c1.2,0.8,2.4,1.6,3.5,2.4c0,1.4,0,2.8,0,4.2
				c0,1.4,0,2.8,0,4.2c-1.2-0.8-2.4-1.6-3.5-2.4c-1.2-0.8-2.4-1.6-3.5-2.4c0-1.4,0-2.8,0-4.2C922.7,574.7,922.7,573.3,922.7,571.9z"
				/>
			<path id="XMLID_201_" class="st51" d="M922.7,582.3c1.2,0.8,2.4,1.6,3.5,2.4c1.2,0.8,2.4,1.6,3.5,2.4c0,1.4,0,2.8,0,4.2
				c0,1.4,0,2.8,0,4.2c-1.2-0.8-2.4-1.6-3.5-2.4c-1.2-0.8-2.4-1.6-3.5-2.4c0-1.4,0-2.8,0-4.2C922.7,585.1,922.7,583.7,922.7,582.3z"
				/>
		</g>
		<g id="XMLID_193_">
			<path id="XMLID_199_" class="st32" d="M923.3,561.8l2.9,2c1.2,0.8,2.4,1.6,3.5,2.4c0,1.4,0,2.8,0,4.2v3.7l-2.9-2
				c-1.2-0.8-2.4-1.6-3.5-2.4c0-1.4,0-2.8,0-4.2V561.8z"/>
			<path id="XMLID_196_" class="st32" d="M923.3,572.3l2.9,2c1.2,0.8,2.4,1.6,3.5,2.4c0,1.4,0,2.8,0,4.2v3.7l-2.9-2
				c-1.2-0.8-2.4-1.6-3.5-2.4c0-1.4,0-2.8,0-4.2V572.3z"/>
			<path id="XMLID_195_" class="st32" d="M923.3,582.7l2.9,2c1.2,0.8,2.4,1.6,3.5,2.4c0,1.4,0,2.8,0,4.2v3.7l-2.9-2
				c-1.2-0.8-2.4-1.6-3.5-2.4c0-1.4,0-2.8,0-4.2V582.7z"/>
		</g>
		<path id="XMLID_190_" class="st32" d="M1147.7,478.2c4.2-1,8.4-2.1,12.5-3.1c4.2-1,8.4-2.1,12.5-3.1c0,2.2,0,4.5,0,6.7
			c0,2.2,0,4.5,0,6.7c-4.2,1-8.4,2.1-12.5,3.1c-4.2,1-8.4,2.1-12.5,3.1c0-2.2,0-4.5,0-6.7C1147.7,482.6,1147.7,480.4,1147.7,478.2z"
			/>
		<path id="XMLID_146_" class="st32" d="M1177.7,470.7c4.2-1,8.4-2.1,12.5-3.1c4.2-1,8.4-2.1,12.5-3.1c0,2.2,0,4.5,0,6.7
			c0,2.2,0,4.5,0,6.7c-4.2,1-8.4,2.1-12.5,3.1c-4.2,1-8.3,2.1-12.5,3.1c0-2.2,0-4.5,0-6.7C1177.7,475.2,1177.7,472.9,1177.7,470.7z"
			/>
		<path id="XMLID_142_" class="st32" d="M1147.6,493.9c4.2-1,8.4-2.1,12.5-3.1c4.2-1,8.4-2.1,12.5-3.1c0,2.2,0,4.5,0,6.7
			c0,2.2,0,4.5,0,6.7c-4.2,1-8.4,2.1-12.5,3.1c-4.2,1-8.4,2.1-12.5,3.1c0-2.2,0-4.5,0-6.7C1147.6,498.4,1147.6,496.2,1147.6,493.9z"
			/>
		<path id="XMLID_141_" class="st32" d="M1177.6,486.5c4.2-1,8.4-2.1,12.5-3.1c4.2-1,8.4-2.1,12.5-3.1c0,2.2,0,4.5,0,6.7
			c0,2.2,0,4.5,0,6.7c-4.2,1-8.4,2.1-12.5,3.1c-4.2,1-8.4,2.1-12.5,3.1c0-2.2,0-4.5,0-6.7C1177.6,490.9,1177.6,488.7,1177.6,486.5z"
			/>
		<g id="XMLID_136_">
			<path id="XMLID_138_" class="st32" d="M1122.9,467.6c2.6,1.7,5.2,3.5,7.8,5.2c2.6,1.7,5.2,3.5,7.8,5.2c0,2.2,0,4.5,0,6.7
				c0,2.2,0,4.5,0,6.7c-2.6-1.7-5.2-3.5-7.8-5.2c-2.6-1.7-5.2-3.5-7.8-5.2c0-2.2,0-4.5,0-6.7C1122.9,472,1122.9,469.8,1122.9,467.6z
				"/>
			<path id="XMLID_137_" class="st32" d="M1122.8,483.2c2.6,1.7,5.2,3.5,7.8,5.2c2.6,1.7,5.2,3.5,7.8,5.2c0,2.2,0,4.5,0,6.7
				c0,2.2,0,4.5,0,6.7c-2.6-1.7-5.2-3.5-7.8-5.2c-2.6-1.7-5.2-3.5-7.8-5.2c0-2.2,0-4.5,0-6.7
				C1122.8,487.7,1122.8,485.5,1122.8,483.2z"/>
		</g>
		<polygon id="XMLID_135_" class="st52" points="1129.5,458.2 1187.5,443.7 1199.7,451.9 1203.1,451.1 1187.5,440.6 1126.1,455.9 		
			"/>
		<polygon id="XMLID_134_" class="st53" points="1159,503.6 1147.7,506.4 1147.7,507.3 1160.2,504.2 1172.7,501.1 1172.7,494.4 
			1172.7,487.7 1171.5,488 1171.6,493.7 1171.6,500.4 		"/>
		<polygon id="XMLID_133_" class="st53" points="1177.7,498.9 1177.7,499.8 1190.2,496.7 1202.7,493.6 1202.7,486.9 1202.7,480.2 
			1201.5,480.5 1201.6,486.3 1201.6,492.9 1189.1,496.1 		"/>
		<polygon id="XMLID_132_" class="st53" points="1177.7,484.1 1190.3,481 1202.8,477.8 1202.8,471.2 1202.7,464.5 1201.6,464.8 
			1201.6,470.5 1201.6,477.2 1189.1,480.3 1177.7,483.2 		"/>
		<polygon id="XMLID_123_" class="st53" points="1172.8,485.3 1172.8,478.6 1172.7,471.9 1171.6,472.2 1171.6,478 1171.6,484.7 
			1159.1,487.8 1147.7,490.6 1147.7,491.6 1160.3,488.4 		"/>
		<polygon id="XMLID_122_" class="st54" points="1124.1,496.4 1124.1,489.7 1124.1,484.1 1122.8,483.2 1122.8,489.9 1122.8,496.6 
			1130.6,501.8 1138.4,507 1138.4,505.9 1131.9,501.6 		"/>
		<polygon id="XMLID_115_" class="st54" points="1122.9,480.9 1130.7,486.1 1138.5,491.3 1138.5,490.2 1132,485.9 1124.2,480.7 
			1124.2,474 1124.2,468.4 1122.9,467.6 1122.9,474.2 		"/>
		<polygon id="XMLID_114_" class="st55" points="940,551.9 954.1,548.4 960.5,552.6 961.8,552.3 954.2,547.2 940,550.7 936.3,551.6 
			932,552.7 930.1,553.2 925.7,554.3 924.1,554.7 925.4,555.6 925.7,555.5 930.1,554.4 932,553.9 936.3,552.9 		"/>
		<polygon id="XMLID_113_" class="st56" points="888.3,497.6 918.4,490.1 933.8,500.3 935.1,500 918.4,488.8 887,496.6 		"/>
		<polygon id="XMLID_112_" class="st57" points="909.8,325.9 970.8,310.6 985.8,320.6 987.5,320.2 970.8,309.1 908,324.7 		"/>
		<polygon id="XMLID_108_" class="st58" points="867,378.7 899.8,370.5 903.1,372.7 905.7,374.4 906.7,375 908,375.9 909.1,375.7 
			906.7,374.1 905.7,373.5 903.1,371.7 899.8,369.5 865.9,378 		"/>
	</g>
	<g id="XMLID_221_">
		<path id="XMLID_234_" class="st4" d="M851.8,308.8h6.5c0,10,0,20,0,30c0,2.5-6.6,2.3-6.5,0V308.8z"/>
		<path id="XMLID_231_" class="st5" d="M852.3,327.3c1,0.1,1.9,0.2,2.8,0.3c0.9-0.1,1.8-0.2,2.8-0.3c49-6.3,11.3-58.6-2.8-60.3
			C841,268.7,803.3,321.1,852.3,327.3z"/>
		<path id="XMLID_224_" class="st6" d="M865.9,273.8c-4-3.8-7.9-6.4-10.8-6.7c-10,1.2-31.9,27.9-26.2,45.5c3.7,2.2,8.7,3.9,15.2,4.7
			c1,0.1,1.9,0.2,2.8,0.3c0.9-0.1,1.8-0.2,2.8-0.3C881.2,313.3,876.8,290.2,865.9,273.8z"/>
	</g>
</g>
<g id="XMLID_110_">
	<g id="XMLID_198_" class="st59">
		<g id="XMLID_284_" class="st60">
			
				<image style="overflow:visible;" width="1112" height="456" id="XMLID_286_" xlink:href="ACB4BBA7.png"  transform="matrix(1 0 0 1 373.1844 96.6965)">
			</image>
		</g>
	</g>
	<g id="XMLID_180_">
		<path id="XMLID_181_" class="st61" d="M916.8,168.6l-0.8,14.5c-11.9-7.5-35-10.1-51.6-5.9l0.8-14.5
			C881.8,158.4,904.9,161.1,916.8,168.6z"/>
	</g>
	<g id="XMLID_170_">
		<path id="XMLID_179_" class="st61" d="M912.9,166.4l-0.8,14.5l-0.3-0.1l0,0l0,0c-0.2-0.1-0.4-0.2-0.6-0.3l0,0
			c-0.2-0.1-0.4-0.2-0.7-0.3l0,0c-0.5-0.2-1.1-0.4-1.6-0.6l0.8-14.5c0.5,0.2,1.1,0.4,1.6,0.6l0,0l0,0c0.2,0.1,0.4,0.2,0.6,0.3l0,0
			l0,0l0,0C912.2,166.1,912.5,166.3,912.9,166.4z"/>
		<path id="XMLID_178_" class="st61" d="M906.7,164.1l-0.8,14.5c-0.2-0.1-0.4-0.1-0.6-0.2l0,0l0,0l0,0c-0.5-0.1-1-0.3-1.5-0.4l0,0
			l0,0l-0.5-0.1l0.8-14.5c0.2,0,0.3,0.1,0.5,0.1l0,0l0,0l0,0l0,0c0.2,0.1,0.5,0.1,0.7,0.2l0,0l0,0c0.3,0.1,0.5,0.1,0.8,0.2l0,0l0,0
			l0,0C906.3,164,906.5,164,906.7,164.1z"/>
		<path id="XMLID_177_" class="st61" d="M901.4,162.7L901.4,162.7l-0.8,14.5l0,0l0,0l0,0c-0.3-0.1-0.5-0.1-0.8-0.2l0,0
			c-0.3-0.1-0.5-0.1-0.8-0.2l0,0l0,0l0,0c-0.2,0-0.5-0.1-0.7-0.1l0,0l0,0l0,0l0,0l0.8-14.5l0,0h0l0,0l0,0l0,0c0.2,0,0.5,0.1,0.7,0.1
			l0,0l0,0l0,0c0.2,0,0.5,0.1,0.7,0.2l0,0l0,0l0,0C900.8,162.5,901,162.6,901.4,162.7L901.4,162.7L901.4,162.7L901.4,162.7z"/>
		<path id="XMLID_176_" class="st61" d="M898.7,162.1l-0.8,14.5c-0.3,0-0.5-0.1-0.8-0.1l0,0l0,0l0,0c-0.2,0-0.5-0.1-0.7-0.1l0,0l0,0
			l0,0c-0.3,0-0.5-0.1-0.8-0.1l0,0l0,0l0,0l-0.1,0l0.8-14.5l0.1,0l0,0l0,0l0,0l0,0l0,0c0.2,0,0.5,0.1,0.7,0.1l0,0l0,0l0,0l0,0
			c0.2,0,0.5,0.1,0.7,0.1l0,0l0,0l0,0l0,0l0,0C898.3,162,898.5,162.1,898.7,162.1z"/>
		<path id="XMLID_175_" class="st61" d="M896.1,161.7l-0.8,14.5c-0.5-0.1-1-0.2-1.5-0.2l0,0l0,0l0,0c-0.3,0-0.5-0.1-0.8-0.1l0,0l0,0
			l0,0l-0.3,0l0.8-14.5l0.3,0l0,0l0,0l0,0c0.3,0,0.5,0.1,0.8,0.1l0,0l0,0l0,0c0.3,0,0.5,0.1,0.8,0.1l0,0l0,0l0,0l0,0L896.1,161.7z"
			/>
		<path id="XMLID_174_" class="st61" d="M890.5,161l-0.8,14.5l-0.4,0l0,0c-0.3,0-0.6,0-0.8-0.1l0,0l0,0l0,0c-0.3,0-0.6,0-0.8-0.1
			l0,0c-0.3,0-0.5,0-0.8,0l0.8-14.5c0.2,0,0.5,0,0.7,0l0,0l0,0l0,0l0,0c0.3,0,0.6,0,0.8,0.1l0,0l0,0l0,0c0.3,0,0.5,0,0.8,0.1l0,0
			l0,0l0,0L890.5,161z"/>
		<path id="XMLID_173_" class="st61" d="M887.6,160.8l-0.8,14.5l-0.1,0l0,0c-0.3,0-0.6,0-0.9,0h0c-0.3,0-0.6,0-0.9,0l0,0l0,0l-0.1,0
			c-0.3,0-0.5,0-0.8,0l-0.1,0l0,0l0,0l-0.5,0l0.8-14.5l0.5,0l0,0l0,0l0.1,0c0.3,0,0.5,0,0.8,0l0.1,0l0,0l0,0c0.3,0,0.5,0,0.8,0
			l0.1,0l0,0l0,0l0.1,0l0.1,0c0.3,0,0.5,0,0.8,0L887.6,160.8L887.6,160.8L887.6,160.8z"/>
		<path id="XMLID_172_" class="st61" d="M884.3,160.7l-0.8,14.5l-0.4,0l0,0l0,0c-0.3,0-0.5,0-0.8,0l-0.1,0l0,0h0c-0.3,0-0.5,0-0.8,0
			l-0.1,0h0l0,0l-0.1,0c-0.3,0-0.5,0-0.8,0h0l0,0l0,0c-0.2,0-0.5,0-0.7,0l0.8-14.5c0.2,0,0.5,0,0.7,0l0,0l0,0h0c0.3,0,0.5,0,0.8,0
			l0.1,0l0,0h0h0c0.3,0,0.6,0,0.8,0h0h0c0.3,0,0.6,0,0.8,0l0,0l0,0L884.3,160.7z"/>
		<path id="XMLID_171_" class="st61" d="M880.5,160.7l-0.8,14.5l-0.1,0l0,0c-0.3,0-0.5,0-0.8,0l-0.1,0l0,0l-0.1,0
			c-0.2,0-0.5,0-0.7,0l-0.1,0l0,0l0,0c-0.6,0-1.1,0.1-1.7,0.1l0,0c-0.3,0-0.5,0-0.8,0.1l0,0l0,0l-0.6,0l0.8-14.5l0.6,0l0,0l0,0
			c0.3,0,0.5,0,0.8-0.1l0,0l0,0l0.1,0c0.3,0,0.5,0,0.8-0.1l0,0l0.1,0c0.3,0,0.5,0,0.8,0l0,0l0,0l0.1,0c0.2,0,0.5,0,0.7,0l0.1,0l0,0
			l0.1,0c0.3,0,0.5,0,0.8,0l0,0L880.5,160.7z"/>
	</g>
	<g id="XMLID_168_">
		<polygon id="XMLID_169_" class="st61" points="979.6,208 978.8,222.5 916,183.1 916.8,168.6 		"/>
	</g>
	<g id="XMLID_166_">
		<polygon id="XMLID_167_" class="st61" points="1808.9,31.8 1808,46.3 1099.9,236.4 1100.7,221.8 		"/>
	</g>
	<g id="XMLID_164_">
		<path id="XMLID_165_" class="st61" d="M1100.7,221.8l-0.8,14.5c-38.9,9.9-93.2,3.7-121.1-13.9l0.8-14.5
			C1007.5,225.6,1061.8,231.8,1100.7,221.8z"/>
	</g>
	<g id="XMLID_155_">
		<path id="XMLID_163_" class="st61" d="M1100.7,221.8l-0.8,14.5c-0.6,0.2-1.2,0.3-1.8,0.5l0,0c-0.6,0.1-1.2,0.3-1.8,0.4l-0.1,0
			c-0.6,0.1-1.2,0.3-1.8,0.4l-0.1,0c-0.6,0.1-1.2,0.3-1.8,0.4l0,0c-0.6,0.1-1.2,0.2-1.9,0.4l0,0l0,0c-0.6,0.1-1.2,0.2-1.9,0.3
			l-0.1,0l0,0c-0.6,0.1-1.3,0.2-1.9,0.3l-0.1,0c-0.6,0.1-1.3,0.2-1.9,0.3l-0.1,0c-0.6,0.1-1.3,0.2-1.9,0.3l0,0
			c-0.7,0.1-1.3,0.2-2,0.2l0,0l0,0c-0.6,0.1-1.3,0.1-1.9,0.2l0,0l0,0c-0.7,0.1-1.3,0.1-2,0.2l-0.1,0c-0.2,0-0.4,0-0.6,0.1l0.8-14.5
			l0.6-0.1l0.1,0c0.7-0.1,1.3-0.1,2-0.2l0,0l0,0c0.6-0.1,1.3-0.1,1.9-0.2l0,0l0,0c0.6-0.1,1.3-0.2,1.9-0.2l0.1,0
			c0.6-0.1,1.3-0.2,1.9-0.3l0.1,0c2-0.3,3.9-0.6,5.8-0.9l0,0l0,0c0.6-0.1,1.3-0.2,1.9-0.4l0,0c0.6-0.1,1.2-0.2,1.8-0.4l0.1,0
			c0.6-0.1,1.2-0.3,1.8-0.4l0,0c0.6-0.1,1.2-0.3,1.8-0.4l0,0C1099.5,222.1,1100.1,222,1100.7,221.8z"/>
		<path id="XMLID_162_" class="st61" d="M1076.8,225.8l-0.8,14.5c-0.4,0-0.9,0.1-1.3,0.1l-0.1,0c-0.6,0.1-1.3,0.1-1.9,0.1l-0.1,0
			l-0.1,0c-0.6,0-1.3,0.1-1.9,0.1l-0.1,0l0,0c-0.7,0-1.3,0.1-2,0.1l-0.1,0l0,0c-0.7,0-1.3,0.1-2,0.1l0,0l0,0c-0.7,0-1.3,0-2,0.1l0,0
			l0,0l-0.3,0l0.8-14.5l0.3,0l0,0l0,0c0.7,0,1.3,0,2-0.1l0,0l0,0c2.7-0.1,5.5-0.3,8.2-0.5l0,0
			C1075.9,225.9,1076.3,225.8,1076.8,225.8z"/>
		<path id="XMLID_161_" class="st61" d="M1064.8,226.5L1064,241c-0.6,0-1.1,0-1.7,0l-0.1,0h0c-0.7,0-1.3,0-2,0l-0.1,0l-0.1,0
			c-0.7,0-1.3,0-2,0h-0.1l-0.1,0c-0.7,0-1.3,0-2,0l0,0l0,0c-0.3,0-0.6,0-0.9,0l0.8-14.5l0.9,0l0,0l0,0l0,0c2.1,0,4.1,0,6.2,0h0
			l0.1,0C1063.7,226.5,1064.3,226.5,1064.8,226.5z"/>
		<path id="XMLID_160_" class="st61" d="M1041.3,225.7l-0.8,14.5c-1.7-0.2-3.5-0.3-5.2-0.5l-0.1,0l0,0c-0.4-0.1-0.9-0.1-1.3-0.2
			l0.8-14.5c1.1,0.1,2.3,0.3,3.4,0.4l0,0l0,0c0.7,0.1,1.4,0.1,2,0.2l0,0l0,0C1040.5,225.7,1040.9,225.7,1041.3,225.7z"/>
		<path id="XMLID_159_" class="st61" d="M1034.6,225.1l-0.8,14.5l-0.6-0.1l-0.1,0l0,0c-0.7-0.1-1.3-0.2-2-0.3l0,0l0,0l0,0
			c-0.7-0.1-1.3-0.2-2-0.3l0,0l-0.1,0c-0.5-0.1-1.1-0.2-1.6-0.2l0.8-14.5c0.5,0.1,1.1,0.2,1.6,0.2l0.1,0l0,0c0.6,0.1,1.3,0.2,2,0.3
			l0,0l0,0l0,0c0.7,0.1,1.3,0.2,2,0.3l0,0l0.1,0L1034.6,225.1z"/>
		<path id="XMLID_158_" class="st61" d="M1022,223.1l-0.8,14.5l-0.1,0l-0.1,0l0,0c-0.7-0.1-1.3-0.2-1.9-0.4l0,0l0,0l0,0
			c-0.6-0.1-1.3-0.3-1.9-0.4l0,0l0,0c-0.6-0.1-1.3-0.3-1.9-0.4l-0.1,0l0,0l-0.1,0l0.8-14.5l0.1,0l0,0l0.1,0c0.6,0.1,1.2,0.3,1.8,0.4
			l0.1,0l0,0l0,0c0.6,0.1,1.3,0.3,1.9,0.4l0,0l0,0l0,0c0.6,0.1,1.3,0.2,1.9,0.4l0,0L1022,223.1L1022,223.1z"/>
		<path id="XMLID_157_" class="st61" d="M1009.7,220.3l-0.8,14.5c-0.4-0.1-0.8-0.2-1.2-0.3l0,0l0,0c-1.2-0.3-2.4-0.7-3.6-1l0,0l0,0
			l0,0c-0.5-0.1-1-0.3-1.5-0.4l0.8-14.5c0.5,0.2,1,0.3,1.5,0.5l0,0c0.6,0.2,1.2,0.4,1.8,0.5l0,0l0.1,0c0.6,0.2,1.2,0.3,1.8,0.5l0,0
			C1008.9,220.1,1009.3,220.2,1009.7,220.3z"/>
		<path id="XMLID_156_" class="st61" d="M988.9,213l-0.8,14.5c-0.3-0.1-0.5-0.2-0.8-0.4l0,0l0,0c-0.5-0.2-1-0.5-1.5-0.7l0,0l0,0l0,0
			c-0.5-0.2-1-0.5-1.5-0.7l0,0c-1.5-0.8-2.9-1.5-4.2-2.3h0c-0.4-0.3-0.9-0.5-1.3-0.8l0.8-14.5c2.2,1.4,4.5,2.7,7,3.9l0,0l0,0
			C987.3,212.3,988.1,212.6,988.9,213z"/>
	</g>
	<g id="XMLID_153_">
		<polygon id="XMLID_154_" class="st61" points="865.2,162.7 864.4,177.2 645.3,233 646.1,218.5 		"/>
	</g>
	<g id="XMLID_151_">
		<path id="XMLID_152_" class="st61" d="M629.9,244.5l0.8-14.5c0.3-4.7,5.6-9,15.4-11.5l-0.8,14.5
			C635.5,235.5,630.2,239.8,629.9,244.5z"/>
	</g>
	<g id="XMLID_125_">
		<polygon id="XMLID_150_" class="st61" points="646.1,218.5 645.3,233 645.3,233 644.9,233.1 644.9,233.1 644.8,233.1 644.8,233.1 
			644.8,233.1 644.4,233.2 644.4,233.2 644.4,233.2 644,233.3 644,233.4 644,233.4 643.9,233.4 643.9,233.4 643.9,233.4 
			643.6,233.5 643.6,233.5 643.5,233.5 643.5,233.5 643.5,233.5 643.5,233.5 643.4,233.5 643.2,233.6 643.1,233.6 643.1,233.6 
			643.1,233.6 643.1,233.6 643.9,219.1 643.9,219.1 643.9,219.1 643.9,219.1 644.3,219 644.3,219 644.3,219 644.3,219 644.4,219 
			644.4,218.9 644.7,218.9 644.7,218.9 644.7,218.8 644.8,218.8 644.8,218.8 644.8,218.8 645.2,218.7 645.2,218.7 645.2,218.7 
			645.6,218.6 645.6,218.6 645.7,218.6 645.7,218.6 645.7,218.6 646.1,218.5 		"/>
		<polygon id="XMLID_149_" class="st61" points="643.9,219.1 643.1,233.6 643,233.6 642.7,233.7 642.7,233.7 642.6,233.8 
			642.4,233.8 642.3,233.9 642.2,233.9 642.2,233.9 642.2,233.9 641.9,234 641.8,234 641.8,234 641.8,234 641.5,234.1 641.4,234.2 
			641.4,234.2 641.1,234.3 641,234.3 641,234.3 641,234.3 640.7,234.4 640.7,234.4 640.6,234.4 640.6,234.5 640.5,234.5 
			640.3,234.6 640.2,234.6 640,234.7 639.9,234.7 639.9,234.7 639.6,234.8 639.6,234.9 639.5,234.9 639.5,234.9 639.3,235 
			639.2,235 639.2,235 639.2,235 640,220.5 640,220.5 640,220.5 640.1,220.5 640.3,220.4 640.3,220.4 640.4,220.3 640.4,220.3 
			640.5,220.3 640.6,220.3 640.6,220.2 640.7,220.2 640.7,220.2 640.8,220.2 640.8,220.2 641,220.1 641.1,220.1 641.1,220.1 
			641.1,220 641.2,220 641.2,220 641.4,220 641.4,219.9 641.5,219.9 641.5,219.9 641.5,219.9 641.8,219.8 641.8,219.8 641.8,219.8 
			641.9,219.8 642.1,219.7 642.2,219.6 642.2,219.6 642.3,219.6 642.3,219.6 642.6,219.5 642.6,219.5 642.6,219.5 642.7,219.5 
			643,219.4 643,219.4 643.1,219.4 643.1,219.3 643.2,219.3 643.4,219.2 643.5,219.2 643.5,219.2 643.8,219.1 		"/>
		<path id="XMLID_131_" class="st61" d="M640,220.5l-0.8,14.5l0,0l-0.3,0.1l0,0l0,0l-0.3,0.1l0,0l0,0l0,0l-0.3,0.1l0,0l0,0l0,0
			l-0.3,0.1l0,0l0,0l-0.3,0.1l0,0l0,0l0,0l-0.3,0.1l0,0l0,0l0,0l0,0l-0.3,0.1l0,0l0,0l0,0l-0.1,0l0.8-14.5l0.1,0l0,0
			c0.2-0.1,0.4-0.2,0.6-0.3l0,0l0,0l0.3-0.1l0,0l0,0l0,0l0.3-0.1l0,0l0,0l0.3-0.2l0,0l0,0l0.2-0.1l0,0l0,0l0,0l0,0l0,0l0,0
			L640,220.5L640,220.5z"/>
		<path id="XMLID_130_" class="st61" d="M637.5,221.7l-0.8,14.5l-0.2,0.1l0,0l0,0l0,0c-0.1,0.1-0.2,0.1-0.3,0.2l0,0l-0.3,0.1l0,0
			l0,0l0,0l-0.2,0.1l0,0l0,0l0,0l0,0l-0.2,0.1l0,0l0,0l0,0l0,0l-0.2,0.2l0,0l0,0l-0.1,0.1l0.8-14.5l0.1-0.1l0,0l0,0l0,0l0,0l0.2-0.1
			l0,0l0.2-0.1l0,0l0,0l0,0l0,0l0,0l0,0l0.2-0.1l0,0l0,0l0,0l0,0l0,0l0.2-0.1l0,0l0,0l0,0l0.3-0.1l0,0l0,0L637.5,221.7z"/>
		<path id="XMLID_129_" class="st61" d="M635.7,222.8l-0.8,14.5l-0.1,0.1l0,0l0,0l-0.2,0.1l0,0l0,0l0,0l0,0
			c-0.1,0.1-0.1,0.1-0.2,0.2l0,0l0,0l0,0l-0.2,0.1l0,0l0,0l0,0l-0.2,0.1l0,0l0,0l0,0l-0.2,0.2l0,0l0,0l0,0l0,0l0.8-14.5l0,0l0,0l0,0
			l0,0c0.1-0.1,0.1-0.1,0.2-0.2l0,0l0,0l0,0l0.2-0.1l0,0l0,0l0,0l0.2-0.1l0,0l0,0l0,0l0,0l0.2-0.1l0,0l0,0l0,0l0.2-0.1l0,0h0
			L635.7,222.8z"/>
		<path id="XMLID_128_" class="st61" d="M634.3,223.8l-0.8,14.5l-0.2,0.2l0,0l0,0l-0.2,0.2l0,0l0,0c-0.1,0.1-0.1,0.1-0.2,0.2l0,0
			c-0.1,0.1-0.1,0.1-0.2,0.2l0,0l0,0c-0.1,0.1-0.1,0.1-0.2,0.2l0,0l0,0l0,0l-0.1,0.1l0.8-14.5l0.1-0.1l0,0l0,0l0,0l0.2-0.2l0,0l0,0
			l0,0l0,0l0.2-0.2l0,0l0,0c0.1-0.1,0.1-0.1,0.2-0.2l0,0l0,0l0.2-0.2l0,0l0,0L634.3,223.8z"/>
		<path id="XMLID_127_" class="st61" d="M632.3,225.9l-0.8,14.5l0,0l0,0l0,0l0,0l0,0l-0.1,0.1l0,0l0,0l0,0l0,0
			c0,0.1-0.1,0.1-0.1,0.2l0,0l0,0c0,0.1-0.1,0.1-0.1,0.2l0,0l0,0c0,0.1-0.1,0.1-0.1,0.2l0,0l0,0l0,0l0,0l-0.1,0.2l0,0l0,0l0,0l0,0
			l0.8-14.5l0,0l0,0c0-0.1,0.1-0.1,0.1-0.2l0,0l0,0l0.1-0.2l0,0l0,0c0-0.1,0.1-0.1,0.1-0.2l0,0l0,0l0.1-0.2l0,0l0,0l0,0
			C632.2,226.1,632.2,226,632.3,225.9L632.3,225.9L632.3,225.9z"/>
		<path id="XMLID_126_" class="st61" d="M631.1,228.1l-0.8,14.5l0,0.1l0,0l0,0c0,0.1,0,0.1-0.1,0.2l0,0l0,0l0,0l0,0.2l0,0l0,0l0,0
			l0,0c0,0.1,0,0.1,0,0.2l0,0l0,0l0,0l0,0c0,0.1,0,0.1,0,0.2l0,0l0,0l0,0c0,0.1,0,0.1,0,0.2l0,0l0,0l0,0l0.8-14.5l0,0l0,0l0,0l0,0
			c0-0.1,0-0.1,0-0.2l0,0l0,0l0,0l0-0.2l0,0l0,0c0-0.1,0-0.1,0-0.2l0,0l0,0l0,0l0,0c0-0.1,0-0.1,0-0.2l0,0l0,0l0,0
			c0-0.1,0-0.1,0.1-0.2l0,0L631.1,228.1L631.1,228.1z"/>
	</g>
	<path id="XMLID_124_" class="st61" d="M724.5,356.5L545.6,244.1c-4.3-2.7-7.7-5.5-10.3-8.3c-1.3-1.4-2.4-2.9-3.2-4.3
		c-0.3-0.5-0.6-1-0.8-1.4c-0.7-1.4-1.3-2.9-1.6-4.3c-0.1-0.5-0.2-1-0.3-1.4c-0.1-0.5-0.1-1-0.1-1.4c0-0.5,0-1,0-1.4l-0.8,14.5
		c-0.4,7.6,4.9,15.6,16.3,22.7L723.7,371c3,1.9,5.1,4,6.1,6c0.5,1,0.8,2.1,0.8,3.1c0,0.2,0,0.4,0,0.6l0.8-14.5
		C731.6,362.9,729.4,359.5,724.5,356.5z"/>
	<path id="XMLID_222_" class="st61" d="M796.7,401.8L51.4,609.5L50.6,624l745.3-207.6c23-5.9,35.5-16,36.1-27l0.8-14.5
		C832.3,385.8,819.8,396,796.7,401.8z"/>
	<g id="XMLID_120_">
		<path id="XMLID_121_" class="st61" d="M830.8,381.8l-0.8,14.5c-0.2,0.3-0.4,0.7-0.6,1l0,0c-0.1,0.2-0.2,0.3-0.3,0.5l0,0
			c-0.2,0.3-0.5,0.7-0.7,1l0.8-14.5l0.1-0.1l0,0c0.1-0.2,0.2-0.3,0.3-0.5l0,0c0.1-0.2,0.2-0.3,0.3-0.5l0,0l0,0l0,0
			c0.1-0.2,0.2-0.3,0.3-0.5l0,0v0C830.4,382.5,830.6,382.1,830.8,381.8z"/>
	</g>
	<g id="XMLID_118_">
		<polygon id="XMLID_119_" class="st61" points="51.4,609.5 50.6,624 0,592.2 0.8,577.7 		"/>
	</g>
	<path id="XMLID_117_" class="st62" d="M844.6,123.2c38.9-9.9,93.2-3.7,121.1,13.9l49.7,31.2c19.1,12,56.1,16.2,82.7,9.5L1758.2,0
		l50.6,31.8l-708.1,190c-38.9,9.9-93.2,3.7-121.1-13.9l-62.7-39.4c-11.9-7.5-35-10.1-51.6-5.9l-219.1,55.8
		c-16.6,4.2-20.4,13.7-8.5,21.2l178.9,112.4c28,17.6,19.1,39.8-19.9,49.8L51.4,609.5L0.8,577.7l715.3-200
		c16.6-4.2,20.4-13.7,8.5-21.2L545.6,244.1c-28-17.6-19.1-39.8,19.9-49.8L844.6,123.2z"/>
	<path id="XMLID_232_" class="st63" d="M8.3,578.8l708.5-198.3c10.4-2.6,16.6-7.4,17.5-13.3c0.4-2.8-0.1-8.2-8.2-13.3L547.2,241.5
		c-10.6-6.7-15.9-14.2-14.8-21.3c1.5-9.4,14.1-18.1,33.8-23.1l279.2-71.1c11.9-3,25.9-4.6,40.4-4.6c30.6,0,60.6,6.9,78.4,18.1
		l49.7,31.2c12.9,8.1,34.5,13.1,56.2,13.1c10.3,0,20.3-1.1,28.8-3.3L1757.7,3.2l43.6,27.4L1100,218.9c-11.9,3-25.9,4.6-40.4,4.6
		c-30.6,0-60.6-6.9-78.4-18.1L918.4,166c-8.2-5.2-21.9-8.4-35.7-8.4c-6.5,0-12.8,0.7-18.2,2.1l-219.1,55.8
		c-10.4,2.6-16.6,7.4-17.5,13.3c-0.4,2.8,0.1,8.2,8.2,13.3L815,354.6c10.6,6.7,15.9,14.2,14.8,21.3c-1.5,9.4-14.1,18.1-33.8,23.1
		l-744,207.3L8.3,578.8z"/>
</g>
</svg>
