<?xml version="1.0" encoding="utf-8"?>
<!-- Generator: Adobe Illustrator 21.0.1, SVG Export Plug-In . SVG Version: 6.00 Build 0)  -->
<svg version="1.1" id="Слой_1" xmlns="http://www.w3.org/2000/svg" xmlns:xlink="http://www.w3.org/1999/xlink" x="0px" y="0px"
	 viewBox="0 0 47.9 29.9" style="enable-background:new 0 0 47.9 29.9;" xml:space="preserve">
<style type="text/css">
	.st0{enable-background:new    ;}
	.st1{clip-path:url(#SVGID_1_);enable-background:new    ;}
	.st2{fill:#7F7930;}
	.st3{fill:#837D32;}
	.st4{fill:#888133;}
	.st5{fill:#8C8535;}
	.st6{fill:#918937;}
	.st7{fill:#958D38;}
	.st8{fill:#99923A;}
	.st9{fill:#9E963C;}
	.st10{fill:#7B742E;}
	.st11{fill:#76702D;}
	.st12{fill:#726C2B;}
	.st13{clip-path:url(#SVGID_3_);enable-background:new    ;}
	.st14{fill:#AFA642;}
	.st15{fill:#ABA241;}
	.st16{fill:#B4AB44;}
	.st17{fill:#B8AF46;}
	.st18{clip-path:url(#SVGID_5_);enable-background:new    ;}
	.st19{fill:#BDB348;}
	.st20{clip-path:url(#SVGID_7_);enable-background:new    ;}
</style>
<g>
	<g class="st0">
		<g class="st0">
			<defs>
				<path id="SVGID_8_" class="st0" d="M43.9,15.9l0,1.6c0,2.9-1.9,5.9-5.8,8.1c-7.8,4.5-20.4,4.5-28.2,0C6,23.3,4,20.3,4,17.3
					l0-1.6c0,3,2,6,5.9,8.2c7.8,4.5,20.4,4.5,28.2,0C41.9,21.8,43.9,18.8,43.9,15.9z"/>
			</defs>
			<clipPath id="SVGID_1_">
				<use xlink:href="#SVGID_8_"  style="overflow:visible;"/>
			</clipPath>
			<g class="st1">
				<path class="st2" d="M43.9,15.9l0,1.6c0,0.1,0,0.1,0,0.2l0-1.6C43.9,16,43.9,15.9,43.9,15.9"/>
				<path class="st3" d="M43.9,16.1l0,1.6c0,0.4-0.1,0.8-0.1,1.1l0-1.6C43.8,16.8,43.9,16.4,43.9,16.1"/>
				<path class="st4" d="M43.7,17.2l0,1.6c-0.1,0.4-0.2,0.8-0.3,1.1l0-1.6C43.6,18,43.7,17.6,43.7,17.2"/>
				<path class="st5" d="M43.4,18.3l0,1.6c-0.1,0.4-0.3,0.8-0.5,1.1l0-1.6C43.1,19.1,43.3,18.7,43.4,18.3"/>
				<path class="st6" d="M42.9,19.5l0,1.6c-0.2,0.4-0.5,0.8-0.8,1.2l0-1.6C42.4,20.3,42.7,19.9,42.9,19.5"/>
				<path class="st7" d="M42.1,20.6l0,1.6c-0.4,0.5-0.8,0.9-1.2,1.3l0-1.6C41.3,21.5,41.7,21.1,42.1,20.6"/>
				<path class="st8" d="M40.9,22l0,1.6c-0.7,0.7-1.6,1.3-2.5,1.9l0-1.6C39.3,23.3,40.1,22.6,40.9,22"/>
				<path class="st9" d="M38.3,23.8l0,1.6c-0.1,0-0.2,0.1-0.2,0.1c-1.3,0.8-2.8,1.4-4.4,1.9l0-1.6c1.6-0.5,3-1.1,4.4-1.9
					C38.2,23.9,38.2,23.9,38.3,23.8"/>
				<path class="st8" d="M33.7,25.9l0,1.6c-1.2,0.4-2.5,0.7-3.8,0.9l0-1.6C31.2,26.6,32.5,26.3,33.7,25.9"/>
				<path class="st7" d="M29.9,26.9l0,1.6c-0.8,0.2-1.7,0.3-2.5,0.4l0-1.6C28.3,27.1,29.1,27,29.9,26.9"/>
				<path class="st6" d="M27.4,27.2l0,1.6c-0.7,0.1-1.5,0.1-2.2,0.1l0-1.6C25.9,27.3,26.7,27.3,27.4,27.2"/>
				<path class="st5" d="M25.2,27.4l0,1.6c-0.7,0-1.4,0-2,0l0-1.6C23.8,27.4,24.5,27.4,25.2,27.4"/>
				<path class="st4" d="M23.1,27.4l0,1.6c-0.7,0-1.3-0.1-2-0.1l0-1.6C21.8,27.3,22.5,27.3,23.1,27.4"/>
				<path class="st3" d="M21.2,27.3l0,1.6c-0.7-0.1-1.3-0.1-1.9-0.2l0-1.6C19.9,27.1,20.5,27.2,21.2,27.3"/>
				<path class="st2" d="M19.2,27l0,1.6c-0.7-0.1-1.3-0.2-2-0.3l0-1.6C17.9,26.8,18.6,26.9,19.2,27"/>
				<path class="st10" d="M17.3,26.7l0,1.6c-0.7-0.1-1.4-0.3-2.1-0.5l0-1.6C15.9,26.4,16.6,26.5,17.3,26.7"/>
				<path class="st11" d="M15.2,26.2l0,1.6c-0.8-0.2-1.6-0.5-2.4-0.8l0-1.6C13.5,25.7,14.4,25.9,15.2,26.2"/>
				<path class="st12" d="M12.8,25.4l0,1.6c-1-0.4-2-0.9-2.9-1.4C6,23.3,4,20.3,4,17.3l0-1.6c0,3,2,6,5.9,8.2
					C10.8,24.5,11.7,25,12.8,25.4"/>
			</g>
		</g>
		<g class="st0">
			<defs>
				<path id="SVGID_6_" class="st0" d="M38,5.9l2.8-1.9c9.4,5.4,9.4,14.2,0.1,19.6c-9.3,5.4-24.5,5.4-33.9,0S-2.4,9.5,7,4.1
					c9.3-5.4,24.5-5.4,33.9,0L38,5.9c-7.8-4.5-20.4-4.5-28.2,0C2,10.4,2.1,17.7,9.9,22.3c7.8,4.5,20.4,4.5,28.2,0
					C45.9,17.7,45.8,10.4,38,5.9z"/>
			</defs>
			<clipPath id="SVGID_3_">
				<use xlink:href="#SVGID_6_"  style="overflow:visible;"/>
			</clipPath>
			<g class="st13">
				<path class="st14" d="M38,5.9l2.8-1.9c3.4,2,5.6,4.4,6.5,6.9l-3.9,0.7C42.6,9.5,40.8,7.5,38,5.9"/>
				<path class="st15" d="M43.4,11.6l3.9-0.7c1.7,4.4-0.5,9.3-6.4,12.7c-7.5,4.4-18.8,5.2-27.8,2.5l1.8-1.8
					c7.5,2.2,16.9,1.5,23.2-2.1C43,19.4,44.8,15.4,43.4,11.6"/>
				<path class="st14" d="M14.9,24.4l-1.8,1.8c-2.2-0.6-4.2-1.5-6.1-2.5c-1.8-1-3.3-2.2-4.4-3.5l3.6-0.8c0.9,1,2.1,2,3.7,2.9
					C11.4,23.1,13.1,23.8,14.9,24.4"/>
				<path class="st16" d="M6.2,19.4l-3.6,0.8c-2.6-2.9-3.3-6.2-2.1-9.4l3.9,0.7C3.5,14.2,4.1,17,6.2,19.4"/>
				<path class="st17" d="M4.5,11.6l-3.9-0.7C1.5,8.4,3.6,6,7,4.1c4.9-2.9,11.5-4.2,18-4l-0.2,2.5c-5.4-0.1-10.9,1-15,3.4
					C7,7.5,5.3,9.5,4.5,11.6"/>
				<path class="st16" d="M24.8,2.6L25,0c5.4,0.1,10.7,1.3,14.9,3.6l-2.7,1.9C33.7,3.7,29.3,2.7,24.8,2.6"/>
				<path class="st14" d="M37.3,5.5l2.7-1.9c0.3,0.2,0.6,0.3,0.9,0.5L38,5.9C37.8,5.8,37.5,5.6,37.3,5.5"/>
			</g>
		</g>
		<g class="st0">
			<defs>
				<path id="SVGID_4_" class="st0" d="M43.9,12.6l0,1.6c0,2.9-1.9,5.9-5.8,8.1c-7.8,4.5-20.4,4.5-28.2,0C6,20,4,17,4,14l0-1.6
					c0,3,2,6,5.9,8.2c7.8,4.5,20.4,4.5,28.2,0C42,18.4,43.9,15.5,43.9,12.6z"/>
			</defs>
			<clipPath id="SVGID_5_">
				<use xlink:href="#SVGID_4_"  style="overflow:visible;"/>
			</clipPath>
			<g class="st18">
				<path class="st2" d="M43.9,12.6l0,1.6c0,0.1,0,0.1,0,0.2l0-1.6C43.9,12.7,43.9,12.6,43.9,12.6"/>
				<path class="st3" d="M43.9,12.7l0,1.6c0,0.4-0.1,0.8-0.1,1.1l0-1.6C43.8,13.5,43.9,13.1,43.9,12.7"/>
				<path class="st4" d="M43.8,13.9l0,1.6c-0.1,0.4-0.2,0.8-0.3,1.1l0-1.6C43.6,14.6,43.7,14.3,43.8,13.9"/>
				<path class="st5" d="M43.4,15l0,1.6c-0.1,0.4-0.3,0.8-0.5,1.1l0-1.6C43.1,15.8,43.3,15.4,43.4,15"/>
				<path class="st6" d="M42.9,16.1l0,1.6c-0.2,0.4-0.5,0.8-0.8,1.2l0-1.6C42.4,16.9,42.7,16.5,42.9,16.1"/>
				<path class="st7" d="M42.1,17.3l0,1.6c-0.4,0.5-0.8,0.9-1.2,1.3l0-1.6C41.3,18.2,41.7,17.8,42.1,17.3"/>
				<path class="st8" d="M40.9,18.7l0,1.6c-0.7,0.7-1.6,1.3-2.5,1.9l0-1.6C39.3,20,40.1,19.3,40.9,18.7"/>
				<path class="st9" d="M38.3,20.5l0,1.6c-0.1,0-0.2,0.1-0.2,0.1c-1.3,0.8-2.8,1.4-4.4,1.9l0-1.6c1.6-0.5,3-1.1,4.4-1.9
					C38.2,20.6,38.3,20.6,38.3,20.5"/>
				<path class="st8" d="M33.7,22.6l0,1.6c-1.2,0.4-2.5,0.7-3.8,0.9l0-1.6C31.3,23.3,32.5,23,33.7,22.6"/>
				<path class="st7" d="M30,23.5l0,1.6c-0.8,0.2-1.7,0.3-2.5,0.4l0-1.6C28.3,23.8,29.1,23.7,30,23.5"/>
				<path class="st6" d="M27.4,23.9l0,1.6c-0.7,0.1-1.5,0.1-2.2,0.1l0-1.6C25.9,24,26.7,24,27.4,23.9"/>
				<path class="st5" d="M25.2,24l0,1.6c-0.7,0-1.4,0-2,0l0-1.6C23.8,24.1,24.5,24.1,25.2,24"/>
				<path class="st4" d="M23.2,24l0,1.6c-0.7,0-1.3-0.1-2-0.1l0-1.6C21.8,24,22.5,24,23.2,24"/>
				<path class="st3" d="M21.2,23.9l0,1.6c-0.7-0.1-1.3-0.1-1.9-0.2l0-1.6C19.9,23.8,20.5,23.9,21.2,23.9"/>
				<path class="st2" d="M19.2,23.7l0,1.6c-0.7-0.1-1.3-0.2-2-0.3l0-1.6C17.9,23.5,18.6,23.6,19.2,23.7"/>
				<path class="st10" d="M17.3,23.4l0,1.6c-0.7-0.1-1.4-0.3-2.1-0.5l0-1.6C15.9,23.1,16.6,23.2,17.3,23.4"/>
				<path class="st11" d="M15.2,22.9l0,1.6c-0.8-0.2-1.6-0.5-2.4-0.8l0-1.6C13.6,22.4,14.4,22.6,15.2,22.9"/>
				<path class="st12" d="M12.8,22.1l0,1.6c-1-0.4-2-0.9-2.9-1.4C6,20,4,17,4,14l0-1.6c0,3,2,6,5.9,8.2
					C10.8,21.2,11.8,21.7,12.8,22.1"/>
			</g>
		</g>
		<g>
			<path class="st19" d="M38,4.3c7.8,4.5,7.9,11.8,0.1,16.3c-7.8,4.5-20.4,4.5-28.2,0C2.1,16.2,2,8.9,9.8,4.3
				C17.6-0.2,30.2-0.2,38,4.3z"/>
		</g>
		<g class="st0">
			<defs>
				<path id="SVGID_2_" class="st0" d="M47.9,13.9l0,2.2c0,3.5-2.3,7-7,9.7c-9.3,5.4-24.5,5.4-33.9,0C2.3,23.1,0,19.5,0,16l0-2.2
					c0,3.6,2.3,7.1,7.1,9.9c9.4,5.4,24.5,5.4,33.9,0C45.6,21,47.9,17.5,47.9,13.9z"/>
			</defs>
			<clipPath id="SVGID_7_">
				<use xlink:href="#SVGID_2_"  style="overflow:visible;"/>
			</clipPath>
			<g class="st20">
				<path class="st2" d="M47.9,13.9l0,2.2c0,0.1,0,0.1,0,0.2l0-2.2C47.9,14.1,47.9,14,47.9,13.9"/>
				<path class="st3" d="M47.9,14.1l0,2.2c0,0.5-0.1,0.9-0.2,1.4l0-2.2C47.8,15.1,47.9,14.6,47.9,14.1"/>
				<path class="st4" d="M47.7,15.5l0,2.2c-0.1,0.5-0.2,0.9-0.4,1.3l0-2.2C47.5,16.4,47.6,16,47.7,15.5"/>
				<path class="st5" d="M47.3,16.9l0,2.2c-0.2,0.5-0.4,0.9-0.6,1.4l0-2.2C47,17.8,47.2,17.3,47.3,16.9"/>
				<path class="st6" d="M46.7,18.2l0,2.2c-0.3,0.5-0.6,1-1,1.4l0-2.2C46.1,19.2,46.4,18.7,46.7,18.2"/>
				<path class="st7" d="M45.7,19.7l0,2.2c-0.4,0.5-0.9,1.1-1.5,1.6l0-2.2C44.8,20.7,45.3,20.2,45.7,19.7"/>
				<path class="st8" d="M44.3,21.3l0,2.2c-0.9,0.8-1.9,1.5-3,2.2l0-2.2C42.4,22.8,43.4,22,44.3,21.3"/>
				<path class="st9" d="M41.2,23.5l0,2.2c-0.1,0.1-0.2,0.1-0.3,0.2c-1.6,0.9-3.4,1.7-5.2,2.3l0-2.2c1.9-0.6,3.6-1.4,5.2-2.3
					C41,23.6,41.1,23.6,41.2,23.5"/>
				<path class="st8" d="M35.7,26l0,2.2c-1.5,0.5-3,0.8-4.5,1.1l0-2.2C32.7,26.8,34.2,26.4,35.7,26"/>
				<path class="st7" d="M31.2,27.1l0,2.2c-1,0.2-2,0.3-3.1,0.4l0-2.2C29.1,27.4,30.1,27.3,31.2,27.1"/>
				<path class="st6" d="M28.1,27.5l0,2.2c-0.9,0.1-1.8,0.1-2.7,0.2l0-2.2C26.3,27.7,27.2,27.6,28.1,27.5"/>
				<path class="st5" d="M25.4,27.7l0,2.2c-0.8,0-1.6,0-2.5,0l0-2.2C23.8,27.7,24.6,27.7,25.4,27.7"/>
				<path class="st4" d="M23,27.7l0,2.2c-0.8,0-1.6-0.1-2.4-0.1l0-2.2C21.4,27.7,22.2,27.7,23,27.7"/>
				<path class="st3" d="M20.6,27.6l0,2.2c-0.8-0.1-1.6-0.2-2.3-0.3l0-2.2C19.1,27.4,19.9,27.5,20.6,27.6"/>
				<path class="st2" d="M18.3,27.3l0,2.2c-0.8-0.1-1.6-0.3-2.4-0.4l0-2.2C16.7,27.1,17.5,27.2,18.3,27.3"/>
				<path class="st10" d="M15.9,26.9l0,2.2c-0.8-0.2-1.7-0.4-2.5-0.6l0-2.2C14.2,26.5,15.1,26.7,15.9,26.9"/>
				<path class="st11" d="M13.4,26.3l0,2.2c-1-0.3-2-0.6-2.9-1l0-2.2C11.5,25.7,12.4,26,13.4,26.3"/>
				<path class="st12" d="M10.5,25.3l0,2.2c-1.2-0.5-2.4-1-3.5-1.7C2.3,23.1,0,19.5,0,16l0-2.2c0,3.6,2.3,7.1,7.1,9.9
					C8.2,24.3,9.3,24.8,10.5,25.3"/>
			</g>
		</g>
	</g>
</g>
<g>
</g>
<g>
</g>
<g>
</g>
<g>
</g>
<g>
</g>
<g>
</g>
<g>
</g>
<g>
</g>
<g>
</g>
<g>
</g>
<g>
</g>
<g>
</g>
<g>
</g>
<g>
</g>
<g>
</g>
</svg>
