<?xml version="1.0" encoding="utf-8"?>
<!-- Generator: Adobe Illustrator 21.0.1, SVG Export Plug-In . SVG Version: 6.00 Build 0)  -->
<svg version="1.1" id="Слой_1" xmlns="http://www.w3.org/2000/svg" xmlns:xlink="http://www.w3.org/1999/xlink" x="0px" y="0px"
	 viewBox="0 0 442.9 464.3" style="enable-background:new 0 0 442.9 464.3;" xml:space="preserve">
<style type="text/css">
	.st0{fill:#FFFFFF;}
</style>
<g>
	<path class="st0" d="M295.7,87.8c1.4,0.8,2.2,1.9,2.2,3.1c0,1.1-0.8,2.3-2.2,3.1L18.1,255.3l132.2,76.3L279,256.8
		c1.4-0.8,3.3-1.3,5.3-1.3c2,0,3.9,0.5,5.3,1.3L440,343.6c1.4,0.8,2.2,1.9,2.2,3.1l0.6,113.3c0,2.4-3.3,4.3-7.5,4.3
		c-2.1,0-3.9-0.5-5.3-1.3c-1.4-0.8-2.2-1.9-2.2-3.1l-0.6-111.5L284.4,266l-128.7,74.8c-1.4,0.8-3.3,1.3-5.3,1.3
		c-2,0-3.9-0.5-5.3-1.3L2.2,258.3c-1.4-0.8-2.2-1.9-2.2-3.1c0-1.1,0.8-2.3,2.2-3.1L279.8,90.9L135.2,7.4c-2.9-1.7-3-4.4,0-6.1
		c2.9-1.7,7.7-1.7,10.6,0L295.7,87.8z"/>
</g>
</svg>
