<?xml version="1.0" encoding="utf-8"?>
<!-- Generator: Adobe Illustrator 21.0.1, SVG Export Plug-In . SVG Version: 6.00 Build 0)  -->
<svg version="1.1" id="step_line" xmlns="http://www.w3.org/2000/svg" xmlns:xlink="http://www.w3.org/1999/xlink" x="0px" y="0px"
	 viewBox="0 0 1536.7 1593" style="enable-background:new 0 0 1536.7 1593;" xml:space="preserve">
<style type="text/css">
	.st0{opacity:0.2;fill:url(#SVGID_1_);enable-background:new    ;}
</style>
<linearGradient id="SVGID_1_" gradientUnits="userSpaceOnUse" x1="768.3361" y1="-23.7661" x2="768.3361" y2="1593">
	<stop  offset="0" style="stop-color:#000000"/>
	<stop  offset="1" style="stop-color:#000000;stop-opacity:0"/>
</linearGradient>
<polygon class="st0" points="1453.7,357.4 1454.3,356.6 1234.8,205.3 1536.7,-9.1 1526.2,-23.8 1219.6,194.8 1219.3,194.6 
	1204.1,205.4 1432.9,363.7 1224.7,520.8 1224.8,520.8 1214.2,529 1270.4,566.8 1114.4,676.9 947.2,560.4 887.2,604.1 887.2,604.4 
	772.2,523.3 713.1,566.9 654.5,523.8 478.2,651.7 705.6,812.3 0,1297.2 10.5,1304.6 10.3,1304.9 223.3,1455.3 39.2,1583 55.2,1593 
	254.2,1456 30.8,1297.4 737.2,813 508.9,651.7 654.4,545.9 714.2,589 772.5,545.6 887.2,626 887.2,626.3 947.2,582.1 947.2,582.3 
	1114.2,699 1114.2,699.1 1290.3,574.8 1302.3,567.6 1243.2,529.4 1462.2,363 "/>
</svg>
