<?xml version="1.0" encoding="utf-8"?>
<!-- Generator: Adobe Illustrator 21.0.1, SVG Export Plug-In . SVG Version: 6.00 Build 0)  -->
<svg version="1.1" id="wheel_1" xmlns="http://www.w3.org/2000/svg" xmlns:xlink="http://www.w3.org/1999/xlink" x="0px" y="0px"
	 viewBox="0 0 8.8 8.8" style="enable-background:new 0 0 8.8 8.8;" xml:space="preserve">
<style type="text/css">
	.st0{fill:#333333;}
	.st1{fill:#AFAFAF;}
	.st2{fill:#6D6D6D;}
	.st3{fill:#FFFFFF;}
</style>
<circle class="st0" cx="4.4" cy="4.4" r="4.4"/>
<circle class="st1" cx="4.4" cy="4.4" r="2.9"/>
<circle class="st2" cx="4.4" cy="4.5" r="1.9"/>
<g>
	<ellipse transform="matrix(0.4929 -0.8701 0.8701 0.4929 -0.3746 5.318)" class="st3" cx="4.4" cy="3" rx="0.2" ry="0.2"/>
	<ellipse transform="matrix(0.4929 -0.8701 0.8701 0.4929 -0.3746 5.318)" class="st3" cx="4.4" cy="3" rx="0.2" ry="0.2"/>
	<ellipse transform="matrix(0.7013 -0.7129 0.7129 0.7013 -1.4403 3.3916)" class="st3" cx="3.3" cy="3.4" rx="0.2" ry="0.2"/>
	
		<ellipse transform="matrix(1 -8.184408e-03 8.184408e-03 1 -3.642581e-02 2.382571e-02)" class="st3" cx="2.9" cy="4.5" rx="0.2" ry="0.2"/>
	<ellipse transform="matrix(0.7013 -0.7129 0.7129 0.7013 -2.9345 4.0177)" class="st3" cx="3.3" cy="5.5" rx="0.2" ry="0.2"/>
	
		<ellipse transform="matrix(1 -8.184408e-03 8.184408e-03 1 -4.850706e-02 3.600529e-02)" class="st3" cx="4.4" cy="5.9" rx="0.2" ry="0.2"/>
	<ellipse transform="matrix(0.7013 -0.7129 0.7129 0.7013 -2.3085 5.5119)" class="st3" cx="5.4" cy="5.5" rx="0.2" ry="0.2"/>
	
		<ellipse transform="matrix(1 -8.184408e-03 8.184408e-03 1 -3.632747e-02 4.808653e-02)" class="st3" cx="5.9" cy="4.5" rx="0.2" ry="0.2"/>
	<ellipse transform="matrix(0.7013 -0.7129 0.7129 0.7013 -0.8142 4.8859)" class="st3" cx="5.4" cy="3.4" rx="0.2" ry="0.2"/>
</g>
</svg>
