<svg id="Слой_1" xmlns="http://www.w3.org/2000/svg" viewBox="0 0 218.1 201.5">
    <style>
        .st0,.st1,.st2{fill:none;stroke:#000;stroke-width:2;stroke-linecap:round;stroke-linejoin:round;stroke-miterlimit:10}.st1,.st2{stroke:#edc03f}.st2{stroke:#5c415d}
    </style>
    <path class="st0" d="M123 162c0-9.5.1-19 0-28.5 0-2.7.7-4.1 3.5-5.1 8.6-3.1 17-6.6 25.5-9.9 3.2-1.3 4.3-3.5 4.1-7-.3-5.3-.1-4.8 5.4-4.7 3.8 0 7.8.3 11.5-.4 3.9-.8 5.4.2 5 4.1-.4 4.1.5 6.2 5.5 7.3 10 2.2 19.6 6.1 29.6 8.6 3.4.9 4 2.3 4 5.2-.1 10.2 0 20.3 0 30.5"/>
    <path class="st1" d="M46.3 92c-7 1.1-14.4 2.3-21.7 3.6-7.1 1.2-14.2 2.3-21.1 4.9-1.6.5-2.5.6-2.5 2.5.1 11 0 22 0 33.5h19.5"/>
    <path class="st0" d="M196.5 62.5c3.6-7.6 4.4-16 6.4-24 .9-3.8-5.4-9.3-10.9-10.5-1.5-.3-3.2.3-4.6-1.4-9.9-12.3-22.8-11.1-35.9-7.4-6.8 1.9-12.9 5.4-18 10.4-5.9 5.6-6.5 12.6-5.9 20 .2 2 1.4 3.4 3.5 4"/>
    <path class="st0" d="M33 46c-4.2-2.6-7.2.1-10 2.5-2.6 2.3-2.2 5.9-1.3 8.4 1.1 3 3.7 5.8 7.8 5.1 2.9-.5 3.4 1.8 3.9 3.5C35.3 72 39 76.6 46.2 78v13.9"/>
    <path class="st0" d="M98.5 140.5c-.3 7.5.6 15-.5 22.5"/>
    <path class="st0" d="M5.5 137.5V161"/>
    <path class="st0" d="M79.5 24.5c3.2-1.9 6.3-.7 9.8.2-2.8 5.1-6.8 7.3-12.8 7.4-10.3.1-20.7-1.1-31 .8-8.3 1.6-10 4.9-5.5 12 1.9 3 3.7 5.8 1.5 9.5-2.1 3.6-5 5.1-9 4.5"/>
    <path class="st2" d="M92.5 139h1c7.5 1.1 7.5 1.1 7.5-6.5v-26c0-2.2-.2-3.3-3-4.2-11.1-3.6-22.3-6.9-33.6-9.8-2.4-.6-3.3-2.1-3-4.5"/>
    <path class="st0" d="M62 91.5c-1-1.9-.5-7.8-.5-10"/>
    <path class="st2" d="M31 95.5c3 11.5 10.5 18.1 22 19.9 7.3 1.2 19.4-4.2 23-12.9.7-1.7 1.6-3.3 2.5-5"/>
    <path class="st0" d="M79.5 33c0 10.3.1 20.7 0 31-.1 5.3-1.2 10.4-5.5 13.9-3.8 3.1-8.9 2.7-13.5 2.9-1.5.1-3.3-.1-5-.3"/>
    <path class="st0" d="M163 34.5c-6.6 6.3-15.6 7.1-23.5 10.5-7.4 3.2-9.6 7.3-6.9 14.5 1.8 4.7 1.2 9.5.8 14-1 10.7 5.1 16.7 12.5 22.7 5.3 4.2 9.8 1.1 14.6.3 1.5-.3 3-1 4.5-1.5"/>
    <path class="st2" d="M46.3 92c-7 1.1-14.4 2.3-21.7 3.6-7.1 1.2-14.2 2.3-21.1 4.9-1.6.5-2.5.6-2.5 2.5.1 11 0 22 0 33.5h19.5"/>
    <path class="st0" d="M87 5.5C79.2 8 71.8 12 63 11.2c-5.2-.5-10.6-.7-16 .6-4.2 1-6.9 3.2-10.1 6.3-1.6.4-3.6-5.1-5.9-4.6"/>
    <path class="st1" d="M204.5 65c6.6 14.8 10.3 30.2 9.5 46.5-.1 2.5 0 5 0 7.5"/>
    <path class="st1" d="M150.5 13c-14.3-5.7-29.1-8.7-44.5-8-2.8.1-5.7.3-8.5.5"/>
    <path class="st0" d="M185 61c7.4-2.8 11.4-.3 13.4 7 1.3 4.8-6.4 11.1-11.4 9.4-.7-.2-1.3-.3-2.3-.5-1.3 3.6-3 7.2-6.2 9.5-3.6 2.6-4.3 6-4 10.1.2 3 0 6 0 9"/>
    <path class="st0" d="M162 107.5V142c0 1.7-.3 3.4.5 5"/>
    <path class="st1" d="M197 167.5c-8.7 11.7-18.6 22.1-31 30-1.8 1.1-3.4 2.6-5.5 3"/>
    <path class="st0" d="M55.5 67c4 6.8 8.8 6.8 13.7-.3-4.5-1-8.9-1-13.2-.2"/>
    <path class="st1" d="M17 62.5C11.7 71.7 8.8 81.6 7 92"/>
    <path class="st0" d="M31 14c.7 10.2.9 20.3 0 30.5"/>
    <path class="st0" d="M21.5 116v46"/>
    <path class="st0" d="M92 118c-1.1 4.5-.4 9-.5 13.5-.1 8.8 0 17.7 0 26.5 0 1.7-.3 3.4.5 5"/>
    <path class="st1" d="M26 171.5c5.4 8.4 13.4 14.3 20 21.5"/>
    <path class="st0" d="M134.5 147c-.2 5.1-3 9.6-4 14.5"/>
    <path class="st0" d="M173 33c.6 6.3 4.1 11.8 5 18"/>
    <path class="st0" d="M173 37.5c-3.3 3.8-7.1 6.9-12.5 7"/>
    <path class="st0" d="M163.5 31c.7 4 1.6 8.1-.5 12"/>
    <path class="st0" d="M159.5 98v7.5"/>
    <path class="st0" d="M87 5.5c.7 3.4-3.6 5.6-4 8.5"/>
    <path class="st0" d="M80.5 15.5c2.7-2.4 5.3 0 8 0 .6 3.8-4.1 4.3-4.5 7.5"/>
    <path class="st0" d="M165.5 62c-2.5-2.6-5.3-1.4-8-.5"/>
    <path class="st0" d="M146 63c-2.3-4.6-5.5-1.9-8.5-1"/>
    <path class="st0" d="M146 82c-1.8.5-2 1.6-1 3 4.5 6.3 11.4 5.4 16.1-3h-14.6"/>
    <circle cx="55.5" cy="48" r="2"/>
    <circle cx="70.5" cy="48" r="2"/>
</svg>
