<svg id="Object" xmlns="http://www.w3.org/2000/svg" viewBox="0 0 479.4 183.3">
    <style>
        .st0{fill:#f7e4ba}.st1{fill:#f8e0a9}.st2{fill:#6a7172}.st3{fill:#007298}.st4{fill:#005e85}.st5{fill:#c33a32}.st6{fill:#333e48}.st7{fill:#00556f}.st8{fill:#73243d}.st9{fill:#916928}.st10{fill:#6d5d35}.st11{fill:#ffa400}.st12{fill:#9ecdd9}.st13{fill:#83bbc8}.st14{fill:#cd5245}.st15{fill:#cb4d41}.st16{fill:#2c7188}.st17{fill:#828d97}.st18{fill:#608085}.st19{fill:#d76a5b}.st20{fill:#7a232e}.st21{fill:#f8f8f8}.st22{fill:#9faab3}.st23{fill:#24bc7c}.st24{opacity:.1}.st25{fill:#0b0c0c}.st26{fill:#980000}.st27{fill:#b6bbbf}.st28{fill:#e5e5e7}.st29{stroke:#980000;stroke-width:.8594;stroke-miterlimit:10}.st29,.st30{fill:#a10808}.st31{display:none}.st32{display:inline;opacity:.9;fill:#fff;enable-background:new}.st33{fill:#b66b56}.st34{opacity:.1;fill:#0b0c0c;enable-background:new}.st35{display:inline}.st36{fill:#f8f07e}.st37{fill:#e91c24}.st38{fill:#afafaf}.st39{fill:#333}.st40{fill:#c8c8c8}.st41{fill:#a8cede}.st42{fill:#008e45}.st43{fill:#006837}.st44{fill:#bd272d}.st45{fill:#801819}.st46{fill:#ffc700}.st47{fill:#eba214}.st48{fill:#ee771a}.st49{fill:#c86416}
    </style>
    <path class="st0" d="M226.7 112.4h40.5V183h-40.5z"/>
    <path class="st1" d="M260.7 112.4h6.2V183h-6.2z"/>
    <path class="st2" d="M225 107.8h43.9v4.6H225z"/>
    <path class="st3" d="M251.8 117.9h7.1v11.8h-7.1z"/>
    <path class="st4" d="M251.8 129.7h7l-7-11.8z"/>
    <path class="st3" d="M237.9 117.9h7.1v11.8h-7.1z"/>
    <path class="st4" d="M237.9 129.7h7.1l-7.1-11.8z"/>
    <path class="st3" d="M251.8 154.4h7.1v11.8h-7.1z"/>
    <path class="st4" d="M251.8 166.2h7l-7-11.8z"/>
    <g>
        <path class="st3" d="M237.9 154.4h7.1v11.8h-7.1z"/>
        <path class="st4" d="M237.9 166.2h7.1l-7.1-11.8z"/>
    </g>
    <g>
        <path class="st3" d="M251.8 135.6h7.1v11.8h-7.1z"/>
        <path class="st4" d="M251.8 147.3h7l-7-11.7z"/>
    </g>
    <g>
        <path class="st3" d="M237.9 135.6h7.1v11.8h-7.1z"/>
        <path class="st4" d="M237.9 147.3h7.1l-7.1-11.7z"/>
    </g>
    <g>
        <path class="st5" d="M240.3 87.1h13.2v8.7h-13.2z"/>
        <path class="st6" d="M239.8 87.1h1v20.5h-1z"/>
    </g>
    <g>
        <path class="st7" d="M89.5 132.9h52.1v23.6H89.5z"/>
        <path class="st7" d="M89.5 159.1h52.1v22.6H89.5z"/>
        <path class="st8" d="M88.6 155.9h54v3.7h-54z"/>
        <path class="st9" d="M112.2 172.8h6.7v8.8h-6.7z"/>
        <path class="st10" d="M112.2 172.8l6.7 8.8h-6.7z"/>
        <circle class="st11" cx="113.3" cy="177.2" r=".4"/>
        <g>
            <path class="st12" d="M109.5 138.4h11.4v4.2h-11.4z"/>
            <path class="st13" d="M109.5 142.7h11.4l-11.4-4.3z"/>
            <path class="st12" d="M93.2 138.4h11.4v4.2H93.2z"/>
            <path class="st13" d="M93.2 142.7h11.3l-11.3-4.3z"/>
            <g>
                <path class="st12" d="M109.5 147.8h11.4v4.2h-11.4z"/>
                <path class="st13" d="M109.5 152.1h11.4l-11.4-4.3z"/>
            </g>
            <g>
                <path class="st12" d="M93.2 147.8h11.4v4.2H93.2z"/>
                <path class="st13" d="M93.2 152.1h11.3l-11.3-4.3z"/>
            </g>
            <g>
                <path class="st12" d="M99.3 164.6h11.4v4.2H99.3z"/>
                <path class="st13" d="M99.3 168.8h11.4l-11.4-4.2z"/>
            </g>
        </g>
        <g>
            <path class="st5" d="M141.6 129.7l-26.1-16.1-26 16.1z"/>
            <path class="st14" d="M141.6 129.7l-26.1-16.1 12.5 16.1z"/>
            <path class="st8" d="M88.6 129.2h54v3.7h-54z"/>
            <g>
                <circle class="st12" cx="115.5" cy="122.1" r="3.3"/>
                <path class="st13" d="M113.2 119.8l4.6 4.6c-.6.6-1.4 1-2.3 1-1.8 0-3.3-1.5-3.3-3.3.1-.9.4-1.7 1-2.3z"/>
            </g>
        </g>
    </g>
    <g>
        <path class="st0" d="M406.4 113.3h71.1v69.1h-71.1z"/>
        <path class="st0" d="M406.4 99h71.1v12.4h-71.1z"/>
        <path class="st0" d="M406.4 84.7h71.1v12.4h-71.1z"/>
        <g>
            <path class="st3" d="M411.1 102.9h61.7v4.7h-61.7z"/>
            <path class="st4" d="M411.1 107.6h61.7l-61.7-4.7z"/>
            <path class="st3" d="M411.1 88.6h61.7v4.7h-61.7z"/>
            <path class="st4" d="M411.1 93.3h61.7l-61.7-4.7z"/>
            <g>
                <path class="st3" d="M465.6 118h4.6v7.8h-4.6z"/>
                <path class="st4" d="M465.6 125.7h4.7l-4.7-7.7z"/>
                <path class="st3" d="M456.9 118h4.6v7.8h-4.6z"/>
                <path class="st4" d="M456.9 125.7h4.7l-4.7-7.7z"/>
                <path class="st3" d="M448.3 118h4.6v7.8h-4.6z"/>
                <path class="st4" d="M448.3 125.7h4.6l-4.6-7.7z"/>
                <path class="st3" d="M439.6 118h4.7v7.8h-4.7z"/>
                <path class="st4" d="M439.6 125.7h4.6l-4.6-7.7z"/>
                <path class="st3" d="M465.6 140.1h4.6v7.8h-4.6z"/>
                <path class="st4" d="M465.6 147.9h4.7l-4.7-7.8z"/>
                <path class="st3" d="M456.9 140.1h4.6v7.8h-4.6z"/>
                <path class="st4" d="M456.9 147.9h4.7l-4.7-7.8z"/>
                <path class="st3" d="M448.3 140.1h4.6v7.8h-4.6z"/>
                <path class="st4" d="M448.3 147.9h4.6l-4.6-7.8z"/>
                <path class="st3" d="M439.6 140.1h4.7v7.8h-4.7z"/>
                <path class="st4" d="M439.6 147.9h4.6l-4.6-7.8z"/>
                <path class="st3" d="M465.6 129.2h4.6v7.8h-4.6z"/>
                <path class="st4" d="M465.6 136.9h4.7l-4.7-7.7z"/>
                <path class="st3" d="M456.9 129.2h4.6v7.8h-4.6z"/>
                <path class="st4" d="M456.9 136.9h4.7l-4.7-7.7z"/>
                <path class="st3" d="M448.3 129.2h4.6v7.8h-4.6z"/>
                <path class="st4" d="M448.3 136.9h4.6l-4.6-7.7z"/>
                <path class="st3" d="M439.6 129.2h4.7v7.8h-4.7z"/>
                <path class="st4" d="M439.6 136.9h4.6l-4.6-7.7z"/>
                <path class="st3" d="M430.9 118h4.7v7.8h-4.7z"/>
                <path class="st4" d="M430.9 125.7h4.7l-4.7-7.7z"/>
                <path class="st3" d="M430.9 140.1h4.7v7.8h-4.7z"/>
                <path class="st4" d="M430.9 147.9h4.7l-4.7-7.8z"/>
                <g>
                    <path class="st3" d="M430.9 129.2h4.7v7.8h-4.7z"/>
                    <path class="st4" d="M430.9 136.9h4.7l-4.7-7.7z"/>
                </g>
                <g>
                    <path class="st3" d="M422.2 118h4.6v7.8h-4.6z"/>
                    <path class="st4" d="M422.2 125.7h4.7l-4.7-7.7z"/>
                </g>
                <g>
                    <path class="st3" d="M422.2 140.1h4.6v7.8h-4.6z"/>
                    <path class="st4" d="M422.2 147.9h4.7l-4.7-7.8z"/>
                </g>
                <g>
                    <path class="st3" d="M422.2 129.2h4.6v7.8h-4.6z"/>
                    <path class="st4" d="M422.2 136.9h4.7l-4.7-7.7z"/>
                </g>
                <g>
                    <path class="st3" d="M413.6 118h4.6v7.8h-4.6z"/>
                    <path class="st4" d="M413.6 125.7h4.6l-4.6-7.7z"/>
                </g>
                <g>
                    <path class="st3" d="M413.6 140.1h4.6v7.8h-4.6z"/>
                    <path class="st4" d="M413.6 147.9h4.6l-4.6-7.8z"/>
                </g>
                <g>
                    <path class="st3" d="M465.6 150.8h4.6v7.8h-4.6z"/>
                    <path class="st4" d="M465.6 158.5h4.7l-4.7-7.7z"/>
                </g>
                <g>
                    <path class="st3" d="M456.9 150.8h4.6v7.8h-4.6z"/>
                    <path class="st4" d="M456.9 158.5h4.7l-4.7-7.7z"/>
                </g>
                <g>
                    <path class="st3" d="M448.3 150.8h4.6v7.8h-4.6z"/>
                    <path class="st4" d="M448.3 158.5h4.6l-4.6-7.7z"/>
                </g>
                <g>
                    <path class="st3" d="M439.6 150.8h4.7v7.8h-4.7z"/>
                    <path class="st4" d="M439.6 158.5h4.6l-4.6-7.7z"/>
                </g>
                <g>
                    <path class="st3" d="M430.9 150.8h4.7v7.8h-4.7z"/>
                    <path class="st4" d="M430.9 158.5h4.7l-4.7-7.7z"/>
                </g>
                <g>
                    <path class="st3" d="M422.2 150.8h4.6v7.8h-4.6z"/>
                    <path class="st4" d="M422.2 158.5h4.7l-4.7-7.7z"/>
                </g>
                <g>
                    <path class="st3" d="M413.6 150.8h4.6v7.8h-4.6z"/>
                    <path class="st4" d="M413.6 158.5h4.6l-4.6-7.7z"/>
                </g>
                <g>
                    <path class="st3" d="M413.6 129.2h4.6v7.8h-4.6z"/>
                    <path class="st4" d="M413.6 136.9h4.6l-4.6-7.7z"/>
                </g>
            </g>
        </g>
        <g>
            <path class="st8" d="M404.5 111.4h74.9v1.9h-74.9z"/>
            <path class="st8" d="M404.5 97.1h74.9V99h-74.9z"/>
            <path class="st8" d="M404.5 82.8h74.9v1.9h-74.9z"/>
            <path class="st5" d="M406.1 82.8l14-10.5h43.6l14.1 10.5z"/>
            <path class="st15" d="M463.1 82.8l-7.8-10.5h8.4l14.1 10.5z"/>
        </g>
    </g>
    <g>
        <path class="st7" d="M265 88.5h49.2v94.4H265z"/>
        <path class="st16" d="M308.1 88.5h2.9v94.4h-2.9z"/>
        <path class="st17" d="M287.8 78.6c0 .6.5 1.1 1.2 1.1s1.2-.5 1.2-1.1V51.7c0-.6-.5-1.1-1.2-1.1s-1.2.5-1.2 1.1v26.9z"/>
        <circle class="st18" cx="289" cy="52.5" r="2.8"/>
        <path class="st5" d="M265 86.1c2.9-7.2 11-16.9 24.6-16.9s21.7 9.7 24.6 16.9H265z"/>
        <path class="st19" d="M288.3 69.2h1.3c13.6 0 21.7 9.7 24.6 16.9h-2.6c-2.8-7-10.5-16.3-23.3-16.9z"/>
        <path class="st20" d="M262.6 83.7h54.1v4.8h-54.1z"/>
        <g>
            <path class="st12" d="M298.6 93.6h11.5v5.3h-11.5z"/>
            <path class="st13" d="M298.6 98.8h11.5l-11.5-5.2z"/>
            <path class="st12" d="M283.9 93.6h11.5v5.3h-11.5z"/>
            <path class="st13" d="M283.9 98.8h11.5l-11.5-5.2z"/>
            <path class="st12" d="M269.2 93.6h11.5v5.3h-11.5z"/>
            <path class="st13" d="M269.2 98.8h11.5l-11.5-5.2z"/>
            <path class="st12" d="M298.6 103h11.5v5.3h-11.5z"/>
            <path class="st13" d="M298.6 108.3h11.5l-11.5-5.3z"/>
            <path class="st12" d="M283.9 103h11.5v5.3h-11.5z"/>
            <path class="st13" d="M283.9 108.3h11.5l-11.5-5.3z"/>
            <path class="st12" d="M269.2 103h11.5v5.3h-11.5z"/>
            <path class="st13" d="M269.2 108.3h11.5l-11.5-5.3z"/>
            <g>
                <path class="st12" d="M298.6 112.4h11.5v5.3h-11.5z"/>
                <path class="st13" d="M298.6 117.7h11.5l-11.5-5.3z"/>
            </g>
            <g>
                <path class="st12" d="M283.9 112.4h11.5v5.3h-11.5z"/>
                <path class="st13" d="M283.9 117.7h11.5l-11.5-5.3z"/>
            </g>
            <g>
                <path class="st12" d="M269.2 112.4h11.5v5.3h-11.5z"/>
                <path class="st13" d="M269.2 117.7h11.5l-11.5-5.3z"/>
            </g>
            <g>
                <path class="st12" d="M298.6 121.9h11.5v5.3h-11.5z"/>
                <path class="st13" d="M298.6 127.1h11.5l-11.5-5.2z"/>
            </g>
            <g>
                <path class="st12" d="M283.9 121.9h11.5v5.3h-11.5z"/>
                <path class="st13" d="M283.9 127.1h11.5l-11.5-5.2z"/>
            </g>
            <g>
                <path class="st12" d="M269.2 121.9h11.5v5.3h-11.5z"/>
                <path class="st13" d="M269.2 127.1h11.5l-11.5-5.2z"/>
            </g>
            <g>
                <path class="st12" d="M298.6 156.1h11.5v5.3h-11.5z"/>
                <path class="st13" d="M298.6 161.4h11.5l-11.5-5.3z"/>
                <path class="st12" d="M283.9 156.1h11.5v5.3h-11.5z"/>
                <path class="st13" d="M283.9 161.4h11.5l-11.5-5.3z"/>
                <path class="st12" d="M269.2 156.1h11.5v5.3h-11.5z"/>
                <path class="st13" d="M269.2 161.4h11.5l-11.5-5.3z"/>
                <g>
                    <path class="st12" d="M298.6 165.6h11.5v5.3h-11.5z"/>
                    <path class="st13" d="M298.6 170.8h11.5l-11.5-5.2z"/>
                </g>
                <g>
                    <path class="st12" d="M283.9 165.6h11.5v5.3h-11.5z"/>
                    <path class="st13" d="M283.9 170.8h11.5l-11.5-5.2z"/>
                </g>
                <g>
                    <path class="st12" d="M269.2 165.6h11.5v5.3h-11.5z"/>
                    <path class="st13" d="M269.2 170.8h11.5l-11.5-5.2z"/>
                </g>
            </g>
        </g>
        <g>
            <path class="st8" d="M262.6 130.7h54.1v1.6h-54.1z"/>
            <path class="st21" d="M304.4 152l-15.4-5.5-15.3 5.5v-19.6h30.7z"/>
        </g>
    </g>
    <g>
        <path class="st22" d="M121.9 57.3h70.6v122.8h-70.6z"/>
        <path class="st3" d="M180.4 65.9h6.4v10.6h-6.4z"/>
        <path class="st4" d="M180.4 76.5h6.4l-6.4-10.6z"/>
        <path class="st3" d="M162.8 65.9h6.4v10.6h-6.4z"/>
        <path class="st4" d="M162.8 76.5h6.4l-6.4-10.6z"/>
        <path class="st3" d="M145.2 65.9h6.4v10.6h-6.4z"/>
        <path class="st4" d="M145.2 76.5h6.4l-6.4-10.6z"/>
        <path class="st3" d="M127.6 65.9h6.4v10.6h-6.4z"/>
        <path class="st4" d="M127.6 76.5h6.3l-6.3-10.6z"/>
        <path class="st3" d="M180.4 82.1h6.4v10.6h-6.4z"/>
        <path class="st4" d="M180.4 92.7h6.4l-6.4-10.6z"/>
        <path class="st3" d="M162.8 82.1h6.4v10.6h-6.4z"/>
        <path class="st4" d="M162.8 92.7h6.4l-6.4-10.6z"/>
        <g>
            <path class="st3" d="M145.2 82.1h6.4v10.6h-6.4z"/>
            <path class="st4" d="M145.2 92.7h6.4l-6.4-10.6z"/>
        </g>
        <g>
            <path class="st3" d="M127.6 82.1h6.4v10.6h-6.4z"/>
            <path class="st4" d="M127.6 92.7h6.3l-6.3-10.6z"/>
        </g>
        <g>
            <path class="st3" d="M180.4 98.2h6.4v10.6h-6.4z"/>
            <path class="st4" d="M180.4 108.8h6.4l-6.4-10.6z"/>
        </g>
        <g>
            <path class="st3" d="M162.8 98.2h6.4v10.6h-6.4z"/>
            <path class="st4" d="M162.8 108.8h6.4l-6.4-10.6z"/>
        </g>
        <g>
            <path class="st3" d="M145.2 98.2h6.4v10.6h-6.4z"/>
            <path class="st4" d="M145.2 108.8h6.4l-6.4-10.6z"/>
        </g>
        <g>
            <path class="st3" d="M127.6 98.2h6.4v10.6h-6.4z"/>
            <path class="st4" d="M127.6 108.8h6.3l-6.3-10.6z"/>
        </g>
        <g>
            <path class="st3" d="M180.4 114.3h6.4v10.6h-6.4z"/>
            <path class="st4" d="M180.4 124.9h6.4l-6.4-10.6z"/>
            <path class="st3" d="M162.8 114.3h6.4v10.6h-6.4z"/>
            <path class="st4" d="M162.8 124.9h6.4l-6.4-10.6z"/>
            <path class="st3" d="M145.2 114.3h6.4v10.6h-6.4z"/>
            <path class="st4" d="M145.2 124.9h6.4l-6.4-10.6z"/>
            <path class="st3" d="M127.6 114.3h6.4v10.6h-6.4z"/>
            <path class="st4" d="M127.6 124.9h6.3l-6.3-10.6z"/>
            <path class="st3" d="M180.4 130.5h6.4v10.6h-6.4z"/>
            <path class="st4" d="M180.4 141.1h6.4l-6.4-10.6z"/>
            <path class="st3" d="M162.8 130.5h6.4v10.6h-6.4z"/>
            <path class="st4" d="M162.8 141.1h6.4l-6.4-10.6z"/>
            <g>
                <path class="st3" d="M145.2 130.5h6.4v10.6h-6.4z"/>
                <path class="st4" d="M145.2 141.1h6.4l-6.4-10.6z"/>
            </g>
            <g>
                <path class="st3" d="M127.6 130.5h6.4v10.6h-6.4z"/>
                <path class="st4" d="M127.6 141.1h6.3l-6.3-10.6z"/>
            </g>
            <g>
                <path class="st3" d="M180.4 146.6h6.4v10.6h-6.4z"/>
                <path class="st4" d="M180.4 157.2h6.4l-6.4-10.6z"/>
            </g>
            <g>
                <path class="st3" d="M162.8 146.6h6.4v10.6h-6.4z"/>
                <path class="st4" d="M162.8 157.2h6.4l-6.4-10.6z"/>
            </g>
            <g>
                <path class="st3" d="M145.2 146.6h6.4v10.6h-6.4z"/>
                <path class="st4" d="M145.2 157.2h6.4l-6.4-10.6z"/>
            </g>
            <g>
                <path class="st3" d="M127.6 146.6h6.4v10.6h-6.4z"/>
                <path class="st4" d="M127.6 157.2h6.3l-6.3-10.6z"/>
            </g>
        </g>
        <g>
            <path class="st18" d="M119.5 110.9h76.9v1.4h-76.9z"/>
            <path class="st18" d="M119.5 53.2h76.9v4h-76.9z"/>
            <path class="st22" d="M133.4 40.9C136.8 31 146.2 24 157.2 24s20.3 7.1 23.7 16.9h11.6v12.4h-70.6V40.9h11.5z"/>
            <path class="st18" d="M138.3 49.1c0-10.4 8.4-18.8 18.8-18.8s18.8 8.4 18.8 18.8"/>
        </g>
        <g>
            <path class="st17" d="M188.7 40.9h3.8v12.4h-3.8z"/>
            <path class="st17" d="M188.7 57.3h3.8v53.6h-3.8z"/>
            <path class="st17" d="M188.7 112.3h3.8v67.8h-3.8z"/>
        </g>
    </g>
    <g>
        <path class="st17" d="M317.9 32.8h66.5v16.9h-66.5z"/>
        <path class="st17" d="M337.5 24h27.2v12.2h-27.2z"/>
        <path class="st17" d="M349.9 29c0 .6.5 1.1 1.2 1.1s1.2-.5 1.2-1.1V2.1c0-.6-.5-1.1-1.2-1.1s-1.2.5-1.2 1.1V29z"/>
        <circle class="st18" cx="351.2" cy="2.8" r="2.8"/>
        <path class="st22" d="M312.1 47.7h78.1V180h-78.1z"/>
        <g>
            <path class="st3" d="M369.3 38.8h9.1v4.6h-9.1z"/>
            <path class="st4" d="M369.3 43.4h9.1l-9.1-4.6z"/>
            <path class="st3" d="M357.7 38.8h9.1v4.6h-9.1z"/>
            <path class="st4" d="M357.7 43.4h9l-9-4.6z"/>
            <path class="st3" d="M346 38.8h9.1v4.6H346z"/>
            <path class="st4" d="M346 43.4h9.1l-9.1-4.6z"/>
            <g>
                <path class="st3" d="M333.9 38.8h9.1v4.6h-9.1z"/>
                <path class="st4" d="M333.9 43.4h9.1l-9.1-4.6z"/>
            </g>
            <g>
                <path class="st3" d="M322.3 38.8h9.1v4.6h-9.1z"/>
                <path class="st4" d="M322.3 43.4h9.1l-9.1-4.6z"/>
            </g>
            <g>
                <path class="st3" d="M330.1 158.5h42.3V180h-42.3z"/>
                <path class="st4" d="M330.1 180.1h42.3l-42.3-21.6z"/>
            </g>
            <g>
                <path class="st3" d="M352.9 63.6h9.1v4.6h-9.1z"/>
                <path class="st4" d="M352.9 68.2h9.1l-9.1-4.6z"/>
                <path class="st3" d="M364.5 80.1h9.1v4.6h-9.1z"/>
                <path class="st4" d="M364.5 84.7h9.1l-9.1-4.6z"/>
                <path class="st3" d="M340.8 63.6h9.1v4.6h-9.1z"/>
                <path class="st4" d="M340.8 68.2h9.1l-9.1-4.6z"/>
                <path class="st3" d="M329.2 63.6h9.1v4.6h-9.1z"/>
                <path class="st4" d="M329.2 68.2h9.1l-9.1-4.6z"/>
                <path class="st3" d="M317.6 63.6h9.1v4.6h-9.1z"/>
                <path class="st4" d="M317.6 68.2h9l-9-4.6z"/>
                <path class="st3" d="M376.2 54.8h9.1v4.6h-9.1z"/>
                <path class="st4" d="M376.2 59.4h9l-9-4.6z"/>
                <path class="st3" d="M364.5 54.8h9.1v4.6h-9.1z"/>
                <path class="st4" d="M364.5 59.4h9.1l-9.1-4.6z"/>
                <path class="st3" d="M352.9 54.8h9.1v4.6h-9.1z"/>
                <path class="st4" d="M352.9 59.4h9.1l-9.1-4.6z"/>
                <path class="st3" d="M376.2 63h9.1v4.6h-9.1z"/>
                <path class="st4" d="M376.2 67.7h9l-9-4.7z"/>
                <path class="st3" d="M364.5 63h9.1v4.6h-9.1z"/>
                <path class="st4" d="M364.5 67.7h9.1l-9.1-4.7z"/>
                <path class="st3" d="M376.2 71.3h9.1v4.6h-9.1z"/>
                <path class="st4" d="M376.2 75.9h9l-9-4.6z"/>
                <path class="st3" d="M364.5 71.3h9.1v4.6h-9.1z"/>
                <path class="st4" d="M364.5 75.9h9.1l-9.1-4.6z"/>
                <path class="st3" d="M352.9 71.3h9.1v4.6h-9.1z"/>
                <path class="st4" d="M352.9 75.9h9.1l-9.1-4.6z"/>
                <path class="st3" d="M376.2 79.6h9.1v4.6h-9.1z"/>
                <path class="st4" d="M376.2 84.2h9l-9-4.6z"/>
                <g>
                    <path class="st3" d="M352.9 79.6h9.1v4.6h-9.1z"/>
                    <path class="st4" d="M352.9 84.2h9.1l-9.1-4.6z"/>
                </g>
                <g>
                    <path class="st3" d="M340.8 54.8h9.1v4.6h-9.1z"/>
                    <path class="st4" d="M340.8 59.4h9.1l-9.1-4.6z"/>
                </g>
                <g>
                    <path class="st3" d="M329.2 54.8h9.1v4.6h-9.1z"/>
                    <path class="st4" d="M329.2 59.4h9.1l-9.1-4.6z"/>
                </g>
                <g>
                    <path class="st3" d="M317.6 54.8h9.1v4.6h-9.1z"/>
                    <path class="st4" d="M317.6 59.4h9l-9-4.6z"/>
                </g>
                <g>
                    <path class="st3" d="M340.8 71.3h9.1v4.6h-9.1z"/>
                    <path class="st4" d="M340.8 75.9h9.1l-9.1-4.6z"/>
                </g>
                <g>
                    <path class="st3" d="M329.2 71.3h9.1v4.6h-9.1z"/>
                    <path class="st4" d="M329.2 75.9h9.1l-9.1-4.6z"/>
                </g>
                <g>
                    <path class="st3" d="M317.6 71.3h9.1v4.6h-9.1z"/>
                    <path class="st4" d="M317.6 75.9h9l-9-4.6z"/>
                </g>
                <g>
                    <path class="st3" d="M340.8 79.6h9.1v4.6h-9.1z"/>
                    <path class="st4" d="M340.8 84.2h9.1l-9.1-4.6z"/>
                </g>
                <g>
                    <path class="st3" d="M329.2 79.6h9.1v4.6h-9.1z"/>
                    <path class="st4" d="M329.2 84.2h9.1l-9.1-4.6z"/>
                </g>
                <g>
                    <path class="st3" d="M317.6 79.6h9.1v4.6h-9.1z"/>
                    <path class="st4" d="M317.6 84.2h9l-9-4.6z"/>
                </g>
                <g>
                    <path class="st3" d="M376.2 89h9.1v4.6h-9.1z"/>
                    <path class="st4" d="M376.2 93.6h9l-9-4.6z"/>
                    <path class="st3" d="M364.5 89h9.1v4.6h-9.1z"/>
                    <path class="st4" d="M364.5 93.6h9.1l-9.1-4.6z"/>
                    <path class="st3" d="M352.9 89h9.1v4.6h-9.1z"/>
                    <path class="st4" d="M352.9 93.6h9.1l-9.1-4.6z"/>
                    <path class="st3" d="M376.2 97.2h9.1v4.6h-9.1z"/>
                    <path class="st4" d="M376.2 101.9h9l-9-4.7z"/>
                    <path class="st3" d="M364.5 97.2h9.1v4.6h-9.1z"/>
                    <path class="st4" d="M364.5 101.9h9.1l-9.1-4.7z"/>
                    <path class="st3" d="M352.9 97.2h9.1v4.6h-9.1z"/>
                    <path class="st4" d="M352.9 101.9h9.1l-9.1-4.7z"/>
                    <g>
                        <path class="st3" d="M376.2 105.5h9.1v4.6h-9.1z"/>
                        <path class="st4" d="M376.2 110.1h9l-9-4.6z"/>
                    </g>
                    <g>
                        <path class="st3" d="M364.5 105.5h9.1v4.6h-9.1z"/>
                        <path class="st4" d="M364.5 110.1h9.1l-9.1-4.6z"/>
                    </g>
                    <g>
                        <path class="st3" d="M352.9 105.5h9.1v4.6h-9.1z"/>
                        <path class="st4" d="M352.9 110.1h9.1l-9.1-4.6z"/>
                    </g>
                    <g>
                        <path class="st3" d="M376.2 113.8h9.1v4.6h-9.1z"/>
                        <path class="st4" d="M376.2 118.4h9l-9-4.6z"/>
                    </g>
                    <g>
                        <path class="st3" d="M364.5 113.8h9.1v4.6h-9.1z"/>
                        <path class="st4" d="M364.5 118.4h9.1l-9.1-4.6z"/>
                    </g>
                    <g>
                        <path class="st3" d="M352.9 113.8h9.1v4.6h-9.1z"/>
                        <path class="st4" d="M352.9 118.4h9.1l-9.1-4.6z"/>
                    </g>
                </g>
                <g>
                    <path class="st3" d="M340.8 89h9.1v4.6h-9.1z"/>
                    <path class="st4" d="M340.8 93.6h9.1l-9.1-4.6z"/>
                    <path class="st3" d="M329.2 89h9.1v4.6h-9.1z"/>
                    <path class="st4" d="M329.2 93.6h9.1l-9.1-4.6z"/>
                    <path class="st3" d="M317.6 89h9.1v4.6h-9.1z"/>
                    <path class="st4" d="M317.6 93.6h9l-9-4.6z"/>
                    <path class="st3" d="M340.8 97.2h9.1v4.6h-9.1z"/>
                    <path class="st4" d="M340.8 101.9h9.1l-9.1-4.7z"/>
                    <path class="st3" d="M329.2 97.2h9.1v4.6h-9.1z"/>
                    <path class="st4" d="M329.2 101.9h9.1l-9.1-4.7z"/>
                    <path class="st3" d="M317.6 97.2h9.1v4.6h-9.1z"/>
                    <path class="st4" d="M317.6 101.9h9l-9-4.7z"/>
                    <g>
                        <path class="st3" d="M340.8 105.5h9.1v4.6h-9.1z"/>
                        <path class="st4" d="M340.8 110.1h9.1l-9.1-4.6z"/>
                    </g>
                    <g>
                        <path class="st3" d="M329.2 105.5h9.1v4.6h-9.1z"/>
                        <path class="st4" d="M329.2 110.1h9.1l-9.1-4.6z"/>
                    </g>
                    <g>
                        <path class="st3" d="M317.6 105.5h9.1v4.6h-9.1z"/>
                        <path class="st4" d="M317.6 110.1h9l-9-4.6z"/>
                    </g>
                    <g>
                        <path class="st3" d="M340.8 113.8h9.1v4.6h-9.1z"/>
                        <path class="st4" d="M340.8 118.4h9.1l-9.1-4.6z"/>
                    </g>
                    <g>
                        <path class="st3" d="M329.2 113.8h9.1v4.6h-9.1z"/>
                        <path class="st4" d="M329.2 118.4h9.1l-9.1-4.6z"/>
                    </g>
                    <g>
                        <path class="st3" d="M317.6 113.8h9.1v4.6h-9.1z"/>
                        <path class="st4" d="M317.6 118.4h9l-9-4.6z"/>
                    </g>
                </g>
                <g>
                    <path class="st3" d="M376.2 123.2h9.1v4.6h-9.1z"/>
                    <path class="st4" d="M376.2 127.8h9l-9-4.6z"/>
                    <path class="st3" d="M364.5 123.2h9.1v4.6h-9.1z"/>
                    <path class="st4" d="M364.5 127.8h9.1l-9.1-4.6z"/>
                    <path class="st3" d="M352.9 123.2h9.1v4.6h-9.1z"/>
                    <path class="st4" d="M352.9 127.8h9.1l-9.1-4.6z"/>
                    <path class="st3" d="M376.2 131.4h9.1v4.6h-9.1z"/>
                    <path class="st4" d="M376.2 136h9l-9-4.6z"/>
                    <path class="st3" d="M364.5 131.4h9.1v4.6h-9.1z"/>
                    <path class="st4" d="M364.5 136h9.1l-9.1-4.6z"/>
                    <path class="st3" d="M352.9 131.4h9.1v4.6h-9.1z"/>
                    <path class="st4" d="M352.9 136h9.1l-9.1-4.6z"/>
                    <g>
                        <path class="st3" d="M376.2 139.7h9.1v4.6h-9.1z"/>
                        <path class="st4" d="M376.2 144.3h9l-9-4.6z"/>
                    </g>
                    <g>
                        <path class="st3" d="M364.5 139.7h9.1v4.6h-9.1z"/>
                        <path class="st4" d="M364.5 144.3h9.1l-9.1-4.6z"/>
                    </g>
                    <g>
                        <path class="st3" d="M352.9 139.7h9.1v4.6h-9.1z"/>
                        <path class="st4" d="M352.9 144.3h9.1l-9.1-4.6z"/>
                    </g>
                    <g>
                        <path class="st3" d="M376.2 148h9.1v4.6h-9.1z"/>
                        <path class="st4" d="M376.2 152.6h9l-9-4.6z"/>
                    </g>
                    <g>
                        <path class="st3" d="M364.5 148h9.1v4.6h-9.1z"/>
                        <path class="st4" d="M364.5 152.6h9.1l-9.1-4.6z"/>
                    </g>
                    <g>
                        <path class="st3" d="M352.9 148h9.1v4.6h-9.1z"/>
                        <path class="st4" d="M352.9 152.6h9.1l-9.1-4.6z"/>
                    </g>
                </g>
                <g>
                    <path class="st3" d="M340.8 123.2h9.1v4.6h-9.1z"/>
                    <path class="st4" d="M340.8 127.8h9.1l-9.1-4.6z"/>
                    <path class="st3" d="M329.2 123.2h9.1v4.6h-9.1z"/>
                    <path class="st4" d="M329.2 127.8h9.1l-9.1-4.6z"/>
                    <path class="st3" d="M317.6 123.2h9.1v4.6h-9.1z"/>
                    <path class="st4" d="M317.6 127.8h9l-9-4.6z"/>
                    <path class="st3" d="M340.8 131.4h9.1v4.6h-9.1z"/>
                    <path class="st4" d="M340.8 136h9.1l-9.1-4.6z"/>
                    <path class="st3" d="M329.2 131.4h9.1v4.6h-9.1z"/>
                    <path class="st4" d="M329.2 136h9.1l-9.1-4.6z"/>
                    <path class="st3" d="M317.6 131.4h9.1v4.6h-9.1z"/>
                    <path class="st4" d="M317.6 136h9l-9-4.6z"/>
                    <g>
                        <path class="st3" d="M340.8 139.7h9.1v4.6h-9.1z"/>
                        <path class="st4" d="M340.8 144.3h9.1l-9.1-4.6z"/>
                    </g>
                    <g>
                        <path class="st3" d="M329.2 139.7h9.1v4.6h-9.1z"/>
                        <path class="st4" d="M329.2 144.3h9.1l-9.1-4.6z"/>
                    </g>
                    <g>
                        <path class="st3" d="M317.6 139.7h9.1v4.6h-9.1z"/>
                        <path class="st4" d="M317.6 144.3h9l-9-4.6z"/>
                    </g>
                    <g>
                        <path class="st3" d="M340.8 148h9.1v4.6h-9.1z"/>
                        <path class="st4" d="M340.8 152.6h9.1l-9.1-4.6z"/>
                    </g>
                    <g>
                        <path class="st3" d="M329.2 148h9.1v4.6h-9.1z"/>
                        <path class="st4" d="M329.2 152.6h9.1l-9.1-4.6z"/>
                    </g>
                    <g>
                        <path class="st3" d="M317.6 148h9.1v4.6h-9.1z"/>
                        <path class="st4" d="M317.6 152.6h9l-9-4.6z"/>
                    </g>
                </g>
            </g>
        </g>
        <g>
            <path class="st23" d="M375.7 180.1s-3-7.7 5.8-10.5c8.7 2.8 5.8 10.5 5.8 10.5"/>
            <g class="st24">
                <path class="st25" d="M387.2 180.1s3-7.7-5.8-10.5v10.5"/>
            </g>
            <g>
                <path class="st23" d="M314.5 180.1s-3-7.7 5.8-10.5c8.7 2.8 5.8 10.5 5.8 10.5"/>
                <g class="st24">
                    <path class="st25" d="M326 180.1s3-7.7-5.8-10.5v10.5"/>
                </g>
            </g>
        </g>
    </g>
    <g>
        <path class="st5" d="M4.8 136.4h55v40.8h-55z"/>
        <path class="st26" d="M61.5 135.1v3.2c0 1.5-1.2 2.7-2.7 2.7s-2.7-1.2-2.7-2.7v-3.2h5.4z"/>
        <path class="st27" d="M56.2 135.1v3.2c0 1.5-1.2 2.7-2.7 2.7s-2.7-1.2-2.7-2.7v-3.2h5.4z"/>
        <path class="st26" d="M50.9 135.1v3.2c0 1.5-1.2 2.7-2.7 2.7s-2.7-1.2-2.7-2.7v-3.2h5.4z"/>
        <path class="st27" d="M45.6 135.1v3.2c0 1.5-1.2 2.7-2.7 2.7s-2.7-1.2-2.7-2.7v-3.2h5.4z"/>
        <path class="st26" d="M40.3 135.1v3.2c0 1.5-1.2 2.7-2.7 2.7s-2.7-1.2-2.7-2.7v-3.2h5.4z"/>
        <path class="st27" d="M35 135.1v3.2c0 1.5-1.2 2.7-2.7 2.7s-2.7-1.2-2.7-2.7v-3.2H35z"/>
        <path class="st26" d="M29.6 135.1v3.2c0 1.5-1.2 2.7-2.7 2.7s-2.7-1.2-2.7-2.7v-3.2h5.4z"/>
        <path class="st27" d="M24.3 135.1v3.2c0 1.5-1.2 2.7-2.7 2.7s-2.7-1.2-2.7-2.7v-3.2h5.4z"/>
        <path class="st26" d="M19 135.1v3.2c0 1.5-1.2 2.7-2.6 2.7-1.5 0-2.7-1.2-2.7-2.7v-3.2H19z"/>
        <path class="st27" d="M13.7 135.1v3.2c0 1.5-1.2 2.7-2.7 2.7s-2.7-1.2-2.7-2.7v-3.2h5.4z"/>
        <path class="st26" d="M8.4 135.1v3.2c0 1.5-1.2 2.7-2.7 2.7S3 139.8 3 138.3v-3.2h5.4z"/>
        <path class="st5" d="M54.8 125.2l6.7 9.9h-5.3l-5.8-9.9z"/>
        <path class="st28" d="M50.4 125.2l5.8 9.9h-5.3l-4.7-9.9z"/>
        <path class="st5" d="M46.5 125.2l4.4 9.9h-5.3l-3.7-9.9z"/>
        <path class="st28" d="M41.9 125.2l3.7 9.9h-5.3l-1.9-9.9z"/>
        <path class="st5" d="M38.4 125.2l1.9 9.9H35l-.5-9.9z"/>
        <path class="st28" d="M34.5 125.2l.5 9.9h-5.4l.8-9.9z"/>
        <path class="st5" d="M30.4 125.2l-.8 9.9h-5.3l2.1-9.9z"/>
        <path class="st28" d="M26.4 125.2l-2.1 9.9H19l3.3-9.9z"/>
        <path class="st5" d="M22.7 125.2l-3.7 9.9h-5.3l4.5-9.9z"/>
        <path class="st28" d="M18.2 125.2l-4.5 9.9H8.4l5.1-9.9z"/>
        <path class="st5" d="M13.5 125.2l-5.1 9.9H3.1l5.5-9.9z"/>
        <path class="st29" d="M8.3 154.1h14.6v23.1H8.3z"/>
        <path class="st30" d="M0 176.8h64.6v3.3H0z"/>
        <path class="st30" d="M23.3 173.4h36.5v1.6H23.3z"/>
        <g>
            <path class="st13" d="M16.6 148.2v-4.9c3.4.1 6.8 1.1 6.8 3v2h-6.8v-.1z"/>
            <path class="st13" d="M14.6 148.2H7.9v-2c0-1.9 3.3-2.8 6.8-3v5h-.1z"/>
            <path class="st13" d="M7.9 149h6.8v3.4H7.9z"/>
            <path class="st13" d="M16.6 149h6.8v3.4h-6.8z"/>
        </g>
        <circle class="st27" cx="20.8" cy="165.3" r=".7"/>
        <g>
            <path class="st12" d="M31.4 147.6h26.3v23.2H31.4z"/>
            <path class="st13" d="M31.4 170.8h26.3l-26.3-23.2z"/>
        </g>
    </g>
    <g class="st31">
        <path class="st32" d="M58.7 16.6h5.2c1 0 1.8-.8 1.8-1.8s-.8-1.8-1.8-1.8h.1c-3.1 0-5.7-2.6-5.7-5.7s2.6-5.7 5.7-5.7h35.7c3.1 0 5.7 2.6 5.7 5.7s-2.6 5.7-5.7 5.7h-.9c-1 0-1.8.8-1.8 1.8s.8 1.8 1.8 1.8h22.3c3.7 0 6.6 2.8 6.6 6.3s-3 6.3-6.6 6.3H58.7c-3.7 0-6.6-2.8-6.6-6.3 0-3.4 3-6.3 6.6-6.3z"/>
        <path class="st32" d="M292.6 9.9c0 3.1 2.5 5.5 5.5 5.5H332c3.1 0 5.5-2.5 5.5-5.5 0-3.1-2.5-5.5-5.5-5.5h-33.9c-3.1 0-5.5 2.4-5.5 5.5z"/>
        <path class="st32" d="M406.6 24.7h21.9c1 0 1.8-.8 1.8-1.8s-.8-1.8-1.8-1.8h-.8c-3.1 0-5.6-2.5-5.6-5.6s2.5-5.6 5.6-5.6h34.9c3.1 0 5.6 2.5 5.6 5.6s-2.5 5.6-5.6 5.6h.1c-1 0-1.8.8-1.8 1.8s.8 1.8 1.8 1.8h5.2c3.6 0 6.5 2.8 6.5 6.2s-2.9 6.2-6.5 6.2h-61.3c-3.6 0-6.5-2.8-6.5-6.2 0-3.5 2.9-6.2 6.5-6.2z"/>
        <path class="st32" d="M28.7 76.6h17.8c.8 0 1.5-.7 1.5-1.5s-.7-1.5-1.5-1.5h-.7c-2.5 0-4.5-2-4.5-4.5s2-4.5 4.5-4.5h28.3c2.5 0 4.5 2 4.5 4.5s-2 4.5-4.5 4.5h.1c-.8 0-1.5.7-1.5 1.5s.7 1.5 1.5 1.5h4.2c2.9 0 5.3 2.2 5.3 5s-2.4 5-5.3 5H28.7c-2.9 0-5.3-2.2-5.3-5 .1-2.7 2.4-5 5.3-5z"/>
        <path class="st32" d="M215.2 45.6H233c.8 0 1.5-.7 1.5-1.5s-.7-1.5-1.5-1.5h-.7c-2.5 0-4.5-2-4.5-4.5s2-4.5 4.5-4.5h28.3c2.5 0 4.5 2 4.5 4.5s-2 4.5-4.5 4.5h.1c-.8 0-1.5.7-1.5 1.5s.7 1.5 1.5 1.5h4.2c2.9 0 5.3 2.2 5.3 5s-2.4 5-5.3 5h-49.7c-2.9 0-5.3-2.2-5.3-5s2.4-5 5.3-5z"/>
    </g>
    <g>
        <path class="st33" d="M400.4 170.6h2.1v11.5h-2.1z"/>
        <path class="st23" d="M393.3 152.2c0-4.5 3.7-8.2 8.2-8.2s8.2 3.7 8.2 8.2v12.2c0 4.5-3.7 8.2-8.2 8.2s-8.2-3.7-8.2-8.2v-12.2z"/>
        <path class="st34" d="M409.7 152.2v12.2c0 4.5-3.7 8.2-8.2 8.2V144c4.5 0 8.2 3.7 8.2 8.2z"/>
        <g>
            <path class="st33" d="M207.4 171.8h2.1v11.5h-2.1z"/>
            <path class="st23" d="M200.2 153.4c0-4.5 3.7-8.2 8.2-8.2s8.2 3.7 8.2 8.2v12.2c0 4.5-3.7 8.2-8.2 8.2s-8.2-3.7-8.2-8.2v-12.2z"/>
            <path class="st34" d="M216.6 153.4v12.2c0 4.5-3.7 8.2-8.2 8.2v-28.6c4.6 0 8.2 3.7 8.2 8.2z"/>
        </g>
        <g>
            <path class="st33" d="M73.4 171.8h2.1v11.5h-2.1z"/>
            <path class="st23" d="M66.2 153.4c0-4.5 3.7-8.2 8.2-8.2s8.2 3.7 8.2 8.2v12.2c0 4.5-3.7 8.2-8.2 8.2s-8.2-3.7-8.2-8.2v-12.2z"/>
            <path class="st34" d="M82.6 153.4v12.2c0 4.5-3.7 8.2-8.2 8.2v-28.6c4.6 0 8.2 3.7 8.2 8.2z"/>
        </g>
    </g>
    <g class="st31">
        <g class="st35">
            <path class="st36" d="M390.7 196.9c0 .4-.3.8-.8.8h-.5c-.4 0-.8-.3-.8-.8v-2.5c0-.4.3-.8.8-.8h.5c.4 0 .8.3.8.8v2.5z"/>
            <path class="st37" d="M443.5 194.5c.1.6-.2 1.1-.8 1.3l-1 .3c-.6.1-1.1-.2-1.3-.8-.1-.6.2-1.1.8-1.3l1-.3c.5-.1 1.1.3 1.3.8z"/>
            <path class="st3" d="M428.8 182.6h-13.6c-4.8 0-8.6 5-10 7h-10.7c-2.3 0-5.7 1.6-5.7 3.9v5.1h54.7c-3.7-18-13.6-16-14.7-16z"/>
            <path class="st38" d="M444.7 196.7c0 .5-.4.9-.9.9h-53.2c-.5 0-.9-.4-.9-.9v-.2c0-.5.4-.9.9-.9h53.2c.5 0 .9.4.9.9v.2z"/>
            <circle class="st39" cx="400.1" cy="198.5" r="4.6"/>
            <circle class="st38" cx="400.1" cy="198.5" r="3.1"/>
            <circle class="st40" cx="400.1" cy="198.5" r="2.3"/>
            <circle class="st39" cx="433.8" cy="198.5" r="4.6"/>
            <circle class="st38" cx="433.8" cy="198.5" r="3.1"/>
            <circle class="st40" cx="433.8" cy="198.5" r="2.3"/>
            <path class="st41" d="M407 189.6h30.5s-3.2-5.4-8.7-5.4H415c-1.7 0-4.7 1.4-8 5.4z"/>
            <path class="st3" d="M419.7 183.6h2v6h-2z"/>
            <path class="st4" d="M419.7 191.6c0 .5-.4 1-1 1h-2c-.5 0-1-.4-1-1 0-.5.4-1 1-1h2c.6 0 1 .5 1 1z"/>
            <path class="st4" d="M421.7 192.3c0-.4.2-1.6.5-1.6h2.4c.4 0 0 1.3 0 1.6v.5c0 .4.3-.1 0-.1h-2.4c-.4 0-.5.5-.5.1v-.5z"/>
            <path class="st4" d="M410.7 188.4c0-.4 0-.8-.4-.8l-4.1.4c-.4 0-1.5.4-1.5.8v1.3c0 .4 1.2.7 1.7.7l3.4-.4c.4 0 .9-.3.9-.7v-1.3z"/>
        </g>
        <g class="st35">
            <path class="st36" d="M63.7 191.4c0-.4.7-.8 1.1-.8h.5c.4 0 .4.3.4.8v2.5c0 .4 0 .8-.4.8h-.5c-.4 0-1.1-.3-1.1-.8v-2.5z"/>
            <path class="st37" d="M120.1 192.3c.1.6-.2 1.1-.8 1.3l-1 .3c-.6.1-1.1-.2-1.3-.8-.1-.6.2-1.1.8-1.3l1-.3c.6-.1 1.1.2 1.3.8z"/>
            <path class="st42" d="M105.4 179.6H91.8c-4.8 0-8.6 6-10 8H71c-2.3 0-6.3 1.3-6.3 3.6v4.4H120.1c-3.7-16-13.6-16-14.7-16z"/>
            <path class="st38" d="M65.7 194.5c0-.5.7-.9 1.2-.9h53.2c.5 0 .6.4.6.9v.2c0 .5-.1.9-.6.9H66.9c-.5 0-1.2-.4-1.2-.9v-.2z"/>
            <circle class="st39" cx="76.8" cy="196.2" r="4.6"/>
            <circle class="st38" cx="76.8" cy="196.2" r="3.1"/>
            <circle class="st40" cx="76.8" cy="196.2" r="2.3"/>
            <circle class="st39" cx="110.5" cy="196.2" r="4.6"/>
            <circle class="st38" cx="110.5" cy="196.2" r="3.1"/>
            <circle class="st40" cx="110.5" cy="196.2" r="2.3"/>
            <path class="st41" d="M83.6 187.6h30.5s-3.2-5.5-8.7-5.5H91.6c-1.6 0-4.7 1.5-8 5.5z"/>
            <path class="st42" d="M95.7 180.6h3v7h-3z"/>
            <path class="st43" d="M91.7 189.9c0-.4 1.3-1.3 1.7-1.3h2.5c.4 0-.2.9-.2 1.3v.5c0 .4.6.2.2.2h-2.5c-.4 0-1.7.2-1.7-.2v-.5z"/>
            <path class="st43" d="M97.7 189.9c0-.4 1.2-1.3 1.5-1.3h2.5c.4 0 0 .9 0 1.3v.5c0 .4.4.2 0 .2h-2.5c-.4 0-1.5.2-1.5-.2v-.5z"/>
            <path class="st43" d="M88.7 186.1c0-.4-.6-.8-1.1-.8l-3.8.4c-.4 0-1.1.4-1.1.8v1.3c0 .4.6.7 1 .7l3.8-.4c.4 0 1.2-.3 1.2-.7v-1.3z"/>
        </g>
        <g class="st35">
            <path class="st44" d="M251.1 185.7s-.4-3-2.7-3h-20.1c-.9 0-1.5-.2-2.8 1.4-1.7 2.2-3.9 4.6-3.9 4.6s-8.6 1.1-11.1 2.2c-1.7.8-2 3-2 5 0 2.9 2.1 2.7 2.1 2.7h39c.9 0 2.7.2 2.7-1.6s-1.2-11.3-1.2-11.3z"/>
            <path class="st45" d="M252.3 196.1c0 1.8-1.9 2.6-2.7 2.6h-39s-2 0-2.1-4h43.8c-.1.9 0 1.2 0 1.4z"/>
            <path class="st39" d="M221.5 188.6l4-5h13c.2 0 .2.1.2.3v4.3c0 .2-.1.3-.3.3l-16.9.1z"/>
            <path class="st39" d="M240.5 183.6h7.4c.9 0 1.6.7 1.6 1.6l.3 3c0 .2-.1.4-.3.4h-9c-.2 0-.8-.2-.8-.3V184c0-.2.6-.4.8-.4z"/>
            <path class="st39" d="M238.7 189c0-.2-.2-.4-.4-.4H235c-.2 0-.4.2-.4.4v.3c0 .2.2.4.4.4h3.3c.2 0 .4-.2.4-.4v-.3z"/>
            <path class="st39" d="M250.7 192.9c0 .9.9.7 1.9.7h.3c1 0 .8.2.8-.7v-4.5c0-.9.1-1.7-.8-1.7h-.3c-1 0-1.9.8-1.9 1.7v4.5z"/>
            <path class="st39" d="M248.7 198.6c0-4-2.6-5.9-5.9-5.9-3.3 0-5.9 1.9-5.9 5.9h11.8z"/>
            <path class="st39" d="M224.4 198.6c0-4-2.6-5.9-5.9-5.9-3.3 0-5.9 1.9-5.9 5.9h11.8z"/>
            <circle class="st39" cx="242.8" cy="199.3" r="4.4"/>
            <circle class="st40" cx="242.8" cy="199.3" r="3.4"/>
            <circle class="st39" cx="218.5" cy="199.3" r="4.4"/>
            <circle class="st40" cx="218.5" cy="199.3" r="3.4"/>
            <path class="st36" d="M209.6 190.6c.7 0 1.1 2 1.1 2.8v.1c0 .8-.4 1-1.1 1h-1.1c.1-1 .3-1 .8-4l.3.1z"/>
            <path class="st44" d="M225.7 183.6h1v5h-1z"/>
            <path class="st45" d="M229.7 187.9c0-.1-.1-.3-.3-.3h-3.5c-.1 0-.3.1-.3.3v.5c0 .1.1.3.3.3h3.5c.1 0 .3-.1.3-.3v-.5z"/>
        </g>
        <g class="st35">
            <path class="st46" d="M183.3 180.6h-5.2c-9.2 0-11 4.7-14.5 7-2.5 1.6-4.6 1.7-6 2.1-2 .5-3.1 1.7-3.6 2.7s-.7 3.3-.7 4.4c0 1.3.9 1.8 1.7 1.8h38.8c.8 0 1.2-1 1.3-1.8.1-1.3.3-3.7 0-5-.9-4.3-4.3-11.2-11.8-11.2z"/>
            <path class="st38" d="M153.3 196.8v-.5l41.8-.6c0 .4-.1.8-.1 1.1-.1.8-.5 1.8-1.3 1.8h-38.8c-.7 0-1.6-.5-1.6-1.8z"/>
            <path class="st47" d="M191.8 198.6c0-4-2.5-5.6-5.6-5.6s-5.6 1.6-5.6 5.6h11.2z"/>
            <circle class="st39" cx="186.3" cy="198.7" r="4.4"/>
            <circle class="st38" cx="186.3" cy="198.7" r="2.9"/>
            <path class="st47" d="M168.3 198.6c0-4-2.5-5.6-5.6-5.6s-5.6 1.6-5.6 5.6h11.2z"/>
            <circle class="st39" cx="162.8" cy="198.7" r="4.4"/>
            <circle class="st38" cx="162.8" cy="198.7" r="2.9"/>
            <path class="st37" d="M195.6 192.8c.4.1 1.1.5 1.1 1v.1c0 .5-.5.9-.9 1 0-.7-.2-1.4-.2-2.1z"/>
            <path class="st36" d="M155.8 191.1c.5.3.7.9.4 1.5l-.4.8c-.3.5-.9.7-1.5.4l-.1-.1c-.2-.1-.4-.3-.5-.5.1-.3.2-.6.3-.8.2-.5.6-1 1.2-1.5.2 0 .3 0 .5.1l.1.1z"/>
            <path class="st41" d="M173.7 181.7s-5.3.9-8.5 6.9h8.5v-6.9z"/>
            <path class="st41" d="M174.7 182.6h9v6h-9z"/>
            <path class="st41" d="M184.7 181.7v6.9h6.8c2.6 0-1.8-6.7-6.8-6.9z"/>
            <path class="st39" d="M173 189.9c0 .2.2.3.3.3h1.2c.2 0 .3-.2.3-.3v-.2c0-.2-.2-.3-.3-.3h-1.2c-.2 0-.3.2-.3.3v.2z"/>
            <path class="st39" d="M182.4 189.9c0 .2.2.3.3.3h1.2c.2 0 .3-.2.3-.3v-.2c0-.2-.2-.3-.3-.3h-1.2c-.2 0-.3.2-.3.3v.2z"/>
            <path class="st47" d="M163.7 188.1c0-.2 1.1-.5 1.3-.5h3.1c.2 0-1.4.3-1.4.5v1.3c0 .2 1.6.3 1.4.3H165c-.2 0-1.3-.1-1.3-.3v-1.3z"/>
        </g>
        <g class="st35">
            <path class="st48" d="M368.4 179.6h-24.9c-3.8 0-6.6 8-8.7 8h-5.4c-2.8 0-4.7 3-4.7 5.8v3.3c0 1 .4-.1 1.4-.1H375.2c1 0 1.5 1.1 1.5.1V189c0-4.1-5.3-9.4-8.3-9.4z"/>
            <path class="st37" d="M376.7 192.1s-1-.1-1 1.1v.7c0 .8 0 .9 1 .9v-2.7z"/>
            <path class="st36" d="M327.7 191.8v-2c0-.1-.5-.3-.5-.4-1.2.9-2.5 2.4-2.5 4v.2h.7c1 .1 2.3-.8 2.3-1.8z"/>
            <path class="st41" d="M362.7 188.4c0 .7-.5 1.2-1.2 1.2H352c-.7 0-1.2-.5-1.2-1.2v-4.6c0-.7.5-1.2 1.2-1.2h9.5c.7 0 1.2.5 1.2 1.2v4.6z"/>
            <path class="st41" d="M375.3 187.9c.2.7-.5.8-1.2.8h-8.2c-.7 0-2.2-.4-2.2-1.1V183c0-.7 1.6-.4 2.2-.4h3.3c2.6 0 5.7 3.4 6.1 5.3z"/>
            <path class="st41" d="M348.7 187.5c0 .7 1.2 1.1.5 1.1h-9.4c-.7 0-1.2 0-1.2-.8 0-2.1 3.1-5.2 5.3-5.2h5.3c.7 0-.5-.3-.5.4v4.5z"/>
            <path class="st49" d="M326.1 196.6H375.2c1 0 1.5 1.1 1.5.1v-2.1h-52v2.1c0 1.1.4-.1 1.4-.1z"/>
            <path class="st49" d="M327.7 196.6c0-2 2.3-5.2 5.2-5.2 2.9 0 5.2 3.2 5.2 5.2h-10.4z"/>
            <circle class="st39" cx="332.8" cy="198.8" r="4.1"/>
            <circle class="st38" cx="332.8" cy="198.8" r="2.7"/>
            <path class="st49" d="M361.6 196.6c0-2 2.3-5.2 5.2-5.2 2.9 0 5.2 3.2 5.2 5.2h-10.4z"/>
            <circle class="st39" cx="366.7" cy="198.8" r="4.1"/>
            <circle class="st38" cx="366.7" cy="198.8" r="2.7"/>
            <path class="st39" d="M350.4 190.1c0 .2-.2.5-.4.5h-2.9c-.2 0-.4-.3-.4-.5s.2-.5.4-.5h2.9c.2 0 .4.3.4.5z"/>
            <path class="st39" d="M361.7 190.2c0 .2-.2.4-.4.4h-3.2c-.2 0-.4-.2-.4-.4v-.2c0-.2.2-.4.4-.4h3.2c.2 0 .4.2.4.4v.2z"/>
            <path class="st49" d="M337.7 187.6c0-.5.7-.8 1.1-.8h3.2c.5 0 .6.4.6.8v1.2c0 .5 0 .8-.5.8h-3.5c-.5 0-1-.3-1-.8l.1-1.2z"/>
        </g>
    </g>
</svg>
