<svg id="objects" xmlns="http://www.w3.org/2000/svg" viewBox="0 0 321.2 138.3">
    <style>
        .st0{fill:#c3d32a}.st1{fill:#b3ba27}.st2{fill:#d8c58b}.st3{fill:#e2d6b7}.st4{fill:#ccbfa2}.st5{fill:#b2a16f}.st6{fill:#8c372f}.st7{fill:#602724}.st8{fill:#ceb87c}.st9{fill:#c6af6f}.st10{fill:#80746f}.st11{fill:#af9658}.st12{fill:#2c555b}.st13{fill:none}.st14{fill:#75a9ab}.st15{fill:#9e8b5e}.st16{fill:#6b615d}.st17{fill:#af9c97}.st18{fill:#c1aca4}.st19{fill:#f8f2dc}.st20{fill:#1d4144}.st21{fill:#e8e1ca}.st22{fill:#244447}.st23{fill:#d1cab6}.st24{fill:#527022}.st25{fill:#659624}.st26{fill:#81a549}.st27{fill:#8abc3b}.st28{opacity:.51;fill:none;stroke:#d8c58b;stroke-miterlimit:10;enable-background:new}
    </style>
    <path class="st0" d="M310.7 114.1c-.8 0-1.6.1-2.3.3-1-8.1-8.5-14.4-17.6-14.4-4.1 0-7.9 1.3-11 3.5-2.6-3-6.4-4.9-10.6-4.9-2 0-4 .4-5.7 1.2-2.6-4-7.2-6.6-12.5-6.6-3.9 0-7.4 1.5-10.1 3.8-1.1-.3-2.3-.4-3.5-.4-7.6 0-13.7 6-14.3 13.7-2.8 1-5.2 3.1-6.8 6-.7-1.3-1.9-2.2-3.1-3-5.7-3.7-13.6-3.5-19.3.2s-9.1 10.6-8.9 17.4c.1 1.7.3 3.5.8 5.1h17.3l115.8.8c1.4-2.1 2.3-7.2 2.3-10.1-.1-7-4.7-12.6-10.5-12.6z"/>
    <path class="st1" d="M311.4 135.2v-.3c0-2.3-.5-4.5-1.4-6.4l-.2-1.7c0 .5.1 1.1.2 1.6-2.6-5.8-8.5-9.8-15.3-9.8-2.7 0-5.3.6-7.5 1.8-3.1-8.9-11.7-15.3-21.9-15.4-2.3 0-4.4.3-6.5.9-5.2-9-15.1-15.1-26.5-15.1-13.1 0-24.3 8-28.6 19.2-3.4-2.3-7.4-3.6-11.8-3.6-11.9 0-21.7 9.8-21.7 22 0 1.3.1 2.6.3 3.9 0 1.6.5 3.1 1.2 4.5h139.6c.1-.5.1-1 .1-1.6z"/>
    <path class="st2" d="M238.3 11.8l2.2 1.5-1.1-3.1z"/>
    <path class="st2" d="M244.9 4.4l.3 41.2 9.2 27.4-.2-68.1z"/>
    <path class="st3" d="M255 5l-10.3-.1V0l10.3.2z"/>
    <path class="st4" d="M244.7 0L238 8.7l.1 3.2 6.9-7.1z"/>
    <path class="st5" d="M239.4 10.2l.3 18.7 5.5 16.7-.2-40.8z"/>
    <path class="st6" d="M117.7 26.5l122.1.9 15.4 47H151.4z"/>
    <path class="st7" d="M171.4 27L203 72.8l-51.7.1-33.6-46.4z"/>
    <path class="st2" d="M150 136.7l-114.1-.6 1.5-75.3 56.2-43.4 57.8 42z"/>
    <path class="st8" d="M37.3 60.3l.3 8.5 61.4-47-5.4-4.4z"/>
    <path class="st9" d="M108.3 134c.3-.9-.9-74.7-.9-74.7l21.4-16.4 22.9 16.3.6 77.1-44.3-.7.3-1.6z"/>
    <path class="st2" d="M151.4 78.2h104v58.1h-104z"/>
    <path class="st10" d="M36.2 118.1h72.2v18.5H36.2z"/>
    <path class="st11" d="M144.3 72c0-4.8-6.9-8.8-15.4-8.8s-15.4 3.9-15.4 8.8c0 .3.1 42.3.1 47.1h30.7V72z"/>
    <path class="st8" d="M151.5 78.7h103.9v7.9H151.5z"/>
    <path class="st8" d="M150.9 79H186v57.5h-35.1z"/>
    <path class="st12" d="M56.7 120.6h22.9v10.9H56.7z"/>
    <path class="st13" d="M71.9 120.6l-7.8 11h1.5l7.8-11z"/>
    <path class="st14" d="M71.9 120.6h-2.6l-7.8 11h2.6z"/>
    <path class="st14" d="M65.6 131.6h4.8l8.5-11h-5.5z"/>
    <path class="st10" d="M217.9 118.6h37.4v18.5h-37.4z"/>
    <path class="st5" d="M93.7 17.6L69.4 36.3h50.1z"/>
    <path class="st15" d="M79.5 36.3L99 21.5l-5.3-3.9-25 18.8z"/>
    <path class="st15" d="M95.2 23.9l23.5 17.4 3.7-3L99 21.5z"/>
    <path class="st8" d="M111.8 36.3l7.2-.4 3.4 2.4-3.7 3z"/>
    <path class="st12" d="M62.5 110.6l-13.8.1V71.8h13.6z"/>
    <path class="st5" d="M51.6 110.7h-3.1V71.3h3.1z"/>
    <path class="st5" d="M48.5 71.3h13.8v2.9H48.5z"/>
    <path transform="translate(-.14 .096)" class="st2" d="M48.4 80.6h14.7v1.3H48.4z"/>
    <path class="st14" d="M51.5 97.2l10.9-15.3v2.9l-10.8 15.3z"/>
    <path class="st14" d="M51.6 102.3l10.8-15.1.1 6.4-11 14.1z"/>
    <path class="st12" d="M78.8 110.5l-13.8.1V71.7h13.6z"/>
    <path class="st5" d="M67.9 110.6h-3.1l.1-39.4h3z"/>
    <path class="st5" d="M64.9 71.2h13.8v2.9H64.9z"/>
    <path transform="translate(-.14 .124)" class="st2" d="M64.8 80.5h14.7v1.3H64.8z"/>
    <path class="st14" d="M67.8 97.1l10.9-15.3v2.9L67.9 100z"/>
    <path class="st14" d="M67.9 102.2L78.7 87l.1 6.5-10.9 14.1z"/>
    <g>
        <path class="st12" d="M94.8 110.5l-13.8.1V71.7h13.6z"/>
        <path class="st5" d="M83.9 110.6h-3.1V71.2h3.1z"/>
        <path class="st5" d="M80.8 71.2h13.8v2.9H80.8z"/>
        <path transform="translate(-.14 .152)" class="st2" d="M80.7 80.5h14.7v1.3H80.7z"/>
        <path class="st14" d="M83.8 97.1l10.9-15.3v2.9L83.9 100z"/>
        <path class="st14" d="M83.9 102.2L94.7 87l.1 6.5-11 14.1z"/>
    </g>
    <path class="st15" d="M94.9 68.3l14 14.3-1.5-23.1z"/>
    <path class="st16" d="M56.7 120.6h1.9v11h-1.9z"/>
    <g>
        <path class="st17" d="M111 122.6h33.2v5.5H111z"/>
        <path class="st18" d="M114.5 117.2h29.7v5.5h-29.7z"/>
        <path class="st18" d="M114.4 127.8h29.9v5.5h-29.9z"/>
        <path class="st17" d="M114.4 131.4h30.1v5.5h-30.1z"/>
    </g>
    <path class="st10" d="M148.5 117.3h21v19.5h-21z"/>
    <path class="st19" d="M151.3 72.8h104.5v6H151.3z"/>
    <path class="st16" d="M144.2 117.3h7.2v19.5h-7.2z"/>
    <path class="st16" d="M108.4 118.1h6.2v18.5h-6.2z"/>
    <g>
        <path class="st6" d="M119.4 74.2h18.9v43.2h-18.9z"/>
        <path class="st12" d="M123.3 79.1h10.3v29.2h-10.3z"/>
        <circle class="st11" cx="135.9" cy="99.8" r="1.5"/>
        <path class="st20" d="M123.3 79.1h2.4v29.1h-2.4z"/>
    </g>
    <path class="st20" d="M123.5 79h10.3v2.4h-10.3z"/>
    <g>
        <path class="st12" d="M164.6 90.9h53.5v45.9h-53.5z"/>
        <path class="st21" d="M164.5 90.8H186v12.3h-21.5z"/>
        <path class="st22" d="M164.4 102.6H186v34.2h-21.6z"/>
        <path class="st23" d="M164.5 90.8h21.3v3.5h-21.3z"/>
        <path class="st21" d="M185.8 90.8h32.3v3.5h-32.3z"/>
        <path class="st19" d="M185.9 94.2h32.2v8.4h-32.2z"/>
        <path class="st21" d="M164.4 107.6h21.5v2.9h-21.5z"/>
        <path class="st19" d="M185.8 107.6H218v2.9h-32.2z"/>
    </g>
    <g>
        <path class="st7" d="M271.9 121.7s4.6 4 3.9 15.2c0 0 2.9.8 3.9 0 0 0 .2-11.5 2.5-14.2l-.9.1-1.4 3.7s-.3.5-.8.2c0 0-.3 0-.3-.6v-2.6l-.9-.6.1 3s-.1 1.2-.5 1.2c0 0-.5.2-.8-.6 0 0-2.3-5.4-3.1-4.9-.2.1-1.7.3-1.7.3"/>
        <path class="st24" d="M291.8 77.3c-.4-25.2-9-42.2-14-42.2h-.4c-5 0-13.6 17-14 42.2-.1 7-1.2 23.1-.6 29 1.4 13.4 10.7 17.4 14.6 17.7h.4c3.9-.4 13.2-4.4 14.6-17.7.7-5.8-.5-22-.6-29z"/>
        <path class="st25" d="M292.1 77.6c-.4-25.2-9-42.2-14-42.2h-.4c-5 0-13.6 17-14 42.3-.1 5.4-.4 10.7-.6 16.1-.2 5.2-1 10.5 1.3 15.2.7 1.4 1.7 3 3.2 3.1 1.9.1 3-2.2 3.3-4 .1-.5.5-1.1.9-.8.1.1.1.2.2.3.5 1.2.9 2.5 1.4 3.7.4 1 .8 2 1.7 2.4 1.5.7 3.2-.6 4.2-2 1.1-1.6 1.8-3.3 2.2-5.2.4 1.3.9 2.6 1.5 3.9.8 1.6 2 3.3 3.8 3.2 1.1-.1 2-.9 2.5-1.9s2.6-2.4 2.7-3.3c.7-4 .8-11.7.7-14.9-.2-5.4-.5-10.7-.6-15.9z"/>
        <path class="st26" d="M292 77.3c-.4-25.2-9-42.2-14-42.2h-.4c-5 0-13.6 17-14 42.2-.1 5.4-2.1 12.5 1.5 17 .9 1.2 2.3 2.1 3.8 2.1 1.7.1 3.4-1 4.4-2.3 1.1-1.4 1.6-3.1 2.2-4.7.6 2.2 1.2 4.5 2.3 6.5 1.1 2 2.9 3.8 5.1 4.5.9.3 1.8.4 2.7 0 1.3-.6 1.9-2 2.3-3.3.7-2.3.9-4.7.6-7.1.1 1.2.5 2.3 1 3.4.2.4.4.7.7.9 3.5 2.3 2.2-5.7 2.1-6.6-.1-3.4-.2-6.9-.3-10.4z"/>
        <path class="st27" d="M291.6 77.2c.1-.2.2-.5.2-.7.3-1.4-.2-3.3-.3-4.7-.2-3-.5-6-1-9-.8-5-1.9-9.9-3.6-14.7-1.3-3.6-4.3-12.7-9.2-13.1h-.5c-4.7 0-7.8 9.2-9 12.5-1.7 4.7-2.9 9.5-3.6 14.4-.5 2.9-.8 5.9-1 8.8-.1 2-1.2 6.1-.1 7.8.8 1.1 2.7 1.5 3.8.6 1.9-1.5 1.2-4.9 3-6.6.6 2.1 1.6 4 2.9 5.7.7.9 1.5 1.8 2.6 2.1 2 .5 3.9-1.2 4.7-3 .8-1.9.7-4 1.1-6 .4 2.3 1 4.6 1.9 6.8.4 1.1 1 2.2 1.9 2.9.9.7 2.3 1 3.3.3.4-.3.7-.8 1-1.3.6-.6 1.5-1.7 1.9-2.8z"/>
    </g>
    <g>
        <path class="st28" d="M122.4 30.7l118.6-.1"/>
        <path class="st28" d="M131.3 36.6l111.4-.5"/>
        <path class="st28" d="M135.4 41l109.1.1"/>
        <path class="st28" d="M143.2 47.8l103.5.5"/>
        <path class="st28" d="M153.6 56.3h95.8"/>
        <path class="st28" d="M162.7 65.5l90-.2"/>
    </g>
    <g>
        <path class="st19" d="M167.7 63.2l-73-54.3-73.4 56.2 3.8 5 69-52.3 69.5 50.7z"/>
        <path class="st19" d="M89.5 63.2l4.9 6.1 36.9-28.4-6.5-4.2z"/>
    </g>
    <g>
        <path class="st7" d="M9.3 123s4.8 3.3 4 14.5c0 0 2.8 1.3 3.8.5 0 0 .3-11.3 2.5-14l-.9.1-1.4 3.7s-.3.5-.8.2c0 0-.3 0-.3-.6v-2.6l-.9-.6.1 3s-.1 1.2-.5 1.2c0 0-.5.2-.8-.6 0 0-2.3-5.4-3.1-4.9-.2.1-1.7.3-1.7.3"/>
        <path class="st24" d="M29.2 78.6c-.4-25.2-9-42.3-14-42.3h-.4c-5 0-13.6 17-14 42.3-.1 7-1.2 23.1-.6 29C1.7 121 10.9 125 14.9 125.3h.4c3.9-.4 13.2-4.4 14.6-17.7.6-5.8-.6-22-.7-29z"/>
        <path class="st25" d="M29.5 78.9c-.4-25.2-9-42.3-14-42.3h-.4c-5 0-13.6 17-14 42.3 0 5.3-.4 10.7-.6 16-.2 5.2-1 10.5 1.3 15.2.7 1.4 1.7 3 3.2 3.1 1.9.1 3-2.2 3.3-4 .1-.5.5-1.1.9-.8.1.1.1.2.2.3.5 1.2.9 2.5 1.4 3.7.4 1 .8 2 1.7 2.4 1.5.7 3.2-.6 4.2-2 1.1-1.6 1.8-3.3 2.2-5.2.4 1.3.9 2.6 1.5 3.9.8 1.6 2 3.3 3.8 3.2 1.1-.1 2-.9 2.5-1.9s2.6-2.6 3.2-3.4c2-2.7.3-11.5.2-14.8-.2-5.2-.5-10.5-.6-15.7z"/>
        <path class="st26" d="M29.4 78.6c-.4-25.2-9-42.3-14-42.3H15c-5 0-13.6 17-14 42.3-.1 5.4-2.1 12.5 1.5 17 .9 1.2 2.3 2.1 3.8 2.1 1.7.1 3.4-1 4.4-2.3 1.1-1.4 1.6-3.1 2.2-4.7.6 2.2 1.2 4.5 2.3 6.5s2.9 3.8 5.1 4.5c.9.3 1.8.4 2.7 0 1.3-.6 1.9-2 2.3-3.3.7-2.3.9-4.7.6-7.1.1 1.2.5 2.3 1 3.4.2.4.4.7.7.9 3.5 2.3 2.2-5.7 2.1-6.6-.1-3.4-.3-6.9-.3-10.4z"/>
        <path class="st27" d="M29 78.5c.1-.2.2-.5.2-.7.3-1.4-.2-3.3-.3-4.7-.2-3-.5-6-1-9-.8-5-1.9-9.9-3.6-14.7-1.3-3.6-4.3-12.7-9.2-13.1h-.5c-4.7 0-7.8 9.2-9 12.5-1.7 4.7-2.9 9.5-3.6 14.4-.5 2.9-.8 5.9-1 8.8-.1 2-1.2 6.1-.1 7.8.8 1.1 2.7 1.5 3.8.6 1.9-1.5 1.2-4.9 3-6.6.6 2.1 1.6 4 2.9 5.7.7.9 1.5 1.8 2.6 2.1 2 .5 3.9-1.2 4.7-3 .8-1.9.7-4 1.1-6 .4 2.3 1 4.6 1.9 6.8.4 1.1 1 2.2 1.9 2.9.9.7 2.3 1 3.3.3.4-.3.7-.8 1-1.3.6-.7 1.5-1.7 1.9-2.8z"/>
    </g>
</svg>
