<svg id="objects" xmlns="http://www.w3.org/2000/svg" viewBox="0 0 284 175.3">
    <style>
        .st0{display:none;opacity:.33;fill:#dddad3}.st1{fill:#f2ecd4}.st2{fill:#fff}.st3{fill:#edeae4}.st4{fill:#e2d9bf}.st5{fill:#d1c9b0}.st6{fill:#d1c7a7}.st7{opacity:.25}.st8{fill:none;stroke:#968d75;stroke-miterlimit:10}.st9{fill:#e2e0dc}.st10{fill:#ccc9c2}.st11{fill:none;stroke:#77c7c8;stroke-width:2;stroke-miterlimit:10}.st12{fill:#bfb391}.st13{fill:#c1baa8}.st14{fill:none;stroke:#2eb220;stroke-miterlimit:10}.st15{fill:#65b7b7}.st16{fill:#2c555b}.st17{fill:none;stroke:#fff;stroke-miterlimit:10}.st18{fill:#4b9694}.st19{fill:#77c7c8}.st20{fill:none;stroke:#3d5150;stroke-miterlimit:10}.st21{opacity:.57;fill:#75a9ab}.st22{fill:#254849}.st23{fill:none;stroke:#2c555b;stroke-miterlimit:10}.st24{opacity:.57}.st25{fill:#2eb220}.st26{fill:#75a9ab}.st27{fill:#bcb193}.st28{fill:#afa58b}.st29{fill:none;stroke:#e0dcd1;stroke-miterlimit:10}.st30{fill:#58a0a0}.st31{fill:#6bb2b2}.st32{opacity:.54;fill:#d1c9b0}.st33{fill:#3d5150}.st34{fill:#e8e4da}
    </style>
    <ellipse class="st0" cx="101.8" cy="176.8" rx="108.7" ry="9"/>
    <path class="st1" d="M133.3 8.8l-49.8-.5-50.6 57.9-4.7 5.4V165h163.4l-.9-93.4z"/>
    <path class="st2" d="M35.2 70.4h10.2l135.1.1 6 7.6-159.1.4z"/>
    <path class="st3" d="M30.3 78.5l4.6-5 148.3.4 3.3 4.2z"/>
    <path class="st4" d="M197.9 173.8H16.1c-.7 0-1.3-.6-1.3-1.3V86.2c0-.7.6-1.3 1.3-1.3h181.8c.7 0 1.3.6 1.3 1.3v86.3c-.1.7-.7 1.3-1.3 1.3z"/>
    <path class="st5" d="M14.5 83.1l.4 21.9 85-96.7-16-1-56.5 63"/>
    <path class="st4" d="M101.1 77.4h14.7v61.1h-14.7z"/>
    <path class="st4" d="M101.8 83.5H151.5V131.9l-6.9.9-.1-41.7-42.6.1z"/>
    <path class="st6" d="M26.3 136.6h165v36.6h-165z"/>
    <g class="st7">
        <path class="st8" d="M81.7 15.3c1.8 1.6 4.4 1.6 5.7.1 1.3-1.5.9-4-1-5.6l-.1-.1-4.7 5.5c0 .1.1.1.1.1z"/>
        <path class="st8" d="M81.7 15.3c1.8 1.6 4.4 1.6 5.7.1 1.3-1.5.9-4-1-5.6l-.1-.1-4.7 5.5c0 .1.1.1.1.1z"/>
        <path class="st8" d="M77.1 20.7c1.8 1.6 4.4 1.6 5.7.1 1.3-1.5.9-4-1-5.6l-.1-.1-4.7 5.5c.1 0 .1 0 .1.1z"/>
        <path class="st8" d="M77.1 20.7c1.8 1.6 4.4 1.6 5.7.1 1.3-1.5.9-4-1-5.6l-.1-.1-4.7 5.5c.1 0 .1 0 .1.1z"/>
        <path class="st8" d="M72.6 26c1.8 1.6 4.4 1.6 5.7.1 1.3-1.5.9-4-1-5.6l-.1-.1-4.7 5.5s0 .1.1.1z"/>
        <path class="st8" d="M72.6 26c1.8 1.6 4.4 1.6 5.7.1 1.3-1.5.9-4-1-5.6l-.1-.1-4.7 5.5s0 .1.1.1z"/>
        <path class="st8" d="M68 31.4c1.8 1.6 4.4 1.6 5.7.1 1.3-1.5.9-4-1-5.6l-.1-.1-4.7 5.5c.1 0 .1 0 .1.1z"/>
        <path class="st8" d="M68 31.4c1.8 1.6 4.4 1.6 5.7.1 1.3-1.5.9-4-1-5.6l-.1-.1-4.7 5.5c.1 0 .1 0 .1.1z"/>
        <path class="st8" d="M63.5 36.7c1.8 1.6 4.4 1.6 5.7.1 1.3-1.5.9-4-1-5.6l-.1-.1-4.7 5.5s0 .1.1.1z"/>
        <path class="st8" d="M63.5 36.7c1.8 1.6 4.4 1.6 5.7.1 1.3-1.5.9-4-1-5.6l-.1-.1-4.7 5.5s0 .1.1.1z"/>
        <path class="st8" d="M58.9 42c1.8 1.6 4.4 1.6 5.7.1 1.3-1.5.9-4-1-5.6l-.1-.1-4.7 5.5c0 .1.1.1.1.1z"/>
        <path class="st8" d="M58.9 42c1.8 1.6 4.4 1.6 5.7.1 1.3-1.5.9-4-1-5.6l-.1-.1-4.7 5.5c0 .1.1.1.1.1z"/>
        <path class="st8" d="M54.4 47.4c1.8 1.6 4.4 1.6 5.7.1 1.3-1.5.9-4-1-5.6l-.1-.1-4.7 5.5.1.1z"/>
        <path class="st8" d="M54.4 47.4c1.8 1.6 4.4 1.6 5.7.1 1.3-1.5.9-4-1-5.6l-.1-.1-4.7 5.5.1.1z"/>
        <path class="st8" d="M49.8 52.7c1.8 1.6 4.4 1.6 5.7.1 1.3-1.5.9-4-1-5.6l-.1-.1-4.7 5.5.1.1z"/>
        <path class="st8" d="M49.8 52.7c1.8 1.6 4.4 1.6 5.7.1 1.3-1.5.9-4-1-5.6l-.1-.1-4.7 5.5.1.1z"/>
        <path class="st8" d="M45.3 58c1.8 1.6 4.4 1.6 5.7.1 1.3-1.5.9-4-1-5.6l-.1-.1-4.7 5.5c0 .1 0 .1.1.1z"/>
        <path class="st8" d="M45.3 58c1.8 1.6 4.4 1.6 5.7.1 1.3-1.5.9-4-1-5.6l-.1-.1-4.7 5.5c0 .1 0 .1.1.1z"/>
        <path class="st8" d="M40.7 63.4c1.8 1.6 4.4 1.6 5.7.1 1.3-1.5.9-4-1-5.6l-.1-.1-4.7 5.5s.1 0 .1.1z"/>
        <path class="st8" d="M40.7 63.4c1.8 1.6 4.4 1.6 5.7.1 1.3-1.5.9-4-1-5.6l-.1-.1-4.7 5.5s.1 0 .1.1z"/>
        <path class="st8" d="M36.2 68.7c1.8 1.6 4.4 1.6 5.7.1 1.3-1.5.9-4-1-5.6l-.1-.1-4.8 5.5c.1 0 .1.1.2.1z"/>
        <path class="st8" d="M36.2 68.7c1.8 1.6 4.4 1.6 5.7.1 1.3-1.5.9-4-1-5.6l-.1-.1-4.8 5.5c.1 0 .1.1.2.1z"/>
        <path class="st8" d="M31.6 74.1c1.8 1.6 4.4 1.6 5.7.1 1.3-1.5.9-4-1-5.6l-.1-.1-4.7 5.5s.1 0 .1.1z"/>
        <path class="st8" d="M31.6 74.1c1.8 1.6 4.4 1.6 5.7.1 1.3-1.5.9-4-1-5.6l-.1-.1-4.7 5.5s.1 0 .1.1z"/>
        <path class="st8" d="M27.1 79.4c1.8 1.6 4.4 1.6 5.7.1 1.3-1.5.9-4-1-5.6l-.1-.1-4.7 5.5s0 .1.1.1z"/>
        <path class="st8" d="M27.1 79.4c1.8 1.6 4.4 1.6 5.7.1 1.3-1.5.9-4-1-5.6l-.1-.1-4.7 5.5s0 .1.1.1z"/>
        <path class="st8" d="M22.5 84.7c1.8 1.6 4.4 1.6 5.7.1 1.3-1.5.9-4-1-5.6l-.1-.1-4.7 5.5c0 .1.1.1.1.1z"/>
    </g>
    <path class="st9" d="M45.2 70.4l-10.5-.1-3.8 4.4 9.9.2z"/>
    <path class="st10" d="M42 73.5l-3.9 5h-9.8l4.5-5.2z"/>
    <path class="st4" d="M51 64.3l23-26.4v5.6l-18 21z"/>
    <path class="st11" d="M52 63.3c4.4-4.9 22-25.4 22-25.4v26.4H52.4c-.5 0-.8-.6-.4-1z"/>
    <path class="st11" d="M162.5 64.3c-1.1-.8-23-26.4-23-26.4v26.4h23z"/>
    <path class="st11" d="M32.3 93.2h13.2v34.6H32.3z"/>
    <path class="st2" d="M13.9 136.3h100v2.1h-100z"/>
    <path class="st12" d="M26.5 164.8h86.9v9.4H26.5z"/>
    <path class="st12" d="M172.9 165h18.4v8.8h-18.4z"/>
    <path class="st4" d="M123.1 135.9H161v9.2h-37.9z"/>
    <path class="st13" d="M123.1 144.9H161v9.2h-37.9z"/>
    <path class="st4" d="M123.1 153.9H161v9.2h-37.9z"/>
    <path class="st13" d="M123.1 162.9H161v10.9h-37.9z"/>
    <path class="st15" d="M155 111.6c0 .5 0 23.7-.1 24.3 0 .1 0 .3-.1.3-5.7 0-20.6-.3-24.9-.3-.4 0-.1-23.9-.1-24.3 0-6.3 5.6-11.4 12.6-11.4s12.6 5.2 12.6 11.4z"/>
    <path class="st16" d="M151.1 114.7v-2.9c0-4.3-3.9-7.9-8.7-7.9-4.8 0-8.7 3.5-8.7 7.9v2.9h17.4z"/>
    <path class="st17" d="M133.8 124.2h17.3v9.5h-17.3z"/>
    <path class="st18" d="M150.8 117.5h2.4v4.9h-2.4z"/>
    <path class="st19" d="M113.4 135.5h11.9v38.7h-11.9z"/>
    <path class="st11" d="M174.3 93.5h11.2v36.9h-11.2z"/>
    <path class="st2" d="M172.8 136.6h18.9v2.1h-18.9z"/>
    <path class="st20" d="M79.9 14.7c1.8 1.6 4.4 1.6 5.7.1 1.3-1.5.9-4-1-5.6l-.1-.1-4.7 5.5s0 .1.1.1z"/>
    <path class="st20" d="M79.9 14.7c1.8 1.6 4.4 1.6 5.7.1 1.3-1.5.9-4-1-5.6l-.1-.1-4.7 5.5s0 .1.1.1z"/>
    <path class="st20" d="M75.3 20c1.8 1.6 4.4 1.6 5.7.1 1.3-1.5.9-4-1-5.6l-.1-.1-4.7 5.5c0 .1.1.1.1.1z"/>
    <path class="st20" d="M75.3 20c1.8 1.6 4.4 1.6 5.7.1 1.3-1.5.9-4-1-5.6l-.1-.1-4.7 5.5c0 .1.1.1.1.1z"/>
    <path class="st20" d="M70.7 25.4c1.8 1.6 4.4 1.6 5.7.1 1.3-1.5.9-4-1-5.6l-.1-.1-4.7 5.5c.1 0 .1 0 .1.1z"/>
    <path class="st20" d="M70.7 25.4c1.8 1.6 4.4 1.6 5.7.1 1.3-1.5.9-4-1-5.6l-.1-.1-4.7 5.5c.1 0 .1 0 .1.1z"/>
    <path class="st20" d="M66.2 30.7c1.8 1.6 4.4 1.6 5.7.1 1.3-1.5.9-4-1-5.6l-.1-.1-4.7 5.5s0 .1.1.1z"/>
    <path class="st20" d="M66.2 30.7c1.8 1.6 4.4 1.6 5.7.1 1.3-1.5.9-4-1-5.6l-.1-.1-4.7 5.5s0 .1.1.1z"/>
    <path class="st20" d="M61.6 36.1c1.8 1.6 4.4 1.6 5.7.1 1.3-1.5.9-4-1-5.6l-.1-.1-4.7 5.5c.1 0 .1 0 .1.1z"/>
    <path class="st20" d="M61.6 36.1c1.8 1.6 4.4 1.6 5.7.1 1.3-1.5.9-4-1-5.6l-.1-.1-4.7 5.5c.1 0 .1 0 .1.1z"/>
    <path class="st20" d="M57.1 41.4c1.8 1.6 4.4 1.6 5.7.1 1.3-1.5.9-4-1-5.6l-.1-.1-4.7 5.5s0 .1.1.1z"/>
    <path class="st20" d="M57.1 41.4c1.8 1.6 4.4 1.6 5.7.1 1.3-1.5.9-4-1-5.6l-.1-.1-4.7 5.5s0 .1.1.1z"/>
    <path class="st20" d="M52.5 46.7c1.8 1.6 4.4 1.6 5.7.1 1.3-1.5.9-4-1-5.6l-.1-.1-4.7 5.5.1.1z"/>
    <path class="st20" d="M52.5 46.7c1.8 1.6 4.4 1.6 5.7.1 1.3-1.5.9-4-1-5.6l-.1-.1-4.7 5.5.1.1z"/>
    <path class="st20" d="M48 52.1c1.8 1.6 4.4 1.6 5.7.1 1.3-1.5.9-4-1-5.6l-.1-.1-4.7 5.5.1.1z"/>
    <path class="st20" d="M48 52.1c1.8 1.6 4.4 1.6 5.7.1 1.3-1.5.9-4-1-5.6l-.1-.1-4.7 5.5.1.1z"/>
    <path class="st20" d="M43.4 57.4c1.8 1.6 4.4 1.6 5.7.1 1.3-1.5.9-4-1-5.6l-.1-.1-4.7 5.5.1.1z"/>
    <path class="st20" d="M43.4 57.4c1.8 1.6 4.4 1.6 5.7.1 1.3-1.5.9-4-1-5.6l-.1-.1-4.7 5.5.1.1z"/>
    <path class="st20" d="M38.9 62.7c1.8 1.6 4.4 1.6 5.7.1 1.3-1.5.9-4-1-5.6l-.1-.1-4.7 5.5c0 .1 0 .1.1.1z"/>
    <path class="st20" d="M38.9 62.7c1.8 1.6 4.4 1.6 5.7.1 1.3-1.5.9-4-1-5.6l-.1-.1-4.7 5.5c0 .1 0 .1.1.1z"/>
    <path class="st20" d="M34.3 68.1c1.8 1.6 4.4 1.6 5.7.1 1.3-1.5.9-4-1-5.6l-.1-.1-4.7 5.5s.1 0 .1.1z"/>
    <path class="st20" d="M34.3 68.1c1.8 1.6 4.4 1.6 5.7.1 1.3-1.5.9-4-1-5.6l-.1-.1-4.7 5.5s.1 0 .1.1z"/>
    <path class="st20" d="M29.8 73.4c1.8 1.6 4.4 1.6 5.7.1 1.3-1.5.9-4-1-5.6l-.1-.1-4.7 5.5s0 .1.1.1z"/>
    <path class="st20" d="M29.8 73.4c1.8 1.6 4.4 1.6 5.7.1 1.3-1.5.9-4-1-5.6l-.1-.1-4.7 5.5s0 .1.1.1z"/>
    <path class="st20" d="M25.2 78.8c1.8 1.6 4.4 1.6 5.7.1 1.3-1.5.9-4-1-5.6l-.1-.1-4.7 5.5s.1 0 .1.1z"/>
    <path class="st20" d="M25.2 78.8c1.8 1.6 4.4 1.6 5.7.1 1.3-1.5.9-4-1-5.6l-.1-.1-4.7 5.5s.1 0 .1.1z"/>
    <path class="st20" d="M20.7 84.1c1.8 1.6 4.4 1.6 5.7.1 1.3-1.5.9-4-1-5.6l-.1-.1-4.8 5.5c.1 0 .1.1.2.1z"/>
    <path class="st21" d="M104.4 53.7l12.8-18v2.4l-11 15.6z"/>
    <g>
        <path class="st19" d="M82.1 27.8h49.3V70H82.1z"/>
        <path class="st16" d="M84.6 35h9.7v23.5h-9.7z"/>
        <path class="st16" d="M118.8 35.1h9.7v23.5h-9.7z"/>
        <path class="st16" d="M97.4 35h19.3v23.1H97.4z"/>
        <path class="st22" d="M84.6 35h3.2v23.1h-3.2z"/>
        <path class="st22" d="M84.6 35h9.7v3.1h-9.7z"/>
        <path class="st19" d="M83.5 41.2h45.9v1.6H83.5z"/>
        <path class="st23" d="M84.8 61.9h8.4v5.8h-8.4z"/>
        <path class="st23" d="M120.1 61.8h8.4v5.8h-8.4z"/>
        <path class="st23" d="M98.2 61.9h17.9v5.8H98.2z"/>
        <path class="st22" d="M97.4 35h19.3v3.2H97.4z"/>
        <path class="st22" d="M118.8 34.8h9.8V38h-9.8z"/>
        <path class="st16" d="M82.1 30.3h49.3v1.3H82.1z"/>
        <g class="st24">
            <path class="st25" d="M118.8 58.7h.1v-.1z"/>
        </g>
        <g>
            <g class="st24">
                <path class="st26" d="M128.6 44.9v-2.1l-9.8 12.1v2.3z"/>
                <path class="st26" d="M128.6 51.4v-4.8l-9.8 12v.1h3.4z"/>
                <path class="st25" d="M118.8 58.7v-.1z"/>
            </g>
            <g class="st24">
                <path class="st26" d="M94.3 44.8l.1-2-9.8 12.1v2.2z"/>
                <path class="st26" d="M94.4 51.3l-.1-4.8-9.7 12v.1h3.3z"/>
                <path class="st25" d="M84.5 58.6h.1v-.1z"/>
            </g>
            <g class="st24">
                <path class="st26" d="M116.7 44.9v-2.1l-12.3 15.3 1.8-.1z"/>
                <path class="st26" d="M116.7 51.4v-4.8l-9.3 11.5h3.4z"/>
                <path class="st25" d="M106.9 58.6h.1v-.1z"/>
            </g>
        </g>
    </g>
    <g>
        <path class="st19" d="M54.5 86.5h49.3v42.2H54.5z"/>
        <path class="st16" d="M57 93.6h9.7v23.5H57z"/>
        <path class="st16" d="M91.2 93.7h9.7v23.5h-9.7z"/>
        <path class="st16" d="M69.8 93.6h19.3v23.1H69.8z"/>
        <path class="st22" d="M57 93.7h3.2v23.1H57z"/>
        <path class="st22" d="M57 93.6h9.7v3.1H57z"/>
        <path class="st19" d="M55.9 99.9h45.9v1.6H55.9z"/>
        <path class="st23" d="M57.2 120.5h8.4v5.8h-8.4z"/>
        <path class="st23" d="M92.4 120.5h8.4v5.8h-8.4z"/>
        <path class="st23" d="M70.5 120.5h17.9v5.8H70.5z"/>
        <path class="st22" d="M69.8 93.7h19.3v3.2H69.8z"/>
        <path class="st22" d="M91.2 93.4h9.7v3.2h-9.7z"/>
        <path class="st16" d="M54.5 88.9h49.3v1.3H54.5z"/>
        <g>
            <g class="st24">
                <path class="st26" d="M101 103.6v-2.1l-9.8 12.1v2.2z"/>
                <path class="st26" d="M101 110.1l-.1-4.9-9.7 12v.1h3.4z"/>
                <path class="st25" d="M91.1 117.3h.1v-.1z"/>
            </g>
            <g class="st24">
                <path class="st26" d="M66.7 103.5v-2.1L57 113.5v2.2z"/>
                <path class="st26" d="M66.7 110v-4.9l-9.7 12v.1h3.3z"/>
                <path class="st25" d="M56.9 117.2h.1v-.1z"/>
            </g>
            <g class="st24">
                <path class="st26" d="M89.1 103.5v-2.1l-12.3 15.3h1.8z"/>
                <path class="st26" d="M89.1 110v-4.8l-9.4 11.5h3.5z"/>
                <path class="st25" d="M79.3 117.3v-.1z"/>
            </g>
        </g>
    </g>
    <path class="st27" d="M101 138.3h12.5v26.4H101z"/>
    <path class="st28" d="M100.7 164.8h12.7v9.1h-12.7z"/>
    <path class="st29" d="M101 141.5h8.3v18.3H101"/>
    <g>
        <path class="st17" d="M175.2 143.9h11.7v16.5h-11.7z"/>
        <path class="st17" d="M30.7 141.5h15.5v18.2H30.7z"/>
        <path class="st17" d="M51.9 141.5h15.5v18.2H51.9z"/>
        <path class="st17" d="M72.8 141.5h15.5v18.2H72.8z"/>
        <path class="st17" d="M101.1 141.5h-8.2v18.3h8.2"/>
    </g>
    <path class="st27" d="M13.9 138.4h12.7v26.4H13.9z"/>
    <path class="st28" d="M14 164.7h12.6v9.7H14z"/>
    <g>
        <path class="st19" d="M173.6 88.3h-60.9c-1.1 0-2-.9-2-2v-7c0-1.1.9-2 2-2h60.9c1.1 0 2 .9 2 2v7c0 1.1-.9 2-2 2z"/>
        <path class="st19" d="M114.8 91.7h6.4v40.1h-6.4z"/>
        <path class="st30" d="M113.5 87.5h9.1v5.3h-9.1z"/>
        <path transform="rotate(-180 168.389 111.866)" class="st19" d="M165.2 91.8h6.4v40.1h-6.4z"/>
        <path transform="rotate(-180 168.319 90.295)" class="st30" d="M163.8 87.6h9.1v5.3h-9.1z"/>
        <path class="st23" d="M113.4 79.5h59v5.7h-59z"/>
        <path class="st19" d="M161 135.9h11.9V174H161z"/>
        <path class="st30" d="M114.3 130.9h8.3v4.6h-8.3z"/>
        <path transform="rotate(-180 167.935 133.507)" class="st30" d="M163.8 131.1h8.3v4.9h-8.3z"/>
        <path class="st31" d="M121.7 135.5h3.7v38.7h-3.7z"/>
        <path class="st31" d="M161 135.9h3.7v37.8H161z"/>
    </g>
    <path class="st5" d="M89 17.5h46.9l-5.8-7.8-41.6.5.3 5.6.8 1.3"/>
    <g>
        <path class="st20" d="M89.2 9.5c0 2.4 1.6 4.4 3.5 4.4s3.4-2 3.4-4.5v-.2l-6.8.1c-.1.1-.1.2-.1.2z"/>
        <path class="st20" d="M96.1 9.4c0 2.4 1.6 4.4 3.5 4.4s3.4-2 3.4-4.5v-.2l-6.8.1c-.1 0-.1.1-.1.2z"/>
        <path class="st20" d="M102.8 9.3c0 2.4 1.6 4.4 3.5 4.4s3.4-2 3.4-4.5V9l-6.8.1c-.1.1-.1.1-.1.2z"/>
        <path class="st20" d="M109.5 9.2c0 2.4 1.6 4.4 3.5 4.4s3.4-2 3.4-4.5v-.2l-6.9.1v.2z"/>
        <path class="st20" d="M116.3 9.5c0 2.4 1.6 4.4 3.5 4.4s3.4-2 3.4-4.5v-.2l-6.8.1c-.1.1-.1.2-.1.2z"/>
    </g>
    <g>
        <path class="st32" d="M200.8 81.1l-.4 21.9-74.9-85.7 5.9-12 56.5 63"/>
        <g class="st7">
            <path class="st8" d="M132.3 12.2c-2.4 2.1-5.5 2.4-6.8.8-1.4-1.6-.5-4.6 1.9-6.6.1-.1.1-.1.2-.1l4.9 5.8c-.1 0-.2.1-.2.1z"/>
            <path class="st8" d="M132.3 12.2c-2.4 2.1-5.5 2.4-6.8.8-1.4-1.6-.5-4.6 1.9-6.6.1-.1.1-.1.2-.1l4.9 5.8c-.1 0-.2.1-.2.1z"/>
            <path class="st8" d="M137 17.8c-2.4 2.1-5.5 2.4-6.8.8-1.4-1.6-.5-4.6 1.9-6.6.1-.1.1-.1.2-.1l4.9 5.8c-.1 0-.1.1-.2.1z"/>
            <path class="st8" d="M137 17.8c-2.4 2.1-5.5 2.4-6.8.8-1.4-1.6-.5-4.6 1.9-6.6.1-.1.1-.1.2-.1l4.9 5.8c-.1 0-.1.1-.2.1z"/>
            <path class="st8" d="M141.8 23.4c-2.4 2.1-5.5 2.4-6.8.8-1.4-1.6-.5-4.6 1.9-6.6.1-.1.1-.1.2-.1l4.9 5.8c-.1 0-.1.1-.2.1z"/>
            <path class="st8" d="M141.8 23.4c-2.4 2.1-5.5 2.4-6.8.8-1.4-1.6-.5-4.6 1.9-6.6.1-.1.1-.1.2-.1l4.9 5.8c-.1 0-.1.1-.2.1z"/>
            <path class="st8" d="M146.6 29c-2.4 2.1-5.5 2.4-6.8.8-1.4-1.6-.5-4.6 1.9-6.6.1-.1.1-.1.2-.1l4.9 5.8c-.1 0-.2 0-.2.1z"/>
            <path class="st8" d="M146.6 29c-2.4 2.1-5.5 2.4-6.8.8-1.4-1.6-.5-4.6 1.9-6.6.1-.1.1-.1.2-.1l4.9 5.8c-.1 0-.2 0-.2.1z"/>
            <path class="st8" d="M151.3 34.6c-2.4 2.1-5.5 2.4-6.8.8s-.5-4.6 1.9-6.6c.1-.1.1-.1.2-.1l4.9 5.8c-.1 0-.1 0-.2.1z"/>
            <path class="st8" d="M151.3 34.6c-2.4 2.1-5.5 2.4-6.8.8s-.5-4.6 1.9-6.6c.1-.1.1-.1.2-.1l4.9 5.8c-.1 0-.1 0-.2.1z"/>
            <path class="st8" d="M156.1 40.2c-2.4 2.1-5.5 2.4-6.8.8-1.4-1.6-.5-4.6 1.9-6.6.1-.1.1-.1.2-.1l4.9 5.8c-.1 0-.1 0-.2.1z"/>
            <path class="st8" d="M156.1 40.2c-2.4 2.1-5.5 2.4-6.8.8-1.4-1.6-.5-4.6 1.9-6.6.1-.1.1-.1.2-.1l4.9 5.8c-.1 0-.1 0-.2.1z"/>
            <path class="st8" d="M160.9 45.8c-2.4 2.1-5.5 2.4-6.8.8-1.4-1.6-.5-4.6 1.9-6.6.1-.1.1-.1.2-.1l4.9 5.8c-.1 0-.2 0-.2.1z"/>
            <path class="st8" d="M160.9 45.8c-2.4 2.1-5.5 2.4-6.8.8-1.4-1.6-.5-4.6 1.9-6.6.1-.1.1-.1.2-.1l4.9 5.8c-.1 0-.2 0-.2.1z"/>
            <path class="st8" d="M165.6 51.3c-2.4 2.1-5.5 2.4-6.8.8-1.4-1.6-.5-4.6 1.9-6.6.1-.1.1-.1.2-.1l4.9 5.8c-.1 0-.1.1-.2.1z"/>
            <path class="st8" d="M165.6 51.3c-2.4 2.1-5.5 2.4-6.8.8-1.4-1.6-.5-4.6 1.9-6.6.1-.1.1-.1.2-.1l4.9 5.8c-.1 0-.1.1-.2.1z"/>
            <path class="st8" d="M170.4 56.9c-2.4 2.1-5.5 2.4-6.8.8-1.4-1.6-.5-4.6 1.9-6.6.1-.1.1-.1.2-.1l4.9 5.8c-.1 0-.1.1-.2.1z"/>
            <path class="st8" d="M170.4 56.9c-2.4 2.1-5.5 2.4-6.8.8-1.4-1.6-.5-4.6 1.9-6.6.1-.1.1-.1.2-.1l4.9 5.8c-.1 0-.1.1-.2.1z"/>
            <path class="st8" d="M175.2 62.5c-2.4 2.1-5.5 2.4-6.8.8-1.4-1.6-.5-4.6 1.9-6.6.1-.1.1-.1.2-.1l4.9 5.8c-.1 0-.2.1-.2.1z"/>
            <path class="st8" d="M175.2 62.5c-2.4 2.1-5.5 2.4-6.8.8-1.4-1.6-.5-4.6 1.9-6.6.1-.1.1-.1.2-.1l4.9 5.8c-.1 0-.2.1-.2.1z"/>
            <path class="st8" d="M179.9 68.1c-2.4 2.1-5.5 2.4-6.8.8-1.4-1.6-.5-4.6 1.9-6.6.1-.1.1-.1.2-.1l4.9 5.8c-.1 0-.1 0-.2.1z"/>
            <path class="st8" d="M179.9 68.1c-2.4 2.1-5.5 2.4-6.8.8-1.4-1.6-.5-4.6 1.9-6.6.1-.1.1-.1.2-.1l4.9 5.8c-.1 0-.1 0-.2.1z"/>
            <path class="st8" d="M184.7 73.7c-2.4 2.1-5.5 2.4-6.8.8-1.4-1.6-.5-4.6 1.9-6.6.1-.1.1-.1.2-.1l4.9 5.8c-.1 0-.1 0-.2.1z"/>
            <path class="st8" d="M184.7 73.7c-2.4 2.1-5.5 2.4-6.8.8-1.4-1.6-.5-4.6 1.9-6.6.1-.1.1-.1.2-.1l4.9 5.8c-.1 0-.1 0-.2.1z"/>
            <path class="st8" d="M189.5 79.3c-2.4 2.1-5.5 2.4-6.8.8-1.4-1.6-.5-4.6 1.9-6.6.1-.1.1-.1.2-.1l4.9 5.8c-.1 0-.2 0-.2.1z"/>
            <path class="st8" d="M189.5 79.3c-2.4 2.1-5.5 2.4-6.8.8-1.4-1.6-.5-4.6 1.9-6.6.1-.1.1-.1.2-.1l4.9 5.8c-.1 0-.2 0-.2.1z"/>
            <path class="st8" d="M194.2 84.9c-2.4 2.1-5.5 2.4-6.8.8-1.4-1.6-.5-4.6 1.9-6.6.1-.1.1-.1.2-.1l4.9 5.8c-.1 0-.1 0-.2.1z"/>
        </g>
        <path class="st9" d="M171.3 70.2l10.5-.1 5.1 3-12.6.5z"/>
        <path class="st10" d="M174.3 73.6l3.5 3.9h11.1l-2.1-4.4z"/>
    </g>
    <g>
        <path class="st20" d="M133.6 12.6c-1.8 1.6-4.4 1.6-5.7.1-1.3-1.5-.9-4 1-5.6l.1-.1 4.7 5.5-.1.1z"/>
        <path class="st20" d="M133.6 12.6c-1.8 1.6-4.4 1.6-5.7.1-1.3-1.5-.9-4 1-5.6l.1-.1 4.7 5.5-.1.1z"/>
        <path class="st20" d="M138.1 17.9c-1.8 1.6-4.4 1.6-5.7.1-1.3-1.5-.9-4 1-5.6l.1-.1 4.7 5.5c0 .1 0 .1-.1.1z"/>
        <path class="st20" d="M138.1 17.9c-1.8 1.6-4.4 1.6-5.7.1-1.3-1.5-.9-4 1-5.6l.1-.1 4.7 5.5c0 .1 0 .1-.1.1z"/>
        <path class="st20" d="M142.7 23.3c-1.8 1.6-4.4 1.6-5.7.1-1.3-1.5-.9-4 1-5.6l.1-.1 4.7 5.5s-.1 0-.1.1z"/>
        <path class="st20" d="M142.7 23.3c-1.8 1.6-4.4 1.6-5.7.1-1.3-1.5-.9-4 1-5.6l.1-.1 4.7 5.5s-.1 0-.1.1z"/>
        <path class="st20" d="M147.2 28.6c-1.8 1.6-4.4 1.6-5.7.1-1.3-1.5-.9-4 1-5.6l.1-.1 4.7 5.5s0 .1-.1.1z"/>
        <path class="st20" d="M147.2 28.6c-1.8 1.6-4.4 1.6-5.7.1-1.3-1.5-.9-4 1-5.6l.1-.1 4.7 5.5s0 .1-.1.1z"/>
        <path class="st20" d="M151.8 33.9c-1.8 1.6-4.4 1.6-5.7.1-1.3-1.5-.9-4 1-5.6l.1-.1 4.7 5.5c0 .1-.1.1-.1.1z"/>
        <path class="st20" d="M151.8 33.9c-1.8 1.6-4.4 1.6-5.7.1-1.3-1.5-.9-4 1-5.6l.1-.1 4.7 5.5c0 .1-.1.1-.1.1z"/>
        <path class="st20" d="M156.3 39.3c-1.8 1.6-4.4 1.6-5.7.1-1.3-1.5-.9-4 1-5.6l.1-.1 4.7 5.5-.1.1z"/>
        <path class="st20" d="M156.3 39.3c-1.8 1.6-4.4 1.6-5.7.1-1.3-1.5-.9-4 1-5.6l.1-.1 4.7 5.5-.1.1z"/>
        <path class="st20" d="M160.9 44.6c-1.8 1.6-4.4 1.6-5.7.1-1.3-1.5-.9-4 1-5.6l.1-.1 4.7 5.5-.1.1z"/>
        <path class="st20" d="M160.9 44.6c-1.8 1.6-4.4 1.6-5.7.1-1.3-1.5-.9-4 1-5.6l.1-.1 4.7 5.5-.1.1z"/>
        <path class="st20" d="M165.4 50c-1.8 1.6-4.4 1.6-5.7.1-1.3-1.5-.9-4 1-5.6l.1-.1 4.7 5.5-.1.1z"/>
        <path class="st20" d="M165.4 50c-1.8 1.6-4.4 1.6-5.7.1-1.3-1.5-.9-4 1-5.6l.1-.1 4.7 5.5-.1.1z"/>
        <path class="st20" d="M170 55.3c-1.8 1.6-4.4 1.6-5.7.1-1.3-1.5-.9-4 1-5.6l.1-.1 4.7 5.5-.1.1z"/>
        <path class="st20" d="M170 55.3c-1.8 1.6-4.4 1.6-5.7.1-1.3-1.5-.9-4 1-5.6l.1-.1 4.7 5.5-.1.1z"/>
        <path class="st20" d="M174.6 60.6c-1.8 1.6-4.4 1.6-5.7.1-1.3-1.5-.9-4 1-5.6l.1-.1 4.7 5.5-.1.1z"/>
        <path class="st20" d="M179.1 66c-1.8 1.6-4.4 1.6-5.7.1-1.3-1.5-.9-4 1-5.6l.1-.1 4.7 5.5-.1.1z"/>
        <path class="st20" d="M183.7 71.3c-1.8 1.6-4.4 1.6-5.7.1-1.3-1.5-.9-4 1-5.6l.1-.1 4.7 5.5c-.1 0-.1.1-.1.1z"/>
        <path class="st20" d="M183.7 71.3c-1.8 1.6-4.4 1.6-5.7.1-1.3-1.5-.9-4 1-5.6l.1-.1 4.7 5.5c-.1 0-.1.1-.1.1z"/>
        <path class="st20" d="M188.2 76.7c-1.8 1.6-4.4 1.6-5.7.1-1.3-1.5-.9-4 1-5.6l.1-.1 4.7 5.5-.1.1z"/>
        <path class="st20" d="M192.8 82c-1.8 1.6-4.4 1.6-5.7.1-1.3-1.5-.9-4 1-5.6l.1-.1 4.7 5.5-.1.1z"/>
    </g>
    <g>
        <path class="st19" d="M135.2 0L81.4.2 0 96.4h13.9l72.2-86.1h43.1L202 96.1l12.2.3z"/>
        <path class="st33" d="M203.5 93.5l3.2.3-74.2-89.3-49.9-.3h-.1L8.1 94l2.3.1L83.6 6h47.8z"/>
    </g>
    <g>
        <path class="st34" d="M205.2 175.3V139c0-2-1.7-3.7-3.7-3.7s-3.7 1.7-3.7 3.7l-.1 36.3h7.5z"/>
        <path class="st34" d="M219 175.3V139c0-2-1.7-3.7-3.7-3.7s-3.7 1.7-3.7 3.7v36.3h7.4z"/>
        <path class="st34" d="M232 175.3V139c0-2-1.7-3.7-3.7-3.7s-3.7 1.7-3.7 3.7v36.3h7.4z"/>
        <path class="st34" d="M245 175.3V139c0-2-1.7-3.7-3.7-3.7s-3.7 1.7-3.7 3.7l.1 36.3h7.3z"/>
        <path class="st34" d="M258 175.3V139c0-2-1.7-3.7-3.7-3.7s-3.7 1.7-3.7 3.7l-.1 36.3h7.5z"/>
        <path class="st34" d="M271 175.3V139c0-2-1.7-3.7-3.7-3.7s-3.7 1.7-3.7 3.7l-.1 36.3h7.5z"/>
        <path class="st34" d="M284 175.3V139c0-2-1.7-3.7-3.7-3.7s-3.7 1.7-3.7 3.7l-.1 36.3h7.5z"/>
        <path class="st34" d="M198.5 145.3h84.4v2.9h-84.4z"/>
        <path class="st34" d="M198.5 164.8h85.3v2.9h-85.3z"/>
    </g>
</svg>
