<svg id="objects" xmlns="http://www.w3.org/2000/svg" viewBox="0 0 320.9 220.7">
    <style>
        .st0{fill:#a8a18e}.st1{fill:#fff6de}.st2{fill:#c4bda9}.st3{fill:#153233}.st4{fill:#afa794}.st5{fill:#fff6de;stroke:#c6bc9e;stroke-miterlimit:10}.st6{fill:#d6d0bd}.st7{fill:#bcb3a0}.st8{fill:#968e7c}.st9{fill:#2c555b}.st10{opacity:.5;fill:#214447}.st11{fill:none;stroke:#58c3e8;stroke-miterlimit:10}.st12{opacity:.3;fill:#bcae8f}.st13{fill:#827671}.st14{opacity:.57;fill:none;stroke:#fff;stroke-miterlimit:10}.st15{fill:#bfb7a1}.st16{fill:#938d7c}.st17{fill:#5b504d}.st18{fill:#427b7f}.st19{fill:#1f3f42}.st20{fill:none;stroke:#fff6de;stroke-miterlimit:10}.st21{fill:#3c6f70}.st22{fill:#aaa393}.st23{fill:#ede3cc}.st24{fill:#ddd3ba}
    </style>
    <path class="st0" d="M85.1 151.4h100v61h-100z"/>
    <path class="st1" d="M86.6 169.7c2.7-5.8 9.6-13.3 9.6-13.3l-3.3.1c-2.1 1.1-4.6 4.9-6.3 7.6v-5h.8v-2.9h-6v2.9h1.2v39.5h.2v22h6.7v-20.8H91v-2.3h-4.3v-27.8z"/>
    <path class="st2" d="M313.5 214.8l-23.4.1-.5-53.1h23.9z"/>
    <path class="st3" d="M283.5 114.4l35.9 41.4-29.9-1-.2-11-6.5-19z"/>
    <path class="st1" d="M290.6 195.3h24.7v3.3h-24.7z"/>
    <path class="st1" d="M308.8 160.8h4.8v35.7h-4.8z"/>
    <path class="st4" d="M290.6 208.6h23.2v6.3h-23.2z"/>
    <path class="st5" d="M289.9 154.9h30.3v3.5h-30.3z"/>
    <path class="st6" d="M25 106.7v5.7h18.8l4.7-5.7z"/>
    <path class="st0" d="M26.6 111.9v15.8l15.8-15.8z"/>
    <path class="st6" d="M233 61.8l-4.6.1-12.1-16.3.2-36.5H233z"/>
    <path class="st7" d="M220.1 52.6V22c0-2.5 2.1-4.6 4.6-4.6 2.5 0 4.6 2.1 4.6 4.6l.4 41.5"/>
    <path class="st1" d="M215.3 6.5h19v2.8h-19z"/>
    <path class="st6" d="M214.3 4.2h21.3v2.4h-21.3z"/>
    <path class="st7" d="M222.8 0h5v4.3h-5z"/>
    <path class="st8" d="M159.1 151.7h20.3v60.8h-20.3z"/>
    <path class="st9" d="M1.1 151.9L104.6 50.4l40-1-33.3 60.7.3 29.8-30.8 13z"/>
    <path class="st3" d="M49.2 73.8c-1 1.3-31.3 28-30.3 27.7 1-.3 35.5-.7 35.5-.7l26.4-26.7-31.6-.3z"/>
    <path class="st5" d="M18.9 101.1v3.1l30.3.1 3.4-3.5z"/>
    <path class="st5" d="M46.2 107.2l2.8-2.8H20.5v2.9h4.9v-.1z"/>
    <path class="st10" d="M110.3 121.4L80.9 74.1 1.6 151.9l2.3.3 68.6.1 45.5-14.7z"/>
    <path class="st6" d="M181.9 8.2l-32 43 50 64.4 31.4-43.7z"/>
    <path class="st7" d="M231.5 70.1l-38-47.2.1-.1-11.3-14.7-31.7 42.3-.3.7 11.3 14.8 28.5-37.7 37.8 47.5z"/>
    <path class="st6" d="M290.6 219.4H181.3v-69.9l53.8-76.2 54.8 73.4z"/>
    <path class="st1" d="M182.8 6.5l47.9 63.9 2.1-2.6L182.3.4l-33 45.3 5.5 6.7-2.5-3.2z"/>
    <path class="st5" d="M228.9 73.1l2.5-3-49-65.9-30.5 42.7 2.5 3.3 27.9-40.1z"/>
    <path class="st2" d="M148.5 50.6l-38.7 52.7.3 37.1 71.5.5 17-23.2z"/>
    <path class="st1" d="M0 152.3h82v3H0z"/>
    <path class="st5" d="M1.8 155.1H83v3.3H1.8z"/>
    <path class="st12" d="M72.6 152.3s1.6 6.4 1.8 6.4 9.6.3 9.6.3l.2-6.6H72.6z"/>
    <path class="st13" d="M185.8 78.3V57.1s5-3.4 7.6-3.4l-.1 24.6h-7.5z"/>
    <path class="st13" d="M202.6 78.2V57.1s-5-3.4-7.6-3.4l.1 24.6h7.5z"/>
    <path class="st14" d="M176.5 79.3l3.8.1-.3-22c-10-8.3-18.1.5-18.1.5l.3 2.8 14.3 18.6z"/>
    <path class="st14" d="M159.6 52.1s11.3-9 20-.7l.3-25.7-20.3 26.4z"/>
    <path class="st14" d="M206 52s-11.3-9-20-.7l-.3-25.7L206 52z"/>
    <path class="st14" d="M208 77.8l-.5-21.6 17.9 21.7z"/>
    <path class="st14" d="M185.3 90.6v-6.7l17.3-.2v25.7l-1.6 2.7z"/>
    <path class="st14" d="M207.9 101.9l-.4-18.6 13.9.1z"/>
    <path class="st9" d="M228.4 61.9l35.2-.1L292 92.1l-33.4-.3-22.4-28.4-3.4 4.4z"/>
    <path class="st6" d="M9.9 159.4v60l73.2-.5v-60z"/>
    <path class="st1" d="M262.7 98.1l27.2-.2-.3-2.8-28.5.3z"/>
    <path class="st6" d="M266.9 103c.3-.1 18.5 0 18.5 0l-.3-4.8-22 .2 3.8 4.6z"/>
    <path class="st0" d="M282.9 103.1l.6 22.1-16.6-22.2z"/>
    <path class="st14" d="M269.1 106.2h10.8l.2 14.1"/>
    <path class="st1" d="M294.5 161.8h10.2v5h-10.2z"/>
    <path class="st1" d="M295.8 166.6h7.3v30.3h-7.3z"/>
    <path class="st15" d="M9.8 214.3H83v6.3H9.8z"/>
    <path class="st16" d="M162.7 133.7v-26.9c0-4.8-5.8-9.1-13.6-8.7-6.6 0-12.1 3.9-12.1 8.7v26.9h25.7z"/>
    <path class="st13" d="M139.1 103.2h8.8v26.3h-8.8z"/>
    <path class="st13" d="M151.5 103.2h8.8v26.3h-8.8z"/>
    <path class="st17" d="M130.2 99s4.6-.3 6.7 2.4l-.1 30.9-6.8-.1.2-33.2z"/>
    <path class="st17" d="M169.5 99.3s-4.6-.3-6.7 2.4l.1 30.9 6.8-.1-.2-33.2z"/>
    <path class="st2" d="M160.3 113.7h-8.8v-10.5h-3.8v10.5h-8.6v1.7h8.6v16.1h3.8v-16.1h8.8z"/>
    <path class="st0" d="M149 157.9h1.5v49.4H149z"/>
    <path class="st18" d="M74 149.6c.7-.3 36-9.7 36-9.7l69.4-.2 2.5.2-7.6 10-100.3-.3z"/>
    <ellipse class="st13" cx="106.9" cy="175.4" rx="6.3" ry="6.4"/>
    <path class="st1" d="M200.6 114.7l2.4-3-55.2-72.2L91.1 119c1.9.1 3.5.1 5.1.1l52.2-73.6 52.2 69.2z"/>
    <path class="st5" d="M198.3 118.4l2.3-3.7-52.2-69.3-52.8 73.3c1.3 0 3.1.1 4.6.1L149 54.1l49.3 64.3z"/>
    <path class="st0" d="M109.8 106.8l.2 7.6 42.8-56-3.9-4.6z"/>
    <path class="st19" d="M100.6 119.7l9.4 20.2-.2-33.1z"/>
    <path class="st0" d="M149.4 60.9l44.8 60.4 2.7-4.4-46.8-61.5z"/>
    <g>
        <path class="st13" d="M222.3 195.2v-50.6c0-7.2 5.9-13 13-13 8.4-.6 15.4 5.6 15.4 12.8l-.7 50.3c0 .2.1.5 0 .5-5.4 0-19.7.2-27.6.2-.1 0-.1-.1-.1-.2z"/>
        <path class="st20" d="M227.5 195.3l.7-45.1c0-7.2 3.5-11.9 8-12h-.2c7.4-.5 8.9 4.8 8.9 12v44.7c0 .2 0 0 0 0"/>
        <path class="st13" d="M204.9 146.7h13.5V195h-13.5z"/>
        <path class="st1" d="M204.9 158.7h13.5v1.6h-13.5z"/>
        <path class="st1" d="M204.9 161.4h13.5v1.6h-13.5z"/>
        <path class="st1" d="M211 146.7h1.3v27.7H211z"/>
        <path class="st1" d="M204.9 173.6h13.5v1.6h-13.5z"/>
        <path class="st1" d="M204.9 170.8h13.5v1.6h-13.5z"/>
        <path class="st13" d="M254.1 146.7h13.5V195h-13.5z"/>
        <path class="st1" d="M254.1 158.7h13.5v1.6h-13.5z"/>
        <path class="st1" d="M254.1 161.4h13.5v1.6h-13.5z"/>
        <path class="st1" d="M260.2 146.7h1.3v27.7h-1.3z"/>
        <path class="st1" d="M254.2 173.6h13.5v1.6h-13.5z"/>
        <path class="st1" d="M254.1 170.8h13.5v1.6h-13.5z"/>
        <path class="st1" d="M222.2 158.6h28.1v3.3h-28.1z"/>
        <path class="st1" d="M201.1 196.9h70.2v3h-70.2z"/>
        <path class="st20" d="M236.2 131.6v7"/>
        <g>
            <path class="st20" d="M249.1 138.9l-5.8 3.3"/>
            <path class="st20" d="M250.8 150.2h-6.1"/>
        </g>
        <g>
            <path class="st20" d="M223.6 138.9l6.1 3.3"/>
            <path class="st20" d="M222.3 150.5h6.1"/>
        </g>
    </g>
    <path class="st5" d="M261.1 95.4c.4 0 31.8-.4 31.8-.4l-.2-2.8-34.5-.3 2.9 3.5z"/>
    <path class="st21" d="M110 139.9l64.3 9 6.7-9.1-71 .1z"/>
    <path class="st15" d="M9.6 158.9h72.5v5.7H9.6z"/>
    <path class="st22" d="M306.1 161.8h2.8v33.6h-2.8z"/>
    <path class="st1" d="M113.6 171.3c1.4-5.9 10.4-15.6 10.4-15.6l-3.3.1c-2.5 1.4-5.6 6.4-7.1 9v-5.7h1v-2.9h-6v2.9h1v5.8c-1.4-2.4-4.6-7.9-7.2-9.3l-3.3-.1s9.3 10 10.5 15.9c0 .1 0 .1.1.1v25.9h-2.5v2.3h.9v13.4h6.8v-13.4h1.5v-2.3h-2.7v-26.1z"/>
    <path class="st23" d="M295.7 166.8h7.4v1.9h-7.4z"/>
    <path class="st7" d="M289.6 141.7l-41.8-51.8.2-.1-11.4-14.7-31.6 42.3-25.4 38.4-.2 24.6 65.1-85.2 45.5 56.7z"/>
    <g>
        <path class="st17" d="M129.8 204.5l.3-41.5s17.6-9.8 38.6.7l.1 42.5v1.1l-38.9-.4-.1-2.4z"/>
        <path class="st13" d="M133.6 165.7h12v31h-12z"/>
        <path class="st13" d="M153.4 165.7h12v31h-12z"/>
        <path class="st17" d="M163.1 182.7v-6.3h3.3v-.9h-3.3v-6.2h3.3v-.9h-3.3l.1-3.2h-1v3.2h-5.8v-3.3h-.9v3.3l-2.4.1v.8h2.4v6.2l-2.3-.1-.1 1h2.4v6.3h-2.3l-.3 1.6h13.6v-1.6h-3.4zm-.9 0h-5.8v-6.3h5.8v6.3zm0-7.2h-5.8v-6.2h5.8v6.2z"/>
        <path class="st17" d="M143.6 182.9v-6.3h3.3v-.9h-3.3v-6.2h3.3v-.9h-3.3l.1-3.2h-1v3.2h-5.8v-3.3h-.9v3.3l-2.4.1v.8h2.4v6.2l-2.3-.1-.1 1h2.4v6.3h-2.3l-.3 1.6H147v-1.6h-3.4zm-.9 0h-5.8v-6.3h5.8v6.3zm0-7.2h-5.8v-6.2h5.8v6.2z"/>
    </g>
    <g>
        <path class="st5" d="M22.8 217.3l.4-44.1s25.2-10.4 55.2.8l.1 45.1v1.1l-55.6-.4-.1-2.5z"/>
        <path class="st0" d="M66.5 175.8h8.8v7.3h-8.8z"/>
        <path class="st0" d="M53.6 175.8h8.8v7.3h-8.8z"/>
        <path class="st0" d="M40 175.8h8.8v7.3H40z"/>
        <path class="st0" d="M26.6 175.8h8.7v7.3h-8.7z"/>
        <path class="st5" d="M26 185.9h49v34H26z"/>
        <path class="st5" d="M25.8 191.4H75"/>
        <path class="st5" d="M26.1 197.4h49.3"/>
        <path class="st5" d="M26.1 202.8h49.3"/>
        <path class="st5" d="M26.1 208.7h49.3"/>
        <path class="st5" d="M26 213.3h49.3"/>
    </g>
    <g>
        <path class="st1" d="M72.8 149.6h106.1v3.2H72.8z"/>
        <path class="st5" d="M81.6 153.1h93.8v3.5H81.6z"/>
    </g>
    <path class="st1" d="M183.9 197.4h-.5l-.2-46.7-3.7 5v6c-1.2-2.2-3-4.7-4.8-5.7l-3.3-.1s5.5 5.1 8.1 10.1l.1 31.4h-4v2.3h.9v20.6h7.1v-20.6h.1v-2.3z"/>
    <path class="st24" d="M290 158.4h30.9v3.4H290z"/>
    <path class="st15" d="M184.1 212.3h106.1v6.3H184.1z"/>
    <path class="st1" d="M136.8 129.4H163v4.5h-26.2z"/>
    <g>
        <path class="st5" d="M303 151.3l-66.8-87.9-66.1 92.7 5.5 5.3 61.1-86.1 60.1 80.8z"/>
        <path class="st5" d="M300 153.3l-63.3-83.8-63.7 89.3 2.6 2.6 61.1-85.7 60.1 80.4z"/>
    </g>
    <path class="st1" d="M128.3 201.5H171v11.4h-42.7z"/>
</svg>
