<svg id="Object" xmlns="http://www.w3.org/2000/svg" viewBox="0 0 685.7 202.9">
    <style>
        .st0{fill:#fff;stroke:#c4c4c4;stroke-width:2;stroke-linecap:round;stroke-linejoin:round;stroke-miterlimit:10}
    </style>
    <path class="st0" d="M67.6 116.9h31.6v85H67.6z"/>
    <path class="st0" d="M64.4 112h37.9v6.1H64.4z"/>
    <path class="st0" d="M64.4 133.6h37.9v6.1H64.4z"/>
    <path class="st0" d="M64.4 155.2h37.9v6.1H64.4z"/>
    <path class="st0" d="M64.4 176.8h37.9v6.1H64.4z"/>
    <path class="st0" d="M72.7 121.8h7.6v7.4h-7.6z"/>
    <path class="st0" d="M86.5 121.8h7.6v7.4h-7.6z"/>
    <path class="st0" d="M72.7 143.8h7.6v7.4h-7.6z"/>
    <path class="st0" d="M86.5 143.8h7.6v7.4h-7.6z"/>
    <path class="st0" d="M72.7 165.7h7.6v7.4h-7.6z"/>
    <path class="st0" d="M86.5 165.7h7.6v7.4h-7.6z"/>
    <path class="st0" d="M72.7 187.7h7.6v7.4h-7.6z"/>
    <path class="st0" d="M86.5 187.7h7.6v7.4h-7.6z"/>
    <path class="st0" d="M99.9 154.7h39.7v47.2H99.9z"/>
    <path class="st0" d="M99.9 177.1h39.7v8H99.9z"/>
    <path class="st0" d="M99.9 154.7h39.7v3.8H99.9z"/>
    <path class="st0" d="M99.9 198.5h39.7v3.4H99.9z"/>
    <path class="st0" d="M106.7 162.7h8.8v8.6h-8.8z"/>
    <path class="st0" d="M123.9 162.7h8.8v8.6h-8.8z"/>
    <path class="st0" d="M106.7 187.4h8.8v8.6h-8.8z"/>
    <path class="st0" d="M123.9 187.4h8.8v8.6h-8.8z"/>
    <path class="st0" d="M139.6 154.7l-19.9-22.8-20.5 22.8z"/>
    <path class="st0" d="M129.6 150.4l-10-11.6-10.4 11.6z"/>
    <path class="st0" d="M609 154.7h39.7v47.2H609z"/>
    <path class="st0" d="M609 177.1h39.7v8H609z"/>
    <path class="st0" d="M609 154.7h39.7v3.8H609z"/>
    <path class="st0" d="M609 198.5h39.7v3.4H609z"/>
    <path class="st0" d="M615.9 162.7h8.8v8.6h-8.8z"/>
    <path class="st0" d="M633 162.7h8.8v8.6H633z"/>
    <path class="st0" d="M615.9 187.4h8.8v8.6h-8.8z"/>
    <path class="st0" d="M633 187.4h8.8v8.6H633z"/>
    <path class="st0" d="M648.7 154.7l-19.8-22.8-20.5 22.8z"/>
    <path class="st0" d="M638.7 150.4l-10-11.6-10.4 11.6z"/>
    <g>
        <path class="st0" d="M423.4 96.6H513v105.3h-89.6z"/>
        <path class="st0" d="M423.4 196H513v5.9h-89.6z"/>
        <path class="st0" d="M435.6 105.1H501v7h-65.4z"/>
        <path class="st0" d="M435.6 118H501v7h-65.4z"/>
        <path class="st0" d="M435.6 130.8H501v7h-65.4z"/>
        <path class="st0" d="M435.6 143.7H501v7h-65.4z"/>
        <path class="st0" d="M435.6 156.5H501v7h-65.4z"/>
        <path class="st0" d="M435.6 169.4H501v7h-65.4z"/>
        <path class="st0" d="M435.6 182.2H501v7h-65.4z"/>
        <path class="st0" d="M435.6 89.6H501v7h-65.4z"/>
        <path class="st0" d="M442.5 80.5H477v9.1h-34.5z"/>
        <path class="st0" d="M442.5 63.9h6.4v16.6h-6.4z"/>
    </g>
    <g>
        <path class="st0" d="M380.4 58.4h45.8v143.5h-45.8z"/>
        <path class="st0" d="M388.1 68.8h30.5v122.6h-30.5z"/>
        <path class="st0" d="M403.3 68.8v122.6"/>
        <path class="st0" d="M388.1 82.1h30.5"/>
        <path class="st0" d="M388.1 98.4h30.5"/>
        <path class="st0" d="M388.1 114.6h30.5"/>
        <path class="st0" d="M388.1 130.9h30.5"/>
        <path class="st0" d="M388.1 147.2h30.5"/>
        <path class="st0" d="M388.1 163.4h30.5"/>
        <path class="st0" d="M388.1 179.7h30.5"/>
        <path class="st0" d="M386.7 48.9h33.2v9.5h-33.2z"/>
        <path class="st0" d="M380.4 195.1h45.8v6.8h-45.8z"/>
    </g>
    <g>
        <path class="st0" d="M298.4 195.1h88.9v6.8h-88.9z"/>
        <path class="st0" d="M301.7 75.4h82.2v119.7h-82.2z"/>
        <path class="st0" d="M317.7 63H368v12.5h-50.3z"/>
        <path class="st0" d="M339.4 50.5h7V63h-7z"/>
        <path class="st0" d="M308.4 82.2H327V99h-18.6z"/>
        <path class="st0" d="M333.5 82.2h18.6V99h-18.6z"/>
        <path class="st0" d="M358.7 82.2h18.6V99h-18.6z"/>
        <path class="st0" d="M308.4 104.1H327v16.8h-18.6z"/>
        <path class="st0" d="M333.5 104.1h18.6v16.8h-18.6z"/>
        <path class="st0" d="M358.7 104.1h18.6v16.8h-18.6z"/>
        <path class="st0" d="M308.4 125.9H327v16.8h-18.6z"/>
        <path class="st0" d="M333.5 125.9h18.6v16.8h-18.6z"/>
        <path class="st0" d="M358.7 125.9h18.6v16.8h-18.6z"/>
        <path class="st0" d="M308.4 147.8H327v16.8h-18.6z"/>
        <path class="st0" d="M333.5 147.8h18.6v16.8h-18.6z"/>
        <path class="st0" d="M358.7 147.8h18.6v16.8h-18.6z"/>
        <path class="st0" d="M308.4 169.7H327v16.8h-18.6z"/>
        <path class="st0" d="M333.5 169.7h18.6v16.8h-18.6z"/>
        <path class="st0" d="M358.7 169.7h18.6v16.8h-18.6z"/>
    </g>
    <g>
        <path class="st0" d="M186.7 137.6H264v64.3h-77.3z"/>
        <path class="st0" d="M196.7 101.6H254v100.3h-57.3z"/>
        <path class="st0" d="M206.2 81.4h38.4v120.5h-38.4z"/>
        <path class="st0" d="M212.6 90.2h25.6v102.9h-25.6z"/>
        <path class="st0" d="M225.4 90.2v102.9"/>
        <path class="st0" d="M212.6 101.3h25.6"/>
        <path class="st0" d="M212.6 115h25.6"/>
        <path class="st0" d="M212.6 128.6h25.6"/>
        <path class="st0" d="M212.6 142.3h25.6"/>
        <path class="st0" d="M212.6 156h25.6"/>
        <path class="st0" d="M212.6 169.6h25.6"/>
        <path class="st0" d="M212.6 183.3h25.6"/>
        <path class="st0" d="M211.5 73.4h27.8v8h-27.8z"/>
        <path class="st0" d="M239.3 73.4l-27.8-30.3v30.3z"/>
        <path class="st0" d="M186.7 197.1H264v4.8h-77.3z"/>
    </g>
    <g>
        <path class="st0" d="M49 119.3l-18.6 9.5V196h37.2v-67.2z"/>
        <path class="st0" d="M49 125.2l-18.6 9.5v67.2h37.2v-67.2z"/>
        <path class="st0" d="M36.7 137.1h9.1v13.1h-9.1z"/>
        <path class="st0" d="M52.3 137.1h9.1v13.1h-9.1z"/>
        <path class="st0" d="M36.7 155.7h9.1v13.1h-9.1z"/>
        <path class="st0" d="M52.3 155.7h9.1v13.1h-9.1z"/>
        <path class="st0" d="M36.7 174.3h9.1v13.1h-9.1z"/>
        <path class="st0" d="M52.3 174.3h9.1v13.1h-9.1z"/>
        <path class="st0" d="M30.4 196h37.2v5.9H30.4z"/>
    </g>
    <g>
        <path class="st0" d="M566.9 101.9l-22.5 11.5v81.4h45v-81.4z"/>
        <path class="st0" d="M566.9 109l-22.5 11.6v81.3h45v-81.3z"/>
        <path class="st0" d="M552 123.4h11v15.9h-11z"/>
        <path class="st0" d="M570.8 123.4h11v15.9h-11z"/>
        <path class="st0" d="M552 146h11v15.9h-11z"/>
        <path class="st0" d="M570.8 146h11v15.9h-11z"/>
        <path class="st0" d="M552 168.5h11v15.9h-11z"/>
        <path class="st0" d="M570.8 168.5h11v15.9h-11z"/>
        <path class="st0" d="M544.4 194.8h45.1v7.1h-45.1z"/>
    </g>
    <g>
        <path class="st0" d="M192.4 104.1H137l27.7-25.8z"/>
        <path class="st0" d="M192.4 110.8H137L164.7 85z"/>
        <path class="st0" d="M137 104.1h55.3v97.8H137z"/>
        <path class="st0" d="M144.4 113.1h40.7v11h-40.7z"/>
        <path class="st0" d="M144.4 130.1h40.7"/>
        <path class="st0" d="M144.4 134.8h40.7v11h-40.7z"/>
        <path class="st0" d="M144.4 151.8h40.7"/>
        <path class="st0" d="M144.4 156.6h40.7v11h-40.7z"/>
        <path class="st0" d="M144.4 173.6h40.7"/>
        <path class="st0" d="M144.4 178.3h40.7v11h-40.7z"/>
        <path class="st0" d="M144.4 195.3h40.7"/>
    </g>
    <g>
        <path class="st0" d="M586.8 116.9h31.6v85h-31.6z"/>
        <path class="st0" d="M583.6 112h37.9v6.1h-37.9z"/>
        <path class="st0" d="M583.6 133.6h37.9v6.1h-37.9z"/>
        <path class="st0" d="M583.6 155.2h37.9v6.1h-37.9z"/>
        <path class="st0" d="M583.6 176.8h37.9v6.1h-37.9z"/>
        <path class="st0" d="M591.9 121.8h7.6v7.4h-7.6z"/>
        <path class="st0" d="M605.7 121.8h7.6v7.4h-7.6z"/>
        <path class="st0" d="M591.9 143.8h7.6v7.4h-7.6z"/>
        <path class="st0" d="M605.7 143.8h7.6v7.4h-7.6z"/>
        <path class="st0" d="M591.9 165.7h7.6v7.4h-7.6z"/>
        <path class="st0" d="M605.7 165.7h7.6v7.4h-7.6z"/>
        <path class="st0" d="M591.9 187.7h7.6v7.4h-7.6z"/>
        <path class="st0" d="M605.7 187.7h7.6v7.4h-7.6z"/>
    </g>
    <g>
        <path class="st0" d="M279.4 10.9h4.4v31.6h-4.4z"/>
        <path class="st0" d="M281.6 29.3l-11.4 12.5v88.6H292.9V41.8z"/>
        <path class="st0" d="M281.6 36.4L270.2 49v88.5H292.9V49z"/>
        <path class="st0" d="M281.6 49.6l-16.8 12.5v88.6h33.6V62.1z"/>
        <path class="st0" d="M281.6 93.9l-21.1 12.8v89.7h42.1v-89.7z"/>
        <path class="st0" d="M281.6 99.4l-21.1 12.8v89.7h42.1v-89.7z"/>
        <path class="st0" d="M265.9 175.9h13v12.7h-13z"/>
        <path class="st0" d="M284.3 175.9h13v12.7h-13z"/>
        <path class="st0" d="M265.9 156.2h13v12.7h-13z"/>
        <path class="st0" d="M284.3 156.2h13v12.7h-13z"/>
        <path class="st0" d="M265.9 136.4h13v12.7h-13z"/>
        <path class="st0" d="M284.3 136.4h13v12.7h-13z"/>
        <path class="st0" d="M265.9 116.6h13v12.7h-13z"/>
        <path class="st0" d="M284.3 116.6h13v12.7h-13z"/>
        <path class="st0" d="M269.1 79.2h10.6v10.4h-10.6z"/>
        <path class="st0" d="M283.2 79.2h10.6v10.4h-10.6z"/>
        <path class="st0" d="M269.1 64.2h10.6v10.4h-10.6z"/>
        <path class="st0" d="M283.2 64.2h10.6v10.4h-10.6z"/>
    </g>
    <g>
        <path class="st0" d="M536.3 162.6h-27.2V16.1l27.2 22.3z"/>
        <path class="st0" d="M548.3 201.9h-39.2V55.4l39.2 31.9z"/>
        <path class="st0" d="M515 179h11.1v11.3H515z"/>
        <path class="st0" d="M531.3 179h11.1v11.3h-11.1z"/>
        <path class="st0" d="M515 163h11.1v11.3H515z"/>
        <path class="st0" d="M531.3 163h11.1v11.3h-11.1z"/>
        <path class="st0" d="M515 146.9h11.1v11.3H515z"/>
        <path class="st0" d="M531.3 146.9h11.1v11.3h-11.1z"/>
        <path class="st0" d="M515 130.9h11.1v11.3H515z"/>
        <path class="st0" d="M531.3 130.9h11.1v11.3h-11.1z"/>
        <path class="st0" d="M515 114.8h11.1v11.3H515z"/>
        <path class="st0" d="M531.3 114.8h11.1v11.3h-11.1z"/>
        <path class="st0" d="M515 98.8h11.1v11.3H515z"/>
        <path class="st0" d="M531.3 98.8h11.1v11.3h-11.1z"/>
        <path class="st0" d="M542.4 93H515V71.2z"/>
        <path class="st0" d="M509.1 17.3V1"/>
        <path class="st0" d="M522.7 16.1v11.2"/>
        <path class="st0" d="M536.3 46.7l-27.2-21"/>
    </g>
    <path class="st0" d="M1 201.9h683.7"/>
    <path class="st0" d="M606.8 41.6h-46.3"/>
    <path class="st0" d="M602.4 41.6s.9-4.9-5.2-4.9c0 0-4.4-8.9-12.8-3.8 0 0-6.7-3.8-10.8.8 0 0-8.6-.4-8.7 7.9h37.5z"/>
    <path class="st0" d="M346.2 34.4H300"/>
    <path class="st0" d="M341.8 34.4s.9-4.9-5.2-4.9c0 0-4.4-8.9-12.8-3.8 0 0-6.7-3.8-10.8.8 0 0-8.6-.4-8.7 7.9h37.5z"/>
    <path class="st0" d="M162.8 63.4h-46.2"/>
    <path class="st0" d="M158.5 63.4s.9-4.9-5.2-4.9c0 0-4.4-8.9-12.8-3.8 0 0-6.7-3.8-10.8.8 0 0-8.6-.4-8.7 7.9h37.5z"/>
    <path class="st0" d="M651.2 94.3H618"/>
    <path class="st0" d="M621.9 94.3s-.8-4.5 3.9-4.8c0 0 6.1-10.4 13.2-1.3 0 0 8.4-1.1 8.4 6.1h-25.5z"/>
    <path class="st0" d="M447.6 15.8h-33.2"/>
    <path class="st0" d="M418.3 15.8s-.9-4.5 3.9-4.8c0 0 6.1-10.4 13.2-1.3 0 0 8.4-1.1 8.4 6.1h-25.5z"/>
    <path class="st0" d="M209 10.9h-33.2"/>
    <path class="st0" d="M179.7 10.9s-.9-4.5 3.9-4.8c0 0 6.1-10.4 13.2-1.3 0 0 8.4-1.1 8.4 6.1h-25.5z"/>
    <path class="st0" d="M68.8 26.6H35.7"/>
    <path class="st0" d="M39.5 26.6s-.9-4.5 3.9-4.8c0 0 6.1-10.4 13.2-1.3 0 0 8.4-1.1 8.4 6.1H39.5z"/>
</svg>
