<svg id="Слой_1" xmlns="http://www.w3.org/2000/svg" viewBox="0 0 43.4 18">
    <style>
        .st0{fill:#ffc700}.st1{fill:#afafaf}.st2{fill:#eba214}.st3{fill:#e91c24}.st4{fill:#f8f07e}.st5{fill:#a8cede}.st6{fill:#333}
    </style>
    <g id="Object">
        <path class="st0" d="M30 0h-5.2c-9.2 0-11 4.7-14.5 7-2.5 1.6-4.6 1.7-6 2.1-2 .5-3.1 1.7-3.6 2.7S0 15.1 0 16.2C0 17.5.9 18 1.7 18h38.8c.8 0 1.2-1 1.3-1.8.1-1.3.3-3.7 0-5C40.8 6.9 37.4 0 30 0z"/>
        <path class="st1" d="M0 16.2v-.5l41.8-.6c0 .4-.1.8-.1 1.1 0 .8-.4 1.8-1.2 1.8H1.7C.9 18 0 17.5 0 16.2z"/>
        <path class="st2" d="M38.5 18c0-4-2.5-5.6-5.6-5.6S27.3 14 27.3 18h11.2z"/>
        <path class="st2" d="M15 18c0-4-2.5-5.6-5.6-5.6S3.8 14 3.8 18H15z"/>
        <path class="st3" d="M42.3 12.2c.4.1 1.1.5 1.1 1v.1c0 .5-.5.9-.9 1 0-.7-.2-1.5-.2-2.1z"/>
        <path class="st4" d="M2.5 10.5c.5.3.7.9.4 1.5l-.4.8c-.3.5-.9.7-1.5.4l-.1-.1c-.2-.1-.4-.3-.5-.5.1-.3.2-.6.3-.8.2-.5.6-1 1.2-1.5.2 0 .3 0 .5.1l.1.1z"/>
        <path class="st5" d="M20.4 1.1S15.1 2 11.9 8h8.5V1.1z"/>
        <path class="st5" d="M21.4 2h9v6h-9z"/>
        <path class="st5" d="M31.4 1.1V8h6.8c2.6 0-1.8-6.7-6.8-6.9z"/>
        <path class="st6" d="M19.7 9.2c0 .2.2.3.3.3h1.2c.2 0 .3-.2.3-.3V9c0-.2-.2-.3-.3-.3H20c-.2 0-.3.2-.3.3v.2z"/>
        <path class="st6" d="M29.1 9.2c0 .2.2.3.3.3h1.2c.2 0 .3-.2.3-.3V9c0-.2-.2-.3-.3-.3h-1.2c-.2 0-.3.2-.3.3v.2z"/>
        <path class="st2" d="M10.4 7.5c0-.2 1.1-.5 1.3-.5h3.1c.2 0-1.4.3-1.4.5v1.3c0 .1 1.6.2 1.4.2h-3.1c-.2 0-1.3-.1-1.3-.3V7.5z"/>
    </g>
</svg>
