<svg xmlns="http://www.w3.org/2000/svg" width="1277.7" height="307.5" viewBox="0 0 1277.7 307.5">
    <style>
        .st0{fill:#6c6c6c}.st1{fill:#d6b53d}
    </style>
    <g id="Group_2_xA0_Image_1_">
        <path class="st0" d="M148.7.2c-5 3.2-6.1 7.7-5.7 12.6.2 2.6-.8 4-3 5.2-10.3 5.9-18.2 14.4-25 23.9-6.4 8.9-11.2 18.7-15 29-.2.6-.4 1.3-.7 2.6 14.3 4 28.8 5.5 43.8 6.8-.1 4.9.7 9.4 5.2 12.5-17.8.1-35.1-3.3-52.5-7.2-.5 1.3-1.1 2.2-1.4 3.3-5 17.3-7.5 35-8.3 53-.2 4.3 0 4.5 4.4 4.5h66.8c1.4 0 2.7.1 4.1.2v13.3H86.3c-.1 1.8-.3 3-.3 4.2.6 18.3 3.4 36.2 8.3 53.8.8 2.9 1.3 3.1 4.7 2.4 6.7-1.2 13.4-2.8 20.2-3.7 9.4-1.3 18.9-2 28.5-2.7-3.8 3.5-5.3 7.7-4.7 13-14.7 1.1-28.9 3.2-43.3 5.9.2 1.2.2 1.9.5 2.5 4.7 11.7 9.9 23.2 17.5 33.4 6.4 8.7 14 16 23.8 20.8.5.2.9.6 1.5 1 .3 5.6-.9 11.7 5.3 15.5-.2.2-.4.4-.5.6-4.5-.5-9-.9-13.5-1.7-55.4-9.6-95.4-40.1-120.7-90C6.2 200.3 2.9 184.4 1 168.1 0 160-.2 151.8.4 143.8c1.9-24.2 8-47.2 21.3-67.8C47 37.1 81.9 11.4 128.2 2.2c6-1.2 12.2-1.5 18.3-2.2.5 0 1 .1 2.2.2zM44.8 239.7c1.5-.7 2.6-1.3 3.8-1.8 8.9-3.8 17.8-7.5 26.7-11.2 1.4-.6 2.9-.9 4.4-1.4 1.9-.5 2.4-1.7 1.9-3.5l-.6-2.4c-5.1-18.3-8.1-36.9-8.6-55.9-.1-3.3-.4-3.7-3.6-3.7H16.7c-.9 0-1.7.4-2.6.7 1.1 30.3 12.1 56.1 30.7 79.2zm-31-93.3h55.8c1.9.1 2.9-.8 2.9-2.7 0-.8 0-1.7.1-2.5.8-18.5 3.5-36.7 8.6-54.6 1.2-4.3 1.3-4.3-2.9-5.6-10.2-3.2-20-7.2-29.5-12.1-3.8-2-3.9-2-6.5 1.3C28 88.5 19 109 15.4 131.9c-.8 4.5-1.1 9.1-1.6 14.5zm103.8 140.7c-.4-.5-.9-1-1.3-1.5-4.3-5.3-8.9-10.4-12.9-15.9-6.6-9.1-11.4-19.2-15.5-29.7-1.3-3.2-1.7-3.5-4.6-2.6-9.2 2.9-18.3 6.1-26.9 10.7-.7.4-1.2.9-2.2 1.7 17.8 18.3 38.6 31 63.4 37.3zM86.3 70.4c2.2-5.1 4.1-9.8 6.2-14.3 2.1-4.6 4.3-9.1 6.9-13.4 2.5-4.3 5.3-8.5 8.4-12.5 3-3.9 6.4-7.4 9.6-11-24.7 7-45.8 19.7-64.2 38.6C64.4 62 75 66.1 86.3 70.4z"/>
        <path class="st1" d="M238.6 160.1h-81.9v-13.2c5.8-.1 11.3-.4 16.7-.4 20 0 40.1 0 60.1.1h2.1c2.1.1 3.1-.9 3-3.1-.3-5-.4-10.1-.9-15.1-1.3-13.5-3.9-26.9-7.6-39.9-.2-.7-.5-1.3-.9-2.3-1.6.1-3.2.2-4.8.4-9.5 1.6-19 3.4-28.6 4.8-11.9 1.7-23.9 2.9-36 2.6-3.2-.1-6.5-.3-9.7 0-8 .7-12.4-4.8-12.2-12 .3-11.3.1-22.7.1-34s-.1-22.7-.1-34c0-1.5-.1-3.1.1-4.6.8-6.2 4.6-9.4 10.9-9.3l31.1.3c11.6.1 22.7 3 33.8 6.1 40.3 11.5 88 49.7 104.2 101.1 3.2 10.1 5.4 20.3 6.2 30.8.6 8.2 1.4 16.5.7 24.7-2.3 29-11.4 55.6-29.3 78.8-25.5 33-58.2 54.5-99.3 62.7-11 2.2-22.2 3-33.4 3-4.9 0-9.8.1-14.7 0-6.2-.1-9.9-3.6-10.2-9.9-.1-3.2 0-6.4 0-9.7-.1-20.7-.2-41.5-.2-62.2 0-2.5.7-5.3 1.8-7.6 1.2-2.7 3.9-4.1 6.8-4.2 8.3-.2 16.5-.6 24.8-.3 18.1.7 36 3.3 53.7 6.7 3.9.7 4.6.3 5.5-3.7 3.7-15.1 6.8-30.3 7.4-45.9.2-3.4.5-6.7.8-10.7zm72.4 0h-46.1c-3.1 0-6.2-.1-9.2 0-3 .1-3.2.4-3.5 3.4-.3 3.2-.6 6.4-.7 9.6-.9 16.1-3.4 32-8 47.4-.4 1.3-.5 2.6-.7 3.8.8.5 1.1.7 1.5.9 11.5 3.5 22.7 8 33.3 13.6 2.1 1.1 3.3.3 4.6-1.4 13.4-17.1 22.9-36.1 26.9-57.6.9-6.2 2.1-12.5 1.9-19.7zm-68.1-77.9c-.1.7-.3 1.1-.2 1.5.3 1.6.7 3.3 1.1 4.9 5 17.6 7.9 35.5 8.3 53.8.1 3.8.5 4.2 4.6 4.2h50c1.3 0 2.7-.2 4.4-.3-.1-2.5-.1-4.6-.3-6.6-2.7-25.4-11.9-48.2-27.5-68.5-3.2-4.2-3.3-4.2-7.9-2-9.3 4.6-18.8 8.6-28.8 11.6-1.3.3-2.5.9-3.7 1.4zm-17.8-8.6c-.3-1.1-.3-1.6-.5-2.2-5.6-15.3-13.5-29.2-24.8-41-6.3-6.5-13.4-11.8-21.8-15.4-.9-.4-1.8-.6-2.7-.9-.9 5.2-.7 62.9.3 66.3 16.6-.6 33.2-2.4 49.5-6.8zm-.2 160.3c-7.3-3.5-43.3-7.6-49.7-6-.8 4.8-.6 61.2.3 64.7 1.7-.6 3.4-1.1 5-1.8 9.6-4.2 17.2-10.8 23.7-18.9 7-8.7 12.2-18.4 16.6-28.6 1.5-3 2.7-6.1 4.1-9.4zM206.7 19.2c.4.5.8 1 1.3 1.5 7.3 6.9 13.3 14.8 17.9 23.7 3.7 7.1 6.8 14.4 10.2 21.6.6 1.4 1.3 2.7 1.9 4 7.9-1.2 29.4-9.7 32.9-13-18-18.3-39.2-31.1-64.2-37.8zm-.6 269.1c25.5-7.3 46.6-20 65-38.7-10.3-5.4-20.5-9.2-31-12.3-1.5-.4-2.4.3-3 1.6l-3 6.9c-6.6 15.1-14.8 29.2-26.9 40.7-.3.3-.4.7-1.1 1.8z"/>
    </g>
    <g id="Esco">
        <path class="st1" d="M578.2 240.8h-99.4c-3.8 0-8-.7-12.5-2s-8.7-3.5-12.6-6.6c-3.9-3.1-7.1-7.1-9.6-12-2.6-4.9-3.9-10.9-3.9-18.1v-99.4c0-1.9.4-3.7 1.1-5.4.7-1.7 1.7-3.2 2.9-4.5 1.2-1.3 2.7-2.3 4.4-3 1.7-.7 3.5-1.1 5.5-1.1h124.1v27.6H467.8V202c0 3.6 1 6.4 2.9 8.3 1.9 1.9 4.7 2.9 8.4 2.9h99.2v27.6zm-12.4-62.1h-87v-27.8h87v27.8z"/>
        <path class="st1" d="M793.8 196.1c0 5.4-.7 10.3-2.1 14.7-1.4 4.3-3.2 8.2-5.5 11.5-2.3 3.3-4.9 6.1-7.9 8.5-3 2.3-6.2 4.2-9.4 5.7s-6.6 2.6-9.9 3.3c-3.4.7-6.5 1.1-9.5 1.1H643.2v-27.6h106.3c5.3 0 9.4-1.6 12.3-4.7 2.9-3.1 4.4-7.3 4.4-12.5 0-2.5-.4-4.9-1.2-7s-1.9-4-3.3-5.5c-1.4-1.6-3.2-2.8-5.3-3.6-2.1-.8-4.4-1.3-6.9-1.3h-63.4c-4.5 0-9.3-.8-14.4-2.4-5.2-1.6-9.9-4.1-14.4-7.7-4.4-3.5-8.1-8.2-11-13.9-2.9-5.7-4.4-12.7-4.4-21s1.5-15.2 4.4-20.9c2.9-5.7 6.6-10.3 11-13.9 4.4-3.6 9.2-6.1 14.4-7.7 5.2-1.6 10-2.4 14.4-2.4h93.8v27.6h-93.8c-5.2 0-9.3 1.6-12.2 4.8-2.9 3.2-4.4 7.4-4.4 12.6 0 5.3 1.5 9.5 4.4 12.6 2.9 3.1 7 4.6 12.2 4.6h63.6c3 .1 6.1.5 9.4 1.2 3.3.7 6.6 1.9 9.9 3.4 3.3 1.6 6.4 3.5 9.4 5.9 3 2.4 5.6 5.2 7.9 8.5 2.3 3.3 4.1 7.1 5.5 11.4 1.3 4.4 2 9.2 2 14.7z"/>
        <path class="st1" d="M996.2 240.8h-99.4c-2.5 0-5.3-.3-8.2-.9-2.9-.6-5.8-1.5-8.7-2.8s-5.6-2.9-8.2-4.9c-2.6-2-4.9-4.5-6.9-7.3-2-2.9-3.6-6.2-4.8-10-1.2-3.8-1.8-8-1.8-12.8v-74.6c0-2.5.3-5.3.9-8.2.6-2.9 1.5-5.8 2.8-8.7 1.3-2.9 2.9-5.6 5-8.2 2-2.6 4.5-4.9 7.4-6.9 2.9-2 6.2-3.6 9.9-4.8 3.7-1.2 8-1.8 12.7-1.8h99.4v27.6h-99.4c-3.6 0-6.4 1-8.3 2.9s-2.9 4.7-2.9 8.5v74.4c0 3.5 1 6.3 2.9 8.2 1.9 1.9 4.7 2.9 8.2 2.9h99.4v27.4z"/>
        <path class="st1" d="M1223 179.3c0 9.3-1.6 17.8-4.8 25.5-3.2 7.8-7.6 14.5-13.3 20.1-5.7 5.7-12.3 10-20.1 13.2-7.7 3.1-16.2 4.7-25.3 4.7h-37.3c-9.1 0-17.6-1.6-25.3-4.7-7.8-3.1-14.5-7.5-20.1-13.2-5.7-5.7-10.1-12.4-13.3-20.1-3.2-7.8-4.8-16.3-4.8-25.5v-29c0-9.2 1.6-17.7 4.8-25.5 3.2-7.8 7.6-14.5 13.3-20.1 5.7-5.6 12.4-10 20.1-13.2 7.8-3.2 16.2-4.8 25.3-4.8h37.3c9.1 0 17.5 1.6 25.3 4.8 7.7 3.2 14.4 7.6 20.1 13.2 5.7 5.6 10.1 12.3 13.3 20.1 3.2 7.8 4.8 16.3 4.8 25.5v29zm-27.5-29c0-5.4-.9-10.4-2.6-14.8-1.7-4.4-4.2-8.2-7.3-11.3-3.1-3.1-6.9-5.6-11.3-7.3-4.4-1.7-9.3-2.6-14.6-2.6h-37.3c-5.4 0-10.3.9-14.7 2.6-4.4 1.7-8.2 4.2-11.4 7.3-3.2 3.1-5.6 6.9-7.4 11.3-1.7 4.4-2.6 9.3-2.6 14.8v29c0 5.4.9 10.4 2.6 14.8 1.7 4.4 4.2 8.2 7.4 11.3 3.2 3.1 7 5.6 11.4 7.3 4.4 1.7 9.3 2.6 14.7 2.6h37.1c5.4 0 10.3-.9 14.7-2.6 4.4-1.7 8.2-4.2 11.4-7.3 3.2-3.1 5.6-6.9 7.4-11.3 1.7-4.4 2.6-9.3 2.6-14.8v-29z"/>
    </g>
</svg>
