<svg xmlns="http://www.w3.org/2000/svg" viewBox="0 0 1785.3 122.4">
    <style>
        .st0{display:none}.st1{fill:#85d8e4}.st2{fill:#fff}.st3{fill:none}.st4{fill:#85d8e4;enable-background:new}
    </style>
    <g id="Слой_2">
        <path class="st1" d="M280 110.1c45.8 4.6 97.2 6 154.8 2.7-58.8 2.2-110.1 1-154.8-2.7z"/>
        <path class="st1" d="M1785.3 36.4v-.6c-2.2.6-4.5 1.1-6.8 1.7 2.3-.4 4.6-.8 6.8-1.1z"/>
        <path class="st2" d="M.4 14.3H0s.4.2 1.1.5c-.2-.2-.4-.3-.7-.5z"/>
        <path class="st2" d="M1425 98.3c-187.6-.3-362.5-31.4-613.3-19 .8-.1 1.7-.3 2.5-.4-109.8 11.9-222.2 24.7-379.4 33.9-57.5 3.4-109 2-154.8-2.7C57.7 91.9 0 14.3 0 14.3v108.1h1785.3v-86c-2.3.4-4.5.7-6.8 1.1-111.1 27.9-261.9 60.9-353.5 60.8z"/>
        <path class="st3" d="M.4 14.3H0s.4.2 1.1.5c-.2-.2-.4-.3-.7-.5z"/>
        <path class="st4" d="M1192.3 22.9c-123.5 9.3-252.5 34.4-378.1 56-.8.1-1.7.3-2.5.4 250.8-12.4 425.6 18.7 613.3 19 91.6.1 242.4-32.9 353.5-60.8 2.3-.6 4.6-1.1 6.8-1.7-133.8-15-353.1-30.9-593-12.9z"/>
        <path class="st4" d="M0 14.3s57.7 77.6 280 95.8c44.7 3.7 96 4.9 154.8 2.7C194 100.9 16.9 22 1.1 14.8c-.7-.3-1.1-.5-1.1-.5z"/>
    </g>
</svg>
