<svg xmlns="http://www.w3.org/2000/svg" viewBox="0 0 202 135">
    <style>
        .st0{enable-background:new}.st1,.st2{fill-rule:evenodd;clip-rule:evenodd;fill:#d6b53d}.st2{fill:#6c6c6c}
    </style>
    <g id="esco_1_" class="st0">
        <path class="st1" d="M32.5 117.9v-7.2H10v7.2h22.5zM2.2 95c-.4.2-.8.4-1.1.8-.3.3-.6.7-.8 1.1-.2.4-.3.9-.3 1.4v25.6c0 1.8.3 3.4 1 4.7.7 1.3 1.5 2.3 2.5 3.1 1 .8 2.1 1.4 3.2 1.7 1.2.3 2.2.5 3.2.5h25.6v-7.1H10.1c-.9 0-1.7-.2-2.2-.7-.5-.5-.7-1.2-.7-2.1v-22.1h28.5v-7.1h-32c-.5-.1-1 0-1.5.2zm87.1 20.6c-.6-.9-1.3-1.6-2-2.2-.8-.6-1.6-1.1-2.4-1.5-.8-.4-1.7-.7-2.6-.9-.9-.2-1.7-.3-2.4-.3H63.5c-1.3 0-2.4-.4-3.2-1.2-.8-.8-1.1-1.9-1.1-3.2 0-1.3.4-2.4 1.1-3.3.8-.8 1.8-1.2 3.2-1.2h24.2v-7.1H63.5c-1.1 0-2.4.2-3.7.6-1.3.4-2.6 1.1-3.7 2-1.1.9-2.1 2.1-2.8 3.6-.8 1.5-1.1 3.3-1.1 5.4s.4 3.9 1.1 5.4c.8 1.5 1.7 2.7 2.8 3.6 1.1.9 2.4 1.6 3.7 2 1.3.4 2.6.6 3.7.6h16.3c.7 0 1.3.1 1.8.3.5.2 1 .5 1.4.9.4.4.7.9.9 1.4.2.5.3 1.1.3 1.8 0 1.3-.4 2.4-1.1 3.2-.8.8-1.8 1.2-3.2 1.2H52.4v7.1h27.4c.8 0 1.6-.1 2.4-.3.9-.2 1.7-.5 2.6-.8.8-.4 1.6-.9 2.4-1.5.8-.6 1.5-1.3 2-2.2.6-.9 1.1-1.8 1.4-3 .4-1.1.5-2.4.5-3.8s-.2-2.7-.5-3.8c-.2-.9-.7-1.9-1.3-2.8zm25.2-20.4c-1 .3-1.8.7-2.6 1.2-.7.5-1.4 1.1-1.9 1.8s-1 1.4-1.3 2.1c-.3.7-.6 1.5-.7 2.2-.2.8-.2 1.5-.2 2.1v19.2c0 1.2.2 2.3.5 3.3s.7 1.8 1.2 2.6c.5.7 1.1 1.4 1.8 1.9s1.4.9 2.1 1.3c.7.3 1.5.6 2.2.7.8.2 1.5.2 2.1.2h25.6v-7.1h-25.6c-.9 0-1.6-.3-2.1-.8s-.8-1.2-.8-2.1v-19.2c0-1 .2-1.7.7-2.2.5-.5 1.2-.7 2.1-.7h25.6v-7.1h-25.6c-1 .1-2.1.3-3.1.6zm86.2 8.8c-.8-2-2-3.7-3.4-5.2-1.5-1.4-3.2-2.6-5.2-3.4-2-.8-4.2-1.2-6.5-1.2H176c-2.4 0-4.5.4-6.5 1.2-2 .8-3.7 2-5.2 3.4s-2.6 3.2-3.4 5.2c-.8 2-1.2 4.2-1.2 6.6v7.5c0 2.4.4 4.6 1.2 6.6.8 2 2 3.7 3.4 5.2 1.5 1.5 3.2 2.6 5.2 3.4 2 .8 4.2 1.2 6.5 1.2h9.6c2.4 0 4.5-.4 6.5-1.2 2-.8 3.7-1.9 5.2-3.4s2.6-3.2 3.4-5.2c.8-2 1.2-4.2 1.2-6.6v-7.5c0-2.4-.4-4.6-1.2-6.6zm-5.9 14c0 1.4-.2 2.7-.7 3.8-.4 1.1-1.1 2.1-1.9 2.9-.8.8-1.8 1.4-2.9 1.9-1.1.4-2.4.7-3.8.7H176c-1.4 0-2.6-.2-3.8-.7-1.1-.4-2.1-1.1-2.9-1.9-.8-.8-1.5-1.8-1.9-2.9-.4-1.1-.7-2.4-.7-3.8v-7.5c0-1.4.2-2.7.7-3.8.4-1.1 1.1-2.1 1.9-2.9.8-.8 1.8-1.4 2.9-1.9 1.1-.4 2.4-.7 3.8-.7h9.6c1.4 0 2.6.2 3.8.7 1.1.4 2.1 1.1 2.9 1.9.8.8 1.4 1.8 1.9 2.9.4 1.1.7 2.4.7 3.8v7.5z" id="esco"/>
    </g>
    <g id="_x31__1_" class="st0">
        <path class="st2" d="M100.6 42v-3.4c-.4 0-.7-.1-1.1-.1H82.3c-1.1 0-1.2 0-1.1-1.2.2-4.6.9-9.2 2.1-13.7.1-.3.2-.5.4-.8 4.5 1 8.9 1.9 13.5 1.8-1.1-.8-1.3-2-1.3-3.2-3.9-.3-7.6-.7-11.3-1.8.1-.3.1-.5.2-.7 1-2.6 2.2-5.2 3.9-7.5 1.8-2.4 3.8-4.6 6.5-6.2.6-.3.8-.7.8-1.3-.1-1.3.2-2.4 1.5-3.2-.3 0-.4-.1-.6-.1-1.6.2-3.2.3-4.7.6-11.9 2.4-20.9 9-27.5 19.1-3.4 5.3-5 11.3-5.5 17.5-.2 2.1-.1 4.2.2 6.3.5 4.2 1.4 8.3 3.3 12.1C69 69.2 79.3 77 93.6 79.5c1.1.2 2.3.3 3.5.4 0-.1.1-.1.1-.2-1.6-1-1.3-2.6-1.4-4-.2-.1-.3-.2-.4-.3-2.5-1.2-4.5-3.1-6.1-5.4-2-2.6-3.3-5.6-4.5-8.6-.1-.2-.1-.3-.1-.6 3.7-.7 7.4-1.2 11.2-1.5-.1-1.4.2-2.5 1.2-3.4-2.5.2-4.9.4-7.4.7-1.8.2-3.5.6-5.2 1-.9.2-1 .1-1.2-.6-1.3-4.5-2-9.2-2.2-13.9 0-.3 0-.6.1-1.1h19.4zM89.3 5.7c-.8.9-1.7 1.9-2.5 2.8-.8 1-1.5 2.1-2.2 3.2-.7 1.1-1.2 2.3-1.8 3.5-.5 1.2-1 2.4-1.6 3.7-2.9-1.1-5.6-2.2-8.5-3.3 4.8-4.8 10.2-8.1 16.6-9.9zM63 34.8c.9-5.9 3.3-11.2 6.9-15.9.7-.9.7-.9 1.7-.3 2.4 1.3 5 2.3 7.6 3.1 1.1.3 1.1.3.7 1.5-1.3 4.6-2 9.3-2.2 14.1v.6c0 .5-.3.7-.7.7H62.6c.1-1.4.2-2.6.4-3.8zm7.6 27.8c-4.8-6-7.6-12.6-7.9-20.4.2-.1.5-.2.7-.2h13.4c.8 0 .9.1.9.9.1 4.9.9 9.7 2.2 14.4.1.2.1.4.2.6.1.5 0 .8-.5.9-.4.1-.8.2-1.1.3-2.3 1-4.6 1.9-6.9 2.9-.3.3-.6.4-1 .6zm11.1.1c1.1 2.7 2.3 5.3 4 7.6 1 1.4 2.2 2.7 3.3 4.1.1.1.2.3.3.4-6.3-1.6-11.7-4.9-16.3-9.6.3-.2.4-.4.6-.4 2.2-1.2 4.6-2 6.9-2.7.7-.3.8-.2 1.2.6z" id="_x31_"/>
    </g>
    <g id="_x32__1_" class="st0">
        <path class="st1" d="M142.6 36.5c-.2-2.7-.8-5.3-1.6-7.9-4.2-13.3-16.5-23.1-26.9-26.1-2.8-.8-5.7-1.5-8.7-1.6-2.7 0-5.3 0-8-.1-1.6 0-2.6.8-2.8 2.4v10c0 2.9.1 5.9 0 8.8 0 1.8 1.1 3.3 3.1 3.1.8-.1 1.7 0 2.5 0 3.1.1 6.2-.2 9.3-.7 2.5-.4 4.9-.8 7.4-1.2.4-.1.8-.1 1.2-.1.1.3.2.4.2.6 1 3.4 1.6 6.8 2 10.3.1 1.3.2 2.6.2 3.9 0 .6-.2.8-.8.8h-16c-1.4 0-2.8.1-4.3.1v3.4h21.1c-.1 1-.2 1.9-.2 2.7-.1 4-1 7.9-1.9 11.8-.3 1-.4 1.1-1.4.9-4.6-.9-9.2-1.5-13.9-1.7-2.1-.1-4.3 0-6.4.1-.7 0-1.4.4-1.7 1-.3.6-.5 1.3-.5 2v18.5c.1 1.6 1 2.5 2.6 2.5h3.8c2.9 0 5.8-.2 8.6-.8 10.6-2.1 19.1-7.7 25.6-16.2 4.6-6 7-12.8 7.6-20.3.3-2 .1-4.1-.1-6.2zm-38.3-15c-.3-.9-.3-15.8-.1-17.1.2.1.5.1.7.2 2.2.9 4 2.3 5.6 4 2.9 3 5 6.6 6.4 10.6 0 .1.1.3.1.6-4.1 1.1-8.4 1.6-12.7 1.7zm16.1-2.7c-.2-.3-.3-.7-.5-1-.9-1.9-1.7-3.8-2.6-5.6-1.2-2.3-2.7-4.3-4.6-6.1-.1-.1-.2-.3-.3-.4 6.4 1.7 11.9 5 16.6 9.7-1 .9-6.5 3.1-8.6 3.4zm-14.8 57c-.4.2-.9.3-1.3.5-.2-.9-.3-15.4-.1-16.7 1.6-.4 10.9.6 12.8 1.5-.4.9-.7 1.7-1 2.4-1.1 2.6-2.5 5.1-4.3 7.4-1.7 2.1-3.6 3.8-6.1 4.9zm6.6-.7c.2-.3.2-.4.3-.5 3.1-3 5.2-6.6 6.9-10.5.3-.6.5-1.2.8-1.8.1-.3.4-.5.8-.4 2.7.8 5.3 1.8 8 3.2-4.8 4.9-10.3 8.2-16.8 10zm26.5-27.9c-1 5.5-3.5 10.4-6.9 14.8-.3.4-.6.6-1.2.3-2.7-1.5-5.6-2.6-8.6-3.5-.1 0-.2-.1-.4-.2.1-.3.1-.7.2-1 1.2-4 1.8-8.1 2.1-12.2 0-.8.1-1.7.2-2.5s.1-.9.9-.9h14.3c0 1.9-.3 3.6-.6 5.2zm-.6-8.6h-12.9c-1 0-1.2-.1-1.2-1.1-.1-4.7-.8-9.3-2.1-13.9-.1-.4-.2-.8-.3-1.3 0-.1 0-.2.1-.4.3-.1.6-.3 1-.4 2.6-.8 5-1.8 7.4-3 1.2-.6 1.2-.6 2 .5 4 5.2 6.4 11.1 7.1 17.7.1.5.1 1.1.1 1.7-.5.1-.8.2-1.2.2z" id="_x32_"/>
    </g>
</svg>
