<svg xmlns="http://www.w3.org/2000/svg" width="29.94" height="32.71" viewBox="0 0 29.94 32.71">
    <defs>
        <style>
            .cls-1{fill:#fff;fill-rule:evenodd}
        </style>
    </defs>
    <path id="Forma_1" data-name="Forma 1" class="cls-1" d="M1319.14 4368.64c-.27-2.61-.7-4.64-1.37-5.44-2.77-3.29-22.22-3.53-24.43 0-.54.86-.91 2.89-1.17 5.45a1.637 1.637 0 0 0-1.46 1.63v3.2a1.638 1.638 0 0 0 1.08 1.54c-.15 5.04-.02 10.3.2 12.91 0 2.02 1.35 1.69 1.35 1.69h1.28v2.17a2.04 2.04 0 0 0 3.97 0v-2.17h14.79v2.17a2.04 2.04 0 0 0 3.97 0v-2.17h.42s1.6.21 1.7-.74c0-2.6.16-8.38.03-13.84a1.635 1.635 0 0 0 1.16-1.56v-3.2a1.647 1.647 0 0 0-1.52-1.64zm-21.05-4.97h14.93v2.25h-14.93v-2.25zm.22 23.37a2.12 2.12 0 1 1 2.12-2.12 2.123 2.123 0 0 1-2.12 2.12zm14.63 0a2.12 2.12 0 1 1 2.12-2.12 2.121 2.121 0 0 1-2.12 2.12zm2.7-9.29h-20.16v-10.57h20.16v10.57z" transform="translate(-1290.72 -4360.63)"/>
</svg>
