<svg xmlns="http://www.w3.org/2000/svg" width="12.71" height="24.31" viewBox="0 0 12.71 24.31">
    <defs>
        <style>
            .cls-1{fill:#fff;fill-rule:evenodd}
        </style>
    </defs>
    <path id="Forma_1" data-name="Forma 1" class="cls-1" d="M1305.39 4314.88a1.788 1.788 0 0 0 1.34-.62 1.889 1.889 0 0 0 .52-1.39 2 2 0 0 0-.59-1.37 1.772 1.772 0 0 0-1.37-.54 1.809 1.809 0 0 0-1.35.62 1.991 1.991 0 0 0-.54 1.39 1.946 1.946 0 0 0 1.99 1.91zm6.53 6.54l-2.84-1.55-2.32-3.72a2.064 2.064 0 0 0-1.65-.83 1.884 1.884 0 0 0-1.29.57l-3.51 3.57a.97.97 0 0 0-.21.46l-.47 3.98v.1a.838.838 0 0 0 .26.62.817.817 0 0 0 .62.26.761.761 0 0 0 .6-.26 1.189 1.189 0 0 0 .28-.56l.36-3.41 1.24-1.24-1.14 9.5-2.01 4.5a1.8 1.8 0 0 0-.1.57 1.3 1.3 0 0 0 .38.95 1.162 1.162 0 0 0 .96.34 1.2 1.2 0 0 0 1.14-.72l2.16-4.86a.461.461 0 0 1 .06-.18.991.991 0 0 1 .1-.23.537.537 0 0 0 .05-.21l.26-2.33 2.22 7.65a1.222 1.222 0 0 0 1.29.88 1.236 1.236 0 0 0 .9-.39 1.3 1.3 0 0 0 .39-.95.345.345 0 0 0-.03-.13 1.05 1.05 0 0 1-.02-.13l-3.1-10.6.36-3.46.88 1.4a.92.92 0 0 0 .26.26l3.04 1.7a1.628 1.628 0 0 0 .42.1.816.816 0 0 0 .62-.28.931.931 0 0 0 .25-.65.791.791 0 0 0-.41-.72z" transform="translate(-1299.63 -4310.97)"/>
</svg>
