<svg id="Слой_3" xmlns="http://www.w3.org/2000/svg" viewBox="0 0 2208.7 1276.9">
    <style>
        .st0{opacity:.2}.st1{fill:#6d6563}.st2{fill:#aaa6a5}.st3{fill:#636160}.st4{fill:#403b3a}.st5{enable-background:new}.st6{fill:#d2d1ce}.st7{fill:#dcbf14}.st8{fill:#827f8a}
    </style>
    <g class="st0">
        <path class="st1" d="M551.7 531.6l-.3-52.9 45.8 26.4z"/>
        <path class="st2" d="M736 585.1l-45.6 26.6-46.2-26.6z"/>
        <path class="st3" d="M551.7 531.7z"/>
        <path class="st2" d="M1011.7 585.1l-92-.1 45.8-26.6z"/>
        <path class="st4" d="M1012.1 638.5z"/>
        <path class="st1" d="M1012.3 691.8v-.1z"/>
        <path class="st4" d="M920.4 691.7z"/>
        <path class="st1" d="M322 665.1l-45.6 26.5-.2-53z"/>
        <path class="st4" d="M92 638.5z"/>
        <path class="st1" d="M184.7 744.9l.2.1-.2.2z"/>
        <path class="st4" d="M368.4 691.7z"/>
        <path class="st4" d="M552.9 744.8h.1z"/>
        <path class="st4" d="M553.5 904.9z"/>
        <path class="st1" d="M369.3 851.6z"/>
        <path class="st4" d="M369.3 851.5v-.1.1z"/>
        <path class="st1" d="M736.6 744.9z"/>
        <path class="st1" d="M829.1 798.3z"/>
        <g class="st5">
            <path class="st1" d="M642.7 372.1l.4 53.3-46.3-26.7z"/>
            <path class="st6" d="M550.3 318.7l92.5 53.4-46.3-26.7-45.8 26.6 92 .1-45.9 26.6 46.2 26.7h-92l45.7-26.7-46.1-26.6z"/>
            <path class="st2" d="M642.7 372.1l-92-.1 45.8-26.6z"/>
            <path class="st1" d="M550.3 318.7l.3 53.4-46.2-26.7z"/>
            <path class="st1" d="M550.6 372.1l46.1 26.6-45.8 26.6z"/>
            <path class="st4" d="M550.6 372.1z"/>
            <path class="st6" d="M550.6 372.1l-92-.1 45.8-26.6z"/>
            <path class="st2" d="M550.6 372.1l-45.8 26.6-46.2-26.7z"/>
            <path class="st2" d="M734.7 425.2l-.4.3-91.2-.1 45.8-26.6z"/>
            <path class="st2" d="M643 425.4l-45.7 26.7-46.3-26.7z"/>
            <path class="st1" d="M688.8 451.9l-45.6 26.5-.1-53z"/>
            <path class="st6" d="M597.3 452.1l45.8-26.7.1 52.9-46-26.3-45.8 26.7h91.2l-45.4 26.4-45.8-26.4-.4-53.3z"/>
            <path class="st4" d="M643.1 425.4z"/>
            <path class="st1" d="M550.8 425.4z"/>
            <path class="st2" d="M550.8 425.2l-91.8.1 45.8-26.6z"/>
            <path class="st6" d="M550.8 425.3L505.1 452l46.2 26.7-91.7-.1 45.4-26.7-46.1-26.6-.3-53.3 46.2 26.7 45.8-26.6.2 53.1-46-26.5-45.8 26.6z"/>
            <path class="st1" d="M458.6 371.9l.3 53.4-46.2-26.7z"/>
            <path class="st4" d="M458.9 425.3z"/>
            <path class="st6" d="M367.2 425.2l45.5-26.6 46.2 26.7z"/>
            <path class="st3" d="M367.1 425.2z"/>
            <path class="st6" d="M734.8 425.2l-45.9-26.4-45.8 26.6 91.1.1-45.4 26.4-45.7-26.5-.3-53.3z"/>
            <path class="st2" d="M458.9 425.3l-45.7 26.5-46.1-26.6z"/>
            <path class="st2" d="M827.3 478.5h-92l45.8-26.7z"/>
            <path class="st1" d="M734.9 425.1l.4 53.4-46.3-26.7 45.3-26.3.4-.3z"/>
            <path class="st6" d="M735.4 531.8l-45.6 26.6 46.2 26.7h-91.7l45.4-26.7-46.1-26.6-.4-53.4 46.3 26.7 45.7-26.6.2 53.2-46-26.6-45.8 26.6z"/>
            <path class="st4" d="M735.3 478.5h-.1z"/>
            <path class="st6" d="M689 451.8l46.2 26.7-92-.1 45.7-26.5z"/>
            <path class="st6" d="M413.2 451.8l45.7-26.5.2 53z"/>
            <path class="st2" d="M643 478.5l-.4.2h-91.2l45.8-26.7z"/>
            <path class="st1" d="M551 425.4l.4 53.3-46.3-26.7z"/>
            <path class="st1" d="M505 451.9l-45.6 26.6-.3-.1-.2-53.1z"/>
            <path class="st2" d="M459.5 478.6h-92.1l45.8-26.6z"/>
            <path class="st1" d="M367 425.3l.4 53.3-46.3-26.7z"/>
            <path class="st4" d="M367.4 478.6z"/>
            <path class="st6" d="M321.1 451.9l46.2 26.7-91.9-.1z"/>
            <path class="st2" d="M735.2 478.5l-45.7 26.6-46.3-26.7z"/>
            <path class="st2" d="M551.3 478.7l-45.6 26.5-46.2-26.6z"/>
            <path class="st2" d="M367.3 478.6l-45.7 26.6-46.2-26.7z"/>
            <path class="st2" d="M919.8 531.9l-.4-.2-.5.2h-91.1l45.8-26.7 45.7 26.4z"/>
            <path class="st1" d="M827.3 478.5l.4 53.4-46.2-26.7z"/>
            <path class="st6" d="M781.9 558.5l45.8-26.6.2 52.9-46-26.3-45.8 26.6 91.1.1-45.4 26.4-45.8-26.5-.3-53.3z"/>
            <path class="st4" d="M827.7 531.9z"/>
            <path class="st1" d="M735.2 478.5l46.2 26.6-45.8 26.6z"/>
            <path class="st6" d="M734.9 425.1l92.5 53.4-46.3-26.7-45.8 26.7h92l-45.8 26.7 46.2 26.7-92-.1 45.7-26.7-46.1-26.6z"/>
            <path class="st1" d="M735.4 531.8h.1z"/>
            <path class="st2" d="M735.4 531.7h-91.8l45.8-26.6z"/>
            <path class="st1" d="M643.2 478.4l.4 53.3-46.2-26.6 45.2-26.4.4-.2z"/>
            <path class="st4" d="M643.6 531.7v.1l-.1-.1z"/>
            <path class="st6" d="M551.5 531.6l-45.8-26.4 45.7-26.5z"/>
            <path class="st6" d="M597.2 505.2l.2-.1 46.1 26.6h-91.7z"/>
            <path class="st2" d="M551.5 531.7h.2-.2z"/>
            <path class="st1" d="M551.5 531.8v-.1h.1z"/>
            <path class="st2" d="M551.5 531.8l-.4.2h-91.2l45.8-26.7z"/>
            <path class="st1" d="M459.4 478.6l.4 53.4-46.2-26.7z"/>
            <path class="st4" d="M459.8 532z"/>
            <path class="st1" d="M367.4 478.6l46.1 26.6-45.8 26.6z"/>
            <path class="st6" d="M459.1 478.4L413.2 452l-45.8 26.6h92l-45.8 26.7 46.2 26.7-92-.1 45.7-26.7-46.1-26.6-.3-53.4 46.1 26.7z"/>
            <path class="st1" d="M367.5 531.9h.1z"/>
            <path class="st2" d="M367.5 531.8h-91.8l45.8-26.6z"/>
            <path class="st1" d="M275.4 478.5l.3 53.4-46.2-26.7z"/>
            <path class="st4" d="M275.7 531.9z"/>
            <path class="st6" d="M183.9 531.8l45.6-26.6 46.2 26.7z"/>
            <path class="st6" d="M919.4 531.6l-45.8-26.4-45.8 26.7h91.1l-45.4 26.4-45.8-26.4-.3-53.4z"/>
            <path class="st2" d="M827.7 531.9l-45.8 26.6-46.2-26.7z"/>
            <path class="st2" d="M643.5 531.7l-45.6 26.6-46.2-26.6z"/>
            <path class="st6" d="M551.5 531.7l-45.8-26.4-45.8 26.7H551l-45.4 26.4-45.8-26.4-.3-53.4 46.2 26.6z"/>
            <path class="st6" d="M414 558.6l45.8-26.6.2 52.9-46-26.3-45.8 26.6 91.2.1-45.5 26.4-45.8-26.5-.3-53.3z"/>
            <path class="st2" d="M459.8 532L414 558.6l-46.2-26.7z"/>
            <path class="st2" d="M275.7 531.9L230 558.4l-.1.1-46.3-26.7h.3z"/>
            <path class="st1" d="M919.3 531.7l.4 53.4-46.3-26.7 45.5-26.5z"/>
            <path class="st4" d="M919.7 585.1h-.1z"/>
            <path class="st1" d="M873.5 558.3l-45.6 26.6-.2-53z"/>
            <path class="st6" d="M873.4 558.4l46.2 26.7-92-.1.3-.1z"/>
            <path class="st6" d="M597.9 558.3l45.6-26.6.2 53z"/>
            <path class="st2" d="M827.7 584.9l-.5.3-91.1-.1 45.8-26.6z"/>
            <path class="st1" d="M735.6 531.8l.4 53.3-46.2-26.7z"/>
            <path class="st4" d="M736 585.1z"/>
            <path class="st1" d="M689.7 558.4L644 584.9l-.3-.1-.2-53.1z"/>
            <path class="st6" d="M643.7 584.8l-45.8-26.4-45.8 26.6 92 .1-45.9 26.6 46.3 26.7h-92l45.6-26.7-46.1-26.6-.3-53.4 46.2 26.6z"/>
            <path class="st2" d="M644.1 585.1l-92-.1 45.8-26.6z"/>
            <path class="st1" d="M551.5 531.8l.5 53.2-46.2-26.6 45.3-26.4z"/>
            <path class="st4" d="M552 585v.1z"/>
            <path class="st1" d="M505.6 558.4L460 585l-.2-53z"/>
            <path class="st6" d="M505.8 558.4L552 585h-92l45.6-26.6z"/>
            <path class="st6" d="M230 558.4l45.7-26.5.1 53z"/>
            <path class="st2" d="M459.8 585l-.4.3-91.2-.1 45.8-26.6z"/>
            <path class="st6" d="M367.5 531.9l-45.6 26.6 46.2 26.7h-91.7l45.4-26.7-46.1-26.6-.3-53.4 46.2 26.7 45.8-26.6.1 53.2-46-26.6-45.8 26.6z"/>
            <path class="st1" d="M367.7 531.9l.4 53.3-46.2-26.7z"/>
            <path class="st4" d="M368.1 585.2z"/>
            <path class="st1" d="M321.8 558.5L276.1 585l-.3.2v-.3l-.1-53z"/>
            <path class="st2" d="M275.8 585.3l-92-.1 45.8-26.6z"/>
            <path class="st6" d="M183.7 585.3l-92-.1 45.8-26.6z"/>
            <path class="st1" d="M183.4 531.9l.3 53.4-46.2-26.7z"/>
            <path class="st4" d="M183.7 585.3z"/>
            <path class="st2" d="M919.6 585.1l-45.7 26.6-46.3-26.7z"/>
            <path class="st6" d="M552.2 638.3L506.5 665l46.3 26.7-91.8-.1 45.4-26.7-46.1-26.6-.3-53.3 46.2 26.7 45.8-26.6.2 53.1-46-26.6-45.8 26.7z"/>
            <path class="st2" d="M552 585l-45.8 26.7L460 585z"/>
            <path class="st2" d="M368.1 585.2l-45.6 26.6-.2.1-46.2-26.7h.3z"/>
            <path class="st2" d="M183.7 585.3l-45.8 26.6-46.2-26.7z"/>
            <path class="st2" d="M1104.2 638.5h-.9l-91.1-.1 45.8-26.6 45.7 26.4z"/>
            <path class="st1" d="M1011.7 585.1l.4 53.3-46.2-26.6z"/>
            <path class="st1" d="M919.6 585.1l46.2 26.6-45.8 26.6z"/>
            <path class="st6" d="M919.3 531.7l.4.2 92.1 53.2-46.3-26.7-45.8 26.6 92 .1-45.8 26.7 46.2 26.6h-92l45.7-26.7-46.1-26.6z"/>
            <path class="st1" d="M919.8 638.4h.1z"/>
            <path class="st2" d="M919.8 638.2l-91.8.1 45.8-26.6z"/>
            <path class="st6" d="M736.2 638.2l45.6-26.5 46.1 26.6z"/>
            <path class="st1" d="M920 638.4l.4 53.3-46.2-26.7z"/>
            <path class="st6" d="M919.8 638.4L874.2 665l46.2 26.7-91.7-.1 45.4-26.7-46.2-26.6-.3-53.3 46.3 26.7 45.7-26.6.2 53.1-46-26.5-45.8 26.6z"/>
            <path class="st1" d="M827.6 584.9l.4 53.4-46.2-26.6 45.4-26.5z"/>
            <path class="st6" d="M690.4 611.7l45.6-26.6.2 53z"/>
            <path class="st1" d="M781.8 611.6l-45.6 26.5-.2-53z"/>
            <path class="st4" d="M736.2 638.2z"/>
            <path class="st2" d="M827.9 638.3l-45.6 26.6-45.8-26.4-.3-.3z"/>
            <path class="st2" d="M736.6 638.5l-.5-.3-.4.3-91.2-.1 45.9-26.6 45.7 26.4z"/>
            <path class="st1" d="M644.1 585.1l.4 53.3-46.3-26.7z"/>
            <path class="st4" d="M644.5 638.4z"/>
            <path class="st1" d="M552 585.1l46.1 26.6-45.8 26.6z"/>
            <path class="st1" d="M552.2 638.4v-.1z"/>
            <path class="st2" d="M552.2 638.2l-91.8.1 45.8-26.7z"/>
            <path class="st6" d="M414 611.7l.1-.1 46.2 26.7-91.7-.1z"/>
            <path class="st1" d="M460 584.9l.3 53.4-46.2-26.7 45.3-26.3.4-.3z"/>
            <path class="st4" d="M460.3 638.3z"/>
            <path class="st6" d="M322.5 611.8l45.6-26.6.2 53z"/>
            <path class="st1" d="M368.5 638.2h-.2l-.2-53 45.8 26.5z"/>
            <path class="st1" d="M368.3 638.2l.3.2-.2.1-.1.1v-.1z"/>
            <path class="st2" d="M367.8 638.4l-.4.3-91.1-.1 45.8-26.6z"/>
            <path class="st6" d="M183.4 531.9l92.5 53.4-46.3-26.7-45.8 26.6 92 .1-45.8 26.6 46.2 26.7h-92l45.6-26.7-46.1-26.6z"/>
            <path class="st1" d="M275.8 585.3l.4 53.3-46.2-26.7z"/>
            <path class="st4" d="M276.2 638.6z"/>
            <path class="st6" d="M137.9 611.9l45.8-26.6.2 53.1z"/>
            <path class="st1" d="M183.7 585.3l46.1 26.6-45.8 26.6z"/>
            <path class="st1" d="M183.9 638.6h.1z"/>
            <path class="st2" d="M183.9 638.4l-91.8.1 45.8-26.6z"/>
            <path class="st1" d="M91.7 585.1l.3 53.4-46.2-26.7z"/>
            <path class="st6" d="M.3 638.4l45.5-26.6L92 638.5z"/>
            <path class="st6" d="M1103.8 638.2l-45.8-26.4-45.8 26.6 91.1.1-45.4 26.4-45.8-26.4-.3-53.4z"/>
            <path class="st2" d="M1012.1 638.4l-45.8 26.7-46.2-26.7z"/>
            <path class="st6" d="M736.2 638.2l-45.8-26.4-45.9 26.6 91.1.1-45.4 26.4-45.7-26.5-.3-53.4 46.1 26.7z"/>
            <path class="st2" d="M644.5 638.4L598.7 665l-46.2-26.6z"/>
            <path class="st2" d="M460.3 638.3l-45.6 26.5-.2.1-45.9-26.5-.3-.2h.3z"/>
            <path class="st6" d="M367.9 638.4L322.1 612l-45.8 26.6 91.1.1-45.4 26.4-45.8-26.5-.3-53.3z"/>
            <path class="st2" d="M276.2 638.6l-45.8 26.7-46.2-26.7z"/>
            <path class="st6" d="M46.4 665L92 638.5l.2 53z"/>
            <path class="st2" d="M92 638.5L46.4 665 0 638.4h.3z"/>
            <path class="st6" d="M966.3 665.1l45.8-26.6.2 52.9-46-26.3-45.8 26.6h91.1l-45.4 26.4-45.8-26.4-.3-53.3z"/>
            <path class="st1" d="M1057.9 664.9l.3.2-45.8 26.6-.1-.3-.2-52.9z"/>
            <path class="st6" d="M828.1 691.3l-45.8-26.4 45.6-26.6z"/>
            <path class="st2" d="M1012.3 691.6l-.7.1h-91.1l45.8-26.6 45.8 26.4z"/>
            <path class="st1" d="M874.1 664.9l-45.7 26.6-.3-.1-.2-53.1z"/>
            <path class="st2" d="M828.5 691.7l-92-.1 45.8-26.6z"/>
            <path class="st6" d="M690.2 664.9l46.2 26.7-92-.1.3-.1z"/>
            <path class="st1" d="M736.1 638.2l.3 53.4-46.2-26.7 45.5-26.4z"/>
            <path class="st4" d="M736.4 691.6z"/>
            <path class="st1" d="M690.2 664.9l-45.5 26.5-.2-53z"/>
            <path class="st1" d="M506.4 664.9l-45.6 26.6-.3.1v-.3l-.2-53z"/>
            <path class="st6" d="M460.5 691.3l-45.8-26.5 45.6-26.5z"/>
            <path class="st2" d="M644.4 691.5l-.4.2-91.2-.1 45.8-26.6z"/>
            <path class="st1" d="M552.4 638.3l.4 53.4-46.3-26.7z"/>
            <path class="st4" d="M552.8 691.7z"/>
            <path class="st2" d="M460.5 691.7h-92.1l45.8-26.7z"/>
            <path class="st1" d="M368.1 638.3l.3 53.4-46.2-26.7 45.2-26.3.5-.3z"/>
            <path class="st6" d="M322 665.1l46.4 26.6-92-.1z"/>
            <path class="st6" d="M230.4 665.3l45.8-26.7.2 53-.2.1z"/>
            <path class="st2" d="M276.2 691.7l-.5.2h-91.2l45.9-26.7z"/>
            <path class="st1" d="M184.1 638.6l.4 53.3-46.3-26.7z"/>
            <path class="st6" d="M183.9 638.6l-45.7 26.6 46.3 26.7-91.8-.1 45.4-26.7L92 638.5l-.3-53.3 46.2 26.7-45.8 26.6z"/>
            <path class="st1" d="M138.1 665.1l-45.6 26.6-.3.1v-.3l-.2-53z"/>
            <path class="st2" d="M920.4 691.7l-45.6 26.5-46.2-26.6z"/>
            <path class="st6" d="M690.6 718.2l45.8-26.6.2 53.2z"/>
            <path class="st2" d="M736.4 691.6l-45.8 26.6-46.2-26.6z"/>
            <path class="st6" d="M598.7 665l45.8-26.6.2 52.9-46.1-26.3-45.8 26.6 91.2.1-45.4 26.4-45.8-26.4-.3-53.3z"/>
            <path class="st6" d="M552.9 744.6l-45.8-26.4 45.7-26.5z"/>
            <path class="st2" d="M552.8 691.7l-45.7 26.5-.1.1-46.3-26.7h.3z"/>
            <path class="st2" d="M368.4 691.7l-45.8 26.6-46.2-26.7z"/>
            <path class="st6" d="M230.4 665.2l-45.9 26.7h91.2l-45.4 26.4-45.8-26.4-.3-53.3z"/>
            <path class="st2" d="M184.5 691.9l-45.7 26.5-46.3-26.6h.2z"/>
            <path class="st6" d="M920.6 744.7l-45.8-26.5 45.6-26.5z"/>
            <path class="st1" d="M966.5 718.3l-45.7 26.6-.2-.1v-.1l-.2-53 45.8 26.4z"/>
            <path class="st2" d="M921 745h-92.1l45.8-26.6 45.8 26.4.3.1z"/>
            <path class="st1" d="M828.5 691.7l.4 53.3-46.3-26.7z"/>
            <path class="st6" d="M783.1 771.6l45.8-26.6.2 52.9-.3.1z"/>
            <path class="st4" d="M828.9 745z"/>
            <path class="st1" d="M736.4 691.6l46.1 26.6-45.8 26.7z"/>
            <path class="st6" d="M828.1 691.4L782.3 665l-45.8 26.6 92 .1-45.9 26.6 46.3 26.7-92-.1 45.6-26.7-46.1-26.6-.3-53.3.4.2 45.8 26.4z"/>
            <path class="st2" d="M736.6 744.8h-91.8l45.8-26.6z"/>
            <path class="st1" d="M644.4 691.5l.3 53.4-46.2-26.7 45.5-26.5z"/>
            <path class="st4" d="M644.7 744.9z"/>
            <path class="st1" d="M598.6 718.1l-45.7 26.6-.1-53z"/>
            <path class="st6" d="M553 744.8l45.5-26.6 46.2 26.7z"/>
            <path class="st1" d="M552.9 744.9l.1.1h-.1z"/>
            <path class="st2" d="M552.9 745.1l-.4-.2-.4.2h-91.2l45.8-26.7 45.8 26.4z"/>
            <path class="st1" d="M460.5 691.7l.3 53.4-46.2-26.7z"/>
            <path class="st4" d="M460.8 745.1z"/>
            <path class="st1" d="M368.4 691.7l46.1 26.6-45.8 26.6z"/>
            <path class="st6" d="M368.1 638.3l92.4 53.4-46.3-26.7-45.8 26.7h92.1l-45.9 26.7 46.2 26.7-92-.1 45.7-26.7-46.1-26.6z"/>
            <path class="st1" d="M368.6 745z"/>
            <path class="st2" d="M368.6 744.9h-91.9l45.8-26.6z"/>
            <path class="st6" d="M230.3 718.4l.2-.1 46.2 26.6h-91.8z"/>
            <path class="st1" d="M276.4 691.6l.3 53.3-46.2-26.6 45.2-26.4.5-.2z"/>
            <path class="st6" d="M231 771.5l45.7-26.5.2 52.9z"/>
            <path class="st1" d="M368.7 745l.4 53.3-46.2-26.7z"/>
            <path class="st6" d="M368.6 745l-45.7 26.6 46.2 26.7h-91.7l45.4-26.7-46.1-26.6-.3-53.4 46.2 26.7 45.8-26.6.2 53.2-46.1-26.6-45.8 26.6z"/>
            <path class="st4" d="M276.7 745z"/>
            <path class="st6" d="M184.7 744.9l-45.9-26.5 45.7-26.5z"/>
            <path class="st1" d="M184.8 744.8l-.1.1-.2-53 45.8 26.4z"/>
            <path class="st6" d="M920.6 744.7l-45.9-26.3-45.8 26.6H920l-45.4 26.4-45.7-26.4-.3-53.4 46.1 26.7z"/>
            <path class="st2" d="M828.9 745l-45.8 26.6-46.2-26.7z"/>
            <path class="st2" d="M644.7 744.9l-45.6 26.5-.2.1L553 745l-.3-.2h.2z"/>
            <path class="st2" d="M460.8 745.1L415 771.7 368.8 745z"/>
            <path class="st2" d="M276.7 744.9L231 771.5l-.1.1-46-26.6-.2-.1h.2z"/>
            <path class="st1" d="M874.6 771.4l.4.2-45.8 26.6-.1-.3-.2-52.9z"/>
            <path class="st6" d="M644.9 797.9l-45.8-26.5 45.6-26.5z"/>
            <path class="st2" d="M829.1 798.2l-.7.1-91.2-.1 45.8-26.6 45.8 26.4z"/>
            <path class="st1" d="M736.8 744.9l.4 53.3-46.3-26.6z"/>
            <path class="st4" d="M737.2 798.3z"/>
            <path class="st6" d="M736.6 744.9l-45.7 26.7 46.3 26.6h-91.8l45.4-26.7-46.1-26.6-.3-53.3 46.2 26.6-45.8 26.6z"/>
            <path class="st1" d="M690.8 771.5L645.2 798l-.3.2v-.3l-.2-53z"/>
            <path class="st2" d="M644.9 798.3l-92.1-.1 45.9-26.6z"/>
            <path class="st1" d="M552.5 744.9l.3 53.4-46.2-26.7 45.5-26.5z"/>
            <path class="st4" d="M552.8 798.3z"/>
            <path class="st1" d="M506.6 771.5L461 798.1l-.2-53z"/>
            <path class="st6" d="M506.6 771.6l46.2 26.7-92-.1.2-.1z"/>
            <path class="st2" d="M460.8 798.1l-.4.3-91.2-.1 45.8-26.6z"/>
            <path class="st4" d="M369.1 798.3z"/>
            <path class="st1" d="M322.8 771.6l-45.7 26.5-.2.2v-.4l-.2-52.9z"/>
            <path class="st6" d="M783 771.6l-45.8 26.6 91.2.1-45.4 26.4-45.8-26.4-.3-53.4z"/>
            <path class="st2" d="M737.2 798.2l-45.7 26.6-.1.1-46.3-26.7h.3z"/>
            <path class="st2" d="M552.8 798.3L507 824.9l-46.2-26.7z"/>
            <path class="st6" d="M415 771.7l45.8-26.6.2 52.9-46-26.3-45.8 26.6 91.2.1-45.5 26.4-45.8-26.5-.3-53.3z"/>
            <path class="st2" d="M369.1 798.3l-45.6 26.6h-.2l-46.2-26.6h.3z"/>
            <path class="st1" d="M783.3 824.9l-45.9 26.7v-.4l-.2-52.9 45.8 26.4z"/>
            <path class="st6" d="M737.4 851.2l-45.9-26.4 45.7-26.5z"/>
            <path class="st2" d="M737.3 851.7h-.9l-91.1-.1 45.8-26.6 45.8 26.4z"/>
            <path class="st1" d="M644.9 798.3l.3 53.3L599 825z"/>
            <path class="st4" d="M645.2 851.7z"/>
            <path class="st1" d="M552.8 798.3l46.1 26.6-45.8 26.6z"/>
            <path class="st6" d="M552.5 744.9l.4.2 92 53.2-46.2-26.7-45.9 26.6 92.1.1L599 825l46.2 26.6h-92l45.7-26.7-46.1-26.6z"/>
            <path class="st1" d="M553 851.6z"/>
            <path class="st2" d="M553 851.4l-91.9.1 45.8-26.6z"/>
            <path class="st1" d="M460.8 798.1l.3 53.4-46.2-26.6 45.5-26.5z"/>
            <path class="st6" d="M323.5 824.9l45.6-26.6.2 53z"/>
            <path class="st1" d="M414.9 824.8l-45.6 26.6-.2-53.1z"/>
            <path class="st6" d="M369.3 851.5l45.6-26.6 46.2 26.6z"/>
            <path class="st6" d="M736.9 851.4L691.1 825l-45.8 26.6 91.1.1-45.4 26.4-45.8-26.4-.3-53.4z"/>
            <path class="st2" d="M645.2 851.6l-45.8 26.7-46.2-26.7z"/>
            <path class="st2" d="M461.1 851.5l-45.7 26.6h-.1l-46-26.5-.3-.1h.3z"/>
            <path class="st6" d="M599.4 878.3l45.8-26.6.2 52.9-46-26.3-45.8 26.6h91.2l-45.5 26.4-45.8-26.4-.3-53.3z"/>
            <path class="st1" d="M691 878.1l.3.2-45.8 26.6-.1-.3-.2-52.9z"/>
            <path class="st1" d="M645.4 905v-.1h.1z"/>
            <path class="st1" d="M507.2 878.2l-45.7 26.5-.2.1v-.3l-.2-53z"/>
            <path class="st6" d="M461.3 904.5l-45.9-26.4 45.7-26.6z"/>
            <path class="st2" d="M645.4 904.8l-.6.1h-91.2l45.8-26.6 45.8 26.4z"/>
            <path class="st1" d="M553.1 851.6l.4 53.3-46.2-26.7z"/>
            <path class="st6" d="M553 851.6l-45.7 26.6 46.2 26.7-91.7-.1 45.4-26.6-46.1-26.7-.3-53.3 46.2 26.7 45.8-26.6.2 53.1-46.1-26.5-45.8 26.6z"/>
            <path class="st6" d="M507.9 931.4l45.6-26.5.2 53z"/>
            <path class="st2" d="M553.5 904.9l-45.6 26.5-.2.1-46.2-26.7h.3z"/>
            <path class="st1" d="M599.6 931.5l-45.9 26.7v-.3l-.2-53 45.8 26.4z"/>
        </g>
        <path class="st2" d="M367 425.3l-.1-.1h.1z"/>
        <path class="st6" d="M552.5 744.8l-45.8-26.4-45.8 26.7H552l-45.4 26.4-45.8-26.4-.3-53.4z"/>
    </g>
    <g class="st0">
        <path class="st1" d="M1103.4 212.9l-.3-52.9 45.7 26.5z"/>
        <path class="st2" d="M1287.7 266.4L1242 293l-46.1-26.6z"/>
        <path class="st3" d="M1103.4 213z"/>
        <path class="st2" d="M1563.4 266.4h-92l45.8-26.7z"/>
        <path class="st4" d="M1563.8 319.8z"/>
        <path class="st1" d="M1564 373.1z"/>
        <path class="st4" d="M1472.1 373z"/>
        <path class="st1" d="M873.6 346.4l-45.5 26.5-.2-52.9z"/>
        <path class="st4" d="M643.7 319.8z"/>
        <path class="st1" d="M736.4 426.2l.2.2-.2.1z"/>
        <path class="st4" d="M920.1 373z"/>
        <path class="st4" d="M1104.6 426.1h.1z"/>
        <path class="st4" d="M1105.2 586.2z"/>
        <path class="st1" d="M921 532.9v.1z"/>
        <path class="st4" d="M921 532.8z"/>
        <path class="st1" d="M1288.3 426.3v-.1z"/>
        <path class="st1" d="M1380.7 479.6h.1z"/>
        <g class="st5">
            <path class="st1" d="M1194.4 53.4l.4 53.4-46.3-26.7z"/>
            <path class="st6" d="M1102 0l92.4 53.4-46.2-26.7-45.8 26.7h92l-45.9 26.7 46.2 26.7-92-.1 45.7-26.7-46.1-26.6z"/>
            <path class="st2" d="M1194.4 53.4h-92l45.8-26.7z"/>
            <path class="st1" d="M1102 0l.3 53.4-46.2-26.7z"/>
            <path class="st1" d="M1102.3 53.4l46.1 26.6-45.8 26.6z"/>
            <path class="st4" d="M1102.3 53.4z"/>
            <path class="st6" d="M1102.3 53.4l-92-.1 45.8-26.6z"/>
            <path class="st2" d="M1102.3 53.4L1056.5 80l-46.2-26.7z"/>
            <path class="st2" d="M1286.4 106.5l-.4.3-91.2-.1 45.8-26.6z"/>
            <path class="st2" d="M1194.7 106.8l-45.7 26.6-46.3-26.7z"/>
            <path class="st1" d="M1240.5 133.2l-45.6 26.5-.2-52.9z"/>
            <path class="st6" d="M1149 133.4l45.7-26.6.2 52.9-46-26.3-45.8 26.6 91.2.1-45.5 26.4-45.7-26.5-.4-53.3z"/>
            <path class="st4" d="M1194.8 106.8h-.1z"/>
            <path class="st1" d="M1102.5 106.7z"/>
            <path class="st2" d="M1102.5 106.6h-91.8l45.8-26.6z"/>
            <path class="st6" d="M1102.5 106.7l-45.7 26.6L1103 160l-91.7-.1 45.4-26.6-46.1-26.7-.3-53.3 46.2 26.7 45.8-26.6.2 53.1-46-26.5-45.8 26.6z"/>
            <path class="st1" d="M1010.3 53.2l.3 53.4L964.4 80z"/>
            <path class="st4" d="M1010.6 106.6z"/>
            <path class="st6" d="M918.9 106.6L964.4 80l46.2 26.6z"/>
            <path class="st3" d="M918.7 106.6h.1z"/>
            <path class="st6" d="M1286.4 106.5l-45.8-26.4-45.8 26.6 91.1.1-45.4 26.4-45.7-26.4-.4-53.4z"/>
            <path class="st2" d="M1010.6 106.6l-45.7 26.6-46.1-26.6z"/>
            <path class="st2" d="M1379 159.9l-92-.1 45.8-26.6z"/>
            <path class="st1" d="M1286.6 106.4l.3 53.4-46.2-26.7 45.3-26.3.4-.2z"/>
            <path class="st6" d="M1287.1 213.1l-45.6 26.7 46.2 26.6H1196l45.3-26.7-46.1-26.6-.3-53.4 46.2 26.7 45.8-26.6.2 53.2-46-26.6-45.8 26.6z"/>
            <path class="st4" d="M1286.9 159.8z"/>
            <path class="st6" d="M1240.7 133.1l46.2 26.7-92-.1 45.7-26.5z"/>
            <path class="st6" d="M964.9 133.2l45.7-26.6.2 53z"/>
            <path class="st2" d="M1194.7 159.8l-.4.3-91.2-.1 45.8-26.6z"/>
            <path class="st1" d="M1102.7 106.7l.3 53.3-46.2-26.7z"/>
            <path class="st1" d="M1056.7 133.3l-45.7 26.5-.2-.1-.2-53.1z"/>
            <path class="st2" d="M1011.1 160l-92-.1 45.8-26.6z"/>
            <path class="st1" d="M918.6 106.6l.5 53.3-46.3-26.6z"/>
            <path class="st4" d="M919.1 159.9z"/>
            <path class="st6" d="M872.8 133.3l46.2 26.6h-92z"/>
            <path class="st2" d="M1286.9 159.8l-45.8 26.6-46.2-26.7z"/>
            <path class="st2" d="M1103 160l-45.6 26.5-46.2-26.6z"/>
            <path class="st2" d="M919 159.9l-45.7 26.6-46.3-26.6z"/>
            <path class="st2" d="M1471.5 213.2l-.5-.2-.4.2h-91.1l45.8-26.6L1471 213z"/>
            <path class="st1" d="M1379 159.9l.4 53.3-46.2-26.7z"/>
            <path class="st6" d="M1333.6 239.8l45.8-26.6.2 52.9-46-26.3-45.8 26.6 91.1.1-45.4 26.4-45.8-26.4-.3-53.4z"/>
            <path class="st4" d="M1379.4 213.2z"/>
            <path class="st1" d="M1286.9 159.8l46.2 26.6-45.8 26.7z"/>
            <path class="st6" d="M1286.6 106.5l92.5 53.3-46.3-26.6-45.8 26.6 92 .1-45.8 26.6 46.2 26.7-92-.1 45.7-26.7-46.2-26.6z"/>
            <path class="st1" d="M1287.1 213.1h.1z"/>
            <path class="st2" d="M1287.1 213h-91.8l45.8-26.6z"/>
            <path class="st1" d="M1194.9 159.7l.3 53.4-46.1-26.7 45.2-26.3.4-.3z"/>
            <path class="st4" d="M1195.2 213.1z"/>
            <path class="st6" d="M1103.2 213l-45.8-26.5 45.7-26.5z"/>
            <path class="st6" d="M1148.9 186.5l.2-.1 46.1 26.7-91.7-.1z"/>
            <path class="st2" d="M1103.2 213h.2-.2z"/>
            <path class="st1" d="M1103.2 213.1v-.1h.1z"/>
            <path class="st2" d="M1103.2 213.1l-.4.3-91.2-.1 45.8-26.6z"/>
            <path class="st1" d="M1011.1 160l.4 53.3-46.2-26.7z"/>
            <path class="st4" d="M1011.5 213.3z"/>
            <path class="st1" d="M919.1 159.9l46.1 26.7-45.8 26.6z"/>
            <path class="st6" d="M1010.8 159.7l-45.9-26.4-45.8 26.6 92 .1-45.8 26.6 46.2 26.7-92-.1 45.7-26.6-46.1-26.7-.4-53.3 46.2 26.6z"/>
            <path class="st1" d="M919.2 213.3v-.1h.1z"/>
            <path class="st2" d="M919.2 213.1l-91.8.1 45.8-26.7z"/>
            <path class="st1" d="M827 159.8l.4 53.4-46.2-26.7z"/>
            <path class="st4" d="M827.4 213.2z"/>
            <path class="st6" d="M735.6 213.1l45.6-26.6 46.1 26.7z"/>
            <path class="st6" d="M1471.1 212.9l-45.8-26.3-45.8 26.6h91.1l-45.4 26.4-45.8-26.4-.3-53.4z"/>
            <path class="st2" d="M1379.4 213.2l-45.8 26.6-46.2-26.7z"/>
            <path class="st2" d="M1195.2 213.1l-45.6 26.5-46.2-26.6z"/>
            <path class="st6" d="M1103.2 213l-45.8-26.3-45.8 26.6 91.1.1-45.4 26.3-45.8-26.4-.3-53.4 46.2 26.7z"/>
            <path class="st6" d="M965.7 239.9l45.8-26.6.2 52.9-46-26.3-45.8 26.6 91.1.1-45.4 26.4-45.8-26.4-.3-53.4z"/>
            <path class="st2" d="M1011.5 213.3l-45.8 26.6-46.2-26.7z"/>
            <path class="st2" d="M827.3 213.2l-45.6 26.5-.1.1-46.3-26.7h.3z"/>
            <path class="st1" d="M1471 213l.3 53.4-46.2-26.7 45.5-26.5z"/>
            <path class="st4" d="M1471.3 266.4z"/>
            <path class="st1" d="M1425.2 239.6l-45.6 26.6-.2-53z"/>
            <path class="st6" d="M1425.1 239.7l46.2 26.7-92-.1.3-.1z"/>
            <path class="st6" d="M1149.6 239.6l45.6-26.5.2 53z"/>
            <path class="st2" d="M1379.4 266.2l-.5.3-91.1-.1 45.8-26.6z"/>
            <path class="st1" d="M1287.3 213.1l.4 53.3-46.2-26.6z"/>
            <path class="st4" d="M1287.7 266.4v.1z"/>
            <path class="st1" d="M1241.3 239.7l-45.6 26.5-.3-.1-.2-53z"/>
            <path class="st6" d="M1195.4 266.1l-45.8-26.4-45.8 26.6 92 .1-45.9 26.7 46.2 26.6h-92l45.7-26.7-46.1-26.6-.3-53.4 46.1 26.6z"/>
            <path class="st2" d="M1195.8 266.4l-92-.1 45.8-26.6z"/>
            <path class="st1" d="M1103.2 213.1l.5 53.3-46.2-26.7 45.3-26.3z"/>
            <path class="st4" d="M1103.7 266.4z"/>
            <path class="st1" d="M1057.3 239.7l-45.6 26.6-.2-53z"/>
            <path class="st6" d="M1057.5 239.7l46.2 26.7-92-.1 45.6-26.5z"/>
            <path class="st6" d="M781.7 239.7l45.7-26.5.1 53z"/>
            <path class="st2" d="M1011.5 266.4l-.4.2-91.2-.1 45.8-26.6z"/>
            <path class="st6" d="M919.2 213.2l-45.6 26.7 46.2 26.7-91.7-.1 45.4-26.7-46.1-26.6-.4-53.3 46.3 26.6 45.8-26.6.1 53.2-46-26.6-45.8 26.7z"/>
            <path class="st1" d="M919.4 213.2l.4 53.4-46.2-26.7z"/>
            <path class="st4" d="M919.8 266.6z"/>
            <path class="st1" d="M873.5 239.8l-45.7 26.5-.3.2v-.3l-.1-53z"/>
            <path class="st2" d="M827.5 266.6h-92l45.8-26.7z"/>
            <path class="st6" d="M735.4 266.6l-92-.1 45.8-26.6z"/>
            <path class="st1" d="M735.1 213.2l.3 53.4-46.2-26.7z"/>
            <path class="st4" d="M735.4 266.6z"/>
            <path class="st2" d="M1471.3 266.4l-45.8 26.6-46.2-26.7z"/>
            <path class="st6" d="M1103.9 319.7l-45.7 26.6 46.2 26.7-91.7-.1 45.4-26.7-46.1-26.6-.3-53.3 46.2 26.7 45.8-26.6.2 53.1-46-26.5-45.8 26.6z"/>
            <path class="st2" d="M1103.7 266.4l-45.8 26.6-46.2-26.7z"/>
            <path class="st2" d="M919.8 266.6l-45.6 26.5-.2.1-46.2-26.7h.3z"/>
            <path class="st2" d="M735.4 266.6l-45.8 26.6-46.2-26.7z"/>
            <path class="st2" d="M1655.9 319.8h-92l45.8-26.7 45.7 26.4z"/>
            <path class="st1" d="M1563.4 266.4l.4 53.4-46.2-26.7z"/>
            <path class="st1" d="M1471.3 266.4l46.2 26.6-45.8 26.6z"/>
            <path class="st6" d="M1471 213l.4.2 92.1 53.2-46.3-26.7-45.8 26.7h92l-45.8 26.7 46.2 26.7-92-.1 45.7-26.7-46.2-26.6z"/>
            <path class="st1" d="M1471.5 319.7h.1z"/>
            <path class="st2" d="M1471.5 319.6h-91.8l45.8-26.6z"/>
            <path class="st6" d="M1287.9 319.6l45.6-26.6 46.1 26.6z"/>
            <path class="st1" d="M1471.7 319.7l.4 53.3-46.2-26.7z"/>
            <path class="st6" d="M1471.5 319.7l-45.6 26.6 46.2 26.7h-91.7l45.3-26.7-46.1-26.6-.3-53.4 46.2 26.7 45.8-26.6.2 53.2-46-26.6-45.8 26.6z"/>
            <path class="st1" d="M1379.3 266.3l.3 53.3-46.1-26.6 45.4-26.5z"/>
            <path class="st6" d="M1242 293l45.7-26.5.2 52.9z"/>
            <path class="st1" d="M1333.5 292.9l-45.6 26.6-.2-53z"/>
            <path class="st4" d="M1287.9 319.6z"/>
            <path class="st2" d="M1379.6 319.6l-45.6 26.6-45.8-26.4-.3-.2z"/>
            <path class="st2" d="M1288.3 319.8l-.5-.2-.4.2-91.2-.1 45.8-26.6 45.8 26.4z"/>
            <path class="st1" d="M1195.8 266.4l.4 53.3-46.3-26.6z"/>
            <path class="st4" d="M1196.2 319.8z"/>
            <path class="st1" d="M1103.7 266.4l46.1 26.6-45.8 26.6z"/>
            <path class="st1" d="M1103.9 319.7z"/>
            <path class="st2" d="M1103.9 319.5l-91.8.1 45.8-26.6z"/>
            <path class="st6" d="M965.7 293h.1l46.2 26.6-91.7-.1z"/>
            <path class="st1" d="M1011.7 266.2l.3 53.4-46.2-26.6 45.3-26.4.4-.2z"/>
            <path class="st4" d="M1012 319.6z"/>
            <path class="st6" d="M874.2 293.1l45.6-26.5.2 52.9z"/>
            <path class="st1" d="M920.2 319.5h-.2l-.2-52.9 45.8 26.4z"/>
            <path class="st1" d="M920 319.6l.3.1-.2.1-.1.1v-.1z"/>
            <path class="st2" d="M919.5 319.7l-.4.3-91.2-.1 45.9-26.6z"/>
            <path class="st6" d="M735.1 213.2l92.5 53.4-46.3-26.7-45.8 26.7h92l-45.9 26.7 46.3 26.7-92-.1 45.6-26.7-46.1-26.6z"/>
            <path class="st1" d="M827.5 266.6l.4 53.4-46.3-26.7z"/>
            <path class="st4" d="M827.9 320z"/>
            <path class="st6" d="M689.6 293.2l45.8-26.6.2 53.1z"/>
            <path class="st1" d="M735.4 266.6l46.1 26.6-45.8 26.6z"/>
            <path class="st1" d="M735.6 319.9z"/>
            <path class="st2" d="M735.6 319.7l-91.8.1 45.8-26.6z"/>
            <path class="st1" d="M643.4 266.5l.3 53.3-46.2-26.6z"/>
            <path class="st6" d="M552 319.8l45.5-26.6 46.2 26.6z"/>
            <path class="st6" d="M1655.5 319.5l-45.8-26.4-45.8 26.7h91.1l-45.4 26.4-45.8-26.4-.3-53.4z"/>
            <path class="st2" d="M1563.8 319.8l-45.8 26.6-46.2-26.7z"/>
            <path class="st6" d="M1287.9 319.5l-45.9-26.4-45.8 26.6 91.1.1-45.4 26.4-45.7-26.4-.3-53.4L1242 293z"/>
            <path class="st2" d="M1196.1 319.7l-45.7 26.7-46.3-26.7z"/>
            <path class="st2" d="M1012 319.6l-45.6 26.6h-.2l-45.9-26.5-.3-.1.3-.1z"/>
            <path class="st6" d="M919.6 319.7l-45.8-26.4-45.9 26.6 91.1.1-45.4 26.4-45.7-26.4-.3-53.4z"/>
            <path class="st2" d="M827.9 320l-45.8 26.6-46.2-26.7z"/>
            <path class="st6" d="M598.1 346.4l45.6-26.6.2 53z"/>
            <path class="st2" d="M643.7 319.8l-45.6 26.6-46.4-26.6h.3z"/>
            <path class="st6" d="M1518 346.4l45.8-26.6.2 52.9-46-26.3-45.8 26.6 91.1.1-45.4 26.4-45.8-26.5-.3-53.3z"/>
            <path class="st1" d="M1609.6 346.2l.3.2-45.8 26.6-.1-.3-.2-52.9z"/>
            <path class="st6" d="M1379.8 372.6l-45.8-26.4 45.6-26.5z"/>
            <path class="st2" d="M1564 372.9l-.7.2-91.1-.1 45.8-26.6 45.8 26.4z"/>
            <path class="st1" d="M1425.7 346.3l-45.6 26.5-.3-.1-.2-53z"/>
            <path class="st2" d="M1380.2 373l-92-.1 45.8-26.6z"/>
            <path class="st6" d="M1241.9 346.3l46.2 26.6h-92l.2-.2z"/>
            <path class="st1" d="M1287.8 319.6l.3 53.3-46.2-26.6 45.5-26.5z"/>
            <path class="st4" d="M1288.1 372.9v.1z"/>
            <path class="st1" d="M1241.9 346.2l-45.6 26.5-.1-52.9z"/>
            <path class="st1" d="M1058.1 346.2l-45.6 26.6-.3.1v-.3l-.2-53z"/>
            <path class="st6" d="M1012.2 372.6l-45.8-26.4 45.6-26.6z"/>
            <path class="st2" d="M1196.1 372.8l-.4.2h-91.2l45.8-26.6z"/>
            <path class="st1" d="M1104.1 319.7l.4 53.3-46.3-26.7z"/>
            <path class="st4" d="M1104.5 373z"/>
            <path class="st2" d="M1012.2 373.1l-92.1-.1 45.8-26.6z"/>
            <path class="st1" d="M919.8 319.6l.3 53.4-46.3-26.7 45.3-26.3.4-.2z"/>
            <path class="st6" d="M873.7 346.4L920 373h-91.9z"/>
            <path class="st6" d="M782.1 346.6l45.8-26.6.2 52.9-.3.1z"/>
            <path class="st2" d="M827.8 373l-.4.3-91.2-.1 45.8-26.6z"/>
            <path class="st1" d="M735.8 319.9l.4 53.3-46.3-26.7z"/>
            <path class="st6" d="M735.6 319.9l-45.7 26.6 46.3 26.7-91.8-.1 45.4-26.6-46.1-26.7-.3-53.3 46.2 26.7-45.8 26.6z"/>
            <path class="st1" d="M689.8 346.5L644.2 373l-.3.2v-.4l-.2-53z"/>
            <path class="st2" d="M1472.1 373l-45.7 26.6-46.1-26.6z"/>
            <path class="st6" d="M1242.3 399.6l45.8-26.6.2 53.1z"/>
            <path class="st2" d="M1288.1 372.9l-45.8 26.7-46.2-26.7z"/>
            <path class="st6" d="M1150.4 346.4l45.8-26.6.1 52.9-46-26.3-45.8 26.6h91.2l-45.4 26.5-45.8-26.5-.4-53.3z"/>
            <path class="st6" d="M1104.6 426l-45.8-26.5 45.7-26.5z"/>
            <path class="st2" d="M1104.4 373l-45.6 26.5-.1.1-46.3-26.7h.3z"/>
            <path class="st2" d="M920 373l-45.7 26.6-46.2-26.6z"/>
            <path class="st6" d="M782 346.6l-45.8 26.6 91.2.1-45.4 26.4-45.8-26.5-.3-53.3z"/>
            <path class="st2" d="M736.2 373.2l-45.7 26.6-46.3-26.7h.2z"/>
            <path class="st6" d="M1472.3 426l-45.9-26.4 45.7-26.6z"/>
            <path class="st1" d="M1518.2 399.7l-45.8 26.5-.1-.1v-.1l-.2-53 45.8 26.5z"/>
            <path class="st2" d="M1472.7 426.4h-1l-91.1-.1 45.8-26.6 45.8 26.4.2.1z"/>
            <path class="st1" d="M1380.2 373l.4 53.3-46.3-26.7z"/>
            <path class="st6" d="M1334.8 452.9l45.8-26.6.1 52.9-.2.2z"/>
            <path class="st4" d="M1380.6 426.3z"/>
            <path class="st1" d="M1288.1 373l46.1 26.6-45.8 26.6z"/>
            <path class="st6" d="M1379.8 372.7l-45.8-26.4-45.8 26.6 92 .1-45.9 26.6 46.2 26.7h-92l45.7-26.7-46.1-26.6-.3-53.4.4.2 45.7 26.4z"/>
            <path class="st2" d="M1288.3 426.1l-91.8.1 45.8-26.7z"/>
            <path class="st1" d="M1196.1 372.8l.3 53.4-46.2-26.7 45.5-26.5z"/>
            <path class="st4" d="M1196.4 426.2z"/>
            <path class="st1" d="M1150.3 399.5l-45.7 26.5-.1-53z"/>
            <path class="st6" d="M1104.7 426.1l45.5-26.6 46.2 26.7z"/>
            <path class="st1" d="M1104.6 426.3h.1-.1z"/>
            <path class="st2" d="M1104.6 426.4l-.4-.2-.4.2h-91.2l45.8-26.6 45.8 26.4z"/>
            <path class="st1" d="M1012.1 373.1l.4 53.3-46.2-26.7z"/>
            <path class="st4" d="M1012.5 426.4z"/>
            <path class="st1" d="M920.1 373l46.1 26.7-45.8 26.6z"/>
            <path class="st6" d="M919.8 319.7l92.4 53.3-46.3-26.6-45.8 26.6 92 .1-45.8 26.6 46.2 26.7-92-.1 45.7-26.6-46.1-26.7z"/>
            <path class="st1" d="M920.3 426.3z"/>
            <path class="st2" d="M920.2 426.2h-91.8l45.8-26.6z"/>
            <path class="st6" d="M782 399.7l.2-.1 46.1 26.7-91.7-.1z"/>
            <path class="st1" d="M828.1 372.9l.3 53.4-46.2-26.7 45.2-26.3.5-.3z"/>
            <path class="st6" d="M782.7 452.8l45.7-26.5.1 53z"/>
            <path class="st1" d="M920.4 426.3l.4 53.3-46.2-26.6z"/>
            <path class="st6" d="M920.3 426.3L874.6 453l46.2 26.6h-91.7l45.4-26.7-46.1-26.6-.3-53.3 46.2 26.6 45.8-26.6.1 53.2-46-26.6-45.8 26.6z"/>
            <path class="st4" d="M828.4 426.3z"/>
            <path class="st6" d="M736.4 426.2l-45.9-26.4 45.7-26.6z"/>
            <path class="st1" d="M736.5 426.1l-.1.1-.2-53 45.8 26.5z"/>
            <path class="st6" d="M1472.3 426.1l-45.9-26.4-45.8 26.6 91.1.1-45.4 26.4-45.7-26.5-.3-53.4 46.1 26.7z"/>
            <path class="st2" d="M1380.5 426.3l-45.7 26.6-46.3-26.6z"/>
            <path class="st2" d="M1196.4 426.2l-45.6 26.5-.2.1-45.9-26.5-.3-.2h.2z"/>
            <path class="st2" d="M1012.5 426.4L966.7 453l-46.2-26.7z"/>
            <path class="st2" d="M828.3 426.3l-45.6 26.5-.1.1-46-26.5-.2-.2h.2z"/>
            <path class="st1" d="M1426.3 452.8l.4.2-45.8 26.6-.2-.4-.1-52.9z"/>
            <path class="st6" d="M1196.6 479.2l-45.8-26.5 45.6-26.5z"/>
            <path class="st2" d="M1380.7 479.5l-.6.1-91.2-.1 45.8-26.6 45.8 26.5z"/>
            <path class="st1" d="M1288.5 426.2l.4 53.4-46.3-26.7z"/>
            <path class="st4" d="M1288.9 479.6z"/>
            <path class="st6" d="M1288.3 426.2l-45.7 26.7 46.2 26.7-91.7-.1 45.4-26.7-46.1-26.6-.3-53.3 46.2 26.6-45.8 26.7z"/>
            <path class="st1" d="M1242.5 452.8l-45.6 26.6-.3.1v-.3l-.2-53z"/>
            <path class="st2" d="M1196.6 479.6h-92.1l45.8-26.7z"/>
            <path class="st1" d="M1104.2 426.2l.3 53.4-46.3-26.7 45.6-26.5z"/>
            <path class="st4" d="M1104.5 479.6z"/>
            <path class="st1" d="M1058.3 452.8l-45.6 26.6-.2-53z"/>
            <path class="st6" d="M1058.2 452.9l46.2 26.7-91.9-.1.2-.1z"/>
            <path class="st2" d="M1012.5 479.4l-.5.3-91.1-.1 45.8-26.6z"/>
            <path class="st4" d="M920.8 479.7z"/>
            <path class="st1" d="M874.5 452.9l-45.7 26.5-.3.2v-.3l-.1-53z"/>
            <path class="st6" d="M1334.7 452.9l-45.8 26.6 91.2.1-45.4 26.4-45.8-26.4-.4-53.3z"/>
            <path class="st2" d="M1288.8 479.6l-45.6 26.5-.1.1-46.3-26.7h.3z"/>
            <path class="st2" d="M1104.4 479.6l-45.7 26.6-46.2-26.7z"/>
            <path class="st6" d="M966.7 453l45.8-26.6.2 52.9-46-26.3-45.8 26.6 91.1.1-45.4 26.4-45.8-26.4-.3-53.4z"/>
            <path class="st2" d="M920.8 479.6l-45.6 26.6-.2.1-46.2-26.7h.3z"/>
            <path class="st1" d="M1335 506.2l-46 26.7v-.4l-.1-52.9 45.8 26.4z"/>
            <path class="st6" d="M1289 532.5l-45.8-26.4 45.7-26.5z"/>
            <path class="st2" d="M1289 533h-92l45.8-26.7 45.8 26.4z"/>
            <path class="st1" d="M1196.5 479.6l.4 53.4-46.2-26.7z"/>
            <path class="st4" d="M1196.9 533z"/>
            <path class="st1" d="M1104.5 479.6l46.1 26.6-45.8 26.6z"/>
            <path class="st6" d="M1104.2 426.2l.4.2 92 53.2-46.3-26.7-45.8 26.7h92l-45.8 26.7 46.2 26.7-92-.1 45.7-26.7-46.1-26.6z"/>
            <path class="st1" d="M1104.7 532.9z"/>
            <path class="st2" d="M1104.7 532.8h-91.9l45.8-26.6z"/>
            <path class="st1" d="M1012.5 479.5l.3 53.3-46.2-26.6 45.4-26.5z"/>
            <path class="st6" d="M875.2 506.2l45.6-26.5.2 52.9z"/>
            <path class="st1" d="M966.6 506.1L921 532.7l-.2-53z"/>
            <path class="st6" d="M921 532.8l45.6-26.6 46.1 26.6z"/>
            <path class="st6" d="M1288.6 532.7l-45.8-26.4L1197 533h91.1l-45.4 26.4-45.8-26.4-.3-53.4z"/>
            <path class="st2" d="M1196.9 533l-45.8 26.6-46.2-26.7z"/>
            <path class="st2" d="M1012.7 532.8l-45.6 26.6-.1.1-46-26.6-.3-.1h.3z"/>
            <path class="st6" d="M1151.1 559.6l45.8-26.6.2 52.9-46-26.3-45.8 26.6 91.1.1-45.4 26.4-45.8-26.5-.3-53.3z"/>
            <path class="st1" d="M1242.7 559.4l.3.2-45.8 26.6-.1-.3-.2-52.9z"/>
            <path class="st1" d="M1197.1 586.3z"/>
            <path class="st1" d="M1058.9 559.5l-45.7 26.5-.3.2v-.4l-.1-52.9z"/>
            <path class="st6" d="M1012.9 585.8l-45.8-26.4 45.7-26.5z"/>
            <path class="st2" d="M1197.1 586.1l-.7.2-91.1-.1 45.8-26.6 45.8 26.4z"/>
            <path class="st1" d="M1104.8 532.9l.4 53.3-46.2-26.7z"/>
            <path class="st6" d="M1104.7 532.9l-45.7 26.6 46.2 26.7h-91.7l45.4-26.7-46.1-26.6-.3-53.4 46.2 26.7 45.8-26.6.2 53.2-46.1-26.6-45.8 26.6z"/>
            <path class="st6" d="M1059.6 612.8l45.6-26.6.2 53z"/>
            <path class="st2" d="M1105.2 586.2l-45.6 26.6h-.2l-46.2-26.6h.3z"/>
            <path class="st1" d="M1151.3 612.9l-45.9 26.6v-.3l-.2-53 45.8 26.5z"/>
        </g>
        <path class="st2" d="M918.6 106.6h.1z"/>
        <path class="st6" d="M1104.2 426.1l-45.8-26.3-45.8 26.6h91.1l-45.4 26.4-45.8-26.4-.3-53.4z"/>
    </g>
    <g class="st0">
        <path class="st1" d="M1104.5 850.3l-.3-52.9 45.8 26.4z"/>
        <path class="st2" d="M1288.8 903.8l-45.6 26.6-46.2-26.6z"/>
        <path class="st3" d="M1104.5 850.4h.1z"/>
        <path class="st2" d="M1564.6 903.8l-92.1-.1 45.9-26.6z"/>
        <path class="st4" d="M1564.9 957.2z"/>
        <path class="st1" d="M1565.1 1010.5v-.1h.1z"/>
        <path class="st4" d="M1473.2 1010.4z"/>
        <path class="st1" d="M874.8 983.8l-45.6 26.5-.2-53z"/>
        <path class="st4" d="M644.9 957.2z"/>
        <path class="st1" d="M737.5 1063.6l.3.2-.3.1z"/>
        <path class="st4" d="M921.2 1010.4z"/>
        <path class="st4" d="M1105.8 1063.5z"/>
        <path class="st4" d="M1106.4 1223.6z"/>
        <path class="st1" d="M922.1 1170.3h.1l-.1.1z"/>
        <path class="st4" d="M922.1 1170.2v-.1l.1.1z"/>
        <path class="st1" d="M1289.4 1063.6h.1z"/>
        <path class="st1" d="M1381.9 1117z"/>
        <g class="st5">
            <path class="st1" d="M1195.5 690.8l.4 53.3-46.2-26.6z"/>
            <path class="st6" d="M1103.1 637.4l92.5 53.4-46.3-26.7-45.8 26.6 92 .1-45.8 26.7 46.2 26.6h-92l45.6-26.7-46.1-26.6z"/>
            <path class="st2" d="M1195.5 690.8l-92-.1 45.8-26.6z"/>
            <path class="st1" d="M1103.1 637.4l.3 53.4-46.2-26.7z"/>
            <path class="st1" d="M1103.4 690.8l46.1 26.6-45.8 26.6z"/>
            <path class="st4" d="M1103.4 690.8z"/>
            <path class="st6" d="M1103.4 690.8l-92-.1 45.8-26.6z"/>
            <path class="st2" d="M1103.4 690.8l-45.8 26.6-46.2-26.7z"/>
            <path class="st2" d="M1287.5 743.9l-.4.3-91.1-.1 45.8-26.6z"/>
            <path class="st2" d="M1195.9 744.1l-45.8 26.7-46.2-26.7z"/>
            <path class="st1" d="M1241.7 770.6l-45.6 26.5-.2-53z"/>
            <path class="st6" d="M1150.1 770.8l45.8-26.7.2 53-46-26.4-45.8 26.7h91.1l-45.4 26.4-45.8-26.4-.3-53.3z"/>
            <path class="st4" d="M1195.9 744.1v.1-.1z"/>
            <path class="st1" d="M1103.6 744.1h.1z"/>
            <path class="st2" d="M1103.6 743.9l-91.8.1 45.8-26.6z"/>
            <path class="st6" d="M1103.6 744.1l-45.6 26.6 46.2 26.7-91.7-.1 45.3-26.7-46.1-26.6-.3-53.3 46.2 26.7 45.8-26.6.2 53.1-46-26.5-45.8 26.6z"/>
            <path class="st1" d="M1011.4 690.6l.3 53.4-46.2-26.6z"/>
            <path class="st4" d="M1011.7 744z"/>
            <path class="st6" d="M920 743.9l45.5-26.5 46.2 26.6z"/>
            <path class="st3" d="M919.9 743.9z"/>
            <path class="st6" d="M1287.6 743.9l-45.8-26.4-45.8 26.6 91.1.1-45.4 26.4-45.8-26.4-.3-53.4z"/>
            <path class="st2" d="M1011.7 744l-45.6 26.5-46.2-26.6z"/>
            <path class="st2" d="M1380.2 797.2h-92.1l45.9-26.7z"/>
            <path class="st1" d="M1287.8 743.8l.3 53.4-46.2-26.7 45.2-26.3.5-.3z"/>
            <path class="st6" d="M1288.3 850.5l-45.7 26.6 46.2 26.7h-91.7l45.4-26.7-46.1-26.6-.3-53.4 46.2 26.7 45.8-26.6.2 53.2-46-26.6-45.9 26.6z"/>
            <path class="st4" d="M1288.1 797.2z"/>
            <path class="st6" d="M1241.9 770.5l46.2 26.7-92-.1 45.6-26.5z"/>
            <path class="st6" d="M966.1 770.5l45.6-26.5.2 53z"/>
            <path class="st2" d="M1195.9 797.2l-.5.2h-91.1l45.8-26.7z"/>
            <path class="st1" d="M1103.8 744.1l.4 53.3-46.2-26.7z"/>
            <path class="st1" d="M1057.8 770.6l-45.6 26.6-.3-.1-.2-53.1z"/>
            <path class="st2" d="M1012.3 797.3h-92l45.8-26.6z"/>
            <path class="st1" d="M919.8 744l.4 53.3-46.2-26.7z"/>
            <path class="st4" d="M920.2 797.3z"/>
            <path class="st6" d="M874 770.6l46.2 26.7-92-.1z"/>
            <path class="st2" d="M1288.1 797.2l-45.8 26.6-46.2-26.7z"/>
            <path class="st2" d="M1104.2 797.4l-45.7 26.5-46.1-26.6z"/>
            <path class="st2" d="M920.2 797.3l-45.8 26.6-46.2-26.7z"/>
            <path class="st2" d="M1472.7 850.6l-.5-.2-.4.2h-91.2l45.8-26.7 45.8 26.4z"/>
            <path class="st1" d="M1380.2 797.2l.3 53.4-46.2-26.7z"/>
            <path class="st6" d="M1334.7 877.2l45.8-26.6.2 52.9-46-26.3-45.8 26.6 91.2.1-45.5 26.4-45.8-26.5-.3-53.3z"/>
            <path class="st4" d="M1380.5 850.6z"/>
            <path class="st1" d="M1288.1 797.2l46.1 26.6-45.8 26.6z"/>
            <path class="st6" d="M1287.8 743.8l92.4 53.4-46.2-26.7-45.9 26.7h92.1l-45.9 26.7 46.2 26.7-92-.1 45.7-26.7-46.1-26.6z"/>
            <path class="st1" d="M1288.3 850.5z"/>
            <path class="st2" d="M1288.3 850.4h-91.9l45.9-26.6z"/>
            <path class="st1" d="M1196.1 797.1l.3 53.3-46.2-26.6 45.2-26.4.5-.2z"/>
            <path class="st4" d="M1196.4 850.5z"/>
            <path class="st6" d="M1104.4 850.4l-45.9-26.5 45.7-26.5z"/>
            <path class="st6" d="M1150 823.9l.2-.1 46.2 26.6h-91.8z"/>
            <path class="st2" d="M1104.4 850.4h.1-.1z"/>
            <path class="st1" d="M1104.4 850.5v-.1z"/>
            <path class="st2" d="M1104.3 850.5l-.4.2h-91.2l45.8-26.7z"/>
            <path class="st1" d="M1012.3 797.4l.4 53.3-46.3-26.7z"/>
            <path class="st4" d="M1012.7 850.7z"/>
            <path class="st1" d="M920.2 797.3l46.1 26.6-45.8 26.7z"/>
            <path class="st6" d="M1011.9 797.1l-45.8-26.4-45.8 26.6 92 .1-45.9 26.6 46.2 26.7-91.9-.1 45.6-26.7-46.1-26.6-.3-53.4 46.1 26.7z"/>
            <path class="st1" d="M920.4 850.6z"/>
            <path class="st2" d="M920.4 850.5h-91.8l45.8-26.6z"/>
            <path class="st1" d="M828.2 797.2l.3 53.4-46.2-26.7z"/>
            <path class="st4" d="M828.5 850.6z"/>
            <path class="st6" d="M736.8 850.5l45.5-26.6 46.2 26.7z"/>
            <path class="st6" d="M1472.2 850.3l-45.8-26.4-45.8 26.7h91.1l-45.4 26.4-45.8-26.4-.3-53.4z"/>
            <path class="st2" d="M1380.5 850.6l-45.8 26.6-46.2-26.7z"/>
            <path class="st2" d="M1196.4 850.4l-45.7 26.6-46.1-26.6z"/>
            <path class="st6" d="M1104.4 850.4l-45.9-26.4-45.8 26.7h91.1l-45.4 26.4-45.7-26.4-.4-53.4 46.2 26.7z"/>
            <path class="st6" d="M966.9 877.3l45.8-26.6.1 52.9-46-26.3-45.8 26.6 91.2.1-45.4 26.4L921 904l-.3-53.4z"/>
            <path class="st2" d="M1012.6 850.7l-45.7 26.6-46.2-26.7z"/>
            <path class="st2" d="M828.5 850.6l-45.7 26.5-.1.1-46.2-26.7h.3z"/>
            <path class="st1" d="M1472.2 850.4l.3 53.4-46.2-26.7 45.5-26.5z"/>
            <path class="st4" d="M1472.5 903.8z"/>
            <path class="st1" d="M1426.3 877l-45.6 26.6-.2-53z"/>
            <path class="st6" d="M1426.3 877.1l46.2 26.7-92-.1.2-.1z"/>
            <path class="st6" d="M1150.7 877l45.7-26.5.2 52.9z"/>
            <path class="st2" d="M1380.5 903.6l-.4.3-91.2-.1 45.8-26.6z"/>
            <path class="st1" d="M1288.5 850.5l.3 53.3-46.2-26.7z"/>
            <path class="st4" d="M1288.8 903.8z"/>
            <path class="st1" d="M1242.5 877.1l-45.7 26.5-.2-.1-.2-53z"/>
            <path class="st6" d="M1196.6 903.5l-45.9-26.4-45.8 26.6 92 .1-45.8 26.6 46.2 26.7h-92l45.7-26.7-46.1-26.6-.4-53.4 46.2 26.6z"/>
            <path class="st2" d="M1196.9 903.8l-92-.1 45.8-26.6z"/>
            <path class="st1" d="M1104.3 850.5l.6 53.2-46.3-26.6 45.3-26.4z"/>
            <path class="st4" d="M1104.9 903.8h-.1z"/>
            <path class="st1" d="M1058.4 877.1l-45.6 26.6-.1-53z"/>
            <path class="st6" d="M1058.6 877.1l46.2 26.6h-92l45.7-26.5z"/>
            <path class="st6" d="M782.8 877.1l45.7-26.5.2 53z"/>
            <path class="st2" d="M1012.6 903.7l-.4.3-91.2-.1 45.8-26.6z"/>
            <path class="st6" d="M920.4 850.6l-45.7 26.7 46.2 26.6h-91.7l45.4-26.7-46.1-26.6-.3-53.4 46.2 26.7 45.8-26.6.2 53.2-46-26.6-45.8 26.6z"/>
            <path class="st1" d="M920.6 850.6l.4 53.3-46.3-26.6z"/>
            <path class="st4" d="M921 903.9v.1z"/>
            <path class="st1" d="M874.6 877.2L829 903.7l-.3.2v-.3l-.2-53z"/>
            <path class="st2" d="M828.7 904l-92.1-.1 45.8-26.6z"/>
            <path class="st6" d="M736.6 904l-92.1-.1 45.8-26.6z"/>
            <path class="st1" d="M736.3 850.6l.3 53.4-46.3-26.7z"/>
            <path class="st4" d="M736.6 904z"/>
            <path class="st2" d="M1472.5 903.8l-45.8 26.6-46.2-26.7z"/>
            <path class="st6" d="M1105 957l-45.6 26.7 46.2 26.7-91.7-.1 45.4-26.7-46.2-26.6-.3-53.3 46.3 26.7 45.7-26.6.2 53.1-46-26.5-45.8 26.6z"/>
            <path class="st2" d="M1104.8 903.7l-45.7 26.7-46.3-26.7z"/>
            <path class="st2" d="M920.9 903.9l-45.6 26.6-.1.1-46.3-26.7h.3z"/>
            <path class="st2" d="M736.6 904l-45.8 26.6-46.3-26.7z"/>
            <path class="st2" d="M1657.1 957.2h-1l-91.1-.1 45.8-26.6 45.8 26.4z"/>
            <path class="st1" d="M1564.6 903.8l.3 53.4-46.2-26.7z"/>
            <path class="st1" d="M1472.5 903.8l46.1 26.6-45.8 26.6z"/>
            <path class="st6" d="M1472.2 850.4l.4.2 92 53.2-46.2-26.7-45.9 26.6 92.1.1-45.9 26.7 46.2 26.7-92-.1 45.7-26.7-46.1-26.6z"/>
            <path class="st1" d="M1472.7 957.1z"/>
            <path class="st2" d="M1472.7 956.9l-91.9.1 45.9-26.6z"/>
            <path class="st6" d="M1289 957l45.6-26.6 46.2 26.6z"/>
            <path class="st1" d="M1472.9 957.1l.3 53.3-46.2-26.7z"/>
            <path class="st6" d="M1472.7 957.1l-45.7 26.6 46.2 26.7-91.7-.1 45.4-26.6-46.1-26.7-.3-53.3 46.2 26.7 45.8-26.6.2 53.1-46-26.5-45.9 26.6z"/>
            <path class="st1" d="M1380.5 903.6l.3 53.4-46.2-26.6 45.5-26.5z"/>
            <path class="st6" d="M1243.2 930.4l45.6-26.6.2 53z"/>
            <path class="st1" d="M1334.6 930.3l-45.6 26.6-.2-53.1z"/>
            <path class="st4" d="M1289 956.9v.1-.1z"/>
            <path class="st2" d="M1380.8 957l-45.7 26.6-45.8-26.4-.3-.2z"/>
            <path class="st2" d="M1289.4 957.2l-.4-.2-.4.2-91.2-.1 45.8-26.6 45.7 26.4z"/>
            <path class="st1" d="M1196.9 903.8l.4 53.3-46.2-26.7z"/>
            <path class="st4" d="M1197.3 957.1z"/>
            <path class="st1" d="M1104.9 903.8l46.1 26.6-45.8 26.6z"/>
            <path class="st1" d="M1105 957.1v-.1h.1z"/>
            <path class="st2" d="M1105 956.9l-91.8.1 45.8-26.6z"/>
            <path class="st6" d="M966.8 930.4l.2-.1 46.1 26.7-91.7-.1z"/>
            <path class="st1" d="M1012.8 903.6l.4 53.4-46.2-26.7 45.2-26.3.4-.3z"/>
            <path class="st4" d="M1013.2 957h-.1z"/>
            <path class="st6" d="M875.3 930.5L921 904l.1 52.9z"/>
            <path class="st1" d="M921.3 956.9h-.2L921 904l45.8 26.4z"/>
            <path class="st1" d="M921.1 956.9l.3.2-.2.1-.1.1v-.1z"/>
            <path class="st2" d="M920.7 957.1l-.4.3-91.2-.1 45.8-26.6z"/>
            <path class="st6" d="M736.3 850.6l92.4 53.4-46.3-26.7-45.8 26.6 92 .1-45.8 26.7 46.2 26.6h-92l45.7-26.7-46.1-26.6z"/>
            <path class="st1" d="M828.6 904l.4 53.3-46.2-26.6z"/>
            <path class="st4" d="M829 957.3v.1-.1z"/>
            <path class="st6" d="M690.8 930.6l45.8-26.6.1 53.1z"/>
            <path class="st1" d="M736.6 904l46.1 26.6-45.8 26.6z"/>
            <path class="st1" d="M736.7 957.3h.1z"/>
            <path class="st2" d="M736.7 957.1l-91.8.1 45.8-26.6z"/>
            <path class="st1" d="M644.5 903.8l.4 53.4-46.2-26.6z"/>
            <path class="st6" d="M553.1 957.1l45.6-26.5 46.1 26.6z"/>
            <path class="st6" d="M1656.6 956.9l-45.8-26.4-45.8 26.6 91.1.1-45.4 26.4-45.8-26.4-.3-53.4z"/>
            <path class="st2" d="M1564.9 957.2l-45.7 26.6-46.3-26.7z"/>
            <path class="st6" d="M1289 956.9l-45.8-26.4-45.8 26.6 91.1.1-45.4 26.4-45.8-26.5-.3-53.3 46.1 26.6z"/>
            <path class="st2" d="M1197.3 957.1l-45.8 26.6-46.2-26.6z"/>
            <path class="st2" d="M1013.1 957l-45.6 26.5-.2.1-45.9-26.5-.3-.2h.3z"/>
            <path class="st6" d="M920.7 957.1l-45.8-26.4-45.8 26.6 91.1.1-45.4 26.4-45.8-26.4-.3-53.4z"/>
            <path class="st2" d="M829 957.3L783.2 984 737 957.3z"/>
            <path class="st6" d="M599.2 983.8l45.7-26.6.1 53z"/>
            <path class="st2" d="M644.8 957.2l-45.6 26.6-46.4-26.7h.3z"/>
            <path class="st6" d="M1519.2 983.8l45.7-26.6.2 52.9-46-26.3-45.8 26.6h91.2l-45.5 26.5-45.8-26.5-.3-53.3z"/>
            <path class="st1" d="M1610.7 983.6l.4.2-45.8 26.6-.2-.3-.2-52.9z"/>
            <path class="st6" d="M1381 1010l-45.9-26.4 45.7-26.6z"/>
            <path class="st2" d="M1565.1 1010.3l-.6.1h-91.2l45.8-26.6 45.8 26.4z"/>
            <path class="st1" d="M1426.9 983.7l-45.7 26.5-.2-.1-.2-53.1z"/>
            <path class="st2" d="M1381.3 1010.4l-92-.1 45.8-26.6z"/>
            <path class="st6" d="M1243 983.6l46.2 26.7h-92l.3-.2z"/>
            <path class="st1" d="M1288.9 956.9l.4 53.4-46.3-26.7 45.6-26.4z"/>
            <path class="st4" d="M1289.3 1010.3z"/>
            <path class="st1" d="M1243.1 983.6l-45.6 26.5-.2-53z"/>
            <path class="st1" d="M1059.3 983.6l-45.7 26.6-.3.1v-.3l-.2-53z"/>
            <path class="st6" d="M1013.3 1010l-45.8-26.5 45.6-26.5z"/>
            <path class="st2" d="M1197.3 1010.2l-.5.2h-91.1l45.8-26.7z"/>
            <path class="st1" d="M1105.2 957l.4 53.4-46.2-26.7z"/>
            <path class="st4" d="M1105.6 1010.4z"/>
            <path class="st2" d="M1013.3 1010.4h-92l45.8-26.6z"/>
            <path class="st1" d="M920.9 957l.3 53.4-46.2-26.7 45.3-26.3.4-.3z"/>
            <path class="st6" d="M874.8 983.8l46.4 26.6-92-.1z"/>
            <path class="st6" d="M783.2 984l45.8-26.7.2 53-.2.1z"/>
            <path class="st2" d="M829 1010.4l-.4.2h-91.2l45.8-26.7z"/>
            <path class="st1" d="M736.9 957.3l.4 53.3-46.2-26.7z"/>
            <path class="st6" d="M736.7 957.3l-45.6 26.6 46.2 26.7-91.7-.1 45.4-26.7-46.1-26.6-.4-53.3 46.2 26.7-45.8 26.6z"/>
            <path class="st1" d="M691 983.8l-45.7 26.6-.3.1v-.3l-.1-53z"/>
            <path class="st2" d="M1473.2 1010.4l-45.6 26.5-46.2-26.6z"/>
            <path class="st6" d="M1243.5 1036.9l45.8-26.6.1 53.2z"/>
            <path class="st2" d="M1289.2 1010.3l-45.7 26.6-46.3-26.6z"/>
            <path class="st6" d="M1151.5 983.7l45.8-26.6.2 53-46-26.4-45.8 26.7h91.1l-45.4 26.4-45.8-26.4-.3-53.3z"/>
            <path class="st6" d="M1105.8 1063.3l-45.8-26.4 45.6-26.5z"/>
            <path class="st2" d="M1105.6 1010.4l-45.6 26.5-.2.1-46.2-26.7h.3z"/>
            <path class="st2" d="M921.2 1010.4l-45.8 26.6-46.2-26.7z"/>
            <path class="st6" d="M783.2 983.9l-45.8 26.7h91.2l-45.5 26.4-45.8-26.4-.3-53.3z"/>
            <path class="st2" d="M737.3 1010.6l-45.6 26.5-46.4-26.6h.3z"/>
            <path class="st6" d="M1473.4 1063.4l-45.8-26.5 45.6-26.5z"/>
            <path class="st1" d="M1519.3 1037l-45.7 26.6-.2-.1v-.1l-.2-53 45.8 26.5z"/>
            <path class="st2" d="M1473.8 1063.8h-.9l-91.1-.1 45.8-26.6 45.7 26.4.3.1z"/>
            <path class="st1" d="M1381.3 1010.4l.4 53.3-46.2-26.7z"/>
            <path class="st6" d="M1335.9 1090.3l45.8-26.6.2 52.9-.2.1z"/>
            <path class="st4" d="M1381.7 1063.7z"/>
            <path class="st1" d="M1289.3 1010.3l46.1 26.7-45.8 26.6z"/>
            <path class="st6" d="M1381 1010.1l-45.9-26.4-45.8 26.6 92 .1-45.8 26.6 46.2 26.7-92-.1 45.7-26.6-46.1-26.7-.4-53.3.4.2 45.8 26.4z"/>
            <path class="st2" d="M1289.4 1063.5l-91.8.1 45.8-26.7z"/>
            <path class="st1" d="M1197.2 1010.2l.4 53.4-46.2-26.7 45.4-26.5z"/>
            <path class="st4" d="M1197.6 1063.6h-.1z"/>
            <path class="st1" d="M1151.4 1036.8l-45.6 26.6-.2-53z"/>
            <path class="st6" d="M1105.8 1063.5l45.6-26.6 46.1 26.7z"/>
            <path class="st1" d="M1105.8 1063.7z"/>
            <path class="st2" d="M1105.8 1063.8l-.5-.2-.4.2h-91.2l45.8-26.7 45.8 26.5z"/>
            <path class="st1" d="M1013.3 1010.4l.4 53.4-46.3-26.7z"/>
            <path class="st4" d="M1013.7 1063.8z"/>
            <path class="st1" d="M921.2 1010.4l46.1 26.6-45.8 26.6z"/>
            <path class="st6" d="M920.9 957l92.5 53.4-46.3-26.6-45.8 26.6h92l-45.9 26.7 46.2 26.7-91.9-.1 45.6-26.7-46.1-26.6z"/>
            <path class="st1" d="M921.4 1063.7z"/>
            <path class="st2" d="M921.4 1063.6h-91.8l45.8-26.6z"/>
            <path class="st6" d="M783.2 1037.1l.1-.1 46.2 26.6h-91.7z"/>
            <path class="st1" d="M829.2 1010.3l.3 53.3-46.2-26.6 45.3-26.4.4-.2z"/>
            <path class="st6" d="M783.9 1090.2l45.6-26.5.2 52.9z"/>
            <path class="st1" d="M921.6 1063.7l.4 53.3-46.3-26.7z"/>
            <path class="st6" d="M921.4 1063.7l-45.7 26.6 46.2 26.7h-91.7l45.4-26.7-46.1-26.6-.3-53.4 46.2 26.7 45.8-26.6.2 53.2-46-26.6-45.8 26.6z"/>
            <path class="st4" d="M829.5 1063.7z"/>
            <path class="st6" d="M737.5 1063.6l-45.8-26.5 45.6-26.5z"/>
            <path class="st1" d="M737.7 1063.5l-.2.1-.2-53 45.8 26.4z"/>
            <path class="st6" d="M1473.4 1063.4l-45.8-26.3-45.8 26.6 91.1.1-45.4 26.3-45.8-26.4-.3-53.4 46.1 26.7z"/>
            <path class="st2" d="M1381.7 1063.7l-45.8 26.6-46.2-26.7z"/>
            <path class="st2" d="M1197.5 1063.6l-45.6 26.5-.1.1-46-26.5-.3-.2h.3z"/>
            <path class="st2" d="M1013.6 1063.8l-45.7 26.6-46.2-26.7z"/>
            <path class="st2" d="M829.5 1063.6l-45.6 26.6-.2.1-45.9-26.5-.3-.2h.3z"/>
            <path class="st1" d="M1427.5 1090.1l.3.2-45.8 26.6-.1-.3-.2-52.9z"/>
            <path class="st6" d="M1197.7 1116.6l-45.8-26.5 45.6-26.5z"/>
            <path class="st2" d="M1381.9 1116.9l-.7.1-91.1-.1 45.8-26.6 45.8 26.5z"/>
            <path class="st1" d="M1289.6 1063.6l.4 53.4-46.2-26.7z"/>
            <path class="st4" d="M1290 1117z"/>
            <path class="st6" d="M1289.4 1063.6l-45.6 26.7 46.2 26.7-91.7-.1 45.4-26.7-46.2-26.6-.3-53.3 46.2 26.6-45.8 26.7z"/>
            <path class="st1" d="M1243.7 1090.2l-45.7 26.5-.3.2v-.3l-.2-53z"/>
            <path class="st2" d="M1197.7 1117h-92l45.8-26.7z"/>
            <path class="st1" d="M1105.3 1063.6l.3 53.4-46.2-26.7 45.5-26.5z"/>
            <path class="st4" d="M1105.6 1117z"/>
            <path class="st1" d="M1059.4 1090.2l-45.6 26.6-.1-53z"/>
            <path class="st6" d="M1059.4 1090.3l46.2 26.7-92-.1.2-.1z"/>
            <path class="st2" d="M1013.6 1116.8l-.4.3-91.2-.1 45.8-26.6z"/>
            <path class="st4" d="M922 1117z"/>
            <path class="st1" d="M875.6 1090.3l-45.6 26.5-.3.2v-.4l-.2-52.9z"/>
            <path class="st6" d="M1335.9 1090.3l-45.8 26.6 91.1.1-45.4 26.4-45.8-26.4-.3-53.4z"/>
            <path class="st2" d="M1290 1117l-45.6 26.5-.2.1-46.2-26.7h.3z"/>
            <path class="st2" d="M1105.6 1117l-45.8 26.6-46.2-26.7z"/>
            <path class="st6" d="M967.9 1090.4l45.8-26.6.1 52.9-46-26.3L922 1117l91.2.1-45.4 26.4L922 1117l-.3-53.3z"/>
            <path class="st2" d="M921.9 1117l-45.6 26.6-.1.1-46.3-26.7h.3z"/>
            <path class="st1" d="M1336.1 1143.6l-45.9 26.7v-.4l-.2-52.9 45.8 26.4z"/>
            <path class="st6" d="M1290.2 1169.9l-45.8-26.4 45.6-26.5z"/>
            <path class="st2" d="M1290.2 1170.4h-1l-91.1-.1 45.8-26.6 45.8 26.4z"/>
            <path class="st1" d="M1197.7 1117l.4 53.4-46.3-26.7z"/>
            <path class="st4" d="M1198.1 1170.4z"/>
            <path class="st1" d="M1105.6 1117l46.1 26.6-45.8 26.6z"/>
            <path class="st6" d="M1105.3 1063.6l.4.2 92.1 53.2-46.3-26.7-45.8 26.7h92l-45.9 26.7 46.2 26.7-91.9-.1 45.6-26.7-46.1-26.6z"/>
            <path class="st1" d="M1105.8 1170.3z"/>
            <path class="st2" d="M1105.8 1170.2H1014l45.8-26.6z"/>
            <path class="st1" d="M1013.6 1116.8l.3 53.4-46.2-26.6 45.5-26.5z"/>
            <path class="st6" d="M876.3 1143.6L922 1117l.1 53z"/>
            <path class="st1" d="M967.8 1143.5l-45.7 26.6-.1-53.1z"/>
            <path class="st6" d="M922.2 1170.2l45.5-26.6 46.2 26.6z"/>
            <path class="st6" d="M1289.8 1170.1l-45.9-26.4-45.8 26.6 91.1.1-45.4 26.4-45.7-26.4-.3-53.4z"/>
            <path class="st2" d="M1198 1170.4l-45.7 26.6-46.2-26.7z"/>
            <path class="st2" d="M1013.9 1170.2l-45.6 26.6h-.2l-45.9-26.5-.3-.1h.2z"/>
            <path class="st6" d="M1152.3 1197l45.8-26.6.2 52.9-46.1-26.3-45.8 26.6 91.2.1-45.4 26.4-45.8-26.5-.3-53.3z"/>
            <path class="st1" d="M1243.8 1196.8l.4.2-45.8 26.6-.1-.3-.2-52.9z"/>
            <path class="st1" d="M1198.3 1223.7z"/>
            <path class="st1" d="M1060 1196.9l-45.6 26.5-.3.1v-.3l-.2-53z"/>
            <path class="st6" d="M1014.1 1223.2l-45.8-26.4 45.6-26.6z"/>
            <path class="st2" d="M1198.3 1223.5l-.7.2-91.2-.1 45.8-26.6 45.8 26.4z"/>
            <path class="st1" d="M1106 1170.3l.4 53.3-46.3-26.7z"/>
            <path class="st6" d="M1105.8 1170.3l-45.7 26.6 46.2 26.7-91.7-.1 45.4-26.6-46.1-26.7-.3-53.3 46.2 26.7 45.8-26.6.2 53.1-46-26.5-45.8 26.6z"/>
            <path class="st6" d="M1060.7 1250.1l45.7-26.5.1 53z"/>
            <path class="st2" d="M1106.3 1223.6l-45.6 26.5-.1.1-46.3-26.7h.3z"/>
            <path class="st1" d="M1152.5 1250.2l-46 26.7v-.3l-.1-53 45.8 26.5z"/>
        </g>
        <path class="st2" d="M919.8 744l-.1-.1h.2z"/>
        <path class="st6" d="M1105.4 1063.5l-45.9-26.4-45.8 26.7h91.1l-45.4 26.4-45.7-26.4-.3-53.4z"/>
    </g>
    <g class="st0">
        <path class="st1" d="M1656.2 531.6l-.3-52.9 45.8 26.5z"/>
        <path class="st2" d="M1840.5 585.2l-45.6 26.5-46.2-26.6z"/>
        <path class="st3" d="M1656.2 531.7z"/>
        <path class="st2" d="M2116.3 585.1h-92.1l45.8-26.7z"/>
        <path class="st4" d="M2116.6 638.5z"/>
        <path class="st1" d="M2116.8 691.8h.1z"/>
        <path class="st4" d="M2024.9 691.7z"/>
        <path class="st1" d="M1426.5 665.1l-45.6 26.6-.2-53z"/>
        <path class="st4" d="M1196.6 638.5v.1l-.1-.1z"/>
        <path class="st1" d="M1289.2 744.9l.3.2-.3.1z"/>
        <path class="st4" d="M1472.9 691.7z"/>
        <path class="st4" d="M1657.5 744.8z"/>
        <path class="st4" d="M1658.1 904.9z"/>
        <path class="st1" d="M1473.8 851.6l.1.1h-.1z"/>
        <path class="st4" d="M1473.8 851.5h.1z"/>
        <path class="st1" d="M1841.1 745v-.1h.1z"/>
        <path class="st1" d="M1933.6 798.4v-.1z"/>
        <g class="st5">
            <path class="st1" d="M1747.2 372.1l.4 53.4-46.3-26.7z"/>
            <path class="st6" d="M1654.8 318.7l92.5 53.4-46.3-26.7-45.8 26.7h92l-45.9 26.7 46.3 26.7-92-.1 45.6-26.7-46.1-26.6z"/>
            <path class="st2" d="M1747.2 372.1h-92l45.8-26.7z"/>
            <path class="st1" d="M1654.8 318.7l.3 53.4-46.2-26.7z"/>
            <path class="st1" d="M1655.1 372.1l46.1 26.6-45.8 26.6z"/>
            <path class="st4" d="M1655.1 372.1z"/>
            <path class="st6" d="M1655.1 372.1l-92-.1 45.8-26.6z"/>
            <path class="st2" d="M1655.1 372.1l-45.8 26.6-46.2-26.7z"/>
            <path class="st2" d="M1839.2 425.2l-.4.3-91.2-.1 45.9-26.6z"/>
            <path class="st2" d="M1747.6 425.5l-45.8 26.6-46.2-26.7z"/>
            <path class="st1" d="M1793.3 451.9l-45.5 26.5-.2-52.9z"/>
            <path class="st6" d="M1701.8 452.1l45.8-26.6.2 52.9-46-26.3-45.9 26.6 91.2.1-45.4 26.4-45.8-26.5-.3-53.3z"/>
            <path class="st4" d="M1747.6 425.5z"/>
            <path class="st1" d="M1655.3 425.4z"/>
            <path class="st2" d="M1655.3 425.3h-91.8l45.8-26.6z"/>
            <path class="st6" d="M1655.3 425.4l-45.7 26.6 46.3 26.7-91.8-.1 45.4-26.6-46.1-26.7-.3-53.3 46.2 26.7 45.8-26.6.2 53.2-46-26.6-45.8 26.6z"/>
            <path class="st1" d="M1563.1 372l.3 53.3-46.2-26.6z"/>
            <path class="st4" d="M1563.4 425.3z"/>
            <path class="st6" d="M1471.7 425.3l45.5-26.6 46.2 26.6z"/>
            <path class="st3" d="M1471.6 425.3z"/>
            <path class="st6" d="M1839.3 425.2l-45.8-26.4-45.8 26.6 91.1.1-45.5 26.4-45.7-26.4-.3-53.4z"/>
            <path class="st2" d="M1563.4 425.3l-45.6 26.6-46.2-26.6z"/>
            <path class="st2" d="M1931.9 478.6l-92.1-.1 45.8-26.6z"/>
            <path class="st1" d="M1839.5 425.1l.3 53.4-46.3-26.7 45.3-26.3.5-.2z"/>
            <path class="st6" d="M1840 531.8l-45.7 26.7 46.2 26.7-91.7-.1 45.4-26.7-46.1-26.6-.3-53.3 46.2 26.6 45.8-26.6.2 53.2-46.1-26.6-45.8 26.7z"/>
            <path class="st4" d="M1839.8 478.5z"/>
            <path class="st6" d="M1793.5 451.8l46.2 26.7h-91.9l45.6-26.6z"/>
            <path class="st6" d="M1517.8 451.9l45.6-26.6.2 53z"/>
            <path class="st2" d="M1747.5 478.5l-.4.3-91.2-.1 45.9-26.6z"/>
            <path class="st1" d="M1655.5 425.4l.4 53.3-46.3-26.7z"/>
            <path class="st1" d="M1609.5 452l-45.6 26.5-.3-.1-.2-53.1z"/>
            <path class="st2" d="M1564 478.7l-92-.1 45.8-26.6z"/>
            <path class="st1" d="M1471.5 425.3l.4 53.3-46.2-26.6z"/>
            <path class="st4" d="M1471.9 478.6z"/>
            <path class="st6" d="M1425.7 452l46.2 26.6h-92z"/>
            <path class="st2" d="M1839.7 478.5l-45.7 26.6-46.2-26.6z"/>
            <path class="st2" d="M1655.9 478.7l-45.7 26.6-46.1-26.7z"/>
            <path class="st2" d="M1471.9 478.6l-45.8 26.7-46.2-26.7z"/>
            <path class="st2" d="M2024.3 531.9l-.4-.2-.4.2h-91.2l45.8-26.6 45.8 26.4z"/>
            <path class="st1" d="M1931.9 478.6l.3 53.3-46.2-26.7z"/>
            <path class="st6" d="M1886.4 558.5l45.8-26.6.2 52.9-46-26.3-45.8 26.6 91.2.1-45.5 26.4-45.8-26.4-.3-53.4z"/>
            <path class="st4" d="M1932.2 531.9z"/>
            <path class="st1" d="M1839.8 478.5l46.1 26.7-45.8 26.6z"/>
            <path class="st6" d="M1839.5 425.2l92.4 53.3-46.3-26.6-45.8 26.6 92.1.1-45.9 26.6 46.2 26.7-92-.1 45.7-26.6-46.1-26.7z"/>
            <path class="st1" d="M1840 531.8z"/>
            <path class="st2" d="M1840 531.7l-91.9.1 45.8-26.7z"/>
            <path class="st1" d="M1747.8 478.4l.3 53.4-46.2-26.7 45.2-26.3.5-.3z"/>
            <path class="st4" d="M1748.1 531.8z"/>
            <path class="st6" d="M1656.1 531.7l-45.9-26.4 45.7-26.6z"/>
            <path class="st6" d="M1701.7 505.2l.2-.1 46.2 26.7-91.8-.1z"/>
            <path class="st2" d="M1656 531.7h.2l-.1.1v-.1z"/>
            <path class="st1" d="M1656.1 531.8v-.1.1z"/>
            <path class="st2" d="M1656 531.8l-.4.3-91.2-.1 45.8-26.6z"/>
            <path class="st1" d="M1564 478.7l.4 53.3-46.3-26.7z"/>
            <path class="st4" d="M1564.4 532z"/>
            <path class="st1" d="M1471.9 478.6l46.1 26.7-45.8 26.6z"/>
            <path class="st6" d="M1563.6 478.4l-45.8-26.4-45.8 26.6 92 .1-45.9 26.6 46.2 26.7-92-.1 45.7-26.6-46.1-26.7-.3-53.3 46.1 26.6z"/>
            <path class="st1" d="M1472.1 532v-.1z"/>
            <path class="st2" d="M1472.1 531.8l-91.9.1 45.9-26.7z"/>
            <path class="st1" d="M1379.9 478.5l.3 53.4-46.2-26.7z"/>
            <path class="st4" d="M1380.2 531.9z"/>
            <path class="st6" d="M1288.5 531.8l45.5-26.6 46.2 26.7z"/>
            <path class="st6" d="M2023.9 531.6l-45.8-26.3-45.8 26.6h91.1l-45.4 26.4-45.8-26.4-.3-53.4z"/>
            <path class="st2" d="M1932.2 531.9l-45.8 26.6-46.2-26.7z"/>
            <path class="st2" d="M1748.1 531.8l-45.7 26.5-46.2-26.6z"/>
            <path class="st6" d="M1656 531.8l-45.8-26.4-45.8 26.6 91.1.1-45.4 26.3-45.7-26.4-.4-53.4 46.2 26.7z"/>
            <path class="st6" d="M1518.6 558.6l45.8-26.6.1 52.9-46-26.3-45.8 26.6 91.2.1-45.5 26.4-45.7-26.4-.4-53.3z"/>
            <path class="st2" d="M1564.3 532l-45.7 26.6-46.3-26.6z"/>
            <path class="st2" d="M1380.2 531.9l-45.7 26.5-.1.1-46.2-26.7h.3z"/>
            <path class="st1" d="M2023.9 531.7l.3 53.4-46.2-26.7 45.5-26.5z"/>
            <path class="st4" d="M2024.2 585.1z"/>
            <path class="st1" d="M1978 558.3l-45.6 26.6-.2-53z"/>
            <path class="st6" d="M1978 558.4l46.2 26.7-92-.1.2-.1z"/>
            <path class="st6" d="M1702.4 558.3l45.7-26.5.1 53z"/>
            <path class="st2" d="M1932.2 584.9l-.4.3-91.2-.1 45.8-26.6z"/>
            <path class="st1" d="M1840.1 531.8l.4 53.4-46.2-26.7z"/>
            <path class="st4" d="M1840.5 585.2z"/>
            <path class="st1" d="M1794.2 558.4l-45.7 26.5-.3-.1-.1-53z"/>
            <path class="st6" d="M1748.2 584.8l-45.8-26.4-45.8 26.7h92l-45.8 26.7 46.2 26.7-92-.1 45.6-26.7-46.1-26.6-.3-53.4 46.2 26.6z"/>
            <path class="st2" d="M1748.6 585.1h-92l45.8-26.7z"/>
            <path class="st1" d="M1656 531.8l.5 53.3-46.2-26.7 45.3-26.3z"/>
            <path class="st4" d="M1656.5 585.1z"/>
            <path class="st1" d="M1610.1 558.4l-45.6 26.6-.1-53z"/>
            <path class="st6" d="M1610.3 558.4l46.2 26.7-92-.1 45.7-26.5z"/>
            <path class="st6" d="M1334.5 558.4l45.7-26.5.2 53z"/>
            <path class="st2" d="M1564.3 585.1l-.4.2-91.2-.1 45.8-26.6z"/>
            <path class="st6" d="M1472.1 531.9l-45.7 26.7 46.2 26.7-91.7-.1 45.4-26.7-46.1-26.6-.3-53.3 46.2 26.7 45.8-26.7.2 53.2-46-26.6-45.9 26.7z"/>
            <path class="st1" d="M1472.3 531.9l.4 53.4-46.3-26.7z"/>
            <path class="st4" d="M1472.7 585.3h-.1z"/>
            <path class="st1" d="M1426.3 558.5l-45.6 26.5-.3.2v-.3l-.2-53z"/>
            <path class="st2" d="M1380.3 585.3h-92l45.8-26.7z"/>
            <path class="st6" d="M1288.2 585.3l-92-.1 45.8-26.6z"/>
            <path class="st1" d="M1287.9 531.9l.4 53.4-46.3-26.7z"/>
            <path class="st4" d="M1288.3 585.3z"/>
            <path class="st2" d="M2024.2 585.1l-45.8 26.6-46.2-26.7z"/>
            <path class="st6" d="M1656.7 638.4l-45.6 26.6 46.2 26.7-91.7-.1 45.3-26.6-46.1-26.7-.3-53.3 46.2 26.7 45.8-26.6.2 53.1-46-26.5-45.8 26.6z"/>
            <path class="st2" d="M1656.5 585.1l-45.8 26.6-46.2-26.7z"/>
            <path class="st2" d="M1472.6 585.3l-45.6 26.5-.1.1-46.3-26.7h.3z"/>
            <path class="st2" d="M1288.2 585.3l-45.7 26.6-46.3-26.7z"/>
            <path class="st2" d="M2208.7 638.5h-92l45.8-26.7 45.8 26.4z"/>
            <path class="st1" d="M2116.3 585.1l.3 53.4-46.2-26.7z"/>
            <path class="st1" d="M2024.2 585.1l46.1 26.6-45.8 26.6z"/>
            <path class="st6" d="M2023.9 531.7l.4.2 92 53.2-46.3-26.7-45.8 26.7h92.1l-45.9 26.7 46.2 26.7-92-.1 45.7-26.7-46.1-26.6z"/>
            <path class="st1" d="M2024.4 638.4z"/>
            <path class="st2" d="M2024.4 638.3h-91.9l45.8-26.6z"/>
            <path class="st6" d="M1840.7 638.3l45.6-26.6 46.2 26.6z"/>
            <path class="st1" d="M2024.5 638.4l.4 53.3-46.2-26.7z"/>
            <path class="st6" d="M2024.4 638.4l-45.7 26.6 46.2 26.7h-91.7l45.4-26.7-46.1-26.6-.3-53.4 46.2 26.7 45.8-26.6.2 53.2-46.1-26.6-45.8 26.6z"/>
            <path class="st1" d="M1932.2 585l.3 53.3-46.2-26.6 45.5-26.5z"/>
            <path class="st6" d="M1794.9 611.7l45.6-26.5.2 52.9z"/>
            <path class="st1" d="M1886.3 611.6l-45.6 26.6-.2-53z"/>
            <path class="st4" d="M1840.7 638.3z"/>
            <path class="st2" d="M1932.5 638.3l-45.7 26.6-45.8-26.4-.3-.2z"/>
            <path class="st2" d="M1841.1 638.5l-.5-.2-.4.2-91.1-.1 45.8-26.6 45.7 26.4z"/>
            <path class="st1" d="M1748.6 585.1l.4 53.4-46.2-26.7z"/>
            <path class="st4" d="M1749 638.5z"/>
            <path class="st1" d="M1656.5 585.1l46.1 26.6-45.7 26.6z"/>
            <path class="st1" d="M1656.7 638.4h.1z"/>
            <path class="st2" d="M1656.7 638.2l-91.8.1 45.8-26.6z"/>
            <path class="st6" d="M1518.5 611.7h.1l46.2 26.6h-91.7z"/>
            <path class="st1" d="M1564.5 584.9l.3 53.4-46.2-26.6 45.3-26.4.4-.2z"/>
            <path class="st4" d="M1564.8 638.3z"/>
            <path class="st6" d="M1427 611.8l45.6-26.5.2 52.9z"/>
            <path class="st1" d="M1473 638.2l-.2.1-.2-53 45.8 26.4z"/>
            <path class="st1" d="M1472.8 638.3l.3.1-.2.1-.1.1v-.1z"/>
            <path class="st2" d="M1472.3 638.4l-.3.3-91.2-.1 45.8-26.6z"/>
            <path class="st6" d="M1287.9 531.9l92.5 53.4-46.3-26.7-45.8 26.7h92l-45.8 26.7 46.2 26.7-92-.1 45.7-26.7-46.1-26.6z"/>
            <path class="st1" d="M1380.3 585.3l.4 53.4-46.2-26.7z"/>
            <path class="st4" d="M1380.7 638.7z"/>
            <path class="st6" d="M1242.5 611.9l45.8-26.6.1 53.2z"/>
            <path class="st1" d="M1288.3 585.3l46.1 26.6-45.8 26.6z"/>
            <path class="st1" d="M1288.4 638.6h.1z"/>
            <path class="st2" d="M1288.4 638.5h-91.8l45.8-26.6z"/>
            <path class="st1" d="M1196.2 585.2l.4 53.3-46.2-26.6z"/>
            <path class="st6" d="M1104.8 638.5l45.6-26.6 46.1 26.6z"/>
            <path class="st6" d="M2208.3 638.2l-45.8-26.4-45.8 26.7h91.1l-45.4 26.4-45.8-26.4-.3-53.4z"/>
            <path class="st2" d="M2116.6 638.5l-45.8 26.6-46.2-26.7z"/>
            <path class="st6" d="M1840.7 638.2l-45.8-26.4-45.8 26.6 91.1.1-45.4 26.4-45.8-26.4-.3-53.4 46.1 26.6z"/>
            <path class="st2" d="M1749 638.5l-45.8 26.6-46.2-26.7z"/>
            <path class="st2" d="M1564.8 638.3l-45.6 26.6h-.2l-45.9-26.5-.3-.1h.3z"/>
            <path class="st6" d="M1472.4 638.4l-45.8-26.4-45.8 26.6 91.1.1-45.4 26.4-45.8-26.4-.3-53.4z"/>
            <path class="st2" d="M1380.7 638.7l-45.8 26.6-46.2-26.7z"/>
            <path class="st6" d="M1150.9 665.1l45.6-26.6.2 53z"/>
            <path class="st2" d="M1196.5 638.5l-45.6 26.6-46.4-26.6h.3z"/>
            <path class="st6" d="M2070.8 665.1l45.8-26.6.2 52.9-46-26.3-45.8 26.6 91.2.1-45.5 26.4-45.8-26.5-.3-53.3z"/>
            <path class="st1" d="M2162.4 664.9l.3.2-45.8 26.6-.1-.3-.2-52.9z"/>
            <path class="st6" d="M1932.7 691.3l-45.9-26.4 45.7-26.5z"/>
            <path class="st2" d="M2116.8 691.6l-.6.2-91.2-.1 45.8-26.6 45.8 26.4z"/>
            <path class="st1" d="M1978.6 665l-45.7 26.5-.2-.1-.2-53z"/>
            <path class="st2" d="M1933 691.7l-92-.1 45.8-26.6z"/>
            <path class="st6" d="M1794.7 665l46.2 26.6h-92l.3-.2z"/>
            <path class="st1" d="M1840.6 638.3l.3 53.3-46.2-26.6 45.5-26.5z"/>
            <path class="st4" d="M1840.9 691.7z"/>
            <path class="st1" d="M1794.8 664.9l-45.6 26.5-.2-52.9z"/>
            <path class="st1" d="M1610.9 665l-45.6 26.5-.3.1v-.3l-.2-53z"/>
            <path class="st6" d="M1565 691.3l-45.8-26.4 45.6-26.6z"/>
            <path class="st2" d="M1749 691.5l-.5.3-91.1-.1 45.8-26.6z"/>
            <path class="st1" d="M1656.9 638.4l.4 53.3-46.2-26.7z"/>
            <path class="st4" d="M1657.3 691.7z"/>
            <path class="st2" d="M1565 691.8l-92-.1 45.8-26.6z"/>
            <path class="st1" d="M1472.6 638.3l.3 53.4-46.2-26.7 45.3-26.3.4-.2z"/>
            <path class="st6" d="M1426.5 665.1l46.4 26.6h-92z"/>
            <path class="st6" d="M1334.9 665.3l45.8-26.6.2 52.9-.2.1z"/>
            <path class="st2" d="M1380.7 691.7l-.4.3-91.2-.1 45.8-26.6z"/>
            <path class="st1" d="M1288.6 638.6l.4 53.3-46.2-26.7z"/>
            <path class="st6" d="M1288.4 638.6l-45.6 26.6 46.2 26.7-91.7-.1 45.4-26.6-46.1-26.6-.4-53.4 46.2 26.7-45.8 26.6z"/>
            <path class="st1" d="M1242.7 665.2l-45.7 26.5-.3.2v-.4l-.2-53z"/>
            <path class="st2" d="M2024.9 691.7l-45.6 26.6-46.2-26.6z"/>
            <path class="st6" d="M1795.1 718.3l45.8-26.6.2 53.1z"/>
            <path class="st2" d="M1840.9 691.6l-45.8 26.7-46.2-26.7z"/>
            <path class="st6" d="M1703.2 665.1l45.8-26.6.2 52.9-46-26.3-45.8 26.6h91.1l-45.4 26.5-45.8-26.5-.3-53.3z"/>
            <path class="st6" d="M1657.5 744.7l-45.9-26.5 45.7-26.5z"/>
            <path class="st2" d="M1657.3 691.7l-45.7 26.5-.1.1-46.2-26.7h.3z"/>
            <path class="st2" d="M1472.9 691.7l-45.8 26.6-46.2-26.6z"/>
            <path class="st6" d="M1334.9 665.3l-45.8 26.6 91.1.1-45.4 26.4-45.8-26.5-.3-53.3z"/>
            <path class="st2" d="M1289 691.9l-45.6 26.6-46.4-26.7h.3z"/>
            <path class="st6" d="M2025.1 744.7l-45.8-26.4 45.6-26.6z"/>
            <path class="st1" d="M2071 718.4l-45.7 26.5-.2-.1v-.1l-.2-53 45.8 26.5z"/>
            <path class="st2" d="M2025.5 745.1h-.9l-91.1-.1 45.8-26.6 45.7 26.4.3.1z"/>
            <path class="st1" d="M1933 691.7l.4 53.3-46.2-26.7z"/>
            <path class="st6" d="M1887.6 771.7l45.8-26.7.2 53-.2.1z"/>
            <path class="st4" d="M1933.4 745z"/>
            <path class="st1" d="M1840.9 691.7l46.2 26.6-45.8 26.6z"/>
            <path class="st6" d="M1932.7 691.4l-45.9-26.4-45.8 26.6 92 .1-45.8 26.6 46.2 26.7h-92l45.7-26.7-46.2-26.6-.3-53.4.4.2 45.8 26.4z"/>
            <path class="st2" d="M1841.1 744.8l-91.8.1 45.8-26.6z"/>
            <path class="st1" d="M1748.9 691.5l.3 53.4-46.1-26.7 45.4-26.4z"/>
            <path class="st4" d="M1749.2 744.9z"/>
            <path class="st1" d="M1703.1 718.2l-45.6 26.5-.2-53z"/>
            <path class="st6" d="M1657.5 744.8l45.6-26.6 46.1 26.7z"/>
            <path class="st1" d="M1657.5 745z"/>
            <path class="st2" d="M1657.5 745.2l-.5-.3-.4.3-91.2-.1 45.8-26.6 45.8 26.4z"/>
            <path class="st1" d="M1565 691.8l.4 53.3-46.3-26.7z"/>
            <path class="st4" d="M1565.4 745.1z"/>
            <path class="st1" d="M1472.9 691.7l46.1 26.7-45.8 26.6z"/>
            <path class="st6" d="M1472.6 638.4l92.4 53.3-46.2-26.6-45.8 26.6 92 .1-45.9 26.6 46.2 26.7-92-.1 45.7-26.6-46.1-26.7z"/>
            <path class="st1" d="M1473.1 745z"/>
            <path class="st2" d="M1473.1 744.9l-91.8.1 45.8-26.7z"/>
            <path class="st6" d="M1334.9 718.4l.1-.1 46.2 26.7-91.7-.1z"/>
            <path class="st1" d="M1380.9 691.6l.3 53.4-46.2-26.7 45.3-26.3.4-.3z"/>
            <path class="st6" d="M1335.5 771.5l45.7-26.5.2 53z"/>
            <path class="st1" d="M1473.3 745l.4 53.4-46.3-26.7z"/>
            <path class="st6" d="M1473.1 745l-45.7 26.7 46.2 26.7-91.7-.1 45.4-26.7-46.1-26.6-.3-53.3 46.2 26.6 45.8-26.6.2 53.2-46-26.6-45.8 26.7z"/>
            <path class="st4" d="M1381.2 745z"/>
            <path class="st6" d="M1289.2 744.9l-45.8-26.4 45.6-26.6z"/>
            <path class="st1" d="M1289.4 744.8l-.2.1-.2-53 45.8 26.5z"/>
            <path class="st6" d="M2025.1 744.8l-45.8-26.4-45.8 26.6 91.1.1-45.4 26.4-45.8-26.5-.3-53.3 46.1 26.6z"/>
            <path class="st2" d="M1933.4 745l-45.8 26.7-46.2-26.7z"/>
            <path class="st2" d="M1749.2 744.9l-45.6 26.5-.2.1-45.9-26.5-.3-.2h.3z"/>
            <path class="st2" d="M1565.3 745.1l-45.7 26.6-46.3-26.7z"/>
            <path class="st2" d="M1381.2 745l-45.7 26.5-.1.1-45.9-26.5-.3-.2h.3z"/>
            <path class="st1" d="M1979.2 771.5l.3.2-45.8 26.6-.1-.3-.2-53z"/>
            <path class="st6" d="M1749.4 797.9l-45.8-26.5 45.6-26.5z"/>
            <path class="st2" d="M1933.6 798.2l-.7.1h-91.1l45.8-26.7 45.8 26.5z"/>
            <path class="st1" d="M1841.3 744.9l.4 53.4-46.2-26.7z"/>
            <path class="st4" d="M1841.7 798.3z"/>
            <path class="st6" d="M1841.1 744.9l-45.6 26.7 46.2 26.7-91.7-.1 45.3-26.7-46.1-26.6-.3-53.3 46.2 26.7-45.8 26.6z"/>
            <path class="st1" d="M1795.3 771.5l-45.6 26.6-.3.1v-.3l-.2-53z"/>
            <path class="st2" d="M1749.4 798.3h-92l45.8-26.6z"/>
            <path class="st1" d="M1657 744.9l.3 53.4-46.2-26.7 45.5-26.4z"/>
            <path class="st4" d="M1657.3 798.3z"/>
            <path class="st1" d="M1611.1 771.5l-45.6 26.6-.1-53z"/>
            <path class="st6" d="M1611.1 771.6l46.2 26.7-92-.1.2-.1z"/>
            <path class="st2" d="M1565.3 798.2l-.4.2-91.2-.1 45.8-26.6z"/>
            <path class="st4" d="M1473.7 798.4z"/>
            <path class="st1" d="M1427.3 771.6l-45.6 26.5-.3.2v-.3l-.2-53z"/>
            <path class="st6" d="M1887.6 771.6l-45.8 26.7h91.1l-45.4 26.4-45.8-26.4-.3-53.3z"/>
            <path class="st2" d="M1841.7 798.3l-45.7 26.5-.1.1-46.2-26.7h.3z"/>
            <path class="st2" d="M1657.3 798.3l-45.8 26.6-46.2-26.7z"/>
            <path class="st6" d="M1519.6 771.7l45.8-26.6.1 52.9-46-26.3-45.8 26.6 91.2.1-45.5 26.4-45.7-26.4-.4-53.4z"/>
            <path class="st2" d="M1473.6 798.4l-45.6 26.5-.1.1-46.3-26.7h.3z"/>
            <path class="st1" d="M1887.8 824.9l-45.9 26.7v-.4l-.2-52.9 45.8 26.4z"/>
            <path class="st6" d="M1841.9 851.2l-45.9-26.4 45.7-26.5z"/>
            <path class="st2" d="M1841.9 851.7h-92.1l45.8-26.7 45.8 26.5z"/>
            <path class="st1" d="M1749.4 798.3l.4 53.4-46.3-26.7z"/>
            <path class="st4" d="M1749.8 851.7z"/>
            <path class="st1" d="M1657.3 798.3l46.1 26.6-45.8 26.6z"/>
            <path class="st6" d="M1657 744.9l.4.3 92 53.1-46.2-26.6-45.8 26.6h92l-45.9 26.7 46.2 26.7-92-.1 45.7-26.7-46.1-26.6z"/>
            <path class="st1" d="M1657.5 851.6z"/>
            <path class="st2" d="M1657.5 851.5h-91.8l45.8-26.6z"/>
            <path class="st1" d="M1565.3 798.2l.3 53.3-46.2-26.6 45.5-26.5z"/>
            <path class="st6" d="M1428 824.9l45.7-26.5.1 52.9z"/>
            <path class="st1" d="M1519.4 824.8l-45.6 26.6-.1-53z"/>
            <path class="st6" d="M1473.9 851.5l45.5-26.6 46.2 26.6z"/>
            <path class="st6" d="M1841.4 851.4l-45.8-26.4-45.8 26.7h91.1l-45.4 26.4-45.7-26.4-.4-53.4z"/>
            <path class="st2" d="M1749.7 851.7l-45.7 26.6-46.3-26.7z"/>
            <path class="st2" d="M1565.6 851.5l-45.7 26.6-.1.1-45.9-26.5-.3-.2h.2z"/>
            <path class="st6" d="M1704 878.3l45.8-26.6.1 52.9-46-26.3-45.8 26.6 91.2.1-45.5 26.4-45.7-26.5-.4-53.3z"/>
            <path class="st1" d="M1795.5 878.1l.4.2-45.8 26.6-.2-.3-.1-52.9z"/>
            <path class="st1" d="M1749.9 905h.1z"/>
            <path class="st1" d="M1611.7 878.2l-45.6 26.5-.3.2v-.4l-.2-52.9z"/>
            <path class="st6" d="M1565.8 904.5l-45.9-26.4 45.7-26.5z"/>
            <path class="st2" d="M1749.9 904.9l-.6.1-91.2-.1 45.8-26.6 45.8 26.4z"/>
            <path class="st1" d="M1657.7 851.6l.4 53.3-46.3-26.7z"/>
            <path class="st6" d="M1657.5 851.6l-45.7 26.6 46.2 26.7h-91.7l45.4-26.7-46.1-26.6-.3-53.4 46.2 26.7 45.8-26.6.2 53.2-46-26.6-45.8 26.6z"/>
            <path class="st6" d="M1612.4 931.5l45.7-26.6.1 53z"/>
            <path class="st2" d="M1658 904.9l-45.6 26.6-.1.1-46.3-26.7h.3z"/>
            <path class="st1" d="M1704.2 931.6l-46 26.7v-.4l-.1-53 45.8 26.5z"/>
        </g>
        <path class="st2" d="M1471.5 425.3h-.1.2z"/>
        <path class="st6" d="M1657 744.8l-45.8-26.3-45.8 26.6 91.1.1-45.4 26.3-45.7-26.4-.4-53.4z"/>
    </g>
    <g class="st5">
        <path class="st7" d="M2194.2 646.6l-3.5 2.1L1084.9 10.2l3.5-2z"/>
        <path class="st8" d="M2208.3 638.5l-14.1 8.1L1088.4 8.2l-3.5 2 1105.8 638.5-43.4 25.2L1041.5 35.5l61-35.5z"/>
    </g>
</svg>
