<svg xmlns="http://www.w3.org/2000/svg" viewBox="0 0 212.9 158.5">
    <style>
        .st0,.st1,.st2,.st3{fill-rule:evenodd;clip-rule:evenodd;fill:#427437}.st1,.st2,.st3{fill:#3f7d8c}.st2,.st3{fill:#4ca1b4}.st3{fill:#53bbbe}.st4{fill:#1c5c68}.st4,.st5,.st6,.st7{fill-rule:evenodd;clip-rule:evenodd}.st5{stroke:#1c5c68;stroke-miterlimit:10;fill:#1c5c68}.st6,.st7{fill:#4fadb9}.st7{fill:#73c8ca}.st8{opacity:.18}.st8,.st9{fill-rule:evenodd;clip-rule:evenodd;fill:#fff}.st10{fill:#fff;stroke:#1c5c68;stroke-width:3;stroke-miterlimit:10}.st11{fill:#32ab53}
    </style>
    <g id="OBJECT">
        <path class="st0" d="M165.9 140.4c-.5 1.5-.9 3-.9 4.7 0 7.4 6 13.4 13.4 13.4 5.4 0 10-3.2 12.1-7.8 2.3 2.1 5.5 3.4 8.9 3.4 7.4 0 13.4-6 13.4-13.3 0-7.4-6.1-13.4-13.4-13.4h-.3c0-.4.1-1 .1-1.4 0-7.4-6.1-13.4-13.4-13.4-1.3 0-2.6.3-3.8.6-1.9-3.8-5.3-6.4-9.2-6.4-6 0-10.7 6-10.7 13.4 0 2.6.6 5 1.6 7.1-.6 1.5-.9 3-.9 4.7.1 3.1 1.2 6 3.1 8.4z"/>
        <path class="st0" d="M47 140.4c.5 1.5.9 3 .9 4.7 0 7.4-6.1 13.4-13.4 13.4-5.4 0-10-3.2-12.1-7.8-2.4 2.1-5.5 3.4-8.9 3.4C6 154 0 148.1 0 140.7s6-13.4 13.4-13.4h.3c0-.4-.1-1-.1-1.4 0-7.4 6-13.4 13.4-13.4 1.3 0 2.6.3 3.8.6 1.9-3.8 5.3-6.4 9.2-6.4 5.9 0 10.7 6 10.7 13.4 0 2.6-.6 5-1.6 7.1.6 1.5.9 3 .9 4.7 0 3.2-1.1 6.1-3 8.5z"/>
        <path class="st1" d="M45.2 73.6h119.5v74.1H45.2z"/>
        <path class="st2" d="M52 29h106.1v37.1H52z"/>
        <path class="st1" d="M67.3 0h75.4v20.8H67.3z"/>
        <path class="st3" d="M70.1 2.7h15.5v15.4H70.1z"/>
        <path class="st3" d="M88.1 2.7h15.5v15.4H88.1z"/>
        <path class="st3" d="M106.3 2.7h15.4v15.4h-15.4z"/>
        <path class="st3" d="M124.4 2.7h15.5v15.4h-15.5z"/>
        <path class="st4" d="M161.9 32H48c0-6.4 5.3-11.6 11.6-11.6h90.7c6.4 0 11.6 5.2 11.6 11.6z"/>
        <path class="st5" d="M41.6 65.4h126.7c5.3 0 9.6 4.3 9.6 9.6v3.9H32V75c0-5.3 4.4-9.6 9.6-9.6z"/>
        <path class="st6" d="M40.2 88.8H55v51.6H40.2z"/>
        <path class="st7" d="M35.2 140.4h24.9v7.3H35.2z"/>
        <path class="st3" d="M36.5 78.9h20.3v10H36.5z"/>
        <path class="st3" d="M150.9 78.9h20.3v10h-20.3z"/>
        <path class="st6" d="M153.7 88.8h14.7v51.6h-14.7z"/>
        <path class="st7" d="M148.6 140.4h24.9v7.3h-24.9z"/>
        <path class="st8" d="M70.8 100.5h69.3c3.7 0 6.8 3.1 6.8 6.9v40.3h-83v-40.3c0-3.8 3.1-6.9 6.9-6.9z"/>
        <path class="st9" d="M97.1 106.9h15.7c1.9 0 3.4 1.6 3.4 3.5v37.3c0 .1-22.4.1-22.4.1-.1 0-.2 0-.2-.1v-37.3c.1-2 1.6-3.5 3.5-3.5z"/>
        <path class="st9" d="M123.1 106.9h15.7c1.9 0 3.4 1.6 3.4 3.5v37.3c0 .1-22.4.1-22.4.1-.1 0-.2 0-.2-.1v-37.3c.1-2 1.6-3.5 3.5-3.5z"/>
        <path class="st9" d="M72.1 106.9h15.7c1.9 0 3.4 1.6 3.4 3.5v37.3c0 .1-22.4.1-22.4.1-.1 0-.2 0-.2-.1v-37.3c.1-2 1.6-3.5 3.5-3.5z"/>
        <path class="st1" d="M96.5 117.5h3v18h-3z"/>
        <path class="st1" d="M71.4 117.5h3v18h-3z"/>
        <path class="st1" d="M121.4 117.5h3v18h-3z"/>
    </g>
    <g id="Слой_2">
        <circle class="st10" cx="107.2" cy="50.7" r="23"/>
        <path id="path8" class="st11" d="M100.4 38.7l-7.9 20.7h7.4l2.8-7.2 4.6 8.5 4.6-8.5 2.8 7.2h7.4L114 38.7l-6.8 10.6-6.8-10.6z"/>
    </g>
</svg>
