<svg id="moon" xmlns="http://www.w3.org/2000/svg" viewBox="0 0 60.7 61.1">
    <style>
        .st0{fill:url(#SVGID_1_)}.st1{opacity:.161;fill:url(#SVGID_2_);enable-background:new}
    </style>
    <linearGradient id="SVGID_1_" gradientUnits="userSpaceOnUse" x1="-241.978" y1="619.92" x2="-242.685" y2="620.627" gradientTransform="matrix(48.057 0 0 -52.065 11669.116 32317.31)">
        <stop offset="0" stop-color="#fff"/>
        <stop offset="1" stop-color="#fff" stop-opacity="0"/>
    </linearGradient>
    <path class="st0" d="M43.2 13.6c-14.9 0-26.9 12-26.9 26.9 0 6.5 2.3 12.4 6.1 17.1-10-4-17-13.7-17-25.1 0-14.9 12.1-27 27-27 8.5 0 16.1 4 21.1 10.1-3.3-1.3-6.7-2-10.3-2z"/>
    <linearGradient id="SVGID_2_" gradientUnits="userSpaceOnUse" x1="-242.903" y1="620.828" x2="-243.903" y2="620.828" gradientTransform="matrix(60.748 0 0 -61.062 14816.616 37939.527)">
        <stop offset="0" stop-color="#fff"/>
        <stop offset="1" stop-color="#fff" stop-opacity="0"/>
    </linearGradient>
    <path class="st1" d="M44.5 19.3c-12.6 0-22.8 10.2-22.8 22.8 0 7.9 4 14.8 10.1 18.9h-1.3C13.7 61.1 0 47.4 0 30.5S13.7 0 30.5 0c15.4 0 28.1 11.4 30.2 26.2-4.1-4.3-9.8-6.9-16.2-6.9z"/>
</svg>
