<svg id="Hipster" xmlns="http://www.w3.org/2000/svg" viewBox="0 0 206.1 393.8">
    <style>
        .st0,.st1,.st2,.st3{fill-rule:evenodd;clip-rule:evenodd;fill:#735b73}.st1,.st2,.st3{fill:#ffbe73}.st2,.st3{fill:#a10000}.st3{fill:#db0000}.st4{fill:#b80000}.st4,.st5{fill-rule:evenodd;clip-rule:evenodd}.st10,.st11,.st12,.st6,.st7,.st8,.st9{fill-rule:evenodd;clip-rule:evenodd;fill:#db0b0b}.st10,.st11,.st12,.st7,.st8,.st9{fill:#e30000}.st10,.st11,.st12,.st8,.st9{fill:#1a1a1a}.st10,.st11,.st12,.st9{fill:#333}.st10,.st11,.st12{fill:#c40000}.st11,.st12{fill:#bf0000}.st12{fill:#8f0000}.st13,.st14,.st15,.st16,.st17,.st18{fill-rule:evenodd;clip-rule:evenodd;fill:#945a21}.st14,.st15,.st16,.st17,.st18{fill:#b3712e}.st15,.st16,.st17,.st18{fill:#e0b255}.st16,.st17,.st18{fill:#ad8585}.st17,.st18{fill:#f2915c}.st18{fill:#a17861}.st19,.st20,.st21,.st22,.st23,.st24{fill-rule:evenodd;clip-rule:evenodd;fill:#ffb27f}.st20,.st21,.st22,.st23,.st24{fill:#322733}.st21,.st22,.st23,.st24{fill:#e8d3a9}.st22,.st23,.st24{fill:#fec}.st23,.st24{fill:#3f3140}.st24{fill:#73432e}.st25,.st26,.st27,.st28,.st29,.st30{fill-rule:evenodd;clip-rule:evenodd;fill:#361d38}.st26,.st27,.st28,.st29,.st30{fill:#f28a59}.st27,.st28,.st29,.st30{fill:#cc512f}.st28,.st29,.st30{fill:#d67b46}.st29,.st30{fill:#ed8956}.st30{fill:#faf2db}.st31,.st32,.st33,.st34,.st35,.st36{fill-rule:evenodd;clip-rule:evenodd;fill:#326940}.st32,.st33,.st34,.st35,.st36{fill:#584459}.st33,.st34,.st35,.st36{fill:#ffc59e}.st34,.st35,.st36{fill:#66493c}.st35,.st36{fill:#e8704f}.st36{fill:#e07945}.st37,.st38,.st39,.st40,.st41,.st42{fill-rule:evenodd;clip-rule:evenodd;fill:#fff}.st38,.st39,.st40,.st41,.st42{fill:#d9c08f}.st39,.st40,.st41,.st42{fill:#f76346}.st40,.st41,.st42{fill:#b81a1a}.st41,.st42{fill:#372a38}.st42{fill:#493e4a}.st43,.st44,.st45,.st46,.st47,.st48{fill-rule:evenodd;clip-rule:evenodd;fill:#7a200c}.st44,.st45,.st46,.st47,.st48{fill:#e68943}.st45,.st46,.st47,.st48{fill:#ccc}.st46,.st47,.st48{fill:#821818}.st47,.st48{fill:#ff976b}.st48{fill:#d95e40}.st49,.st50,.st51,.st52,.st53,.st54{fill-rule:evenodd;clip-rule:evenodd;fill:#e84545}.st50,.st51,.st52,.st53,.st54{fill:#fff2d9}.st51,.st52,.st53,.st54{fill:#8f6851}.st52,.st53,.st54{fill:#e3a758}.st53,.st54{fill:#ed0000}.st54{fill:#ed0c0c}.st55,.st56,.st57,.st58,.st59,.st60{fill-rule:evenodd;clip-rule:evenodd;fill:#edb868}.st56,.st57,.st58,.st59,.st60{fill:#d99b4a}.st57,.st58,.st59,.st60{fill:#ffe3b8}.st58,.st59,.st60{fill:#e8af5a}.st59,.st60{fill:#ba0000}.st60{fill:#593525}.st61,.st62,.st63,.st64,.st65,.st66{fill-rule:evenodd;clip-rule:evenodd;fill:#7d4f3b}.st62,.st63,.st64,.st65,.st66{fill:#8c5a45}.st63,.st64,.st65,.st66{fill:#ab9b55}.st64,.st65,.st66{fill:#b6ba65}.st65,.st66{fill:#4d1c1c}.st66{fill:#f29e66}.st67,.st68,.st69,.st70,.st71,.st72{fill-rule:evenodd;clip-rule:evenodd;fill:#3d050e}.st68,.st69,.st70,.st71,.st72{fill:#a65900}.st69,.st70,.st71,.st72{fill:#eb8d00}.st70,.st71,.st72{fill:#2b2323}.st71,.st72{fill:#d4c1c1}.st72{fill:#ede1e1}.st73,.st74,.st75,.st76,.st77,.st78{fill-rule:evenodd;clip-rule:evenodd;fill:#ff0}.st74,.st75,.st76,.st77,.st78{fill:#ffe6d9}.st75,.st76,.st77,.st78{fill:#edc78e}.st76,.st77,.st78{fill:#4a3221}.st77,.st78{fill:#f29466}.st78{fill:#efdaf5}.st79,.st80,.st81,.st82,.st83,.st84{fill-rule:evenodd;clip-rule:evenodd;fill:#b6a7ba}.st80,.st81,.st82,.st83,.st84{fill:#edb35c}.st81,.st82,.st83,.st84{fill:#e8b972}.st82,.st83,.st84{fill:#1c1c1c}.st83,.st84{fill:#171717}.st84{fill:#e6e6e6}.st85,.st86,.st87,.st88,.st89,.st90{fill-rule:evenodd;clip-rule:evenodd;fill:#e6b56c}.st86,.st87,.st88,.st89,.st90{fill:#e68757}.st87,.st88,.st89,.st90{fill:#e3b36b}.st88,.st89,.st90{fill:#ff9e6e}.st89,.st90{fill:#e3a34f}.st90{fill:#fcdcab}.st91,.st92,.st93,.st94,.st95,.st96{fill-rule:evenodd;clip-rule:evenodd;fill:#fff1db}.st92,.st93,.st94,.st95,.st96{fill:#d1c0d6}.st93,.st94,.st95,.st96{fill:#e6a94e}.st94,.st95,.st96{fill:#f2bb68}.st95,.st96{fill:#edad4e}.st96{fill:#f7c271}
    </style>
    <g id="Character">
        <path class="st0" d="M107.8 351.5c5.3.4 10.4.8 15.1 1.2 130.8 11.4 73.4 49.5-27.4 39.4-42.7-4.3-87.9-11.5-86.7-27.6.7-8.1 30.6-17.8 99-13z"/>
        <path class="st1" d="M89.2 70c12.1-6.8 17.4-1.7 17.4-1.7.2-2-2.9 14.3-6.7 37.3-13 5.5-19.3 5.4-15.7-2.8 1.1-10 2.7-20.9 5-32.8z"/>
        <path class="st1" d="M100.6 101.5c-10.7-1.1-16.1-1.6-16.1-1.6-3.3.4-6 2.6-8.2 6.6-3 7-.2 10.8 3.4 11.6 5.3 1.2 13.6-3.3 18.2-6.5 4.5-4.1 5.4-7.5 2.7-10.1z"/>
        <path class="st2" d="M104.3 213.9C82.7 195.7 72 186.6 72 186.6c6.3 60 8.1 84 6.7 89.9 5.4 19.1 6.6 35.3 5.6 54.1-1.6 6.6-2.3 9.9-2.3 9.9 10 1.9 15 2.8 15 2.8.2-20.5 1.6-38 4.2-52.7-.4-9.3-2.1-16.7-5.2-22.1 4.4-24.4 7.2-42.6 8.3-54.6z"/>
        <path class="st3" d="M93.9 216.2c-.1 11.3-.5 21.3-1 29.8s-1.3 15.7-2.2 21.4c-1.3 2.6-1.8 4.3-1.5 5.1.2.6 1.1.5 2.7-.3l.7-.4-.3.7c-.3.8-.5 1.3-.6 1.8 0 .3 0 .4.1.6.1.1.2.2.4.2s.5 0 .8-.1l.2-.1.1.2c1.4 3.7 2.4 7.1 2.9 10.2.5 3.2.7 6 .4 8.7-1.5 13.8-2.5 24.1-3 31-.5 6.6-.6 9.9-.3 9.9l.1.5c-.8.1-.9-3.3-.4-10.4.5-6.9 1.5-17.2 3-31 .3-2.6.2-5.4-.4-8.5-.5-3.1-1.5-6.4-2.8-9.9-.3.1-.6.1-.8 0-.3-.1-.6-.2-.7-.4-.1-.2-.2-.5-.2-.9s.1-.8.3-1.3c-1.6.7-2.5.6-2.8-.3-.3-.9.3-2.7 1.6-5.4.9-5.7 1.6-12.8 2.2-21.3.5-8.5.9-18.4 1-29.8h.5z"/>
        <path class="st4" d="M121.3 359.2c6.6.6 9.8.9 9.8.9 8.1-44.9 17.8-47.2 3.8-79.1-5.9-13.5-7.2-32.6-9.4-55.3 3.7-12.5-5.1-30.7-5.5-34.2-1.2-6-2.9-4.8-7.1-1.6-31.8 6-39.7-1.6-41.1-3.3 3.3 3.3 4.9 6.6 6.5 10.3 3.5 7.7 6.7 16.5 10.9 24.9 4.5 1.6 5.8.6 7.6.5 9.1 24.3 18.3 47 19.6 65.4 9.1 26.7 6.3 51.6 4.9 71.5z"/>
        <path class="st4" d="M116.7 181.3c2.5-.1 1 1.8 2.2 7.4-1.9-.2-13.3 3.5-22.4 6.4-2 .8-5.7 2.3-9.1 2.5-4.8.3-9.3-1.3-11.6-3.7-1.6-1.7-2.3-4.6-3.9-7.2.2-.7-1.4-6.3.7-5.8 0 .6-.1 1 .1 1.3 2.7 4.1 5 6.3 11.4 7 8.7.9 23.8-5.3 32.6-7.9z"/>
        <path class="st5" d="M121.4 352.3c5.7 1.4 9.5 3.2 11.5 5.3 1.9 7.2 2.4 12.8 1.4 16.9-1.7 1.6-3.8 1.9-6.3 1.1-12.7 7.3-25.1 8-35.4 3.7-.4-1.1-.1-1.4-.3-2.1-.2-.7 1.2-.3 1.2-.8 0-1.2-1.1-2.5 1.2-3.4 8.9-3.5 13.3-7.7 17.1-10.1 4-1.3 7.2-4.9 9.6-10.6z"/>
        <path class="st5" d="M84.2 337.9c5.7 1.4 9.5 3.2 11.5 5.3 1.9 7.2 2.4 12.8 1.4 16.9-1.7 1.6-3.8 1.9-6.3 1.1-12.7 7.3-24.2 8.8-34.5 4.5-1.1-3.5-1.6-5.2-1.6-5.2 9.3-5.4 15.9-9.4 19.9-12 3.9-1.3 7.2-4.8 9.6-10.6z"/>
        <path class="st3" d="M96.6 220c-2.8.7-3.8 1.2-6 .7-2.8-7.8-5.3-14.5-6.7-21.1 3.4.9 4.4.1 7.5-.6.4 8.4 3 15.4 5.2 21z"/>
        <path class="st6" d="M118.9 284.9c-.5-1.4-.6-3.2-.1-5.5 0 0 2.5 1.2 11.6 2.5 0 0-3.5 4.7-9.3 6.3-1.2.2-.7-3.7-2.2-3.3z"/>
        <path class="st7" d="M92.6 199.4c3.5-1.6 7-2.9 10.5-3.7 3.7 10.5 7.3 15.4 15.3 15.6.6 4.5 0 9.1-.2 14.8.8 13.3 6.2 39.8 10.2 51.9 0 0-1.1.7-10.7-1.5-1.9-8.4-2.7-13.1-2.4-14 2.8.6 5.1 1.2 6.9 1.6-2-1-4.6-2.4-7.8-4.2 0 0-5.5-13.3-16.5-39.8 22 2.4 22 1.4-.1-2.9 25.2-4.4 24.9-5.4-1-3-1.8-4.5-3.1-9.5-4.2-14.8z"/>
        <path class="st3" d="M126.2 343.6c3.7.4 5.5.6 5.5.6s2-10.5 6.1-31.6c1.6-7.8-.1-15.6-5.3-23.1 0 0-2.1 4.7-6.3 14.2 1.7 12.7 1.7 26 0 39.9z"/>
        <path class="st8" d="M111.3 364.5c-1.4.8-2.8 1.6-4 2.3-.3.1 3.4 3.3 3.2 3.4-.3.2-4.5-2.6-4.8-2.5-6.2 3.4-10 5.4-10.8 7-.1 1.8 3.9 2.6 5.2 2.4 8.8-1.3 14.9-2.6 17.1-3.4-3.1-2.9-5.3-5-5.4-5.7 0-.1-.3-.3.3-.2 1.5.2 6.3 4.8 7.2 4.2.5-.4 4.1 2-.1-2 4.5 2.9 2.2.4 2.2.4.4-3.1-1.6-3.7-2.5-6.2 2.1-4.3 5-8.8 5-8.8-3.1 3.6-7.2 7.9-7.2 7.9-3.5 1.2-3.6 0-5.4 1.2z"/>
        <path class="st9" d="M99.1 372.6c.8 1.4 1.6 2.6 2.3 3.6-1.4-.3-3.2-.8-5.4-1.6 1-.9 2-1.6 3.1-2z"/>
        <path class="st3" d="M120.2 351.6c-1 3.1-1.9 4.7-1 5 2.4-1.9 7.3 0 14.8 5.6.5-2.1 0-5 .3-6.6 1.1-6.1 4-6-2.6-8.3-3.1-1.1-6.1-1.1-9.4-.4-2.5.6-1.3 2.3-2.1 4.7z"/>
        <path class="st4" d="M127.9 353.3c-2.8-1-4.9-.4-6.3 1.7 3.8.2 7.7 2 11.5 5.2-.6-4.5 0-7.9 1.6-10-3.4-2.3-6.9-3.1-10.6-2.4 3 .8 5.1 1.5 6.2 2.1-.3 1.9-1.1 3-2.4 3.4z"/>
        <path class="st10" d="M81.4 198.6c-2-1.1-3.6-3.5-3.6-3.5.4 7.7.7 11.1.7 11.1 5 5.7 5.7 7.8 5.7 7.8-4.6-2.1-5.1-2.3-5.1-2.3l2.1 3.9c4.3 2 6.4 3 6.4 3-3.1 1.8-4.6 2.7-4.6 2.7V268c8.8-32.2 11.6-47.5 8.4-45.8-2.2-.5-3.3-4.4-5.4-10.3-2.1-5.7-4.5-11.2-4.6-13.3z"/>
        <path class="st11" d="M83 335.9c-1 3.1-2 4.7-1 5 2.5-1.9 7.6 0 15.5 5.6.5-2.1 0-5 .3-6.6 1.1-6.1 4.2-6-2.8-8.3-3.2-1.1-6.4-1.1-9.9-.4-2.5.6-1.3 2.3-2.1 4.7z"/>
        <path class="st12" d="M91.1 337.6c-3-1-5.2-.4-6.6 1.7 4 .2 8 2 12 5.2-.6-4.5 0-7.9 1.7-10-3.6-2.3-7.3-3.1-11.1-2.4 3.2.8 5.4 1.5 6.5 2.1-.4 1.9-1.2 3-2.5 3.4z"/>
        <path class="st13" d="M70.8 182.4c-.1 3.3.2 6 .2 6 4.7 5.5 9.1 6.2 13.5 6.7 6.2.8 28.7-5.2 36.6-8.8-.6-2.9-.1-5.3-1-4.9-3.8 1.4-22.6 9-35.4 8.6-7.2-.2-12.3-6-13-7.6-.3-.4-.9-.1-.9 0z"/>
        <path class="st14" d="M85 195.2c3.2-.1 5.2-.3 5.9-.5 6-.7 10-1.8 11.8-3.2.8-1.1.5-2.1-.6-3.1-1.1-.3-4.7.2-10.8 1.2-4.2.1-6.3.1-6.3.1-.6 2.1-.5 3.9 0 5.5z"/>
        <path class="st3" d="M78.7 186.9c1.6.4 2.9 1.4 2.9 1.4s-.6 3.3-.4 9c-1-.2-1.5-.4-2.8-.7 0 0-.7-5.5.3-9.7z"/>
        <path class="st3" d="M73.2 183.5c.2 1 1.5 1.7 1.5 1.7-1.3.5-1.6 7.4-.7 8.5-.9-.4-1.5-.8-1.8-1.4.1-.1-1.4-7.6 1-8.8z"/>
        <path class="st15" d="M88.2 188.8c.3 0 .5.2.6.5 0 .3-.2.5-.5.6h-4c-.1 0 0 .4 0 1.3 0 .3 0 .7.1 1.1V195.4c.1.1.6 0 1.5-.1.7-.1 1.6-.2 2.7-.2.3 0 .6.2.6.5s-.2.6-.5.6c-1.1.1-2 .2-2.7.2-1.2.1-1.8.2-2.2-.1-.5-.4-.5-.9-.5-2.1v-1.8c0-.4 0-.8-.1-1.1-.1-1.3-.1-1.9.5-2.2.4-.3 1-.3 2-.2.6-.1 1.5-.1 2.5-.1zm-2.5 4.3l3-.1c.3 0 .5-.3.5-.6s-.3-.5-.6-.5l-3 .1c-.3 0-.5.3-.5.6 0 .2.3.5.6.5z"/>
        <path class="st8" d="M73.4 350.7c-1.8 1-3.5 2-5 2.8-.4.2 4.1 3.3 3.8 3.5-.3.2-5.5-2.6-5.7-2.4-5.5 3-8.7 4.8-9.5 6.3-.1 1.8 3.9 2.6 5.2 2.4 8.8-1.3 14.9-2.6 17.1-3.4-3.1-2.9-5.7-5-5.8-5.6 0-.1-.3-.3.3-.2 1.5.2 6.7 4.7 7.6 4.1.5-.4 4.1 2-.1-2 4.5 2.9 2.2.4 2.2.4.4-3.1-1.6-3.7-2.5-6.2 2.1-4.3 5-8.8 5-8.8-3.1 3.6-7.2 7.9-7.2 7.9-3.5 1.2-3.5-.1-5.4 1.2z"/>
        <path class="st9" d="M61.2 358.7c.8 1.4 1.6 2.6 2.3 3.6-1.4-.3-3.2-.8-5.4-1.6 1-.9 2-1.5 3.1-2z"/>
        <path class="st16" d="M77.5 348.5c-.2 0-.4-.1-.4-.3 0-.2.1-.4.3-.4 1.3-.2 2.5-.2 3.8.2 1.2.4 2.4 1.1 3.6 2 .1.1.2.3 0 .5-.1.1-.3.2-.5 0-1.1-.9-2.2-1.6-3.3-1.9-1.2-.2-2.3-.3-3.5-.1z"/>
        <path class="st16" d="M80.3 346c-.2.1-.4.1-.5-.1-.1-.2-.1-.4.1-.5 2.2-1.6 4.3-1.7 7.3-1.7h.5c.2 0 .3.1.3.3 0 .2-.1.3-.3.3h-.5c-2.8.1-4.9.2-6.9 1.7z"/>
        <path class="st16" d="M82.1 343c-.1-.1-.1-.3 0-.5.1-.1.3-.1.5 0 .2.2.4.4.7.6 1.2 1.1 2.2 2.1 2.7 3.9 0 .2-.1.4-.2.4-.2 0-.4-.1-.4-.2-.4-1.6-1.5-2.6-2.6-3.6-.3-.2-.5-.5-.7-.6z"/>
        <path class="st16" d="M115 362.4c-.2 0-.4-.1-.4-.3 0-.2.1-.4.3-.4 1.3-.2 2.5-.2 3.8.2 1.2.4 2.4 1.1 3.6 2 .1.1.2.3 0 .5-.1.1-.3.2-.5 0-1.1-.9-2.2-1.6-3.3-1.9-1.2-.2-2.4-.3-3.5-.1zm4.6-5.5c-.1-.1-.1-.3 0-.5.1-.1.3-.1.5 0 .2.2.4.4.7.6l.8.8c1-.1 2-.1 3.1-.1h.5c.2 0 .3.1.3.3 0 .2-.1.3-.3.3h-.5c-.9 0-1.8 0-2.6.1.6.7 1.1 1.5 1.4 2.5 0 .2-.1.4-.2.4-.2 0-.4-.1-.4-.2-.3-1.1-.9-1.9-1.5-2.6-1.2.2-2.4.6-3.5 1.4-.2.1-.4.1-.5-.1-.1-.2-.1-.4.1-.5 1.1-.8 2.2-1.2 3.3-1.4l-.4-.4c-.4-.2-.6-.5-.8-.6z"/>
        <path class="st3" d="M120.2 210.5c.2 7.1.3 11.6.4 13.6v1c.7 6.8 1.9 14.6 3.7 23.3 1.8 8.7 4 18.3 6.8 28.8.6.4 1 .8 1.3 1.1.3.4.4.7.4 1 0 .4-.2.7-.5 1-.1.1-.3.2-.5.3.6.4.9.8 1 1.2.1.5-.1.9-.7 1.3 2 1.4 3.4 3.1 4.5 4.9 1.1 1.9 1.7 4 1.7 6.4l.3.3c.4.4.6.7.6 1.1.1.4 0 .7-.2 1 1.2 3.8 1.7 7.7 1.6 11.5-.1 3.9-.9 7.9-2.4 11.8-1 3.4-2 7.3-3.1 11.8-1.1 4.5-2.2 9.6-3.3 15.3l-.7-.1c1.2-5.7 2.3-10.8 3.3-15.3 1.1-4.5 2.1-8.5 3.1-11.9 1.5-3.9 2.2-7.8 2.4-11.6.1-3.8-.4-7.7-1.6-11.5l-.1-.2.2-.1.1-.1c.1-.1.1-.3.1-.4 0-.2-.2-.5-.5-.8l-.4-.4-.1-.1v-.1c-.1-2.3-.6-4.4-1.7-6.2-1.1-1.9-2.6-3.5-4.7-5l-.4-.3.4-.3c.5-.3.8-.7.8-.9-.1-.3-.4-.7-1.2-1l-.6-.3.6-.3c.4-.2.6-.3.8-.5.2-.2.2-.3.2-.5s-.1-.4-.3-.6c-.3-.3-.7-.7-1.3-1.1l-.1-.1v-.1c-2.8-10.6-5.1-20.3-6.9-29-2.5-12.4-3.5-16.5-3.7-24.4-.1-2-.2-6.5-.4-13.6l1.1.1z"/>
        <path class="st17" d="M77.9 70.8c-3.1 2.5-2.8 2.2-6.5.5-3.1-6-3-8.7.1-11.8 6.3 1.7 8 5.9 6.4 11.3z"/>
        <path class="st18" d="M71.8 40.2c3.3 1.6 5 2.4 5 2.4-2.2 2.7-4.3 8.1-6.4 16.2-1.2-10.3-.7-16.5 1.4-18.6z"/>
        <path class="st19" d="M97.9 41.8c1.3.4 2.7 1.9 2.7 1.9 1.1 1.3 6.5 5.6 6 8.5-.7 4-7.4 7-3.8 10.5-2.1 10.2-.7 15.8-2.3 19.6-4.6 4.3-9.4 7.3-14.4 9.3-6.9 1.5-12 1.4-15.1-.1-.9-1.6-.8-3.7.1-6.2 0-.2 2.4-8.4.6-12.9-3.2-8.1-1.4-7.4-.6-9.9 1.4-4.4-1-.9.3-8.5.6-3.5.1-8.5 3.1-10 1.9-1 4.4-1 4.8-.7 7.4-.8 12.6-2.1 18.6-1.5z"/>
        <path class="st18" d="M104.1 81.1c2.9-4.2 6.6-8.1 8.7-11.5 3.3-9.9 3.6-17.5 1.1-22.9-3.4-6-10.8-8.7-17.4-3.9 1.8 2.1 2.3 3.8 2.2 4.8 2.6.6 4.9 1.7 7.1 3.3-4-1.5-7.3-2.3-10.2-1.9 3.8.7 5.8 1.1 9.2 3.2-2.5-.8-4.7-1.3-6.7-1.5-.1.5-.3 1-.4 1.6.1 1.8.8 4.4 2 5.7.6 4.4-.4 7.8-.4 7.8.8-.2 3.4-.2 3.4-.2 3.7 5.9 2.4 5.3 1.4 15.5z"/>
        <path class="st20" d="M118.4 43.2c-7-1-12.9-1.8-18.7-1-7.2 1.1-14 4-19.8 4.1-13.5-3.5-11.6-14.7-2.5-15.5 4.6-.4 5.9.1 5.9.1 11-3.1 27.2 4.8 35.1 12.3z"/>
        <path class="st21" d="M121.4 53.5C114.9 43.4 101 29 86.6 24.4c6.5-2.8 9.4-6.9 15.3-6.8 8.5 1.2 14.9.8 19.9 6.5 8.1 9.2.5 5.6-1.2 12.6-1 3.7 1 9.3.8 16.8z"/>
        <path class="st22" d="M112.8 69.6c.6-.1 3-.1 3.4-3.4-.2-.2 1.5-6.3 7.6-10.7C118 33.8 113 24.9 86.4 24.3c-6.2-.1-4.8-1.1-8.4 3.3-.8 1-1.8 2.2-3 3.6 52.4-.4 37.8 38.4 37.8 38.4z"/>
        <path class="st23" d="M77.3 29.9c-2 4.1-1.5 10.5-.1 14-6.5-4.3-10.5-13.1.1-14z"/>
        <path class="st24" d="M100.1 33.2c-5.8.5-15.3 5-18.7 11.8 4.9-3.4 22.2-8.2 25.4-7.2 1.1-1.1-5.4-2-6.7-4.6z"/>
        <path class="st23" d="M83.6 87.1c-5.2-4.7-9.1-5-12.7-1.8-1.4 1.1-.8 5.6.6 7.5 5.7 3.7 9.1 3.1 16.7-.2 4.2-2 8.3-4.7 12-8.3 3.1-3.1 3-5.8 2.6-9.5-.5-4.1-.3-9.4-.2-12.1-.5 1.5-2.1-.2-3.2.6-.4.3-.5 3-.6 3.4-2.4 6.2-4.6.5-6.6 11.9 0-2.8-.1-5.1-.1-7-2.4 15.6-5.3 15.6-8.5 15.5z"/>
        <path class="st25" d="M71.6 92.8c-.3-.8-3.6-3.5-3.7-4.1-1.6-7.1 1.7-7.5 2.1-20.4.2 1.5 1.9 2 2.4 5.9.3 2.4.6 5.9-.7 10.5-.6 2.2-1.6 3.6-.1 8.1z"/>
        <path class="st26" d="M86 75.2c-4.8 1.8-9.9 2.7-11.7.6-3.4 1.8.1 3.7 2.4 3.8 3.9.1 7.1-1.7 9.3-4.4z"/>
        <path class="st27" d="M75.2 77.1c-1.6-.4-2.1-1.8-2.1-3.8 1.1 1.6 1.6 2.1 3.3 2.2 2.6.2 7.6-.8 12.3-2.3-5.5 4.4-9.7 5-13.5 3.9z"/>
        <path class="st28" d="M81.5 79.5c-3.2 3.6-5.2 3.9-7.7-.3 1.9 1.2 4.1 1.3 7.7.3z"/>
        <path class="st20" d="M98.5 57.8c-5.6-1-10.8-1.2-15.6-.7.5-1.9.9-3.5 1.3-5.1 3.8 1.1 11.5 3.3 14.3 5.8z"/>
        <path class="st23" d="M91.9 54.2c-3.9 1.2-6 2.6-9 2.8 1.9-2.8 3.4-4.4 4.3-4.8 2.1.8 3.1 1.2 4.7 2zM89 57.3s1.5-.7 5.4-2.3c0 0-2.3.4-7.1 1.8 0 .1.8.4 1.7.5z"/>
        <path class="st29" d="M74.4 70.1c-.2 1.5.9 2.2 2.9 2.9 1.6-.5 3.3-1.1 3.7-2.8-1.8-.4-3.7 1-6.6-.1z"/>
        <path class="st30" d="M71.6 62.6c1 1 3.1 1.8 4.7 1.7.4-2.8-1.2-4.2-2.1-5.1-2 .8-2.7 1.6-2.6 3.4z"/>
        <path class="st23" d="M77.3 75.6c1 .4 1.6.2 2 0 4.4.2 10.3.8 9.5-5.3-1.3 1.5-4.2 1.8-6.8 2-2.8.3-5.2.4-4.7 3.3z"/>
        <path class="st23" d="M76.7 75.6c-.4.2-1.1.2-1.5-.2-4.7-.7-6.9-.8-6-6 .3 2.1 1.4 2.7 2.7 2.9 2 .3 4.3-.2 4.8 3.3z"/>
        <path class="st31" d="M75.1 59.3c-1.2-.1-2.3.9-2.4 2.2-.1 1.4.9 2.6 2.1 2.7 1.2.1 2.3-.9 2.4-2.2s-.9-2.6-2.1-2.7z"/>
        <path class="st32" d="M79.7 46.3c-.6-5.8-.4-10.2.4-13 .5-1.6 1.2-2.7 2.2-3.4 1-.7 2.2-.9 3.6-.6 1.4.3 3.1 1 5 2.3l-.2.3c-1.8-1.2-3.5-2-4.8-2.2-1.3-.3-2.4-.1-3.3.5-.9.6-1.6 1.7-2.1 3.2-.9 2.8-1 7.1-.4 12.9h-.4z"/>
        <path class="st23" d="M93.2 31c-6.9 3.4-11.3 8.5-13.5 15.3 1.9-11.9 6.4-17 13.5-15.3z"/>
        <path class="st30" d="M94.5 62c-2.1-1-4.2-2.1-8.4-2.4-2.1.7-2.5 4.2-2.3 5 4.1.4 7.5-.5 10.7-2.6z"/>
        <ellipse transform="rotate(-82.669 88.473 62.066)" class="st31" cx="88.5" cy="62.1" rx="2.5" ry="2.7"/>
        <path class="st33" d="M96.3 61.7c-1.4-3-4.3-3.4-10-3.7 0 0-2 2.3-2.6 3.3 3.1-1.2 7.5-1.6 12.6.4z"/>
        <path class="st34" d="M94.4 62.1c-4.8-2.3-7.6-1.8-10.9-.6 3.1-2.6 8-2.6 13.7.2C94 63.9 91.3 66 83.9 65c8.6.2 10.7-2.7 10.5-2.9z"/>
        <path class="st35" d="M84.9 64.7c-.7-.4-1-1.1-1-2.3-.9 1.9-.6 2.6 1 2.3z"/>
        <path class="st36" d="M74.4 70.1c.5 1.3 1.1 2 2.9 2.9-2-.1-3.3-1.2-4-3 1.3-2.5 1.9-2.8 3.7-3.3-1.5 1.2-2 2.2-2.6 3.4z"/>
        <path class="st37" d="M77.9 68.9c-.6.6-1.3.8-2 .9 1 .2 1.9.1 2.5-.1-.4-.5-.5-.8-.5-.8z"/>
        <path class="st38" d="M116.4 56.6c2.6-2.1 3.3-3.5 5-5-3.6-11.9-7.4-18.1-12.4-21.2-.9 1.4-3 2.8-6.5 4 2.6-1.8 4.1-3.4 4.5-5-.8 1.5-2.9 2.9-6.6 4.2 2.6-1.8 4.1-3.4 4.5-5-1.4 1.9-4.5 3.4-9.4 4.6 14.3 4 20.7 13.6 19.1 28.9 3.2-3.5 6.4-6.8 7.7-7.9-3.1 1.3-5.9 2.4-5.9 2.4z"/>
        <path class="st38" d="M113.3 20.5c-2.9 1-5.1 2.8-6.6 5.6 7.2 5.6 11.9 11.9 14.2 18.9-2-7-2-12.2.1-15.4 2.6-.1 2.9-1.3 1-3.6-1.8-2.4-3.6-4-5.4-4.9-3.4 1.2-6 2.6-7.8 4.2 1.8-2.1 3.3-3.7 4.5-4.8z"/>
        <path class="st8" d="M75.2 60.8c-.6-.1-1.1.4-1.2 1 0 .6.4 1.2 1.1 1.2.6.1 1.1-.4 1.2-1 0-.6-.5-1.1-1.1-1.2z"/>
        <ellipse transform="rotate(-82.663 75.596 61.276)" class="st37" cx="75.6" cy="61.3" rx=".6" ry=".7"/>
        <path class="st33" d="M71.3 62.1c1.2-2.1 2.9-2.5 5.1-1.3 0-1.1-.1-1.1-.1-2.1-2.5-.2-4.4.5-5 3.4z"/>
        <path class="st34" d="M71.6 62.6c1-2.7 2.7-2.6 5.4-1.3-3.5-3.3-6.2-.4-6.1 1.4 1.2 1.6 2.7 2.2 5.2 2.3-2.8-.5-3.8-1.4-4.5-2.4z"/>
        <path class="st36" d="M75.4 68.1c2-3.3 3.1-9.5 1.9-15.7 0 0 .1 3.3-1.5 4.7.8 3.1.6 6.5-.6 10.2.2.5.3.8.2.8z"/>
        <path class="st20" d="M70.3 58.7c2.1-1 4.3-1.9 7.5-1 0-1.9 0-3.5-.5-5.2-3.4 0-7.7 3.7-7 6.2z"/>
        <path class="st23" d="M72 54.2c1.3 1.4 2.9 3.4 5.4 3.5-2.1-3.4-1.1-4.9-1.6-5.3-2.3.6-2 .8-3.8 1.8zm0 3.7s-.1-.1-2.4-1.6c0 0 .6 0 3.8 1.3.1.1-.4.2-1.4.3z"/>
        <path class="st23" d="M100.1 33.2c-5.8.5-15.3 5-18.7 11.8 4.9-3.4 22.2-8.2 25.4-7.2 1.1-1.1-5.4-2-6.7-4.6z"/>
        <ellipse class="st39" cx="89.2" cy="67.6" rx="3.7" ry="2"/>
        <ellipse class="st39" cx="72.6" cy="66.6" rx="2.9" ry="2"/>
        <path class="st40" d="M95.1 59.9c1.3.1 1.7.2 1.7-.9 0-.8-.4-.7-1.4-.7-2-.1-6.8-.2-14.4-.5-4.7-.2-9.4-.2-14.1-.3-.8 0-1.1-.2-1.1.7-.1 1.1.2 1 1.2 1-.1 1.2-.1 3.5.3 5.4.5 2.4 1 2.6 2.6 2.6h3.4c2.8.2 3.2-2.3 3.8-4.3 1.1-3.3 3-3 4 .1.7 2.1.8 4.6 4.6 4.6 1.3 0 2.1.1 4.5.2 2.2.1 2.9-.1 3.8-2.5.8-1.9 1.1-4.3 1.1-5.4zM76.2 59c.5 0 1.1 0 .8 1.5-1 2.4-.8 5.3-3.2 5.5-1.9.1-2.7 0-3.7 0-1.3-.1-1.4.1-1.8-1.8-.1-.5-.2-1-.2-1.2-.1-.7-.1-.9-.1-1.6 0-2.2-.2-2.3 1.4-2.3 2.2-.2 4.5-.2 6.8-.1zm6.8.1l9 .3c2.1.1 1.8.2 1.5 2.4-.1.7-.2 1-.3 1.6-.1.2-.2.7-.4 1.2-.7 1.9-.8 1.7-2.5 1.7-1.4 0-2.5 0-4.9-.2-3.1-.3-2.5-3.2-3.5-5.6-.3-1.4.5-1.4 1.1-1.4z"/>
        <path class="st41" d="M75.7 85.2c-.1 1.1.6 1.9 2.2 1.1 1-.8 1.3-2.9.9-4.8-1.2.1-2.3-.1-3.3-.4.6.8.6 2.2.2 4.1z"/>
        <path class="st25" d="M100.7 81.7c-6.1 5.5-10.9 8.4-14.4 8.6 6.2-3.5 10.7-9.6 13.5-18.2.1 1.5.2 3.4.3 5.6.4-2.2.8-5.6 1.1-10.3 1 7.6.8 12.4-.5 14.3z"/>
        <path class="st25" d="M71.8 86.9c-1.8 4.6.9 9.3 5.7 9.7 1.6.1 4.4-.8 6.8-1.6 7.3-2.5 15.9-8.2 17.5-12.4-5.4 5.6-11.5 9.2-18.2 10.8.6-2.8-1.5-3.7-4.1-3-3.2.9-7.5 2.2-7.7-3.5z"/>
        <path class="st42" d="M87.7 74.5c1.2-2.8-.1-4.3-3.4-3.9 2.5-2.3 7.8-.7 3.4 3.9z"/>
        <path class="st42" d="M70.1 74.2c-1.2-2.8 0-4.7 2.2-4.3-2.4-2.3-6.5-.3-2.2 4.3z"/>
        <path class="st20" d="M71 72c2.3-.1 3.7 1.9 4.3 3.4-2.1-.1-3.7-1.7-4.3-3.4z"/>
        <path class="st20" d="M84.2 72.2c-2.6-.7-4.9 1.5-5 3.5 2.8.2 4.4-1.7 5-3.5z"/>
        <path class="st37" d="M79.9 62.3c-.5 1.8-1 3.1-1.5 3.9.5-1.8.7-3.4.6-4.8l.9.9z"/>
        <path class="st37" d="M77 78.7c2.1-.6 3.9-1 5.2-1.1-1.3.8-3 1.1-5.2 1.1z"/>
        <path class="st43" d="M77.9 71.8c1 .1 1.7-.3 2-1-1.4-.2-2.4.2-3.1 1.2.6-.2.9-.3 1.1-.2z"/>
        <path class="st32" d="M73 38.1c-1.1-1.1-1.6-1.7-1.6-1.7 1.2-1.5 2.4-2.5 3.7-3-.1 1.6-.1 2.9.1 3.8-.5-1.6-.8-2.4-.8-2.4-1.3 1.5-1.8 2.6-1.4 3.3z"/>
        <path class="st44" d="M102.1 94.9c-3.9 4.8-7 8.7-9.3 11.7-7.6 10-16 6.7-14.3-.8l6-6c.2-1.9.3-2.8.3-2.8 0-1.8-.1-1.9-.6-2.1 10.1-3.8 16.3-8.9 18.7-15.1.2-1.4.5-1.3 0-5.2-.1-1.5-.2-2-.2-2 1.5 4.3 1.7 5.4 1.7 5.4-.7 5.7-1.2 9.2-2.3 16.9z"/>
        <path class="st45" d="M119.3 181.2c1-1 .5-2.5-1.4-4.6-18.7 8.2-26.7 10.3-26.7 10.3 19.7-5.1 28.1-5.7 28.1-5.7z"/>
        <path class="st46" d="M104.5 60.3c-.4.8-.7 1.2-.7 1.2s-2.5-.5-7.5-1.6c0 0 0-.5.1-1.6 5.4 1.4 8.1 2 8.1 2z"/>
        <path class="st47" d="M102.6 68.3c.3 1 .5 2.6 1.1 3.3 1.3 1.4 3.3 1.4 4.3-1 .1-.2 1.2-2.2 1.3-2.3 2.6-4.2 3.3-10.2-1.3-9.5-4.9.7-6.1 5.1-5.4 9.5z"/>
        <ellipse transform="rotate(-82.669 88.476 62.065)" class="st8" cx="88.5" cy="62.1" rx="1.2" ry="1.3"/>
        <ellipse transform="rotate(-82.663 90.024 61.812)" class="st37" cx="90" cy="61.8" rx=".6" ry=".7"/>
        <path class="st48" d="M109.8 59.9c-.2.2-.4.5-.6.7 1.9 8-4 10-4.2 7.9.1-.5-.1-1-.7-1.5 1 .1 1.5.5 1.5 1.2 2.6 1.2 3.3-4.9 2.5-6.9-.2.2-.5 1.2-1 1.2-.7 0-1.2.4-1.5.6.2.6.5 1.4.9 2.2-1.5 0-1.7 0-2.5-1.1 1.5-3 3.3-4.4 5.6-4.3z"/>
        <path class="st37" d="M72.5 65.7c-.1 0-.1-.1-.1-.2s.1-.1.2-.1h.1c.8.1 1.4.1 1.9-.2.4-.3.7-.7.8-1.3v-.1c0-.1.1-.1.2-.1s.1.1.1.2v.1c-.1.7-.5 1.3-1 1.6-.5.3-1.2.4-2.1.2l-.1-.1z"/>
        <path class="st37" d="M89.9 66.3c-.1 0-.2-.1-.1-.2 0-.1.1-.2.2-.1 1.4.1 2.2-.3 2.3-1.3 0-.1.1-.2.2-.1.1 0 .1.1.1.2-.2 1.2-1.1 1.7-2.7 1.5z"/>
        <path class="st37" d="M68.9 64.3c0 .1-.1.2-.1.2-.1 0-.2-.1-.2-.1l-.3-3.7c-.1-.9.1-1.3 1.1-1.4.5-.1 1.3 0 2.4 0h1.9c.1 0 .2.1.2.2s-.1.2-.2.2H69.5c-.7.1-.9.3-.8 1.1l.2 3.5z"/>
        <path class="st37" d="M83.4 64.5c0 .1 0 .2-.1.2s-.2-.1-.2-.1l-.7-3.7c-.2-.9 0-1.3.9-1.4.5-.1 1.3 0 2.4 0h1.9c.1 0 .2.1.2.2s-.1.2-.1.2H83.5c-.7.1-.8.3-.7 1.1l.6 3.5z"/>
        <path class="st49" d="M69.3 57.9c-.1 0-.2-.1-.2-.2s.1-.2.2-.2l26.5.9c.1 0 .2.1.2.2s-.1.2-.2.2l-26.5-.9z"/>
        <path class="st50" d="M98.7 28.5c-.1.5-.5 1-.9 1-.5 0-1-.5-1.1-1.2 0-.7.4-1.3.9-1.3.4 0 .7.2.9.7.2 0 .4.2.4.5.1 0 0 .2-.2.3zm-1.5 2.1c.2-.1.1-.5-.2-.8-.3-.3-.7-.5-.9-.3-.2.1-.1.5.2.8.3.3.8.4.9.3zm-3.1-2.3c0 .3.3.6.6.6s.6-.3.5-.6c0-.3-.3-.6-.6-.6s-.6.3-.5.6z"/>
        <path class="st22" d="M99.5 18.6c-.4.3-.6.7-.4 1 .2.4 1 .5 1.6.2.6-.2 1-.7.7-1.1-.2-.3-.6-.4-1-.4-.1-.2-.4-.2-.6-.1-.2.1-.3.3-.3.4zm-1.1 1.8c0-.2.4-.3.8-.2.4.1.8.3.7.5 0 .2-.4.3-.8.2-.4-.1-.7-.4-.7-.5zm3.5 1.2c-.3.1-.7 0-.8-.2-.1-.2 0-.5.3-.6.3-.1.7 0 .8.2.2.2 0 .5-.3.6z"/>
        <path class="st32" d="M86.3 39.9c2.2-1 5.4-1.7 9.5-2.1-2.2 0-2.9-.6-2.4-1.9-1.9.5-4.3 1.8-7.1 4z"/>
        <path class="st32" d="M82.7 36.8c.9-.7 1.2-.5.9.6.8-1 1.8-2 2.9-3-1.1.2-1.6-.1-1.7-.6-.7.8-1.4 1.8-2.1 3z"/>
        <path class="st51" d="M112.5 66.6c.6-8.4-2.1-11.2-8-8.4 3.4-5 4.1-10.1 2.2-15.5 1.6.4 2.7.7 3.2 1 4.5 7.5 5.4 15.1 2.6 22.9z"/>
        <path class="st52" d="M72.4 109.4c-3.2 17.3-4.8 25.9-4.8 25.9-22.1-2.1-36.9-3.6-44.5-4.3-3.4-.3-9.1 1.6-8.6-1.1-3.6.2-3.7-1.8-6.4-4.1-1.7-4.4-.9-8.4 2.6-11.9l10.7-2.2.9-4.1c1.3 0 4.3-1.5 5.6-1.4.6 0-1.2 2.1.9 2.1 29.7.3 43.6 1.1 43.6 1.1z"/>
        <path class="st53" d="M118.2 198.5c.6 2.8 1.1 5.4 2.8 8.1-4.2-.9-8.3-2.5-10.6-6.8 2-.3 3.7-.6 5-.8 1.1-.2 2.1-.4 2.8-.5z"/>
        <path class="st3" d="M92.5 188.2c1.8-.5 2.9-.8 2.9-.8s.6 3.2 1.8 8.9c-1 .3-1.3.2-2.5.6 0 0-.9-3.1-2.2-8.7z"/>
        <path class="st3" d="M104.1 184.5c1.8-.5 2.9-.8 2.9-.8s.6 3.2 1.8 8.9c-1 .3-1.3.2-2.5.6 0 .1-1-3-2.2-8.7z"/>
        <path class="st54" d="M105.8 195.3c.9 3.6 2.5 6.4 5 8.6 2.4 2.2 5.7 3.7 9.7 4.5l-.1.3c-4.1-.8-7.3-2.4-9.8-4.6-2.5-2.2-4.2-5.2-5.1-8.8h.3z"/>
        <path class="st54" d="M109.5 198c2.7-.4 5.4-1.4 8.2-1.4.1.5.3 1.1.4 1.6-.7.1-1.6.3-2.8.5-1.4.2-3.1.5-5.1.8-.3-.5-.5-1-.7-1.5z"/>
        <path class="st55" d="M113.5 157.1c13.3 29.2 25.5 85.7 22.6 84.7-11.3 7.1-31.3 10.7-49.1 5.8-.6-.2 1.3 2.6 1.3 4-11.6-2.5-18-5-20.5-5.4 1.8-32.5 1.1-87.9 1.1-87.9-11.7-29.6-15.2-50.1-15.2-50.1 17.3-3.9 26-5.9 26-5.9-.7 3.6-3.2 7.3-3.4 10.4-.7 8.9 2.6 15.5 5.7 20.3 12.6-15.1 18.8-25.6 18.7-31.5 20.1 7.5 24.2 9.2 26.1 11.5-11.1 28.7-15.1 43.5-13.3 44.1z"/>
        <path class="st56" d="M134.8 237.8c-5 3.2-6.3 4-6.3 4-12-39.9-18-54.8-18-54.8-.1-.3-2.3-2.6-2.4-2.8-4-13.5-8.6-34.8-7.1-44.9.5-3 1.7-3.7 3.6-3.7 7.5 15.8 9.6 27.4 9.8 29.5 13.5 41.7 20.2 62.6 20.2 62.6.2 6.7.2 10.1.2 10.1z"/>
        <ellipse class="st37" cx="105.5" cy="66.5" rx="1.6" ry="1.8"/>
        <path class="st57" d="M79.9 163.1c10.2-11.2 18.7-29.8 25.1-38.4-6.3-6.8-9.4-10.2-9.4-10.2 8.9 1.7 13.4 2.6 13.4 2.6 0-5.1-1.9-5.8.5-12.2-1.6-2.5-3.4-5.9-4-9.3-.8-5.3.2-7.9-2.4-8.8-5.9 33.7-30.7 39.2-23.2 76.3z"/>
        <path class="st56" d="M76.3 106.6c-.6 27.9 1.3 46 5.5 54.3-3.1 4.6-3.8 3.8-3.8 3.8 3.6 67.4 6.8 83.9 6.8 83.9-10.9-3-13.6-2.4-13.6-2.4-1.1-48.2-1.7-75.1-1.8-80.7 0-.2 1.5-1.5 1.5-1.7 0-.4-1.5.6-1.5.6-1.1-1.5-1.6-2.2-1.6-2.2 1.7-2.1 4.1-2.8 4.1-2.8-2.3.7-4.9.7-4.9.7.1-1.7.1-2.5.1-2.5 2.9-1.4 5.1 0 5.1 0-5.7-15.3-9.3-24.9-9.3-24.9-2.1-14.4-3.2-21.6-3.2-21.6 11-3.1 16.6-4.5 16.6-4.5z"/>
        <path class="st58" d="M81.8 164.6v1.8c0 .8 2.3 0 2.4 3.4.1 2.9-2.3 2.4-2.3 3.4.1 6 .2 11 .4 16.9 0 .9 3.3-.2 3.3 3 0 3.8-3.1 2.3-3 3.6.2 5 .6 9.9 1 14.7.1 1.1 2.6-1.2 3.4 3.1 1 5.1-2.7 2.9-2.6 4.3 1.3 9.8 3.2 18.7 6.3 26.2 7.4.7 15 .3 26.7-.8.3-.1-5.5-12.6-10.5-31.5-.1-.5-6.9 1.8-7 1.3-1-6 4.1-4 5-6.7 1.5-4.7-.2-10.7-1.3-15.3-.2-.7-5.9 1.5-6 .7-1-7.2 5-5.8 5.1-7.4.4-5.7-.1-10.1-1.8-16.2-.3-1.1-4 .8-4.3-.2-1.4-5.1 3-3.4 2.6-4.6-1.4-5.1-3-10.4-4.7-15.9-1.4 2.8-3.8 9.6-12.7 16.2z"/>
        <path class="st59" d="M92.3 290.8c.4 9.1-.2 30.9-1.8 34.9-.5 1.3-1.1-12.9-1.8-12.1 1.2-10.6-.3-20.2-4.7-28.8 5.2 1.3 8 3.3 8.3 6z"/>
        <path class="st60" d="M182.5 160.7c-32 13.8-53.7 17.8-63.1 20.5-3.9 1.1-5 4.3-5 4.3 13.5 32.8 19.3 49.7 18.3 50.1 2.8-1.3 7.3 1 10-.2 45.8-21.7 59.7-28.8 63.5-30.2-16.1-32.6-23.7-44.5-23.7-44.5z"/>
        <path class="st61" d="M183.2 157.7c-41.8 14.9-64.3 24.2-64.3 24.2 7.3 13.7 12 23 12 23 14.5-5.4 29.8-3.8 46-11.5 13.4-6.3 13.7-10.7 21-15.3-10.2-13.8-14.7-20.4-14.7-20.4z"/>
        <path class="st62" d="M145.1 193.5c-3.7.5-4.4 1.4-2 3 0 0-3.6-.7-10.7-2 0 0-1.9-3.6-5.8-10.9 12.6-7 30.3-13.2 53-18.7-1.3-2.1 1.7 1.6 8.9 10.9-4.7-1-5.2-.2-1.5 2.4-11.9 0-12.5.8-2 2.7-4.6 8.8-17.9 13-39.9 12.6z"/>
        <path class="st63" d="M195.9 178.1c.4-.2 0-.8-.3-.6-.4.2-.8.5-1.2.7-.4.2 0 .8.4.6.3-.3.7-.5 1.1-.7zm-1.4-1.3c.2.3.7 0 .6-.3v-.1c-.3-.4-.6-.7-.8-1.1-.2-.3-.7-.1-.6.3 0 .1 0 .1.1.1.2.3.5.7.7 1.1zm-2-2.7c.2.3.8 0 .5-.4-.3-.4-.6-.7-.8-1.1-.2-.3-.8 0-.5.4.2.4.5.7.8 1.1zm-2.1-2.7c.2.3.7 0 .6-.3v-.1l-.8-1.1c-.2-.3-.7 0-.6.3v.1l.8 1.1zm-2.1-2.7c.2.3.8 0 .6-.4-.3-.4-.6-.7-.9-1.1-.2-.3-.8 0-.6.4.3.4.6.8.9 1.1zm-2.1-2.6c.2.3.8 0 .6-.4l-.8-1.1c-.2-.3-.8 0-.6.4l.8 1.1zm-2.1-2.7c.2.3.8 0 .6-.4v-.1l-.8-1.1c-.2-.3-.8 0-.6.4l.8 1.2zm-1.8-2.3c.4 0 .5-.6 0-.7-.5 0-1 .1-1.4.1-.4.1-.3.7.1.7.4-.1.9-.2 1.3-.1zm-3.2.5c.4-.1.3-.8-.2-.7-.4.1-.9.2-1.3.3-.4.1-.3.8.2.7.4-.1.8-.2 1.3-.3zm-3.3.8c.4-.1.3-.8-.2-.7-.4.1-.9.3-1.3.4-.4.1-.2.8.2.7.4-.1.9-.2 1.3-.4zm-3.2 1c.4-.1.2-.8-.2-.6-.4.1-.9.3-1.3.4-.4.1-.3.7.1.7h.1c.4-.2.9-.3 1.3-.5zm-3.2 1.1c.4-.1.3-.7-.1-.7h-.1c-.4.1-.9.3-1.3.4-.4.1-.3.7.1.7h.1c.4-.1.8-.3 1.3-.4zm-3.2 1.1c.4-.2.2-.8-.2-.6l-1.3.5c-.4.2-.2.7.2.6.4-.2.9-.4 1.3-.5zm-3.2 1.1c.4-.2.2-.8-.2-.6-.4.2-.9.3-1.3.5s-.2.8.2.6c.4-.2.9-.3 1.3-.5zm-3.2 1.2c.4-.2.2-.8-.2-.6-.4.2-.8.3-1.3.5-.4.2-.2.8.2.6.5-.2.9-.4 1.3-.5zm-3.1 1.2c.4-.2.2-.8-.2-.6-.4.2-.8.3-1.3.5-.4.2-.2.8.2.6.4-.2.8-.4 1.3-.5zm-3.2 1.2c.4-.2.2-.8-.2-.6l-1.3.5c-.4.2-.2.8.2.6l1.3-.5zm-3.1 1.2c.4-.1.2-.7-.2-.6h-.1l-1.3.5c-.4.2-.2.8.2.6.5-.1 1-.3 1.4-.5zm-3.2 1.3c.4-.1.2-.8-.2-.6-.4.2-.8.3-1.3.5-.4.1-.2.7.2.6l1.3-.5zm-3.1 1.3c.4-.1.2-.7-.2-.6h-.1l-1.2.5c-.4.1-.2.7.2.6.4-.1.9-.3 1.3-.5zm-3.1 1.3c.3-.1.2-.7-.2-.6h-.1l-1.2.5c-.3.1-.2.7.2.6h.1l1.2-.5zm-3.1 1.3c.1 0 .2-.1.2-.2.1-.3-.2-.5-.5-.4l-1.2.5c-.3.1-.2.7.2.6h.1l1.2-.5zm-3.1 1.4c.3-.1.2-.7-.2-.6h-.1l-1.2.5c-.4.2-.2.8.3.6l1.2-.5zm-3.1 1.3c.4-.2.2-.8-.3-.6l-1.2.5c-.4.2-.2.8.3.6l1.2-.5zm-3.1 1.4c.4-.2.1-.8-.3-.6l-1.2.6c-.4.2-.1.8.3.6l1.2-.6zm-3.1 1.4c.4-.2.1-.8-.3-.6l-1.2.6c-.4.2-.2.8.2.6l1.3-.6zm-3.1 1.4c.4-.2.1-.8-.3-.6l-.8.4c-.1.1-.2.2-.2.4.1.2.2.3.2.5.1.1.2.2.3.2.3 0 .4-.3.3-.5l-.1-.1.6-.3zm.6 2.1c-.1-.1-.2-.2-.3-.2-.3 0-.5.3-.3.5l.6 1.2c.2.4.8.1.6-.3l-.6-1.2zm1.5 3c-.2-.3-.8-.2-.6.3l.6 1.2c0 .1.1.1.2.2.3.1.6-.2.4-.5l-.6-1.2zm1.6 3.1c-.1-.1-.2-.2-.3-.2-.2 0-.4.3-.3.5l.6 1.2c.2.4.7.2.6-.3l-.6-1.2zm1.6 3c-.2-.4-.7-.1-.6.3l.6 1.2c.2.4.8.1.6-.3l-.6-1.2zm1.5 3c-.2-.4-.8-.1-.6.3l.6 1.2c.2.3.7.2.6-.2v-.1l-.6-1.2zm1.6 3c0-.1 0-.1 0 0-.4-.3-.8 0-.6.3l.6 1.2c.2.4.8.1.6-.3l-.6-1.2zm1.9 1s-.1 0-.1.1c-.3.3 0 .7.3.6.4-.1.8-.3 1.3-.4.4-.1.2-.8-.2-.7-.5.2-.9.3-1.3.4zm3.3-.9c-.4.1-.3.7.1.7h.1c.4-.1.9-.2 1.3-.3.4-.1.3-.8-.1-.7-.6.1-1 .2-1.4.3zm3.3-.8c-.4.1-.3.7.1.7.4-.1.9-.2 1.3-.3.4-.1.4-.6 0-.7h-.1c-.4.2-.9.3-1.3.3zm3.3-.6c-.4.1-.3.7.1.7.4-.1.9-.1 1.3-.2s.4-.7-.1-.7c-.4.1-.8.2-1.3.2zm3.3-.5c-.4.1-.3.7.1.7l1.3-.2c.4-.1.3-.7-.1-.7l-1.3.2zm3.4-.5c-.4.1-.3.7.1.7s.9-.1 1.3-.2.3-.7-.1-.7c-.4.1-.9.2-1.3.2zm3.3-.5c-.4.1-.3.7.1.7.4-.1.9-.1 1.3-.2s.4-.7-.1-.7l-1.3.2zm3.4-.5c-.4.1-.4.7.1.7.4-.1.9-.2 1.4-.2.4-.1.4-.6 0-.7h-.1c-.5 0-1 .1-1.4.2zm3.3-.6c-.4.1-.3.7.1.7.4-.1.9-.2 1.4-.3.4-.1.3-.7-.1-.7-.5.1-1 .2-1.4.3zm3.3-.7c-.4.1-.3.8.2.7.4-.1.9-.2 1.3-.3.4-.1.3-.7-.1-.7h-.1c-.4.1-.9.2-1.3.3zm3.2-.8c-.4.1-.3.6 0 .7h.1c.4-.1.9-.2 1.3-.4.1 0 .2-.1.2-.2.1-.3-.1-.6-.4-.5-.3.1-.7.3-1.2.4zm3.3-1c-.4.1-.3.7.2.7.4-.1.9-.3 1.3-.4.4-.2.2-.8-.2-.6-.5 0-.9.2-1.3.3zm3.1-1.1c-.4.2-.2.8.2.6.4-.2.8-.3 1.3-.5.4-.1.2-.7-.2-.6h-.1c-.3.2-.7.3-1.2.5zm3.1-1.3c-.4.2-.1.8.3.6l1.2-.6c.4-.2.2-.8-.3-.6-.3.2-.8.4-1.2.6zm3.1-1.5c-.4.2-.1.8.3.6.4-.2.8-.4 1.2-.7.4-.2.1-.8-.3-.6-.4.3-.8.5-1.2.7zm2.9-1.7c-.3.2-.1.8.3.6.4-.2.8-.5 1.2-.8.4-.3 0-.8-.4-.6-.4.3-.8.6-1.1.8zm2.7-1.9c-.3.2 0 .8.4.6.4-.3.7-.6 1.1-.9.3-.3-.1-.8-.4-.5-.4.3-.7.6-1.1.8zm2.6-2.1c-.3.3.1.8.4.5.3-.3.7-.6 1-.9.3-.3-.1-.8-.4-.5-.3.3-.6.6-1 .9zm2.5-2.3c-.3.3.1.8.5.5.3-.3.7-.6 1-.9.3-.3-.1-.8-.5-.5-.3.3-.7.6-1 .9zm2.5-2.3c-.3.3.1.8.4.5.3-.3.7-.6 1-.8.3-.2.1-.7-.3-.6-.1 0-.1 0-.1.1-.3.3-.6.5-1 .8z"/>
        <path class="st61" d="M141.3 204.9c15.8 3.5 16 3.6-8.9 2l7.4 18.2c1.7-8.2 2.2-7 1.8 3.8 12.8-11 13.1-10.1.8 2.7 11.7-7.3 21.5-12.4 30.3-16.8.5-.3-.7-1.6.9-.9 0 0-.1-.1-.2-.4-.5-1.3-2.2-5.5-5-12.7-.2-.4-1.3.4-1.4 0l.9-1.3c-.6.2-1.1.4-1.7.5-7.8 2.4-16.4 4.1-24.9 4.9zm36.4 7l-.4-2.8c-3.4-6.7-4.8-7.3-5.5-9.3-.1-.2 1.2-1 1.2-1.2.3-.1-.9-.6-.6-.7 7.8-3 14.6-6.7 19.6-11.1-.7 7.1-.3 7.1 1.2 0 1.8 2.4 5.1 9.1 9 16.8-10.7-3.8-13.1.4-1.7.9-5.6.5-13.3 2.9-22.8 7.4z"/>
        <path class="st64" d="M114.4 185.6l4.8-2.3c.3-.2.7-.2 1-.1.3.1.6.3.7.7l.9 1.9c.2.3.2.7.1 1-.1.3-.3.6-.7.7l-4.9 2.3c-.3.1-.6.1-.9 0-.3-.1-.6-.3-.7-.7l-.9-1.9c-.2-.3-.2-.7-.1-1 .2-.2.4-.5.7-.6zm5.3-1.3l-4.8 2.3c-.1 0-.1.1-.1.1v.2l.9 2 .1.1h.2l4.8-2.3c.1 0 .1-.1.1-.1v-.2l-.9-1.9c0-.1-.1-.1-.1-.1-.1-.1-.2-.1-.2-.1z"/>
        <path class="st65" d="M119.7 184.3c-.3-.5.1-.9.2-1.3 2.7-26-26.7-74.7-8.7-77.4 20-3.1 64.7 53 65.6 55.1 3.6-.6 6.4-2.9 6.4-2.9-1.3-.5-53.4-58.3-75.5-54.9-18.8 2.9 7.5 53.2 6.9 82.6 0 .4-.1.8.3 1.2 1.3-.1 3.9-1.4 4.8-2.4z"/>
        <path class="st65" d="M116.8 190c3.1-1.5 4.6-2.2 4.6-2.2-.5-.2-.8-.9-.8-1.4 0 0-1.6.5-4.5 1.9-.1.5.2 1.4.7 1.7z"/>
        <path class="st56" d="M134.2 144.9c-7.7-3.3-12.3-7.7-20.4-11.9-2.1 1.7-3.5 1.3-3.5 1.3 1.8 1.6 2.5 3 2.3 4.2 3.6 1.5 5.3 2.3 5.3 2.3 1.3-2.1 6.5-.7 16.3 4.1z"/>
        <path class="st19" d="M124.7 143.2c-4.7-4.6-14.1-9.9-21.5-6.3-.8 1.3.3 2 .1 3.1-.1 1.1-1 2.1-.9 3.1.1.7.9 1.1.9 1.7.1 1-.8 1.8-.7 2.7.2 1 1 .9 1 1.8 0 .7-.8 1.5-.9 2.1-.4 2 4.9 3.2 6.5 3.1-.1-.2-.2-.9-.4-1.7-.3-.3-1-.3-.9-.3 7.2-2.6 9.3 7 16.7 2-1.7-8.4-1.5-12 .1-11.3z"/>
        <path class="st19" d="M123.4 143c3.1 1 5.9 1.9 8.3 2.7 0 4.8-.3 8.9-1.1 12-2.1-1.3-4.3-2.6-6.4-3.6-4.5-7.3-.8-11.1-.8-11.1z"/>
        <path class="st66" d="M124.4 151.5c.8.1 1 .4.9 1.1-1.7 3.4-7.2 3.5-12.7-1.3-2.3.4-4 .5-5.3.6 0 .3.1.6.4.9.7.1 1 .6 1 1.3-1.6-.1-3-.9-3.9-2.2 5.4-2.2 8.1-2 8.1-2 5.7 2.3 8.1.7 11.5 1.6z"/>
        <path class="st67" d="M124.1 142.8c2.7 1.3 3.1.2 3 1.1.7 3.6.5 7.5-.6 11.8 0 0-.7-.4-2.1-1.1.9-4.8.8-8.7-.3-11.8z"/>
        <path class="st66" d="M110.5 145.7c.4.7.8 1.1 1.2 1.3 0 0-2.8.4-7.3 1.8-3.5-1.8 6.1-3.1 6.1-3.1zm-.3-4.5c.1 1.2.5 1.9.9 2.2 0 0-4.4-.3-7 1.2-2.4-2.1 6.1-3.4 6.1-3.4zm.4-3c.2.8.4 1.3.8 1.6 0 0-2.8-.1-7.5-.2 1.1-1.4 6.7-1.4 6.7-1.4z"/>
        <path class="st68" d="M129.8 144.4c-.1-.2-.3-.3-.5-.2h-.1c-.1.1-.2.2-.1.4.1.4.2.9.2 1.3 0 .2.3.4.5.3.1-.1.2-.2.2-.4 0-.5-.1-1-.2-1.4zm-2.2 11.2c-.2-.4-.8-.1-.6.3.1.2.1.3.2.5.2.4.8 0 .6-.3-.1-.2-.2-.4-.2-.5zm.5.9c.1.1.2.2.3.2.1 0 .2-.2.2-.3.2-.4.8 0 .6.3-.4.7-1.1.8-1.6.2-.3-.3.2-.7.5-.4zm.8-.7c0 .1 0 .3.1.3.2.2.5.1.6-.1.1-.4.2-.9.3-1.4.1-.5-.6-.5-.7-.1-.1.5-.2.9-.3 1.3zm.4-1.9c.1-.4.1-.9.1-1.3s.7-.4.7 0-.1 1-.1 1.4c-.2.5-.8.3-.7-.1zm.2-2c0 .4.6.5.7.1v-.1-1.4c0-.2-.1-.3-.3-.3-.2 0-.4.1-.4.3v1.4zm0-2v-1.4-.1c.1-.4.7-.3.7.1v1.4c0 .4-.7.4-.7 0zm0-2c0 .2.2.3.3.3.2 0 .3-.1.3-.3v-.7c0-.4 0-.9-.4-.9-.3 0-.2.5-.3.9.1.2.1.4.1.7z"/>
        <path class="st69" d="M127.2 142.4c1.8.8 3.3 2.8 2.4 4.7-.8 2-3.3 2.4-5.1 1.6-1.8-.8-3.3-2.8-2.4-4.7.9-2 3.3-2.4 5.1-1.6z"/>
        <path class="st70" d="M127 142.4c1.8.7 2.7 2.5 2.2 4-.6 1.4-2.5 2-4.3 1.3-1.8-.7-2.7-2.5-2.2-4 .6-1.5 2.6-2.1 4.3-1.3z"/>
        <path class="st71" d="M127.2 142.4c1.7.7 2.6 2.4 2.1 3.8-.6 1.4-2.4 1.9-4.1 1.2-1.7-.7-2.6-2.4-2.1-3.8s2.3-2 4.1-1.2z"/>
        <path class="st72" d="M126.9 142.6c1.6.7 2.5 2.3 2 3.6-.5 1.3-2.3 1.8-3.9 1.1s-2.5-2.3-2-3.6c.6-1.2 2.3-1.8 3.9-1.1z"/>
        <path class="st5" d="M123.8 144c-.1 0-.1-.1-.1-.2s.1-.1.2-.1l2.3 1 .7 1.7c0 .1 0 .2-.1.2s-.2 0-.2-.1l-.6-1.5-2.2-1z"/>
        <path class="st73" d="M122.1 145.3c0-.1.1-.2.2-.2s.2.1.2.2c0 .2 0 .5.1.7.1.2.2.4.3.5.1.1.1.2 0 .2-.1.1-.2.1-.2 0-.2-.2-.3-.4-.4-.6-.1-.3-.2-.6-.2-.8zm.9 1.9c-.1-.1-.1-.2 0-.2.1-.1.2-.1.2 0 .8.8 1.8 1.3 2.8 1.4 1 .1 2-.2 2.8-.9.1-.1.2 0 .2 0 .1.1 0 .2 0 .2-.9.8-2 1.1-3 1-1.1-.1-2.2-.6-3-1.5z"/>
        <ellipse class="st74" cx="123.1" cy="146.5" rx=".8" ry=".8"/>
        <path class="st37" d="M123.1 144.5c0 .3-.1 1.5-.3 1.7-.2.2-1.4.3-1.7.3.3 0 1.5.1 1.7.3.2.2.3 1.5.3 1.8 0-.3.1-1.6.3-1.8.2-.2 1.3-.3 1.5-.3-.3 0-1.4-.1-1.5-.3-.2-.2-.3-1.4-.3-1.7z"/>
        <path class="st37" d="M122.2 145.5c.1.1.6.7.6.9 0 .2-.5.8-.6 1 .1-.1.7-.7.9-.7.2 0 .8.5.9.7-.1-.1-.6-.8-.6-1 0-.2.4-.8.5-.9-.1.1-.7.6-.8.6-.2 0-.8-.4-.9-.6z"/>
        <path class="st75" d="M84.3 95c1.7.2.5 5 .5 5-9.4 7.9-11.2 18.4-3.3 36.5-.8 14-.2 22-.2 22-9-12.9-17.6-25.1-19.4-40.1 7-5.7 13.1-7.5 13.1-7.5-6.5.3-9.8 0-9.8 0-2.6-1.8 8.6-6.4 12-10.2 3.4-3.7 5.2-5.4 7.1-5.7z"/>
        <path class="st57" d="M103.1 86.7c-5.9 33.8-30.7 39.2-23.2 76.4 10.2-11.2 18.7-29.8 25.1-38.4-6.3-6.8-9.4-10.2-9.4-10.2 8.9 1.7 15.9 3.8 15.9 3.8 0-2.4-.2-4-.4-5.7-.7-6.5 1.5-5-2.5-10.8-1.4-2-2.8-4.3-3.1-6.3-.8-5.3.2-7.9-2.4-8.8z"/>
        <ellipse class="st76" cx="81.9" cy="169.6" rx="1.5" ry="2"/>
        <ellipse class="st76" cx="98.2" cy="168.9" rx="1.5" ry="2"/>
        <ellipse class="st76" cx="83.2" cy="193.3" rx="1.5" ry="2"/>
        <ellipse class="st76" cx="99.9" cy="191.8" rx="1.5" ry="2"/>
        <ellipse class="st76" cx="84.4" cy="215.2" rx="1.5" ry="2"/>
        <ellipse class="st76" cx="102.6" cy="213.7" rx="1.5" ry="2"/>
        <path class="st77" d="M33.3 44.3c-2.5-.9-4.2-1.3-5-2.6-1.4-2.3-5.2-3.8-7.5-3.6-1.3.1-2.1 0-3-.5-1.6-.8-2.6.9-4.4-.2-1.4-.9-3.8 1-5 .1-1.4-1-3.7-.1-4.1 2.2-1.4 8 1 17.1 6.6 19.3l.2 5.1s3.7.9 11.2 2.8c.3.2.2-2.5-.2-8.1 5.2-.6 8.5-8.2 9.7-9.2 2-1.8 2-5.2 1.5-5.3z"/>
        <path class="st78" d="M13.4 24.1h3.8c.3 0 .6-.3.6-.6V10.1c0-.3-.3-.6-.6-.6h-3.8c-.3 0-.6.3-.6.6v13.4c-.1.3.2.6.6.6z"/>
        <path class="st78" d="M15.2 23.1c2.1 0 4.1.3 5.9.8 1.8.5 3.4 1.3 4.8 2.2 1.4.9 2.4 6.6 3.2 7.8.8 1.2 1.2 2.6 1.2 4v5.2c0 4.5-7.6 5.1-15.2 5.1C7.6 48.1 0 47.5 0 43v-5.1c0-1.4.4-2.8 1.2-4 .8-1.2 2-6.9 3.3-7.8 1.4-.9 3-1.7 4.8-2.2 1.9-.5 3.9-.8 5.9-.8zm0 2.1c-1.6 0-3.2.2-4.6.6-1.4.4-2.7 1-3.8 1.7-1.1.7-2 1.6-2.6 2.6-.3.5-.6 2.1-.7 3.8-.2 1.7-.3 3.4-.3 3.9v1c0 3.5 6 3.6 11.9 3.6 6 0 11.9-.1 11.9-3.6v-.5-.5c0-1.1-.3-6.7-.9-7.7-.6-1-1.5-1.8-2.6-2.6-1.1-.7-2.4-1.3-3.8-1.7-1.3-.3-2.8-.6-4.5-.6z"/>
        <path class="st79" d="M10.6 27.5h9.3c.4 0 .7-.3.7-.7v-4.1c0-.4-.3-.7-.7-.7h-9.3c-.4 0-.7.3-.7.7v4.1c0 .4.3.7.7.7z"/>
        <path class="st80" d="M168 161l-30-9.9c-2.6-3.9-10.5-10-24.2-18.1 0-7.2 1.5-16 6.6-21.4 2.5-3.6 5.5-2.9 6.5 2.4 10.3 13.2 22 22.8 34.6 32.1 6 3.7 8.2 8.7 6.5 14.9z"/>
        <path class="st81" d="M27.9 105.1c1.1.5.5 1.2.1 1.6-5 3.6-10.1 8.8-12.8 10.4-9.6 6-3.6-2.2 12.7-12z"/>
        <path class="st82" d="M89.2 96.4c-12.3 7.9-17.4 20.5-8.2 38.8 11.1-19.1 20-33.6 20.8-42.2-9.3 3.4-12 3.3-12.6 3.4z"/>
        <path class="st83" d="M103.7 84.1c2-.7-.9 3.2-.9 6.5 0 2 .9 1.2-1.1 2.7-4.1 3.3-9.6 7.2-16.6 7.7-1.5.1-1.9.1-2.1-.1-.2-.2.4-1.4.3-2.7-.1-1.2-1.1-2.8-.6-2.8 2.5-.9 10-4.3 13.1-6.4 4-2.2 6.6-3.4 7.9-4.9z"/>
        <path class="st5" d="M101.7 92.9c-.7 2.3-.5 2.7-1 4.7-11 5.5-16.8 6.6-17.3 3.4 4.2.8 10.3-1.9 18.3-8.1z"/>
        <path class="st5" d="M103.7 84.1c.5-.2.7 0 .7.5-2 3.3-9.3 7-21.8 11 10-4.7 17-8.5 21.1-11.5z"/>
        <path class="st5" d="M103.4 85.3c-1.3 1.4-1.8 3.5-1.3 6.4-1.2 1-4.1 3-8.8 6 1.2-2 1.2-3.8.2-5.2 4.6-2.5 7.9-5 9.9-7.2z"/>
        <path class="st5" d="M83.4 101.2c-8.6 8.7-9.4 20-2.5 33.9-4.7-13-3.9-24.3 2.5-33.9z"/>
        <path class="st84" d="M105.4 71.1c1.2-3.3 1-4.6-.7-3.8-.2 2.5-.3 3.7-.3 3.7.5-.1.8 0 1 .1z"/>
        <path class="st85" d="M9.2 126.6c12.8-13.5 20.3-18.8 20.3-18.8 2 .3 1.8-.2 1.6 1.2-16.3 11.9-15.6 22.3-15.6 22.3-4.6 1.5-7-2.9-6.3-4.7z"/>
        <path class="st56" d="M60.2 133.5c-16.1-2.7-29.7-4.1-40.8-4.2.7-9.6 8-8.1 11-9.4 10.4 1.1 25.1 3.1 25.1 3.1 3.1 7 4.7 10.5 4.7 10.5z"/>
        <path class="st86" d="M4.4 47.6c8.9-1.2 15.1-1.4 18.4-.8-.6 3.8-1.8 6.2-5.2 6.6-2.2.3-5.9-1.1-9.3-2.1-1.2-.4-2.5-1.1-3.9-3.7z"/>
        <path class="st19" d="M14.2 40.1c1.3-1.4 3.3-2.1 4.5.3 1.9 4.2 0 7.7-1.2 8.4-1.2.7-3.9 1.1-4.4-.5.8-5.5 1.1-8.2 1.1-8.2z"/>
        <path class="st19" d="M33.3 44.3c-.2 3.5-1.7 4.3-4.6 2.6-3.2-.8-4.1-3.2-1.5-6 1.6 1.3 4 2.7 6.1 3.4z"/>
        <path class="st19" d="M9.4 40.1c.9-2.6 3.5-2 5-.1-.7 4.8-.7 8.2-1.9 8.9-1.2.7-3.1.2-3.7-1 .9-5.6.6-7.8.6-7.8z"/>
        <path class="st19" d="M5.5 39.6c.9-1.6 2.7-1.4 3.7.1 1.7 4.2.1 8.3-1 9-1.1.7-3.4-.4-3.8-1 .8-5.6 1.1-8.1 1.1-8.1z"/>
        <path class="st19" d="M18.4 40.6c2.3-2 3.9-2.3 5.4.2-.4 2.9-.5 4.2-.9 5.7-1 3.5-5.2 3.5-5.3 1.6.8-5.6.8-7.5.8-7.5z"/>
        <path class="st87" d="M27.2 97.7c.5 6.1.4 8.9.4 8.9-7.8 7.4-13.8 11.8-17.1 14-1.2 2.9-.6 4.5 2 4.7-1.7 2-2.6 3.1-2.6 3.1-9.3-7.2-2.3-54.5-2.1-67C21.3 62.9 28 63.7 28 63.7c-.6 22.6-.8 34-.8 34z"/>
        <path class="st55" d="M27.2 97.7c.5 6.1.4 8.9.4 8.9-7.8 7.4-13.8 11.8-17.1 14-1.2 2.9-.6 4.5 2 4.7-1.7 2-2.6 3.1-2.6 3.1-9.3-7.2-2.3-54.5-2.1-67C21.3 62.9 28 63.7 28 63.7c-.6 22.6-.8 34-.8 34z"/>
        <path class="st88" d="M6.8 53.5c3 .2 6.2.1 9 1.1 3.4-1.1 6.7-1.9 9.2-1.8-4.8 6-11.9 7.4-18.2.7z"/>
        <path class="st89" d="M14.4 65.9l-2.3 45.3c-.8 2.2 14.3-5.7 13.9-5-9.6 7.8-17.2 12.6-17.2 12.6-1.5-18.8-1.6-38.6.1-55.4 10.9 1.6 16.3 2.4 16.3 2.4l-10.8.1z"/>
        <path class="st89" d="M17.1 110.9c4.2-10.8 7.6-28.8 8.8-42-.3 21.9-.5 37.1.5 35.2-2.7 2.9-5.8 5.6-9.3 6.8z"/>
        <path class="st90" d="M64 119.6c3.5-2.8 6.8-4.9 10-6.3-.1 5.9 1.9 14.1 6 24.7-1.6 2.1-2.3 6.2-2.2 12.4-7.6-9.8-12.2-20-13.8-30.8zm15.6-17.3c-1.8 2.5-3.2 4.9-4.3 7.1-1.3-.2-3.7-.2-7.1-.2 5.9-4.3 9.7-6.6 11.4-6.9z"/>
        <path class="st37" d="M104.5 70.2c0-.3.3-.5.5-.4.3 0 .5.3.4.5-1.2 12.1-7.5 24.2-13.5 35.4-5.8 11-11.1 21.1-10.6 29.4l.1 1.5-1-1.2c-4.2-5.2-7-11.7-8.8-18.9-2.1-8.2-2.7-17-2.5-25.7 0-.3.1-.4.1-.5.2.3.8.6.8.8-.3 8.6.4 17 2.4 25.1 1.6 6.5 4.1 12.4 7.7 17.3.1-8.2 5.2-17.9 10.7-28.4 6.2-11 12.6-23 13.7-34.9z"/>
        <path class="st91" d="M81.2 151.6c6.6-7.3 13.5-16.5 20.9-27.4 0 0-2.4-2.4-7.2-7.3-8.9 11.8-13.5 23.4-13.7 34.7z"/>
        <path class="st91" d="M103.7 97.9c-1.9 8.3-3.8 12.9-5.8 13.8 6.1 1 9.1 1.5 9.1 1.5-2.4-5-3.5-10.1-3.3-15.3z"/>
        <path class="st79" d="M9.2 0h11.7c.7 0 1.3.6 1.3 1.3v8.1c0 .7-.6 1.3-1.3 1.3H9.2c-.7 0-1.3-.6-1.3-1.3V1.3C7.8.6 8.4 0 9.2 0z"/>
        <path class="st92" d="M8.7 5h12.6v2.9H8.7z"/>
        <path class="st92" d="M10.7 25.3h8.8v1.5h-8.8z"/>
        <path class="st92" d="M10.7 22.4h8.8v.6h-8.8z"/>
        <path class="st92" d="M8.5 1.4h12.6V2H8.5z"/>
        <path class="st55" d="M163.7 148.7c-16.4-.8-27-2.4-31.9-5-4.7 11.3-6.7 16.7-6 16.2 6.7.9 11.6 2 14.7 3.2 10.3 5.6 20.4 7 30.1 4.1 2.3-.6 3.4-.9 3.4-.9.2-10.4-3.2-16.3-10.3-17.6z"/>
        <path class="st93" d="M130.1 152c-1.5 4.2-2.3 6.3-2.3 6.3-.5 0 2.3.4 8.6 1.2 14.4 7.7 25.4 9.3 33.1 4.7 2.7-.3 3-2.1.8-5.2-3.8 2.4-17.2.1-40.2-7z"/>
        <path class="st94" d="M161.4 145.4c-5.9 2-11.2 2.7-15.8 2.1 9.7-2.8 14.6-4.2 14.6-4.2 1 1.1 1.4 1.8 1.2 2.1z"/>
        <path class="st95" d="M136.7 143.9c4.8 1.6 10.1 1.4 12.2-.1-6-2.8-12.9-4.6-18.6-11-3.1-3.5-5.3-10-8-15.1-3.4 4.3-4.6 9.2-5.6 14.3 4.4 4.2 10.6 3.4 20 11.9z"/>
        <path class="st56" d="M157.7 146.5c-4 1.5-12.5.6-25.7-2.7 10.2 3 19.6 4.6 28.1 4.6-.3-1-1.1-1.7-2.4-1.9z"/>
        <path class="st52" d="M119.9 109.1c-6.8 17.1-8.5 25.6-5.1 25.5-.6-7.5 1.7-15.7 7.2-24.6l-2.1-.9z"/>
        <path class="st96" d="M126.9 114c7.4 8.8 13 14.7 16.8 17.9 0 0 4.3 3.5 12.9 10.6l-3.9-.6c-3.7 1-12.3-8.3-25.8-27.9z"/>
        <path class="st96" d="M168 153.3c-.7-3.7-6.3-4.5-16.8-2.3 11.9 4.4 17.5 5.2 16.8 2.3z"/>
        <ellipse transform="rotate(-68.623 132.46 159.008)" class="st76" cx="132.5" cy="159" rx="1" ry="1.3"/>
        <ellipse transform="rotate(-68.623 139.824 161.261)" class="st76" cx="139.8" cy="161.3" rx="1" ry="1.3"/>
        <ellipse class="st76" cx="7.5" cy="69.9" rx="1.2" ry="2"/>
        <ellipse class="st76" cx="6.3" cy="79.6" rx="1.2" ry="2"/>
        <path class="st36" d="M79.7 68.4c2.7-.3 2.9.7.5 3.2 1.4-1.6 1.2-2.7-.5-3.2z"/>
    </g>
</svg>
