<svg xmlns="http://www.w3.org/2000/svg" viewBox="0 0 145.7 361.4">
    <style>
        .st0{display:none}.st1{display:inline}.st1,.st2{fill-rule:evenodd;clip-rule:evenodd;fill:#ada0b0}.st3{display:none}.st3,.st4{fill-rule:evenodd;clip-rule:evenodd;fill:#826a82}.st5{display:none}.st5,.st6{fill-rule:evenodd;clip-rule:evenodd;fill:#6e5375}
    </style>
    <g id="Слой_2">
        <g class="st0">
            <path class="st1" d="M247.2 21.9h3.4c.3 0 .6-.3.6-.6v-12c0-.3-.3-.6-.6-.6h-3.4c-.3 0-.6.3-.6.6v12c0 .3.3.6.6.6z"/>
            <path class="st1" d="M243.4.3h10.5c.7 0 1.2.5 1.2 1.2v7.3c0 .7-.5 1.2-1.2 1.2h-10.5c-.7 0-1.2-.5-1.2-1.2V1.5c0-.7.6-1.2 1.2-1.2z"/>
            <path class="st1" d="M248.9 21c1.9 0 3.7.3 5.3.7 1.6.5 3.1 1.1 4.3 2 1.2.8 2.2 5.9 2.8 7 .7 1.1 1.1 2.3 1.1 3.6v4.6c0 4-6.8 4.5-13.6 4.5s-13.6-.5-13.6-4.5v-4.6c0-1.3.4-2.5 1.1-3.6.7-1.1 1.8-6.2 3-7 1.2-.8 2.7-1.5 4.3-2 1.6-.5 3.4-.7 5.3-.7zm0 1.9c-1.5 0-2.9.2-4.2.6-1.3.4-2.4.9-3.4 1.6-1 .7-1.8 1.4-2.3 2.3-.3.4-.5 1.9-.7 3.4-.2 1.5-.3 3-.3 3.5v.8c0 3.2 5.4 3.3 10.7 3.3 5.4 0 10.7-.1 10.7-3.3v-.4-.4c0-1-.2-6-.8-6.9-.5-.9-1.3-1.6-2.3-2.3-1-.7-2.1-1.2-3.4-1.6-1.2-.4-2.6-.6-4-.6z"/>
            <path class="st1" d="M244.7 24.9h8.3c.3 0 .6-.3.6-.6v-3.7c0-.3-.3-.6-.6-.6h-8.3c-.3 0-.6.3-.6.6v3.7c0 .3.3.6.6.6z"/>
        </g>
        <path class="st2" d="M130.5 21.6h3.4c.3 0 .6-.3.6-.6V9c0-.3-.3-.6-.6-.6h-3.4c-.3 0-.6.3-.6.6v12c0 .4.2.6.6.6z"/>
        <path class="st2" d="M126.7 0h10.5c.7 0 1.2.5 1.2 1.2v7.3c0 .7-.5 1.2-1.2 1.2h-10.5c-.7 0-1.2-.5-1.2-1.2V1.2c0-.7.6-1.2 1.2-1.2z"/>
        <path class="st2" d="M132.1 20.7c1.9 0 3.7.3 5.3.7 1.6.5 3.1 1.1 4.3 2 1.2.8 2.2 5.9 2.8 7 .7 1.1 1.1 2.3 1.1 3.6v4.6c0 4-6.8 4.5-13.6 4.5s-13.6-.5-13.6-4.5V34c0-1.3.4-2.5 1.1-3.6.7-1.1 1.8-6.2 3-7 1.2-.8 2.7-1.5 4.3-2 1.7-.4 3.5-.7 5.3-.7zm0 1.9c-1.5 0-2.9.2-4.2.6-1.3.4-2.4.9-3.4 1.6-1 .7-1.8 1.4-2.3 2.3-.3.4-.5 1.9-.7 3.4-.2 1.5-.3 3-.3 3.5v.8c0 3.2 5.4 3.3 10.7 3.3 5.4 0 10.7-.1 10.7-3.3v-.4-.4c0-1-.2-6-.8-6.9-.5-.9-1.3-1.6-2.3-2.3-1-.7-2.1-1.2-3.4-1.6-1.1-.4-2.5-.6-4-.6z"/>
        <path class="st2" d="M128 24.6h8.3c.3 0 .6-.3.6-.6v-3.7c0-.3-.3-.6-.6-.6H128c-.3 0-.6.3-.6.6V24c0 .3.2.6.6.6z"/>
    </g>
    <g id="Hipster">
        <path class="st3" d="M293.6 356.5c3.8-.3 7.4-.5 10.8-.8 94.2-7.6 73.5-30 .3-23.4-31 2.8-65.1 7.4-72 17-3.5 4.8 12.1 10.4 60.9 7.2z"/>
        <path class="st4" d="M58.8 360.8c32.8-2.3 73.5-12.7 72.8-21.3-.4-5.5-18.6-12.8-61.8-8.7-29.9 2.8-62.7 7.4-69.4 17-3.3 4.8 11.5 16.3 58.4 13z"/>
        <g id="Silhouettes">
            <path class="st5" d="M347 136.4c-2.2-3.6-6.4-8.1-11.9-12.6-1.2-3.1-3.2-6.2-6-9.2-.9.2-2.3.2-4.3.1-.4 0-.8-.1-1.3-.1.1-2 .7-4.7 1.8-8 .7-2.1 1.1-4.2 1.1-6.2 0-2.2-.4-4.3-1.1-6.5-1.6-4.9-4.1-6.9-6.5-9-1.5-1.3-3-2.5-4.2-4.4-.8-3.9-1.4-7.5-2.8-11 0-.8-.4-1.7-1.2-2.7-.2-.4-.4-.7-.6-1.1-2.8-5-6.5-8.3-11.1-9.8l-.9-.3c-5.6-1.6-12.6-.8-20.7 2.6-4.9-1.1-6.9 1.3-4.7 5.9v.1c-6.7 6.4-3.4 14-2.6 25.1 0 .6-.1 1.4-.3 2.3-1.1-1.7-2.2-3.3-3.2-4.4.5-1.3.2-1.7-.9-1-8.2-22.2-11.5-30.2-11-31.9-.6-.2-1.2-.3-1.8-.4.8-1.3 1.5-3 2.2-5.2 4.1-6.8 3.3-10.8-2.4-11.9-.4-1.6-1.6-1.7-3.7-.3-.8-.9-2.1-.8-3.8.3-.3-1.1-1-1-2.1.3l1.2 13.1c1 2.3 2 4 3 5-.3.3-.4.5-.4.5s3.1 9 11.7 38.8c.4 0 .7-.1 1-.1-1.1 2-.8 2.5.8 1.6 2.6 6.3 7.6 18.2 12.8 26.6-.3 4.4-.8 9.7.3 13.8 2 7.5 7.2-1.9 12.6 14.7.8 5.8 1.9 13.4 8.8 15.2-4.1-2.8-5.6-5-6.6-9.9 2.2 3.7 5.7 6.5 9.1 7-1.7 4.4-6.1 10.9-9.5 15.5 0 .8.4 1.5 1 2.3-10.6 17.1-9.5 51.7-8.6 75.6-2.7 3.9-5.9 27.8-6.1 38.3 0 2.5-2.1 14.8-3.3 24.4-1.2.3-1.7.7-1.2 1.2l-.5 5.6c.3.3.6.5.9.8-.8.9-1.6 2-2.3 3.2-3.4 4-8.1 11-9 13.1-.6 1.3-.9 2.7-1 4-.7-.1-.9.6-.8 2 1 7.8 5.1 9 12.2 3.6 2-2.5 2.5-3.7 1.6-3.6.3-.6.7-1.2 1-1.8.9-1.9 1.1-8.5.8-13.7.5-1.8.8-3.8 1-5.5.9 0 1.9-.2 2.9-.6l1.2-6.1c-.3-.4-.6-.7-.9-1 2.5-9.7 7.1-29.4 9.7-37.4 2.9-9.1 5.1-21.7 5.2-24.9 4.9-9.2 12.3-41.6 15.9-47 .1 15.7.5 25.6.5 25.6.1-.6.1-1.3.2-1.9 0 7-.1 13.6-.1 18.5-4.7 5.6-3.7 45.2-3.8 59.1-1.3.3-1.7.7-1.2 1.2-.2 3.7-.4 3.9-.4 3.9.2.2.4.4.6.5-.4.6-.8 1.7-1.3 2.9-.6 1.7-1.1 3.7-.7 5.1-.1 0-.2.1-.3.1 0 0-.1 0-.1.1-.1.2 0 .6.3 1.1 3 5.1 4.5 9.7 4.4 13.9l2 .5c.5-.3 1.1-.5 1.1-.5-.2-2.7-.5-5.4-.6-8.1 1.4 3.1 1.9 6.3 2.2 7.4.1.3.2.5.3.7.3 2.3 2.8 3.4 6 3.5 3.4.2 7.5-.8 8.2-3.7.5-1.5-.6-3.4-4.2-5.5-2.9-1.7-5.1-3.8-6.8-6-.6-2.6-4.6-8.5-5.2-9.4-.1-.1-.1-.2-.2-.3.7-.1 1.3-.2 2-.5l.8-4.6c-.3-.4-.5-.8-.9-1.1.6-5.4 2.8-13.8 3.5-20.7 1-9 2.4-19.7 2-26.4 2.2-4.3 4.1-11.2 4.8-16.6 1.8-4.3 4-12.4 5.1-16.5 1.9-6.9 3.3-13.3 4.3-19.4l27.5 2c2-.4 6.5-3.2 7.1-3.8-4.9-21.1-8-30.7-8-30.7s-3.6-.1-9.5-.2c-1.1-13.8-2.7-22.6-5.1-27.4 3-5 5.9-10.4 6.4-13.6.2-.7.2-1.6-.4-2.6.5-.8-.2-1.9-1-1.6zm-13.6 13.3c.3 0 .7.1 1 .2-1.3 1.7-2.4 3.1-3.4 4.3-.3-1-.5-1.9-.6-2.8.9-.8 1.9-1.4 3-1.7zm-3.1.5c.7-2.4 1.3-5.1 1.4-8 1.5-4 1.6-7.2.6-9.8 3.4 4.9 5.9 7.5 7.4 8.7-.2.3-.3.7-.5 1.1-1.5 2.8-3.1 5.2-4.5 7.1-.3 0-.6.1-.9.2l-.4.1c-.7 0-1.5 0-2.2.2-.3.2-.6.3-.9.4zm5.2 13.8c1.1-1.6 2.9-4.2 4.8-7.2 1.9 5.1 3.2 13.1 4.2 24.7h-8.3c1.8-4.1 2.4-7.3 1.8-9.5-.8-2.1-1.8-4.6-2.9-7.1.1-.2.3-.5.4-.9zm-44.8-19.4c0 4.4.7 7.9 2 10.6.9 2 2.2 3.5 3.9 4.6 0 .4.5 1 1.4 1.6l-.3.7c-2.8-1.2-4.9-3.3-6.4-6.3-1.4-2.9-2.1-6.6-2.1-11.1-.1-1.1-.3-2.2-.4-3.2.7.8 1.3 1.7 2 2.5l-.1.6z"/>
            <path class="st6" d="M32.5 310.9c.5-1.6.9-3.9 1.2-7l-.1-14c-.1-5.6.6-9.9 1.9-13-2.6-2.4-5.6-5.8-12.1-10.3 0 0 4.9-19.7 9.8-38.2l-4.1-5.4-.2-8.9-2.7-4.1-1-19.7c-7.1-27.1 1.8-51.7-2.7-65.1 7.5-5.3 24.6-7.5 26.2-9.7 3.6-1.5 5-5 1.3-7-3.9-2.2-12.9-23.4-8-24.9-.6-2-2.1-2.3-2-3.9 0-1.1.1-2.2.4-3.4-.4-1.2-1.3-2.4-2.7-3.7-1.1-2.6.5-4.7 3.5-7.3-3.3.5-5.3 1.1-6.2 3.7.1-4.6 3.4-6.2 6.7-5.5-3.4-1-8.5-3.6-6.2-7.6.6-1.1 6.7-1.5 5 3.4-.3-1.6-2.8-2.6-3.5-1.9-.6.6 1.5 3.9 4.6 5-.8-7.2-.5-7.4 3.6-9.2.9-.4 1.7-.7 2.5-1 .9-.5 1.9-.8 2.8-1.1 2.8-.9 5.5-.9 7.9 0 .3.1.5.2.8.4 10.6-.8 17.5 2.8 20.7 10.6 3.8 2.1 3.7 6.5 3.9 10 .1 1.2.2 2.9.7 3.6l.6.7c-.4.1-.8 0-1.3-.3-.1.3-.6.2-.5-.2l-.3-.2c-.3 1-.8 2-1.6 3.1-.5 1.1-1.1 1.9-1.9 2.5.5.4.7.9.8 1.6.2.8.1 1.8-.5 2.8-.5 1.3-1.3 2.5-2.2 3.7l-.9 1.2c-.7.8-1.2 1.5-2.3 1.7-.3 1.8.2 2.7 1.6 2.7l.2.6c-.8.3-1.4.1-1.8-.4-.2 1.1-.6 2.3-1.7 2.6.1-.9 0-1.5-.1-1.7-.2.7-.4 1.1-.7 1.1-.4 2.7-2 3.9-2 4.1-.3 2.9 0 6.8 1.8 8.3 1.9.3 4.3-.3 4.3-.3l1 3.9c3.5-.1 6.3-1.3 13.3 1.7l16.9-4.3 11.6-10.5c-.1 3.1.8-10 2.6-39.2l2.8.1-.1-5h1.2c.4-1.5-.2-3.4-1.9-5.8-5.2-5.7-5.1-9 .4-9.9-.7-2.1.3-3.7 3-4.8 3.1-2.2 7.4-1.9 12.9 1 2.9-1.5 3.7 1.1 2.4 7.8.1 5-2.1 9-6.6 11.9h1.4l-.4 5 3.2.1-2.8 53.7-29.9 24.7-5.3 4.4c-2.8 2.7-4.5 4.8-7 5.8l-.2.2c-5.2 14.8-3.4 14.3-7.3 39.5.1 1 0 .3 3 6 0 0-.6.4-1.2.9 1.2 2.3 11.8 73.8 13.6 79-4.1 2.6-7.3 4.6-12.5 5.6-.6-2.2-1.4-5.2-2.2-9-2.3-.8-4.6-1.5-7.1-2.2-.1 1.1-.1 1.9 0 2.5-.8.9-1.5 1.9-1.7 2.7 0 .1 0 .3-.1.4h.1c.3 0 .6.2.9.7-.4 1.3-.4 2.6-.9 3.3 1.5 5 1.5 13.1.7 24.7 0 1.1 1.3 8 2.2 10.4.2.4.4.9.6 1.3.5.8.5 1.2.3 1.3.1.1.2.2.3.2.5 1 .4 3-.4 6.1l-.2-.1.3.3c.1-.4.1-.9.7-.8.7.2.4.7.3 1.4.3.2.6.4 1 .7.5-.1 1.2-.4 1.6-.2.6.3.1.7-.2 1.2l.6.4c.3 0 .6 0 1.1-.1.5-.1 1 .3.7.6-.2.4-.2.5-.3.8l.5.5c.2 0 .3.1 1-.1.3-.1.6.1.7.3.2.5-.5.6-.7.6 3.3 2.7 8.4 5.1 15.4 7 .5-.1 1-.1 1.5 0s1 .3 1.4.6c.7.5 1.3 1.4 1.5 2.6.3.3.4.8.5 1.4v.2l-.2.1c-1 .5-2.1.9-3.2 1.1-6.7 1.6-15.3-.4-22.4-2.9l-.2-.2c-.2-.4-1.5-1.6-2.2-2.1l-3 1.2h-.1l-9.7-1.5-.1-5-1.2-.4c.1-1.5-.1-4.1-.7-7.7 0-.4.6-.5 1.2-1 .2-.5.3-1.2.3-2.2 0-.5.1-1 .1-1.7.2-.8 0-4.2 1.3-10 .1-.9.1-1.8.1-2.8-1.1-4.7-4-9.4-3.3-19.2v-.1c-1.6-1.5-2-4.1-.8-6.4-.2-2.2 0-5.3.6-9.2v-3.5c-4.3-.5-8.8-.8-13.5-.9-.5.1-.9.2-1.3.2l-.8 5.5c-.8.6-1.3 2.2-1.6 4.9 0 .3.1.7.1 1 0 1.9-.5 5.6-1.3 8.2l-.3.9c-1 4.1-2 8.1-2.9 12-1.1 5.2-2.5 13.2-3.5 19.9-.5.3-.7.6-.7 1 .1.3.3.6.7.8-.3 2.4-.2 6.4.5 12-.7.2-1.7 1.3-2.8 3.3.2 1.6.5 3.5.9 5.6 1.2 1.9.8 4.7-1.3 8.3v.1l-7.7 5c-1.6.7-3.8-.1-5.5-.9l-.1-.1-3.3-8.7c-.5-1.5-.2-3 .5-4.4v-.1c1.8-2.3 3.2-4.5 4.3-6.7l-.3-3.9.1-.6c-.1-.7-.2-1.2-.3-1.7.1-.5.2-.7.3-1 .4-1.3.9-2.5 1.4-3.5.6-1.7 2.1-3.1 2.2-3.3v-.4c.1-1.2.8-4.2 2-8.9zm7.4-105c6.2-9.7 7.6-20.5 4.1-32.3-1.7-7.2-1-11.6-3-21.3-.7-.3-1.5-.5-2.3-.7l-.7 26.2.6-.3 1.3 28.4z"/>
        </g>
    </g>
</svg>
