<svg id="objects" xmlns="http://www.w3.org/2000/svg" xmlns:xlink="http://www.w3.org/1999/xlink" viewBox="0 0 1808.9 674.7">
    <style>
        .st0,.st1,.st2,.st3{fill-rule:evenodd;clip-rule:evenodd;fill:#91b634}.st1,.st2,.st3{fill:#a0bb3a}.st2,.st3{fill:#a9d7ab}.st3{fill:#989a9c}.st10,.st4,.st5,.st6,.st7,.st8,.st9{fill-rule:evenodd;clip-rule:evenodd;fill:#a37275}.st10,.st5,.st6,.st7,.st8,.st9{fill:#b7d133}.st10,.st6,.st7,.st8,.st9{fill:#c3d82e}.st10,.st7,.st8,.st9{fill:#e1be7e}.st10,.st8,.st9{fill:#a8b7b9}.st10,.st9{fill:#687374}.st10{fill:#a6a8ab}.st11,.st12,.st13,.st14,.st15,.st16{fill-rule:evenodd;clip-rule:evenodd;fill:#849091}.st12,.st13,.st14,.st15,.st16{fill:#d6a84f}.st13,.st14,.st15,.st16{fill:#846931}.st14,.st15,.st16{fill:#cda34c}.st15,.st16{fill:#9a7b31}.st16{fill:#cac0ad}.st17,.st18,.st19,.st20,.st21,.st22{fill-rule:evenodd;clip-rule:evenodd;fill:#80796d}.st18,.st19,.st20,.st21,.st22{fill:#c3b9a5}.st19,.st20,.st21,.st22{fill:#8b8271}.st20,.st21,.st22{fill:#8eb8c9}.st21,.st22{fill:#59737f}.st22{fill:#394b53}.st23,.st24,.st25,.st26,.st27,.st28{fill-rule:evenodd;clip-rule:evenodd;fill:#e6e7e8}.st24,.st25,.st26,.st27,.st28{fill:#87aec0}.st25,.st26,.st27,.st28{fill:#748890}.st26,.st27,.st28{fill:#a3bb9e}.st27,.st28{fill:#687663}.st28{fill:#9db497}.st29,.st30,.st31,.st32,.st33,.st34{fill-rule:evenodd;clip-rule:evenodd;fill:#8d9e88}.st30,.st31,.st32,.st33,.st34{fill:#a9bd8d}.st31,.st32,.st33,.st34{fill:#8c9d72}.st32,.st33,.st34{fill:#fff}.st33,.st34{fill:#6d7b5d}.st34{fill:#a0b388}.st35,.st36,.st37,.st38,.st39,.st40{fill-rule:evenodd;clip-rule:evenodd;fill:#7f8f69}.st36,.st37,.st38,.st39,.st40{fill:#899fa7}.st37,.st38,.st39,.st40{fill:#58656a}.st38,.st39,.st40{fill:#869aa2}.st39,.st40{fill:#657980}.st40{fill:#828080}.st41,.st42,.st43,.st44,.st45,.st46{fill-rule:evenodd;clip-rule:evenodd;fill:#788282}.st42,.st43,.st44,.st45,.st46{fill:#606163}.st43,.st44,.st45,.st46{fill:#b38f3f}.st44,.st45,.st46{fill:#675120}.st45,.st46{fill:#8a6d2a}.st46{fill:#72939f}.st47,.st48,.st49,.st50,.st51,.st52{fill-rule:evenodd;clip-rule:evenodd;fill:#889684}.st48,.st49,.st50,.st51,.st52{fill:#435040}.st49,.st50,.st51,.st52{fill:#4f5b41}.st50,.st51,.st52{fill:#647579}.st51,.st52{fill:#3c4549}.st52{fill:#9f9586}.st53,.st54,.st55,.st56,.st57,.st58{fill-rule:evenodd;clip-rule:evenodd;fill:#a19988}.st54,.st55,.st56,.st57,.st58{fill:#5f5a4f}.st55,.st56,.st57,.st58{fill:#79878f}.st56,.st57,.st58{fill:#8d9b78}.st57,.st58{fill:#7495a3}.st58{fill:#768772}.st59{display:none}.st60{display:inline}.st61,.st62,.st63{fill-rule:evenodd;clip-rule:evenodd;fill:#b3b3b3}.st62,.st63{fill:#f5e8d0}.st63{fill:#4e4e4f}
    </style>
    <g id="XMLID_212_">
        <g id="XMLID_210_">
            <path id="XMLID_188_" class="st0" d="M728.4 496.9l96.1 60.3-414 105.4 3.8-85.7z"/>
            <path id="XMLID_606_" class="st1" d="M645.7 569.2c-63.6 31.5-66 1.5-120.9 5.1-54.9 3.7-30.8 21.2-84.9 38.3-9.6 3-18.8 4.9-27.3 6l-1.9 43.9 413.9-105.4-56.6-35.6c-3.4-.4-6.7-.9-9.7-1.5-52.9-10.2-49 17.8-112.6 49.2z"/>
            <path id="XMLID_214_" class="st2" d="M769.7 490.9l46.2 28.1 87.3-22.7-44.5-27.9z"/>
            <path id="XMLID_248_" class="st2" d="M922.7 450.9l46.2 28.1 87.3-22.7-44.5-27.9z"/>
            <path id="XMLID_250_" class="st2" d="M960.7 605.9l46.2 28.1 87.3-22.7-44.5-27.9z"/>
            <path id="XMLID_251_" class="st2" d="M1119.7 531.9l46.2 28.1 87.3-22.7-44.5-27.9z"/>
            <path id="XMLID_249_" class="st2" d="M660.7 241.2L823.8 344l49.2-12.8-162.1-102.8z"/>
            <g id="XMLID_182_">
                <path id="XMLID_183_" class="st3" d="M727.4 215l-23.3 5.9 76.7 48.2 10.2 6.4 139.9 87.9 17 10.7 58.9 37L732.2 481l-20.8 5.3-314.3 80 17.2 10.6 314.1-80 96.1 60.3-414 105.4 11.3 12.1 419.6-106.9 147.2 92.5 20.9-7.5-144.8-90.9 360.8-91.9 57.7 36.2.8-7.2 1.9-11.7-37.1-23.3 23.7-6-13.1-11.7-27.6 7-96.1-60.3 144.9-36.9-20.7-9.7-141.2 36-23.3 5.9L1030 405l-58.9-37 331.6-84.4v-15l-348.6 88.8L821 273.8l209.7-53.4-14.9-11.2L804 263.1 727.4 215zm120.4 336.3L751.7 491l360.8-91.9 96.1 60.3-360.8 91.9zm-113-71l-2.6.7 2.6-.7zm16.9 10.6l-17-10.7 17 10.7z"/>
            </g>
            <g id="XMLID_28_">
                <path id="XMLID_31_" class="st4" d="M800.6 222.6h6.5v30c0 2.5-6.6 2.3-6.5 0v-30z"/>
                <path id="XMLID_30_" class="st5" d="M801.1 241.2c1 .1 1.9.2 2.8.3.9-.1 1.8-.2 2.8-.3 49-6.3 11.3-58.6-2.8-60.3-14.2 1.6-51.9 54-2.8 60.3z"/>
                <path id="XMLID_29_" class="st6" d="M814.7 187.6c-4-3.8-7.9-6.4-10.8-6.7-10 1.2-31.9 27.9-26.2 45.5 3.7 2.2 8.7 3.9 15.2 4.7 1 .1 1.9.2 2.8.3.9-.1 1.8-.2 2.8-.3 31.4-4 27.1-27.1 16.2-43.5z"/>
            </g>
            <g id="XMLID_24_">
                <path id="XMLID_27_" class="st4" d="M1135.5 270.4h6.5v30c0 2.5-6.6 2.3-6.5 0v-30z"/>
                <path id="XMLID_26_" class="st5" d="M1136 288.9c1 .1 1.9.2 2.8.3.9-.1 1.8-.2 2.8-.3 49-6.3 11.3-58.6-2.8-60.3-14.1 1.7-51.8 54-2.8 60.3z"/>
                <path id="XMLID_25_" class="st6" d="M1149.7 235.3c-4-3.8-7.9-6.4-10.8-6.7-10 1.2-31.9 27.9-26.2 45.5 3.7 2.2 8.7 3.9 15.2 4.7 1 .1 1.9.2 2.8.3.9-.1 1.8-.2 2.8-.3 31.4-3.9 27.1-27.1 16.2-43.5z"/>
            </g>
            <g id="XMLID_20_">
                <path id="XMLID_23_" class="st4" d="M1175.8 426.9h6.5v30c0 2.5-6.6 2.3-6.5 0v-30z"/>
                <path id="XMLID_22_" class="st5" d="M1176.3 445.4c1 .1 1.9.2 2.8.3.9-.1 1.8-.2 2.8-.3 49-6.3 11.3-58.6-2.8-60.3-14.1 1.7-51.8 54-2.8 60.3z"/>
                <path id="XMLID_21_" class="st6" d="M1189.9 391.8c-4-3.8-7.9-6.4-10.8-6.7-10 1.2-31.9 27.9-26.2 45.5 3.7 2.2 8.7 3.9 15.2 4.7 1 .1 1.9.2 2.8.3.9-.1 1.8-.2 2.8-.3 31.5-3.9 27.1-27.1 16.2-43.5z"/>
            </g>
            <g id="XMLID_16_">
                <path id="XMLID_19_" class="st4" d="M1043.6 461.4h6.5v30c0 2.5-6.6 2.3-6.5 0v-30z"/>
                <path id="XMLID_18_" class="st5" d="M1044.1 479.9c1 .1 1.9.2 2.8.3.9-.1 1.8-.2 2.8-.3 49-6.3 11.3-58.6-2.8-60.3-14.1 1.7-51.8 54.1-2.8 60.3z"/>
                <path id="XMLID_17_" class="st6" d="M1057.8 426.4c-4-3.8-7.9-6.4-10.8-6.7-10 1.2-31.9 27.9-26.2 45.5 3.7 2.2 8.7 3.9 15.2 4.7 1 .1 1.9.2 2.8.3.9-.1 1.8-.2 2.8-.3 31.4-4 27-27.1 16.2-43.5z"/>
            </g>
            <g id="XMLID_12_">
                <path id="XMLID_15_" class="st4" d="M708.1 487.2h6.5v30c0 2.5-6.6 2.3-6.5 0v-30z"/>
                <path id="XMLID_14_" class="st5" d="M708.6 505.7c1 .1 1.9.2 2.8.3.9-.1 1.8-.2 2.8-.3 49-6.3 11.3-58.6-2.8-60.3-14.2 1.7-51.9 54-2.8 60.3z"/>
                <path id="XMLID_13_" class="st6" d="M722.2 452.1c-4-3.8-7.9-6.4-10.8-6.7-10 1.2-31.9 27.9-26.2 45.5 3.7 2.2 8.7 3.9 15.2 4.7 1 .1 1.9.2 2.8.3.9-.1 1.8-.2 2.8-.3 31.4-3.9 27.1-27.1 16.2-43.5z"/>
            </g>
            <g id="XMLID_8_">
                <path id="XMLID_11_" class="st4" d="M819.2 571.3h6.5v30c0 2.5-6.6 2.3-6.5 0v-30z"/>
                <path id="XMLID_10_" class="st5" d="M819.7 589.9c1 .1 1.9.2 2.8.3.9-.1 1.8-.2 2.8-.3 49-6.3 11.3-58.6-2.8-60.3-14.1 1.6-51.8 54-2.8 60.3z"/>
                <path id="XMLID_9_" class="st6" d="M833.3 536.3c-4-3.8-7.9-6.4-10.8-6.7-10 1.2-31.9 27.9-26.2 45.5 3.7 2.2 8.7 3.9 15.2 4.7 1 .1 1.9.2 2.8.3.9-.1 1.8-.2 2.8-.3 31.5-4 27.1-27.1 16.2-43.5z"/>
            </g>
            <g id="XMLID_216_">
                <path id="XMLID_219_" class="st4" d="M1000.4 515.7h6.5v30c0 2.5-6.6 2.3-6.5 0v-30z"/>
                <path id="XMLID_218_" class="st5" d="M1000.9 534.3c1 .1 1.9.2 2.8.3.9-.1 1.8-.2 2.8-.3 49-6.3 11.3-58.6-2.8-60.3-14.2 1.6-51.9 54-2.8 60.3z"/>
                <path id="XMLID_217_" class="st6" d="M1014.5 480.7c-4-3.8-7.9-6.4-10.8-6.7-10 1.2-31.9 27.9-26.2 45.5 3.7 2.2 8.7 3.9 15.2 4.7 1 .1 1.9.2 2.8.3.9-.1 1.8-.2 2.8-.3 31.4-4 27.1-27.1 16.2-43.5z"/>
            </g>
            <g id="XMLID_4_">
                <path id="XMLID_7_" class="st4" d="M957.9 321.6h6.5v30c0 2.5-6.6 2.3-6.5 0v-30z"/>
                <path id="XMLID_6_" class="st5" d="M958.4 340.1c1 .1 1.9.2 2.8.3.9-.1 1.8-.2 2.8-.3 49-6.3 11.3-58.6-2.8-60.3-14.1 1.7-51.8 54-2.8 60.3z"/>
                <path id="XMLID_5_" class="st6" d="M972 286.6c-4-3.8-7.9-6.4-10.8-6.7-10 1.2-31.9 27.9-26.2 45.5 3.7 2.2 8.7 3.9 15.2 4.7 1 .1 1.9.2 2.8.3.9-.1 1.8-.2 2.8-.3 31.5-4 27.1-27.1 16.2-43.5z"/>
            </g>
            <path id="XMLID_33_" class="st7" d="M1242.8 298.9l-271.6 69.2 58.9 37 212.7-54.2z"/>
        </g>
        <g id="XMLID_3_">
            <path id="XMLID_603_" class="st8" d="M919.8 225.4l-.4 45.6-68.8 17.1.4-45.6z"/>
            <path id="XMLID_602_" class="st9" d="M851 242.5l-.4 45.6-20.6-13.7.4-45.6z"/>
            <path id="XMLID_601_" class="st10" d="M899.2 211.7l20.6 13.7-68.8 17.1-20.6-13.7z"/>
            <path id="XMLID_600_" class="st11" d="M898.9 213.2l-65 16.2 17.4 11.6 65-16.2z"/>
            <path id="XMLID_599_" class="st12" d="M1105.9 269v48.7l-69.7 17.4.9-48.9z"/>
            <path id="XMLID_598_" class="st13" d="M1037.1 286.2l-.9 48.9-20.3-13.6V272z"/>
            <path id="XMLID_597_" class="st14" d="M1084.7 254.9l21.2 14.1-68.8 17.2-21.2-14.2z"/>
            <path id="XMLID_596_" class="st15" d="M1084.3 257.1l-63.4 15.8 16.6 11.1 63.4-15.8z"/>
            <path id="XMLID_595_" class="st16" d="M1209.1 452.1v49.5l-67.8 16.9V469z"/>
            <path id="XMLID_594_" class="st17" d="M1141.3 469v49.5l-21.3-14.1v-49.5z"/>
            <path id="XMLID_593_" class="st18" d="M1187.9 438l21.2 14.1-67.8 16.9-21.3-14.1z"/>
            <path id="XMLID_592_" class="st19" d="M1187.5 440.6l-61.4 15.3 15.6 10.5 61.4-15.3z"/>
            <path id="XMLID_591_" class="st20" d="M992.4 321v91.1L924.3 429v-91z"/>
            <path id="XMLID_590_" class="st21" d="M924.3 338v91l-21.2-14.1v-91z"/>
            <g id="XMLID_583_">
                <path id="XMLID_589_" class="st22" d="M905.7 335c2.7 1.8 5.3 3.6 8 5.3 2.7 1.8 5.3 3.6 8 5.3v8.3c-2.7-1.8-5.3-3.6-8-5.3-2.7-1.8-5.3-3.6-8-5.3V335z"/>
                <path id="XMLID_588_" class="st22" d="M905.7 347.6c2.7 1.8 5.3 3.6 8 5.3 2.7 1.8 5.3 3.6 8 5.3v8.3c-2.7-1.8-5.3-3.6-8-5.3-2.7-1.8-5.3-3.6-8-5.3v-8.3z"/>
                <path id="XMLID_587_" class="st22" d="M905.7 360.1c2.7 1.8 5.3 3.6 8 5.3 2.7 1.8 5.3 3.6 8 5.3v8.3c-2.7-1.8-5.3-3.6-8-5.3-2.7-1.8-5.3-3.6-8-5.3v-8.3z"/>
                <path id="XMLID_586_" class="st22" d="M905.7 372.7c2.7 1.8 5.3 3.6 8 5.3 2.7 1.8 5.3 3.6 8 5.3v8.3c-2.7-1.8-5.3-3.6-8-5.3-2.7-1.8-5.3-3.6-8-5.3v-8.3z"/>
                <path id="XMLID_585_" class="st22" d="M905.7 385.3c2.7 1.8 5.3 3.6 8 5.3 2.7 1.8 5.3 3.6 8 5.3v8.3c-2.7-1.8-5.3-3.6-8-5.3-2.7-1.8-5.3-3.6-8-5.3v-8.3z"/>
                <path id="XMLID_584_" class="st22" d="M905.7 397.9c2.7 1.8 5.3 3.6 8 5.3 2.7 1.8 5.3 3.6 8 5.3v8.3c-2.7-1.8-5.3-3.6-8-5.3-2.7-1.8-5.3-3.6-8-5.3v-8.3z"/>
            </g>
            <g id="XMLID_576_">
                <path id="XMLID_582_" class="st23" d="M906.7 335.6l7 4.7c2.7 1.8 5.3 3.6 8 5.3v7.4l-7.1-4.7c-2.7-1.8-5.3-3.6-8-5.3v-7.4z"/>
                <path id="XMLID_581_" class="st23" d="M906.7 348.2l7 4.7c2.7 1.8 5.3 3.6 8 5.3v7.4l-7.1-4.7c-2.7-1.8-5.3-3.6-8-5.3v-7.4z"/>
                <path id="XMLID_580_" class="st23" d="M906.7 360.8l7 4.7c2.7 1.8 5.3 3.6 8 5.3v7.4l-7.1-4.7c-2.7-1.8-5.3-3.6-8-5.3v-7.4z"/>
                <path id="XMLID_579_" class="st23" d="M906.7 373.4l7 4.7c2.7 1.8 5.3 3.6 8 5.3v7.4l-7.1-4.7c-2.7-1.8-5.3-3.6-8-5.3v-7.4z"/>
                <path id="XMLID_578_" class="st23" d="M906.7 386l7 4.7c2.7 1.8 5.3 3.6 8 5.3v7.4l-7.1-4.7c-2.7-1.8-5.3-3.6-8-5.3V386z"/>
                <path id="XMLID_577_" class="st23" d="M906.7 398.5l7 4.7c2.7 1.8 5.3 3.6 8 5.3v7.4l-7.1-4.7c-2.7-1.8-5.3-3.6-8-5.3v-7.4z"/>
            </g>
            <path id="XMLID_575_" class="st24" d="M971.2 306.9l21.2 14.1-68.1 17-21.2-14.1z"/>
            <path id="XMLID_574_" class="st25" d="M970.8 309.1L908 324.7l16.7 11.1 62.8-15.6z"/>
            <path id="XMLID_573_" class="st26" d="M911.6 376.1l.1 56.1-36.7 9.1v-56z"/>
            <path id="XMLID_572_" class="st27" d="M875 385.3v56l-11.7-7.7v-56.1z"/>
            <path id="XMLID_571_" class="st28" d="M900 368.4l11.6 7.7-36.6 9.2-11.7-7.8z"/>
            <path id="XMLID_570_" class="st29" d="M899.8 369.5l-33.9 8.5 9.3 6.1 33.9-8.4z"/>
            <path id="XMLID_569_" class="st30" d="M940 500.8v73l-36.7 9.2v-73z"/>
            <g id="XMLID_544_">
                <g id="XMLID_563_">
                    <path id="XMLID_568_" class="st31" d="M907 531c1.4-.4 2.9-.7 4.3-1.1v-13.7c-1.4.4-2.9.7-4.3 1.1V531z"/>
                    <path id="XMLID_567_" class="st31" d="M913.3 529.5c1.4-.4 2.9-.7 4.3-1.1v-13.7c-1.4.4-2.9.7-4.3 1.1v13.7z"/>
                    <path id="XMLID_566_" class="st31" d="M919.5 527.9c1.4-.4 2.9-.7 4.3-1.1v-13.7c-1.4.4-2.9.7-4.3 1.1v13.7z"/>
                    <path id="XMLID_565_" class="st31" d="M925.7 526.3c1.4-.4 2.9-.7 4.3-1.1v-13.7c-1.4.4-2.9.7-4.3 1.1v13.7z"/>
                    <path id="XMLID_564_" class="st31" d="M932 524.8c1.4-.4 2.9-.7 4.3-1.1V510c-1.4.4-2.9.7-4.3 1.1v13.7z"/>
                </g>
                <g id="XMLID_557_">
                    <path id="XMLID_562_" class="st31" d="M907 546.3c1.4-.4 2.9-.7 4.3-1.1v-13.7c-1.4.4-2.9.7-4.3 1.1v13.7z"/>
                    <path id="XMLID_561_" class="st31" d="M913.3 544.8c1.4-.4 2.9-.7 4.3-1.1V530c-1.4.4-2.9.7-4.3 1.1v13.7z"/>
                    <path id="XMLID_560_" class="st31" d="M919.5 543.2c1.4-.4 2.9-.7 4.3-1.1v-13.7c-1.4.4-2.9.7-4.3 1.1v13.7z"/>
                    <path id="XMLID_559_" class="st31" d="M925.7 541.7c1.4-.4 2.9-.7 4.3-1.1v-13.7c-1.4.4-2.9.7-4.3 1.1v13.7z"/>
                    <path id="XMLID_558_" class="st31" d="M932 540.1c1.4-.4 2.9-.7 4.3-1.1v-13.7c-1.4.4-2.9.7-4.3 1.1v13.7z"/>
                </g>
                <g id="XMLID_551_">
                    <path id="XMLID_556_" class="st31" d="M907 561.6c1.4-.4 2.9-.7 4.3-1.1v-13.7c-1.4.4-2.9.7-4.3 1.1v13.7z"/>
                    <path id="XMLID_555_" class="st31" d="M913.3 560.1c1.4-.4 2.9-.7 4.3-1.1v-13.7c-1.4.4-2.9.7-4.3 1.1v13.7z"/>
                    <path id="XMLID_554_" class="st31" d="M919.5 558.5c1.4-.4 2.9-.7 4.3-1.1v-13.7c-1.4.4-2.9.7-4.3 1.1v13.7z"/>
                    <path id="XMLID_553_" class="st31" d="M925.7 557c1.4-.4 2.9-.7 4.3-1.1v-13.7c-1.4.4-2.9.7-4.3 1.1V557z"/>
                    <path id="XMLID_552_" class="st31" d="M932 555.4c1.4-.4 2.9-.7 4.3-1.1v-13.7c-1.4.4-2.9.7-4.3 1.1v13.7z"/>
                </g>
                <g id="XMLID_545_">
                    <path id="XMLID_550_" class="st31" d="M907 576.9c1.4-.4 2.9-.7 4.3-1.1v-13.7c-1.4.4-2.9.7-4.3 1.1v13.7z"/>
                    <path id="XMLID_549_" class="st31" d="M913.3 575.4c1.4-.4 2.9-.7 4.3-1.1v-13.7c-1.4.4-2.9.7-4.3 1.1v13.7z"/>
                    <path id="XMLID_548_" class="st31" d="M919.5 573.8c1.4-.4 2.9-.7 4.3-1.1V559c-1.4.4-2.9.7-4.3 1.1v13.7z"/>
                    <path id="XMLID_547_" class="st31" d="M925.7 572.3c1.4-.4 2.9-.7 4.3-1.1v-13.7c-1.4.4-2.9.7-4.3 1.1v13.7z"/>
                    <path id="XMLID_546_" class="st31" d="M932 570.7c1.4-.4 2.9-.7 4.3-1.1v-13.7c-1.4.4-2.9.7-4.3 1.1v13.7z"/>
                </g>
            </g>
            <g id="XMLID_523_">
                <path id="XMLID_543_" class="st32" d="M910.7 516.4l-3.7.9v13.3l3.7-.9z"/>
                <path id="XMLID_542_" class="st32" d="M917 514.9l-3.7.9V529l3.7-.9z"/>
                <path id="XMLID_541_" class="st32" d="M923.2 513.3l-3.7.9v13.3l3.7-.9z"/>
                <path id="XMLID_540_" class="st32" d="M929.4 511.8l-3.7.9v13.2l3.7-.9z"/>
                <path id="XMLID_539_" class="st32" d="M935.7 510.2l-3.7.9v13.3l3.7-1z"/>
                <path id="XMLID_538_" class="st32" d="M910.7 531.7l-3.7.9v13.3l3.7-.9z"/>
                <path id="XMLID_537_" class="st32" d="M917 530.2l-3.7.9v13.2l3.7-.9z"/>
                <path id="XMLID_536_" class="st32" d="M923.2 528.6l-3.7.9v13.3l3.7-.9z"/>
                <path id="XMLID_535_" class="st32" d="M929.4 527.1l-3.7.9v13.2l3.7-.9z"/>
                <path id="XMLID_534_" class="st32" d="M935.7 525.5l-3.7.9v13.3l3.7-.9z"/>
                <path id="XMLID_533_" class="st32" d="M910.7 547l-3.7 1v13.2l3.7-.9z"/>
                <path id="XMLID_532_" class="st32" d="M917 545.5l-3.7.9v13.2l3.7-.9z"/>
                <path id="XMLID_531_" class="st32" d="M923.2 543.9l-3.7.9v13.3l3.7-.9z"/>
                <path id="XMLID_530_" class="st32" d="M929.4 542.4l-3.7.9v13.2l3.7-.9z"/>
                <path id="XMLID_529_" class="st32" d="M935.7 540.8l-3.7.9V555l3.7-.9z"/>
                <path id="XMLID_528_" class="st32" d="M910.7 562.3l-3.7 1v13.2l3.7-.9z"/>
                <path id="XMLID_527_" class="st32" d="M917 560.8l-3.7.9v13.2l3.7-.9z"/>
                <path id="XMLID_526_" class="st32" d="M923.2 559.2l-3.7.9v13.3l3.7-.9z"/>
                <path id="XMLID_525_" class="st32" d="M929.4 557.7l-3.7.9v13.2l3.7-.9z"/>
                <path id="XMLID_524_" class="st32" d="M935.7 556.1l-3.7.9v13.3l3.7-1z"/>
            </g>
            <path id="XMLID_522_" class="st33" d="M903.3 510v73l-21.2-14.2v-73z"/>
            <path id="XMLID_521_" class="st34" d="M918.8 486.6l21.2 14.2-36.7 9.2-21.2-14.2z"/>
            <path id="XMLID_520_" class="st35" d="M918.4 488.8l-31.4 7.8 16.7 11.2 31.4-7.8z"/>
            <path id="XMLID_519_" class="st36" d="M965 552.8v40.6l-33.5 8.4v-40.6z"/>
            <path id="XMLID_518_" class="st37" d="M931.5 561.2v40.6l-10.6-7.1v-40.6z"/>
            <path id="XMLID_517_" class="st38" d="M954.4 545.8l10.6 7-33.5 8.4-10.6-7.1z"/>
            <path id="XMLID_516_" class="st39" d="M954.2 547.2l-30.1 7.5 7.7 5.1 30-7.5z"/>
            <g id="XMLID_497_">
                <g id="XMLID_510_">
                    <path id="XMLID_515_" class="st32" d="M860 248.5c2.6-.6 5.2-1.3 7.7-1.9v9c-2.6.6-5.2 1.3-7.7 1.9V253v-4.5z"/>
                    <path id="XMLID_514_" class="st32" d="M871.4 245.7c2.6-.6 5.2-1.3 7.7-1.9v9c-2.6.6-5.2 1.3-7.7 1.9v-4.5-4.5z"/>
                    <path id="XMLID_513_" class="st32" d="M882.1 243c2.6-.6 5.2-1.3 7.7-1.9v9c-2.6.6-5.2 1.3-7.7 1.9v-4.5-4.5z"/>
                    <path id="XMLID_512_" class="st32" d="M892.9 240.3c2.6-.6 5.2-1.3 7.7-1.9v9c-2.6.6-5.2 1.3-7.7 1.9v-4.5-4.5z"/>
                    <path id="XMLID_511_" class="st32" d="M903.6 237.7c2.6-.6 5.2-1.3 7.8-1.9v9c-2.6.6-5.2 1.3-7.8 1.9v-4.5-4.5z"/>
                </g>
                <g id="XMLID_504_">
                    <path id="XMLID_509_" class="st32" d="M860.1 260.3c2.6-.6 5.2-1.3 7.7-1.9v9c-2.6.6-5.2 1.3-7.7 1.9v-4.5-4.5z"/>
                    <path id="XMLID_508_" class="st32" d="M871.4 257.5c2.6-.6 5.2-1.3 7.7-1.9v9c-2.6.6-5.2 1.3-7.7 1.9V262v-4.5z"/>
                    <path id="XMLID_507_" class="st32" d="M882.2 254.8c2.6-.6 5.2-1.3 7.7-1.9v9c-2.6.6-5.2 1.3-7.7 1.9v-4.5-4.5z"/>
                    <path id="XMLID_506_" class="st32" d="M892.9 252.1c2.6-.6 5.2-1.3 7.7-1.9v9c-2.6.6-5.2 1.3-7.7 1.9v-4.5-4.5z"/>
                    <path id="XMLID_505_" class="st32" d="M903.6 249.4c2.6-.6 5.2-1.3 7.7-1.9v9c-2.6.6-5.2 1.3-7.7 1.9v-4.5-4.5z"/>
                </g>
                <g id="XMLID_498_">
                    <path id="XMLID_503_" class="st32" d="M860.1 272c2.6-.6 5.1-1.3 7.7-1.9v9c-2.6.6-5.1 1.3-7.7 1.9v-4.5-4.5z"/>
                    <path id="XMLID_502_" class="st32" d="M871.5 269.2c2.6-.6 5.2-1.3 7.7-1.9v9c-2.6.6-5.1 1.3-7.7 1.9v-4.5-4.5z"/>
                    <path id="XMLID_501_" class="st32" d="M882.2 266.5c2.6-.6 5.2-1.3 7.7-1.9v9c-2.6.6-5.1 1.3-7.7 1.9V271v-4.5z"/>
                    <path id="XMLID_500_" class="st32" d="M892.9 263.9c2.6-.6 5.2-1.3 7.7-1.9v9c-2.6.6-5.1 1.3-7.7 1.9v-4.5-4.5z"/>
                    <path id="XMLID_499_" class="st32" d="M903.6 261.2c2.6-.6 5.2-1.3 7.7-1.9v9c-2.6.6-5.2 1.3-7.7 1.9v-4.5-4.5z"/>
                </g>
            </g>
            <g id="XMLID_487_">
                <path id="XMLID_496_" class="st23" d="M832.8 238.7c.6.4 1.3.9 1.9 1.3.6.4 1.3.9 2 1.3v9.2c-.7-.4-1.3-.9-2-1.3-.6-.4-1.3-.9-1.9-1.3v-4.6-4.6z"/>
                <path id="XMLID_495_" class="st23" d="M838.6 242.6c.6.4 1.3.9 1.9 1.3.6.4 1.3.9 2 1.3v9.2c-.7-.4-1.3-.9-2-1.3-.6-.4-1.3-.9-1.9-1.3v-4.6-4.6z"/>
                <path id="XMLID_494_" class="st23" d="M844 246.2c.7.4 1.3.9 2 1.3.6.4 1.3.9 2 1.3v9.2c-.7-.4-1.3-.9-2-1.3s-1.3-.9-2-1.3v-4.6-4.6z"/>
                <path id="XMLID_493_" class="st23" d="M832.8 250.6c.6.4 1.3.9 1.9 1.3.6.4 1.3.9 2 1.3v9.2c-.7-.4-1.3-.9-2-1.3s-1.3-.9-1.9-1.3v-4.6-4.6z"/>
                <path id="XMLID_492_" class="st23" d="M838.6 254.4c.6.4 1.3.9 1.9 1.3.7.4 1.3.9 2 1.3v9.2c-.7-.4-1.3-.9-2-1.3-.6-.4-1.3-.9-1.9-1.3V259v-4.6z"/>
                <path id="XMLID_491_" class="st23" d="M844 258c.7.4 1.3.9 2 1.3.6.4 1.3.9 2 1.3v9.2c-.7-.4-1.3-.9-2-1.3s-1.3-.9-2-1.3v-4.6-4.6z"/>
                <path id="XMLID_490_" class="st23" d="M832.8 262.4c.6.4 1.3.9 1.9 1.3.6.4 1.3.9 2 1.3v9.1c-.7-.4-1.3-.9-2-1.3-.6-.4-1.3-.9-1.9-1.3V267v-4.6z"/>
                <path id="XMLID_489_" class="st23" d="M838.6 266.2c.6.4 1.3.9 1.9 1.3.7.4 1.3.9 2 1.3v9.1c-.7-.4-1.3-.9-2-1.3-.6-.4-1.3-.9-1.9-1.3v-4.5-4.6z"/>
                <path id="XMLID_488_" class="st23" d="M844 269.9c.7.4 1.3.9 2 1.3.6.4 1.3.9 2 1.3v9.1c-.7-.4-1.3-.9-2-1.3s-1.3-.9-2-1.3v-4.5-4.6z"/>
            </g>
            <path id="XMLID_486_" class="st40" d="M836.1 230.9l62.7-15.6 15.2 10.1 2.3-.6-17.4-11.6-65 16.2z"/>
            <path id="XMLID_485_" class="st41" d="M910.7 267.9l-7.1 1.8v.5l7.8-1.9v-9l-.6.1v4z"/>
            <path id="XMLID_484_" class="st41" d="M900.7 270.9v-4.5l-.1-4.5-.6.2v8.5l-7.1 1.7v.6z"/>
            <path id="XMLID_483_" class="st41" d="M889.3 273.2l-7.1 1.8v.5l7.7-1.9v-9l-.6.2v3.9z"/>
            <path id="XMLID_482_" class="st41" d="M879.2 276.3v-9l-.6.1v8.5l-7.1 1.8v.5z"/>
            <path id="XMLID_481_" class="st41" d="M867.3 278.7l-7.1 1.8v.5l7.7-1.9v-9l-.7.2.1 3.9z"/>
            <path id="XMLID_480_" class="st41" d="M860.1 269.3l7.7-1.9v-9l-.6.1v8.5l-7.1 1.8z"/>
            <path id="XMLID_479_" class="st41" d="M871.5 266v.5l7.7-1.9v-9.1l-.7.2v4l.1 4.5z"/>
            <path id="XMLID_478_" class="st41" d="M882.2 263.3v.5l7.7-1.9v-9l-.6.1v8.5z"/>
            <path id="XMLID_477_" class="st41" d="M892.9 260.6v.6l7.7-2v-9l-.6.1v8.5z"/>
            <path id="XMLID_476_" class="st41" d="M903.6 257.9v.6l7.8-2v-9l-.6.2v8.5z"/>
            <path id="XMLID_475_" class="st41" d="M903.6 246.7l7.8-1.9v-9.1l-.6.2v8.5l-7.2 1.8z"/>
            <path id="XMLID_474_" class="st41" d="M900.6 247.5v-9.1l-.6.2v8.5l-7.1 1.8v.5z"/>
            <path id="XMLID_473_" class="st41" d="M889.3 249.8l-7.2 1.8v.5l7.8-1.9v-9.1l-.7.1.1 4.1z"/>
            <path id="XMLID_472_" class="st41" d="M879.1 252.8v-9l-.6.1v8.6l-7.1 1.7v.6z"/>
            <path id="XMLID_454_" class="st41" d="M867.8 255.7v-4.6l-.1-4.5-.6.2v4l.1 4.5-7.2 1.8v.5z"/>
            <path id="XMLID_453_" class="st42" d="M836.7 274.1v-.5l-1.4-1-1.9-1.3v-8.5l-.6-.4v9.1l2 1.3z"/>
            <path id="XMLID_452_" class="st42" d="M838.6 270.8v4.5l1.9 1.3 2 1.3v-.5l-1.4-1-2-1.3v-8.5l-.5-.4z"/>
            <path id="XMLID_451_" class="st42" d="M846.5 280.1l-2-1.3v-8.6l-.5-.3v9.1l1.9 1.3 2 1.3v-.6z"/>
            <path id="XMLID_450_" class="st42" d="M844 267.1l1.9 1.3 2 1.3v-.5l-1.4-1-2-1.3v-8.5l-.5-.4v4.6z"/>
            <path id="XMLID_449_" class="st42" d="M842.5 266.1v-.6l-1.4-.9-2-1.3v-8.5l-.5-.4v9.1l1.9 1.3z"/>
            <path id="XMLID_448_" class="st42" d="M836.7 262.3v-.6l-1.4-.9-1.9-1.3v-8.6l-.6-.3v9.1l2 1.3z"/>
            <path id="XMLID_447_" class="st42" d="M834.8 249.1l1.9 1.3v-.5l-1.4-1-1.9-1.3v-8.5l-.6-.4v9.1z"/>
            <path id="XMLID_446_" class="st42" d="M838.6 247.1v4.6l1.9 1.3 2 1.3v-.6l-1.4-.9-2-1.3v-8.6l-.5-.3z"/>
            <path id="XMLID_445_" class="st42" d="M846.5 256.4l-2-1.3v-8.6l-.5-.3v9.1l1.9 1.3 2 1.3v-.6z"/>
            <g id="XMLID_439_">
                <path id="XMLID_444_" class="st32" d="M1041.8 293c2.9-.7 5.7-1.4 8.6-2.1V325c-2.9.7-5.7 1.4-8.6 2.1v-17V293z"/>
                <path id="XMLID_443_" class="st32" d="M1054.6 289.8c2.9-.7 5.7-1.4 8.6-2.1v34.1c-2.9.7-5.7 1.4-8.6 2.1v-17-17.1z"/>
                <path id="XMLID_442_" class="st32" d="M1067.4 286.6c2.9-.7 5.7-1.4 8.6-2.1v34.1c-2.9.7-5.7 1.4-8.6 2.1v-17-17.1z"/>
                <path id="XMLID_441_" class="st32" d="M1080.1 283.4c2.9-.7 5.7-1.4 8.6-2.1v34.1c-2.9.7-5.7 1.4-8.6 2.1v-17-17.1z"/>
                <path id="XMLID_440_" class="st32" d="M1092.9 280.2c2.9-.7 5.7-1.4 8.6-2.1v34.1c-2.9.7-5.7 1.4-8.6 2.1v-17-17.1z"/>
            </g>
            <g id="XMLID_433_">
                <path id="XMLID_438_" class="st32" d="M1018.8 282c1.1.7 2.2 1.4 3.2 2.2 1.1.7 2.2 1.4 3.2 2.2V321c-1.1-.7-2.2-1.4-3.2-2.2-1.1-.7-2.2-1.4-3.2-2.2v-17.3V282z"/>
                <path id="XMLID_434_" class="st32" d="M1028.3 288.4c1.1.7 2.2 1.4 3.2 2.2 1.1.7 2.2 1.4 3.2 2.2v34.6c-1.1-.7-2.2-1.4-3.2-2.2s-2.2-1.4-3.2-2.2v-17.3-17.3z"/>
            </g>
            <path id="XMLID_432_" class="st43" d="M1100.6 311.7l-7.7 2v.6l8.6-2.1v-34.1l-.9.2v16.4z"/>
            <path id="XMLID_430_" class="st43" d="M1088.7 315.4v-34.1l-.8.2v33.4l-7.8 1.9v.7z"/>
            <path id="XMLID_429_" class="st43" d="M1075.1 318.1l-7.7 1.9v.7l8.5-2.1v-34.1l-.8.2V301z"/>
            <path id="XMLID_428_" class="st43" d="M1063.2 321.7v-34.1l-.9.3V321.3l-7.7 1.9v.7z"/>
            <path id="XMLID_427_" class="st43" d="M1049.6 324.5l-7.8 1.9v.7l8.6-2.2v-34.1l-.8.2v16.4z"/>
            <path id="XMLID_426_" class="st44" d="M1022.7 318.5l-3.2-2.1v-33.9l-.7-.5v34.7l3.2 2.2 3.2 2.1v-.8z"/>
            <path id="XMLID_425_" class="st44" d="M1028.3 305.8v17.3l3.3 2.1 3.2 2.2v-.8l-2.5-1.7-3.2-2.2v-33.8l-.8-.5z"/>
            <path id="XMLID_424_" class="st45" d="M1023.2 274.4l61.1-15.2 14.3 9.5 2.3-.5-16.6-11.1-63.4 15.8z"/>
            <g id="XMLID_417_">
                <path id="XMLID_423_" class="st46" d="M929.8 346c9.5-2.4 19.1-4.8 28.6-7.1 9.5-2.4 19.1-4.8 28.6-7.1v8.3c-9.5 2.4-19.1 4.8-28.6 7.1-9.5 2.4-19.1 4.8-28.6 7.1V346z"/>
                <path id="XMLID_422_" class="st46" d="M929.8 358.6c9.5-2.4 19.1-4.8 28.6-7.1 9.5-2.4 19.1-4.8 28.6-7.1v8.3c-9.5 2.4-19.1 4.8-28.6 7.1-9.5 2.4-19.1 4.8-28.6 7.1v-8.3z"/>
                <path id="XMLID_421_" class="st46" d="M929.8 371.2c9.5-2.4 19.1-4.8 28.6-7.1 9.5-2.4 19.1-4.8 28.6-7.1v8.3c-9.5 2.4-19.1 4.8-28.6 7.1-9.5 2.4-19.1 4.8-28.6 7.1v-8.3z"/>
                <path id="XMLID_420_" class="st46" d="M929.8 383.8c9.5-2.4 19.1-4.8 28.6-7.1 9.5-2.4 19.1-4.8 28.6-7.1v8.3c-9.5 2.4-19.1 4.8-28.6 7.1-9.5 2.4-19.1 4.8-28.6 7.1v-8.3z"/>
                <path id="XMLID_419_" class="st46" d="M929.8 396.4c9.5-2.4 19.1-4.8 28.6-7.1 9.5-2.4 19.1-4.8 28.6-7.1v8.3c-9.5 2.4-19.1 4.8-28.6 7.1-9.5 2.4-19.1 4.8-28.6 7.1v-8.3z"/>
                <path id="XMLID_418_" class="st46" d="M929.8 409c9.5-2.4 19.1-4.8 28.6-7.1 9.5-2.4 19.1-4.8 28.6-7.1v8.3c-9.5 2.4-19.1 4.8-28.6 7.1-9.5 2.4-19.1 4.8-28.6 7.1V409z"/>
            </g>
            <g id="XMLID_410_">
                <path id="XMLID_416_" class="st32" d="M929.8 346c9.5-2.4 19.1-4.8 28.6-7.1l27.3-6.8v7.5c-9.5 2.4-19.1 4.8-28.6 7.1-9.1 2.3-18.2 4.5-27.3 6.8V346z"/>
                <path id="XMLID_415_" class="st32" d="M929.8 358.6c9.5-2.4 19.1-4.8 28.6-7.1l27.3-6.8v7.5c-9.5 2.4-19.1 4.8-28.6 7.1-9.1 2.3-18.2 4.5-27.3 6.8v-7.5z"/>
                <path id="XMLID_414_" class="st32" d="M929.8 371.2c9.5-2.4 19.1-4.8 28.6-7.1l27.3-6.8v7.5c-9.5 2.4-19.1 4.8-28.6 7.1l-27.3 6.8v-7.5z"/>
                <path id="XMLID_413_" class="st32" d="M929.8 383.8c9.5-2.4 19.1-4.8 28.6-7.1l27.3-6.8v7.5c-9.5 2.4-19.1 4.8-28.6 7.1l-27.3 6.8v-7.5z"/>
                <path id="XMLID_412_" class="st32" d="M929.8 396.4c9.5-2.4 19.1-4.8 28.6-7.1 9.1-2.3 18.2-4.5 27.3-6.8v7.5c-9.5 2.4-19.1 4.8-28.6 7.1l-27.3 6.8v-7.5z"/>
                <path id="XMLID_411_" class="st32" d="M929.8 409c9.5-2.4 19.1-4.8 28.6-7.1 9.1-2.3 18.2-4.5 27.3-6.8v7.5c-9.5 2.4-19.1 4.8-28.6 7.1l-27.3 6.8V409z"/>
            </g>
            <g id="XMLID_389_">
                <g id="XMLID_405_">
                    <path id="XMLID_409_" class="st47" d="M877.9 390.6c1.9-.5 3.9-.9 5.8-1.4v8.8c-1.9.5-3.9 1-5.8 1.4v-8.8z"/>
                    <path id="XMLID_408_" class="st47" d="M886.3 388.5c1.9-.5 3.8-.9 5.8-1.4v8.8c-1.9.5-3.9 1-5.8 1.4v-8.8z"/>
                    <path id="XMLID_407_" class="st47" d="M894.6 386.5c1.9-.5 3.8-.9 5.8-1.4v8.8c-1.9.5-3.8.9-5.8 1.4v-8.8z"/>
                    <path id="XMLID_406_" class="st47" d="M903 384.4c1.9-.5 3.8-.9 5.8-1.4v8.8c-1.9.5-3.8.9-5.8 1.4v-8.8z"/>
                </g>
                <g id="XMLID_400_">
                    <path id="XMLID_404_" class="st47" d="M877.9 402.4c1.9-.5 3.9-1 5.8-1.4v8.8c-1.9.5-3.9 1-5.8 1.4v-8.8z"/>
                    <path id="XMLID_403_" class="st47" d="M886.3 400.4c1.9-.5 3.8-1 5.8-1.4v8.8c-1.9.5-3.9 1-5.8 1.4v-8.8z"/>
                    <path id="XMLID_402_" class="st47" d="M894.6 398.3c1.9-.5 3.8-1 5.8-1.4v8.8c-1.9.5-3.8 1-5.8 1.4v-8.8z"/>
                    <path id="XMLID_401_" class="st47" d="M903 396.2c1.9-.5 3.8-.9 5.8-1.4v8.8c-1.9.5-3.8 1-5.8 1.4v-8.8z"/>
                </g>
                <g id="XMLID_395_">
                    <path id="XMLID_399_" class="st47" d="M877.9 414.3c1.9-.5 3.9-1 5.8-1.4v8.8c-1.9.5-3.9 1-5.8 1.4v-8.8z"/>
                    <path id="XMLID_398_" class="st47" d="M886.3 412.2c1.9-.5 3.9-1 5.8-1.4v8.8c-1.9.5-3.9 1-5.8 1.4v-8.8z"/>
                    <path id="XMLID_397_" class="st47" d="M894.6 410.1c1.9-.5 3.8-1 5.8-1.4v8.8c-1.9.5-3.9 1-5.8 1.4v-8.8z"/>
                    <path id="XMLID_396_" class="st47" d="M903 408.1c1.9-.5 3.8-1 5.8-1.4v8.8c-1.9.5-3.8 1-5.8 1.4v-8.8z"/>
                </g>
                <g id="XMLID_390_">
                    <path id="XMLID_394_" class="st47" d="M877.9 426.1c1.9-.5 3.9-1 5.8-1.4v8.8c-1.9.5-3.9 1-5.8 1.4v-8.8z"/>
                    <path id="XMLID_393_" class="st47" d="M886.3 424c1.9-.5 3.9-1 5.8-1.4v8.8c-1.9.5-3.9 1-5.8 1.4V424z"/>
                    <path id="XMLID_392_" class="st47" d="M894.6 422c1.9-.5 3.8-1 5.8-1.4v8.8c-1.9.5-3.9 1-5.8 1.4V422z"/>
                    <path id="XMLID_391_" class="st47" d="M903 419.9c1.9-.5 3.8-1 5.8-1.4v8.8c-1.9.5-3.8 1-5.8 1.4v-8.8z"/>
                </g>
            </g>
            <g id="XMLID_332_">
                <path id="XMLID_388_" class="st32" d="M877.9 390.6l5.2-1.3v8.3l-5.2 1.3z"/>
                <path id="XMLID_347_" class="st32" d="M886.3 388.5l5.1-1.2v8.3l-5.1 1.2z"/>
                <path id="XMLID_346_" class="st32" d="M894.6 386.5l5.2-1.3v8.3l-5.2 1.3z"/>
                <path id="XMLID_345_" class="st32" d="M903 384.4l5.1-1.2v8.2l-5.1 1.3z"/>
                <path id="XMLID_344_" class="st32" d="M877.9 402.4l5.2-1.2v8.3l-5.2 1.2z"/>
                <path id="XMLID_343_" class="st32" d="M886.3 400.4l5.1-1.3v8.3l-5.1 1.3z"/>
                <path id="XMLID_342_" class="st32" d="M894.6 398.3l5.2-1.3v8.3l-5.2 1.3z"/>
                <path id="XMLID_341_" class="st32" d="M903 396.2l5.1-1.2v8.3l-5.1 1.2z"/>
                <path id="XMLID_340_" class="st32" d="M877.9 414.3l5.2-1.3v8.3l-5.2 1.3z"/>
                <path id="XMLID_339_" class="st32" d="M886.3 412.2l5.1-1.3v8.3l-5.1 1.3z"/>
                <path id="XMLID_338_" class="st32" d="M894.6 410.1l5.2-1.3v8.3l-5.2 1.3z"/>
                <path id="XMLID_337_" class="st32" d="M903 408.1l5.1-1.3v8.3l-5.1 1.2z"/>
                <path id="XMLID_336_" class="st32" d="M877.9 426.1l5.2-1.3v8.3l-5.2 1.3z"/>
                <path id="XMLID_335_" class="st32" d="M886.3 424l5.1-1.3v8.3l-5.1 1.3z"/>
                <path id="XMLID_334_" class="st32" d="M894.6 422l5.2-1.3v8.3l-5.2 1.2z"/>
                <path id="XMLID_333_" class="st32" d="M903 419.9l5.1-1.3v8.3l-5.1 1.3z"/>
            </g>
            <g id="XMLID_323_">
                <path id="XMLID_331_" class="st48" d="M864.9 384.6c.6.4 1.2.8 1.7 1.2.6.4 1.2.8 1.7 1.2v8.8c-.6-.4-1.2-.8-1.7-1.2-.6-.4-1.2-.8-1.7-1.2v-8.8z"/>
                <path id="XMLID_330_" class="st48" d="M869.9 388c.6.4 1.2.8 1.7 1.2.6.4 1.2.8 1.7 1.2v8.8c-.6-.4-1.2-.8-1.7-1.2-.6-.4-1.2-.8-1.7-1.2V388z"/>
                <path id="XMLID_329_" class="st48" d="M864.9 396.4c.6.4 1.2.8 1.7 1.2.6.4 1.2.8 1.7 1.2v8.8c-.6-.4-1.2-.8-1.7-1.2-.6-.4-1.2-.8-1.7-1.2v-8.8z"/>
                <path id="XMLID_328_" class="st48" d="M869.9 399.8c.6.4 1.2.8 1.7 1.2.6.4 1.2.8 1.7 1.2v8.8c-.6-.4-1.2-.8-1.7-1.2-.6-.4-1.2-.8-1.7-1.2v-8.8z"/>
                <path id="XMLID_327_" class="st48" d="M864.9 408.3c.6.4 1.2.8 1.7 1.2.6.4 1.2.8 1.7 1.2v8.8c-.6-.4-1.2-.8-1.7-1.2-.6-.4-1.2-.8-1.7-1.2v-8.8z"/>
                <path id="XMLID_326_" class="st48" d="M869.9 411.6c.6.4 1.2.8 1.7 1.2.6.4 1.2.8 1.7 1.2v8.8c-.6-.4-1.2-.8-1.7-1.2-.6-.4-1.2-.8-1.7-1.2v-8.8z"/>
                <path id="XMLID_325_" class="st48" d="M864.9 420.1c.6.4 1.2.8 1.7 1.2.6.4 1.2.8 1.7 1.2v8.8c-.6-.4-1.2-.8-1.7-1.2-.6-.4-1.2-.8-1.7-1.2v-8.8z"/>
                <path id="XMLID_324_" class="st48" d="M869.9 423.5c.6.4 1.2.8 1.7 1.2.6.4 1.2.8 1.7 1.2v8.8c-.6-.4-1.2-.8-1.7-1.2-.6-.4-1.2-.8-1.7-1.2v-8.8z"/>
            </g>
            <g id="XMLID_298_">
                <path id="XMLID_320_" class="st32" d="M865.3 384.9l1.3.9c.6.4 1.2.8 1.7 1.2v8.3l-1.3-.9c-.6-.4-1.2-.8-1.7-1.2v-8.3z"/>
                <path id="XMLID_319_" class="st32" d="M870.4 388.2l1.3.9c.6.4 1.2.8 1.7 1.2v8.3l-1.3-.9c-.6-.4-1.2-.8-1.7-1.2v-8.3z"/>
                <path id="XMLID_318_" class="st32" d="M865.3 396.7l1.3.9c.6.4 1.2.8 1.7 1.2v8.3l-1.3-.9c-.6-.4-1.2-.8-1.7-1.2v-8.3z"/>
                <path id="XMLID_317_" class="st32" d="M870.4 400.1l1.3.9c.6.4 1.2.8 1.7 1.2v8.3l-1.3-.9c-.6-.4-1.2-.8-1.7-1.2v-8.3z"/>
                <path id="XMLID_316_" class="st32" d="M865.3 408.6l1.3.9c.6.4 1.2.8 1.7 1.2v8.3l-1.3-.9c-.6-.4-1.2-.8-1.7-1.2v-8.3z"/>
                <path id="XMLID_309_" class="st32" d="M870.4 411.9l1.3.9c.6.4 1.2.8 1.7 1.2v8.3l-1.3-.9c-.6-.4-1.2-.8-1.7-1.2v-8.3z"/>
                <path id="XMLID_300_" class="st32" d="M865.3 420.4l1.3.9c.6.4 1.2.8 1.7 1.2v8.3l-1.3-.9c-.6-.4-1.2-.8-1.7-1.2v-8.3z"/>
                <path id="XMLID_299_" class="st32" d="M870.4 423.8l1.3.9c.6.4 1.2.8 1.7 1.2v8.3l-1.3-.9c-.6-.4-1.2-.8-1.7-1.2v-8.3z"/>
            </g>
            <g id="XMLID_269_">
                <g id="XMLID_292_">
                    <path id="XMLID_297_" class="st49" d="M884.1 519.1c.8.6 1.7 1.1 2.5 1.7v-13.7c-.9-.6-1.7-1.1-2.5-1.7v13.7z"/>
                    <path id="XMLID_296_" class="st49" d="M887.8 521.6c.8.6 1.7 1.1 2.5 1.7v-13.7c-.9-.6-1.7-1.1-2.5-1.7v13.7z"/>
                    <path id="XMLID_295_" class="st49" d="M891.5 524c.8.6 1.7 1.1 2.5 1.7V512c-.9-.6-1.7-1.1-2.5-1.7V524z"/>
                    <path id="XMLID_294_" class="st49" d="M895.1 526.5c.8.6 1.7 1.1 2.5 1.7v-13.7c-.9-.6-1.7-1.1-2.5-1.7v13.7z"/>
                    <path id="XMLID_293_" class="st49" d="M898.8 528.9c.8.6 1.7 1.1 2.6 1.7v-13.7c-.9-.6-1.7-1.1-2.6-1.7v13.7z"/>
                </g>
                <g id="XMLID_285_">
                    <path id="XMLID_291_" class="st49" d="M884.1 534.4c.8.6 1.7 1.1 2.5 1.7v-13.7c-.9-.6-1.7-1.1-2.5-1.7v13.7z"/>
                    <path id="XMLID_290_" class="st49" d="M887.8 536.9c.8.6 1.7 1.1 2.5 1.7v-13.7c-.9-.6-1.7-1.1-2.5-1.7v13.7z"/>
                    <path id="XMLID_289_" class="st49" d="M891.5 539.3c.8.6 1.7 1.1 2.5 1.7v-13.7c-.9-.6-1.7-1.1-2.5-1.7v13.7z"/>
                    <path id="XMLID_288_" class="st49" d="M895.1 541.8c.8.6 1.7 1.1 2.5 1.7v-13.7c-.9-.6-1.7-1.1-2.5-1.7v13.7z"/>
                    <path id="XMLID_287_" class="st49" d="M898.8 544.2c.8.6 1.7 1.1 2.6 1.7v-13.7c-.9-.6-1.7-1.1-2.6-1.7v13.7z"/>
                </g>
                <g id="XMLID_277_">
                    <path id="XMLID_283_" class="st49" d="M884.1 549.7c.8.6 1.7 1.1 2.5 1.7v-13.7c-.9-.6-1.7-1.1-2.5-1.7v13.7z"/>
                    <path id="XMLID_282_" class="st49" d="M887.8 552.2c.8.6 1.7 1.1 2.5 1.7v-13.7c-.9-.6-1.7-1.1-2.5-1.7v13.7z"/>
                    <path id="XMLID_281_" class="st49" d="M891.5 554.6c.8.6 1.7 1.1 2.5 1.7v-13.7c-.9-.6-1.7-1.1-2.5-1.7v13.7z"/>
                    <path id="XMLID_279_" class="st49" d="M895.1 557.1c.8.6 1.7 1.1 2.5 1.7v-13.7c-.9-.6-1.7-1.1-2.5-1.7v13.7z"/>
                    <path id="XMLID_278_" class="st49" d="M898.8 559.5c.8.6 1.7 1.1 2.6 1.7v-13.7c-.9-.6-1.7-1.1-2.6-1.7v13.7z"/>
                </g>
                <g id="XMLID_270_">
                    <path id="XMLID_275_" class="st49" d="M884.1 565c.8.6 1.7 1.1 2.5 1.7V553c-.9-.6-1.7-1.1-2.5-1.7V565z"/>
                    <path id="XMLID_274_" class="st49" d="M887.8 567.5c.8.6 1.7 1.1 2.5 1.7v-13.7c-.9-.6-1.7-1.1-2.5-1.7v13.7z"/>
                    <path id="XMLID_273_" class="st49" d="M891.5 569.9c.8.6 1.7 1.1 2.5 1.7v-13.7c-.9-.6-1.7-1.1-2.5-1.7v13.7z"/>
                    <path id="XMLID_272_" class="st49" d="M895.1 572.4c.8.6 1.7 1.1 2.5 1.7v-13.7c-.9-.6-1.7-1.1-2.5-1.7v13.7z"/>
                    <path id="XMLID_271_" class="st49" d="M898.8 574.8c.8.6 1.7 1.1 2.6 1.7v-13.7c-.9-.6-1.7-1.1-2.6-1.7v13.7z"/>
                </g>
            </g>
            <g id="XMLID_241_">
                <path id="XMLID_268_" class="st32" d="M886.7 520.4v-13.3l-2.1-1.3V519z"/>
                <path id="XMLID_267_" class="st32" d="M890.3 522.9v-13.3l-2-1.4v13.3z"/>
                <path id="XMLID_266_" class="st32" d="M894 525.3V512l-2-1.3v13.2z"/>
                <path id="XMLID_265_" class="st32" d="M897.7 527.8v-13.3l-2.1-1.4v13.3z"/>
                <path id="XMLID_264_" class="st32" d="M901.4 530.2v-13.3l-2.1-1.3v13.2z"/>
                <path id="XMLID_263_" class="st32" d="M886.7 535.7v-13.3l-2.1-1.3v13.2z"/>
                <path id="XMLID_262_" class="st32" d="M890.3 538.2v-13.3l-2-1.4v13.3z"/>
                <path id="XMLID_261_" class="st32" d="M894 540.6v-13.3l-2-1.3v13.2z"/>
                <path id="XMLID_260_" class="st32" d="M897.7 543.1v-13.3l-2.1-1.4v13.3z"/>
                <path id="XMLID_259_" class="st32" d="M901.4 545.5v-13.2l-2.1-1.4v13.2z"/>
                <path id="XMLID_258_" class="st32" d="M886.7 551v-13.2l-2.1-1.4v13.2z"/>
                <path id="XMLID_257_" class="st32" d="M890.3 553.5v-13.3l-2-1.4v13.3z"/>
                <path id="XMLID_256_" class="st32" d="M894 555.9v-13.2l-2-1.4v13.2z"/>
                <path id="XMLID_255_" class="st32" d="M897.7 558.4v-13.3l-2.1-1.4V557z"/>
                <path id="XMLID_252_" class="st32" d="M901.4 560.8v-13.2l-2.1-1.4v13.2z"/>
                <path id="XMLID_247_" class="st32" d="M886.7 566.3v-13.2l-2.1-1.4v13.2z"/>
                <path id="XMLID_246_" class="st32" d="M890.3 568.8v-13.3l-2-1.4v13.3z"/>
                <path id="XMLID_244_" class="st32" d="M894 571.2V558l-2-1.4v13.2z"/>
                <path id="XMLID_243_" class="st32" d="M897.7 573.7v-13.3l-2.1-1.4v13.3z"/>
                <path id="XMLID_242_" class="st32" d="M901.4 576.1v-13.2l-2.1-1.4v13.2z"/>
            </g>
            <g id="XMLID_225_">
                <g id="XMLID_237_">
                    <path id="XMLID_240_" class="st50" d="M934.1 566.7c1.3-.3 2.6-.7 4-1s2.7-.7 4-1v8.6c-1.3.3-2.7.7-4 1-1.3.3-2.7.7-4 1V571v-4.3z"/>
                    <path id="XMLID_239_" class="st50" d="M944.2 564.1c1.3-.3 2.7-.7 4-1 1.3-.3 2.7-.7 4-1v8.6c-1.3.3-2.7.7-4 1-1.3.3-2.7.7-4 1v-4.3-4.3z"/>
                    <path id="XMLID_238_" class="st50" d="M954.4 561.6c1.3-.3 2.7-.7 4-1 1.3-.3 2.7-.7 4-1v8.6c-1.3.3-2.7.7-4 1-1.3.3-2.7.7-4 1v-4.3-4.3z"/>
                </g>
                <g id="XMLID_230_">
                    <path id="XMLID_236_" class="st50" d="M934.1 577.2c1.3-.3 2.6-.7 4-1s2.7-.7 4-1v8.6c-1.3.3-2.7.7-4 1s-2.7.7-4 1v-4.3-4.3z"/>
                    <path id="XMLID_235_" class="st50" d="M944.2 574.7c1.3-.3 2.7-.7 4-1 1.3-.3 2.7-.7 4-1v8.6c-1.3.3-2.7.7-4 1-1.3.3-2.7.7-4 1V579v-4.3z"/>
                    <path id="XMLID_233_" class="st50" d="M954.4 572.2c1.3-.3 2.7-.7 4-1 1.3-.3 2.7-.7 4-1v8.6c-1.3.3-2.7.7-4 1-1.3.3-2.7.7-4 1v-4.3-4.3z"/>
                </g>
                <g id="XMLID_226_">
                    <path id="XMLID_229_" class="st50" d="M934.1 587.8c1.3-.3 2.6-.7 4-1 1.3-.3 2.7-.7 4-1v8.6c-1.3.3-2.7.7-4 1-1.3.3-2.7.7-4 1v-4.3-4.3z"/>
                    <path id="XMLID_228_" class="st50" d="M944.2 585.3c1.3-.3 2.7-.7 4-1 1.3-.3 2.7-.7 4-1v8.6c-1.3.3-2.7.7-4 1-1.3.3-2.7.7-4 1v-4.3-4.3z"/>
                    <path id="XMLID_227_" class="st50" d="M954.4 582.7c1.3-.3 2.7-.7 4-1 1.3-.3 2.7-.7 4-1v8.6c-1.3.3-2.7.7-4 1-1.3.3-2.7.7-4 1V587v-4.3z"/>
                </g>
            </g>
            <g id="XMLID_204_">
                <path id="XMLID_223_" class="st32" d="M934.1 566.7c1.3-.3 2.6-.7 4-1l3.5-.9v8.3c-1.3.3-2.7.7-4 1l-3.5.9v-4-4.3z"/>
                <path id="XMLID_220_" class="st32" d="M944.2 564.1c1.3-.3 2.7-.7 4-1l3.5-.9v8.3c-1.3.3-2.7.7-4 1l-3.5.9v-4-4.3z"/>
                <path id="XMLID_215_" class="st32" d="M954.4 561.6c1.3-.3 2.7-.7 4-1l3.5-.9v8.3c-1.3.3-2.7.7-4 1l-3.5.9v-4-4.3z"/>
                <path id="XMLID_213_" class="st32" d="M934.1 577.2c1.3-.3 2.6-.7 4-1l3.5-.9v8.3c-1.3.3-2.7.7-4 1l-3.5.9v-4-4.3z"/>
                <path id="XMLID_209_" class="st32" d="M944.2 574.7c1.3-.3 2.7-.7 4-1l3.5-.9v8.3c-1.3.3-2.7.7-4 1l-3.5.9v-4-4.3z"/>
                <path id="XMLID_208_" class="st32" d="M954.4 572.2c1.3-.3 2.7-.7 4-1l3.5-.9v8.3c-1.3.3-2.7.7-4 1l-3.5.9v-4-4.3z"/>
                <path id="XMLID_207_" class="st32" d="M934.1 587.8c1.3-.3 2.6-.7 4-1l3.5-.9v8.3c-1.3.3-2.7.7-4 1l-3.5.9v-4-4.3z"/>
                <path id="XMLID_206_" class="st32" d="M944.2 585.3c1.3-.3 2.7-.7 4-1l3.5-.9v8.3c-1.3.3-2.7.7-4 1l-3.5.9v-4-4.3z"/>
                <path id="XMLID_205_" class="st32" d="M954.4 582.7c1.3-.3 2.7-.7 4-1l3.5-.9v8.3c-1.3.3-2.7.7-4 1l-3.5.9v-4-4.3z"/>
            </g>
            <g id="XMLID_200_">
                <path id="XMLID_203_" class="st51" d="M922.7 561.4c1.2.8 2.4 1.6 3.5 2.4 1.2.8 2.4 1.6 3.5 2.4v8.4c-1.2-.8-2.4-1.6-3.5-2.4-1.2-.8-2.4-1.6-3.5-2.4v-4.2-4.2z"/>
                <path id="XMLID_202_" class="st51" d="M922.7 571.9c1.2.8 2.4 1.6 3.5 2.4 1.2.8 2.4 1.6 3.5 2.4v8.4c-1.2-.8-2.4-1.6-3.5-2.4-1.2-.8-2.4-1.6-3.5-2.4v-4.2-4.2z"/>
                <path id="XMLID_201_" class="st51" d="M922.7 582.3c1.2.8 2.4 1.6 3.5 2.4 1.2.8 2.4 1.6 3.5 2.4v8.4c-1.2-.8-2.4-1.6-3.5-2.4-1.2-.8-2.4-1.6-3.5-2.4v-4.2-4.2z"/>
            </g>
            <g id="XMLID_193_">
                <path id="XMLID_199_" class="st32" d="M923.3 561.8l2.9 2c1.2.8 2.4 1.6 3.5 2.4v7.9l-2.9-2c-1.2-.8-2.4-1.6-3.5-2.4v-7.9z"/>
                <path id="XMLID_196_" class="st32" d="M923.3 572.3l2.9 2c1.2.8 2.4 1.6 3.5 2.4v7.9l-2.9-2c-1.2-.8-2.4-1.6-3.5-2.4v-7.9z"/>
                <path id="XMLID_195_" class="st32" d="M923.3 582.7l2.9 2c1.2.8 2.4 1.6 3.5 2.4v7.9l-2.9-2c-1.2-.8-2.4-1.6-3.5-2.4v-7.9z"/>
            </g>
            <path id="XMLID_190_" class="st32" d="M1147.7 478.2c4.2-1 8.4-2.1 12.5-3.1 4.2-1 8.4-2.1 12.5-3.1v13.4c-4.2 1-8.4 2.1-12.5 3.1-4.2 1-8.4 2.1-12.5 3.1v-6.7-6.7z"/>
            <path id="XMLID_146_" class="st32" d="M1177.7 470.7c4.2-1 8.4-2.1 12.5-3.1 4.2-1 8.4-2.1 12.5-3.1v13.4c-4.2 1-8.4 2.1-12.5 3.1-4.2 1-8.3 2.1-12.5 3.1v-6.7-6.7z"/>
            <path id="XMLID_142_" class="st32" d="M1147.6 493.9c4.2-1 8.4-2.1 12.5-3.1 4.2-1 8.4-2.1 12.5-3.1v13.4c-4.2 1-8.4 2.1-12.5 3.1-4.2 1-8.4 2.1-12.5 3.1v-6.7-6.7z"/>
            <path id="XMLID_141_" class="st32" d="M1177.6 486.5c4.2-1 8.4-2.1 12.5-3.1 4.2-1 8.4-2.1 12.5-3.1v13.4c-4.2 1-8.4 2.1-12.5 3.1-4.2 1-8.4 2.1-12.5 3.1v-6.7-6.7z"/>
            <g id="XMLID_136_">
                <path id="XMLID_138_" class="st32" d="M1122.9 467.6c2.6 1.7 5.2 3.5 7.8 5.2 2.6 1.7 5.2 3.5 7.8 5.2v13.4c-2.6-1.7-5.2-3.5-7.8-5.2-2.6-1.7-5.2-3.5-7.8-5.2v-6.7-6.7z"/>
                <path id="XMLID_137_" class="st32" d="M1122.8 483.2c2.6 1.7 5.2 3.5 7.8 5.2 2.6 1.7 5.2 3.5 7.8 5.2V507c-2.6-1.7-5.2-3.5-7.8-5.2-2.6-1.7-5.2-3.5-7.8-5.2v-6.7-6.7z"/>
            </g>
            <path id="XMLID_135_" class="st52" d="M1129.5 458.2l58-14.5 12.2 8.2 3.4-.8-15.6-10.5-61.4 15.3z"/>
            <path id="XMLID_134_" class="st53" d="M1159 503.6l-11.3 2.8v.9l12.5-3.1 12.5-3.1v-13.4l-1.2.3.1 5.7v6.7z"/>
            <path id="XMLID_133_" class="st53" d="M1177.7 498.9v.9l12.5-3.1 12.5-3.1v-13.4l-1.2.3.1 5.8v6.6l-12.5 3.2z"/>
            <path id="XMLID_132_" class="st53" d="M1177.7 484.1l12.6-3.1 12.5-3.2v-6.6l-.1-6.7-1.1.3v12.4l-12.5 3.1-11.4 2.9z"/>
            <path id="XMLID_123_" class="st53" d="M1172.8 485.3v-6.7l-.1-6.7-1.1.3v12.5l-12.5 3.1-11.4 2.8v1l12.6-3.2z"/>
            <path id="XMLID_122_" class="st54" d="M1124.1 496.4v-12.3l-1.3-.9v13.4l7.8 5.2 7.8 5.2v-1.1l-6.5-4.3z"/>
            <path id="XMLID_115_" class="st54" d="M1122.9 480.9l7.8 5.2 7.8 5.2v-1.1l-6.5-4.3-7.8-5.2v-12.3l-1.3-.8v6.6z"/>
            <path id="XMLID_114_" class="st55" d="M940 551.9l14.1-3.5 6.4 4.2 1.3-.3-7.6-5.1-14.2 3.5-3.7.9-4.3 1.1-1.9.5-4.4 1.1-1.6.4 1.3.9.3-.1 4.4-1.1 1.9-.5 4.3-1z"/>
            <path id="XMLID_113_" class="st56" d="M888.3 497.6l30.1-7.5 15.4 10.2 1.3-.3-16.7-11.2-31.4 7.8z"/>
            <path id="XMLID_112_" class="st57" d="M909.8 325.9l61-15.3 15 10 1.7-.4-16.7-11.1-62.8 15.6z"/>
            <path id="XMLID_108_" class="st58" d="M867 378.7l32.8-8.2 3.3 2.2 2.6 1.7 1 .6 1.3.9 1.1-.2-2.4-1.6-1-.6-2.6-1.8-3.3-2.2-33.9 8.5z"/>
        </g>
        <g id="XMLID_221_">
            <path id="XMLID_234_" class="st4" d="M851.8 308.8h6.5v30c0 2.5-6.6 2.3-6.5 0v-30z"/>
            <path id="XMLID_231_" class="st5" d="M852.3 327.3c1 .1 1.9.2 2.8.3.9-.1 1.8-.2 2.8-.3 49-6.3 11.3-58.6-2.8-60.3-14.1 1.7-51.8 54.1-2.8 60.3z"/>
            <path id="XMLID_224_" class="st6" d="M865.9 273.8c-4-3.8-7.9-6.4-10.8-6.7-10 1.2-31.9 27.9-26.2 45.5 3.7 2.2 8.7 3.9 15.2 4.7 1 .1 1.9.2 2.8.3.9-.1 1.8-.2 2.8-.3 31.5-4 27.1-27.1 16.2-43.5z"/>
        </g>
    </g>
    <g id="XMLID_110_">
        <g id="XMLID_198_" class="st59">
            <g id="XMLID_284_" class="st60">
                <image width="1112" height="456" id="XMLID_286_" xlink:href="ACB4BBA7.png" transform="translate(373.184 96.697)" overflow="visible"/>
            </g>
        </g>
        <g id="XMLID_180_">
            <path id="XMLID_181_" class="st61" d="M916.8 168.6l-.8 14.5c-11.9-7.5-35-10.1-51.6-5.9l.8-14.5c16.6-4.3 39.7-1.6 51.6 5.9z"/>
        </g>
        <g id="XMLID_170_">
            <path id="XMLID_179_" class="st61" d="M912.9 166.4l-.8 14.5-.3-.1-.6-.3c-.2-.1-.4-.2-.7-.3-.5-.2-1.1-.4-1.6-.6l.8-14.5c.5.2 1.1.4 1.6.6l.6.3c.3.1.6.3 1 .4z"/>
            <path id="XMLID_178_" class="st61" d="M906.7 164.1l-.8 14.5c-.2-.1-.4-.1-.6-.2-.5-.1-1-.3-1.5-.4l-.5-.1.8-14.5c.2 0 .3.1.5.1.2.1.5.1.7.2.3.1.5.1.8.2.2.1.4.1.6.2z"/>
            <path id="XMLID_177_" class="st61" d="M901.4 162.7l-.8 14.5c-.3-.1-.5-.1-.8-.2-.3-.1-.5-.1-.8-.2-.2 0-.5-.1-.7-.1l.8-14.5c.2 0 .5.1.7.1.2 0 .5.1.7.2.3 0 .5.1.9.2z"/>
            <path id="XMLID_176_" class="st61" d="M898.7 162.1l-.8 14.5c-.3 0-.5-.1-.8-.1-.2 0-.5-.1-.7-.1-.3 0-.5-.1-.8-.1h-.1l.8-14.5h.1c.2 0 .5.1.7.1.2 0 .5.1.7.1.5 0 .7.1.9.1z"/>
            <path id="XMLID_175_" class="st61" d="M896.1 161.7l-.8 14.5c-.5-.1-1-.2-1.5-.2-.3 0-.5-.1-.8-.1h-.3l.8-14.5h.3c.3 0 .5.1.8.1.3 0 .5.1.8.1l.7.1z"/>
            <path id="XMLID_174_" class="st61" d="M890.5 161l-.8 14.5h-.4c-.3 0-.6 0-.8-.1-.3 0-.6 0-.8-.1h-.8l.8-14.5h.7c.3 0 .6 0 .8.1.3 0 .5 0 .8.1h.5z"/>
            <path id="XMLID_173_" class="st61" d="M887.6 160.8l-.8 14.5h-3.4l.8-14.5H887.6z"/>
            <path id="XMLID_172_" class="st61" d="M884.3 160.7l-.8 14.5H879.7l.8-14.5H884.3z"/>
            <path id="XMLID_171_" class="st61" d="M880.5 160.7l-.8 14.5H877.8c-.6 0-1.1.1-1.7.1-.3 0-.5 0-.8.1h-.6l.8-14.5h.6c.3 0 .5 0 .8-.1h.1c.3 0 .5 0 .8-.1h2.7z"/>
        </g>
        <g id="XMLID_168_">
            <path id="XMLID_169_" class="st61" d="M979.6 208l-.8 14.5-62.8-39.4.8-14.5z"/>
        </g>
        <g id="XMLID_166_">
            <path id="XMLID_167_" class="st61" d="M1808.9 31.8l-.9 14.5-708.1 190.1.8-14.6z"/>
        </g>
        <g id="XMLID_164_">
            <path id="XMLID_165_" class="st61" d="M1100.7 221.8l-.8 14.5c-38.9 9.9-93.2 3.7-121.1-13.9l.8-14.5c27.9 17.7 82.2 23.9 121.1 13.9z"/>
        </g>
        <g id="XMLID_155_">
            <path id="XMLID_163_" class="st61" d="M1100.7 221.8l-.8 14.5c-.6.2-1.2.3-1.8.5-.6.1-1.2.3-1.8.4h-.1c-.6.1-1.2.3-1.8.4h-.1c-.6.1-1.2.3-1.8.4-.6.1-1.2.2-1.9.4-.6.1-1.2.2-1.9.3h-.1c-.6.1-1.3.2-1.9.3h-.1c-.6.1-1.3.2-1.9.3h-.1c-.6.1-1.3.2-1.9.3-.7.1-1.3.2-2 .2-.6.1-1.3.1-1.9.2-.7.1-1.3.1-2 .2h-.1c-.2 0-.4 0-.6.1l.8-14.5.6-.1h.1c.7-.1 1.3-.1 2-.2.6-.1 1.3-.1 1.9-.2.6-.1 1.3-.2 1.9-.2h.1c.6-.1 1.3-.2 1.9-.3h.1c2-.3 3.9-.6 5.8-.9.6-.1 1.3-.2 1.9-.4.6-.1 1.2-.2 1.8-.4h.1c.6-.1 1.2-.3 1.8-.4.6-.1 1.2-.3 1.8-.4.8-.2 1.4-.3 2-.5z"/>
            <path id="XMLID_162_" class="st61" d="M1076.8 225.8l-.8 14.5c-.4 0-.9.1-1.3.1h-.1c-.6.1-1.3.1-1.9.1h-.2c-.6 0-1.3.1-1.9.1h-.1c-.7 0-1.3.1-2 .1h-.1c-.7 0-1.3.1-2 .1s-1.3 0-2 .1h-.3l.8-14.5h.3c.7 0 1.3 0 2-.1 2.7-.1 5.5-.3 8.2-.5.5.1.9 0 1.4 0z"/>
            <path id="XMLID_161_" class="st61" d="M1064.8 226.5l-.8 14.5h-9.1l.8-14.5h9.1z"/>
            <path id="XMLID_160_" class="st61" d="M1041.3 225.7l-.8 14.5c-1.7-.2-3.5-.3-5.2-.5h-.1c-.4-.1-.9-.1-1.3-.2l.8-14.5c1.1.1 2.3.3 3.4.4.7.1 1.4.1 2 .2.4.1.8.1 1.2.1z"/>
            <path id="XMLID_159_" class="st61" d="M1034.6 225.1l-.8 14.5-.6-.1h-.1c-.7-.1-1.3-.2-2-.3-.7-.1-1.3-.2-2-.3h-.1c-.5-.1-1.1-.2-1.6-.2l.8-14.5c.5.1 1.1.2 1.6.2h.1c.6.1 1.3.2 2 .3.7.1 1.3.2 2 .3h.1l.6.1z"/>
            <path id="XMLID_158_" class="st61" d="M1022 223.1l-.8 14.5h-.2c-.7-.1-1.3-.2-1.9-.4-.6-.1-1.3-.3-1.9-.4-.6-.1-1.3-.3-1.9-.4h-.2l.8-14.5h.2c.6.1 1.2.3 1.8.4h.1c.6.1 1.3.3 1.9.4.6.1 1.3.2 1.9.4h.2z"/>
            <path id="XMLID_157_" class="st61" d="M1009.7 220.3l-.8 14.5-1.2-.3c-1.2-.3-2.4-.7-3.6-1-.5-.1-1-.3-1.5-.4l.8-14.5c.5.2 1 .3 1.5.5.6.2 1.2.4 1.8.5h.1c.6.2 1.2.3 1.8.5.3 0 .7.1 1.1.2z"/>
            <path id="XMLID_156_" class="st61" d="M988.9 213l-.8 14.5c-.3-.1-.5-.2-.8-.4-.5-.2-1-.5-1.5-.7-.5-.2-1-.5-1.5-.7-1.5-.8-2.9-1.5-4.2-2.3-.4-.3-.9-.5-1.3-.8l.8-14.5c2.2 1.4 4.5 2.7 7 3.9.7.3 1.5.6 2.3 1z"/>
        </g>
        <g id="XMLID_153_">
            <path id="XMLID_154_" class="st61" d="M865.2 162.7l-.8 14.5L645.3 233l.8-14.5z"/>
        </g>
        <g id="XMLID_151_">
            <path id="XMLID_152_" class="st61" d="M629.9 244.5l.8-14.5c.3-4.7 5.6-9 15.4-11.5l-.8 14.5c-9.8 2.5-15.1 6.8-15.4 11.5z"/>
        </g>
        <g id="XMLID_125_">
            <path id="XMLID_150_" class="st61" d="M646.1 218.5l-.8 14.5-.4.1h-.1l-.4.1-.4.1v.1h-.1l-.3.1h-.2l-.2.1h-.1l.8-14.5.4-.1h.1v-.1h.3v-.1h.1l.4-.1.4-.1h.1l.4-.1z"/>
            <path id="XMLID_149_" class="st61" d="M643.9 219.1l-.8 14.5h-.1l-.3.1-.1.1h-.2l-.1.1h-.1l-.3.1h-.1l-.3.1-.1.1-.3.1h-.1l-.3.1h-.1v.1h-.1l-.2.1h-.1l-.2.1h-.1l-.3.1v.1h-.1l-.2.1h-.1l.8-14.5h.1l.2-.1.1-.1h.2v-.1h.2l.2-.1h.1v-.1H641.4v-.1h.1l.3-.1h.1l.2-.1.1-.1h.1l.3-.1h.1l.3-.1h.1v-.1h.1l.2-.1h.1l.3-.1z"/>
            <path id="XMLID_131_" class="st61" d="M640 220.5l-.8 14.5-.3.1-.3.1-.3.1-.3.1-.3.1-.3.1-.3.1h-.1l.8-14.5h.1l.6-.3.3-.1.3-.1.3-.2.2-.1.4.1z"/>
            <path id="XMLID_130_" class="st61" d="M637.5 221.7l-.8 14.5-.2.1c-.1.1-.2.1-.3.2l-.3.1-.2.1-.2.1-.2.2-.1.1.8-14.5.1-.1.2-.1.2-.1.2-.1.2-.1.3-.1.3-.3z"/>
            <path id="XMLID_129_" class="st61" d="M635.7 222.8l-.8 14.5-.1.1-.2.1-.2.2-.2.1-.2.1-.2.2.8-14.5.2-.2.2-.1.2-.1.2-.1.2-.1.1-.2z"/>
            <path id="XMLID_128_" class="st61" d="M634.3 223.8l-.8 14.5-.2.2-.2.2-.2.2-.2.2-.2.2-.1.1.8-14.5.1-.1.2-.2.2-.2.2-.2.2-.2.2-.2z"/>
            <path id="XMLID_127_" class="st61" d="M632.3 225.9l-.8 14.5-.1.1c0 .1-.1.1-.1.2s-.1.1-.1.2-.1.1-.1.2l-.1.2.8-14.5c0-.1.1-.1.1-.2l.1-.2c0-.1.1-.1.1-.2l.1-.2c0 .1 0 0 .1-.1z"/>
            <path id="XMLID_126_" class="st61" d="M631.1 228.1l-.8 14.5v.1c0 .1 0 .1-.1.2v.8l.8-14.5v-.4-.2-.2c0-.1 0-.1.1-.2v-.1z"/>
        </g>
        <path id="XMLID_124_" class="st61" d="M724.5 356.5L545.6 244.1c-4.3-2.7-7.7-5.5-10.3-8.3-1.3-1.4-2.4-2.9-3.2-4.3-.3-.5-.6-1-.8-1.4-.7-1.4-1.3-2.9-1.6-4.3-.1-.5-.2-1-.3-1.4-.1-.5-.1-1-.1-1.4v-1.4l-.8 14.5c-.4 7.6 4.9 15.6 16.3 22.7L723.7 371c3 1.9 5.1 4 6.1 6 .5 1 .8 2.1.8 3.1v.6l.8-14.5c.2-3.3-2-6.7-6.9-9.7z"/>
        <path id="XMLID_222_" class="st61" d="M796.7 401.8L51.4 609.5l-.8 14.5 745.3-207.6c23-5.9 35.5-16 36.1-27l.8-14.5c-.5 10.9-13 21.1-36.1 26.9z"/>
        <g id="XMLID_120_">
            <path id="XMLID_121_" class="st61" d="M830.8 381.8l-.8 14.5c-.2.3-.4.7-.6 1-.1.2-.2.3-.3.5-.2.3-.5.7-.7 1l.8-14.5.1-.1c.1-.2.2-.3.3-.5.1-.2.2-.3.3-.5.1-.2.2-.3.3-.5.2-.2.4-.6.6-.9z"/>
        </g>
        <g id="XMLID_118_">
            <path id="XMLID_119_" class="st61" d="M51.4 609.5l-.8 14.5L0 592.2l.8-14.5z"/>
        </g>
        <path id="XMLID_117_" class="st62" d="M844.6 123.2c38.9-9.9 93.2-3.7 121.1 13.9l49.7 31.2c19.1 12 56.1 16.2 82.7 9.5L1758.2 0l50.6 31.8-708.1 190c-38.9 9.9-93.2 3.7-121.1-13.9l-62.7-39.4c-11.9-7.5-35-10.1-51.6-5.9l-219.1 55.8c-16.6 4.2-20.4 13.7-8.5 21.2L816.6 352c28 17.6 19.1 39.8-19.9 49.8L51.4 609.5.8 577.7l715.3-200c16.6-4.2 20.4-13.7 8.5-21.2l-179-112.4c-28-17.6-19.1-39.8 19.9-49.8l279.1-71.1z"/>
        <path id="XMLID_232_" class="st63" d="M8.3 578.8l708.5-198.3c10.4-2.6 16.6-7.4 17.5-13.3.4-2.8-.1-8.2-8.2-13.3L547.2 241.5c-10.6-6.7-15.9-14.2-14.8-21.3 1.5-9.4 14.1-18.1 33.8-23.1L845.4 126c11.9-3 25.9-4.6 40.4-4.6 30.6 0 60.6 6.9 78.4 18.1l49.7 31.2c12.9 8.1 34.5 13.1 56.2 13.1 10.3 0 20.3-1.1 28.8-3.3L1757.7 3.2l43.6 27.4L1100 218.9c-11.9 3-25.9 4.6-40.4 4.6-30.6 0-60.6-6.9-78.4-18.1L918.4 166c-8.2-5.2-21.9-8.4-35.7-8.4-6.5 0-12.8.7-18.2 2.1l-219.1 55.8c-10.4 2.6-16.6 7.4-17.5 13.3-.4 2.8.1 8.2 8.2 13.3L815 354.6c10.6 6.7 15.9 14.2 14.8 21.3-1.5 9.4-14.1 18.1-33.8 23.1L52 606.3 8.3 578.8z"/>
    </g>
</svg>
