<svg id="Слой_1" xmlns="http://www.w3.org/2000/svg" xmlns:xlink="http://www.w3.org/1999/xlink" viewBox="0 0 47.9 29.9">
    <style>
        .st0,.st1{enable-background:new}.st1{clip-path:url(#SVGID_1_)}.st2{fill:#7f7930}.st3{fill:#837d32}.st4{fill:#888133}.st5{fill:#8c8535}.st6{fill:#918937}.st7{fill:#958d38}.st8{fill:#99923a}.st9{fill:#9e963c}.st10{fill:#7b742e}.st11{fill:#76702d}.st12{fill:#726c2b}.st13{clip-path:url(#SVGID_3_);enable-background:new}.st14{fill:#afa642}.st15{fill:#aba241}.st16{fill:#b4ab44}.st17{fill:#b8af46}.st18{clip-path:url(#SVGID_5_);enable-background:new}.st19{fill:#bdb348}.st20{clip-path:url(#SVGID_7_);enable-background:new}
    </style>
    <g class="st0">
        <g class="st0">
            <defs>
                <path id="SVGID_8_" class="st0" d="M43.9 15.9v1.6c0 2.9-1.9 5.9-5.8 8.1-7.8 4.5-20.4 4.5-28.2 0C6 23.3 4 20.3 4 17.3v-1.6c0 3 2 6 5.9 8.2 7.8 4.5 20.4 4.5 28.2 0 3.8-2.1 5.8-5.1 5.8-8z"/>
            </defs>
            <clipPath id="SVGID_1_">
                <use xlink:href="#SVGID_8_" overflow="visible"/>
            </clipPath>
            <g class="st1">
                <path class="st2" d="M43.9 15.9v1.8-1.6-.2"/>
                <path class="st3" d="M43.9 16.1v1.6c0 .4-.1.8-.1 1.1v-1.6c0-.4.1-.8.1-1.1"/>
                <path class="st4" d="M43.7 17.2v1.6c-.1.4-.2.8-.3 1.1v-1.6c.2-.3.3-.7.3-1.1"/>
                <path class="st5" d="M43.4 18.3v1.6c-.1.4-.3.8-.5 1.1v-1.6c.2-.3.4-.7.5-1.1"/>
                <path class="st6" d="M42.9 19.5v1.6c-.2.4-.5.8-.8 1.2v-1.6c.3-.4.6-.8.8-1.2"/>
                <path class="st7" d="M42.1 20.6v1.6c-.4.5-.8.9-1.2 1.3v-1.6c.4-.4.8-.8 1.2-1.3"/>
                <path class="st8" d="M40.9 22v1.6c-.7.7-1.6 1.3-2.5 1.9v-1.6c.9-.6 1.7-1.3 2.5-1.9"/>
                <path class="st9" d="M38.3 23.8v1.6c-.1 0-.2.1-.2.1-1.3.8-2.8 1.4-4.4 1.9v-1.6c1.6-.5 3-1.1 4.4-1.9.1 0 .1 0 .2-.1"/>
                <path class="st8" d="M33.7 25.9v1.6c-1.2.4-2.5.7-3.8.9v-1.6c1.3-.2 2.6-.5 3.8-.9"/>
                <path class="st7" d="M29.9 26.9v1.6c-.8.2-1.7.3-2.5.4v-1.6c.9-.2 1.7-.3 2.5-.4"/>
                <path class="st6" d="M27.4 27.2v1.6c-.7.1-1.5.1-2.2.1v-1.6c.7 0 1.5 0 2.2-.1"/>
                <path class="st5" d="M25.2 27.4V29h-2v-1.6h2"/>
                <path class="st4" d="M23.1 27.4V29c-.7 0-1.3-.1-2-.1v-1.6c.7 0 1.4 0 2 .1"/>
                <path class="st3" d="M21.2 27.3v1.6c-.7-.1-1.3-.1-1.9-.2v-1.6c.6 0 1.2.1 1.9.2"/>
                <path class="st2" d="M19.2 27v1.6c-.7-.1-1.3-.2-2-.3v-1.6c.7.1 1.4.2 2 .3"/>
                <path class="st10" d="M17.3 26.7v1.6c-.7-.1-1.4-.3-2.1-.5v-1.6c.7.2 1.4.3 2.1.5"/>
                <path class="st11" d="M15.2 26.2v1.6c-.8-.2-1.6-.5-2.4-.8v-1.6c.7.3 1.6.5 2.4.8"/>
                <path class="st12" d="M12.8 25.4V27c-1-.4-2-.9-2.9-1.4C6 23.3 4 20.3 4 17.3v-1.6c0 3 2 6 5.9 8.2.9.6 1.8 1.1 2.9 1.5"/>
            </g>
        </g>
        <g class="st0">
            <defs>
                <path id="SVGID_6_" class="st0" d="M38 5.9L40.8 4c9.4 5.4 9.4 14.2.1 19.6C31.6 29 16.4 29 7 23.6S-2.4 9.5 7 4.1c9.3-5.4 24.5-5.4 33.9 0L38 5.9c-7.8-4.5-20.4-4.5-28.2 0-7.8 4.5-7.7 11.8.1 16.4 7.8 4.5 20.4 4.5 28.2 0 7.8-4.6 7.7-11.9-.1-16.4z"/>
            </defs>
            <clipPath id="SVGID_3_">
                <use xlink:href="#SVGID_6_" overflow="visible"/>
            </clipPath>
            <g class="st13">
                <path class="st14" d="M38 5.9L40.8 4c3.4 2 5.6 4.4 6.5 6.9l-3.9.7c-.8-2.1-2.6-4.1-5.4-5.7"/>
                <path class="st15" d="M43.4 11.6l3.9-.7c1.7 4.4-.5 9.3-6.4 12.7-7.5 4.4-18.8 5.2-27.8 2.5l1.8-1.8c7.5 2.2 16.9 1.5 23.2-2.1 4.9-2.8 6.7-6.8 5.3-10.6"/>
                <path class="st14" d="M14.9 24.4l-1.8 1.8c-2.2-.6-4.2-1.5-6.1-2.5-1.8-1-3.3-2.2-4.4-3.5l3.6-.8c.9 1 2.1 2 3.7 2.9 1.5.8 3.2 1.5 5 2.1"/>
                <path class="st16" d="M6.2 19.4l-3.6.8C0 17.3-.7 14 .5 10.8l3.9.7c-.9 2.7-.3 5.5 1.8 7.9"/>
                <path class="st17" d="M4.5 11.6l-3.9-.7C1.5 8.4 3.6 6 7 4.1c4.9-2.9 11.5-4.2 18-4l-.2 2.5c-5.4-.1-10.9 1-15 3.4C7 7.5 5.3 9.5 4.5 11.6"/>
                <path class="st16" d="M24.8 2.6L25 0c5.4.1 10.7 1.3 14.9 3.6l-2.7 1.9c-3.5-1.8-7.9-2.8-12.4-2.9"/>
                <path class="st14" d="M37.3 5.5L40 3.6c.3.2.6.3.9.5L38 5.9c-.2-.1-.5-.3-.7-.4"/>
            </g>
        </g>
        <g class="st0">
            <defs>
                <path id="SVGID_4_" class="st0" d="M43.9 12.6v1.6c0 2.9-1.9 5.9-5.8 8.1-7.8 4.5-20.4 4.5-28.2 0C6 20 4 17 4 14v-1.6c0 3 2 6 5.9 8.2 7.8 4.5 20.4 4.5 28.2 0 3.9-2.2 5.8-5.1 5.8-8z"/>
            </defs>
            <clipPath id="SVGID_5_">
                <use xlink:href="#SVGID_4_" overflow="visible"/>
            </clipPath>
            <g class="st18">
                <path class="st2" d="M43.9 12.6v1.8-1.6-.2"/>
                <path class="st3" d="M43.9 12.7v1.6c0 .4-.1.8-.1 1.1v-1.6c0-.3.1-.7.1-1.1"/>
                <path class="st4" d="M43.8 13.9v1.6c-.1.4-.2.8-.3 1.1V15c.1-.4.2-.7.3-1.1"/>
                <path class="st5" d="M43.4 15v1.6c-.1.4-.3.8-.5 1.1v-1.6c.2-.3.4-.7.5-1.1"/>
                <path class="st6" d="M42.9 16.1v1.6c-.2.4-.5.8-.8 1.2v-1.6c.3-.4.6-.8.8-1.2"/>
                <path class="st7" d="M42.1 17.3v1.6c-.4.5-.8.9-1.2 1.3v-1.6c.4-.4.8-.8 1.2-1.3"/>
                <path class="st8" d="M40.9 18.7v1.6c-.7.7-1.6 1.3-2.5 1.9v-1.6c.9-.6 1.7-1.3 2.5-1.9"/>
                <path class="st9" d="M38.3 20.5v1.6c-.1 0-.2.1-.2.1-1.3.8-2.8 1.4-4.4 1.9v-1.6c1.6-.5 3-1.1 4.4-1.9.1 0 .2 0 .2-.1"/>
                <path class="st8" d="M33.7 22.6v1.6c-1.2.4-2.5.7-3.8.9v-1.6c1.4-.2 2.6-.5 3.8-.9"/>
                <path class="st7" d="M30 23.5v1.6c-.8.2-1.7.3-2.5.4v-1.6c.8-.1 1.6-.2 2.5-.4"/>
                <path class="st6" d="M27.4 23.9v1.6c-.7.1-1.5.1-2.2.1V24c.7 0 1.5 0 2.2-.1"/>
                <path class="st5" d="M25.2 24v1.6h-2V24c.6.1 1.3.1 2 0"/>
                <path class="st4" d="M23.2 24v1.6c-.7 0-1.3-.1-2-.1v-1.6c.6.1 1.3.1 2 .1"/>
                <path class="st3" d="M21.2 23.9v1.6c-.7-.1-1.3-.1-1.9-.2v-1.6c.6.1 1.2.2 1.9.2"/>
                <path class="st2" d="M19.2 23.7v1.6c-.7-.1-1.3-.2-2-.3v-1.6c.7.1 1.4.2 2 .3"/>
                <path class="st10" d="M17.3 23.4V25c-.7-.1-1.4-.3-2.1-.5v-1.6c.7.2 1.4.3 2.1.5"/>
                <path class="st11" d="M15.2 22.9v1.6c-.8-.2-1.6-.5-2.4-.8v-1.6c.8.3 1.6.5 2.4.8"/>
                <path class="st12" d="M12.8 22.1v1.6c-1-.4-2-.9-2.9-1.4C6 20 4 17 4 14v-1.6c0 3 2 6 5.9 8.2.9.6 1.9 1.1 2.9 1.5"/>
            </g>
        </g>
        <path class="st19" d="M38 4.3c7.8 4.5 7.9 11.8.1 16.3-7.8 4.5-20.4 4.5-28.2 0C2.1 16.2 2 8.9 9.8 4.3 17.6-.2 30.2-.2 38 4.3z"/>
        <g class="st0">
            <defs>
                <path id="SVGID_2_" class="st0" d="M47.9 13.9v2.2c0 3.5-2.3 7-7 9.7-9.3 5.4-24.5 5.4-33.9 0-4.7-2.7-7-6.3-7-9.8v-2.2c0 3.6 2.3 7.1 7.1 9.9 9.4 5.4 24.5 5.4 33.9 0 4.6-2.7 6.9-6.2 6.9-9.8z"/>
            </defs>
            <clipPath id="SVGID_7_">
                <use xlink:href="#SVGID_2_" overflow="visible"/>
            </clipPath>
            <g class="st20">
                <path class="st2" d="M47.9 13.9V16.3v-2.2-.2"/>
                <path class="st3" d="M47.9 14.1v2.2c0 .5-.1.9-.2 1.4v-2.2c.1-.4.2-.9.2-1.4"/>
                <path class="st4" d="M47.7 15.5v2.2c-.1.5-.2.9-.4 1.3v-2.2c.2-.4.3-.8.4-1.3"/>
                <path class="st5" d="M47.3 16.9v2.2c-.2.5-.4.9-.6 1.4v-2.2c.3-.5.5-1 .6-1.4"/>
                <path class="st6" d="M46.7 18.2v2.2c-.3.5-.6 1-1 1.4v-2.2c.4-.4.7-.9 1-1.4"/>
                <path class="st7" d="M45.7 19.7v2.2c-.4.5-.9 1.1-1.5 1.6v-2.2c.6-.6 1.1-1.1 1.5-1.6"/>
                <path class="st8" d="M44.3 21.3v2.2c-.9.8-1.9 1.5-3 2.2v-2.2c1.1-.7 2.1-1.5 3-2.2"/>
                <path class="st9" d="M41.2 23.5v2.2c-.1.1-.2.1-.3.2-1.6.9-3.4 1.7-5.2 2.3V26c1.9-.6 3.6-1.4 5.2-2.3.1-.1.2-.1.3-.2"/>
                <path class="st8" d="M35.7 26v2.2c-1.5.5-3 .8-4.5 1.1v-2.2c1.5-.3 3-.7 4.5-1.1"/>
                <path class="st7" d="M31.2 27.1v2.2c-1 .2-2 .3-3.1.4v-2.2c1-.1 2-.2 3.1-.4"/>
                <path class="st6" d="M28.1 27.5v2.2c-.9.1-1.8.1-2.7.2v-2.2c.9 0 1.8-.1 2.7-.2"/>
                <path class="st5" d="M25.4 27.7v2.2h-2.5v-2.2h2.5"/>
                <path class="st4" d="M23 27.7v2.2c-.8 0-1.6-.1-2.4-.1v-2.2c.8.1 1.6.1 2.4.1"/>
                <path class="st3" d="M20.6 27.6v2.2c-.8-.1-1.6-.2-2.3-.3v-2.2c.8.1 1.6.2 2.3.3"/>
                <path class="st2" d="M18.3 27.3v2.2c-.8-.1-1.6-.3-2.4-.4v-2.2c.8.2 1.6.3 2.4.4"/>
                <path class="st10" d="M15.9 26.9v2.2c-.8-.2-1.7-.4-2.5-.6v-2.2c.8.2 1.7.4 2.5.6"/>
                <path class="st11" d="M13.4 26.3v2.2c-1-.3-2-.6-2.9-1v-2.2c1 .4 1.9.7 2.9 1"/>
                <path class="st12" d="M10.5 25.3v2.2c-1.2-.5-2.4-1-3.5-1.7-4.7-2.7-7-6.3-7-9.8v-2.2c0 3.6 2.3 7.1 7.1 9.9 1.1.6 2.2 1.1 3.4 1.6"/>
            </g>
        </g>
    </g>
</svg>
