<svg id="Слой_1" xmlns="http://www.w3.org/2000/svg" viewBox="0 0 442.9 464.3">
    <style>
        .st0{fill:#fff}
    </style>
    <path class="st0" d="M295.7 87.8c1.4.8 2.2 1.9 2.2 3.1 0 1.1-.8 2.3-2.2 3.1L18.1 255.3l132.2 76.3L279 256.8c1.4-.8 3.3-1.3 5.3-1.3s3.9.5 5.3 1.3L440 343.6c1.4.8 2.2 1.9 2.2 3.1l.6 113.3c0 2.4-3.3 4.3-7.5 4.3-2.1 0-3.9-.5-5.3-1.3s-2.2-1.9-2.2-3.1l-.6-111.5L284.4 266l-128.7 74.8c-1.4.8-3.3 1.3-5.3 1.3s-3.9-.5-5.3-1.3L2.2 258.3c-1.4-.8-2.2-1.9-2.2-3.1 0-1.1.8-2.3 2.2-3.1L279.8 90.9 135.2 7.4c-2.9-1.7-3-4.4 0-6.1 2.9-1.7 7.7-1.7 10.6 0l149.9 86.5z"/>
</svg>
