<?xml version="1.0" encoding="UTF-8"?><!DOCTYPE svg PUBLIC "-//W3C//DTD SVG 1.1//EN" "http://www.w3.org/Graphics/SVG/1.1/DTD/svg11.dtd"><svg xmlns="http://www.w3.org/2000/svg"><defs>
        <style>
            .cls-1{fill-rule:evenodd;fill:url(#linear-gradient)}
        </style>
        <linearGradient id="linear-gradient" x1="1450.72" y1="1743.815" x2="1513.97" y2="1807.065" gradientUnits="userSpaceOnUse">
            <stop offset="0" stop-color="#de4313"/>
            <stop offset="1" stop-color="#fec163"/>
        </linearGradient>
    
        <style>
            .cls-1{fill-rule:evenodd;fill:url(#linear-gradient)}
        </style>
        <linearGradient id="linear-gradient" x1="1851.25" y1="1807.75" x2="1785.75" y2="1742.25" gradientUnits="userSpaceOnUse">
            <stop offset="0" stop-color="#de4313"/>
            <stop offset="1" stop-color="#fec163"/>
        </linearGradient>
    
        <style>
            .cls-1{fill-rule:evenodd}
        </style>
    
        <style>
            .cls-1{fill:#a1a7be;fill-rule:evenodd}
        </style>
    
        <style>
            .cls-1{fill:#fff;stroke:#fff;stroke-width:.5px;fill-rule:evenodd}
        </style>
    
        <style>
            .cls-1{fill:#a1a7be;fill-rule:evenodd}
        </style>
    
        <style>
            .cls-1{fill:#e83360;fill-rule:evenodd}
        </style>
    
        <style>
            .cls-1{fill-rule:evenodd}
        </style>
    
        <style>
            .cls-1{fill:#a1a7be;fill-rule:evenodd}
        </style>
    
        <style>
            .cls-1{fill-rule:evenodd}
        </style>
    
        <style>
            .cls-1{fill:#e83360;fill-rule:evenodd}
        </style>
    
        <style>
            .cls-1{fill-rule:evenodd;fill:url(#linear-gradient)}
        </style>
        <linearGradient id="linear-gradient" x1="781.094" y1="1746.594" x2="837.906" y2="1803.406" gradientUnits="userSpaceOnUse">
            <stop offset="0" stop-color="#de4313"/>
            <stop offset="1" stop-color="#fec163"/>
        </linearGradient>
    
        <style>
            .cls-1{fill-rule:evenodd;fill:url(#linear-gradient)}
        </style>
        <linearGradient id="linear-gradient" x1="1187.53" y1="1816.13" x2="1105.03" y2="1733.63" gradientUnits="userSpaceOnUse">
            <stop offset="0" stop-color="#de4313"/>
            <stop offset="1" stop-color="#fec163"/>
        </linearGradient>
    
        <style>
            .cls-1{fill:#a1a7be;fill-rule:evenodd}
        </style>
    </defs><symbol id="icon-arrow_up" viewBox="0 0 444.819 444.819">
    <path d="M433.968 278.657L248.387 92.79c-7.419-7.044-16.08-10.566-25.977-10.566-10.088 0-18.652 3.521-25.697 10.566L10.848 278.657C3.615 285.887 0 294.549 0 304.637c0 10.28 3.619 18.843 10.848 25.693l21.411 21.413c6.854 7.23 15.42 10.852 25.697 10.852 10.278 0 18.842-3.621 25.697-10.852L222.41 213.271 361.168 351.74c6.848 7.228 15.413 10.852 25.7 10.852 10.082 0 18.747-3.624 25.975-10.852l21.409-21.412c7.043-7.043 10.567-15.608 10.567-25.693 0-10.09-3.614-18.751-10.851-25.978z"/>
</symbol><symbol id="icon-chel" viewBox="0 0 116.6 145">
    <style>
        .st0{fill:#fe7f2d}.st1{fill:#5c415d}
    </style>
    <path class="st0" d="M111.8 97.7c-10.2-8.2-21.2-15.3-32.9-21.2V55.6c3-2.3 4.7-5.9 4.7-9.7V22.8C83.6 10.2 73.4 0 60.8 0h-5C43.2 0 33 10.2 33 22.8V46c0 3.8 1.7 7.3 4.7 9.7v20.9C26 82.4 15 89.5 4.8 97.7c-3 2.5-4.8 6.2-4.8 10.1v15.9c0 1 .8 1.9 1.9 1.9 1 0 1.9-.8 1.9-1.9v-15.9c0-2.8 1.2-5.5 3.4-7.3 10.1-8.1 21.1-15.1 32.7-20.9 1-.5 1.6-1.5 1.6-2.6V54.6c0-.6-.3-1.2-.8-1.6-2.4-1.6-3.9-4.3-3.8-7.2v-23c0-10.5 8.5-19 19.1-19.1h5c10.5 0 19 8.5 19.1 19.1V46c0 2.9-1.4 5.6-3.8 7.2-.5.3-.8.9-.8 1.6V77c0 1.1.6 2.1 1.6 2.6 11.6 5.8 22.5 12.8 32.7 20.9 2.2 1.8 3.4 4.5 3.4 7.3v15.9c0 1 .9 1.8 1.9 1.8 1 0 1.9-.8 1.9-1.9v-15.9c-.4-3.8-2.2-7.5-5.2-10zm0 0c-10.2-8.2-21.2-15.3-32.9-21.2V55.6c3-2.3 4.7-5.9 4.7-9.7V22.8C83.6 10.2 73.4 0 60.8 0h-5C43.2 0 33 10.2 33 22.8V46c0 3.8 1.7 7.3 4.7 9.7v20.9C26 82.4 15 89.5 4.8 97.7c-3 2.5-4.8 6.2-4.8 10.1v15.9c0 1 .8 1.9 1.9 1.9 1 0 1.9-.8 1.9-1.9v-15.9c0-2.8 1.2-5.5 3.4-7.3 10.1-8.1 21.1-15.1 32.7-20.9 1-.5 1.6-1.5 1.6-2.6V54.6c0-.6-.3-1.2-.8-1.6-2.4-1.6-3.9-4.3-3.8-7.2v-23c0-10.5 8.5-19 19.1-19.1h5c10.5 0 19 8.5 19.1 19.1V46c0 2.9-1.4 5.6-3.8 7.2-.5.3-.8.9-.8 1.6V77c0 1.1.6 2.1 1.6 2.6 11.6 5.8 22.5 12.8 32.7 20.9 2.2 1.8 3.4 4.5 3.4 7.3v15.9c0 1 .9 1.8 1.9 1.8 1 0 1.9-.8 1.9-1.9v-15.9c-.4-3.8-2.2-7.5-5.2-10z"/>
    <path class="st1" d="M67.8 75.8c0-1-.8-1.9-1.9-1.9-1 0-1.9.8-1.9 1.9 0 1.7-.7 3.2-1.9 4.3-.2.1-.4.2-.5.4-2.6 1.9-6.3 1.3-8.1-1.4-.7-1-1.1-2.2-1.1-3.4 0-1-.8-1.9-1.9-1.9-1 0-1.8.8-1.9 1.9 0 2.3.9 4.6 2.4 6.3l-2.3 54.2c0 .6.2 1.1.6 1.5l7.4 6.6c.7.6 1.8.6 2.5 0l7.5-6.8c.4-.4.6-.9.6-1.4L65 82.6c1.8-1.7 2.8-4.2 2.8-6.8zM58 140.6l-5.4-5 2.2-51c1.1.5 2.3.7 3.5.7 1 0 2.1-.2 3-.5l2.3 50.7-5.6 5.1z"/>
</symbol><symbol id="icon-cosmetic_vacancy" viewBox="0 0 63.25 85.12">
    
    <path id="&#x41F;&#x440;&#x44F;&#x43C;&#x43E;&#x443;&#x433;&#x43E;&#x43B;&#x44C;&#x43D;&#x438;&#x43A;_8" data-name="&#x41F;&#x440;&#x44F;&#x43C;&#x43E;&#x443;&#x433;&#x43E;&#x43B;&#x44C;&#x43D;&#x438;&#x43A; 8" class="cls-1" d="M1507.78 1818h-50.16a6.713 6.713 0 0 1-5.16-2.69 7.506 7.506 0 0 1-1.6-6.17 31.769 31.769 0 0 1 17.61-21.85 3.482 3.482 0 0 1-.33-1.21h-10.3a1.318 1.318 0 0 1-1.24-.87c-1.75-4.8-2.9-7.97-2.9-14.15 0-21.41 12.74-38.18 29-38.18 16.7 0 30.28 17.13 30.28 38.18 0 5.5-.89 7.9-2.36 11.87l-.53 1.45a1.316 1.316 0 0 1-1.69.79 1.334 1.334 0 0 1-.79-1.71l.54-1.46c1.46-3.94 2.19-5.92 2.19-10.94 0-19.59-12.4-35.52-27.64-35.52-14.78 0-26.36 15.6-26.36 35.52 0 5.35.86 8.04 2.42 12.36h10.74a1.33 1.33 0 0 1 1 .46 1.346 1.346 0 0 1 .3 1.07 3.915 3.915 0 0 0-.05.59 1.406 1.406 0 0 0 .43 1.1c.11.15.22.31.35.5a1.34 1.34 0 0 1-.6 1.97 29.142 29.142 0 0 0-17.49 20.61 4.872 4.872 0 0 0 1.08 3.92 4.09 4.09 0 0 0 3.1 1.7h50.16a3.105 3.105 0 0 0 2.43-1.27 5.38 5.38 0 0 0 .98-4.35 29.129 29.129 0 0 0-17.48-20.61 1.337 1.337 0 0 1-.29-2.3 3.7 3.7 0 0 0 1.2-2.78 2.624 2.624 0 0 0-1.31-2.66 1.355 1.355 0 0 1-.5-2.11c3.6-4.15 5.66-10.3 5.66-16.87a29.046 29.046 0 0 0-2.02-10.79 18.1 18.1 0 0 1-7.15 1.23c-7.75 0-12.94-3.62-15.48-7.25-3.54 4.11-5.61 10.26-5.61 16.81 0 11.95 6.79 21.66 15.13 21.66a11.115 11.115 0 0 0 5.73-1.62 1.327 1.327 0 0 1 1.34 2.29 13.738 13.738 0 0 1-7.07 1.99c-9.8 0-17.77-10.91-17.77-24.32 0-7.95 2.83-15.4 7.58-19.95a1.322 1.322 0 0 1 2.09.37c1.69 3.4 6.38 7.36 14.06 7.36a16.185 16.185 0 0 0 6.99-1.36l.39-.15a1.328 1.328 0 0 1 1.67.68 31.175 31.175 0 0 1 2.76 13.05 29.276 29.276 0 0 1-5.4 17.49 5.563 5.563 0 0 1 1.55 4.19 6.732 6.732 0 0 1-.92 3.3 31.735 31.735 0 0 1 17.43 21.77 8.06 8.06 0 0 1-1.5 6.6 5.7 5.7 0 0 1-4.49 2.26z" transform="translate(-1450.72 -1732.88)"/>
</symbol><symbol id="icon-credit_vacancy" viewBox="0 0 76.06 65.5">
    
    <path id="&#x41F;&#x440;&#x44F;&#x43C;&#x43E;&#x443;&#x433;&#x43E;&#x43B;&#x44C;&#x43D;&#x438;&#x43A;_9" data-name="&#x41F;&#x440;&#x44F;&#x43C;&#x43E;&#x443;&#x433;&#x43E;&#x43B;&#x44C;&#x43D;&#x438;&#x43A; 9" class="cls-1" d="M1850.67 1807.76h-64.35a5.864 5.864 0 0 1-5.85-5.85v-37.44a1.17 1.17 0 1 1 2.34 0v37.44a3.515 3.515 0 0 0 3.51 3.51h64.35a3.508 3.508 0 0 0 3.51-3.51v-12.87h-30.42a1.171 1.171 0 0 1-.95-.49l-5.85-8.19a1.172 1.172 0 0 1 0-1.36l5.85-8.19a1.171 1.171 0 0 1 .95-.49h30.42v-12.87a3.506 3.506 0 0 0-3.51-3.5l-69.03-.01a1.171 1.171 0 0 1-1.17-1.17v-4.68a5.858 5.858 0 0 1 5.85-5.85h54.99a6.332 6.332 0 0 1 5.85 5.85 1.17 1.17 0 0 1-2.34 0 4.114 4.114 0 0 0-3.51-3.51h-54.99a3.515 3.515 0 0 0-3.51 3.51v3.51l67.86.01a5.849 5.849 0 0 1 5.85 5.84v14.04a1.165 1.165 0 0 1-1.17 1.17h-30.98l-5.02 7.02 5.02 7.02h30.98a1.165 1.165 0 0 1 1.17 1.17v14.04a5.858 5.858 0 0 1-5.85 5.85zm-18.72-23.4a4.68 4.68 0 1 1 4.68-4.68 4.686 4.686 0 0 1-4.68 4.68zm0-7.02a2.34 2.34 0 1 0 2.34 2.34 2.343 2.343 0 0 0-2.34-2.34z" transform="translate(-1780.47 -1742.25)"/>
</symbol><symbol id="icon-eye" viewBox="0 0 35.38 20.03">
    
    <path class="cls-1" d="M34.79 8.35a21.929 21.929 0 0 0-7.43-6.07 21.416 21.416 0 0 0-9.4-2.27h-.55a21.416 21.416 0 0 0-9.4 2.27A21.74 21.74 0 0 0 .58 8.35a2.689 2.689 0 0 0 0 3.33 21.74 21.74 0 0 0 7.43 6.07 21.416 21.416 0 0 0 9.4 2.27h.55a21.416 21.416 0 0 0 9.4-2.27 21.929 21.929 0 0 0 7.43-6.07 2.717 2.717 0 0 0 0-3.33zM8.65 16.47a20.3 20.3 0 0 1-6.94-5.68 1.247 1.247 0 0 1 0-1.55 20.3 20.3 0 0 1 6.94-5.68 21.561 21.561 0 0 1 2.34-.99 9.988 9.988 0 0 0 0 14.89 21.561 21.561 0 0 1-2.34-.99zm9.03 2.11a8.57 8.57 0 1 1 8.59-8.57 8.582 8.582 0 0 1-8.59 8.57zm15.97-7.79a20.3 20.3 0 0 1-6.94 5.68 20.535 20.535 0 0 1-2.33.98 9.976 9.976 0 0 0 0-14.88 20.435 20.435 0 0 1 9.28 6.67 1.261 1.261 0 0 1-.01 1.55zM17.68 6.35a3.665 3.665 0 1 0 3.68 3.66 3.67 3.67 0 0 0-3.68-3.66zm0 5.9a2.235 2.235 0 1 1 2.24-2.24 2.241 2.241 0 0 1-2.24 2.24z"/>
</symbol><symbol id="icon-fb" viewBox="0 0 9.63 18.56">
    
    <path id="fb.svg" class="cls-1" d="M1647.7 4879a23.419 23.419 0 0 0-2.55-.13 3.981 3.981 0 0 0-4.25 4.36v2.43h-2.84v3.3h2.84v8.47h3.42v-8.47h2.83l.44-3.3h-3.27v-2.11a1.359 1.359 0 0 1 1.63-1.6h1.75V4879z" transform="translate(-1638.06 -4878.88)"/>
</symbol><symbol id="icon-footer_arr" viewBox="0 0 18.88 13.41">
    
    <path id="Forma_1" data-name="Forma 1" class="cls-1" d="M1420.68 4881.24a.64.64 0 0 0-.92 0 .658.658 0 0 0 0 .92l4.69 4.69h-15.48a.649.649 0 0 0-.65.65.657.657 0 0 0 .65.66h15.48l-4.69 4.68a.658.658 0 0 0 0 .92.64.64 0 0 0 .92 0l5.81-5.8a.646.646 0 0 0 0-.91z" transform="translate(-1408.06 -4880.81)"/>
</symbol><symbol id="icon-footer_logo" viewBox="0 0 151 100">
    <style>
        .st0{fill:#959fb5}
    </style>
    <path class="st0" d="M150.1 92.7c-.6 1.5-1.5 2.8-2.6 3.9s-2.4 1.9-3.9 2.5c-1.5.6-3.1.9-4.9.9h-7.2c-1.8 0-3.4-.3-4.9-.9-1.5-.6-2.8-1.5-3.9-2.5-1.1-1.1-1.9-2.4-2.6-3.9-.6-1.5-.9-3.1-.9-4.9v-5.6c0-1.8.3-3.4.9-4.9.6-1.5 1.5-2.8 2.6-3.9s2.4-1.9 3.9-2.5c1.5-.6 3.1-.9 4.9-.9h7.2c1.8 0 3.4.3 4.9.9 1.5.6 2.8 1.5 3.9 2.5 1.1 1.1 1.9 2.4 2.6 3.9.6 1.5.9 3.1.9 4.9v5.6c0 1.7-.3 3.4-.9 4.9zm-4.4-10.6c0-1-.2-2-.5-2.9-.3-.9-.8-1.6-1.4-2.2-.6-.6-1.3-1.1-2.2-1.4-.9-.3-1.8-.5-2.8-.5h-7.2c-1 0-2 .2-2.8.5-.9.3-1.6.8-2.2 1.4-.6.6-1.1 1.3-1.4 2.2-.3.9-.5 1.8-.5 2.9v5.6c0 1 .2 2 .5 2.9.3.9.8 1.6 1.4 2.2.6.6 1.3 1.1 2.2 1.4.9.3 1.8.5 2.8.5h7.2c1 0 2-.2 2.8-.5.9-.3 1.6-.8 2.2-1.4.6-.6 1.1-1.3 1.4-2.2.3-.9.5-1.8.5-2.9v-5.6zM86.5 99.4c-.6-.1-1.1-.3-1.7-.5-.6-.2-1.1-.6-1.6-1s-1-.9-1.3-1.4c-.4-.6-.7-1.2-.9-1.9-.2-.7-.3-1.6-.3-2.5V77.7c0-.5.1-1 .2-1.6.1-.6.3-1.1.5-1.7.2-.6.6-1.1 1-1.6s.9-1 1.4-1.3c.6-.4 1.2-.7 1.9-.9.7-.2 1.5-.3 2.5-.3h19.2v5.3H88.1c-.7 0-1.2.2-1.6.6-.4.4-.6.9-.6 1.6v14.4c0 .7.2 1.2.6 1.6.4.4.9.6 1.6.6h19.2v5.3H88.1c-.5-.1-1-.2-1.6-.3zm14.6-52.7C96.2 53 89.9 57.2 82 58.8c-2.1.4-4.3.6-6.4.6h-2.8c-.4 0-.7-.1-.9-.2-.6-.1-1.2-.1-1.7-.2-10.9-2-18.6-7.8-23.5-17.5-1.4-2.8-2.1-5.9-2.4-9-.2-1.6-.2-3.1-.1-4.7.4-4.7 1.5-9.1 4.1-13.1C53.2 7.2 59.9 2.2 68.8.4 70 .2 71.2.1 72.4 0h.4c2 0 4 0 6 .1 2.2 0 4.4.6 6.5 1.2 7.8 2.2 17 9.6 20.1 19.5.6 1.9 1 3.9 1.2 5.9.1 1.6.3 3.2.1 4.8-.4 5.6-2.1 10.7-5.6 15.2zm-2.6-.9c2.6-3.3 4.4-7 5.2-11.1.2-1.2.4-2.4.4-3.8H93.4c-.6 0-.6.1-.7.7-.1.6-.1 1.2-.1 1.9-.2 3.1-.6 6.2-1.6 9.2-.1.2-.1.5-.1.7.1.1.2.1.3.2 2.2.7 4.4 1.5 6.4 2.6.4.1.7-.1.9-.4zm-2.1 2.4c-2-1-4-1.8-6-2.4-.3-.1-.5 0-.6.3-.2.4-.4.9-.6 1.3-1.3 2.9-2.9 5.6-5.2 7.8-.1.1-.1.1-.2.3 5-1.3 9.1-3.7 12.6-7.3zM78 56.5c.3-.1.7-.2 1-.3 1.9-.8 3.3-2.1 4.6-3.6 1.4-1.7 2.4-3.5 3.2-5.5.3-.6.5-1.2.8-1.8-1.4-.7-8.4-1.5-9.6-1.2-.2.8-.2 11.7 0 12.4zm-.9-15.3c3.5.1 6.9.6 10.4 1.3.8.1.9.1 1.1-.7.7-2.9 1.3-5.8 1.4-8.9 0-.6.1-1.3.1-2H60.7c0 .3-.1.6 0 .8.1 3.5.7 7 1.6 10.4.2.6.2.6.9.5 1.3-.2 2.6-.5 3.9-.7 1.6-.2 3.2-.3 4.8-.5.1 0 .3-.1.4-.1 1.7-.1 3.3-.1 4.8-.1zm-6.4 14.3V43.9c-2.5.2-4.9.6-7.4 1.1 0 .2 0 .4.1.5.9 2.3 1.9 4.5 3.4 6.4 1.1 1.4 2.4 2.7 3.9 3.6zm-3.9-.1l-.3-.3c-.8-1-1.7-2-2.5-3.1-1.3-1.8-2.2-3.7-3-5.7-.2-.6-.3-.7-.9-.5-1.8.6-3.5 1.2-5.2 2.1-.1.1-.2.2-.4.3 3.5 3.5 7.5 6 12.3 7.2zm-14.1-9.1c.3-.1.5-.3.7-.3 1.7-.7 3.4-1.4 5.1-2.2l.9-.3c.4-.1.5-.3.4-.7 0-.2-.1-.3-.1-.5-1-3.5-1.6-7.1-1.7-10.8 0-.6-.1-.7-.7-.7H47.2c-.2 0-.3.1-.5.1.3 5.9 2.5 10.9 6 15.4zm-.4-32.7c-2.7 3.5-4.5 7.5-5.2 11.9-.1.9-.2 1.8-.3 2.8H57.6c.4 0 .6-.1.6-.5v-.5c.1-3.6.7-7.1 1.7-10.5.2-.8.2-.8-.6-1.1-2-.6-3.9-1.4-5.7-2.3-.8-.5-.8-.5-1.3.2zm2-2.5c2.2.8 4.2 1.6 6.4 2.5.4-1 .8-1.9 1.2-2.8.4-.9.8-1.8 1.3-2.6s1-1.6 1.6-2.4c.6-.7 1.2-1.4 1.9-2.1C62 5 57.9 7.5 54.3 11.1zm12-3c-1.2 1.7-2.2 3.6-2.9 5.6 0 .1-.1.3-.1.5 2.4.7 4.9 1 7.5 1.2V9.2 3.7c-1.9 1.2-3.3 2.7-4.5 4.4zm6.7 10c-.5 0-.9-.1-1.3-.2-3.1-.1-6.2-.7-9.2-1.4l-.3.6c-1 3.3-1.5 6.8-1.6 10.2 0 .8 0 .9.8.9H75.1c.8 0 1.6 0 2.3-.1h12c.4 0 .6-.2.6-.6-.1-1-.1-1.9-.2-2.9-.3-2.6-.7-5.2-1.5-7.7 0-.1-.1-.2-.2-.4-.3 0-.6 0-.9.1-1.8.3-3.7.7-5.5.9-2.3.3-4.6.6-6.9.5-.5.1-1.1.1-1.8.1zm5.4-15.2c-.2-.1-.3-.1-.5-.2-.2 1-.1 12.1.1 12.8 3.2-.1 6.4-.5 9.5-1.3-.1-.2-.1-.3-.1-.4-1.1-3-2.6-5.6-4.8-7.9-1.2-1.3-2.5-2.3-4.2-3zm5.6.8c.1.1.2.2.2.3 1.4 1.3 2.6 2.9 3.5 4.6.7 1.4 1.3 2.8 2 4.2.1.3.3.5.4.8 1.5-.2 5.7-1.9 6.3-2.5C92.9 7.5 88.8 5 84 3.7zm20.1 23.2c-.5-4.9-2.3-9.3-5.3-13.2-.6-.8-.6-.8-1.5-.4-1.8.9-3.6 1.7-5.6 2.2-.3.1-.5.2-.7.3 0 .1-.1.2 0 .3.1.3.1.6.2.9 1 3.4 1.5 6.9 1.6 10.4 0 .7.1.8.9.8h9.6c.3 0 .5 0 .8-.1v-1.2zM47.4 70.3h18.1v5.3H47.4c-1 0-1.8.3-2.4.9-.6.6-.8 1.4-.8 2.4s.3 1.8.8 2.4c.6.6 1.4.9 2.4.9h12.2c.6 0 1.2.1 1.8.2.6.1 1.3.4 1.9.7.6.3 1.2.7 1.8 1.1.6.5 1.1 1 1.5 1.6.4.6.8 1.4 1.1 2.2.3.8.4 1.8.4 2.8 0 1-.1 2-.4 2.8-.3.8-.6 1.6-1.1 2.2-.4.6-.9 1.2-1.5 1.6-.6.5-1.2.8-1.8 1.1-.6.3-1.3.5-1.9.6-.6.1-1.3.2-1.8.2H39.2V94h20.5c1 0 1.8-.3 2.4-.9.6-.6.8-1.4.8-2.4 0-.5-.1-.9-.2-1.3s-.4-.8-.6-1.1c-.3-.3-.6-.5-1-.7-.4-.2-.8-.2-1.3-.2H47.4c-.9 0-1.8-.2-2.8-.5-1-.3-1.9-.8-2.8-1.5-.8-.4-1.5-1.3-2-2.4-.6-1.1-.8-2.5-.8-4 0-1.6.3-2.9.8-4 .6-1.1 1.3-2 2.1-2.7.9-.7 1.8-1.2 2.8-1.5 1-.4 1.9-.5 2.7-.5zm-40 12h16.8v5.4H7.4v-5.4zM5 99.2c-.9-.3-1.7-.7-2.4-1.3-.7-.6-1.4-1.4-1.9-2.3-.5-.9-.7-2.1-.7-3.5V72.9c0-.4.1-.7.2-1 .1-.3.3-.6.6-.9.2-.2.5-.4.8-.6.3-.1.7-.2 1.1-.2h23.9v5.3H5.3V92c0 .7.2 1.2.6 1.6.4.4.9.6 1.6.6h19.1v5.3H7.4c-.7.1-1.5 0-2.4-.3z"/>
</symbol><symbol id="icon-foote_map" viewBox="0 0 14 21">
    <style>
        .st0{fill:#919bb2}
    </style>
    <path class="st0" d="M10.3 7c0 1.9-1.5 3.4-3.4 3.4S3.4 8.9 3.4 7 5 3.6 6.9 3.6s3.4 1.5 3.4 3.4zm3.4 0c0-3.8-3.1-6.9-6.9-6.9C3.1.1 0 3.2 0 7c0 .8.1 1.7.4 2.4l4.9 10.4c.3.6.9 1 1.5 1s1.3-.4 1.5-1l4.9-10.4c.4-.7.5-1.6.5-2.4z"/>
</symbol><symbol id="icon-fxa" viewBox="0 0 8 7.6">
    <style>
        .st0{fill:#6d7188}
    </style>
    <path class="st0" d="M8 2.9H4.9V0H3.2v2.9H0v1.7h3.2v3h1.7v-3H8z"/>
</symbol><symbol id="icon-fxb" viewBox="0 0 8 7.6">
    <style>
        .st0{fill:#6d7188}
    </style>
    <path class="st0" d="M8 2.9H4.9V0H3.2v2.9H0v1.7h3.2v3h1.7v-3H8z"/>
</symbol><symbol id="icon-fxc" viewBox="0 0 6.8 6.8">
    <style>
        .st0{display:none;fill:none;stroke:#6d7188}.st1{fill:#dde4fb}.st2,.st3{display:none;fill:#6d7188}.st3{fill:none;stroke:#dde4fb}
    </style>
    <circle class="st0" cx="-10.7" cy="-40.3" r="3.4"/>
    <circle class="st1" cx="3.4" cy="3.4" r="3.4"/>
    <path class="st2" d="M-15.2-11.7h1.7v7.6h-1.7z"/>
    <path class="st2" d="M-18.3-8.8h8v1.7h-8z"/>
    <path class="st3" d="M-1.9-26.4L3-21.2l-1.9-3 1.8-1.9-5.2 4.7"/>
</symbol><symbol id="icon-fxd" viewBox="0 0 6.8 6.8">
    <style>
        .st0{display:none;fill:none;stroke:#6d7188}.st1{fill:#dde4fb}.st2,.st3{display:none;fill:#6d7188}.st3{fill:none;stroke:#dde4fb}
    </style>
    <circle class="st0" cx="-10.7" cy="-40.3" r="3.4"/>
    <circle class="st1" cx="3.4" cy="3.4" r="3.4"/>
    <path class="st2" d="M-15.2-11.7h1.7v7.6h-1.7z"/>
    <path class="st2" d="M-18.3-8.8h8v1.7h-8z"/>
    <path class="st3" d="M-1.9-26.4L3-21.2l-1.9-3 1.8-1.9-5.2 4.7"/>
</symbol><symbol id="icon-fxf" viewBox="0 0 8 7.6">
    <style>
        .st0{fill:#6d7188}
    </style>
    <path class="st0" d="M8 2.9H4.9V0H3.2v2.9H0v1.7h3.2v3h1.7v-3H8z"/>
</symbol><symbol id="icon-fxs" viewBox="0 0 8 7.6">
    <style>
        .st0{fill:#6d7188}
    </style>
    <path class="st0" d="M8 2.9H4.9V0H3.2v2.9H0v1.7h3.2v3h1.7v-3H8z"/>
</symbol><symbol id="icon-int" viewBox="0 0 17.16 17.16">
    
    <path id="int.svg" class="cls-1" d="M1731.28 4888.86a2.855 2.855 0 1 1-2.86-2.85 2.872 2.872 0 0 1 2.86 2.85zm1.54 0a4.4 4.4 0 1 0-4.4 4.4 4.392 4.392 0 0 0 4.4-4.4zm1.2-4.57a1.025 1.025 0 1 0-1.02 1.02 1.026 1.026 0 0 0 1.02-1.02zm-5.6-2.46c1.25 0 3.93-.1 5.06.35a2.8 2.8 0 0 1 .98.65 2.645 2.645 0 0 1 .64.98c.45 1.13.35 3.8.35 5.05s.1 3.93-.35 5.05a2.766 2.766 0 0 1-.64.99 2.645 2.645 0 0 1-.98.64c-1.13.45-3.81.35-5.06.35s-3.92.1-5.05-.35a2.645 2.645 0 0 1-.98-.64 2.935 2.935 0 0 1-.65-.99c-.45-1.12-.34-3.8-.34-5.05s-.11-3.92.34-5.05a2.963 2.963 0 0 1 1.63-1.63c1.13-.45 3.8-.35 5.05-.35zm8.57 7.03c0-1.18.01-2.35-.06-3.53a4.734 4.734 0 0 0-4.97-4.98c-1.18-.07-2.36-.06-3.54-.06s-2.35-.01-3.53.06a4.735 4.735 0 0 0-4.98 4.98c-.07 1.18-.05 2.35-.05 3.53s-.02 2.35.05 3.54a4.734 4.734 0 0 0 4.98 4.97c1.18.07 2.35.06 3.53.06s2.36.01 3.54-.06a4.733 4.733 0 0 0 4.97-4.97c.07-1.19.06-2.36.06-3.54z" transform="translate(-1719.84 -4880.28)"/>
</symbol><symbol id="icon-mail" viewBox="0 0 24 18.88">
    
    <path id="mail.svg" class="cls-1" d="M1286.83 4750.57a.44.44 0 0 1-.43.43h-19.72a.44.44 0 0 1-.43-.43v-10.29a7.131 7.131 0 0 0 .93.89c1.91 1.47 3.84 2.97 5.7 4.52 1.01.85 2.25 1.88 3.65 1.88h.02c1.4 0 2.64-1.03 3.65-1.88 1.86-1.55 3.79-3.05 5.71-4.52a7.738 7.738 0 0 0 .92-.89v10.29zm0-14.08a5.216 5.216 0 0 1-1.97 3.31c-1.79 1.41-3.59 2.83-5.37 4.25-.71.57-2 1.81-2.94 1.81h-.02c-.94 0-2.23-1.24-2.94-1.81q-2.67-2.13-5.37-4.25a4.848 4.848 0 0 1-1.97-3.8.44.44 0 0 1 .43-.43h19.72c.51 0 .43.59.43.92zm1.72-.49a2.16 2.16 0 0 0-2.15-2.15h-19.72a2.151 2.151 0 0 0-2.14 2.15v14.57a2.142 2.142 0 0 0 2.14 2.14h19.72a2.151 2.151 0 0 0 2.15-2.14V4736z" transform="translate(-1264.53 -4733.84)"/>
</symbol><symbol id="icon-map" viewBox="0 0 45 45">
    
    <path id="Forma_1" data-name="Forma 1" class="cls-1" d="M1818 559a5.25 5.25 0 1 0-5.25-5.25A5.26 5.26 0 0 0 1818 559zm0-9a3.75 3.75 0 1 1-3.75 3.75A3.753 3.753 0 0 1 1818 550zm-.13 30.567l11.5-16.617c4.32-5.754 3.69-15.21-1.33-20.237a14.383 14.383 0 0 0-20.34 0c-5.03 5.027-5.65 14.484-1.36 20.214zm-9.11-35.794a12.885 12.885 0 0 1 18.22 0c4.53 4.537 5.09 13.078 1.18 18.3l-10.29 14.86-10.31-14.882c-3.9-5.2-3.34-13.741 1.2-18.278zm18.33 26.982a.75.75 0 0 0-.18 1.49c7.89.928 12.09 3.43 12.09 4.88 0 2.035-7.99 4.875-21 4.875s-21-2.84-21-4.875c0-1.45 4.2-3.952 12.09-4.88a.75.75 0 0 0-.18-1.49c-7.89.93-13.41 3.549-13.41 6.37 0 3.168 7.73 6.375 22.5 6.375s22.5-3.207 22.5-6.375c0-2.825-5.52-5.44-13.41-6.37z" transform="translate(-1795.5 -539.5)"/>
</symbol><symbol id="icon-metro_title" viewBox="0 0 428.3 291">
    <style>
        .st0{fill:#fff}
    </style>
    <path class="st0" d="M428.1 39.1l-.6.6c-.2.1-.4.2-.6.1-.1-.1-.2-.2-.2-.5v-.7c-.5.8-1 1.5-1.7 2.2-.7.7-1.4 1.2-2.1 1.7-1 .6-1.9.9-2.7.9-.8 0-1.4-.2-1.9-.8-.4-.5-.7-1.4-.7-2.5v-5.5c0-.2.1-.5.2-.7.2-.2.3-.4.6-.6.2-.1.4-.2.6-.1.2.1.2.2.2.4v5.5c0 1.2.3 2 1 2.2.7.2 1.6 0 2.7-.6.7-.4 1.3-.9 1.9-1.5.6-.6 1-1.2 1.3-1.9.3-.7.5-1.3.5-1.8v-6.2c0-.2.1-.5.2-.7s.3-.4.6-.6c.2-.1.4-.2.6-.1.2.1.2.2.2.4v9.9c.1.4 0 .7-.1.9zM419 10c.7.5 1 1.4 1 2.6 0 1.2-.3 2.5-.9 3.8-.6 1.3-1.5 2.5-2.5 3.7-1.1 1.2-2.3 2.1-3.7 2.9l-10 5.8c-.5.3-.8.3-1.1.2-.3-.1-.4-.4-.4-.9V9.3c0-.5.2-.9.5-1.4.3-.5.7-.8 1.1-1l9.8-5.7c1.8-1.1 3.4-1.4 4.5-1 1.2.4 1.8 1.4 1.8 3.1 0 1.1-.3 2.2-.8 3.3-.5 1.1-1.2 2.1-2.2 3 1.2-.3 2.2-.2 2.9.4zm-3.9-6.5c-.6-.2-1.4-.1-2.4.5l-8.3 4.8v6.4l8.4-4.9c.9-.5 1.7-1.3 2.3-2.2.6-1 .9-1.9.9-2.9.1-.9-.3-1.5-.9-1.7zm.8 8.6c-.8-.2-1.8.1-3 .8l-8.4 4.9V25l8.4-4.9c1.2-.7 2.2-1.6 3-2.7.8-1.1 1.1-2.2 1.1-3.3 0-1.1-.4-1.8-1.1-2zm-16 43.6c-.2.1-.4.2-.6.1-.2-.1-.2-.2-.2-.5v-4.2l-7.4 4.3v4.2c0 .2-.1.5-.2.7-.1.2-.3.4-.6.6-.2.1-.4.2-.6.1-.1-.1-.2-.2-.2-.5v-9.8c0-.2.1-.5.2-.7.1-.2.3-.4.6-.6.2-.1.4-.2.6-.1.1.1.2.2.2.5V54l7.4-4.3v-4.2c0-.2.1-.5.2-.7l.6-.6c.2-.1.4-.2.6-.1.1.1.2.2.2.5v9.8c0 .2-.1.5-.2.7-.1.3-.3.5-.6.6zM390 35.1c-1.7 1.9-3.6 3.5-5.7 4.8-2.1 1.2-4 1.9-5.7 1.9-1.7 0-3-.5-4-1.7s-1.4-2.8-1.4-4.9c0-2.1.5-4.3 1.4-6.6s2.3-4.4 4-6.3c1.7-1.9 3.6-3.5 5.7-4.8 2.1-1.2 4-1.9 5.7-1.9 1.7 0 3 .5 4 1.7 1 1.1 1.5 2.8 1.5 4.9 0 2.1-.5 4.3-1.4 6.5-1.1 2.4-2.4 4.5-4.1 6.4zm1.3-14.8c-.7-.9-1.7-1.3-2.9-1.3s-2.6.4-4.2 1.3c-1.5.9-2.9 2.1-4.1 3.5-1.2 1.4-2.2 3-2.9 4.7-.7 1.7-1.1 3.3-1.1 4.9 0 1.6.4 2.8 1.1 3.6.7.9 1.7 1.3 2.9 1.3s2.6-.4 4.1-1.3c1.5-.9 2.9-2.1 4.2-3.5 1.2-1.4 2.2-3 2.9-4.7.7-1.7 1-3.3 1-4.9 0-1.5-.3-2.7-1-3.6zm-18.1 50.2c0 .2-.1.5-.2.7-.2.2-.3.4-.6.6-.2.1-.4.2-.6.1-.2-.1-.2-.2-.2-.4V66c0-1.2-.3-2-1-2.2-.7-.2-1.6 0-2.7.6-.7.4-1.3.9-1.9 1.5-.6.6-1 1.2-1.3 1.9-.3.7-.5 1.3-.5 1.8v6.2c0 .2-.1.5-.2.7-.1.2-.3.4-.6.6-.2.1-.4.2-.6.1s-.2-.2-.2-.4v-9.9c0-.2.1-.5.2-.7l.6-.6c.2-.1.4-.2.6-.1.1.1.2.2.2.5v.7c.5-.8 1-1.5 1.7-2.2.7-.7 1.4-1.2 2.1-1.7 1-.6 1.9-.9 2.7-.9.8 0 1.4.2 1.9.8.4.5.7 1.4.7 2.5v5.3zM365 50.2c-1.5 1.5-3.1 2.7-4.7 3.6-1.6.9-3 1.5-4.2 1.8-1.3.3-2.2.1-3-.3-.7-.5-1.1-1.3-1.1-2.5 0-1.6.7-3.3 2-5.1 1.3-1.8 3.4-3.9 6.3-6.2 1.7-1.4 3-2.6 3.7-3.7.7-1 1.1-2 1.1-3s-.4-1.5-1.2-1.6c-.8-.1-1.9.2-3.3 1-1.1.7-2.2 1.4-3.1 2.4-.9.9-1.7 1.9-2.3 3-.4.7-.9 1.2-1.4 1.4-.3.2-.5.2-.6.2-.5 0-.8-.2-.8-.7 0-.3.1-.6.3-1 .8-1.5 1.9-3 3.2-4.4 1.3-1.4 2.9-2.6 4.6-3.6 2.3-1.3 4.1-1.9 5.5-1.6 1.4.2 2.1 1.3 2.1 3.3 0 1.4-.6 3-1.7 4.7-1.1 1.7-2.9 3.5-5.2 5.5-2.2 1.8-3.8 3.2-4.6 4.4-.9 1.2-1.3 2.2-1.3 3.2s.4 1.6 1.3 1.6c.8 0 2.1-.5 3.9-1.5 2.9-1.7 4.9-3.6 6.2-5.8.3-.6.7-1 1.2-1.3.3-.2.6-.2.9-.2.4.1.6.4.6.8s-.1.8-.4 1.2c-1.2 1.5-2.4 2.9-4 4.4zm-7.5 19.3c.2-.5.5-.8.9-1 .3-.1.5-.2.6-.1s.2.2.2.5v9.8c0 .3-.1.5-.2.7-.1.2-.3.4-.6.6-.3.1-.4.2-.6.1-.1-.1-.2-.2-.2-.5v-7.9l-4 8c-.2.4-.5.7-.8.9-.3.2-.5.2-.8 0l-3.9-3.3v7.8c0 .3-.1.5-.2.7-.1.2-.3.4-.6.6-.3.1-.5.2-.6.1-.1-.1-.2-.2-.2-.5v-9.8c0-.3.1-.5.2-.7.1-.2.3-.4.6-.6.4-.2.7-.2.9 0l4.6 4 4.7-9.4zm-11.4-7.6c-.5.3-.8.3-1.1.2-.3-.1-.4-.4-.4-.8v-2.4c-.9 1.8-2.1 3.5-3.6 5.1-1.4 1.6-3 2.9-4.8 3.9-2 1.2-3.9 1.8-5.5 1.7-1.6 0-2.9-.6-3.9-1.7-.9-1.1-1.4-2.8-1.4-4.8 0-2.1.5-4.3 1.5-6.5 1-2.3 2.3-4.4 4-6.4 1.7-2 3.6-3.5 5.7-4.8 2.1-1.2 4-1.8 5.7-1.8 1.7 0 3 .5 4 1.7 1 1.1 1.5 2.7 1.5 4.8v9.4c0 .4-.1.9-.4 1.3-.5.5-.9.9-1.3 1.1zm-2.6-13.7c-.7-.9-1.7-1.3-2.9-1.3s-2.6.4-4.1 1.3c-1.5.9-2.9 2.1-4.1 3.5-1.2 1.5-2.2 3-2.9 4.7-.7 1.7-1.1 3.3-1.1 4.9 0 1.6.4 2.8 1.1 3.6.7.9 1.7 1.3 2.9 1.3s2.6-.4 4.1-1.3c1.5-.9 2.9-2 4.1-3.5 1.2-1.4 2.2-3 2.9-4.7.7-1.7 1.1-3.3 1.1-4.9 0-1.5-.4-2.7-1.1-3.6zm-13.6 37.1c.2-.3.3-.5.6-.6.2-.1.3-.1.5-.1s.3.2.3.4-.1.4-.2.6l-3.9 6.7 4.2 2.2c.1.1.2.2.2.4s-.1.4-.3.7c-.2.2-.4.4-.6.5-.2.1-.4.2-.5.1l-4.4-2.3L324 95v4.2c0 .2-.1.5-.2.7l-.6.6c-.2.1-.4.2-.6.1-.1-.1-.2-.2-.2-.5v-9.9c0-.2.1-.5.2-.7.1-.2.3-.4.6-.6.2-.1.4-.2.6-.1.2.1.2.2.2.5v4.2l1.9-1.1 4-7.1zm-12.1-6.9c-.5.3-.8.3-1.1.2-.3-.1-.4-.4-.4-.9v-1.4c-.7 1.4-1.6 2.7-2.6 3.9-1 1.2-2.2 2.1-3.4 2.8-1.7 1-3.1 1.4-4.4 1.3-1.3-.1-2.2-.7-2.8-1.9-.6 1.9-1.5 3.5-2.7 5.1-1.2 1.5-2.5 2.7-4.1 3.6-1.6.9-3 1.4-4.2 1.3-1.2 0-2.2-.5-2.8-1.5-.7-1-1-2.4-1-4.2V75.3c0-.5.1-.9.4-1.4.3-.5.6-.8 1.1-1.1.5-.3.8-.3 1.1-.2.3.1.4.4.4.9V85c0 1.9.5 3.1 1.5 3.6s2.2.4 3.8-.6c1.7-1 3-2.3 4.1-4 1-1.7 1.5-3.5 1.5-5.2V67.2c0-.5.1-.9.4-1.4.3-.5.6-.8 1.1-1.1.5-.3.8-.3 1.1-.2.3.1.4.4.4.9v11.5c0 1.9.5 3.1 1.5 3.6s2.2.4 3.8-.6c1.7-1 3-2.3 4.1-4 1.1-1.7 1.6-3.4 1.6-5.1V59c0-.5.1-.9.4-1.4.3-.5.6-.8 1.1-1.1.5-.3.8-.3 1.1-.2.3.1.4.4.4.9V76c0 .5-.1.9-.4 1.4-.2.4-.6.7-1 1zM286.2 122c-.2.1-.4.2-.6.1s-.2-.2-.2-.5v-.7c-.4.8-.8 1.4-1.4 2.1-.5.6-1.1 1.1-1.8 1.5-.9.5-1.6.7-2.3.7-.7-.1-1.2-.4-1.5-1-.3 1-.8 1.9-1.4 2.7-.6.8-1.3 1.4-2.1 1.9s-1.6.7-2.2.7c-.6 0-1.1-.3-1.5-.8s-.5-1.2-.5-2.2v-6c0-.2.1-.5.2-.7.1-.2.3-.4.6-.6.2-.1.4-.2.6-.1.2.1.2.2.2.5v6c0 1 .3 1.6.8 1.9.5.3 1.2.2 2-.3.9-.5 1.6-1.2 2.1-2.1.5-.9.8-1.8.8-2.7v-6.1c0-.2.1-.5.2-.7.1-.2.3-.4.6-.6s.4-.2.6-.1c.2.1.2.2.2.5v6c0 1 .3 1.6.8 1.9.5.3 1.2.2 2-.3.9-.5 1.6-1.2 2.1-2.1.6-.9.8-1.8.8-2.7V112c0-.2.1-.5.2-.7.1-.2.3-.4.6-.6.2-.1.4-.2.6-.1.2.1.2.2.2.5v9.8c0 .2-.1.5-.2.7-.1.1-.3.3-.5.4zm-11.7-19.7c0 .4-.1.8-.4 1.2-.3.4-.6.7-.9.9-.3.2-.6.3-.8.3-.2 0-.4-.1-.6-.2l-6.6-4.5-6.8 12.6c-.2.5-.6.8-1.1 1.1-.4.2-.8.3-1 .2-.3-.1-.4-.4-.4-.7 0-.4.1-.9.4-1.3l6.9-12.7-6.6-4.5c-.3-.1-.4-.4-.4-.8s.1-.8.4-1.2c.2-.4.6-.7 1-1 .5-.3.8-.3 1.2-.2l6.4 4.5 6.4-11.7c.4-.7.8-1.2 1.3-1.5.4-.2.8-.3 1-.2.3.1.4.4.4.7 0 .4-.1.9-.4 1.4l-6.6 12.1 6.8 4.8c.3.1.4.4.4.7zm-21.6 39.1c-.2.1-.4.2-.6.1-.2-.1-.2-.2-.2-.5v-4.2l-7.4 4.3v4.2c0 .2-.1.5-.2.7-.1.2-.3.4-.6.6-.2.1-.4.2-.6.1-.1-.1-.2-.2-.2-.5v-9.8c0-.2.1-.5.2-.7.1-.2.3-.4.6-.6.2-.1.4-.2.6-.1.1.1.2.2.2.5v4.2l7.4-4.3v-4.2c0-.2.1-.5.2-.7.2-.2.3-.4.6-.6.2-.1.4-.2.6-.1.1.1.2.2.2.5v9.8c0 .2-.1.5-.2.7-.1.3-.3.5-.6.6zm-2.6-23.7c-.5.3-.8.3-1.1.2-.3-.1-.4-.4-.4-.9V98.3c0-.5.1-.9.4-1.4s.6-.8 1.1-1.1c.5-.3.8-.3 1.1-.2.3.1.4.4.4.9v18.8c0 .5-.1.9-.4 1.4-.3.4-.6.8-1.1 1zm-9 4.7c-1.3 1.4-2.7 2.5-4.3 3.5-1.7 1-3.2 1.5-4.6 1.6-1.3.1-2.4-.3-3.1-1.1-.8-.8-1.1-2-1.1-3.6v-12.6c0-.5.2-.9.5-1.4.3-.5.7-.8 1.1-1 .5-.3.8-.3 1.1-.2.3.1.4.4.4.9v5.7l5.9-3.4c2.4-1.4 4.4-1.9 5.9-1.4s2.3 1.8 2.3 4.1c0 1.5-.4 3.1-1.1 4.6-.8 1.5-1.8 3-3 4.3zm-.4-9.9c-.9-.3-2.2.1-3.8 1l-5.9 3.4v4.2c0 1.5.5 2.5 1.6 2.9 1.1.4 2.5.1 4.1-.9 1.6-.9 2.9-2.1 3.9-3.5s1.5-2.9 1.5-4.4c0-1.6-.5-2.5-1.4-2.7zm-7.3 29.5c.6.2.9.7.9 1.6 0 .6-.1 1.2-.4 1.7-.3.6-.6 1.1-1.1 1.6.6-.1 1.1 0 1.5.2s.5.7.5 1.4c0 .6-.2 1.3-.5 2s-.8 1.3-1.3 1.9c-.6.6-1.2 1.1-1.9 1.5l-5.2 3c-.2.1-.4.2-.6.1-.2-.1-.2-.2-.2-.5v-9.9c0-.2.1-.5.3-.7.2-.2.3-.4.6-.6l5.1-3c.9-.3 1.7-.5 2.3-.3zm-6.7 13.1l4.4-2.6c.6-.4 1.2-.8 1.6-1.4.4-.6.6-1.1.6-1.7 0-.6-.2-1-.6-1.1-.4-.1-.9 0-1.6.4l-4.4 2.6v3.8zm0-5.2l4.4-2.6c.5-.3.9-.7 1.2-1.2.3-.5.5-1 .5-1.5s-.2-.8-.5-.9c-.3-.1-.7 0-1.2.3l-4.3 2.5v3.4zm-7.1-14.4c-.5.3-.8.3-1.1.2-.3-.1-.4-.4-.4-.8v-11.5c0-1.9-.5-3.1-1.5-3.6s-2.2-.4-3.8.6c-1.7 1-3 2.3-4.1 4.1-1 1.7-1.5 3.5-1.5 5.3v11.6c0 .5-.1.9-.4 1.3-.3.4-.6.8-1.1 1.1-.5.3-.8.3-1.1.2-.3-.1-.4-.4-.4-.8v-11.5c0-1.9-.5-3.1-1.5-3.6s-2.2-.4-3.8.6c-1.7 1-3 2.3-4.1 4-1.1 1.7-1.6 3.4-1.6 5.1v11.8c0 .5-.1.9-.4 1.3-.3.4-.6.8-1.1 1.1-.5.3-.8.3-1.1.2-.3-.1-.4-.4-.4-.8v-18.8c0-.5.1-.9.4-1.4.3-.5.7-.8 1.1-1.1.5-.3.8-.3 1.1-.2.3.1.4.4.4.9v.9c.7-1.3 1.6-2.5 2.7-3.5 1-1.1 2.1-1.9 3.3-2.6 1.5-.9 2.8-1.3 4-1.3 1.2 0 2.1.4 2.8 1.2.8-1.7 1.8-3.2 3-4.6 1.2-1.4 2.6-2.5 4.2-3.4 1.6-.9 3-1.4 4.2-1.3 1.2 0 2.2.5 2.8 1.5.7 1 1 2.4 1 4.2v11.5c0 .5-.1.9-.4 1.3-.4.2-.8.6-1.2.8zM192.5 167c.4-.9.9-1.7 1.6-2.4s1.4-1.3 2.2-1.8c.8-.5 1.6-.7 2.2-.7.6 0 1.1.3 1.5.8s.5 1.2.5 2.2v6c0 .2-.1.5-.2.7-.1.2-.3.4-.6.6-.2.1-.4.2-.6.1-.2-.1-.2-.2-.2-.4v-6c0-1-.3-1.6-.8-1.9-.5-.3-1.2-.2-2 .3-.9.5-1.6 1.2-2.1 2.1-.5.9-.8 1.8-.8 2.8v6c0 .2-.1.5-.2.7-.1.2-.3.4-.6.6-.2.1-.4.2-.6.1-.2-.1-.2-.2-.2-.4v-6c0-1-.3-1.6-.8-1.9-.5-.3-1.2-.2-2 .3-.9.5-1.6 1.2-2.1 2.1-.6.9-.8 1.8-.8 2.7v6.2c0 .2-.1.5-.2.7-.1.2-.3.4-.6.6-.2.1-.4.2-.6.1-.2-.1-.2-.2-.2-.4v-9.9c0-.2.1-.5.2-.7.2-.2.3-.4.6-.6.2-.1.4-.2.6-.1.1.1.2.2.2.5v.5c.4-.7.9-1.3 1.4-1.9.5-.6 1.1-1 1.8-1.4.8-.4 1.5-.7 2.1-.7.5-.2 1 .1 1.3.5zm-9.8-25.9c-.4.2-.8.3-1.2.1-.8-.4-1.7-.6-2.6-.4-1 .1-2 .5-3.2 1.2-1.5.9-2.8 2-3.9 3.3-1.1 1.4-2 2.9-2.7 4.5-.6 1.6-.9 3.3-.9 4.9 0 1.6.3 2.8 1 3.7.7.9 1.6 1.3 2.8 1.3 1.2 0 2.6-.4 4.1-1.3 2.1-1.2 3.9-2.8 5.2-4.7.3-.5.7-.9 1.1-1.1.3-.2.6-.3.9-.2.4.1.6.4.6.8 0 .3-.1.7-.4 1.1-1.9 2.9-4.3 5.2-7.3 6.9-2.1 1.2-3.9 1.8-5.6 1.8-1.7 0-3-.6-3.9-1.7-.9-1.1-1.4-2.8-1.4-4.8 0-2.1.5-4.3 1.4-6.5.9-2.2 2.2-4.3 3.8-6.2 1.6-1.9 3.4-3.4 5.4-4.6 3.3-1.9 6-2.2 8.1-.9.2.1.3.3.3.7 0 .4-.2.9-.7 1.5l-.9.6zm-16.8 33.8c.3-.2.5-.1.6.1 0 .1.1.2.1.3 0 .3-.2.6-.5 1l-3.3 3.3c-1.6 1.6-2.8 3.1-3.7 4.7-.8 1.6-1.3 3.1-1.4 4.6.4-1.1 1-2.1 1.8-3.1s1.7-1.8 2.8-2.4c1-.6 2-.9 2.8-.9.8 0 1.5.3 1.9.8.5.6.7 1.4.7 2.4 0 1.1-.2 2.2-.7 3.3-.5 1.1-1.1 2.2-2 3.1-.8 1-1.8 1.8-2.9 2.4-1.1.6-2.1 1-2.9 1-.9 0-1.5-.3-2-.9-.5-.6-.7-1.5-.7-2.6v-1.7c0-1.9.5-3.9 1.5-6 1-2 2.5-4 4.5-6l3.1-3c.1-.2.2-.3.3-.4zm-7.4 18.2c.3.4.8.6 1.4.6s1.3-.3 2.1-.7c.8-.4 1.5-1 2.1-1.7.6-.7 1.1-1.5 1.4-2.3.3-.8.5-1.6.5-2.4 0-.8-.2-1.4-.5-1.8-.3-.4-.8-.6-1.4-.6-.6 0-1.3.3-2.1.7-.8.5-1.5 1-2.1 1.7-.6.7-1.1 1.5-1.4 2.3-.3.8-.5 1.6-.5 2.4 0 .8.2 1.4.5 1.8zM155 172c-1.7 1.9-3.6 3.5-5.7 4.8-2.1 1.2-4 1.9-5.7 1.9-1.7 0-3-.5-4-1.7-1-1.1-1.4-2.8-1.4-4.9 0-2.1.5-4.3 1.4-6.6 1-2.3 2.3-4.4 4-6.3 1.7-1.9 3.6-3.5 5.7-4.8 2.1-1.2 4-1.9 5.7-1.9 1.7 0 3 .5 4 1.7 1 1.1 1.5 2.8 1.5 4.9 0 2.1-.5 4.3-1.4 6.5-1.1 2.4-2.4 4.5-4.1 6.4zm1.3-14.7c-.7-.9-1.7-1.3-2.9-1.3s-2.6.4-4.2 1.3c-1.5.9-2.9 2.1-4.1 3.5-1.2 1.4-2.2 3-2.9 4.7-.7 1.7-1.1 3.3-1.1 4.9 0 1.6.4 2.8 1.1 3.6.7.9 1.7 1.3 2.9 1.3s2.6-.4 4.1-1.3c1.5-.9 2.9-2.1 4.2-3.5 1.2-1.4 2.2-3 2.9-4.7.7-1.7 1-3.3 1-4.9 0-1.5-.3-2.7-1-3.6zm-16.7 41.4c.5.6.8 1.4.8 2.5s-.2 2.2-.7 3.4c-.5 1.2-1.2 2.3-2 3.3-.9 1-1.8 1.8-2.9 2.4-.9.5-1.7.8-2.5.9-.8.1-1.4-.1-1.9-.5v6.2c0 .2-.1.5-.2.7l-.6.6c-.2.1-.4.2-.6.1-.1-.1-.2-.2-.2-.5v-4.7V208c0-1.1.3-2.2.8-3.4.5-1.2 1.2-2.3 2.1-3.3.9-1 1.9-1.9 3-2.5 1.1-.6 2.1-1 3-1 .7 0 1.4.3 1.9.9zm-1.3 1.5c-.4-.4-.9-.7-1.5-.7-.7 0-1.4.2-2.2.7-.8.5-1.5 1.1-2.2 1.8-.6.8-1.2 1.6-1.5 2.5s-.6 1.7-.6 2.6v.6c.1 1 .6 1.6 1.4 1.9.8.2 1.7 0 2.8-.6.8-.5 1.5-1.1 2.2-1.8s1.2-1.6 1.5-2.5c.4-.9.6-1.7.6-2.6 0-.8-.2-1.4-.5-1.9zM128 187.8c-1.6 1.9-3.5 3.5-5.5 4.7-1.7 1-3.3 1.6-4.8 1.7-1.4.1-2.6-.2-3.6-.9V205c0 .5-.1.9-.4 1.4-.3.5-.7.8-1.1 1.1-.5.3-.8.3-1.1.2-.3-.1-.4-.4-.4-.9v-9-9.8c0-2.1.5-4.3 1.5-6.5 1-2.3 2.3-4.4 4-6.4 1.7-2 3.6-3.5 5.7-4.8 2.1-1.2 4-1.8 5.7-1.8 1.7 0 3 .6 4 1.7s1.5 2.7 1.5 4.8-.5 4.2-1.4 6.5c-1.2 2.2-2.5 4.3-4.1 6.3zm1.2-14.7c-.7-.9-1.7-1.3-2.9-1.3s-2.6.4-4.1 1.3c-1.5.9-2.9 2.1-4.1 3.5-1.2 1.4-2.2 3-2.9 4.7-.7 1.7-1.1 3.3-1.1 4.9v1.2c.3 1.9 1.1 3.1 2.6 3.6s3.3.1 5.4-1.1c1.5-.9 2.9-2 4.1-3.5 1.2-1.4 2.2-3 2.9-4.7.7-1.7 1.1-3.3 1.1-4.9.1-1.6-.3-2.8-1-3.7zm-14.8 37.4c1.1-.6 2.1-1 3-1 .9 0 1.6.3 2.1.9.5.6.8 1.4.8 2.5v4.9c0 .2-.1.5-.2.7l-.6.6c-.2.1-.4.2-.6.1-.2-.1-.2-.2-.2-.4v-1.3c-.5 1-1.1 1.8-1.9 2.7-.8.8-1.6 1.5-2.5 2-1.1.6-2 .9-2.9.9-.9 0-1.5-.3-2-.9-.5-.6-.7-1.4-.7-2.5s.3-2.2.8-3.4c.5-1.2 1.2-2.3 2.1-3.3.7-1 1.7-1.8 2.8-2.5zm-4.2 8.4c0 .8.2 1.5.6 1.9.4.4.9.7 1.5.7.7 0 1.4-.2 2.2-.7.8-.5 1.5-1.1 2.2-1.8.6-.8 1.2-1.6 1.5-2.5.4-.9.6-1.7.6-2.6 0-.8-.2-1.5-.6-1.9-.4-.4-.9-.7-1.5-.7s-1.4.2-2.2.7c-.8.5-1.5 1.1-2.2 1.8-.7.8-1.2 1.6-1.5 2.5s-.6 1.7-.6 2.6zm-4 8.1c-.3.2-.5.2-.7 0l-3.9-6.4-3.9 10.9c-.1.2-.1.3-.3.5-.1.2-.3.3-.4.4-.1.1-.2.1-.4.1-.3 0-.5-.1-.5-.4 0-.1 0-.2.1-.4l4.6-12.6c.2-.5.4-.8.8-1 .4-.2.6-.2.8.1l4.6 7.3c.1.1.1.2.1.3 0 .3-.2.6-.5.9-.2.1-.3.2-.4.3zm-3.5-23.3c-.5.3-.8.3-1.1.2-.3-.1-.4-.4-.4-.8v-10.4c0-2.4-.7-3.8-2-4.3s-3-.1-5.2 1.2c-1.3.8-2.5 1.7-3.5 2.8-1.1 1.1-1.9 2.3-2.5 3.6-.6 1.3-.9 2.4-.9 3.5v11.8c0 .5-.1.9-.4 1.3-.3.4-.6.8-1.1 1.1-.5.3-.8.3-1.1.2-.3-.1-.4-.4-.4-.8v-18.8c0-.5.1-.9.4-1.4.3-.5.7-.8 1.1-1.1.5-.3.8-.3 1.1-.2.3.1.4.4.4.9v1.4c.9-1.5 1.9-2.9 3.2-4.2 1.3-1.3 2.6-2.4 4.1-3.2 1.9-1.1 3.6-1.7 5.1-1.8 1.5-.1 2.7.4 3.5 1.4.9 1 1.3 2.6 1.3 4.8v10.4c0 .4-.1.9-.4 1.3-.4.5-.8.9-1.2 1.1zm-14 21.8c1.1-.6 2.1-1 3-1 .9 0 1.6.3 2.1.9.5.6.8 1.4.8 2.5v4.9c0 .2-.1.5-.2.7s-.3.4-.6.6c-.2.1-.4.2-.6.1-.2-.1-.2-.2-.2-.4v-1.3c-.5 1-1.1 1.8-1.9 2.7-.8.8-1.6 1.5-2.5 2-1.1.6-2 .9-2.9.9s-1.5-.3-2-.9-.7-1.4-.7-2.5.3-2.2.8-3.4c.5-1.2 1.2-2.3 2.1-3.3.7-1 1.7-1.9 2.8-2.5zm-4.3 8.4c0 .8.2 1.5.6 1.9.4.4.9.7 1.5.7.7 0 1.4-.2 2.2-.7.8-.5 1.5-1.1 2.2-1.8.6-.8 1.2-1.6 1.5-2.5.4-.9.6-1.7.6-2.6 0-.8-.2-1.5-.6-1.9-.4-.4-.9-.7-1.5-.7s-1.4.2-2.2.7c-.8.5-1.5 1.1-2.2 1.8-.7.8-1.2 1.6-1.5 2.5-.4.9-.6 1.7-.6 2.6zm-5.1 8.7c-.2.1-.4.2-.6.1-.2-.1-.2-.2-.2-.5v-3.9c-.4.6-.8 1.2-1.4 1.7-.5.5-1.1 1-1.8 1.4-1.5.9-2.7 1.1-3.5.6-.8-.4-1.2-1.5-1.2-3v-2c0-.2.1-.5.2-.7.2-.2.3-.4.6-.6.2-.1.4-.2.6-.1.1.1.2.2.2.5v2c0 1.1.3 1.9.8 2.2.5.3 1.4.2 2.4-.5.9-.5 1.6-1.1 2.1-1.7.6-.6.8-1.2.8-1.7v-3.9c0-.2.1-.5.2-.7l.6-.6c.2-.1.4-.2.6-.1.1.1.2.2.2.5v9.8c0 .2-.1.5-.2.7 0 .1-.1.3-.4.5zM68 249.1c-.2.1-.4.2-.6.1-.2-.1-.2-.2-.2-.4v-1.3c-.5 1-1.1 1.8-1.9 2.7-.8.8-1.6 1.5-2.5 2-1.1.6-2 .9-2.9.9-.9 0-1.5-.3-2-.9-.5-.6-.7-1.4-.7-2.5s.3-2.2.8-3.4c.5-1.2 1.2-2.3 2.1-3.3.9-1 1.9-1.9 3-2.5 1.1-.6 2.1-1 3-1 .9 0 1.6.3 2.1.9.5.6.8 1.4.8 2.5v4.9c0 .2-.1.5-.2.7s-.5.5-.8.6zm-1.3-7.1c-.4-.4-.9-.7-1.5-.7s-1.4.2-2.2.7c-.8.5-1.5 1.1-2.2 1.8-.7.8-1.2 1.6-1.5 2.5-.4.9-.6 1.7-.6 2.6 0 .8.2 1.5.6 1.9.4.4.9.7 1.5.7.7 0 1.4-.2 2.2-.7.8-.5 1.5-1.1 2.2-1.8.6-.8 1.2-1.6 1.5-2.5s.6-1.7.6-2.6-.2-1.5-.6-1.9zm-25.8-8.3l-13.8 8 16.1-55.4c.7-2.7 1.6-5.2 2.7-7.5L17 195.6l-.6-11.2 38.1-22.2c2.3-1.4 4-1.6 5.1-.8 1.1.8 1.2 2.5.5 5l-19.2 67.3zm-22.2 32.7c.4-.2.6-.2.8.1l4.6 7.3c.1.1.1.2.1.3 0 .3-.2.6-.5.9-.1.1-.2.2-.4.3-.3.2-.5.2-.7 0l-3.9-6.4-3.9 10.9c-.1.2-.1.3-.3.5-.1.2-.3.3-.4.4-.1.1-.2.1-.4.1-.3 0-.5-.1-.5-.4 0-.1 0-.2.1-.4l4.6-12.6c.2-.5.5-.8.8-1zm-9.8 21c-.9 1-1.9 1.9-3 2.5-1.1.6-2 1-2.9 1.1-.8.1-1.5-.1-2.1-.5-.1-.1-.2-.2-.2-.4s.1-.4.3-.7c.1-.2.3-.3.5-.4.1-.1.3-.1.4-.1.1 0 .2 0 .3.1.4.3 1 .4 1.6.3.6-.1 1.4-.4 2.2-.8.8-.5 1.5-1.1 2.1-1.8s1.1-1.6 1.5-2.5c.4-.9.5-1.8.5-2.7v-.9c-.4 1-1 2-1.8 2.9-.8.9-1.6 1.6-2.6 2.2-1.1.6-2.1 1-2.9 1s-1.5-.3-2-.9c-.6-.8-.8-1.6-.8-2.7s.3-2.3.8-3.5c.5-1.2 1.2-2.3 2.1-3.3.9-1 1.9-1.8 3-2.5s2.1-1 3-1c.9 0 1.6.3 2.1.9.5.6.8 1.5.8 2.6v4.3c0 1.1-.2 2.3-.7 3.5-.7 1.1-1.4 2.2-2.2 3.3zm.6-12.2c-.4-.5-.9-.7-1.5-.7s-1.4.2-2.2.7c-.8.5-1.6 1.1-2.2 1.9-.6.8-1.1 1.6-1.5 2.4-.4.9-.5 1.7-.5 2.6s.2 1.5.5 1.9.9.7 1.5.7 1.4-.2 2.2-.7c.8-.5 1.5-1.1 2.2-1.8s1.1-1.6 1.5-2.4c.4-.9.5-1.7.5-2.6s-.1-1.5-.5-2zm19-7.4c-.7.2-1.3.1-1.7-.2-.4-.3-.6-.9-.6-1.7 0-.7.2-1.5.5-2.2s.8-1.5 1.4-2.2 1.3-1.3 2.1-1.7l3.7-2.2c.2-.1.4-.2.6-.1.2.1.2.2.2.5v9.9c0 .2-.1.5-.2.7-.1.2-.3.4-.6.6-.2.1-.4.2-.6.1-.1-.1-.2-.2-.2-.5v-3.2l-2.9 1.7-3 5.4c-.2.3-.4.5-.6.7-.2.1-.4.2-.6.1-.2-.1-.2-.2-.2-.4s.1-.4.2-.6l2.5-4.7zm1.7-1.9l3-1.7v-4.6l-3 1.7c-.7.4-1.3 1-1.8 1.7s-.7 1.4-.7 2.1c0 .7.2 1.2.7 1.3.5 0 1-.1 1.8-.5zm14.4-14.6c.2-.1.4-.2.6-.1.1.1.2.2.2.5v4.2l7.4-4.3v-4.2c0-.2.1-.5.2-.7.2-.2.3-.4.6-.6.2-.1.4-.2.6-.1.1.1.2.2.2.5v9.8c0 .2-.1.5-.2.7-.1.2-.3.4-.6.6-.2.1-.4.2-.6.1-.2-.1-.2-.2-.2-.5V253l-7.4 4.3v4.2c0 .2-.1.5-.2.7s-.3.4-.6.6c-.2.1-.4.2-.6.1-.1-.1-.2-.2-.2-.5v-9.8c0-.2.1-.5.2-.7.2-.3.4-.5.6-.6zm100.8-58.1c.9-1 1.9-1.9 3-2.5 1.1-.6 2.1-1 3-1 .9 0 1.6.3 2.1.9.5.6.8 1.4.8 2.5v4.9c0 .2-.1.5-.2.7l-.6.6c-.2.1-.4.2-.6.1-.2-.1-.2-.2-.2-.4v-1.3c-.5 1-1.1 1.8-1.9 2.7-.8.8-1.6 1.5-2.5 2-1.1.6-2 .9-2.9.9-.9 0-1.5-.3-2-.9-.5-.6-.7-1.4-.7-2.5s.3-2.2.8-3.4c.3-1.1 1-2.2 1.9-3.3zm-.7 7.8c.4.4.9.7 1.5.7.7 0 1.4-.2 2.2-.7.8-.5 1.5-1.1 2.2-1.8.6-.8 1.2-1.6 1.5-2.5.4-.9.6-1.7.6-2.6 0-.8-.2-1.5-.6-1.9-.4-.4-.9-.7-1.5-.7s-1.4.2-2.2.7c-.8.5-1.5 1.1-2.2 1.8-.7.8-1.2 1.6-1.5 2.5-.4.9-.6 1.7-.6 2.6 0 .8.2 1.4.6 1.9zm28-23.7c.9-1 1.9-1.9 3-2.5 1.1-.6 2.1-1 3-1 .9 0 1.6.3 2.1.9.5.6.8 1.5.8 2.6s-.3 2.3-.8 3.4-1.2 2.3-2.1 3.3c-.9 1-1.9 1.9-3 2.5-1.1.6-2.1 1-3 1-.9 0-1.6-.3-2.1-.9-.5-.6-.8-1.4-.8-2.6 0-1.1.3-2.3.8-3.4s1.2-2.2 2.1-3.3zm-.7 7.8c.4.4.9.7 1.5.7.7 0 1.4-.2 2.2-.7.8-.5 1.5-1.1 2.2-1.8.6-.8 1.1-1.6 1.5-2.4.4-.9.5-1.7.5-2.6 0-.8-.2-1.5-.5-1.9-.4-.5-.9-.7-1.5-.7s-1.4.2-2.2.7c-.8.5-1.5 1.1-2.2 1.8-.7.8-1.2 1.6-1.5 2.5-.4.9-.6 1.7-.6 2.6 0 .7.2 1.3.6 1.8zm32.5-27c.2-.1.4-.2.6-.1.1.1.2.2.2.5v3l3.1-1.8c1.3-.7 2.3-1 3.1-.8.8.2 1.2 1 1.2 2.1 0 .8-.2 1.6-.6 2.4-.4.8-.9 1.6-1.6 2.3-.7.7-1.4 1.3-2.3 1.8-.9.5-1.7.8-2.4.8s-1.2-.1-1.6-.6c-.4-.4-.6-1-.6-1.9v-6.6c0-.2.1-.5.3-.7.2-.1.4-.2.6-.4zm.8 7c0 .8.3 1.3.9 1.5.6.2 1.3 0 2.2-.5.9-.5 1.5-1.1 2-1.8s.8-1.5.8-2.3c0-.8-.2-1.3-.7-1.4-.5-.1-1.2 0-2 .5l-3.1 1.8v2.2zm10.1-13.3c.2-.1.4-.2.6-.1.2.1.2.2.2.5v9.8c0 .2-.1.5-.2.7-.2.2-.3.4-.6.6-.2.1-.4.2-.6.1-.1-.1-.2-.2-.2-.5v-9.8c0-.2.1-.5.2-.7.1-.3.3-.4.6-.6zm43.9-25c.9-1 1.9-1.9 3-2.5 1.1-.6 2.1-1 3-1 .9 0 1.6.3 2.1.9.5.6.8 1.4.8 2.5v4.9c0 .2-.1.5-.2.7l-.6.6c-.2.1-.4.2-.6.1-.2-.1-.2-.2-.2-.4v-1.3c-.5 1-1.1 1.8-1.9 2.7-.8.8-1.6 1.5-2.5 2-1.1.6-2 .9-2.9.9-.9 0-1.5-.3-2-.9-.5-.6-.7-1.4-.7-2.5s.3-2.2.8-3.4 1-2.2 1.9-3.3zm-.7 7.8c.4.4.9.7 1.5.7.7 0 1.4-.2 2.2-.7.8-.5 1.5-1.1 2.2-1.8.6-.8 1.2-1.6 1.5-2.5.4-.9.6-1.7.6-2.6 0-.8-.2-1.5-.6-1.9-.4-.4-.9-.7-1.5-.7s-1.4.2-2.2.7c-.8.5-1.5 1.1-2.2 1.8-.7.8-1.2 1.6-1.5 2.5s-.6 1.7-.6 2.6.2 1.5.6 1.9zm33.8-27c.8-1 1.8-1.8 2.8-2.4 1-.6 2-.9 2.8-.9s1.4.3 1.9.9c.4.6.7 1.4.7 2.5 0 .2-.1.4-.2.7-.1.2-.3.4-.5.5l-8.5 4.9c.1 1.1.6 1.8 1.3 2 .8.3 1.8 0 2.9-.6.5-.3 1-.7 1.5-1.2s.9-.9 1.2-1.4c.2-.2.4-.4.6-.5.2-.1.3-.1.5-.1.2.1.3.2.3.4s-.1.4-.2.6c-.5.7-1 1.3-1.8 2-.7.7-1.4 1.2-2.1 1.6-1.1.7-2.1 1-3 1-.9 0-1.6-.3-2.1-.9-.5-.6-.7-1.5-.7-2.6s.2-2.3.7-3.4c.4-1.1 1.1-2.2 1.9-3.1zm6.6.4c-.1-1-.5-1.7-1.2-1.9-.7-.3-1.5-.1-2.6.5s-1.9 1.5-2.6 2.5c-.7 1.1-1.1 2.2-1.3 3.3l7.7-4.4zm10.9-13.1c-.6.6-1.2 1-1.8 1.4-.7.4-1.3.6-1.8.7-.6.1-1 0-1.3-.2-.3-.2-.5-.6-.5-1.1 0-.2.1-.5.2-.7.1-.2.3-.4.5-.5.2-.1.4-.2.5-.1.1.1.2.2.2.5 0 .4.2.6.6.6.4 0 .9-.2 1.5-.5.6-.4 1.1-.8 1.5-1.2.4-.5.6-.9.6-1.3 0-.3.1-.5.2-.8.1-.2.3-.4.5-.5.2-.1.4-.2.5-.1.1.1.2.2.2.5 0 .5-.2 1.1-.5 1.6-.1.6-.6 1.1-1.1 1.7zm-6.5 5.6c.2-.1.4-.2.6-.1.2.1.2.2.2.4v5.5c0 1.2.3 2 1 2.2.7.2 1.6 0 2.7-.6.7-.4 1.3-.9 1.9-1.5.6-.6 1-1.2 1.3-1.9.3-.7.5-1.3.5-1.8v-6.2c0-.2.1-.5.2-.7.1-.2.3-.4.6-.6s.4-.2.6-.1c.2.1.2.2.2.4v9.9c0 .2-.1.5-.2.7l-.6.6c-.2.2-.4.2-.6.1-.1-.1-.2-.2-.2-.5v-.7c-.5.8-1 1.5-1.7 2.2-.7.7-1.4 1.2-2.1 1.7-1 .6-1.9.9-2.7.9-.8 0-1.4-.2-1.9-.8-.4-.5-.7-1.4-.7-2.5v-5.5c0-.2.1-.5.2-.7.3-.1.5-.3.7-.4zm31.5-17.7c.9-1 1.9-1.9 3-2.5 1.1-.6 2.1-1 3-1 .9 0 1.6.3 2.1.9.5.6.8 1.5.8 2.6s-.3 2.3-.8 3.4-1.2 2.3-2.1 3.3c-.9 1-1.9 1.9-3 2.5-1.1.6-2.1 1-3 1-.9 0-1.6-.3-2.1-.9-.5-.6-.8-1.4-.8-2.6 0-1.1.3-2.3.8-3.4.5-1.2 1.2-2.3 2.1-3.3zm-.7 7.7c.4.4.9.7 1.5.7.7 0 1.4-.2 2.2-.7.8-.5 1.5-1.1 2.2-1.8.6-.8 1.1-1.6 1.5-2.4.4-.9.5-1.7.5-2.6 0-.8-.2-1.5-.5-1.9-.4-.5-.9-.7-1.5-.7s-1.4.2-2.2.7c-.8.5-1.5 1.1-2.2 1.8-.7.8-1.2 1.6-1.5 2.5-.4.9-.6 1.7-.6 2.6 0 .8.2 1.4.6 1.8zm44.4-33.1c.9-1 1.9-1.9 3-2.5 1.1-.6 2.1-1 3-1 .9 0 1.6.3 2.1.9.5.6.8 1.4.8 2.5v4.9c0 .2-.1.5-.2.7l-.6.6c-.2.2-.4.2-.6.1-.2-.1-.2-.2-.2-.4v-1.3c-.5 1-1.1 1.8-1.9 2.7-.8.8-1.6 1.5-2.5 2-1.1.6-2 .9-2.9.9-.9 0-1.5-.3-2-.9-.5-.6-.7-1.4-.7-2.5s.3-2.2.8-3.4c.3-1.2 1-2.3 1.9-3.3zm-.8 7.7c.4.4.9.7 1.5.7.7 0 1.4-.2 2.2-.7.8-.5 1.5-1.1 2.2-1.8.6-.8 1.2-1.6 1.5-2.5.4-.9.6-1.7.6-2.6s-.2-1.5-.6-1.9c-.4-.4-.9-.7-1.5-.7s-1.4.2-2.2.7c-.8.5-1.5 1.1-2.2 1.8-.7.8-1.2 1.6-1.5 2.5-.4.9-.6 1.7-.6 2.6.1.8.3 1.5.6 1.9zm26.9-23.6c.2-.1.4-.2.6-.1s.2.2.2.4v5.5c0 1.2.3 2 1 2.2.7.2 1.6 0 2.7-.6.7-.4 1.3-.9 1.9-1.5.6-.6 1-1.2 1.3-1.9.3-.7.5-1.3.5-1.8v-6.2c0-.2.1-.5.2-.7.1-.2.3-.4.6-.6.2-.1.4-.2.6-.1.2.1.2.2.2.4v9.9c0 .2-.1.5-.2.7l-.6.6c-.2.1-.4.2-.6.1-.1-.1-.2-.2-.2-.5v-.7c-.5.8-1 1.5-1.7 2.2-.7.7-1.4 1.2-2.1 1.7-1 .6-1.9.9-2.7.9-.8 0-1.4-.2-1.9-.8-.4-.5-.7-1.4-.7-2.5v-5.5c0-.2.1-.5.2-.7s.4-.3.7-.4z"/>
</symbol><symbol id="icon-next" viewBox="0 0 307.046 307.046">
    <path d="M239.087 142.427L101.259 4.597c-6.133-6.129-16.073-6.129-22.203 0L67.955 15.698c-6.129 6.133-6.129 16.076 0 22.201l115.621 115.626-115.621 115.61c-6.129 6.136-6.129 16.086 0 22.209l11.101 11.101c6.13 6.136 16.07 6.136 22.203 0l137.828-137.831c6.135-6.127 6.135-16.058 0-22.187z"/>
</symbol><symbol id="icon-ok" viewBox="0 0 12.03 20">
    
    <path id="ok.svg" class="cls-1" d="M1769.14 4888.98a5.055 5.055 0 1 0-5.07-5.05 5.057 5.057 0 0 0 5.07 5.05zm0-7.55a2.5 2.5 0 1 1-2.49 2.5 2.49 2.49 0 0 1 2.49-2.5zm5.83 8.17a1.293 1.293 0 0 0-2.13-.23 6.639 6.639 0 0 1-7.41 0 1.294 1.294 0 0 0-2.13.23c-.49 1 .07 1.48 1.34 2.31a8.6 8.6 0 0 0 3.54 1.04l-.81.81c-1.13 1.12-2.22 2.22-2.97 2.98a1.147 1.147 0 0 0 0 1.64l.13.14a1.165 1.165 0 0 0 1.64 0l2.98-2.99c1.14 1.14 2.23 2.23 2.98 2.99a1.177 1.177 0 0 0 1.65 0l.13-.14a1.165 1.165 0 0 0 0-1.64l-2.98-2.98-.81-.81a8.541 8.541 0 0 0 3.51-1.04c1.27-.83 1.83-1.31 1.34-2.31z" transform="translate(-1763.13 -4878.88)"/>
</symbol><symbol id="icon-pensil" viewBox="0 0 32 32">
    
    <path id="Forma_1" data-name="Forma 1" class="cls-1" d="M1007.78 1508.22a5.883 5.883 0 0 0-8.314 0l-17.666 17.57a.956.956 0 0 0-.235.37l-4 11a1 1 0 0 0 .94 1.34.986.986 0 0 0 .293-.04l9.949-3.06a.962.962 0 0 0 .414-.24l18.624-18.63a5.879 5.879 0 0 0-.005-8.31zm-20.187 25.44l-3.724 1.15a4.236 4.236 0 0 0-1.016-1.66 5.624 5.624 0 0 0-1.356-.97l1.7-4.68h2.3v2a1 1 0 0 0 1 1h1.765zm14.717-14.49l-12.181 12.19.35-1.65a1 1 0 0 0-.2-.84 1.013 1.013 0 0 0-.777-.37h-2v-2a1 1 0 0 0-1-1h-1.577l11.893-11.83.011.02a3.876 3.876 0 1 1 5.481 5.48zm4.05-4.05l-.93.93a5.839 5.839 0 0 0-5.491-5.48l.941-.93a3.875 3.875 0 1 1 5.48 5.48zm-6.567-.33l-10 10a1 1 0 0 0 .707 1.71 1.017 1.017 0 0 0 .707-.29l10-10a1 1 0 1 0-1.414-1.42z" transform="translate(-977.5 -1506.5)"/>
</symbol><symbol id="icon-phone" viewBox="0 0 20.44 20.44">
    
    <path id="phone.svg" class="cls-1" d="M1341.47 4747.7a.634.634 0 0 0-.05-.3 2.632 2.632 0 0 0-1.1-.77c-.83-.46-1.67-.91-2.48-1.39a3.023 3.023 0 0 0-1.29-.67c-.89 0-2.18 2.63-2.96 2.63a3.2 3.2 0 0 1-1.25-.57 14.443 14.443 0 0 1-5.94-5.93 3.18 3.18 0 0 1-.56-1.25c0-.79 2.62-2.08 2.62-2.96a2.946 2.946 0 0 0-.66-1.29c-.48-.82-.93-1.66-1.4-2.49a2.528 2.528 0 0 0-.76-1.1.854.854 0 0 0-.31-.04 6.431 6.431 0 0 0-2.02.45 3.788 3.788 0 0 0-1.53 1.77 5.478 5.478 0 0 0-.74 2.7 11.138 11.138 0 0 0 1 3.8 14.036 14.036 0 0 0 1.2 2.54 24.324 24.324 0 0 0 6.97 6.96 12.877 12.877 0 0 0 2.54 1.21 11.138 11.138 0 0 0 3.8 1 5.615 5.615 0 0 0 2.7-.74 3.857 3.857 0 0 0 1.77-1.54 6.655 6.655 0 0 0 .45-2.02z" transform="translate(-1321.03 -4731.56)"/>
</symbol><symbol id="icon-phone_vacancy" viewBox="0 0 56.812 88">
    
    <path id="&#x41F;&#x440;&#x44F;&#x43C;&#x43E;&#x443;&#x433;&#x43E;&#x43B;&#x44C;&#x43D;&#x438;&#x43A;_6" data-name="&#x41F;&#x440;&#x44F;&#x43C;&#x43E;&#x443;&#x433;&#x43E;&#x43B;&#x44C;&#x43D;&#x438;&#x43A; 6" class="cls-1" d="M831.138 1819h-43.276a6.857 6.857 0 0 1-6.762-6.77v-8.12a1.353 1.353 0 1 1 2.7 0v8.12a4.113 4.113 0 0 0 4.057 4.06h43.276c2.176 0 3.786-2.14 4.057-4.14v-16.17h-52.738a1.348 1.348 0 0 1-1.352-1.35v-56.86a6.857 6.857 0 0 1 6.762-6.77h43.276a6.857 6.857 0 0 1 6.762 6.77v47.38a1.357 1.357 0 0 1-1.353 1.36h-41.923a1.357 1.357 0 0 1-1.353-1.36v-41.97a1.355 1.355 0 0 1 1.353-1.35h29.752a1.354 1.354 0 0 1 1.352 1.35v32.5a1.352 1.352 0 0 1-2.7 0v-31.14h-27.052v39.26H835.2v-46.03a4.113 4.113 0 0 0-4.057-4.06h-43.281a4.113 4.113 0 0 0-4.057 4.06v55.51h52.742a1.348 1.348 0 0 1 1.353 1.35v17.6a1.43 1.43 0 0 1-.009.16c-.385 3.25-3.016 6.61-6.753 6.61zm-21.638-5.42a6.765 6.765 0 1 1 6.762-6.76 6.855 6.855 0 0 1-6.762 6.76zm0-10.83a4.065 4.065 0 1 0 4.057 4.07 4.169 4.169 0 0 0-4.057-4.07z" transform="translate(-781.094 -1731)"/>
</symbol><symbol id="icon-prev" viewBox="0 0 137.065 137.064">
    <path d="M55.12 68.532l51.606-51.614a7.006 7.006 0 0 0 0-9.911l-4.955-4.956a7.008 7.008 0 0 0-9.91 0L30.337 63.577a7.01 7.01 0 0 0 0 9.911l61.524 61.523a7.007 7.007 0 0 0 9.91 0l4.955-4.955a7.006 7.006 0 0 0 0-9.911L55.12 68.532z"/>
</symbol><symbol id="icon-tv_vacancy" viewBox="0 0 97.5 82.5">
    
    <path id="&#x41F;&#x440;&#x44F;&#x43C;&#x43E;&#x443;&#x433;&#x43E;&#x43B;&#x44C;&#x43D;&#x438;&#x43A;_7" data-name="&#x41F;&#x440;&#x44F;&#x43C;&#x43E;&#x443;&#x433;&#x43E;&#x43B;&#x44C;&#x43D;&#x438;&#x43A; 7" class="cls-1" d="M1184.53 1775.62h-76.5a1.5 1.5 0 1 1 0-3h76.5a1.5 1.5 0 0 1 0 3zm-15 40.5h-46.5a1.458 1.458 0 0 1-1.06-.44 1.5 1.5 0 0 1-.44-1.06l.05-10.37a1.511 1.511 0 0 1 1.5-1.5l43.45-.13a1.538 1.538 0 0 0 1.5-1.5l.05-4.43a1.646 1.646 0 0 0-1.55-1.57h-61.5a7.6 7.6 0 0 1-7.5-7.5v-46.5a7.608 7.608 0 0 1 7.5-7.5h82.5a7.6 7.6 0 0 1 7.5 7.5v46.5a7.594 7.594 0 0 1-7.5 7.5h-7.5a1.5 1.5 0 1 1 0-3h7.5a4.559 4.559 0 0 0 4.5-4.5v-46.5a4.566 4.566 0 0 0-4.5-4.5h-82.5a4.566 4.566 0 0 0-4.5 4.5v46.5a4.559 4.559 0 0 0 4.5 4.5h61.5a4.628 4.628 0 0 1 4.55 4.59l-.05 4.43a4.5 4.5 0 0 1-4.5 4.48l-41.96.13-.03 7.37h44.99a1.5 1.5 0 0 1 0 3z" transform="translate(-1097.53 -1733.63)"/>
</symbol><symbol id="icon-vk" viewBox="0 0 21.4 12.22">
    
    <path id="vk.svg" class="cls-1" d="M1694.81 4884.67s-.16-.45-1.13-.33l-3.21.03a.7.7 0 0 0-.42.06.664.664 0 0 0-.28.35 21.945 21.945 0 0 1-1.19 2.51c-1.43 2.43-2.01 2.56-2.25 2.41-.54-.35-.4-1.41-.4-2.17 0-2.36.36-3.34-.7-3.6a5.872 5.872 0 0 0-1.51-.14 7.13 7.13 0 0 0-2.66.26c-.37.18-.65.58-.48.61a1.461 1.461 0 0 1 .95.48 3.387 3.387 0 0 1 .32 1.46c.12 2.77-.45 3.12-.45 3.12-.43.23-1.19-.16-2.31-2.45a23.034 23.034 0 0 1-1.14-2.39.879.879 0 0 0-.27-.36 1.247 1.247 0 0 0-.49-.2l-3.06.02a.8.8 0 0 0-.64.22.507.507 0 0 0-.01.54 29.653 29.653 0 0 0 5.11 8.42s2.49 2.6 5.31 2.42h1.28a1 1 0 0 0 .6-.24.883.883 0 0 0 .16-.57c-.02-1.72.78-1.97.78-1.97.78-.25 1.79 1.66 2.86 2.39a2.381 2.381 0 0 0 1.43.44l2.85-.05a.782.782 0 0 0 .79-1.26 9.165 9.165 0 0 0-2.13-2.46c-1.78-1.66-1.55-1.4.62-4.27 1.31-1.75 1.84-2.83 1.67-3.28z" transform="translate(-1673.44 -4883.78)"/>
</symbol></svg>