<svg id="step_line" xmlns="http://www.w3.org/2000/svg" viewBox="0 0 1536.7 1593">
    <style>
        .st0{opacity:.2;fill:url(#SVGID_1_);enable-background:new}
    </style>
    <linearGradient id="SVGID_1_" gradientUnits="userSpaceOnUse" x1="768.336" y1="-23.766" x2="768.336" y2="1593">
        <stop offset="0"/>
        <stop offset="1" stop-opacity="0"/>
    </linearGradient>
    <path class="st0" d="M1453.7 357.4l.6-.8-219.5-151.3L1536.7-9.1l-10.5-14.7-306.6 218.6-.3-.2-15.2 10.8 228.8 158.3-208.2 157.1h.1l-10.6 8.2 56.2 37.8-156 110.1-167.2-116.5-60 43.7v.3l-115-81.1-59.1 43.6-58.6-43.1-176.3 127.9 227.4 160.6L0 1297.2l10.5 7.4-.2.3 213 150.4L39.2 1583l16 10 199-137-223.4-158.6L737.2 813 508.9 651.7l145.5-105.8 59.8 43.1 58.3-43.4L887.2 626v.3l60-44.2v.2l167 116.7v.1l176.1-124.3 12-7.2-59.1-38.2 219-166.4z"/>
</svg>
