<?xml version="1.0" encoding="utf-8"?>
<!-- Generator: Adobe Illustrator 21.0.1, SVG Export Plug-In . SVG Version: 6.00 Build 0)  -->
<svg version="1.1" id="OBJECTS" xmlns="http://www.w3.org/2000/svg" xmlns:xlink="http://www.w3.org/1999/xlink" x="0px" y="0px"
	 viewBox="0 0 838.1 561.4" style="enable-background:new 0 0 838.1 561.4;" xml:space="preserve">
<style type="text/css">
	.st0{fill:#334C8C;}
	.st1{fill:#6C7A87;}
	.st2{fill:#8491A1;}
	.st3{fill:#A0AEBA;}
	.st4{fill:#424242;}
	.st5{fill:#5C5E5E;}
	.st6{fill:#767B7B;}
	.st7{fill:#4468B7;}
	.st8{fill:#2E477C;}
	.st9{fill:#FE7F2D;}
	.st10{fill:#6D767C;}
	.st11{fill:none;stroke:#6A645F;stroke-width:3;stroke-linecap:round;stroke-linejoin:round;stroke-miterlimit:10;}
	.st12{fill:#544C46;}
	.st13{fill:#6A645F;}
	.st14{fill:#6E7E8E;}
	.st15{fill:#5B5652;}
	.st16{fill:none;stroke:#2E477C;stroke-width:3;stroke-miterlimit:10;}
	.st17{fill:none;}
	.st18{fill:none;stroke:#2E477C;stroke-width:5;stroke-miterlimit:10;}
	.st19{fill:#D8D8D8;}
	.st20{fill:#BFBFBF;}
	.st21{fill:#FFFFFF;}
</style>
<g>
	<g>
		<g>
			<g>
				<polygon class="st0" points="182.2,73.1 56.4,0 10.2,26.4 136,99.5 				"/>
				<g>
					<polygon class="st1" points="33.6,27.1 33.6,24.4 58.8,11.4 115.9,43.2 115.9,45.9 90.7,60.4 					"/>
					<polygon class="st2" points="33.6,24.4 58.8,9.9 115.9,43.2 90.7,57.7 					"/>
					<path class="st2" d="M33.6,24.4L58.8,9.9l57.1,33.3l-8,4.6c-23.8-8.2-47.9-16-72.4-22.2L33.6,24.4z"/>
					<path class="st3" d="M35.6,25.6c24.5,6.2,48.5,14.1,72.4,22.2l-17.2,9.9L35.6,25.6z"/>
				</g>
				<g>
					<g>
						<g>
							<path class="st4" d="M74.8,151.9c0.2-1.3,0.6-2.3,1.2-3.1l-0.3-0.5l2.5-1.2l0.1,0c2.2-0.7,5.2,0,8.4,2.2
								c5.9,4.1,10,11.9,9.3,17.5c-0.2,1.5-0.7,2.6-1.4,3.4c0,0,0,0.1,0,0.1c-1.4,1.6-3.8,2.1-3.8,2.1l-0.4-0.6
								c-1.8-0.1-4-0.9-6.2-2.5C78.3,165.2,74.1,157.4,74.8,151.9z"/>
						</g>
						<g>
							<path class="st5" d="M72.9,152.8c-0.7,5.5,3.5,13.3,9.3,17.5c5.9,4.1,11.2,3,11.9-2.5s-3.5-13.3-9.3-17.5
								S73.6,147.3,72.9,152.8z"/>
						</g>
						<g>
							<path class="st6" d="M74.1,154.3c-0.6,4.4,2.8,10.6,7.4,13.9c4.7,3.3,8.9,2.4,9.5-2s-2.8-10.6-7.4-13.9
								C78.9,149,74.7,149.9,74.1,154.3z"/>
						</g>
						<g>
							<path class="st5" d="M78.3,157.7c-0.3,2.1,1.3,5.1,3.6,6.7c2.3,1.6,4.3,1.2,4.6-1c0.3-2.1-1.3-5.1-3.6-6.7
								C80.7,155.2,78.6,155.6,78.3,157.7z"/>
						</g>
						<g>
							<path class="st6" d="M79.4,158.5c-0.2,1.6,1,3.8,2.6,4.9c1.7,1.2,3.2,0.8,3.3-0.7c0.2-1.6-1-3.8-2.6-4.9
								C81.1,156.6,79.6,157,79.4,158.5z"/>
						</g>
					</g>
					<g>
						<g>
							<path class="st4" d="M96.8,164.4c0.2-1.3,0.6-2.3,1.2-3.1l-0.3-0.5l2.5-1.2l0.1,0c2.2-0.7,5.2,0,8.4,2.2
								c5.9,4.1,10,11.9,9.3,17.5c-0.2,1.5-0.7,2.6-1.4,3.4c0,0,0,0.1,0,0.1c-1.4,1.6-3.8,2.1-3.8,2.1l-0.4-0.6
								c-1.8-0.1-4-0.9-6.2-2.5C100.3,177.7,96.1,169.9,96.8,164.4z"/>
						</g>
						<g>
							<path class="st5" d="M94.9,165.3c-0.7,5.5,3.5,13.3,9.3,17.5c5.9,4.1,11.2,3,11.9-2.5s-3.5-13.3-9.3-17.5
								S95.6,159.8,94.9,165.3z"/>
						</g>
						<g>
							<path class="st6" d="M96.1,166.8c-0.6,4.4,2.8,10.6,7.4,13.9c4.7,3.3,8.9,2.4,9.5-2s-2.8-10.6-7.4-13.9
								C100.9,161.5,96.7,162.4,96.1,166.8z"/>
						</g>
						<g>
							<path class="st5" d="M100.3,170.2c-0.3,2.1,1.3,5.1,3.6,6.7c2.3,1.6,4.3,1.2,4.6-1c0.3-2.1-1.3-5.1-3.6-6.7
								C102.7,167.7,100.6,168.1,100.3,170.2z"/>
						</g>
						<g>
							<path class="st6" d="M101.4,171c-0.2,1.6,1,3.8,2.6,4.9c1.7,1.2,3.2,0.8,3.3-0.7c0.2-1.6-1-3.8-2.6-4.9
								C103.1,169.1,101.6,169.5,101.4,171z"/>
						</g>
					</g>
				</g>
				<g>
					<g>
						<g>
							<path class="st4" d="M8.8,114.4c0.2-1.3,0.6-2.3,1.2-3.1l-0.3-0.5l2.5-1.2l0.1,0c2.2-0.7,5.2,0,8.4,2.2
								c5.9,4.1,10,11.9,9.3,17.5c-0.2,1.5-0.7,2.6-1.4,3.4c0,0,0,0.1,0,0.1c-1.4,1.6-3.8,2.1-3.8,2.1l-0.4-0.6
								c-1.8-0.1-4-0.9-6.2-2.5C12.2,127.8,8.1,119.9,8.8,114.4z"/>
						</g>
						<g>
							<path class="st5" d="M6.9,115.3c-0.7,5.5,3.5,13.3,9.3,17.5c5.9,4.1,11.2,3,11.9-2.5c0.7-5.5-3.5-13.3-9.3-17.5
								S7.6,109.8,6.9,115.3z"/>
						</g>
						<g>
							<path class="st6" d="M8,116.8c-0.6,4.4,2.8,10.6,7.4,13.9c4.7,3.3,8.9,2.4,9.5-2c0.6-4.4-2.8-10.6-7.4-13.9
								C12.8,111.6,8.6,112.5,8,116.8z"/>
						</g>
						<g>
							<path class="st5" d="M12.2,120.3c-0.3,2.1,1.3,5.1,3.6,6.7c2.3,1.6,4.3,1.2,4.6-1c0.3-2.1-1.3-5.1-3.6-6.7
								C14.6,117.7,12.5,118.2,12.2,120.3z"/>
						</g>
						<g>
							<path class="st6" d="M13.3,121.1c-0.2,1.6,1,3.8,2.6,4.9c1.7,1.2,3.2,0.8,3.3-0.7c0.2-1.6-1-3.8-2.6-4.9
								C15,119.2,13.5,119.5,13.3,121.1z"/>
						</g>
					</g>
					<g>
						<g>
							<path class="st4" d="M30.8,126.9c0.2-1.3,0.6-2.3,1.2-3.1l-0.3-0.5l2.5-1.2l0.1,0c2.2-0.7,5.2,0,8.4,2.2
								c5.9,4.1,10,11.9,9.3,17.5c-0.2,1.5-0.7,2.6-1.4,3.4c0,0,0,0.1,0,0.1c-1.4,1.6-3.8,2.1-3.8,2.1l-0.4-0.6
								c-1.8-0.1-4-0.9-6.2-2.5C34.2,140.3,30.1,132.4,30.8,126.9z"/>
						</g>
						<g>
							<path class="st5" d="M28.9,127.8c-0.7,5.5,3.5,13.3,9.3,17.5c5.9,4.1,11.2,3,11.9-2.5c0.7-5.5-3.5-13.3-9.3-17.5
								C34.9,121.2,29.6,122.3,28.9,127.8z"/>
						</g>
						<g>
							<path class="st6" d="M30,129.3c-0.6,4.4,2.8,10.6,7.4,13.9c4.7,3.3,8.9,2.4,9.5-2c0.6-4.4-2.8-10.6-7.4-13.9
								C34.8,124.1,30.6,125,30,129.3z"/>
						</g>
						<g>
							<path class="st5" d="M34.2,132.8c-0.3,2.1,1.3,5.1,3.6,6.7c2.3,1.6,4.3,1.2,4.6-1c0.3-2.1-1.3-5.1-3.6-6.7
								C36.6,130.2,34.5,130.7,34.2,132.8z"/>
						</g>
						<g>
							<path class="st6" d="M35.3,133.6c-0.2,1.6,1,3.8,2.6,4.9c1.7,1.2,3.2,0.8,3.3-0.7c0.2-1.6-1-3.8-2.6-4.9
								C37,131.7,35.5,132,35.3,133.6z"/>
						</g>
					</g>
				</g>
				<polygon class="st0" points="125.9,123.7 0,50.5 0,114.3 125.9,187.4 				"/>
				<polygon class="st7" points="0.1,50.6 125.9,123.7 136.1,99.5 10.3,26.4 				"/>
				<polygon class="st8" points="182.2,73.1 191.6,86.4 191.6,149.7 125.9,187.4 125.9,123.7 136.1,99.5 				"/>
			</g>
			<g>
				<polygon class="st9" points="0,114.2 125.9,187.4 125.9,180.6 0,107.4 				"/>
			</g>
			<g>
				<g>
					<polygon class="st10" points="106.7,117.2 106.7,129.7 68.7,107.5 68.7,95 					"/>
					<polygon class="st2" points="106.7,144.3 68.7,122.1 68.7,107.5 106.7,129.7 					"/>
				</g>
				<polygon class="st11" points="68.7,123.5 106.7,145.7 106.7,118.5 68.7,96.3 				"/>
			</g>
			<g>
				<g>
					<polygon class="st10" points="53.2,86.5 53.2,99 15.2,76.8 15.2,64.3 					"/>
					<polygon class="st2" points="53.2,113.6 15.2,91.4 15.2,76.8 53.2,99 					"/>
				</g>
				<polygon class="st11" points="15.2,92.8 53.2,115 53.2,87.8 15.2,65.6 				"/>
			</g>
		</g>
		<polygon class="st8" points="125.9,172.4 191.6,134.7 191.6,149.7 125.9,187.4 		"/>
		<g>
			<polygon class="st12" points="172.1,103.4 172.6,103.2 172.6,160.5 151.2,172.7 151.2,172.5 172.1,160.5 			"/>
			<polygon class="st13" points="172.1,103.4 172.1,160.5 151.2,172.5 151.2,115.4 			"/>
		</g>
		<g>
			<polygon class="st14" points="170.2,107.7 170.7,107.4 170.7,128.4 153.1,138.5 153.1,138.2 170.2,128.4 			"/>
			<polygon class="st10" points="170.2,107.7 170.2,128.4 153.1,138.2 153.1,117.5 			"/>
		</g>
		<g>
			<polygon class="st12" points="170.2,133.5 170.7,133.2 170.7,157.6 153.1,167.7 153.1,167.4 170.2,157.6 			"/>
			<polygon class="st15" points="170.2,133.5 170.2,157.6 153.1,167.4 153.1,143.3 			"/>
		</g>
	</g>
	<g>
		<g>
			<g>
				<polygon class="st0" points="314.5,148.7 188.7,75.6 142.6,102 268.4,175.1 				"/>
				<g>
					<polygon class="st1" points="165.9,102.6 165.9,100 191.1,87 248.3,118.8 248.3,121.4 223.1,136 					"/>
					<polygon class="st2" points="165.9,100 191.1,85.5 248.3,118.8 223.1,133.3 					"/>
					<path class="st2" d="M165.9,100l25.2-14.5l57.1,33.3l-8,4.6c-23.8-8.2-47.9-16-72.4-22.2L165.9,100z"/>
					<path class="st3" d="M167.9,101.1c24.5,6.2,48.5,14.1,72.4,22.2l-17.2,9.9L167.9,101.1z"/>
				</g>
				<g>
					<g>
						<g>
							<path class="st4" d="M207.2,227.4c0.2-1.3,0.6-2.3,1.2-3.1l-0.3-0.5l2.5-1.2l0.1,0c2.2-0.7,5.2,0,8.4,2.2
								c5.9,4.1,10,11.9,9.3,17.5c-0.2,1.5-0.7,2.6-1.4,3.4c0,0,0,0.1,0,0.1c-1.4,1.6-3.8,2.1-3.8,2.1l-0.4-0.6
								c-1.8-0.1-4-0.9-6.2-2.5C210.7,240.8,206.5,232.9,207.2,227.4z"/>
						</g>
						<g>
							<path class="st5" d="M205.3,228.3c-0.7,5.5,3.5,13.3,9.3,17.5c5.9,4.1,11.2,3,11.9-2.5c0.7-5.5-3.5-13.3-9.3-17.5
								C211.3,221.7,206,222.8,205.3,228.3z"/>
						</g>
						<g>
							<path class="st6" d="M206.4,229.9c-0.6,4.4,2.8,10.6,7.4,13.9c4.7,3.3,8.9,2.4,9.5-2s-2.8-10.6-7.4-13.9
								C211.2,224.6,207,225.5,206.4,229.9z"/>
						</g>
						<g>
							<path class="st5" d="M210.7,233.3c-0.3,2.1,1.3,5.1,3.6,6.7c2.3,1.6,4.3,1.2,4.6-1c0.3-2.1-1.3-5.1-3.6-6.7
								C213,230.7,210.9,231.2,210.7,233.3z"/>
						</g>
						<g>
							<path class="st6" d="M211.8,234.1c-0.2,1.6,1,3.8,2.6,4.9c1.7,1.2,3.2,0.8,3.3-0.7c0.2-1.6-1-3.8-2.6-4.9
								C213.5,232.2,212,232.5,211.8,234.1z"/>
						</g>
					</g>
					<g>
						<g>
							<path class="st4" d="M229.2,239.9c0.2-1.3,0.6-2.3,1.2-3.1l-0.3-0.5l2.5-1.2l0.1,0c2.2-0.7,5.2,0,8.4,2.2
								c5.9,4.1,10,11.9,9.3,17.5c-0.2,1.5-0.7,2.6-1.4,3.4c0,0,0,0.1,0,0.1c-1.4,1.6-3.8,2.1-3.8,2.1l-0.4-0.6
								c-1.8-0.1-4-0.9-6.2-2.5C232.7,253.3,228.5,245.4,229.2,239.9z"/>
						</g>
						<g>
							<path class="st5" d="M227.3,240.8c-0.7,5.5,3.5,13.3,9.3,17.5c5.9,4.1,11.2,3,11.9-2.5c0.7-5.5-3.5-13.3-9.3-17.5
								C233.3,234.2,228,235.3,227.3,240.8z"/>
						</g>
						<g>
							<path class="st6" d="M228.4,242.4c-0.6,4.4,2.8,10.6,7.4,13.9c4.7,3.3,8.9,2.4,9.5-2c0.6-4.4-2.8-10.6-7.4-13.9
								C233.2,237.1,229,238,228.4,242.4z"/>
						</g>
						<g>
							<path class="st5" d="M232.7,245.8c-0.3,2.1,1.3,5.1,3.6,6.7c2.3,1.6,4.3,1.2,4.6-1c0.3-2.1-1.3-5.1-3.6-6.7
								C235,243.2,232.9,243.7,232.7,245.8z"/>
						</g>
						<g>
							<path class="st6" d="M233.8,246.6c-0.2,1.6,1,3.8,2.6,4.9c1.7,1.2,3.2,0.8,3.3-0.7c0.2-1.6-1-3.8-2.6-4.9
								C235.5,244.7,234,245,233.8,246.6z"/>
						</g>
					</g>
				</g>
				<g>
					<g>
						<g>
							<path class="st4" d="M141.1,190c0.2-1.3,0.6-2.3,1.2-3.1l-0.3-0.5l2.5-1.2l0.1,0c2.2-0.7,5.2,0,8.4,2.2
								c5.9,4.1,10,11.9,9.3,17.5c-0.2,1.5-0.7,2.6-1.4,3.4c0,0,0,0.1,0,0.1c-1.4,1.6-3.8,2.1-3.8,2.1l-0.4-0.6
								c-1.8-0.1-4-0.9-6.2-2.5C144.6,203.3,140.4,195.5,141.1,190z"/>
						</g>
						<g>
							<path class="st5" d="M139.2,190.9c-0.7,5.5,3.5,13.3,9.3,17.5c5.9,4.1,11.2,3,11.9-2.5c0.7-5.5-3.5-13.3-9.3-17.5
								C145.2,184.2,139.9,185.4,139.2,190.9z"/>
						</g>
						<g>
							<path class="st6" d="M140.4,192.4c-0.6,4.4,2.8,10.6,7.4,13.9c4.7,3.3,8.9,2.4,9.5-2c0.6-4.4-2.8-10.6-7.4-13.9
								C145.1,187.1,140.9,188,140.4,192.4z"/>
						</g>
						<g>
							<path class="st5" d="M144.6,195.9c-0.3,2.1,1.3,5.1,3.6,6.7c2.3,1.6,4.3,1.2,4.6-1c0.3-2.1-1.3-5.1-3.6-6.7
								C146.9,193.3,144.9,193.7,144.6,195.9z"/>
						</g>
						<g>
							<path class="st6" d="M145.7,196.6c-0.2,1.6,1,3.8,2.6,4.9c1.7,1.2,3.2,0.8,3.3-0.7c0.2-1.6-1-3.8-2.6-4.9
								C147.4,194.8,145.9,195.1,145.7,196.6z"/>
						</g>
					</g>
					<g>
						<g>
							<path class="st4" d="M163.1,202.5c0.2-1.3,0.6-2.3,1.2-3.1l-0.3-0.5l2.5-1.2l0.1,0c2.2-0.7,5.2,0,8.4,2.2
								c5.9,4.1,10,11.9,9.3,17.5c-0.2,1.5-0.7,2.6-1.4,3.4c0,0,0,0.1,0,0.1c-1.4,1.6-3.8,2.1-3.8,2.1l-0.4-0.6
								c-1.8-0.1-4-0.9-6.2-2.5C166.6,215.8,162.4,208,163.1,202.5z"/>
						</g>
						<g>
							<path class="st5" d="M161.2,203.4c-0.7,5.5,3.5,13.3,9.3,17.5c5.9,4.1,11.2,3,11.9-2.5c0.7-5.5-3.5-13.3-9.3-17.5
								C167.2,196.7,161.9,197.9,161.2,203.4z"/>
						</g>
						<g>
							<path class="st6" d="M162.4,204.9c-0.6,4.4,2.8,10.6,7.4,13.9c4.7,3.3,8.9,2.4,9.5-2c0.6-4.4-2.8-10.6-7.4-13.9
								C167.1,199.6,162.9,200.5,162.4,204.9z"/>
						</g>
						<g>
							<path class="st5" d="M166.6,208.4c-0.3,2.1,1.3,5.1,3.6,6.7c2.3,1.6,4.3,1.2,4.6-1c0.3-2.1-1.3-5.1-3.6-6.7
								C168.9,205.8,166.9,206.2,166.6,208.4z"/>
						</g>
						<g>
							<path class="st6" d="M167.7,209.1c-0.2,1.6,1,3.8,2.6,4.9c1.7,1.2,3.2,0.8,3.3-0.7c0.2-1.6-1-3.8-2.6-4.9
								C169.4,207.3,167.9,207.6,167.7,209.1z"/>
						</g>
					</g>
				</g>
				<polygon class="st0" points="258.2,199.3 132.3,126.1 132.3,189.8 258.2,262.9 				"/>
				<polygon class="st7" points="132.4,126.1 258.2,199.3 268.4,175.1 142.6,102 				"/>
				<polygon class="st8" points="314.5,148.7 324,162 324,225.2 258.2,262.9 258.2,199.3 268.4,175.1 				"/>
			</g>
			<g>
				<polygon class="st9" points="132.3,189.8 258.2,262.9 258.2,256.2 132.3,183 				"/>
			</g>
			<g>
				<g>
					<polygon class="st10" points="239.1,192.7 239.1,205.2 201,183 201,170.5 					"/>
					<polygon class="st2" points="239.1,219.9 201,197.7 201,183 239.1,205.2 					"/>
				</g>
				<polygon class="st11" points="201,199.1 239.1,221.3 239.1,194.1 201,171.9 				"/>
			</g>
			<g>
				<g>
					<polygon class="st10" points="185.5,162 185.5,174.5 147.5,152.3 147.5,139.8 					"/>
					<polygon class="st2" points="185.5,189.2 147.5,167 147.5,152.3 185.5,174.5 					"/>
				</g>
				<polygon class="st11" points="147.5,168.4 185.5,190.6 185.5,163.4 147.5,141.2 				"/>
			</g>
		</g>
		<polygon class="st8" points="258.2,248 324,210.3 324,225.2 258.2,262.9 		"/>
		<g>
			<polygon class="st12" points="304.4,179 304.9,178.7 304.9,236 283.6,248.3 283.6,248 304.4,236 			"/>
			<polygon class="st13" points="304.4,179 304.4,236 283.6,248 283.6,191 			"/>
		</g>
		<g>
			<polygon class="st14" points="302.5,183.3 303,183 303,204 285.5,214.1 285.5,213.8 302.5,204 			"/>
			<polygon class="st10" points="302.5,183.3 302.5,204 285.5,213.8 285.5,193.1 			"/>
		</g>
		<g>
			<polygon class="st12" points="302.5,209 303,208.8 303,233.2 285.5,243.3 285.5,243 302.5,233.2 			"/>
			<polygon class="st15" points="302.5,209 302.5,233.2 285.5,243 285.5,218.8 			"/>
		</g>
	</g>
	<g>
		<g>
			<g>
				<polygon class="st0" points="447.2,224.6 321.4,151.5 275.3,177.9 401.1,251 				"/>
				<g>
					<polygon class="st1" points="298.6,178.6 298.6,175.9 323.8,162.9 381,194.7 381,197.3 355.8,211.9 					"/>
					<polygon class="st2" points="298.6,175.9 323.8,161.4 381,194.7 355.8,209.2 					"/>
					<path class="st2" d="M298.6,175.9l25.2-14.5l57.1,33.3l-8,4.6c-23.8-8.2-47.9-16-72.4-22.2L298.6,175.9z"/>
					<path class="st3" d="M300.6,177.1c24.5,6.2,48.5,14.1,72.4,22.2l-17.2,9.9L300.6,177.1z"/>
				</g>
				<g>
					<g>
						<g>
							<path class="st4" d="M339.9,303.3c0.2-1.3,0.6-2.3,1.2-3.1l-0.3-0.5l2.5-1.2l0.1,0c2.2-0.7,5.2,0,8.4,2.2
								c5.9,4.1,10,11.9,9.3,17.5c-0.2,1.5-0.7,2.6-1.4,3.4c0,0,0,0.1,0,0.1c-1.4,1.6-3.8,2.1-3.8,2.1l-0.4-0.6
								c-1.8-0.1-4-0.9-6.2-2.5C343.4,316.7,339.2,308.9,339.9,303.3z"/>
						</g>
						<g>
							<path class="st5" d="M338,304.2c-0.7,5.5,3.5,13.3,9.3,17.5c5.9,4.1,11.2,3,11.9-2.5c0.7-5.5-3.5-13.3-9.3-17.5
								C344,297.6,338.7,298.7,338,304.2z"/>
						</g>
						<g>
							<path class="st6" d="M339.1,305.8c-0.6,4.4,2.8,10.6,7.4,13.9c4.7,3.3,8.9,2.4,9.5-2c0.6-4.4-2.8-10.6-7.4-13.9
								C343.9,300.5,339.7,301.4,339.1,305.8z"/>
						</g>
						<g>
							<path class="st5" d="M343.4,309.2c-0.3,2.1,1.3,5.1,3.6,6.7c2.3,1.6,4.3,1.2,4.6-1c0.3-2.1-1.3-5.1-3.6-6.7
								C345.7,306.7,343.6,307.1,343.4,309.2z"/>
						</g>
						<g>
							<path class="st6" d="M344.5,310c-0.2,1.6,1,3.8,2.6,4.9c1.7,1.2,3.2,0.8,3.3-0.7c0.2-1.6-1-3.8-2.6-4.9
								C346.2,308.1,344.7,308.4,344.5,310z"/>
						</g>
					</g>
					<g>
						<g>
							<path class="st4" d="M361.9,315.8c0.2-1.3,0.6-2.3,1.2-3.1l-0.3-0.5l2.5-1.2l0.1,0c2.2-0.7,5.2,0,8.4,2.2
								c5.9,4.1,10,11.9,9.3,17.5c-0.2,1.5-0.7,2.6-1.4,3.4c0,0,0,0.1,0,0.1c-1.4,1.6-3.8,2.1-3.8,2.1l-0.4-0.6
								c-1.8-0.1-4-0.9-6.2-2.5C365.4,329.2,361.2,321.4,361.9,315.8z"/>
						</g>
						<g>
							<path class="st5" d="M360,316.7c-0.7,5.5,3.5,13.3,9.3,17.5c5.9,4.1,11.2,3,11.9-2.5c0.7-5.5-3.5-13.3-9.3-17.5
								C366,310.1,360.7,311.2,360,316.7z"/>
						</g>
						<g>
							<path class="st6" d="M361.1,318.3c-0.6,4.4,2.8,10.6,7.4,13.9c4.7,3.3,8.9,2.4,9.5-2c0.6-4.4-2.8-10.6-7.4-13.9
								C365.9,313,361.7,313.9,361.1,318.3z"/>
						</g>
						<g>
							<path class="st5" d="M365.4,321.7c-0.3,2.1,1.3,5.1,3.6,6.7c2.3,1.6,4.3,1.2,4.6-1c0.3-2.1-1.3-5.1-3.6-6.7
								C367.7,319.2,365.6,319.6,365.4,321.7z"/>
						</g>
						<g>
							<path class="st6" d="M366.5,322.5c-0.2,1.6,1,3.8,2.6,4.9c1.7,1.2,3.2,0.8,3.3-0.7c0.2-1.6-1-3.8-2.6-4.9
								C368.2,320.6,366.7,320.9,366.5,322.5z"/>
						</g>
					</g>
				</g>
				<g>
					<g>
						<g>
							<path class="st4" d="M273.8,265.9c0.2-1.3,0.6-2.3,1.2-3.1l-0.3-0.5l2.5-1.2l0.1,0c2.2-0.7,5.2,0,8.4,2.2
								c5.9,4.1,10,11.9,9.3,17.5c-0.2,1.5-0.7,2.6-1.4,3.4c0,0,0,0.1,0,0.1c-1.4,1.6-3.8,2.1-3.8,2.1l-0.4-0.6
								c-1.8-0.1-4-0.9-6.2-2.5C277.3,279.2,273.1,271.4,273.8,265.9z"/>
						</g>
						<g>
							<path class="st5" d="M271.9,266.8c-0.7,5.5,3.5,13.3,9.3,17.5c5.9,4.1,11.2,3,11.9-2.5c0.7-5.5-3.5-13.3-9.3-17.5
								C277.9,260.2,272.6,261.3,271.9,266.8z"/>
						</g>
						<g>
							<path class="st6" d="M273.1,268.3c-0.6,4.4,2.8,10.6,7.4,13.9c4.7,3.3,8.9,2.4,9.5-2c0.6-4.4-2.8-10.6-7.4-13.9
								C277.8,263,273.6,263.9,273.1,268.3z"/>
						</g>
						<g>
							<path class="st5" d="M277.3,271.8c-0.3,2.1,1.3,5.1,3.6,6.7c2.3,1.6,4.3,1.2,4.6-1c0.3-2.1-1.3-5.1-3.6-6.7
								S277.6,269.6,277.3,271.8z"/>
						</g>
						<g>
							<path class="st6" d="M278.4,272.5c-0.2,1.6,1,3.8,2.6,4.9c1.7,1.2,3.2,0.8,3.3-0.7c0.2-1.6-1-3.8-2.6-4.9
								C280.1,270.7,278.6,271,278.4,272.5z"/>
						</g>
					</g>
					<g>
						<g>
							<path class="st4" d="M295.8,278.4c0.2-1.3,0.6-2.3,1.2-3.1l-0.3-0.5l2.5-1.2l0.1,0c2.2-0.7,5.2,0,8.4,2.2
								c5.9,4.1,10,11.9,9.3,17.5c-0.2,1.5-0.7,2.6-1.4,3.4c0,0,0,0.1,0,0.1c-1.4,1.6-3.8,2.1-3.8,2.1l-0.4-0.6
								c-1.8-0.1-4-0.9-6.2-2.5C299.3,291.7,295.1,283.9,295.8,278.4z"/>
						</g>
						<g>
							<path class="st5" d="M293.9,279.3c-0.7,5.5,3.5,13.3,9.3,17.5c5.9,4.1,11.2,3,11.9-2.5c0.7-5.5-3.5-13.3-9.3-17.5
								C299.9,272.7,294.6,273.8,293.9,279.3z"/>
						</g>
						<g>
							<path class="st6" d="M295.1,280.8c-0.6,4.4,2.8,10.6,7.4,13.9c4.7,3.3,8.9,2.4,9.5-2c0.6-4.4-2.8-10.6-7.4-13.9
								C299.8,275.5,295.6,276.4,295.1,280.8z"/>
						</g>
						<g>
							<path class="st5" d="M299.3,284.3c-0.3,2.1,1.3,5.1,3.6,6.7c2.3,1.6,4.3,1.2,4.6-1c0.3-2.1-1.3-5.1-3.6-6.7
								S299.6,282.1,299.3,284.3z"/>
						</g>
						<g>
							<path class="st6" d="M300.4,285c-0.2,1.6,1,3.8,2.6,4.9c1.7,1.2,3.2,0.8,3.3-0.7c0.2-1.6-1-3.8-2.6-4.9
								C302.1,283.2,300.6,283.5,300.4,285z"/>
						</g>
					</g>
				</g>
				<polygon class="st0" points="390.9,275.2 265,202 265,265.7 390.9,338.8 				"/>
				<polygon class="st7" points="265.1,202.1 390.9,275.2 401.1,251 275.3,177.9 				"/>
				<polygon class="st8" points="447.2,224.6 456.7,237.9 456.7,301.1 390.9,338.8 390.9,275.2 401.1,251 				"/>
			</g>
			<g>
				<polygon class="st9" points="265,265.7 390.9,338.8 390.9,332.1 265,258.9 				"/>
			</g>
			<g>
				<g>
					<polygon class="st10" points="371.8,268.6 371.8,281.1 333.8,258.9 333.8,246.4 					"/>
					<polygon class="st2" points="371.8,295.8 333.8,273.6 333.8,258.9 371.8,281.1 					"/>
				</g>
				<polygon class="st11" points="333.8,275 371.8,297.2 371.8,270 333.8,247.8 				"/>
			</g>
			<g>
				<g>
					<polygon class="st10" points="318.3,237.9 318.3,250.4 280.2,228.2 280.2,215.7 					"/>
					<polygon class="st2" points="318.3,265.1 280.2,242.9 280.2,228.2 318.3,250.4 					"/>
				</g>
				<polygon class="st11" points="280.2,244.3 318.3,266.5 318.3,239.3 280.2,217.1 				"/>
			</g>
		</g>
		<polygon class="st8" points="390.9,323.9 456.7,286.2 456.7,301.1 390.9,338.9 		"/>
		<g>
			<polygon class="st12" points="437.1,254.9 437.6,254.6 437.6,312 416.3,324.2 416.3,323.9 437.1,312 			"/>
			<polygon class="st13" points="437.1,254.9 437.1,312 416.3,323.9 416.3,266.9 			"/>
		</g>
		<g>
			<polygon class="st14" points="435.2,259.2 435.7,258.9 435.7,279.9 418.2,290 418.2,289.7 435.2,279.9 			"/>
			<polygon class="st10" points="435.2,259.2 435.2,279.9 418.2,289.7 418.2,269 			"/>
		</g>
		<g>
			<polygon class="st12" points="435.2,285 435.7,284.7 435.7,309.1 418.2,319.2 418.2,318.9 435.2,309.1 			"/>
			<polygon class="st15" points="435.2,285 435.2,309.1 418.2,318.9 418.2,294.8 			"/>
		</g>
	</g>
	<g>
		<g>
			<g>
				<polygon class="st0" points="581.2,301.6 455.4,228.5 409.3,254.9 535.1,328 				"/>
				<g>
					<polygon class="st1" points="432.6,255.6 432.6,252.9 457.8,239.9 515,271.7 515,274.3 489.8,288.9 					"/>
					<polygon class="st2" points="432.6,252.9 457.8,238.4 515,271.7 489.8,286.2 					"/>
					<path class="st2" d="M432.6,252.9l25.2-14.5l57.1,33.3l-8,4.6c-23.8-8.2-47.9-16-72.4-22.2L432.6,252.9z"/>
					<path class="st3" d="M434.6,254.1c24.5,6.2,48.5,14.1,72.4,22.2l-17.2,9.9L434.6,254.1z"/>
				</g>
				<g>
					<g>
						<g>
							<path class="st4" d="M473.9,380.3c0.2-1.3,0.6-2.3,1.2-3.1l-0.3-0.5l2.5-1.2l0.1,0c2.2-0.7,5.2,0,8.4,2.2
								c5.9,4.1,10,11.9,9.3,17.5c-0.2,1.5-0.7,2.6-1.4,3.4c0,0,0,0.1,0,0.1c-1.4,1.6-3.8,2.1-3.8,2.1l-0.4-0.6
								c-1.8-0.1-4-0.9-6.2-2.5C477.4,393.7,473.2,385.9,473.9,380.3z"/>
						</g>
						<g>
							<path class="st5" d="M472,381.2c-0.7,5.5,3.5,13.3,9.3,17.5c5.9,4.1,11.2,3,11.9-2.5c0.7-5.5-3.5-13.3-9.3-17.5
								C478,374.6,472.7,375.7,472,381.2z"/>
						</g>
						<g>
							<path class="st6" d="M473.1,382.8c-0.6,4.4,2.8,10.6,7.4,13.9c4.7,3.3,8.9,2.4,9.5-2c0.6-4.4-2.8-10.6-7.4-13.9
								C477.9,377.5,473.7,378.4,473.1,382.8z"/>
						</g>
						<g>
							<path class="st5" d="M477.4,386.2c-0.3,2.1,1.3,5.1,3.6,6.7c2.3,1.6,4.3,1.2,4.6-1c0.3-2.1-1.3-5.1-3.6-6.7
								C479.7,383.7,477.6,384.1,477.4,386.2z"/>
						</g>
						<g>
							<path class="st6" d="M478.5,387c-0.2,1.6,1,3.8,2.6,4.9c1.7,1.2,3.2,0.8,3.3-0.7c0.2-1.6-1-3.8-2.6-4.9
								C480.2,385.1,478.7,385.4,478.5,387z"/>
						</g>
					</g>
					<g>
						<g>
							<path class="st4" d="M495.9,392.8c0.2-1.3,0.6-2.3,1.2-3.1l-0.3-0.5l2.5-1.2l0.1,0c2.2-0.7,5.2,0,8.4,2.2
								c5.9,4.1,10,11.9,9.3,17.5c-0.2,1.5-0.7,2.6-1.4,3.4c0,0,0,0.1,0,0.1c-1.4,1.6-3.8,2.1-3.8,2.1l-0.4-0.6
								c-1.8-0.1-4-0.9-6.2-2.5C499.4,406.2,495.2,398.4,495.9,392.8z"/>
						</g>
						<g>
							<path class="st5" d="M494,393.7c-0.7,5.5,3.5,13.3,9.3,17.5c5.9,4.1,11.2,3,11.9-2.5c0.7-5.5-3.5-13.3-9.3-17.5
								C500,387.1,494.7,388.2,494,393.7z"/>
						</g>
						<g>
							<path class="st6" d="M495.1,395.3c-0.6,4.4,2.8,10.6,7.4,13.9c4.7,3.3,8.9,2.4,9.5-2s-2.8-10.6-7.4-13.9
								C499.9,390,495.7,390.9,495.1,395.3z"/>
						</g>
						<g>
							<path class="st5" d="M499.4,398.7c-0.3,2.1,1.3,5.1,3.6,6.7c2.3,1.6,4.3,1.2,4.6-1c0.3-2.1-1.3-5.1-3.6-6.7
								C501.7,396.2,499.6,396.6,499.4,398.7z"/>
						</g>
						<g>
							<path class="st6" d="M500.5,399.5c-0.2,1.6,1,3.8,2.6,4.9c1.7,1.2,3.2,0.8,3.3-0.7c0.2-1.6-1-3.8-2.6-4.9
								C502.2,397.6,500.7,397.9,500.5,399.5z"/>
						</g>
					</g>
				</g>
				<g>
					<g>
						<g>
							<path class="st4" d="M407.8,342.9c0.2-1.3,0.6-2.3,1.2-3.1l-0.3-0.5l2.5-1.2l0.1,0c2.2-0.7,5.2,0,8.4,2.2
								c5.9,4.1,10,11.9,9.3,17.5c-0.2,1.5-0.7,2.6-1.4,3.4c0,0,0,0.1,0,0.1c-1.4,1.6-3.8,2.1-3.8,2.1l-0.4-0.6
								c-1.8-0.1-4-0.9-6.2-2.5C411.3,356.2,407.1,348.4,407.8,342.9z"/>
						</g>
						<g>
							<path class="st5" d="M405.9,343.8c-0.7,5.5,3.5,13.3,9.3,17.5c5.9,4.1,11.2,3,11.9-2.5c0.7-5.5-3.5-13.3-9.3-17.5
								C411.9,337.2,406.6,338.3,405.9,343.8z"/>
						</g>
						<g>
							<path class="st6" d="M407.1,345.3c-0.6,4.4,2.8,10.6,7.4,13.9c4.7,3.3,8.9,2.4,9.5-2c0.6-4.4-2.8-10.6-7.4-13.9
								C411.8,340,407.6,340.9,407.1,345.3z"/>
						</g>
						<g>
							<path class="st5" d="M411.3,348.8c-0.3,2.1,1.3,5.1,3.6,6.7c2.3,1.6,4.3,1.2,4.6-1c0.3-2.1-1.3-5.1-3.6-6.7
								S411.6,346.6,411.3,348.8z"/>
						</g>
						<g>
							<path class="st6" d="M412.4,349.5c-0.2,1.6,1,3.8,2.6,4.9c1.7,1.2,3.2,0.8,3.3-0.7c0.2-1.6-1-3.8-2.6-4.9
								C414.1,347.7,412.6,348,412.4,349.5z"/>
						</g>
					</g>
					<g>
						<g>
							<path class="st4" d="M429.8,355.4c0.2-1.3,0.6-2.3,1.2-3.1l-0.3-0.5l2.5-1.2l0.1,0c2.2-0.7,5.2,0,8.4,2.2
								c5.9,4.1,10,11.9,9.3,17.5c-0.2,1.5-0.7,2.6-1.4,3.4c0,0,0,0.1,0,0.1c-1.4,1.6-3.8,2.1-3.8,2.1l-0.4-0.6
								c-1.8-0.1-4-0.9-6.2-2.5C433.3,368.7,429.1,360.9,429.8,355.4z"/>
						</g>
						<g>
							<path class="st5" d="M427.9,356.3c-0.7,5.5,3.5,13.3,9.3,17.5c5.9,4.1,11.2,3,11.9-2.5c0.7-5.5-3.5-13.3-9.3-17.5
								C433.9,349.7,428.6,350.8,427.9,356.3z"/>
						</g>
						<g>
							<path class="st6" d="M429.1,357.8c-0.6,4.4,2.8,10.6,7.4,13.9c4.7,3.3,8.9,2.4,9.5-2c0.6-4.4-2.8-10.6-7.4-13.9
								C433.8,352.5,429.6,353.4,429.1,357.8z"/>
						</g>
						<g>
							<path class="st5" d="M433.3,361.3c-0.3,2.1,1.3,5.1,3.6,6.7c2.3,1.6,4.3,1.2,4.6-1c0.3-2.1-1.3-5.1-3.6-6.7
								S433.6,359.1,433.3,361.3z"/>
						</g>
						<g>
							<path class="st6" d="M434.4,362c-0.2,1.6,1,3.8,2.6,4.9c1.7,1.2,3.2,0.8,3.3-0.7c0.2-1.6-1-3.8-2.6-4.9
								C436.1,360.2,434.6,360.5,434.4,362z"/>
						</g>
					</g>
				</g>
				<polygon class="st0" points="524.9,352.2 399,279 399,342.7 524.9,415.8 				"/>
				<polygon class="st7" points="399.1,279.1 524.9,352.2 535.1,328 409.3,254.9 				"/>
				<polygon class="st8" points="581.2,301.6 590.7,314.9 590.7,378.1 524.9,415.8 524.9,352.2 535.1,328 				"/>
			</g>
			<g>
				<polygon class="st9" points="399,342.7 524.9,415.8 524.9,409.1 399,335.9 				"/>
			</g>
			<g>
				<g>
					<polygon class="st10" points="505.8,345.6 505.8,358.1 467.8,335.9 467.8,323.4 					"/>
					<polygon class="st2" points="505.8,372.8 467.8,350.6 467.8,335.9 505.8,358.1 					"/>
				</g>
				<polygon class="st11" points="467.8,352 505.8,374.2 505.8,347 467.8,324.8 				"/>
			</g>
			<g>
				<g>
					<polygon class="st10" points="452.3,314.9 452.3,327.4 414.2,305.2 414.2,292.7 					"/>
					<polygon class="st2" points="452.3,342.1 414.2,319.9 414.2,305.2 452.3,327.4 					"/>
				</g>
				<polygon class="st11" points="414.2,321.3 452.3,343.5 452.3,316.3 414.2,294.1 				"/>
			</g>
		</g>
		<polygon class="st8" points="524.9,400.9 590.7,363.2 590.7,378.1 524.9,415.9 		"/>
		<g>
			<polygon class="st12" points="571.1,331.9 571.6,331.6 571.6,389 550.3,401.2 550.3,400.9 571.1,389 			"/>
			<polygon class="st13" points="571.1,331.9 571.1,389 550.3,400.9 550.3,343.9 			"/>
		</g>
		<g>
			<polygon class="st14" points="569.2,336.2 569.7,335.9 569.7,356.9 552.2,367 552.2,366.7 569.2,356.9 			"/>
			<polygon class="st10" points="569.2,336.2 569.2,356.9 552.2,366.7 552.2,346 			"/>
		</g>
		<g>
			<polygon class="st12" points="569.2,362 569.7,361.7 569.7,386.1 552.2,396.2 552.2,395.9 569.2,386.1 			"/>
			<polygon class="st15" points="569.2,362 569.2,386.1 552.2,395.9 552.2,371.8 			"/>
		</g>
	</g>
	<g>
		<g>
			<g>
				<polygon class="st0" points="718.2,379.6 592.4,306.5 546.3,332.9 672.1,406 				"/>
				<g>
					<polygon class="st1" points="569.6,333.6 569.6,330.9 594.8,317.9 652,349.7 652,352.3 626.8,366.9 					"/>
					<polygon class="st2" points="569.6,330.9 594.8,316.4 652,349.7 626.8,364.2 					"/>
					<path class="st2" d="M569.6,330.9l25.2-14.5l57.1,33.3l-8,4.6c-23.8-8.2-47.9-16-72.4-22.2L569.6,330.9z"/>
					<path class="st3" d="M571.6,332.1c24.5,6.2,48.5,14.1,72.4,22.2l-17.2,9.9L571.6,332.1z"/>
				</g>
				<g>
					<g>
						<g>
							<path class="st4" d="M610.9,458.3c0.2-1.3,0.6-2.3,1.2-3.1l-0.3-0.5l2.5-1.2l0.1,0c2.2-0.7,5.2,0,8.4,2.2
								c5.9,4.1,10,11.9,9.3,17.5c-0.2,1.5-0.7,2.6-1.4,3.4c0,0,0,0.1,0,0.1c-1.4,1.6-3.8,2.1-3.8,2.1l-0.4-0.6
								c-1.8-0.1-4-0.9-6.2-2.5C614.4,471.7,610.2,463.9,610.9,458.3z"/>
						</g>
						<g>
							<path class="st5" d="M609,459.2c-0.7,5.5,3.5,13.3,9.3,17.5c5.9,4.1,11.2,3,11.9-2.5c0.7-5.5-3.5-13.3-9.3-17.5
								C615,452.6,609.7,453.7,609,459.2z"/>
						</g>
						<g>
							<path class="st6" d="M610.1,460.8c-0.6,4.4,2.8,10.6,7.4,13.9c4.7,3.3,8.9,2.4,9.5-2s-2.8-10.6-7.4-13.9
								C614.9,455.5,610.7,456.4,610.1,460.8z"/>
						</g>
						<g>
							<path class="st5" d="M614.4,464.2c-0.3,2.1,1.3,5.1,3.6,6.7c2.3,1.6,4.3,1.2,4.6-1c0.3-2.1-1.3-5.1-3.6-6.7
								C616.7,461.7,614.6,462.1,614.4,464.2z"/>
						</g>
						<g>
							<path class="st6" d="M615.5,465c-0.2,1.6,1,3.8,2.6,4.9c1.7,1.2,3.2,0.8,3.3-0.7c0.2-1.6-1-3.8-2.6-4.9
								C617.2,463.1,615.7,463.4,615.5,465z"/>
						</g>
					</g>
					<g>
						<g>
							<path class="st4" d="M632.9,470.8c0.2-1.3,0.6-2.3,1.2-3.1l-0.3-0.5l2.5-1.2l0.1,0c2.2-0.7,5.2,0,8.4,2.2
								c5.9,4.1,10,11.9,9.3,17.5c-0.2,1.5-0.7,2.6-1.4,3.4c0,0,0,0.1,0,0.1c-1.4,1.6-3.8,2.1-3.8,2.1l-0.4-0.6
								c-1.8-0.1-4-0.9-6.2-2.5C636.4,484.2,632.2,476.4,632.9,470.8z"/>
						</g>
						<g>
							<path class="st5" d="M631,471.7c-0.7,5.5,3.5,13.3,9.3,17.5c5.9,4.1,11.2,3,11.9-2.5c0.7-5.5-3.5-13.3-9.3-17.5
								C637,465.1,631.7,466.2,631,471.7z"/>
						</g>
						<g>
							<path class="st6" d="M632.1,473.3c-0.6,4.4,2.8,10.6,7.4,13.9c4.7,3.3,8.9,2.4,9.5-2s-2.8-10.6-7.4-13.9
								C636.9,468,632.7,468.9,632.1,473.3z"/>
						</g>
						<g>
							<path class="st5" d="M636.4,476.7c-0.3,2.1,1.3,5.1,3.6,6.7c2.3,1.6,4.3,1.2,4.6-1c0.3-2.1-1.3-5.1-3.6-6.7
								C638.7,474.2,636.6,474.6,636.4,476.7z"/>
						</g>
						<g>
							<path class="st6" d="M637.5,477.5c-0.2,1.6,1,3.8,2.6,4.9c1.7,1.2,3.2,0.8,3.3-0.7c0.2-1.6-1-3.8-2.6-4.9
								C639.2,475.6,637.7,475.9,637.5,477.5z"/>
						</g>
					</g>
				</g>
				<g>
					<g>
						<g>
							<path class="st4" d="M544.8,420.9c0.2-1.3,0.6-2.3,1.2-3.1l-0.3-0.5l2.5-1.2l0.1,0c2.2-0.7,5.2,0,8.4,2.2
								c5.9,4.1,10,11.9,9.3,17.5c-0.2,1.5-0.7,2.6-1.4,3.4c0,0,0,0.1,0,0.1c-1.4,1.6-3.8,2.1-3.8,2.1l-0.4-0.6
								c-1.8-0.1-4-0.9-6.2-2.5C548.3,434.2,544.1,426.4,544.8,420.9z"/>
						</g>
						<g>
							<path class="st5" d="M542.9,421.8c-0.7,5.5,3.5,13.3,9.3,17.5c5.9,4.1,11.2,3,11.9-2.5c0.7-5.5-3.5-13.3-9.3-17.5
								C548.9,415.2,543.6,416.3,542.9,421.8z"/>
						</g>
						<g>
							<path class="st6" d="M544.1,423.3c-0.6,4.4,2.8,10.6,7.4,13.9c4.7,3.3,8.9,2.4,9.5-2c0.6-4.4-2.8-10.6-7.4-13.9
								C548.8,418,544.6,418.9,544.1,423.3z"/>
						</g>
						<g>
							<path class="st5" d="M548.3,426.8c-0.3,2.1,1.3,5.1,3.6,6.7c2.3,1.6,4.3,1.2,4.6-1c0.3-2.1-1.3-5.1-3.6-6.7
								S548.6,424.6,548.3,426.8z"/>
						</g>
						<g>
							<path class="st6" d="M549.4,427.5c-0.2,1.6,1,3.8,2.6,4.9c1.7,1.2,3.2,0.8,3.3-0.7c0.2-1.6-1-3.8-2.6-4.9
								C551.1,425.7,549.6,426,549.4,427.5z"/>
						</g>
					</g>
					<g>
						<g>
							<path class="st4" d="M566.8,433.4c0.2-1.3,0.6-2.3,1.2-3.1l-0.3-0.5l2.5-1.2l0.1,0c2.2-0.7,5.2,0,8.4,2.2
								c5.9,4.1,10,11.9,9.3,17.5c-0.2,1.5-0.7,2.6-1.4,3.4c0,0,0,0.1,0,0.1c-1.4,1.6-3.8,2.1-3.8,2.1l-0.4-0.6
								c-1.8-0.1-4-0.9-6.2-2.5C570.3,446.7,566.1,438.9,566.8,433.4z"/>
						</g>
						<g>
							<path class="st5" d="M564.9,434.3c-0.7,5.5,3.5,13.3,9.3,17.5c5.9,4.1,11.2,3,11.9-2.5c0.7-5.5-3.5-13.3-9.3-17.5
								C570.9,427.7,565.6,428.8,564.9,434.3z"/>
						</g>
						<g>
							<path class="st6" d="M566.1,435.8c-0.6,4.4,2.8,10.6,7.4,13.9c4.7,3.3,8.9,2.4,9.5-2c0.6-4.4-2.8-10.6-7.4-13.9
								C570.8,430.5,566.6,431.4,566.1,435.8z"/>
						</g>
						<g>
							<path class="st5" d="M570.3,439.3c-0.3,2.1,1.3,5.1,3.6,6.7c2.3,1.6,4.3,1.2,4.6-1c0.3-2.1-1.3-5.1-3.6-6.7
								S570.6,437.1,570.3,439.3z"/>
						</g>
						<g>
							<path class="st6" d="M571.4,440c-0.2,1.6,1,3.8,2.6,4.9c1.7,1.2,3.2,0.8,3.3-0.7c0.2-1.6-1-3.8-2.6-4.9
								C573.1,438.2,571.6,438.5,571.4,440z"/>
						</g>
					</g>
				</g>
				<polygon class="st0" points="661.9,430.2 536,357 536,420.7 661.9,493.8 				"/>
				<polygon class="st7" points="536.1,357.1 661.9,430.2 672.1,406 546.3,332.9 				"/>
				<polygon class="st8" points="718.2,379.6 727.7,392.9 727.7,456.1 661.9,493.8 661.9,430.2 672.1,406 				"/>
			</g>
			<g>
				<polygon class="st9" points="536,420.7 661.9,493.8 661.9,487.1 536,413.9 				"/>
			</g>
			<g>
				<g>
					<polygon class="st10" points="642.8,423.6 642.8,436.1 604.8,413.9 604.8,401.4 					"/>
					<polygon class="st2" points="642.8,450.8 604.8,428.6 604.8,413.9 642.8,436.1 					"/>
				</g>
				<polygon class="st11" points="604.8,430 642.8,452.2 642.8,425 604.8,402.8 				"/>
			</g>
			<g>
				<g>
					<polygon class="st10" points="589.3,392.9 589.3,405.4 551.2,383.2 551.2,370.7 					"/>
					<polygon class="st2" points="589.3,420.1 551.2,397.9 551.2,383.2 589.3,405.4 					"/>
				</g>
				<polygon class="st11" points="551.2,399.3 589.3,421.5 589.3,394.3 551.2,372.1 				"/>
			</g>
		</g>
		<polygon class="st16" points="661.9,478.9 727.7,441.2 727.7,456.1 661.9,493.9 		"/>
		<g>
			<polygon class="st12" points="708.1,409.9 708.6,409.6 708.6,467 687.3,479.2 687.3,478.9 708.1,467 			"/>
			<polygon class="st13" points="708.1,409.9 708.1,467 687.3,478.9 687.3,421.9 			"/>
		</g>
		<g>
			<polygon class="st14" points="706.2,414.2 706.7,413.9 706.7,434.9 689.2,445 689.2,444.7 706.2,434.9 			"/>
			<polygon class="st10" points="706.2,414.2 706.2,434.9 689.2,444.7 689.2,424 			"/>
		</g>
		<g>
			<polygon class="st12" points="706.2,440 706.7,439.7 706.7,464.1 689.2,474.2 689.2,473.9 706.2,464.1 			"/>
			<polygon class="st15" points="706.2,440 706.2,464.1 689.2,473.9 689.2,449.8 			"/>
		</g>
	</g>
	<g>
		<g>
			<g>
				<g>
					<path class="st4" d="M676.9,496.1c0.2-1.3,0.6-2.3,1.2-3.1l-0.3-0.5l2.5-1.2l0.1,0c2.2-0.7,5.2,0,8.4,2.2
						c5.9,4.1,10,11.9,9.3,17.5c-0.2,1.5-0.7,2.6-1.4,3.4c0,0,0,0.1,0,0.1c-1.4,1.6-3.8,2.1-3.8,2.1l-0.4-0.6
						c-1.8-0.1-4-0.9-6.2-2.5C680.4,509.4,676.2,501.6,676.9,496.1z"/>
				</g>
				<g>
					<path class="st5" d="M675,497c-0.7,5.5,3.5,13.3,9.3,17.5c5.9,4.1,11.2,3,11.9-2.5s-3.5-13.3-9.3-17.5
						C681,490.3,675.7,491.5,675,497z"/>
				</g>
				<g>
					<path class="st6" d="M676.1,498.5c-0.6,4.4,2.8,10.6,7.4,13.9c4.7,3.3,8.9,2.4,9.5-2c0.6-4.4-2.8-10.6-7.4-13.9
						C680.9,493.2,676.7,494.1,676.1,498.5z"/>
				</g>
				<g>
					<path class="st5" d="M680.4,501.9c-0.3,2.1,1.3,5.1,3.6,6.7c2.3,1.6,4.3,1.2,4.6-1c0.3-2.1-1.3-5.1-3.6-6.7
						C682.7,499.4,680.6,499.8,680.4,501.9z"/>
				</g>
				<g>
					<path class="st6" d="M681.5,502.7c-0.2,1.6,1,3.8,2.6,4.9s3.2,0.8,3.3-0.7c0.2-1.6-1-3.8-2.6-4.9
						C683.2,500.8,681.7,501.2,681.5,502.7z"/>
				</g>
			</g>
			<g>
				<g>
					<path class="st4" d="M698.9,508.6c0.2-1.3,0.6-2.3,1.2-3.1l-0.3-0.5l2.5-1.2l0.1,0c2.2-0.7,5.2,0,8.4,2.2
						c5.9,4.1,10,11.9,9.3,17.5c-0.2,1.5-0.7,2.6-1.4,3.4c0,0,0,0.1,0,0.1c-1.4,1.6-3.8,2.1-3.8,2.1l-0.4-0.6
						c-1.8-0.1-4-0.9-6.2-2.5C702.4,521.9,698.2,514.1,698.9,508.6z"/>
				</g>
				<g>
					<path class="st5" d="M697,509.5c-0.7,5.5,3.5,13.3,9.3,17.5c5.9,4.1,11.2,3,11.9-2.5c0.7-5.5-3.5-13.3-9.3-17.5
						C703,502.8,697.7,504,697,509.5z"/>
				</g>
				<g>
					<path class="st6" d="M698.1,511c-0.6,4.4,2.8,10.6,7.4,13.9c4.7,3.3,8.9,2.4,9.5-2c0.6-4.4-2.8-10.6-7.4-13.9
						C702.9,505.7,698.7,506.6,698.1,511z"/>
				</g>
				<g>
					<path class="st5" d="M702.4,514.4c-0.3,2.1,1.3,5.1,3.6,6.7c2.3,1.6,4.3,1.2,4.6-1c0.3-2.1-1.3-5.1-3.6-6.7
						C704.7,511.9,702.6,512.3,702.4,514.4z"/>
				</g>
				<g>
					<path class="st6" d="M703.5,515.2c-0.2,1.6,1,3.8,2.6,4.9c1.7,1.2,3.2,0.8,3.3-0.7c0.2-1.6-1-3.8-2.6-4.9
						C705.2,513.3,703.7,513.7,703.5,515.2z"/>
				</g>
			</g>
		</g>
		<g>
			<g>
				<g>
					<path class="st4" d="M722,523.2c0.2-1.3,0.6-2.3,1.2-3.1l-0.3-0.5l2.5-1.2l0.1,0c2.2-0.7,5.2,0,8.4,2.2
						c5.9,4.1,10,11.9,9.3,17.5c-0.2,1.5-0.7,2.6-1.4,3.4c0,0,0,0.1,0,0.1c-1.4,1.6-3.8,2.1-3.8,2.1l-0.4-0.6
						c-1.8-0.1-4-0.9-6.2-2.5C725.4,536.5,721.3,528.7,722,523.2z"/>
				</g>
				<g>
					<path class="st5" d="M720.1,524.1c-0.7,5.5,3.5,13.3,9.3,17.5c5.9,4.1,11.2,3,11.9-2.5c0.7-5.5-3.5-13.3-9.3-17.5
						C726.1,517.5,720.8,518.6,720.1,524.1z"/>
				</g>
				<g>
					<path class="st6" d="M721.2,525.6c-0.6,4.4,2.8,10.6,7.4,13.9c4.7,3.3,8.9,2.4,9.5-2c0.6-4.4-2.8-10.6-7.4-13.9
						C726,520.3,721.8,521.2,721.2,525.6z"/>
				</g>
				<g>
					<path class="st5" d="M725.5,529.1c-0.3,2.1,1.3,5.1,3.6,6.7s4.3,1.2,4.6-1c0.3-2.1-1.3-5.1-3.6-6.7S725.7,526.9,725.5,529.1z"
						/>
				</g>
				<g>
					<path class="st6" d="M726.6,529.8c-0.2,1.6,1,3.8,2.6,4.9c1.7,1.2,3.2,0.8,3.3-0.7c0.2-1.6-1-3.8-2.6-4.9
						C728.3,528,726.8,528.3,726.6,529.8z"/>
				</g>
			</g>
			<g>
				<g>
					<path class="st4" d="M744,535.7c0.2-1.3,0.6-2.3,1.2-3.1l-0.3-0.5l2.5-1.2l0.1,0c2.2-0.7,5.2,0,8.4,2.2
						c5.9,4.1,10,11.9,9.3,17.5c-0.2,1.5-0.7,2.6-1.4,3.4c0,0,0,0.1,0,0.1c-1.4,1.6-3.8,2.1-3.8,2.1l-0.4-0.6
						c-1.8-0.1-4-0.9-6.2-2.5C747.4,549,743.3,541.2,744,535.7z"/>
				</g>
				<g>
					<path class="st5" d="M742.1,536.6c-0.7,5.5,3.5,13.3,9.3,17.5c5.9,4.1,11.2,3,11.9-2.5c0.7-5.5-3.5-13.3-9.3-17.5
						C748.1,530,742.8,531.1,742.1,536.6z"/>
				</g>
				<g>
					<path class="st6" d="M743.2,538.1c-0.6,4.4,2.8,10.6,7.4,13.9c4.7,3.3,8.9,2.4,9.5-2c0.6-4.4-2.8-10.6-7.4-13.9
						C748,532.8,743.8,533.7,743.2,538.1z"/>
				</g>
				<g>
					<path class="st5" d="M747.5,541.6c-0.3,2.1,1.3,5.1,3.6,6.7s4.3,1.2,4.6-1c0.3-2.1-1.3-5.1-3.6-6.7S747.7,539.4,747.5,541.6z"
						/>
				</g>
				<g>
					<path class="st6" d="M748.6,542.3c-0.2,1.6,1,3.8,2.6,4.9c1.7,1.2,3.2,0.8,3.3-0.7c0.2-1.6-1-3.8-2.6-4.9
						C750.3,540.5,748.8,540.8,748.6,542.3z"/>
				</g>
			</g>
		</g>
		<path class="st8" d="M683,412.5l35-19l74,43c59,33.5,41.7,99.5,41.7,99.5v4.5l-30.7,20.7l-2.4-0.5l-28.3-5.7l-98.5-57v-62
			L683,412.5z"/>
		<g>
			<path class="st0" d="M757,455.5l-74-43l46.2-26.4l74,43c51.9,36.3,30.6,106.9,30.6,106.9v4.5l-30.7,20.7l-2.4-0.5l0.4-5.7
				C801.1,555,816,489,757,455.5z"/>
			<path class="st7" d="M673.9,498v-62l9.1-23.5c0,0,15.5,7.9,74,43c43.3,26,44.1,99.5,44.1,99.5l-0.4,5.7l-28.3-5.7L673.9,498z"/>
		</g>
		<g>
			<g>
				<path class="st17" d="M756.5,490.3c-1.4-1.9-3-3.7-4.6-5.4C753.7,486.7,755.2,488.5,756.5,490.3z"/>
				<path class="st8" d="M673.9,436L673.9,436c9.8,5.4,27.9,15.8,58.9,34.4c8.3,5.3,14.6,9.9,19.2,14.6c1.6,1.7,3.1,3.5,4.6,5.4
					c0.2,0.3,0.5,0.7,0.7,1c19.4,29.5,15.1,65.6,15.1,65.6l-98.5-57.3l0-1.7l0,0V436z"/>
				<path class="st8" d="M737.8,473.4c5.3,3.2,10,7.1,14.2,11.6c-4.6-4.7-10.9-9.3-19.2-14.6C734.4,471.4,736.1,472.4,737.8,473.4z"
					/>
			</g>
			<g>
				<path class="st0" d="M770.8,526.7c1,1.6,1.9,3.2,2.7,4.6c3.4,6.2,8.1,11.7,13.6,16.1c5.7,4.5,10.8,8.9,15.9,14l-30.7-4.4v-12
					C772.4,545,772.1,533.7,770.8,526.7z"/>
				<path class="st0" d="M772.4,549.1L772.4,549.1l-2.4-5.5l-24.6-53.1c0,0,16.6,21.7,25.5,36.2
					C772.5,535.7,772.4,543.6,772.4,549.1z"/>
			</g>
			<polygon class="st0" points="772.4,545 673.9,487.7 673.9,499.7 772.4,557 			"/>
			<g>
				<polygon class="st9" points="772.4,557 743.9,533 673.9,492.9 673.9,499.7 				"/>
			</g>
			<path class="st0" d="M772.4,545c0,0,0.8-54.3-98.5-109l0,51.7L772.4,545z"/>
			<path class="st8" d="M803.1,561.4c0.3-0.2,30.7-17.6,30.7-17.6c2.2-1.3,3.1-6.4,2.6-8.6c-0.1-0.4-1.4-4-1.4-4
				c0,0-32.9,17.9-32.9,17.9s-3.5,1.2-3.1,7.1C799.2,559.2,803,561.4,803.1,561.4z"/>
		</g>
		<path class="st18" d="M765.7,451.4c0,0,28.2-15.5,30.7-16.9c2.5-1.3,4.4,0.2,4.7,0.3c9.1,5.8,15.8,14.4,21,23.8
			c10.4,18.9,11.2,43.3,10.2,46.4c-0.8,2.6-2.9,4-5,5.2c-2.5,1.4-10.7,6.4-12.9,6.3c-3.9-0.3-6-2.7-6.8-6.3
			c-0.6-2.9-1.4-5.9-2.3-8.7c-2.3-7.1-5.5-13.8-9.7-19.9c-7.7-11.3-18.2-20.1-30-26.9c-0.9-0.5-0.9-1.3-0.9-1.7
			C764.7,452.7,764.8,451.9,765.7,451.4z"/>
		<g>
			<path class="st19" d="M765.7,451.4c0,0,28.2-15.5,30.7-16.9c2.5-1.3,4.4,0.2,4.7,0.3c9.1,5.8,15.8,14.4,21,23.8
				c10.4,18.9,11.2,43.3,10.2,46.4c-0.8,2.6-2.9,4-5,5.2c-2.5,1.4-10.7,6.4-12.9,6.3c-3.9-0.3-6-2.7-6.8-6.3
				c-0.6-2.9-1.4-5.9-2.3-8.7c-2.3-7.1-5.5-13.8-9.7-19.9c-7.7-11.3-18.2-20.1-30-26.9c-0.9-0.5-0.9-1.3-0.9-1.7
				C764.7,452.7,764.8,451.9,765.7,451.4z"/>
		</g>
		<g>
			<path class="st20" d="M765.7,451.4c0,0,6.1-3.3,12.8-7.1c27.1,6.9,47.1,30.5,54.1,57.5c0,1.6-0.1,2.8-0.3,3.3
				c-0.8,2.6-2.9,4-5,5.2c-2.5,1.4-10.7,6.4-12.9,6.3c-3.9-0.3-6-2.7-6.8-6.3c-0.6-2.9-1.4-5.9-2.3-8.7c-2.3-7.1-5.5-13.8-9.7-19.9
				c-7.7-11.3-18.2-20.1-30-26.9c-0.9-0.5-0.9-1.3-0.9-1.7C764.7,452.7,764.8,451.9,765.7,451.4z"/>
		</g>
		<g>
			<path class="st9" d="M802.5,538.9c1.7,1.3,4.1,1.8,5.7,1c4.3-2.3-3.1-7.7-6-7.2c-1.3,0.2-2.1,1.7-2,3
				C800.5,536.9,801.4,538.1,802.5,538.9z"/>
		</g>
		<g>
			<path class="st21" d="M804.4,538.4c0.9,0.7,2.2,1,3,0.5c2.3-1.2-1.6-4.1-3.1-3.8c-0.7,0.1-1.1,0.9-1,1.6
				C803.4,537.4,803.8,538,804.4,538.4z"/>
		</g>
		<g>
			<g>
				<path class="st9" d="M835.7,523.4c-0.8,1.5-2.3,2.7-3.7,2.6c-3.8-0.1-0.5-6.5,1.7-7.1c1-0.3,2.1,0.5,2.4,1.4
					C836.4,521.3,836.2,522.4,835.7,523.4z"/>
			</g>
			<g>
				<path class="st21" d="M834.2,523.7c-0.4,0.8-1.2,1.4-1.9,1.4c-2-0.1-0.2-3.4,0.9-3.7c0.5-0.2,1.1,0.2,1.3,0.8
					C834.5,522.6,834.4,523.2,834.2,523.7z"/>
			</g>
		</g>
		<g>
			<path class="st2" d="M680.8,447.2l16,9.2c21.9,13.2,36.8,36.1,43.3,47.7c1.2,2.1-1.1,4.3-3.2,3.1l-56.1-32.8V447.2z"/>
			<path class="st10" d="M680.8,447.2l16,9.2c15.5,9.3,27.5,23.6,35.5,35.2c-16.1-13-33.5-24-51.5-34V447.2z"/>
			<path class="st16" d="M680.8,447.2l16,9.2c21.9,13.2,36.8,36.1,43.3,47.7c1.2,2.1-1.1,4.3-3.2,3.1l-56.1-32.8V447.2z"/>
		</g>
	</g>
</g>
</svg>
