<?xml version="1.0" standalone="no"?>
<!DOCTYPE svg PUBLIC "-//W3C//DTD SVG 20010904//EN"
 "http://www.w3.org/TR/2001/REC-SVG-20010904/DTD/svg10.dtd">
<svg version="1.0" xmlns="http://www.w3.org/2000/svg"
 width="260.000000pt" height="260.000000pt" viewBox="0 0 260.000000 260.000000"
 preserveAspectRatio="xMidYMid meet">
<metadata>
Created by potrace 1.11, written by Peter Selinger 2001-2013
</metadata>
<g transform="translate(0.000000,260.000000) scale(0.100000,-0.100000)"
fill="#000000" stroke="none">
<path d="M1167 2483 c-1 0 -31 -4 -67 -8 -192 -19 -423 -115 -590 -244 -84
-64 -210 -202 -278 -305 -134 -200 -187 -383 -186 -636 2 -257 75 -465 240
-686 294 -393 827 -573 1328 -448 287 71 524 231 710 478 113 150 190 346 212
536 11 100 7 243 -11 345 -62 347 -326 682 -667 848 -167 81 -302 114 -481
117 -67 1 -142 2 -165 3 -24 1 -44 1 -45 0z m309 -152 c71 -46 137 -114 193
-197 43 -64 101 -183 101 -208 0 -13 -21 -18 -154 -42 -10 -2 -51 -6 -90 -9
-39 -3 -80 -8 -91 -10 -40 -8 -44 4 -45 155 -3 292 -1 350 13 350 8 0 40 -17
73 -39z m-561 -28 c-16 -16 -50 -62 -77 -103 -45 -68 -66 -108 -117 -221 l-16
-37 -120 46 c-66 24 -122 46 -124 49 -8 6 63 73 129 123 83 61 162 105 253
141 92 36 107 36 72 2z m188 -205 l1 -223 -34 -1 c-28 0 -149 17 -215 30 -11
3 -26 5 -32 5 -7 1 -13 8 -13 17 0 32 90 201 141 264 50 63 139 144 147 135 3
-2 5 -105 5 -227z m670 187 c43 -18 103 -48 133 -67 69 -41 214 -155 214 -167
0 -20 -186 -101 -233 -101 -8 0 -23 17 -32 38 -80 172 -117 233 -184 306 l-36
39 30 -7 c17 -4 65 -22 108 -41z m-1312 -354 c35 -16 93 -39 129 -51 36 -13
68 -26 73 -30 4 -4 0 -38 -9 -76 -26 -115 -44 -224 -50 -319 -3 -49 -8 -92
-10 -94 -5 -6 -415 -8 -432 -3 -16 6 -9 87 19 202 31 128 172 400 208 400 4 0
37 -13 72 -29z m1775 -14 c86 -117 159 -284 183 -417 15 -86 20 -140 12 -141
-36 -7 -434 -2 -440 6 -5 5 -11 53 -15 105 -8 116 -12 141 -39 255 -31 130
-32 125 43 150 36 12 94 36 130 53 36 17 72 30 80 31 8 0 29 -19 46 -42z
m-1367 -112 c63 -15 87 -19 216 -33 136 -14 403 -7 500 13 11 3 36 7 55 9 19
3 59 10 89 16 29 5 59 10 66 10 35 0 105 -452 71 -462 -21 -7 -1141 -2 -1153
5 -6 4 -10 22 -8 39 2 18 6 69 9 113 4 44 18 129 31 190 14 60 25 111 25 112
0 7 40 2 99 -12z m-268 -607 c0 -29 2 -60 3 -68 2 -8 6 -44 10 -80 4 -36 19
-116 33 -178 14 -62 24 -114 22 -115 -2 -2 -42 -18 -89 -36 -47 -19 -109 -45
-138 -59 -29 -13 -55 -22 -56 -21 -137 176 -216 362 -231 547 l-5 62 225 0
225 0 1 -52z m1273 -10 c-6 -102 -13 -153 -35 -268 -26 -136 -32 -144 -94
-129 -156 39 -478 58 -655 39 -167 -19 -189 -22 -243 -34 -31 -7 -60 -10 -66
-7 -19 12 -57 189 -67 311 -2 30 -6 76 -9 103 l-4 47 589 0 588 0 -4 -62z
m560 20 c-24 -204 -88 -373 -195 -515 -43 -58 -37 -57 -134 -13 -33 15 -89 38
-125 50 -36 13 -67 25 -68 26 -2 1 5 38 16 81 11 43 23 98 27 123 4 25 9 53
11 63 1 9 6 61 9 114 4 54 9 101 11 105 3 5 106 8 229 8 l224 0 -5 -42z
m-1329 -702 c-1 -124 -3 -227 -6 -230 -2 -2 -27 14 -55 37 -53 43 -110 114
-153 190 -34 61 -83 178 -77 184 7 7 190 37 248 41 l43 2 0 -224z m493 213
c31 -5 83 -14 115 -20 66 -13 65 -9 17 -116 -39 -86 -109 -189 -165 -245 -49
-48 -160 -114 -169 -100 -4 7 -8 247 -7 420 l1 73 75 -2 c42 -1 101 -6 133
-10z m-894 -65 c9 -3 16 -11 16 -17 0 -17 71 -159 103 -207 17 -25 51 -69 75
-97 24 -29 40 -53 34 -53 -6 0 -43 12 -82 26 -113 40 -236 112 -310 180 -19
18 -46 42 -59 53 -13 12 -22 23 -20 25 15 13 174 81 226 96 1 0 8 -3 17 -6z
m1260 -21 c61 -21 156 -65 156 -72 0 -25 -170 -153 -278 -209 -75 -39 -182
-82 -204 -82 -5 0 10 21 34 46 54 57 126 172 169 269 36 82 31 80 123 48z"/>
</g>
</svg>
